%TF.GenerationSoftware,KiCad,Pcbnew,9.0.5*%
%TF.CreationDate,2025-10-07T19:58:44+02:00*%
%TF.ProjectId,Kolibri v0.6,4b6f6c69-6272-4692-9076-302e362e6b69,rev?*%
%TF.SameCoordinates,Original*%
%TF.FileFunction,Plated,1,8,PTH,Mixed*%
%TF.FilePolarity,Positive*%
%FSLAX46Y46*%
G04 Gerber Fmt 4.6, Leading zero omitted, Abs format (unit mm)*
G04 Created by KiCad (PCBNEW 9.0.5) date 2025-10-07 19:58:44*
%MOMM*%
%LPD*%
G01*
G04 APERTURE LIST*
%TA.AperFunction,ViaDrill*%
%ADD10C,0.200000*%
%TD*%
G04 aperture for slot hole*
%TA.AperFunction,ComponentDrill*%
%ADD11C,0.800000*%
%TD*%
G04 APERTURE END LIST*
D10*
X86300000Y-108500000D03*
X86450000Y-88750000D03*
X86480000Y-101135000D03*
X86550000Y-111650000D03*
X86700000Y-90150000D03*
X87050000Y-109300000D03*
X87250000Y-98700000D03*
X87251064Y-104001619D03*
X87450000Y-101050000D03*
X87570736Y-107898143D03*
X87650000Y-90850000D03*
X87750000Y-93265000D03*
X87800000Y-99350000D03*
X87850000Y-96150000D03*
X87850000Y-105350000D03*
X87900000Y-97500000D03*
X88000000Y-95450000D03*
X88285000Y-113400000D03*
X88300000Y-101300000D03*
X88380573Y-102581913D03*
X88440000Y-100300000D03*
X88500000Y-96100000D03*
X88550000Y-86800000D03*
X88650000Y-94000000D03*
X89000000Y-106300000D03*
X89050000Y-103700000D03*
X89100000Y-99100000D03*
X89150000Y-97150000D03*
X89169546Y-96605667D03*
X89200000Y-92600000D03*
X89200000Y-106850000D03*
X89248729Y-98280001D03*
X89500000Y-112150000D03*
X89600000Y-103750000D03*
X89700000Y-93500000D03*
X89730884Y-92959999D03*
X89850000Y-100350000D03*
X90435000Y-86150000D03*
X90515000Y-106550000D03*
X90515000Y-107373324D03*
X90550000Y-100900000D03*
X90850000Y-99500000D03*
X90885000Y-106972740D03*
X91000000Y-104050000D03*
X91080000Y-96510705D03*
X91080000Y-97035000D03*
X91082828Y-103367342D03*
X91100000Y-112200000D03*
X91650000Y-104000000D03*
X91653548Y-113250706D03*
X91700000Y-103220000D03*
X91750000Y-88000000D03*
X91784998Y-108200000D03*
X91849286Y-93011156D03*
X91940000Y-86150000D03*
X92002181Y-88520630D03*
X92250000Y-101800000D03*
X92288370Y-103561630D03*
X92400000Y-113650000D03*
X92415000Y-93493376D03*
X92684889Y-98039789D03*
X92700000Y-86900000D03*
X92700000Y-92800000D03*
X92700000Y-96450000D03*
X92700000Y-97500000D03*
X92782802Y-99570000D03*
X92801440Y-95320487D03*
X92848350Y-92280774D03*
X92850000Y-102450000D03*
X92900000Y-100375000D03*
X92900000Y-101240000D03*
X92934130Y-95867026D03*
X92950000Y-108650000D03*
X93000000Y-93900000D03*
X93201000Y-99911630D03*
X93215841Y-98869248D03*
X93350000Y-87750000D03*
X93407058Y-101475135D03*
X93750000Y-107350000D03*
X93800000Y-92000000D03*
X93834998Y-105072000D03*
X93875000Y-91250000D03*
X93975053Y-103533281D03*
X94017243Y-109675605D03*
X94200000Y-94285000D03*
X94200000Y-100800000D03*
X94250000Y-99826053D03*
X94250729Y-95237932D03*
X94339196Y-107539197D03*
X94382723Y-97482724D03*
X94393117Y-106683594D03*
X94660758Y-91212500D03*
X94720000Y-93750000D03*
X94720000Y-94750000D03*
X94720000Y-95750000D03*
X94750000Y-87350000D03*
X94850000Y-96750000D03*
X94893258Y-102480000D03*
X94912951Y-97585000D03*
X94950000Y-106400000D03*
X94977261Y-89977261D03*
X95025000Y-99950457D03*
X95050000Y-88540000D03*
X95196988Y-102033513D03*
X95421548Y-98185438D03*
X95512237Y-107142499D03*
X95719080Y-97515002D03*
X95747880Y-100893008D03*
X95750000Y-96800000D03*
X95750000Y-109650000D03*
X95818432Y-91234135D03*
X95860000Y-110450000D03*
X95880158Y-90649149D03*
X95900000Y-89510000D03*
X95930000Y-101836630D03*
X96100000Y-88050000D03*
X96100000Y-94100000D03*
X96200000Y-99600000D03*
X96250000Y-111150000D03*
X96350000Y-98100000D03*
X96358133Y-91252190D03*
X96478391Y-103729000D03*
X96500000Y-96000000D03*
X96650000Y-92720000D03*
X96650000Y-95250000D03*
X96700000Y-107131445D03*
X96700000Y-109050000D03*
X96750000Y-87100000D03*
X96750000Y-94250000D03*
X96800000Y-101750000D03*
X96950000Y-111100000D03*
X97076053Y-93200000D03*
X97100000Y-102200000D03*
X97200000Y-97980000D03*
X97350000Y-87400000D03*
X97476514Y-97050000D03*
X97560000Y-100450000D03*
X97600000Y-111150000D03*
X97610822Y-93275000D03*
X97700000Y-90050000D03*
X97700000Y-95400000D03*
X97846514Y-97684214D03*
X97956281Y-99885000D03*
X97958527Y-98212470D03*
X98002022Y-101515000D03*
X98016535Y-92918630D03*
X98150000Y-89750000D03*
X98360297Y-97517993D03*
X98545803Y-100040069D03*
X98600000Y-93100000D03*
X98700000Y-87900000D03*
X98750000Y-106500000D03*
X98900000Y-97500000D03*
X98940000Y-110450000D03*
X98965000Y-96547978D03*
X99000000Y-94273947D03*
X99176000Y-102065000D03*
X99343390Y-105206020D03*
X99350000Y-91070000D03*
X99391787Y-94780000D03*
X99450000Y-97980000D03*
X99480000Y-95750000D03*
X99500000Y-93050000D03*
X99711630Y-90561630D03*
X99849501Y-100411189D03*
X99856845Y-102186999D03*
X100113102Y-90169999D03*
X100165000Y-92140676D03*
X100165000Y-98696498D03*
X100200000Y-91600000D03*
X100245871Y-107104129D03*
X100635000Y-91100000D03*
X100685359Y-92285000D03*
X100950000Y-88250000D03*
X100950000Y-104115000D03*
X100975000Y-102830000D03*
X101063344Y-105072089D03*
X101112059Y-107970318D03*
X101250000Y-100425000D03*
X101267108Y-98546000D03*
X101330000Y-102300000D03*
X101400000Y-97770000D03*
X101449168Y-103630772D03*
X101500000Y-108550000D03*
X101650000Y-110000000D03*
X101700000Y-92750000D03*
X101700000Y-93600000D03*
X101796219Y-99266037D03*
X102139999Y-95983949D03*
X102250000Y-90250000D03*
X102300000Y-88050000D03*
X102308030Y-94905796D03*
X102359998Y-97025000D03*
X102359998Y-98105006D03*
X102359998Y-98645009D03*
X102359998Y-100007037D03*
X102360250Y-97565003D03*
X102379581Y-106702796D03*
X102382658Y-103782828D03*
X102450000Y-95500000D03*
X102849545Y-102535000D03*
X102900000Y-107000000D03*
X103082581Y-104444159D03*
X103200000Y-112000000D03*
X103350000Y-108650000D03*
X103393370Y-107306630D03*
X103661834Y-92175000D03*
X103800000Y-86950000D03*
X103980000Y-88311630D03*
X104050000Y-97900000D03*
X104135001Y-105356681D03*
X104250000Y-94084998D03*
X104350000Y-92650000D03*
X104350000Y-103130000D03*
X104450000Y-94650000D03*
X104500000Y-93600000D03*
X104550000Y-95850000D03*
X104566434Y-108188629D03*
X104900000Y-87000000D03*
X105062933Y-94085001D03*
X105151574Y-112084013D03*
X105200000Y-109485000D03*
X105221925Y-108515000D03*
X105350000Y-90200000D03*
X105400000Y-88700000D03*
X105434998Y-93650000D03*
X105625006Y-97739141D03*
X105720000Y-110500000D03*
X105800000Y-98250000D03*
X105950000Y-102520000D03*
X105959000Y-100160998D03*
X105997146Y-100701001D03*
X106050000Y-113200000D03*
X106250000Y-97765002D03*
X106400000Y-88800000D03*
X106465000Y-106600000D03*
X106472626Y-102655882D03*
X106508639Y-108853320D03*
X106635000Y-86900000D03*
X106700000Y-103850000D03*
X106700000Y-111230000D03*
X106835000Y-104850000D03*
X106892353Y-103343841D03*
X106950000Y-92650000D03*
X107050000Y-102580000D03*
X107415002Y-113600000D03*
X107451466Y-110835000D03*
X107650000Y-91550000D03*
X107700000Y-102700000D03*
X107800000Y-113000000D03*
X107850000Y-103900000D03*
X108100000Y-93500000D03*
X108100000Y-107850000D03*
X108400000Y-103850000D03*
X108500000Y-102650000D03*
X108550000Y-87300000D03*
X108550000Y-112400000D03*
X109000000Y-103800000D03*
X109050000Y-104300000D03*
X109250000Y-102500000D03*
X109600000Y-105330000D03*
X109714609Y-106184270D03*
X109800000Y-86000000D03*
X109850000Y-107150000D03*
X109885000Y-86632264D03*
X110100000Y-92980000D03*
X110125000Y-103846353D03*
X110200000Y-87850000D03*
X110200000Y-97050000D03*
X110200000Y-100000000D03*
X110212500Y-94106105D03*
X110250000Y-95700000D03*
X110300000Y-99450000D03*
X110348000Y-98450000D03*
X110650000Y-106600000D03*
X110710233Y-103688956D03*
X110991000Y-96590747D03*
X111179120Y-108020000D03*
X111249000Y-101600000D03*
X111250000Y-98250000D03*
X111681102Y-96400622D03*
X111800000Y-98050000D03*
X111833921Y-94466105D03*
X112050000Y-95850000D03*
X112050000Y-108200000D03*
X112184998Y-104500000D03*
X112200000Y-105550000D03*
X112480659Y-106830456D03*
X112500000Y-93500000D03*
X112700000Y-97100000D03*
X112900000Y-105050000D03*
X112950000Y-99200000D03*
X113100000Y-96150000D03*
X113187661Y-107912339D03*
X113300000Y-91500000D03*
X113500000Y-88250000D03*
X114000000Y-91550000D03*
X114015000Y-108186921D03*
X114015000Y-109813705D03*
D11*
%TO.C,J1*%
X93630000Y-112497500D02*
X93630000Y-113097500D01*
X102270000Y-112497500D02*
X102270000Y-113097500D01*
M02*
