%TF.GenerationSoftware,KiCad,Pcbnew,9.0.5*%
%TF.CreationDate,2025-10-07T19:58:41+02:00*%
%TF.ProjectId,Kolibri v0.6,4b6f6c69-6272-4692-9076-302e362e6b69,rev?*%
%TF.SameCoordinates,Original*%
%TF.FileFunction,Profile,NP*%
%FSLAX46Y46*%
G04 Gerber Fmt 4.6, Leading zero omitted, Abs format (unit mm)*
G04 Created by KiCad (PCBNEW 9.0.5) date 2025-10-07 19:58:41*
%MOMM*%
%LPD*%
G01*
G04 APERTURE LIST*
%TA.AperFunction,Profile*%
%ADD10C,0.020000*%
%TD*%
G04 APERTURE END LIST*
D10*
X91086849Y-85289426D02*
X91170215Y-85295385D01*
X91250187Y-85304997D01*
X91327000Y-85318002D01*
X91400889Y-85334139D01*
X91472090Y-85353146D01*
X91540837Y-85374763D01*
X91607367Y-85398729D01*
X91734715Y-85452662D01*
X91856016Y-85512859D01*
X91973152Y-85577231D01*
X92088007Y-85643691D01*
X92202463Y-85710151D01*
X92318403Y-85774523D01*
X92437708Y-85834720D01*
X92562263Y-85888653D01*
X92627097Y-85912619D01*
X92693950Y-85934236D01*
X92763056Y-85953243D01*
X92834651Y-85969380D01*
X92908970Y-85982385D01*
X92986248Y-85991997D01*
X93066722Y-85997956D01*
X93150626Y-86000000D01*
X99999820Y-86000000D01*
X106849014Y-86000000D01*
X106932918Y-85997956D01*
X107013391Y-85991997D01*
X107090670Y-85982385D01*
X107164989Y-85969380D01*
X107236584Y-85953243D01*
X107305689Y-85934236D01*
X107372542Y-85912619D01*
X107437376Y-85888653D01*
X107561931Y-85834720D01*
X107681237Y-85774523D01*
X107797176Y-85710151D01*
X107911632Y-85643691D01*
X108026487Y-85577231D01*
X108143624Y-85512859D01*
X108264925Y-85452662D01*
X108392273Y-85398729D01*
X108458803Y-85374763D01*
X108527550Y-85353146D01*
X108598751Y-85334139D01*
X108672640Y-85318002D01*
X108749453Y-85304997D01*
X108829425Y-85295385D01*
X108912792Y-85289426D01*
X108999788Y-85287382D01*
X110136669Y-85287382D01*
X110327564Y-85302759D01*
X110517194Y-85325540D01*
X110705356Y-85355647D01*
X110891849Y-85393000D01*
X111076472Y-85437522D01*
X111259022Y-85489132D01*
X111439298Y-85547753D01*
X111617097Y-85613304D01*
X111792220Y-85685707D01*
X111964463Y-85764884D01*
X112133625Y-85850754D01*
X112299504Y-85943240D01*
X112461900Y-86042262D01*
X112620609Y-86147741D01*
X112775430Y-86259598D01*
X112926162Y-86377755D01*
X110653432Y-88650484D01*
X110615002Y-88632510D01*
X110576133Y-88615653D01*
X110536850Y-88599919D01*
X110497179Y-88585313D01*
X110457143Y-88571841D01*
X110416767Y-88559509D01*
X110376076Y-88548322D01*
X110335095Y-88538285D01*
X110293847Y-88529406D01*
X110252358Y-88521688D01*
X110210652Y-88515139D01*
X110168753Y-88509763D01*
X110126687Y-88505566D01*
X110084477Y-88502553D01*
X110042149Y-88500732D01*
X109999727Y-88500106D01*
X109923866Y-88502095D01*
X109848971Y-88507798D01*
X109775134Y-88517126D01*
X109702444Y-88529991D01*
X109630994Y-88546303D01*
X109560873Y-88565974D01*
X109492174Y-88588915D01*
X109424985Y-88615036D01*
X109359399Y-88644250D01*
X109295507Y-88676466D01*
X109233398Y-88711597D01*
X109173165Y-88749554D01*
X109114897Y-88790246D01*
X109058686Y-88833587D01*
X109004622Y-88879486D01*
X108952797Y-88927855D01*
X108903300Y-88978605D01*
X108856224Y-89031647D01*
X108811659Y-89086892D01*
X108769696Y-89144251D01*
X108730425Y-89203636D01*
X108693938Y-89264958D01*
X108660325Y-89328127D01*
X108629677Y-89393055D01*
X108602085Y-89459654D01*
X108577640Y-89527833D01*
X108556433Y-89597504D01*
X108538555Y-89668579D01*
X108524096Y-89740968D01*
X108513147Y-89814582D01*
X108505799Y-89889334D01*
X108502143Y-89965133D01*
X108501020Y-89982697D01*
X108500524Y-89991483D01*
X108500076Y-90000273D01*
X108501232Y-90059243D01*
X108504699Y-90118053D01*
X108510468Y-90176638D01*
X108518527Y-90234929D01*
X108528866Y-90292859D01*
X108541474Y-90350361D01*
X108556342Y-90407367D01*
X108573457Y-90463810D01*
X108582762Y-90491679D01*
X108592608Y-90519353D01*
X108602991Y-90546823D01*
X108613908Y-90574082D01*
X108625357Y-90601122D01*
X108637333Y-90627936D01*
X108649834Y-90654514D01*
X108662857Y-90680851D01*
X108663374Y-90681368D01*
X108676955Y-90707390D01*
X108691039Y-90733134D01*
X108705621Y-90758593D01*
X108720696Y-90783759D01*
X108736261Y-90808626D01*
X108752310Y-90833185D01*
X108768840Y-90857431D01*
X108785846Y-90881356D01*
X108786363Y-90881873D01*
X108803866Y-90905508D01*
X108821823Y-90928789D01*
X108840230Y-90951709D01*
X108859080Y-90974262D01*
X108878369Y-90996442D01*
X108898091Y-91018241D01*
X108918239Y-91039654D01*
X108938810Y-91060673D01*
X108939327Y-91061190D01*
X108960346Y-91081760D01*
X108981759Y-91101909D01*
X109003558Y-91121630D01*
X109025737Y-91140919D01*
X109048290Y-91159769D01*
X109071211Y-91178176D01*
X109094492Y-91196133D01*
X109118127Y-91213635D01*
X109118642Y-91214152D01*
X109142567Y-91231158D01*
X109166812Y-91247688D01*
X109191372Y-91263738D01*
X109216238Y-91279303D01*
X109241404Y-91294378D01*
X109266863Y-91308960D01*
X109292608Y-91323044D01*
X109318632Y-91336625D01*
X109319149Y-91337142D01*
X109345485Y-91350166D01*
X109372064Y-91362668D01*
X109398878Y-91374645D01*
X109425918Y-91386094D01*
X109453177Y-91397011D01*
X109480648Y-91407394D01*
X109508321Y-91417239D01*
X109536190Y-91426542D01*
X109592633Y-91443657D01*
X109649639Y-91458524D01*
X109707141Y-91471133D01*
X109765071Y-91481472D01*
X109823363Y-91489532D01*
X109881947Y-91495300D01*
X109940758Y-91498768D01*
X109999727Y-91499923D01*
X110022203Y-91499678D01*
X110044669Y-91499097D01*
X110067122Y-91498180D01*
X110089557Y-91496926D01*
X110111970Y-91495336D01*
X110134358Y-91493411D01*
X110156718Y-91491150D01*
X110179044Y-91488554D01*
X110178527Y-91489587D01*
X110248650Y-91479514D01*
X110317609Y-91466302D01*
X110385337Y-91450029D01*
X110451763Y-91430775D01*
X110516816Y-91408618D01*
X110580429Y-91383636D01*
X110642530Y-91355908D01*
X110703051Y-91325513D01*
X110761920Y-91292530D01*
X110819069Y-91257036D01*
X110874428Y-91219111D01*
X110927927Y-91178833D01*
X110979497Y-91136282D01*
X111029066Y-91091534D01*
X111076567Y-91044670D01*
X111121929Y-90995767D01*
X111165081Y-90944905D01*
X111205956Y-90892162D01*
X111244482Y-90837616D01*
X111280590Y-90781347D01*
X111314210Y-90723432D01*
X111345273Y-90663951D01*
X111373709Y-90602981D01*
X111399447Y-90540603D01*
X111422419Y-90476894D01*
X111442554Y-90411932D01*
X111459783Y-90345797D01*
X111474036Y-90278568D01*
X111485243Y-90210322D01*
X111493335Y-90141138D01*
X111498241Y-90071096D01*
X111499893Y-90000273D01*
X111499267Y-89957851D01*
X111497445Y-89915522D01*
X111494433Y-89873313D01*
X111490236Y-89831247D01*
X111484860Y-89789348D01*
X111478311Y-89747642D01*
X111470593Y-89706153D01*
X111461714Y-89664906D01*
X111451677Y-89623924D01*
X111440490Y-89583233D01*
X111428158Y-89542857D01*
X111414686Y-89502821D01*
X111400080Y-89463150D01*
X111384346Y-89423867D01*
X111367489Y-89384997D01*
X111349515Y-89346566D01*
X113622243Y-87073320D01*
X113740366Y-87224052D01*
X113852192Y-87378875D01*
X113957640Y-87537586D01*
X114056632Y-87699984D01*
X114149088Y-87865867D01*
X114234930Y-88035033D01*
X114314077Y-88207280D01*
X114386452Y-88382405D01*
X114451973Y-88560208D01*
X114510564Y-88740485D01*
X114562143Y-88923035D01*
X114606632Y-89107657D01*
X114643951Y-89294147D01*
X114674022Y-89482305D01*
X114696765Y-89671927D01*
X114712101Y-89862813D01*
X114712101Y-91000212D01*
X114710058Y-91087208D01*
X114704103Y-91170574D01*
X114694498Y-91250546D01*
X114681502Y-91327359D01*
X114665378Y-91401248D01*
X114646384Y-91472448D01*
X114624783Y-91541196D01*
X114600835Y-91607726D01*
X114546940Y-91735074D01*
X114486787Y-91856375D01*
X114422462Y-91973511D01*
X114356050Y-92088366D01*
X114289638Y-92202822D01*
X114225313Y-92318761D01*
X114165160Y-92438067D01*
X114111265Y-92562622D01*
X114087317Y-92627456D01*
X114065716Y-92694309D01*
X114046723Y-92763415D01*
X114030598Y-92835009D01*
X114017602Y-92909329D01*
X114007997Y-92986607D01*
X114002042Y-93067081D01*
X114000000Y-93150985D01*
X114000000Y-100000179D01*
X114000000Y-106849373D01*
X114002042Y-106933277D01*
X114007997Y-107013750D01*
X114017602Y-107091029D01*
X114030598Y-107165348D01*
X114046723Y-107236943D01*
X114065716Y-107306048D01*
X114087317Y-107372901D01*
X114111265Y-107437735D01*
X114165160Y-107562290D01*
X114225313Y-107681596D01*
X114289638Y-107797535D01*
X114356050Y-107911991D01*
X114422462Y-108026846D01*
X114486787Y-108143983D01*
X114546940Y-108265284D01*
X114600835Y-108392632D01*
X114624783Y-108459162D01*
X114646384Y-108527909D01*
X114665378Y-108599110D01*
X114681502Y-108672999D01*
X114694498Y-108749812D01*
X114704103Y-108829784D01*
X114710058Y-108913151D01*
X114712101Y-109000147D01*
X114712099Y-110137028D01*
X114696750Y-110327914D01*
X114673998Y-110517536D01*
X114643920Y-110705694D01*
X114606597Y-110892184D01*
X114562106Y-111076806D01*
X114510527Y-111259356D01*
X114451939Y-111439633D01*
X114386421Y-111617435D01*
X114314050Y-111792560D01*
X114234908Y-111964807D01*
X114149071Y-112133972D01*
X114056620Y-112299855D01*
X113957632Y-112462254D01*
X113852188Y-112620965D01*
X113740365Y-112775789D01*
X113622243Y-112926521D01*
X111349515Y-110653791D01*
X111367489Y-110615361D01*
X111384346Y-110576492D01*
X111400080Y-110537209D01*
X111414685Y-110497538D01*
X111428157Y-110457502D01*
X111440490Y-110417126D01*
X111451677Y-110376435D01*
X111461713Y-110335454D01*
X111470593Y-110294206D01*
X111478310Y-110252717D01*
X111484860Y-110211011D01*
X111490236Y-110169112D01*
X111494433Y-110127046D01*
X111497445Y-110084836D01*
X111499267Y-110042508D01*
X111499893Y-110000086D01*
X111497904Y-109924225D01*
X111492201Y-109849330D01*
X111482873Y-109775493D01*
X111470008Y-109702803D01*
X111453696Y-109631353D01*
X111434025Y-109561232D01*
X111411085Y-109492533D01*
X111384963Y-109425344D01*
X111355750Y-109359758D01*
X111323533Y-109295866D01*
X111288403Y-109233757D01*
X111250446Y-109173524D01*
X111209754Y-109115256D01*
X111166413Y-109059045D01*
X111120514Y-109004981D01*
X111072146Y-108953156D01*
X111021396Y-108903659D01*
X110968354Y-108856583D01*
X110913108Y-108812018D01*
X110855749Y-108770055D01*
X110796364Y-108730784D01*
X110735042Y-108694297D01*
X110671873Y-108660684D01*
X110606945Y-108630036D01*
X110540346Y-108602444D01*
X110472167Y-108577999D01*
X110402496Y-108556792D01*
X110331421Y-108538914D01*
X110259032Y-108524455D01*
X110185417Y-108513506D01*
X110110665Y-108506158D01*
X110034866Y-108502502D01*
X110017300Y-108501379D01*
X110008515Y-108500883D01*
X109999727Y-108500435D01*
X109940758Y-108501591D01*
X109881947Y-108505058D01*
X109823363Y-108510827D01*
X109765071Y-108518886D01*
X109707141Y-108529225D01*
X109649639Y-108541833D01*
X109592633Y-108556701D01*
X109536190Y-108573816D01*
X109508320Y-108583121D01*
X109480647Y-108592967D01*
X109453176Y-108603350D01*
X109425917Y-108614267D01*
X109398876Y-108625716D01*
X109372063Y-108637692D01*
X109345485Y-108650193D01*
X109319149Y-108663216D01*
X109318632Y-108663733D01*
X109292609Y-108677314D01*
X109266864Y-108691398D01*
X109241405Y-108705980D01*
X109216238Y-108721056D01*
X109191371Y-108736621D01*
X109166811Y-108752670D01*
X109142566Y-108769200D01*
X109118642Y-108786205D01*
X109118127Y-108786722D01*
X109094492Y-108804225D01*
X109071210Y-108822182D01*
X109048289Y-108840589D01*
X109025736Y-108859440D01*
X109003556Y-108878729D01*
X108981757Y-108898450D01*
X108960345Y-108918599D01*
X108939327Y-108939169D01*
X108938810Y-108939686D01*
X108918238Y-108960706D01*
X108898089Y-108982119D01*
X108878367Y-109003919D01*
X108859078Y-109026098D01*
X108840228Y-109048652D01*
X108821822Y-109071572D01*
X108803865Y-109094852D01*
X108786363Y-109118486D01*
X108785846Y-109119001D01*
X108768839Y-109142926D01*
X108752309Y-109167171D01*
X108736259Y-109191731D01*
X108720694Y-109216597D01*
X108705618Y-109241763D01*
X108691037Y-109267222D01*
X108676954Y-109292967D01*
X108663374Y-109318991D01*
X108662857Y-109319508D01*
X108649834Y-109345844D01*
X108637332Y-109372423D01*
X108625354Y-109399237D01*
X108613905Y-109426277D01*
X108602987Y-109453536D01*
X108592604Y-109481007D01*
X108582760Y-109508680D01*
X108573457Y-109536549D01*
X108556342Y-109592992D01*
X108541474Y-109649998D01*
X108528865Y-109707500D01*
X108518525Y-109765430D01*
X108510466Y-109823722D01*
X108504698Y-109882306D01*
X108501231Y-109941117D01*
X108500076Y-110000086D01*
X108500318Y-110022562D01*
X108500896Y-110045028D01*
X108501810Y-110067481D01*
X108503061Y-110089916D01*
X108504649Y-110112329D01*
X108506575Y-110134717D01*
X108508841Y-110157077D01*
X108511446Y-110179403D01*
X108510412Y-110178886D01*
X108520485Y-110249009D01*
X108533697Y-110317968D01*
X108549970Y-110385696D01*
X108569224Y-110452122D01*
X108591381Y-110517175D01*
X108616363Y-110580788D01*
X108644091Y-110642889D01*
X108674486Y-110703410D01*
X108707470Y-110762279D01*
X108742963Y-110819428D01*
X108780888Y-110874787D01*
X108821166Y-110928286D01*
X108863718Y-110979856D01*
X108908465Y-111029425D01*
X108955329Y-111076926D01*
X109004232Y-111122288D01*
X109055094Y-111165440D01*
X109107838Y-111206315D01*
X109162383Y-111244841D01*
X109218653Y-111280949D01*
X109276568Y-111314569D01*
X109336049Y-111345632D01*
X109397018Y-111374068D01*
X109459397Y-111399806D01*
X109523106Y-111422778D01*
X109588067Y-111442913D01*
X109654202Y-111460142D01*
X109721432Y-111474395D01*
X109789678Y-111485602D01*
X109858861Y-111493694D01*
X109928904Y-111498600D01*
X109999727Y-111500252D01*
X110042149Y-111499626D01*
X110084477Y-111497804D01*
X110126687Y-111494792D01*
X110168753Y-111490595D01*
X110210652Y-111485219D01*
X110252358Y-111478670D01*
X110293847Y-111470952D01*
X110335095Y-111462073D01*
X110376076Y-111452036D01*
X110416767Y-111440849D01*
X110457143Y-111428517D01*
X110497179Y-111415045D01*
X110536850Y-111400439D01*
X110576133Y-111384705D01*
X110615002Y-111367848D01*
X110653432Y-111349874D01*
X112926160Y-113622601D01*
X112775428Y-113740723D01*
X112620605Y-113852546D01*
X112461894Y-113957990D01*
X112299495Y-114056978D01*
X112133612Y-114149429D01*
X111964447Y-114235266D01*
X111792200Y-114314409D01*
X111617075Y-114386780D01*
X111439273Y-114452298D01*
X111258996Y-114510887D01*
X111076446Y-114562466D01*
X110891824Y-114606957D01*
X110705334Y-114644280D01*
X110517177Y-114674358D01*
X110327554Y-114697111D01*
X110136669Y-114712460D01*
X108999788Y-114712460D01*
X108912792Y-114710417D01*
X108829425Y-114704462D01*
X108749453Y-114694857D01*
X108672640Y-114681861D01*
X108598751Y-114665737D01*
X108527550Y-114646743D01*
X108458803Y-114625142D01*
X108392273Y-114601194D01*
X108264925Y-114547299D01*
X108143624Y-114487146D01*
X108026487Y-114422821D01*
X107911632Y-114356409D01*
X107797176Y-114289997D01*
X107681237Y-114225672D01*
X107561931Y-114165519D01*
X107437376Y-114111624D01*
X107372542Y-114087676D01*
X107305689Y-114066075D01*
X107236584Y-114047082D01*
X107164989Y-114030957D01*
X107090670Y-114017961D01*
X107013391Y-114008356D01*
X106932918Y-114002401D01*
X106849014Y-114000359D01*
X99999820Y-114000359D01*
X93150626Y-114000359D01*
X93066722Y-114002401D01*
X92986248Y-114008356D01*
X92908970Y-114017961D01*
X92834651Y-114030957D01*
X92763056Y-114047082D01*
X92693950Y-114066075D01*
X92627097Y-114087676D01*
X92562263Y-114111624D01*
X92437708Y-114165519D01*
X92318403Y-114225672D01*
X92202463Y-114289997D01*
X92088007Y-114356409D01*
X91973152Y-114422821D01*
X91856016Y-114487146D01*
X91734715Y-114547299D01*
X91607367Y-114601194D01*
X91540837Y-114625142D01*
X91472090Y-114646743D01*
X91400889Y-114665737D01*
X91327000Y-114681861D01*
X91250187Y-114694857D01*
X91170215Y-114704462D01*
X91086849Y-114710417D01*
X90999853Y-114712460D01*
X89869172Y-114712460D01*
X89677927Y-114697242D01*
X89487945Y-114674592D01*
X89299429Y-114644591D01*
X89112581Y-114607316D01*
X88927606Y-114562847D01*
X88744706Y-114511264D01*
X88564084Y-114452645D01*
X88385943Y-114387071D01*
X88210487Y-114314619D01*
X88037918Y-114235371D01*
X87868439Y-114149404D01*
X87702254Y-114056798D01*
X87539566Y-113957632D01*
X87380577Y-113851986D01*
X87225491Y-113739939D01*
X87074511Y-113621571D01*
X89346207Y-111349874D01*
X89384638Y-111367848D01*
X89423508Y-111384705D01*
X89462791Y-111400439D01*
X89502462Y-111415044D01*
X89542498Y-111428516D01*
X89582874Y-111440849D01*
X89623565Y-111452036D01*
X89664547Y-111462072D01*
X89705794Y-111470952D01*
X89747283Y-111478669D01*
X89788989Y-111485219D01*
X89830888Y-111490595D01*
X89872954Y-111494792D01*
X89915163Y-111497804D01*
X89957492Y-111499626D01*
X89999914Y-111500252D01*
X90075775Y-111498263D01*
X90150670Y-111492560D01*
X90224507Y-111483232D01*
X90297196Y-111470367D01*
X90368647Y-111454055D01*
X90438767Y-111434384D01*
X90507467Y-111411444D01*
X90574655Y-111385322D01*
X90640241Y-111356109D01*
X90704134Y-111323892D01*
X90766243Y-111288762D01*
X90826476Y-111250805D01*
X90884744Y-111210113D01*
X90940955Y-111166772D01*
X90995019Y-111120873D01*
X91046845Y-111072505D01*
X91096341Y-111021755D01*
X91143417Y-110968713D01*
X91187982Y-110913467D01*
X91229945Y-110856108D01*
X91269216Y-110796723D01*
X91305703Y-110735401D01*
X91339316Y-110672232D01*
X91369964Y-110607304D01*
X91397556Y-110540705D01*
X91422000Y-110472526D01*
X91443208Y-110402855D01*
X91461086Y-110331780D01*
X91475545Y-110259391D01*
X91486494Y-110185776D01*
X91493841Y-110111024D01*
X91497497Y-110035225D01*
X91498092Y-110026443D01*
X91498634Y-110017659D01*
X91499124Y-110008874D01*
X91499564Y-110000086D01*
X91498409Y-109941117D01*
X91494942Y-109882306D01*
X91489174Y-109823722D01*
X91481115Y-109765430D01*
X91470775Y-109707500D01*
X91458166Y-109649998D01*
X91443299Y-109592992D01*
X91426183Y-109536549D01*
X91416880Y-109508679D01*
X91407035Y-109481006D01*
X91396652Y-109453535D01*
X91385735Y-109426276D01*
X91374286Y-109399235D01*
X91362309Y-109372422D01*
X91349807Y-109345844D01*
X91336783Y-109319508D01*
X91336266Y-109318991D01*
X91322685Y-109292968D01*
X91308601Y-109267223D01*
X91294019Y-109241764D01*
X91278944Y-109216597D01*
X91263379Y-109191730D01*
X91247329Y-109167170D01*
X91230799Y-109142925D01*
X91213793Y-109119001D01*
X91213276Y-109118486D01*
X91195774Y-109094851D01*
X91177817Y-109071569D01*
X91159410Y-109048648D01*
X91140560Y-109026095D01*
X91121271Y-109003915D01*
X91101550Y-108982116D01*
X91081401Y-108960704D01*
X91060831Y-108939686D01*
X91060314Y-108939169D01*
X91039295Y-108918597D01*
X91017882Y-108898448D01*
X90996083Y-108878726D01*
X90973904Y-108859437D01*
X90951350Y-108840587D01*
X90928430Y-108822181D01*
X90905149Y-108804224D01*
X90881514Y-108786722D01*
X90880997Y-108786205D01*
X90857072Y-108769198D01*
X90832827Y-108752668D01*
X90808267Y-108736618D01*
X90783400Y-108721053D01*
X90758234Y-108705977D01*
X90732775Y-108691396D01*
X90707031Y-108677313D01*
X90681009Y-108663733D01*
X90680492Y-108663216D01*
X90654156Y-108650193D01*
X90627577Y-108637691D01*
X90600763Y-108625713D01*
X90573723Y-108614264D01*
X90546464Y-108603346D01*
X90518994Y-108592963D01*
X90491320Y-108583119D01*
X90463451Y-108573816D01*
X90407008Y-108556701D01*
X90350002Y-108541833D01*
X90292500Y-108529224D01*
X90234570Y-108518884D01*
X90176279Y-108510825D01*
X90117694Y-108505057D01*
X90058884Y-108501590D01*
X89999914Y-108500435D01*
X89977438Y-108500677D01*
X89954972Y-108501255D01*
X89932520Y-108502169D01*
X89910085Y-108503420D01*
X89887672Y-108505008D01*
X89865283Y-108506934D01*
X89842924Y-108509200D01*
X89820597Y-108511805D01*
X89821113Y-108510771D01*
X89750991Y-108520844D01*
X89682031Y-108534056D01*
X89614303Y-108550329D01*
X89547878Y-108569583D01*
X89482823Y-108591740D01*
X89419211Y-108616722D01*
X89357110Y-108644450D01*
X89296589Y-108674845D01*
X89237719Y-108707829D01*
X89180570Y-108743322D01*
X89125211Y-108781247D01*
X89071712Y-108821525D01*
X89020143Y-108864077D01*
X88970573Y-108908824D01*
X88923073Y-108955688D01*
X88877711Y-109004591D01*
X88834558Y-109055453D01*
X88793684Y-109108197D01*
X88755158Y-109162742D01*
X88719050Y-109219012D01*
X88685429Y-109276927D01*
X88654366Y-109336408D01*
X88625931Y-109397377D01*
X88600192Y-109459756D01*
X88577221Y-109523465D01*
X88557085Y-109588426D01*
X88539856Y-109654561D01*
X88525603Y-109721791D01*
X88514396Y-109790037D01*
X88506305Y-109859220D01*
X88501398Y-109929263D01*
X88499747Y-110000086D01*
X88500373Y-110042508D01*
X88502194Y-110084836D01*
X88505206Y-110127046D01*
X88509403Y-110169112D01*
X88514780Y-110211011D01*
X88521329Y-110252717D01*
X88529047Y-110294206D01*
X88537926Y-110335454D01*
X88547963Y-110376435D01*
X88559150Y-110417126D01*
X88571482Y-110457502D01*
X88584954Y-110497538D01*
X88599560Y-110537209D01*
X88615294Y-110576492D01*
X88632151Y-110615361D01*
X88650125Y-110653791D01*
X86378429Y-112925488D01*
X86260008Y-112774492D01*
X86147910Y-112619387D01*
X86042216Y-112460377D01*
X85943005Y-112297665D01*
X85850357Y-112131454D01*
X85764350Y-111961947D01*
X85685064Y-111789347D01*
X85612578Y-111613858D01*
X85546972Y-111435683D01*
X85488324Y-111255024D01*
X85436716Y-111072086D01*
X85392224Y-110887071D01*
X85354930Y-110700183D01*
X85324912Y-110511625D01*
X85302250Y-110321599D01*
X85287023Y-110130310D01*
X85287023Y-109000147D01*
X85289067Y-108913151D01*
X85295026Y-108829785D01*
X85304638Y-108749813D01*
X85317643Y-108673000D01*
X85333780Y-108599111D01*
X85352787Y-108527910D01*
X85374404Y-108459162D01*
X85398370Y-108392633D01*
X85452303Y-108265285D01*
X85512500Y-108143984D01*
X85576872Y-108026847D01*
X85643332Y-107911992D01*
X85709792Y-107797536D01*
X85774164Y-107681596D01*
X85834361Y-107562290D01*
X85888294Y-107437735D01*
X85912260Y-107372901D01*
X85933877Y-107306049D01*
X85952884Y-107236943D01*
X85969021Y-107165348D01*
X85982026Y-107091029D01*
X85991638Y-107013750D01*
X85997597Y-106933277D01*
X85999641Y-106849373D01*
X85999641Y-100000179D01*
X85999641Y-93150985D01*
X85997597Y-93067081D01*
X85991638Y-92986607D01*
X85982026Y-92909329D01*
X85969021Y-92835010D01*
X85952884Y-92763415D01*
X85933877Y-92694309D01*
X85912260Y-92627456D01*
X85888294Y-92562622D01*
X85834361Y-92438067D01*
X85774164Y-92318762D01*
X85709792Y-92202822D01*
X85643332Y-92088366D01*
X85576872Y-91973511D01*
X85512500Y-91856375D01*
X85452303Y-91735074D01*
X85398370Y-91607726D01*
X85374404Y-91541196D01*
X85352787Y-91472449D01*
X85333780Y-91401248D01*
X85317643Y-91327359D01*
X85304638Y-91250546D01*
X85295026Y-91170574D01*
X85289067Y-91087208D01*
X85287023Y-91000212D01*
X85287023Y-90168221D01*
X85291654Y-89957883D01*
X85305285Y-89748626D01*
X85327819Y-89540720D01*
X85359161Y-89334436D01*
X85399213Y-89130042D01*
X85447881Y-88927810D01*
X85505068Y-88728007D01*
X85570677Y-88530904D01*
X85644612Y-88336772D01*
X85726777Y-88145879D01*
X85817077Y-87958495D01*
X85915414Y-87774890D01*
X86021692Y-87595333D01*
X86135816Y-87420096D01*
X86257689Y-87249446D01*
X86387214Y-87083655D01*
X88650125Y-89346566D01*
X88632151Y-89384997D01*
X88615294Y-89423867D01*
X88599560Y-89463150D01*
X88584954Y-89502821D01*
X88571482Y-89542857D01*
X88559150Y-89583233D01*
X88547963Y-89623924D01*
X88537927Y-89664906D01*
X88529047Y-89706153D01*
X88521329Y-89747642D01*
X88514780Y-89789348D01*
X88509404Y-89831247D01*
X88505207Y-89873313D01*
X88502194Y-89915522D01*
X88500373Y-89957851D01*
X88499747Y-90000273D01*
X88501736Y-90076134D01*
X88507439Y-90151028D01*
X88516768Y-90224866D01*
X88529633Y-90297555D01*
X88545945Y-90369006D01*
X88565616Y-90439127D01*
X88588557Y-90507827D01*
X88614678Y-90575015D01*
X88643892Y-90640602D01*
X88676109Y-90704495D01*
X88711240Y-90766604D01*
X88749196Y-90826838D01*
X88789889Y-90885106D01*
X88833229Y-90941317D01*
X88879128Y-90995381D01*
X88927497Y-91047207D01*
X88978247Y-91096704D01*
X89031289Y-91143780D01*
X89086534Y-91188345D01*
X89143894Y-91230309D01*
X89203279Y-91269580D01*
X89264600Y-91306067D01*
X89327769Y-91339680D01*
X89392697Y-91370327D01*
X89459295Y-91397919D01*
X89527474Y-91422363D01*
X89597146Y-91443570D01*
X89668220Y-91461448D01*
X89740609Y-91475906D01*
X89814224Y-91486854D01*
X89888975Y-91494201D01*
X89964774Y-91497856D01*
X89973554Y-91498451D01*
X89982338Y-91498993D01*
X89991124Y-91499483D01*
X89999914Y-91499923D01*
X90058884Y-91498768D01*
X90117694Y-91495301D01*
X90176279Y-91489533D01*
X90234570Y-91481474D01*
X90292500Y-91471134D01*
X90350002Y-91458525D01*
X90407008Y-91443658D01*
X90463451Y-91426542D01*
X90491320Y-91417239D01*
X90518994Y-91407394D01*
X90546464Y-91397011D01*
X90573723Y-91386094D01*
X90600763Y-91374645D01*
X90627577Y-91362668D01*
X90654155Y-91350166D01*
X90680492Y-91337142D01*
X90681009Y-91336625D01*
X90707031Y-91323044D01*
X90732775Y-91308960D01*
X90758234Y-91294378D01*
X90783400Y-91279303D01*
X90808267Y-91263738D01*
X90832827Y-91247688D01*
X90857072Y-91231158D01*
X90880997Y-91214152D01*
X90881514Y-91213635D01*
X90905149Y-91196133D01*
X90928430Y-91178176D01*
X90951350Y-91159769D01*
X90973903Y-91140919D01*
X90996083Y-91121630D01*
X91017882Y-91101909D01*
X91039295Y-91081760D01*
X91060314Y-91061190D01*
X91060831Y-91060673D01*
X91081401Y-91039654D01*
X91101550Y-91018241D01*
X91121271Y-90996442D01*
X91140560Y-90974262D01*
X91159410Y-90951709D01*
X91177817Y-90928789D01*
X91195774Y-90905508D01*
X91213276Y-90881873D01*
X91213793Y-90881356D01*
X91230799Y-90857431D01*
X91247329Y-90833185D01*
X91263379Y-90808626D01*
X91278944Y-90783759D01*
X91294019Y-90758593D01*
X91308601Y-90733134D01*
X91322685Y-90707390D01*
X91336266Y-90681368D01*
X91336783Y-90680851D01*
X91349807Y-90654515D01*
X91362309Y-90627936D01*
X91374286Y-90601122D01*
X91385735Y-90574082D01*
X91396652Y-90546823D01*
X91407035Y-90519353D01*
X91416880Y-90491679D01*
X91426183Y-90463810D01*
X91443298Y-90407367D01*
X91458165Y-90350361D01*
X91470774Y-90292859D01*
X91481113Y-90234929D01*
X91489173Y-90176638D01*
X91494941Y-90118053D01*
X91498409Y-90059243D01*
X91499564Y-90000273D01*
X91499319Y-89977797D01*
X91498738Y-89955331D01*
X91497821Y-89932879D01*
X91496567Y-89910444D01*
X91494977Y-89888031D01*
X91493052Y-89865642D01*
X91490791Y-89843283D01*
X91488195Y-89820956D01*
X91489228Y-89821472D01*
X91479155Y-89751350D01*
X91465943Y-89682390D01*
X91449670Y-89614662D01*
X91430416Y-89548236D01*
X91408259Y-89483182D01*
X91383277Y-89419570D01*
X91355549Y-89357468D01*
X91325154Y-89296948D01*
X91292171Y-89238078D01*
X91256677Y-89180929D01*
X91218752Y-89125570D01*
X91178474Y-89072071D01*
X91135923Y-89020502D01*
X91091175Y-88970932D01*
X91044311Y-88923431D01*
X90995408Y-88878070D01*
X90944546Y-88834917D01*
X90891803Y-88794043D01*
X90837257Y-88755516D01*
X90780988Y-88719408D01*
X90723073Y-88685788D01*
X90663592Y-88654725D01*
X90602622Y-88626290D01*
X90540244Y-88600551D01*
X90476535Y-88577579D01*
X90411573Y-88557444D01*
X90345438Y-88540215D01*
X90278209Y-88525962D01*
X90209963Y-88514755D01*
X90140779Y-88506663D01*
X90070737Y-88501757D01*
X89999914Y-88500106D01*
X89957492Y-88500732D01*
X89915163Y-88502553D01*
X89872954Y-88505565D01*
X89830888Y-88509762D01*
X89788989Y-88515139D01*
X89747283Y-88521688D01*
X89705794Y-88529406D01*
X89664547Y-88538285D01*
X89623565Y-88548322D01*
X89582874Y-88559509D01*
X89542498Y-88571841D01*
X89502462Y-88585313D01*
X89462791Y-88599919D01*
X89423508Y-88615653D01*
X89384638Y-88632510D01*
X89346207Y-88650484D01*
X87083296Y-86387573D01*
X87249087Y-86258048D01*
X87419737Y-86136175D01*
X87594974Y-86022051D01*
X87774531Y-85915773D01*
X87958136Y-85817436D01*
X88145520Y-85727136D01*
X88336413Y-85644971D01*
X88530545Y-85571036D01*
X88727648Y-85505427D01*
X88927451Y-85448240D01*
X89129683Y-85399572D01*
X89334077Y-85359520D01*
X89540361Y-85328178D01*
X89748267Y-85305644D01*
X89957524Y-85292013D01*
X90167862Y-85287382D01*
X90999853Y-85287382D01*
X91086849Y-85289426D01*
M02*
