%TF.GenerationSoftware,KiCad,Pcbnew,9.0.5*%
%TF.CreationDate,2025-10-07T19:58:40+02:00*%
%TF.ProjectId,Kolibri v0.6,4b6f6c69-6272-4692-9076-302e362e6b69,rev?*%
%TF.SameCoordinates,Original*%
%TF.FileFunction,Legend,Bot*%
%TF.FilePolarity,Positive*%
%FSLAX46Y46*%
G04 Gerber Fmt 4.6, Leading zero omitted, Abs format (unit mm)*
G04 Created by KiCad (PCBNEW 9.0.5) date 2025-10-07 19:58:40*
%MOMM*%
%LPD*%
G01*
G04 APERTURE LIST*
%ADD10C,0.100000*%
%ADD11C,0.120000*%
%ADD12C,0.250000*%
G04 APERTURE END LIST*
G36*
X109800000Y-92250000D02*
G01*
X111800000Y-92250000D01*
X111800000Y-102250000D01*
X109800000Y-102250000D01*
X109800000Y-92250000D01*
G37*
D10*
G36*
X113668182Y-88860328D02*
G01*
X113695443Y-88870361D01*
X113715672Y-88886123D01*
X113729767Y-88907271D01*
X113739193Y-88936652D01*
X113742746Y-88976866D01*
X113742746Y-88986236D01*
X113742746Y-89098572D01*
X113519997Y-89098572D01*
X113519997Y-88976866D01*
X113523596Y-88936685D01*
X113533154Y-88907303D01*
X113547474Y-88886123D01*
X113567957Y-88870329D01*
X113595265Y-88860309D01*
X113631591Y-88856637D01*
X113668182Y-88860328D01*
G37*
G36*
X113932946Y-88879459D02*
G01*
X113955573Y-88888618D01*
X113972933Y-88903385D01*
X113984897Y-88922752D01*
X113992941Y-88949601D01*
X113995977Y-88986236D01*
X113995977Y-89098572D01*
X113810743Y-89098572D01*
X113810743Y-88986236D01*
X113813754Y-88949583D01*
X113821726Y-88922735D01*
X113833568Y-88903385D01*
X113850829Y-88888643D01*
X113873508Y-88879473D01*
X113903360Y-88876149D01*
X113932946Y-88879459D01*
G37*
G36*
X113684128Y-88458036D02*
G01*
X113681068Y-88514467D01*
X113673439Y-88551344D01*
X113663099Y-88574134D01*
X113651092Y-88587957D01*
X113635689Y-88597887D01*
X113616169Y-88604169D01*
X113591364Y-88606441D01*
X113565627Y-88603592D01*
X113544635Y-88595509D01*
X113527287Y-88582227D01*
X113514519Y-88564875D01*
X113506476Y-88543277D01*
X113503584Y-88516270D01*
X113506521Y-88488311D01*
X113514964Y-88464080D01*
X113528764Y-88442826D01*
X113548317Y-88424050D01*
X113571553Y-88409333D01*
X113598614Y-88398516D01*
X113630212Y-88391701D01*
X113667239Y-88389291D01*
X113684128Y-88389291D01*
X113684128Y-88458036D01*
G37*
G36*
X114130641Y-89241137D02*
G01*
X113373609Y-89241137D01*
X113373609Y-88973104D01*
X113452000Y-88973104D01*
X113452000Y-88976866D01*
X113452000Y-89174470D01*
X114063974Y-89174470D01*
X114063974Y-88980627D01*
X114061085Y-88936582D01*
X114053087Y-88900454D01*
X114040747Y-88870919D01*
X114024480Y-88846864D01*
X114002888Y-88826486D01*
X113977534Y-88812000D01*
X113947671Y-88803038D01*
X113912153Y-88799881D01*
X113875401Y-88802845D01*
X113845998Y-88811052D01*
X113822430Y-88823927D01*
X113803486Y-88841871D01*
X113789597Y-88865013D01*
X113780885Y-88894586D01*
X113768550Y-88859075D01*
X113750357Y-88830473D01*
X113726333Y-88807605D01*
X113697065Y-88790674D01*
X113662957Y-88780259D01*
X113622762Y-88776608D01*
X113582806Y-88780060D01*
X113549221Y-88789849D01*
X113520739Y-88805624D01*
X113496513Y-88827722D01*
X113478122Y-88853988D01*
X113464224Y-88886138D01*
X113455240Y-88925365D01*
X113452000Y-88973104D01*
X113373609Y-88973104D01*
X113373609Y-88534707D01*
X113440276Y-88534707D01*
X113443001Y-88566769D01*
X113450718Y-88594062D01*
X113463026Y-88617418D01*
X113479916Y-88637472D01*
X113501016Y-88653888D01*
X113525302Y-88665692D01*
X113553397Y-88673018D01*
X113586162Y-88675589D01*
X113624258Y-88672323D01*
X113655650Y-88663144D01*
X113681692Y-88648479D01*
X113703289Y-88628069D01*
X113719303Y-88603814D01*
X113731652Y-88573077D01*
X113739776Y-88534437D01*
X113742746Y-88486212D01*
X113742746Y-88389291D01*
X113750220Y-88389291D01*
X113783557Y-88393027D01*
X113810045Y-88403523D01*
X113831296Y-88420658D01*
X113846560Y-88443013D01*
X113856391Y-88471793D01*
X113859983Y-88508780D01*
X113857625Y-88544475D01*
X113850604Y-88579037D01*
X113838913Y-88612493D01*
X113822467Y-88644793D01*
X113892809Y-88644793D01*
X113906298Y-88606912D01*
X113915670Y-88571145D01*
X113921420Y-88535610D01*
X113923290Y-88501661D01*
X113919547Y-88455851D01*
X113909205Y-88418906D01*
X113893152Y-88389146D01*
X113871633Y-88365279D01*
X113844627Y-88346687D01*
X113810630Y-88332635D01*
X113768087Y-88323499D01*
X113715049Y-88320176D01*
X113452000Y-88320176D01*
X113452000Y-88389291D01*
X113522341Y-88389291D01*
X113496200Y-88406811D01*
X113475728Y-88426428D01*
X113460279Y-88448297D01*
X113449529Y-88472495D01*
X113442702Y-88501021D01*
X113441604Y-88516270D01*
X113440276Y-88534707D01*
X113373609Y-88534707D01*
X113373609Y-88037740D01*
X113452000Y-88037740D01*
X113454637Y-88079227D01*
X113461611Y-88109986D01*
X113471818Y-88132340D01*
X113484643Y-88148196D01*
X113501734Y-88160182D01*
X113525806Y-88169689D01*
X113558900Y-88176172D01*
X113603528Y-88178622D01*
X113852949Y-88178622D01*
X113852949Y-88229367D01*
X113911567Y-88229367D01*
X113911567Y-88178622D01*
X114042872Y-88178622D01*
X114042872Y-88109138D01*
X113911567Y-88109138D01*
X113911567Y-87966745D01*
X113852949Y-87966745D01*
X113852949Y-88109138D01*
X113603528Y-88109138D01*
X113565739Y-88106989D01*
X113543406Y-88101833D01*
X113531317Y-88095067D01*
X113523378Y-88084438D01*
X113517630Y-88066441D01*
X113515307Y-88037740D01*
X113515307Y-87966745D01*
X113452000Y-87966745D01*
X113452000Y-88037740D01*
X113373609Y-88037740D01*
X113373609Y-87900078D01*
X114130641Y-87900078D01*
X114130641Y-89241137D01*
G37*
G36*
X113555726Y-106686025D02*
G01*
X113452930Y-106686025D01*
X113322779Y-107102837D01*
X113191987Y-106686025D01*
X113089161Y-106686025D01*
X113089161Y-107298000D01*
X113156450Y-107298000D01*
X113156450Y-106760690D01*
X113287944Y-107180763D01*
X113357278Y-107180763D01*
X113488803Y-106760690D01*
X113488803Y-107298000D01*
X113555726Y-107298000D01*
X113555726Y-106686025D01*
G37*
G36*
X112736779Y-106968052D02*
G01*
X112705339Y-106980012D01*
X112679886Y-106997643D01*
X112659416Y-107020918D01*
X112644149Y-107049259D01*
X112634824Y-107081923D01*
X112631572Y-107120056D01*
X112635071Y-107164293D01*
X112645001Y-107201535D01*
X112661025Y-107233179D01*
X112683504Y-107260154D01*
X112710184Y-107280635D01*
X112742825Y-107296112D01*
X112782632Y-107306116D01*
X112831057Y-107309723D01*
X112863343Y-107307852D01*
X112897155Y-107302103D01*
X112931227Y-107292729D01*
X112967345Y-107279242D01*
X112967345Y-107199521D01*
X112937518Y-107216740D01*
X112904513Y-107229343D01*
X112869826Y-107236837D01*
X112833103Y-107239381D01*
X112790432Y-107235423D01*
X112758247Y-107224795D01*
X112734215Y-107208753D01*
X112719517Y-107191949D01*
X112709042Y-107171981D01*
X112702535Y-107148218D01*
X112700235Y-107119690D01*
X112702343Y-107093398D01*
X112708353Y-107071062D01*
X112718100Y-107051888D01*
X112731834Y-107035353D01*
X112754254Y-107019164D01*
X112783001Y-107008721D01*
X112819792Y-107004908D01*
X112879204Y-107004908D01*
X112879204Y-106936911D01*
X112817044Y-106936911D01*
X112783613Y-106933772D01*
X112758256Y-106925319D01*
X112739191Y-106912511D01*
X112724364Y-106894145D01*
X112715385Y-106871197D01*
X112712203Y-106842206D01*
X112715480Y-106812434D01*
X112724738Y-106788811D01*
X112740046Y-106769849D01*
X112759728Y-106756591D01*
X112785722Y-106747872D01*
X112819792Y-106744643D01*
X112848559Y-106746289D01*
X112880577Y-106751494D01*
X112913651Y-106759944D01*
X112951957Y-106772780D01*
X112951957Y-106700093D01*
X112913133Y-106688606D01*
X112878349Y-106680749D01*
X112844453Y-106675858D01*
X112813624Y-106674301D01*
X112774096Y-106677348D01*
X112740844Y-106685893D01*
X112712858Y-106699287D01*
X112689305Y-106717239D01*
X112669219Y-106740689D01*
X112655127Y-106767356D01*
X112646531Y-106797887D01*
X112643540Y-106833303D01*
X112646362Y-106866197D01*
X112654480Y-106894564D01*
X112667811Y-106919362D01*
X112685649Y-106939844D01*
X112708317Y-106956109D01*
X112736779Y-106968052D01*
G37*
G36*
X92293828Y-111848000D02*
G01*
X92152075Y-111848000D01*
X92090482Y-111844354D01*
X92039460Y-111834248D01*
X91997410Y-111818715D01*
X91962928Y-111798457D01*
X91934852Y-111773811D01*
X91911084Y-111742890D01*
X91892029Y-111705454D01*
X91877693Y-111660404D01*
X91868483Y-111606293D01*
X91865182Y-111541389D01*
X91937935Y-111541389D01*
X91940309Y-111592661D01*
X91946900Y-111635141D01*
X91957082Y-111670214D01*
X91970474Y-111699063D01*
X91986967Y-111722630D01*
X92006942Y-111741823D01*
X92031468Y-111757488D01*
X92061366Y-111769445D01*
X92097654Y-111777204D01*
X92141512Y-111780002D01*
X92224829Y-111780002D01*
X92224829Y-111304022D01*
X92141512Y-111304022D01*
X92097644Y-111306812D01*
X92061350Y-111314550D01*
X92031453Y-111326472D01*
X92006933Y-111342087D01*
X91986967Y-111361211D01*
X91970456Y-111384706D01*
X91957061Y-111413429D01*
X91946886Y-111448304D01*
X91940304Y-111490502D01*
X91937935Y-111541389D01*
X91865182Y-111541389D01*
X91868465Y-111476842D01*
X91877627Y-111423000D01*
X91891892Y-111378150D01*
X91910856Y-111340855D01*
X91934516Y-111310030D01*
X91962443Y-111285489D01*
X91996854Y-111265289D01*
X92038939Y-111249778D01*
X92090134Y-111239674D01*
X92152075Y-111236025D01*
X92293828Y-111236025D01*
X92293828Y-111848000D01*
G37*
G36*
X91501931Y-111322780D02*
G01*
X91501931Y-111550219D01*
X91311697Y-111550219D01*
X91311697Y-111620561D01*
X91501931Y-111620561D01*
X91501931Y-111848000D01*
X91559328Y-111848000D01*
X91559328Y-111620561D01*
X91749563Y-111620561D01*
X91749563Y-111550219D01*
X91559328Y-111550219D01*
X91559328Y-111322780D01*
X91501931Y-111322780D01*
G37*
G36*
X105950905Y-92182027D02*
G01*
X106130737Y-92368384D01*
X105941577Y-92565000D01*
X106037943Y-92565000D01*
X106182691Y-92414546D01*
X106327438Y-92565000D01*
X106423804Y-92565000D01*
X106230636Y-92364629D01*
X106407373Y-92182027D01*
X106311007Y-92182027D01*
X106179159Y-92318467D01*
X106047271Y-92182027D01*
X105950905Y-92182027D01*
G37*
G36*
X105081269Y-92492276D02*
G01*
X105081269Y-92355928D01*
X105227802Y-92355928D01*
X105227802Y-92299263D01*
X104992483Y-92299263D01*
X104992483Y-92517433D01*
X105028182Y-92534732D01*
X105066294Y-92548996D01*
X105107067Y-92560267D01*
X105171092Y-92571070D01*
X105240701Y-92574769D01*
X105303323Y-92571650D01*
X105357843Y-92562768D01*
X105405471Y-92548611D01*
X105447208Y-92529356D01*
X105483799Y-92504855D01*
X105514243Y-92475975D01*
X105538372Y-92442793D01*
X105556236Y-92404673D01*
X105567504Y-92360797D01*
X105571473Y-92310193D01*
X105567499Y-92259422D01*
X105556222Y-92215432D01*
X105538352Y-92177247D01*
X105514226Y-92144038D01*
X105483799Y-92115165D01*
X105447209Y-92090665D01*
X105405469Y-92071410D01*
X105357833Y-92057253D01*
X105303301Y-92048370D01*
X105240662Y-92045251D01*
X105176950Y-92048401D01*
X105117465Y-92057646D01*
X105061120Y-92073021D01*
X105009788Y-92094099D01*
X105009788Y-92168349D01*
X105044180Y-92147851D01*
X105079356Y-92131362D01*
X105115481Y-92118615D01*
X105153277Y-92109362D01*
X105192388Y-92103792D01*
X105233121Y-92101915D01*
X105282629Y-92104333D01*
X105324578Y-92111132D01*
X105360153Y-92121819D01*
X105390333Y-92136171D01*
X105415851Y-92154244D01*
X105440992Y-92181426D01*
X105460027Y-92215430D01*
X105472400Y-92257741D01*
X105476893Y-92310193D01*
X105472406Y-92362441D01*
X105460043Y-92404635D01*
X105441009Y-92438590D01*
X105415851Y-92465776D01*
X105390317Y-92483851D01*
X105360127Y-92498203D01*
X105324551Y-92508890D01*
X105282609Y-92515688D01*
X105233121Y-92518105D01*
X105186956Y-92516441D01*
X105148344Y-92511816D01*
X105112489Y-92503660D01*
X105081269Y-92492276D01*
G37*
G36*
X104539468Y-92565000D02*
G01*
X104449770Y-92565000D01*
X104449770Y-92350066D01*
X104352094Y-92350066D01*
X104317147Y-92352165D01*
X104289615Y-92357911D01*
X104267992Y-92366766D01*
X104249650Y-92379556D01*
X104228559Y-92401126D01*
X104204251Y-92434543D01*
X104119434Y-92565000D01*
X104023068Y-92565000D01*
X104114116Y-92426025D01*
X104143030Y-92385957D01*
X104168967Y-92358584D01*
X104197829Y-92337637D01*
X104225127Y-92326527D01*
X104190242Y-92315800D01*
X104162420Y-92301104D01*
X104140549Y-92282349D01*
X104124816Y-92260114D01*
X104114953Y-92233732D01*
X104111457Y-92202238D01*
X104111460Y-92202207D01*
X104205997Y-92202207D01*
X104210079Y-92231065D01*
X104221305Y-92253223D01*
X104239098Y-92270259D01*
X104262937Y-92282489D01*
X104294771Y-92290454D01*
X104337012Y-92293401D01*
X104449770Y-92293401D01*
X104449770Y-92111685D01*
X104337012Y-92111685D01*
X104294733Y-92114595D01*
X104262901Y-92122452D01*
X104239098Y-92134491D01*
X104221322Y-92151325D01*
X104210089Y-92173358D01*
X104205997Y-92202207D01*
X104111460Y-92202207D01*
X104115426Y-92165497D01*
X104126466Y-92135655D01*
X104143802Y-92111368D01*
X104167419Y-92091657D01*
X104196264Y-92076715D01*
X104232912Y-92065272D01*
X104279120Y-92057764D01*
X104337012Y-92055020D01*
X104539468Y-92055020D01*
X104539468Y-92565000D01*
G37*
G36*
X103710593Y-92055020D02*
G01*
X103149781Y-92055020D01*
X103149781Y-92113639D01*
X103385140Y-92113639D01*
X103385140Y-92565000D01*
X103475274Y-92565000D01*
X103475274Y-92113639D01*
X103710593Y-92113639D01*
X103710593Y-92055020D01*
G37*
G36*
X102322057Y-92492276D02*
G01*
X102322057Y-92355928D01*
X102468591Y-92355928D01*
X102468591Y-92299263D01*
X102233272Y-92299263D01*
X102233272Y-92517433D01*
X102268970Y-92534732D01*
X102307083Y-92548996D01*
X102347855Y-92560267D01*
X102411881Y-92571070D01*
X102481490Y-92574769D01*
X102544111Y-92571650D01*
X102598631Y-92562768D01*
X102646259Y-92548611D01*
X102687997Y-92529356D01*
X102724588Y-92504855D01*
X102755032Y-92475975D01*
X102779160Y-92442793D01*
X102797025Y-92404673D01*
X102808293Y-92360797D01*
X102812262Y-92310193D01*
X102808288Y-92259422D01*
X102797011Y-92215432D01*
X102779140Y-92177247D01*
X102755015Y-92144038D01*
X102724588Y-92115165D01*
X102687998Y-92090665D01*
X102646257Y-92071410D01*
X102598622Y-92057253D01*
X102544090Y-92048370D01*
X102481450Y-92045251D01*
X102417738Y-92048401D01*
X102358254Y-92057646D01*
X102301908Y-92073021D01*
X102250577Y-92094099D01*
X102250577Y-92168349D01*
X102284968Y-92147851D01*
X102320144Y-92131362D01*
X102356270Y-92118615D01*
X102394066Y-92109362D01*
X102433177Y-92103792D01*
X102473909Y-92101915D01*
X102523417Y-92104333D01*
X102565367Y-92111132D01*
X102600941Y-92121819D01*
X102631122Y-92136171D01*
X102656639Y-92154244D01*
X102681780Y-92181426D01*
X102700815Y-92215430D01*
X102713188Y-92257741D01*
X102717682Y-92310193D01*
X102713194Y-92362441D01*
X102700831Y-92404635D01*
X102681797Y-92438590D01*
X102656639Y-92465776D01*
X102631106Y-92483851D01*
X102600916Y-92498203D01*
X102565339Y-92508890D01*
X102523398Y-92515688D01*
X102473909Y-92518105D01*
X102427744Y-92516441D01*
X102389132Y-92511816D01*
X102353278Y-92503660D01*
X102322057Y-92492276D01*
G37*
G36*
X101756721Y-92506381D02*
G01*
X101610187Y-92506381D01*
X101610187Y-92117547D01*
X101769620Y-92142948D01*
X101769620Y-92080422D01*
X101611100Y-92055020D01*
X101521402Y-92055020D01*
X101521402Y-92506381D01*
X101374868Y-92506381D01*
X101374868Y-92565000D01*
X101756721Y-92565000D01*
X101756721Y-92506381D01*
G37*
G36*
X101045651Y-92048134D02*
G01*
X101083633Y-92056395D01*
X101116943Y-92069781D01*
X101146345Y-92088483D01*
X101172254Y-92113120D01*
X101196081Y-92147361D01*
X101214520Y-92190356D01*
X101226650Y-92243930D01*
X101231073Y-92310193D01*
X101226655Y-92376248D01*
X101214534Y-92429711D01*
X101196096Y-92472670D01*
X101172254Y-92506931D01*
X101146347Y-92531555D01*
X101116946Y-92550248D01*
X101083636Y-92563629D01*
X101045653Y-92571887D01*
X101001946Y-92574769D01*
X100958238Y-92571887D01*
X100920259Y-92563628D01*
X100886958Y-92550247D01*
X100857569Y-92531554D01*
X100831678Y-92506931D01*
X100807818Y-92472668D01*
X100789368Y-92429708D01*
X100777239Y-92376246D01*
X100772819Y-92310193D01*
X100862517Y-92310193D01*
X100865246Y-92364784D01*
X100872630Y-92407982D01*
X100883621Y-92441691D01*
X100897404Y-92467608D01*
X100917868Y-92491325D01*
X100941652Y-92507289D01*
X100969260Y-92516777D01*
X101001946Y-92520059D01*
X101034402Y-92516786D01*
X101061877Y-92507312D01*
X101085610Y-92491351D01*
X101106091Y-92467608D01*
X101119858Y-92441693D01*
X101130836Y-92407985D01*
X101138213Y-92364785D01*
X101140939Y-92310193D01*
X101138209Y-92255391D01*
X101130826Y-92212082D01*
X101119847Y-92178338D01*
X101106091Y-92152443D01*
X101085607Y-92128683D01*
X101061874Y-92112713D01*
X101034399Y-92103235D01*
X101001946Y-92099961D01*
X100969263Y-92103244D01*
X100941656Y-92112737D01*
X100917870Y-92128709D01*
X100897404Y-92152443D01*
X100883632Y-92178340D01*
X100872640Y-92212084D01*
X100865249Y-92255393D01*
X100862517Y-92310193D01*
X100772819Y-92310193D01*
X100777245Y-92243933D01*
X100789382Y-92190359D01*
X100807833Y-92147363D01*
X100831678Y-92113120D01*
X100857571Y-92088484D01*
X100886961Y-92069782D01*
X100920263Y-92056396D01*
X100958240Y-92048134D01*
X101001946Y-92045251D01*
X101045651Y-92048134D01*
G37*
G36*
X91622299Y-112368052D02*
G01*
X91590858Y-112380012D01*
X91565405Y-112397643D01*
X91544935Y-112420918D01*
X91529669Y-112449259D01*
X91520343Y-112481923D01*
X91517091Y-112520056D01*
X91520590Y-112564293D01*
X91530520Y-112601535D01*
X91546544Y-112633179D01*
X91569023Y-112660154D01*
X91595703Y-112680635D01*
X91628345Y-112696112D01*
X91668152Y-112706116D01*
X91716577Y-112709723D01*
X91748862Y-112707852D01*
X91782675Y-112702103D01*
X91816747Y-112692729D01*
X91852864Y-112679242D01*
X91852864Y-112599521D01*
X91823037Y-112616740D01*
X91790033Y-112629343D01*
X91755346Y-112636837D01*
X91718622Y-112639381D01*
X91675951Y-112635423D01*
X91643766Y-112624795D01*
X91619734Y-112608753D01*
X91605036Y-112591949D01*
X91594561Y-112571981D01*
X91588055Y-112548218D01*
X91585754Y-112519690D01*
X91587863Y-112493398D01*
X91593873Y-112471062D01*
X91603619Y-112451888D01*
X91617353Y-112435353D01*
X91639774Y-112419164D01*
X91668520Y-112408721D01*
X91705311Y-112404908D01*
X91764723Y-112404908D01*
X91764723Y-112336911D01*
X91702563Y-112336911D01*
X91669132Y-112333772D01*
X91643775Y-112325319D01*
X91624711Y-112312511D01*
X91609883Y-112294145D01*
X91600904Y-112271197D01*
X91597722Y-112242206D01*
X91600999Y-112212434D01*
X91610258Y-112188811D01*
X91625566Y-112169849D01*
X91645248Y-112156591D01*
X91671241Y-112147872D01*
X91705311Y-112144643D01*
X91734079Y-112146289D01*
X91766097Y-112151494D01*
X91799170Y-112159944D01*
X91837477Y-112172780D01*
X91837477Y-112100093D01*
X91798652Y-112088606D01*
X91763868Y-112080749D01*
X91729972Y-112075858D01*
X91699144Y-112074301D01*
X91659615Y-112077348D01*
X91626363Y-112085893D01*
X91598377Y-112099287D01*
X91574824Y-112117239D01*
X91554738Y-112140689D01*
X91540646Y-112167356D01*
X91532050Y-112197887D01*
X91529059Y-112233303D01*
X91531881Y-112266197D01*
X91539999Y-112294564D01*
X91553331Y-112319362D01*
X91571168Y-112339844D01*
X91593837Y-112356109D01*
X91622299Y-112368052D01*
G37*
G36*
X91386330Y-112594831D02*
G01*
X91314247Y-112594831D01*
X91314247Y-112698000D01*
X91386330Y-112698000D01*
X91386330Y-112594831D01*
G37*
G36*
X90955027Y-112368052D02*
G01*
X90923586Y-112380012D01*
X90898134Y-112397643D01*
X90877663Y-112420918D01*
X90862397Y-112449259D01*
X90853072Y-112481923D01*
X90849820Y-112520056D01*
X90853319Y-112564293D01*
X90863249Y-112601535D01*
X90879273Y-112633179D01*
X90901752Y-112660154D01*
X90928432Y-112680635D01*
X90961073Y-112696112D01*
X91000880Y-112706116D01*
X91049305Y-112709723D01*
X91081590Y-112707852D01*
X91115403Y-112702103D01*
X91149475Y-112692729D01*
X91185593Y-112679242D01*
X91185593Y-112599521D01*
X91155766Y-112616740D01*
X91122761Y-112629343D01*
X91088074Y-112636837D01*
X91051351Y-112639381D01*
X91008679Y-112635423D01*
X90976495Y-112624795D01*
X90952463Y-112608753D01*
X90937765Y-112591949D01*
X90927290Y-112571981D01*
X90920783Y-112548218D01*
X90918482Y-112519690D01*
X90920591Y-112493398D01*
X90926601Y-112471062D01*
X90936348Y-112451888D01*
X90950081Y-112435353D01*
X90972502Y-112419164D01*
X91001249Y-112408721D01*
X91038039Y-112404908D01*
X91097451Y-112404908D01*
X91097451Y-112336911D01*
X91035292Y-112336911D01*
X91001861Y-112333772D01*
X90976504Y-112325319D01*
X90957439Y-112312511D01*
X90942612Y-112294145D01*
X90933633Y-112271197D01*
X90930450Y-112242206D01*
X90933728Y-112212434D01*
X90942986Y-112188811D01*
X90958294Y-112169849D01*
X90977976Y-112156591D01*
X91003970Y-112147872D01*
X91038039Y-112144643D01*
X91066807Y-112146289D01*
X91098825Y-112151494D01*
X91131898Y-112159944D01*
X91170205Y-112172780D01*
X91170205Y-112100093D01*
X91131381Y-112088606D01*
X91096597Y-112080749D01*
X91062701Y-112075858D01*
X91031872Y-112074301D01*
X90992344Y-112077348D01*
X90959092Y-112085893D01*
X90931105Y-112099287D01*
X90907553Y-112117239D01*
X90887467Y-112140689D01*
X90873375Y-112167356D01*
X90864779Y-112197887D01*
X90861788Y-112233303D01*
X90864610Y-112266197D01*
X90872728Y-112294564D01*
X90886059Y-112319362D01*
X90903897Y-112339844D01*
X90926565Y-112356109D01*
X90955027Y-112368052D01*
G37*
G36*
X113555726Y-104686025D02*
G01*
X113452930Y-104686025D01*
X113322779Y-105102837D01*
X113191987Y-104686025D01*
X113089161Y-104686025D01*
X113089161Y-105298000D01*
X113156450Y-105298000D01*
X113156450Y-104760690D01*
X113287944Y-105180763D01*
X113357278Y-105180763D01*
X113488803Y-104760690D01*
X113488803Y-105298000D01*
X113555726Y-105298000D01*
X113555726Y-104686025D01*
G37*
G36*
X112886378Y-105227658D02*
G01*
X112645585Y-105227658D01*
X112645585Y-105298000D01*
X112969390Y-105298000D01*
X112969390Y-105227658D01*
X112862320Y-105096866D01*
X112777110Y-104991060D01*
X112747344Y-104947209D01*
X112730826Y-104915552D01*
X112720835Y-104884325D01*
X112717667Y-104854772D01*
X112720943Y-104823815D01*
X112730385Y-104797730D01*
X112746183Y-104775344D01*
X112766530Y-104758637D01*
X112790925Y-104748301D01*
X112820463Y-104744643D01*
X112853171Y-104747861D01*
X112888973Y-104758015D01*
X112925143Y-104774267D01*
X112965971Y-104798572D01*
X112965971Y-104714161D01*
X112924705Y-104696473D01*
X112888118Y-104684376D01*
X112852529Y-104676682D01*
X112821837Y-104674301D01*
X112782225Y-104677618D01*
X112748581Y-104686977D01*
X112719925Y-104701782D01*
X112695472Y-104721855D01*
X112674888Y-104747567D01*
X112660346Y-104776786D01*
X112651437Y-104810214D01*
X112648333Y-104848910D01*
X112651299Y-104885765D01*
X112660118Y-104920461D01*
X112675391Y-104954793D01*
X112702982Y-105000182D01*
X112757296Y-105068839D01*
X112886378Y-105227658D01*
G37*
G36*
X107942276Y-94049577D02*
G01*
X107805928Y-94049577D01*
X107805928Y-93887263D01*
X107749263Y-93887263D01*
X107749263Y-94147923D01*
X107967433Y-94147923D01*
X107984732Y-94108381D01*
X107998996Y-94066164D01*
X108010267Y-94021000D01*
X108021070Y-93950080D01*
X108024769Y-93872974D01*
X108021650Y-93803609D01*
X108012768Y-93743218D01*
X107998611Y-93690460D01*
X107979356Y-93644228D01*
X107954855Y-93603697D01*
X107925975Y-93569974D01*
X107892793Y-93543247D01*
X107854673Y-93523459D01*
X107810797Y-93510978D01*
X107760193Y-93506581D01*
X107709422Y-93510983D01*
X107665432Y-93523474D01*
X107627247Y-93543269D01*
X107594038Y-93569993D01*
X107565165Y-93603697D01*
X107540665Y-93644227D01*
X107521410Y-93690463D01*
X107507253Y-93743228D01*
X107498370Y-93803633D01*
X107495251Y-93873018D01*
X107498401Y-93943591D01*
X107507646Y-94009482D01*
X107523021Y-94071896D01*
X107544099Y-94128755D01*
X107618349Y-94128755D01*
X107597851Y-94090660D01*
X107581362Y-94051695D01*
X107568615Y-94011680D01*
X107559362Y-93969813D01*
X107553792Y-93926490D01*
X107551915Y-93881371D01*
X107554333Y-93826532D01*
X107561132Y-93780065D01*
X107571819Y-93740659D01*
X107586171Y-93707228D01*
X107604244Y-93678963D01*
X107631426Y-93651114D01*
X107665430Y-93630029D01*
X107707741Y-93616324D01*
X107760193Y-93611346D01*
X107812441Y-93616317D01*
X107854635Y-93630012D01*
X107888590Y-93651095D01*
X107915776Y-93678963D01*
X107933851Y-93707246D01*
X107948203Y-93740687D01*
X107958890Y-93780095D01*
X107965688Y-93826553D01*
X107968105Y-93881371D01*
X107966441Y-93932508D01*
X107961816Y-93975278D01*
X107953660Y-94014994D01*
X107942276Y-94049577D01*
G37*
G36*
X108015000Y-94913332D02*
G01*
X108012299Y-94975827D01*
X108004813Y-95027178D01*
X107993231Y-95069266D01*
X107977905Y-95103651D01*
X107957716Y-95132579D01*
X107933982Y-95153230D01*
X107905994Y-95166044D01*
X107872698Y-95170563D01*
X107839202Y-95165784D01*
X107810778Y-95152150D01*
X107786388Y-95129985D01*
X107766368Y-95100050D01*
X107751208Y-95062606D01*
X107740928Y-95016119D01*
X107733668Y-95054833D01*
X107722094Y-95085128D01*
X107706307Y-95108618D01*
X107686667Y-95125473D01*
X107662165Y-95136216D01*
X107631538Y-95140096D01*
X107601940Y-95135964D01*
X107577054Y-95124232D01*
X107555925Y-95105269D01*
X107537932Y-95078591D01*
X107524377Y-95047102D01*
X107514093Y-95008437D01*
X107507428Y-94961143D01*
X107505020Y-94903484D01*
X107505020Y-94896142D01*
X107561685Y-94896142D01*
X107564215Y-94944100D01*
X107570919Y-94979247D01*
X107580888Y-95004600D01*
X107595355Y-95023932D01*
X107614210Y-95035922D01*
X107638866Y-95040255D01*
X107663743Y-95035904D01*
X107682642Y-95023899D01*
X107697026Y-95004600D01*
X107706894Y-94979269D01*
X107713537Y-94944124D01*
X107715405Y-94908408D01*
X107772711Y-94908408D01*
X107775672Y-94961052D01*
X107783527Y-94999514D01*
X107795273Y-95027198D01*
X107812130Y-95047832D01*
X107834847Y-95060966D01*
X107865340Y-95065798D01*
X107895612Y-95060991D01*
X107918368Y-95047874D01*
X107935437Y-95027198D01*
X107947371Y-94999472D01*
X107955336Y-94961007D01*
X107958335Y-94908408D01*
X107958335Y-94749083D01*
X107772711Y-94749083D01*
X107772711Y-94908408D01*
X107715405Y-94908408D01*
X107716046Y-94896142D01*
X107716046Y-94749083D01*
X107561685Y-94749083D01*
X107561685Y-94896142D01*
X107505020Y-94896142D01*
X107505020Y-94649725D01*
X108015000Y-94649725D01*
X108015000Y-94913332D01*
G37*
G36*
X107956381Y-95687313D02*
G01*
X107956381Y-95849627D01*
X107567547Y-95849627D01*
X107592948Y-95673025D01*
X107530422Y-95673025D01*
X107505020Y-95848616D01*
X107505020Y-95947974D01*
X107956381Y-95947974D01*
X107956381Y-96110288D01*
X108015000Y-96110288D01*
X108015000Y-95687313D01*
X107956381Y-95687313D01*
G37*
G36*
X107956381Y-96716547D02*
G01*
X107956381Y-97063289D01*
X108015000Y-97063289D01*
X108015000Y-96597010D01*
X107956381Y-96597010D01*
X107847388Y-96751191D01*
X107759216Y-96873893D01*
X107722674Y-96916757D01*
X107696293Y-96940542D01*
X107670271Y-96954930D01*
X107645643Y-96959491D01*
X107619846Y-96954774D01*
X107598108Y-96941178D01*
X107579453Y-96918429D01*
X107565531Y-96889129D01*
X107556917Y-96853999D01*
X107553869Y-96811465D01*
X107556551Y-96764366D01*
X107565013Y-96712810D01*
X107578556Y-96660727D01*
X107598810Y-96601934D01*
X107528468Y-96601934D01*
X107513728Y-96661356D01*
X107503647Y-96714041D01*
X107497235Y-96765291D01*
X107495251Y-96809487D01*
X107498015Y-96866528D01*
X107505814Y-96914975D01*
X107518152Y-96956239D01*
X107534879Y-96991452D01*
X107556306Y-97021094D01*
X107580655Y-97042034D01*
X107608512Y-97054863D01*
X107640758Y-97059332D01*
X107671471Y-97055062D01*
X107700384Y-97042362D01*
X107728994Y-97020368D01*
X107766818Y-96980637D01*
X107824032Y-96902426D01*
X107956381Y-96716547D01*
G37*
G36*
X107740043Y-97892840D02*
G01*
X107750010Y-97938115D01*
X107764703Y-97974767D01*
X107784098Y-98004244D01*
X107807716Y-98026228D01*
X107834936Y-98039656D01*
X107866714Y-98044339D01*
X107903578Y-98039301D01*
X107934613Y-98025001D01*
X107960982Y-98001927D01*
X107983462Y-97969557D01*
X108000529Y-97931138D01*
X108013427Y-97884135D01*
X108021763Y-97826812D01*
X108024769Y-97757080D01*
X108023210Y-97710590D01*
X108018419Y-97661899D01*
X108010607Y-97612835D01*
X107999368Y-97560826D01*
X107932934Y-97560826D01*
X107947283Y-97603777D01*
X107957786Y-97651304D01*
X107964031Y-97701253D01*
X107966151Y-97754135D01*
X107962852Y-97815581D01*
X107953996Y-97861927D01*
X107940628Y-97896533D01*
X107926624Y-97917698D01*
X107909984Y-97932783D01*
X107890182Y-97942152D01*
X107866408Y-97945465D01*
X107844498Y-97942429D01*
X107825885Y-97933774D01*
X107809907Y-97919739D01*
X107796127Y-97899963D01*
X107782636Y-97867676D01*
X107773934Y-97826282D01*
X107770757Y-97773303D01*
X107770757Y-97687750D01*
X107714092Y-97687750D01*
X107714092Y-97777260D01*
X107711476Y-97825400D01*
X107704432Y-97861914D01*
X107693759Y-97889367D01*
X107678454Y-97910719D01*
X107659331Y-97923648D01*
X107635171Y-97928231D01*
X107610362Y-97923511D01*
X107590675Y-97910180D01*
X107574874Y-97888136D01*
X107563826Y-97859794D01*
X107556560Y-97822363D01*
X107553869Y-97773303D01*
X107555241Y-97731877D01*
X107559578Y-97685771D01*
X107566620Y-97638146D01*
X107577316Y-97582984D01*
X107516744Y-97582984D01*
X107507171Y-97638891D01*
X107500624Y-97688981D01*
X107496548Y-97737791D01*
X107495251Y-97782184D01*
X107497790Y-97839104D01*
X107504911Y-97886988D01*
X107516072Y-97927288D01*
X107531032Y-97961204D01*
X107550574Y-97990128D01*
X107572797Y-98010420D01*
X107598239Y-98022799D01*
X107627752Y-98027106D01*
X107655164Y-98023042D01*
X107678803Y-98011352D01*
X107699468Y-97992154D01*
X107716537Y-97966469D01*
X107730090Y-97933826D01*
X107740043Y-97892840D01*
G37*
G36*
X107893855Y-98825662D02*
G01*
X108015000Y-98825662D01*
X108015000Y-98924537D01*
X107893855Y-98924537D01*
X107893855Y-99029302D01*
X107837191Y-99029302D01*
X107837191Y-98924537D01*
X107505020Y-98924537D01*
X107505020Y-98825662D01*
X107565104Y-98825662D01*
X107837191Y-98825662D01*
X107837191Y-98574849D01*
X107565104Y-98825662D01*
X107505020Y-98825662D01*
X107505020Y-98799592D01*
X107827390Y-98494176D01*
X107893855Y-98494176D01*
X107893855Y-98825662D01*
G37*
G36*
X107632027Y-99958695D02*
G01*
X107818384Y-99759496D01*
X108015000Y-99969027D01*
X108015000Y-99862283D01*
X107864546Y-99701947D01*
X108015000Y-99541612D01*
X108015000Y-99434868D01*
X107814629Y-99648839D01*
X107632027Y-99453069D01*
X107632027Y-99559812D01*
X107768467Y-99705860D01*
X107632027Y-99851951D01*
X107632027Y-99958695D01*
G37*
G36*
X107632027Y-100875251D02*
G01*
X107818384Y-100676051D01*
X108015000Y-100885582D01*
X108015000Y-100778838D01*
X107864546Y-100618503D01*
X108015000Y-100458167D01*
X108015000Y-100351423D01*
X107814629Y-100565394D01*
X107632027Y-100369624D01*
X107632027Y-100476368D01*
X107768467Y-100622415D01*
X107632027Y-100768507D01*
X107632027Y-100875251D01*
G37*
G36*
X87454736Y-110560732D02*
G01*
X87454736Y-110397113D01*
X87567454Y-110397113D01*
X87567454Y-110329116D01*
X87386439Y-110329116D01*
X87386439Y-110590920D01*
X87413899Y-110611678D01*
X87443217Y-110628795D01*
X87474580Y-110642321D01*
X87523831Y-110655284D01*
X87577376Y-110659723D01*
X87625546Y-110655980D01*
X87667485Y-110645321D01*
X87704122Y-110628334D01*
X87736228Y-110605228D01*
X87764374Y-110575826D01*
X87787793Y-110541171D01*
X87806353Y-110501352D01*
X87820095Y-110455608D01*
X87828763Y-110402956D01*
X87831816Y-110342232D01*
X87828759Y-110281306D01*
X87820085Y-110228519D01*
X87806338Y-110182696D01*
X87787780Y-110142846D01*
X87764374Y-110108198D01*
X87736228Y-110078798D01*
X87704120Y-110055692D01*
X87667477Y-110038704D01*
X87625530Y-110028044D01*
X87577345Y-110024301D01*
X87528336Y-110028081D01*
X87482579Y-110039175D01*
X87439236Y-110057626D01*
X87399750Y-110082919D01*
X87399750Y-110172019D01*
X87426206Y-110147422D01*
X87453264Y-110127635D01*
X87481053Y-110112338D01*
X87510127Y-110101235D01*
X87540212Y-110094551D01*
X87571545Y-110092298D01*
X87609628Y-110095199D01*
X87641897Y-110103358D01*
X87669262Y-110116183D01*
X87692477Y-110133405D01*
X87712106Y-110155093D01*
X87731445Y-110187712D01*
X87746088Y-110228516D01*
X87755606Y-110279289D01*
X87759062Y-110342232D01*
X87755610Y-110404929D01*
X87746100Y-110455562D01*
X87731459Y-110496308D01*
X87712106Y-110528931D01*
X87692465Y-110550621D01*
X87669242Y-110567844D01*
X87641876Y-110580668D01*
X87609613Y-110588826D01*
X87571545Y-110591726D01*
X87536033Y-110589729D01*
X87506332Y-110584179D01*
X87478751Y-110574392D01*
X87454736Y-110560732D01*
G37*
G36*
X113555726Y-102736025D02*
G01*
X113452930Y-102736025D01*
X113322779Y-103152837D01*
X113191987Y-102736025D01*
X113089161Y-102736025D01*
X113089161Y-103348000D01*
X113156450Y-103348000D01*
X113156450Y-102810690D01*
X113287944Y-103230763D01*
X113357278Y-103230763D01*
X113488803Y-102810690D01*
X113488803Y-103348000D01*
X113555726Y-103348000D01*
X113555726Y-102736025D01*
G37*
G36*
X112933853Y-103277658D02*
G01*
X112821135Y-103277658D01*
X112821135Y-102811056D01*
X112943775Y-102841538D01*
X112943775Y-102766506D01*
X112821837Y-102736025D01*
X112752838Y-102736025D01*
X112752838Y-103277658D01*
X112640120Y-103277658D01*
X112640120Y-103348000D01*
X112933853Y-103348000D01*
X112933853Y-103277658D01*
G37*
G36*
X87389267Y-89375683D02*
G01*
X87552886Y-89375683D01*
X87552886Y-89510945D01*
X87620883Y-89510945D01*
X87620883Y-89293727D01*
X87359079Y-89293727D01*
X87338321Y-89326679D01*
X87321204Y-89361860D01*
X87307678Y-89399497D01*
X87294715Y-89458597D01*
X87290276Y-89522851D01*
X87294019Y-89580656D01*
X87304678Y-89630982D01*
X87321665Y-89674946D01*
X87344771Y-89713473D01*
X87374173Y-89747250D01*
X87408828Y-89775352D01*
X87448647Y-89797624D01*
X87494391Y-89814115D01*
X87547043Y-89824515D01*
X87607767Y-89828179D01*
X87668693Y-89824511D01*
X87721480Y-89814102D01*
X87767303Y-89797606D01*
X87807153Y-89775336D01*
X87841801Y-89747250D01*
X87871201Y-89713474D01*
X87894307Y-89674944D01*
X87911295Y-89630973D01*
X87921955Y-89580636D01*
X87925698Y-89522815D01*
X87921918Y-89464004D01*
X87910824Y-89409095D01*
X87892373Y-89357084D01*
X87867080Y-89309701D01*
X87777980Y-89309701D01*
X87802577Y-89341447D01*
X87822364Y-89373917D01*
X87837661Y-89407264D01*
X87848764Y-89442152D01*
X87855448Y-89478255D01*
X87857701Y-89515854D01*
X87854800Y-89561554D01*
X87846641Y-89600276D01*
X87833816Y-89633114D01*
X87816594Y-89660973D01*
X87794906Y-89684528D01*
X87762287Y-89707735D01*
X87721483Y-89725306D01*
X87670710Y-89736727D01*
X87607767Y-89740875D01*
X87545070Y-89736733D01*
X87494437Y-89725320D01*
X87453691Y-89707751D01*
X87421068Y-89684528D01*
X87399378Y-89660959D01*
X87382155Y-89633091D01*
X87369331Y-89600251D01*
X87361173Y-89561536D01*
X87358273Y-89515854D01*
X87360270Y-89473240D01*
X87365820Y-89437598D01*
X87375607Y-89404502D01*
X87389267Y-89375683D01*
G37*
G36*
X89835101Y-87524054D02*
G01*
X89200909Y-88158246D01*
X88752471Y-87709808D01*
X88905021Y-87709808D01*
X88933979Y-87757719D01*
X88961932Y-87798635D01*
X88991453Y-87836225D01*
X89020687Y-87868028D01*
X89062332Y-87904645D01*
X89102299Y-87930514D01*
X89141053Y-87947170D01*
X89179179Y-87955676D01*
X89218408Y-87956215D01*
X89254358Y-87948166D01*
X89288054Y-87931489D01*
X89320232Y-87905233D01*
X89344574Y-87875303D01*
X89359940Y-87843865D01*
X89367199Y-87810211D01*
X89366438Y-87775656D01*
X89357415Y-87739797D01*
X89339091Y-87701769D01*
X89380083Y-87723027D01*
X89419825Y-87733679D01*
X89459290Y-87734742D01*
X89497783Y-87726475D01*
X89533961Y-87708761D01*
X89568639Y-87680522D01*
X89601669Y-87640564D01*
X89622561Y-87600011D01*
X89632803Y-87558043D01*
X89632803Y-87513537D01*
X89623287Y-87470229D01*
X89603742Y-87425148D01*
X89572588Y-87377488D01*
X89527626Y-87326574D01*
X89494121Y-87296157D01*
X89455905Y-87267427D01*
X89414442Y-87241430D01*
X89367562Y-87216802D01*
X89301796Y-87282569D01*
X89345528Y-87297890D01*
X89388597Y-87320167D01*
X89429118Y-87348323D01*
X89467572Y-87382578D01*
X89506548Y-87428086D01*
X89529642Y-87468714D01*
X89540199Y-87505739D01*
X89540886Y-87534152D01*
X89534784Y-87560994D01*
X89521621Y-87587039D01*
X89500364Y-87612851D01*
X89476587Y-87632454D01*
X89452211Y-87644930D01*
X89426745Y-87651099D01*
X89399508Y-87651144D01*
X89363957Y-87642304D01*
X89326885Y-87622461D01*
X89287318Y-87589186D01*
X89228504Y-87530371D01*
X89172409Y-87586466D01*
X89233944Y-87648001D01*
X89264449Y-87683686D01*
X89282578Y-87715761D01*
X89290885Y-87745200D01*
X89290412Y-87775029D01*
X89280370Y-87802849D01*
X89259604Y-87829916D01*
X89231799Y-87851232D01*
X89203145Y-87861555D01*
X89172348Y-87862044D01*
X89141927Y-87853497D01*
X89109001Y-87834957D01*
X89072611Y-87803894D01*
X89045490Y-87774057D01*
X89018087Y-87738067D01*
X88992318Y-87698355D01*
X88964985Y-87649845D01*
X88905021Y-87709808D01*
X88752471Y-87709808D01*
X88227610Y-87184947D01*
X88356948Y-87184947D01*
X88428306Y-87256304D01*
X89013282Y-86991153D01*
X88748494Y-87576492D01*
X88819519Y-87647517D01*
X89131970Y-86950261D01*
X89054537Y-86872828D01*
X88356948Y-87184947D01*
X88227610Y-87184947D01*
X87844074Y-86801411D01*
X87850119Y-86795366D01*
X87990579Y-86795366D01*
X88019536Y-86843276D01*
X88047490Y-86884192D01*
X88077010Y-86921783D01*
X88106244Y-86953586D01*
X88147889Y-86990203D01*
X88187856Y-87016072D01*
X88226610Y-87032727D01*
X88264736Y-87041234D01*
X88303966Y-87041773D01*
X88339915Y-87033724D01*
X88373612Y-87017047D01*
X88405789Y-86990791D01*
X88430132Y-86960861D01*
X88445497Y-86929423D01*
X88452757Y-86895768D01*
X88451996Y-86861213D01*
X88442972Y-86825355D01*
X88424649Y-86787326D01*
X88465640Y-86808585D01*
X88505382Y-86819236D01*
X88544848Y-86820300D01*
X88583341Y-86812032D01*
X88619519Y-86794318D01*
X88654196Y-86766079D01*
X88687226Y-86726122D01*
X88708119Y-86685568D01*
X88718361Y-86643601D01*
X88718361Y-86599094D01*
X88708845Y-86555787D01*
X88689300Y-86510705D01*
X88658145Y-86463046D01*
X88613183Y-86412131D01*
X88579679Y-86381714D01*
X88541463Y-86352984D01*
X88500000Y-86326988D01*
X88453119Y-86302360D01*
X88387353Y-86368126D01*
X88431085Y-86383448D01*
X88474155Y-86405724D01*
X88514675Y-86433880D01*
X88553129Y-86468136D01*
X88592106Y-86513643D01*
X88615200Y-86554272D01*
X88625756Y-86591296D01*
X88626443Y-86619709D01*
X88620341Y-86646552D01*
X88607178Y-86672596D01*
X88585921Y-86698409D01*
X88562144Y-86718011D01*
X88537768Y-86730488D01*
X88512302Y-86736656D01*
X88485066Y-86736702D01*
X88449515Y-86727862D01*
X88412443Y-86708019D01*
X88372876Y-86674744D01*
X88314061Y-86615929D01*
X88257966Y-86672023D01*
X88319501Y-86733558D01*
X88350006Y-86769243D01*
X88368135Y-86801318D01*
X88376442Y-86830757D01*
X88375970Y-86860587D01*
X88365927Y-86888407D01*
X88345161Y-86915474D01*
X88317356Y-86936789D01*
X88288703Y-86947113D01*
X88257906Y-86947601D01*
X88227484Y-86939054D01*
X88194559Y-86920515D01*
X88158168Y-86889451D01*
X88131048Y-86859614D01*
X88103645Y-86823625D01*
X88077875Y-86783913D01*
X88050542Y-86735402D01*
X87990579Y-86795366D01*
X87850119Y-86795366D01*
X88478266Y-86167219D01*
X89835101Y-87524054D01*
G37*
G36*
X102057043Y-104986025D02*
G01*
X101987708Y-104986025D01*
X101987708Y-105357188D01*
X101985378Y-105407873D01*
X101979121Y-105446872D01*
X101969817Y-105476465D01*
X101958002Y-105498568D01*
X101941960Y-105516494D01*
X101921331Y-105529879D01*
X101895043Y-105538557D01*
X101861648Y-105541726D01*
X101828457Y-105538563D01*
X101802290Y-105529894D01*
X101781721Y-105516512D01*
X101765691Y-105498568D01*
X101753863Y-105476462D01*
X101744550Y-105446868D01*
X101738287Y-105407870D01*
X101735955Y-105357188D01*
X101735955Y-104986025D01*
X101666620Y-104986025D01*
X101666620Y-105367410D01*
X101668940Y-105416640D01*
X101675449Y-105458332D01*
X101685622Y-105493607D01*
X101699157Y-105523423D01*
X101715988Y-105548540D01*
X101736418Y-105569569D01*
X101760534Y-105586354D01*
X101788916Y-105598894D01*
X101822322Y-105606883D01*
X101861648Y-105609723D01*
X101901143Y-105606879D01*
X101934664Y-105598882D01*
X101963118Y-105586336D01*
X101987269Y-105569554D01*
X102007706Y-105548540D01*
X102024525Y-105523425D01*
X102038051Y-105493610D01*
X102048219Y-105458335D01*
X102054724Y-105416642D01*
X102057043Y-105367410D01*
X102057043Y-104986025D01*
G37*
G36*
X101530424Y-104986025D02*
G01*
X101259559Y-104986025D01*
X101259559Y-105056367D01*
X101467227Y-105056367D01*
X101467227Y-105204781D01*
X101437185Y-105195475D01*
X101407112Y-105192361D01*
X101364655Y-105196253D01*
X101328666Y-105207250D01*
X101298024Y-105224731D01*
X101271863Y-105248635D01*
X101250412Y-105278603D01*
X101234965Y-105313314D01*
X101225356Y-105353698D01*
X101221976Y-105401042D01*
X101225488Y-105449853D01*
X101235410Y-105490849D01*
X101251268Y-105525505D01*
X101273206Y-105554878D01*
X101299877Y-105577814D01*
X101332063Y-105594892D01*
X101370868Y-105605811D01*
X101417676Y-105609723D01*
X101449896Y-105608130D01*
X101483102Y-105603275D01*
X101516545Y-105595332D01*
X101551918Y-105583931D01*
X101551918Y-105501866D01*
X101520566Y-105518441D01*
X101488384Y-105530112D01*
X101455001Y-105537018D01*
X101419050Y-105539381D01*
X101389587Y-105536790D01*
X101364656Y-105529483D01*
X101343486Y-105517907D01*
X101325474Y-105502159D01*
X101310582Y-105482206D01*
X101299912Y-105459154D01*
X101293297Y-105432388D01*
X101290975Y-105401042D01*
X101293298Y-105369695D01*
X101299913Y-105342937D01*
X101310583Y-105319897D01*
X101325474Y-105299962D01*
X101343488Y-105284198D01*
X101364662Y-105272612D01*
X101389603Y-105265297D01*
X101419080Y-105262703D01*
X101446639Y-105264554D01*
X101474249Y-105270140D01*
X101501635Y-105279439D01*
X101530424Y-105293184D01*
X101530424Y-104986025D01*
G37*
G36*
X100960728Y-105598000D02*
G01*
X101155420Y-104986025D01*
X101083338Y-104986025D01*
X100921802Y-105501279D01*
X100759899Y-104986025D01*
X100688153Y-104986025D01*
X100882509Y-105598000D01*
X100960728Y-105598000D01*
G37*
G36*
X95862900Y-101704782D02*
G01*
X95862900Y-101784503D01*
X95901966Y-101765550D01*
X95937028Y-101752776D01*
X95971688Y-101744853D01*
X96004317Y-101742298D01*
X96041403Y-101745639D01*
X96069763Y-101754654D01*
X96091267Y-101768310D01*
X96108208Y-101788028D01*
X96118294Y-101812199D01*
X96121828Y-101842279D01*
X96119345Y-101867986D01*
X96112484Y-101887762D01*
X96101495Y-101903022D01*
X96086734Y-101914203D01*
X96062289Y-101925426D01*
X96024467Y-101936142D01*
X95982793Y-101946436D01*
X95943861Y-101958035D01*
X95912708Y-101972565D01*
X95888076Y-101989559D01*
X95868915Y-102008792D01*
X95853187Y-102032352D01*
X95841797Y-102059608D01*
X95834688Y-102091272D01*
X95832187Y-102128300D01*
X95835592Y-102172080D01*
X95845181Y-102208308D01*
X95860522Y-102238499D01*
X95881890Y-102263671D01*
X95907310Y-102282483D01*
X95939113Y-102296884D01*
X95978655Y-102306298D01*
X96027550Y-102309723D01*
X96064222Y-102307294D01*
X96104579Y-102299648D01*
X96145508Y-102287381D01*
X96189117Y-102269863D01*
X96189117Y-102185452D01*
X96146838Y-102210290D01*
X96106807Y-102227548D01*
X96066458Y-102238247D01*
X96027550Y-102241726D01*
X95988696Y-102238153D01*
X95958952Y-102228502D01*
X95936356Y-102213846D01*
X95922328Y-102198437D01*
X95912445Y-102180430D01*
X95906371Y-102159316D01*
X95904238Y-102134271D01*
X95907000Y-102105385D01*
X95914746Y-102082308D01*
X95927289Y-102063710D01*
X95943938Y-102049491D01*
X95968381Y-102036586D01*
X96002943Y-102025571D01*
X96044953Y-102015679D01*
X96084369Y-102003901D01*
X96115181Y-101990083D01*
X96138859Y-101974686D01*
X96156663Y-101957977D01*
X96171378Y-101937088D01*
X96182072Y-101912451D01*
X96188784Y-101883321D01*
X96191163Y-101848690D01*
X96187996Y-101809182D01*
X96178950Y-101775431D01*
X96164249Y-101746283D01*
X96143505Y-101720976D01*
X96118896Y-101701476D01*
X96089458Y-101686924D01*
X96054260Y-101677625D01*
X96012163Y-101674301D01*
X95976203Y-101676182D01*
X95939074Y-101681921D01*
X95901789Y-101691332D01*
X95862900Y-101704782D01*
G37*
G36*
X95769996Y-101686025D02*
G01*
X95700326Y-101686025D01*
X95593073Y-102203331D01*
X95486156Y-101686025D01*
X95408639Y-101686025D01*
X95301386Y-102203331D01*
X95194469Y-101686025D01*
X95124463Y-101686025D01*
X95252537Y-102298000D01*
X95339305Y-102298000D01*
X95446894Y-101766771D01*
X95555490Y-102298000D01*
X95642257Y-102298000D01*
X95769996Y-101686025D01*
G37*
G36*
X95032871Y-102298000D02*
G01*
X94891119Y-102298000D01*
X94829526Y-102294354D01*
X94778504Y-102284248D01*
X94736454Y-102268715D01*
X94701972Y-102248457D01*
X94673896Y-102223811D01*
X94650127Y-102192890D01*
X94631073Y-102155454D01*
X94616736Y-102110404D01*
X94607526Y-102056293D01*
X94604225Y-101991389D01*
X94676979Y-101991389D01*
X94679352Y-102042661D01*
X94685943Y-102085141D01*
X94696125Y-102120214D01*
X94709518Y-102149063D01*
X94726011Y-102172630D01*
X94745986Y-102191823D01*
X94770511Y-102207488D01*
X94800409Y-102219445D01*
X94836698Y-102227204D01*
X94880556Y-102230002D01*
X94963873Y-102230002D01*
X94963873Y-101754022D01*
X94880556Y-101754022D01*
X94836687Y-101756812D01*
X94800394Y-101764550D01*
X94770497Y-101776472D01*
X94745977Y-101792087D01*
X94726011Y-101811211D01*
X94709500Y-101834706D01*
X94696105Y-101863429D01*
X94685930Y-101898304D01*
X94679348Y-101940502D01*
X94676979Y-101991389D01*
X94604225Y-101991389D01*
X94607508Y-101926842D01*
X94616671Y-101873000D01*
X94630936Y-101828150D01*
X94649900Y-101790855D01*
X94673560Y-101760030D01*
X94701486Y-101735489D01*
X94735897Y-101715289D01*
X94777983Y-101699778D01*
X94829178Y-101689674D01*
X94891119Y-101686025D01*
X95032871Y-101686025D01*
X95032871Y-102298000D01*
G37*
G36*
X93087743Y-99804782D02*
G01*
X93087743Y-99884503D01*
X93126809Y-99865550D01*
X93161871Y-99852776D01*
X93196531Y-99844853D01*
X93229160Y-99842298D01*
X93266246Y-99845639D01*
X93294606Y-99854654D01*
X93316110Y-99868310D01*
X93333051Y-99888028D01*
X93343137Y-99912199D01*
X93346671Y-99942279D01*
X93344188Y-99967986D01*
X93337327Y-99987762D01*
X93326338Y-100003022D01*
X93311577Y-100014203D01*
X93287132Y-100025426D01*
X93249310Y-100036142D01*
X93207636Y-100046436D01*
X93168704Y-100058035D01*
X93137551Y-100072565D01*
X93112919Y-100089559D01*
X93093758Y-100108792D01*
X93078030Y-100132352D01*
X93066640Y-100159608D01*
X93059531Y-100191272D01*
X93057030Y-100228300D01*
X93060435Y-100272080D01*
X93070024Y-100308308D01*
X93085365Y-100338499D01*
X93106733Y-100363671D01*
X93132153Y-100382483D01*
X93163956Y-100396884D01*
X93203498Y-100406298D01*
X93252393Y-100409723D01*
X93289065Y-100407294D01*
X93329422Y-100399648D01*
X93370351Y-100387381D01*
X93413960Y-100369863D01*
X93413960Y-100285452D01*
X93371681Y-100310290D01*
X93331650Y-100327548D01*
X93291301Y-100338247D01*
X93252393Y-100341726D01*
X93213539Y-100338153D01*
X93183795Y-100328502D01*
X93161199Y-100313846D01*
X93147171Y-100298437D01*
X93137288Y-100280430D01*
X93131214Y-100259316D01*
X93129081Y-100234271D01*
X93131843Y-100205385D01*
X93139589Y-100182308D01*
X93152132Y-100163710D01*
X93168781Y-100149491D01*
X93193224Y-100136586D01*
X93227786Y-100125571D01*
X93269796Y-100115679D01*
X93309212Y-100103901D01*
X93340024Y-100090083D01*
X93363702Y-100074686D01*
X93381506Y-100057977D01*
X93396221Y-100037088D01*
X93406915Y-100012451D01*
X93413627Y-99983321D01*
X93416006Y-99948690D01*
X93412839Y-99909182D01*
X93403793Y-99875431D01*
X93389092Y-99846283D01*
X93368348Y-99820976D01*
X93343739Y-99801476D01*
X93314301Y-99786924D01*
X93279103Y-99777625D01*
X93237006Y-99774301D01*
X93201046Y-99776182D01*
X93163917Y-99781921D01*
X93126632Y-99791332D01*
X93087743Y-99804782D01*
G37*
G36*
X92994839Y-99786025D02*
G01*
X92925169Y-99786025D01*
X92817916Y-100303331D01*
X92710999Y-99786025D01*
X92633482Y-99786025D01*
X92526229Y-100303331D01*
X92419312Y-99786025D01*
X92349306Y-99786025D01*
X92477380Y-100398000D01*
X92564148Y-100398000D01*
X92671737Y-99866771D01*
X92780333Y-100398000D01*
X92867100Y-100398000D01*
X92994839Y-99786025D01*
G37*
G36*
X91875871Y-99832919D02*
G01*
X91875871Y-99919674D01*
X91900079Y-99895503D01*
X91924797Y-99876249D01*
X91950152Y-99861532D01*
X91976850Y-99850893D01*
X92004713Y-99844470D01*
X92033988Y-99842298D01*
X92069187Y-99845179D01*
X92099481Y-99853350D01*
X92125642Y-99866337D01*
X92148298Y-99883996D01*
X92167894Y-99906522D01*
X92187127Y-99939808D01*
X92201607Y-99980735D01*
X92210956Y-100030891D01*
X92214331Y-100092232D01*
X92210961Y-100153328D01*
X92201619Y-100203343D01*
X92187140Y-100244211D01*
X92167894Y-100277502D01*
X92148298Y-100300028D01*
X92125642Y-100317687D01*
X92099481Y-100330675D01*
X92069187Y-100338845D01*
X92033988Y-100341726D01*
X92004713Y-100339554D01*
X91976850Y-100333131D01*
X91950152Y-100322492D01*
X91924797Y-100307775D01*
X91900079Y-100288521D01*
X91875871Y-100264350D01*
X91875871Y-100351105D01*
X91913298Y-100376836D01*
X91952564Y-100395069D01*
X91993840Y-100406002D01*
X92038110Y-100409723D01*
X92084547Y-100405973D01*
X92125212Y-100395258D01*
X92160980Y-100378104D01*
X92192569Y-100354643D01*
X92220498Y-100324617D01*
X92243695Y-100289485D01*
X92262039Y-100249481D01*
X92275582Y-100203901D01*
X92284095Y-100151842D01*
X92287085Y-100092232D01*
X92284091Y-100032420D01*
X92275570Y-99980229D01*
X92262022Y-99934578D01*
X92243680Y-99894554D01*
X92220498Y-99859444D01*
X92192567Y-99829403D01*
X92160978Y-99805933D01*
X92125209Y-99788771D01*
X92084546Y-99778052D01*
X92038110Y-99774301D01*
X91993250Y-99778035D01*
X91951861Y-99788956D01*
X91912709Y-99807224D01*
X91875871Y-99832919D01*
G37*
G36*
X89774882Y-112186025D02*
G01*
X89452451Y-112186025D01*
X89452451Y-112256367D01*
X89705883Y-112256367D01*
X89705883Y-112436911D01*
X89463045Y-112436911D01*
X89463045Y-112507253D01*
X89705883Y-112507253D01*
X89705883Y-112727658D01*
X89446314Y-112727658D01*
X89446314Y-112798000D01*
X89774882Y-112798000D01*
X89774882Y-112186025D01*
G37*
G36*
X89267223Y-112727658D02*
G01*
X89026430Y-112727658D01*
X89026430Y-112798000D01*
X89350235Y-112798000D01*
X89350235Y-112727658D01*
X89243165Y-112596866D01*
X89157955Y-112491060D01*
X89128189Y-112447209D01*
X89111671Y-112415552D01*
X89101679Y-112384325D01*
X89098512Y-112354772D01*
X89101787Y-112323815D01*
X89111230Y-112297730D01*
X89127028Y-112275344D01*
X89147375Y-112258637D01*
X89171770Y-112248301D01*
X89201308Y-112244643D01*
X89234015Y-112247861D01*
X89269818Y-112258015D01*
X89305987Y-112274267D01*
X89346816Y-112298572D01*
X89346816Y-112214161D01*
X89305550Y-112196473D01*
X89268963Y-112184376D01*
X89233373Y-112176682D01*
X89202682Y-112174301D01*
X89163070Y-112177618D01*
X89129426Y-112186977D01*
X89100770Y-112201782D01*
X89076317Y-112221855D01*
X89055733Y-112247567D01*
X89041190Y-112276786D01*
X89032282Y-112310214D01*
X89029178Y-112348910D01*
X89032143Y-112385765D01*
X89040963Y-112420461D01*
X89056236Y-112454793D01*
X89083827Y-112500182D01*
X89138141Y-112568839D01*
X89267223Y-112727658D01*
G37*
G36*
X88051806Y-108637851D02*
G01*
X88111502Y-108651118D01*
X88184603Y-108674596D01*
X88255419Y-108703495D01*
X88309534Y-108731645D01*
X88349836Y-108758895D01*
X88378858Y-108785235D01*
X88402550Y-108817331D01*
X88414807Y-108848990D01*
X88417150Y-108881331D01*
X88409501Y-108915743D01*
X88393145Y-108947249D01*
X88370493Y-108970644D01*
X88340732Y-108987070D01*
X88301992Y-108996422D01*
X88262821Y-108997960D01*
X88214426Y-108992942D01*
X88154875Y-108979730D01*
X88082052Y-108956352D01*
X88010965Y-108927347D01*
X87956712Y-108899130D01*
X87916368Y-108871850D01*
X87887371Y-108845512D01*
X87863686Y-108813436D01*
X87851434Y-108781718D01*
X87849114Y-108749235D01*
X87856833Y-108714588D01*
X87873094Y-108683314D01*
X87895683Y-108660049D01*
X87925434Y-108643678D01*
X87964236Y-108634325D01*
X88003370Y-108632804D01*
X88051806Y-108637851D01*
G37*
G36*
X88863923Y-108118586D02*
G01*
X88194990Y-109956462D01*
X87352197Y-109649710D01*
X87367413Y-109607903D01*
X87464739Y-109607903D01*
X88228715Y-109596406D01*
X88266168Y-109493504D01*
X87688479Y-108993181D01*
X87653964Y-109088010D01*
X88141494Y-109506121D01*
X87499093Y-109513516D01*
X87464739Y-109607903D01*
X87367413Y-109607903D01*
X87670060Y-108776389D01*
X87769434Y-108776389D01*
X87774779Y-108816500D01*
X87788557Y-108855196D01*
X87811430Y-108893196D01*
X87847696Y-108933723D01*
X87897465Y-108972983D01*
X87963474Y-109010918D01*
X88049014Y-109047125D01*
X88137539Y-109074279D01*
X88212340Y-109087604D01*
X88275652Y-109089503D01*
X88329516Y-109081764D01*
X88371446Y-109067353D01*
X88406862Y-109046563D01*
X88436732Y-109019270D01*
X88461586Y-108984791D01*
X88481477Y-108941940D01*
X88493784Y-108896329D01*
X88496910Y-108853937D01*
X88491575Y-108813821D01*
X88477812Y-108775117D01*
X88454960Y-108737110D01*
X88418669Y-108696576D01*
X88368944Y-108657347D01*
X88303075Y-108619481D01*
X88217803Y-108583382D01*
X88129000Y-108556130D01*
X88054052Y-108542752D01*
X87990697Y-108540824D01*
X87936874Y-108548542D01*
X87894920Y-108562964D01*
X87859487Y-108583763D01*
X87829607Y-108611062D01*
X87804748Y-108645543D01*
X87784858Y-108688391D01*
X87772553Y-108734001D01*
X87771432Y-108749235D01*
X87769434Y-108776389D01*
X87670060Y-108776389D01*
X87891717Y-108167392D01*
X87989042Y-108167392D01*
X88582838Y-108383517D01*
X88528866Y-108531805D01*
X88605982Y-108559873D01*
X88746629Y-108173447D01*
X88669513Y-108145379D01*
X88615540Y-108293668D01*
X88104001Y-108107483D01*
X88196142Y-107958304D01*
X88113885Y-107928364D01*
X88022080Y-108076620D01*
X87989042Y-108167392D01*
X87891717Y-108167392D01*
X88021129Y-107811834D01*
X88863923Y-108118586D01*
G37*
G36*
X111240018Y-87236025D02*
G01*
X111157220Y-87236025D01*
X111157220Y-87777658D01*
X110859256Y-87777658D01*
X110859256Y-87848000D01*
X111240018Y-87848000D01*
X111240018Y-87236025D01*
G37*
G36*
X110772244Y-87236025D02*
G01*
X110385327Y-87236025D01*
X110385327Y-87306367D01*
X110689446Y-87306367D01*
X110689446Y-87486911D01*
X110398040Y-87486911D01*
X110398040Y-87557253D01*
X110689446Y-87557253D01*
X110689446Y-87777658D01*
X110377963Y-87777658D01*
X110377963Y-87848000D01*
X110772244Y-87848000D01*
X110772244Y-87236025D01*
G37*
G36*
X110241749Y-87848000D02*
G01*
X110071646Y-87848000D01*
X109997734Y-87844354D01*
X109936508Y-87834248D01*
X109886047Y-87818715D01*
X109844669Y-87798457D01*
X109810978Y-87773811D01*
X109782456Y-87742890D01*
X109759590Y-87705454D01*
X109742387Y-87660404D01*
X109731335Y-87606293D01*
X109727373Y-87541389D01*
X109814678Y-87541389D01*
X109817526Y-87592661D01*
X109825435Y-87635141D01*
X109837653Y-87670214D01*
X109853724Y-87699063D01*
X109873516Y-87722630D01*
X109897486Y-87741823D01*
X109926917Y-87757488D01*
X109962794Y-87769445D01*
X110006340Y-87777204D01*
X110058970Y-87780002D01*
X110158950Y-87780002D01*
X110158950Y-87304022D01*
X110058970Y-87304022D01*
X110006328Y-87306812D01*
X109962776Y-87314550D01*
X109926899Y-87326472D01*
X109897475Y-87342087D01*
X109873516Y-87361211D01*
X109853703Y-87384706D01*
X109837629Y-87413429D01*
X109825419Y-87448304D01*
X109817521Y-87490502D01*
X109814678Y-87541389D01*
X109727373Y-87541389D01*
X109731313Y-87476842D01*
X109742308Y-87423000D01*
X109759426Y-87378150D01*
X109782183Y-87340855D01*
X109810575Y-87310030D01*
X109844087Y-87285489D01*
X109885380Y-87265289D01*
X109935883Y-87249778D01*
X109997317Y-87239674D01*
X110071646Y-87236025D01*
X110241749Y-87236025D01*
X110241749Y-87848000D01*
G37*
G36*
X92832970Y-98952863D02*
G01*
X92832970Y-98348912D01*
X92750905Y-98348912D01*
X92750905Y-98602375D01*
X92119000Y-98602375D01*
X92119000Y-98699443D01*
X92750905Y-98699443D01*
X92750905Y-98952863D01*
X92832970Y-98952863D01*
G37*
G36*
X92313563Y-97486240D02*
G01*
X92369659Y-97517378D01*
X92407982Y-97545310D01*
X92437307Y-97576393D01*
X92452861Y-97605791D01*
X92467878Y-97568222D01*
X92488454Y-97538259D01*
X92514710Y-97514706D01*
X92545839Y-97497764D01*
X92582774Y-97487142D01*
X92626866Y-97483376D01*
X92678303Y-97487651D01*
X92720082Y-97499540D01*
X92754083Y-97518210D01*
X92781679Y-97543643D01*
X92802597Y-97574707D01*
X92818618Y-97614175D01*
X92829129Y-97663937D01*
X92832970Y-97726282D01*
X92832970Y-97944311D01*
X92119000Y-97944311D01*
X92119000Y-97847713D01*
X92419907Y-97847713D01*
X92419907Y-97742524D01*
X92418639Y-97726282D01*
X92499237Y-97726282D01*
X92499237Y-97847713D01*
X92753640Y-97847713D01*
X92753640Y-97726282D01*
X92749565Y-97680750D01*
X92738567Y-97646470D01*
X92721711Y-97620836D01*
X92698144Y-97601693D01*
X92667298Y-97589596D01*
X92626909Y-97585189D01*
X92586508Y-97589585D01*
X92555487Y-97601675D01*
X92531636Y-97620836D01*
X92514514Y-97646509D01*
X92503363Y-97680791D01*
X92499237Y-97726282D01*
X92418639Y-97726282D01*
X92416968Y-97704888D01*
X92408923Y-97675239D01*
X92396527Y-97651953D01*
X92378620Y-97632199D01*
X92348422Y-97609487D01*
X92301638Y-97583308D01*
X92119000Y-97491967D01*
X92119000Y-97388189D01*
X92313563Y-97486240D01*
G37*
G36*
X92220812Y-96465891D02*
G01*
X92411700Y-96465891D01*
X92411700Y-96623696D01*
X92491030Y-96623696D01*
X92491030Y-96370276D01*
X92185592Y-96370276D01*
X92161374Y-96408720D01*
X92141404Y-96449765D01*
X92125625Y-96493674D01*
X92110501Y-96562624D01*
X92105322Y-96637588D01*
X92109689Y-96705026D01*
X92122124Y-96763740D01*
X92141943Y-96815032D01*
X92168900Y-96859980D01*
X92203202Y-96899385D01*
X92243633Y-96932171D01*
X92290088Y-96958156D01*
X92343456Y-96977395D01*
X92404883Y-96989529D01*
X92475728Y-96993804D01*
X92546809Y-96989524D01*
X92608393Y-96977380D01*
X92661853Y-96958134D01*
X92708345Y-96932153D01*
X92748767Y-96899385D01*
X92783068Y-96859981D01*
X92810025Y-96815029D01*
X92829844Y-96763730D01*
X92842281Y-96705003D01*
X92846648Y-96637545D01*
X92842238Y-96568932D01*
X92829294Y-96504872D01*
X92807769Y-96444192D01*
X92778260Y-96388912D01*
X92674310Y-96388912D01*
X92703007Y-96425949D01*
X92726092Y-96463831D01*
X92743938Y-96502735D01*
X92756892Y-96543438D01*
X92764690Y-96585558D01*
X92767318Y-96629424D01*
X92763933Y-96682740D01*
X92754414Y-96727917D01*
X92739452Y-96766227D01*
X92719360Y-96798730D01*
X92694057Y-96826210D01*
X92656002Y-96853285D01*
X92608397Y-96873784D01*
X92549161Y-96887109D01*
X92475728Y-96891948D01*
X92402582Y-96887116D01*
X92343510Y-96873801D01*
X92295972Y-96853303D01*
X92257913Y-96826210D01*
X92232607Y-96798713D01*
X92212514Y-96766200D01*
X92197553Y-96727887D01*
X92188035Y-96682719D01*
X92184652Y-96629424D01*
X92186982Y-96579708D01*
X92193457Y-96538126D01*
X92204875Y-96499513D01*
X92220812Y-96465891D01*
G37*
G36*
X92832970Y-95872882D02*
G01*
X92832970Y-95493670D01*
X92750905Y-95493670D01*
X92750905Y-95784405D01*
X92577755Y-95784405D01*
X92588611Y-95742346D01*
X92592244Y-95700245D01*
X92587704Y-95640805D01*
X92574874Y-95590420D01*
X92554480Y-95547520D01*
X92526592Y-95510895D01*
X92491629Y-95480864D01*
X92451133Y-95459238D01*
X92404018Y-95445786D01*
X92348783Y-95441054D01*
X92291837Y-95445971D01*
X92244008Y-95459862D01*
X92203576Y-95482062D01*
X92169307Y-95512776D01*
X92142550Y-95550115D01*
X92122625Y-95595175D01*
X92109886Y-95649502D01*
X92105322Y-95715034D01*
X92107180Y-95760142D01*
X92112845Y-95806631D01*
X92122112Y-95853450D01*
X92135413Y-95902972D01*
X92231156Y-95902972D01*
X92211818Y-95859080D01*
X92198201Y-95814025D01*
X92190145Y-95767289D01*
X92187387Y-95716957D01*
X92190411Y-95675709D01*
X92198936Y-95640806D01*
X92212440Y-95611168D01*
X92230814Y-95585951D01*
X92254092Y-95565102D01*
X92280986Y-95550163D01*
X92312213Y-95540904D01*
X92348783Y-95537652D01*
X92385354Y-95540904D01*
X92416572Y-95550165D01*
X92443452Y-95565103D01*
X92466710Y-95585951D01*
X92485101Y-95611171D01*
X92498619Y-95640815D01*
X92507153Y-95675731D01*
X92510179Y-95717000D01*
X92508020Y-95755582D01*
X92501502Y-95794235D01*
X92490653Y-95832576D01*
X92474617Y-95872882D01*
X92832970Y-95872882D01*
G37*
G36*
X92778260Y-94413653D02*
G01*
X92677046Y-94413653D01*
X92705245Y-94447543D01*
X92727708Y-94482149D01*
X92744878Y-94517645D01*
X92757290Y-94555023D01*
X92764784Y-94594032D01*
X92767318Y-94635016D01*
X92763957Y-94684295D01*
X92754424Y-94726706D01*
X92739273Y-94763332D01*
X92718670Y-94795050D01*
X92692390Y-94822485D01*
X92653556Y-94849411D01*
X92605808Y-94869682D01*
X92547292Y-94882771D01*
X92475728Y-94887496D01*
X92404450Y-94882778D01*
X92346099Y-94869699D01*
X92298419Y-94849429D01*
X92259580Y-94822485D01*
X92233300Y-94795050D01*
X92212697Y-94763332D01*
X92197545Y-94726706D01*
X92188013Y-94684295D01*
X92184652Y-94635016D01*
X92187186Y-94594032D01*
X92194679Y-94555023D01*
X92207092Y-94517645D01*
X92224261Y-94482149D01*
X92246724Y-94447543D01*
X92274924Y-94413653D01*
X92173710Y-94413653D01*
X92143690Y-94466050D01*
X92122419Y-94521022D01*
X92109664Y-94578808D01*
X92105322Y-94640786D01*
X92109697Y-94705799D01*
X92122198Y-94762730D01*
X92142211Y-94812805D01*
X92169582Y-94857029D01*
X92204613Y-94896130D01*
X92245600Y-94928605D01*
X92292271Y-94954288D01*
X92345447Y-94973247D01*
X92406184Y-94985166D01*
X92475728Y-94989351D01*
X92545509Y-94985161D01*
X92606399Y-94973231D01*
X92659658Y-94954264D01*
X92706353Y-94928585D01*
X92747314Y-94896130D01*
X92782362Y-94857027D01*
X92809744Y-94812801D01*
X92829766Y-94762726D01*
X92842271Y-94705797D01*
X92846648Y-94640786D01*
X92842291Y-94577983D01*
X92829551Y-94520039D01*
X92808238Y-94465225D01*
X92778260Y-94413653D01*
G37*
G36*
X92552017Y-93357679D02*
G01*
X92614832Y-93370506D01*
X92667158Y-93390478D01*
X92710668Y-93417028D01*
X92746630Y-93450151D01*
X92775262Y-93489249D01*
X92798829Y-93537424D01*
X92816925Y-93596344D01*
X92828713Y-93668017D01*
X92832970Y-93754734D01*
X92832970Y-93953188D01*
X92119000Y-93953188D01*
X92119000Y-93754734D01*
X92119729Y-93739945D01*
X92198330Y-93739945D01*
X92198330Y-93856590D01*
X92753640Y-93856590D01*
X92753640Y-93739945D01*
X92750385Y-93678530D01*
X92741357Y-93627719D01*
X92727448Y-93585863D01*
X92709231Y-93551535D01*
X92686919Y-93523583D01*
X92659508Y-93500467D01*
X92625999Y-93481715D01*
X92585311Y-93467470D01*
X92536080Y-93458255D01*
X92476711Y-93454938D01*
X92416894Y-93458261D01*
X92367334Y-93467488D01*
X92326416Y-93481743D01*
X92292758Y-93500492D01*
X92265264Y-93523583D01*
X92242873Y-93551548D01*
X92224596Y-93585884D01*
X92210647Y-93627741D01*
X92201594Y-93678545D01*
X92198330Y-93739945D01*
X92119729Y-93739945D01*
X92123253Y-93668503D01*
X92135042Y-93597073D01*
X92153165Y-93538203D01*
X92176799Y-93489928D01*
X92205553Y-93450621D01*
X92241627Y-93417346D01*
X92285303Y-93390669D01*
X92337861Y-93370599D01*
X92400990Y-93357705D01*
X92476711Y-93353083D01*
X92552017Y-93357679D01*
G37*
G36*
X113555726Y-108686025D02*
G01*
X113452930Y-108686025D01*
X113322779Y-109102837D01*
X113191987Y-108686025D01*
X113089161Y-108686025D01*
X113089161Y-109298000D01*
X113156450Y-109298000D01*
X113156450Y-108760690D01*
X113287944Y-109180763D01*
X113357278Y-109180763D01*
X113488803Y-108760690D01*
X113488803Y-109298000D01*
X113555726Y-109298000D01*
X113555726Y-108686025D01*
G37*
G36*
X112986457Y-109072869D02*
G01*
X112986457Y-109152626D01*
X112756258Y-109152626D01*
X112756258Y-109298000D01*
X112687595Y-109298000D01*
X112687595Y-109152626D01*
X112614841Y-109152626D01*
X112614841Y-109084629D01*
X112687595Y-109084629D01*
X112756258Y-109084629D01*
X112930434Y-109084629D01*
X112756258Y-108758125D01*
X112756258Y-109084629D01*
X112687595Y-109084629D01*
X112687595Y-108686025D01*
X112774362Y-108686025D01*
X112986457Y-109072869D01*
G37*
G36*
X103827010Y-110198000D02*
G01*
X103685257Y-110198000D01*
X103623664Y-110194354D01*
X103572642Y-110184248D01*
X103530592Y-110168715D01*
X103496110Y-110148457D01*
X103468034Y-110123811D01*
X103444266Y-110092890D01*
X103425211Y-110055454D01*
X103410875Y-110010404D01*
X103401665Y-109956293D01*
X103398364Y-109891389D01*
X103471117Y-109891389D01*
X103473491Y-109942661D01*
X103480082Y-109985141D01*
X103490264Y-110020214D01*
X103503656Y-110049063D01*
X103520149Y-110072630D01*
X103540124Y-110091823D01*
X103564650Y-110107488D01*
X103594548Y-110119445D01*
X103630836Y-110127204D01*
X103674694Y-110130002D01*
X103758011Y-110130002D01*
X103758011Y-109654022D01*
X103674694Y-109654022D01*
X103630826Y-109656812D01*
X103594532Y-109664550D01*
X103564635Y-109676472D01*
X103540115Y-109692087D01*
X103520149Y-109711211D01*
X103503638Y-109734706D01*
X103490243Y-109763429D01*
X103480068Y-109798304D01*
X103473486Y-109840502D01*
X103471117Y-109891389D01*
X103398364Y-109891389D01*
X103401647Y-109826842D01*
X103410809Y-109773000D01*
X103425074Y-109728150D01*
X103444038Y-109690855D01*
X103467698Y-109660030D01*
X103495625Y-109635489D01*
X103530036Y-109615289D01*
X103572121Y-109599778D01*
X103623316Y-109589674D01*
X103685257Y-109586025D01*
X103827010Y-109586025D01*
X103827010Y-110198000D01*
G37*
G36*
X103322709Y-109933045D02*
G01*
X103138611Y-109933045D01*
X103138611Y-110001042D01*
X103322709Y-110001042D01*
X103322709Y-109933045D01*
G37*
G36*
X96525683Y-95060732D02*
G01*
X96525683Y-94897113D01*
X96660945Y-94897113D01*
X96660945Y-94829116D01*
X96443727Y-94829116D01*
X96443727Y-95090920D01*
X96476679Y-95111678D01*
X96511860Y-95128795D01*
X96549497Y-95142321D01*
X96608597Y-95155284D01*
X96672851Y-95159723D01*
X96730656Y-95155980D01*
X96780982Y-95145321D01*
X96824946Y-95128334D01*
X96863473Y-95105228D01*
X96897250Y-95075826D01*
X96925352Y-95041171D01*
X96947624Y-95001352D01*
X96964115Y-94955608D01*
X96974515Y-94902956D01*
X96978179Y-94842232D01*
X96974511Y-94781306D01*
X96964102Y-94728519D01*
X96947606Y-94682696D01*
X96925336Y-94642846D01*
X96897250Y-94608198D01*
X96863474Y-94578798D01*
X96824944Y-94555692D01*
X96780973Y-94538704D01*
X96730636Y-94528044D01*
X96672815Y-94524301D01*
X96614004Y-94528081D01*
X96559095Y-94539175D01*
X96507084Y-94557626D01*
X96459701Y-94582919D01*
X96459701Y-94672019D01*
X96491447Y-94647422D01*
X96523917Y-94627635D01*
X96557264Y-94612338D01*
X96592152Y-94601235D01*
X96628255Y-94594551D01*
X96665854Y-94592298D01*
X96711554Y-94595199D01*
X96750276Y-94603358D01*
X96783114Y-94616183D01*
X96810973Y-94633405D01*
X96834528Y-94655093D01*
X96857735Y-94687712D01*
X96875306Y-94728516D01*
X96886727Y-94779289D01*
X96890875Y-94842232D01*
X96886733Y-94904929D01*
X96875320Y-94955562D01*
X96857751Y-94996308D01*
X96834528Y-95028931D01*
X96810959Y-95050621D01*
X96783091Y-95067844D01*
X96750251Y-95080668D01*
X96711536Y-95088826D01*
X96665854Y-95091726D01*
X96623240Y-95089729D01*
X96587598Y-95084179D01*
X96554502Y-95074392D01*
X96525683Y-95060732D01*
G37*
D11*
%TO.C,U5*%
X101740000Y-92540000D02*
X101740000Y-92815000D01*
X101740000Y-102460000D02*
X101740000Y-102185000D01*
X104050000Y-92540000D02*
X101740000Y-92540000D01*
X104050000Y-92540000D02*
X106360000Y-92540000D01*
X104050000Y-102460000D02*
X101740000Y-102460000D01*
X104050000Y-102460000D02*
X106360000Y-102460000D01*
X106360000Y-92540000D02*
X106360000Y-92815000D01*
X106360000Y-102460000D02*
X106360000Y-102185000D01*
X106975000Y-92815000D02*
X106735000Y-92485000D01*
X107215000Y-92485000D01*
X106975000Y-92815000D01*
G36*
X106975000Y-92815000D02*
G01*
X106735000Y-92485000D01*
X107215000Y-92485000D01*
X106975000Y-92815000D01*
G37*
%TO.C,C64*%
X105990000Y-108292164D02*
X105990000Y-108507836D01*
X106710000Y-108292164D02*
X106710000Y-108507836D01*
%TO.C,D17*%
X89600000Y-85465000D02*
X91885000Y-85465000D01*
X91885000Y-85465000D02*
X91885000Y-86935000D01*
X91885000Y-86935000D02*
X89600000Y-86935000D01*
%TO.C,C3*%
X99107836Y-94390000D02*
X98892164Y-94390000D01*
X99107836Y-95110000D02*
X98892164Y-95110000D01*
%TO.C,R37*%
X111046359Y-107170000D02*
X111353641Y-107170000D01*
X111046359Y-107930000D02*
X111353641Y-107930000D01*
%TO.C,C71*%
X90140000Y-105107836D02*
X90140000Y-104892164D01*
X90860000Y-105107836D02*
X90860000Y-104892164D01*
D12*
%TO.C,IC6*%
X95175000Y-103450000D02*
G75*
G02*
X94925000Y-103450000I-125000J0D01*
G01*
X94925000Y-103450000D02*
G75*
G02*
X95175000Y-103450000I125000J0D01*
G01*
D11*
%TO.C,R33*%
X91720000Y-91746359D02*
X91720000Y-92053641D01*
X92480000Y-91746359D02*
X92480000Y-92053641D01*
%TO.C,C63*%
X105040000Y-108292164D02*
X105040000Y-108507836D01*
X105760000Y-108292164D02*
X105760000Y-108507836D01*
%TO.C,C72*%
X89038748Y-106265000D02*
X89561252Y-106265000D01*
X89038748Y-107735000D02*
X89561252Y-107735000D01*
%TO.C,C36*%
X100207836Y-104240000D02*
X99992164Y-104240000D01*
X100207836Y-104960000D02*
X99992164Y-104960000D01*
%TO.C,R20*%
X89253641Y-104220000D02*
X88946359Y-104220000D01*
X89253641Y-104980000D02*
X88946359Y-104980000D01*
%TO.C,C20*%
X106557836Y-113040000D02*
X106342164Y-113040000D01*
X106557836Y-113760000D02*
X106342164Y-113760000D01*
%TO.C,R17*%
X109220000Y-106546359D02*
X109220000Y-106853641D01*
X109980000Y-106546359D02*
X109980000Y-106853641D01*
%TO.C,C34*%
X99990000Y-103307836D02*
X99990000Y-103092164D01*
X100710000Y-103307836D02*
X100710000Y-103092164D01*
%TO.C,J5*%
X109115000Y-92140000D02*
X109115000Y-93190000D01*
X109115000Y-93190000D02*
X108125000Y-93190000D01*
X109115000Y-102360000D02*
X109115000Y-101310000D01*
X111615000Y-92140000D02*
X109115000Y-92140000D01*
X111615000Y-102360000D02*
X109115000Y-102360000D01*
X113585000Y-93310000D02*
X113585000Y-101190000D01*
%TO.C,C16*%
X97240000Y-94242164D02*
X97240000Y-94457836D01*
X97960000Y-94242164D02*
X97960000Y-94457836D01*
%TO.C,C27*%
X97140000Y-102342164D02*
X97140000Y-102557836D01*
X97860000Y-102342164D02*
X97860000Y-102557836D01*
%TO.C,C6*%
X95890000Y-97607836D02*
X95890000Y-97392164D01*
X96610000Y-97607836D02*
X96610000Y-97392164D01*
%TO.C,R29*%
X87353641Y-104220000D02*
X87046359Y-104220000D01*
X87353641Y-104980000D02*
X87046359Y-104980000D01*
%TO.C,C33*%
X98357836Y-104240000D02*
X98142164Y-104240000D01*
X98357836Y-104960000D02*
X98142164Y-104960000D01*
%TO.C,C66*%
X102090000Y-104188748D02*
X102090000Y-105611252D01*
X103910000Y-104188748D02*
X103910000Y-105611252D01*
%TO.C,C10*%
X96240000Y-93092164D02*
X96240000Y-93307836D01*
X96960000Y-93092164D02*
X96960000Y-93307836D01*
%TO.C,R10*%
X98746359Y-103270000D02*
X99053641Y-103270000D01*
X98746359Y-104030000D02*
X99053641Y-104030000D01*
%TO.C,C69*%
X95565000Y-105411252D02*
X95565000Y-104888748D01*
X97035000Y-105411252D02*
X97035000Y-104888748D01*
%TO.C,J7*%
X99640000Y-88385000D02*
X99640000Y-90885000D01*
X99640000Y-90885000D02*
X100690000Y-90885000D01*
X100690000Y-90885000D02*
X100690000Y-91875000D01*
X100810000Y-86415000D02*
X106690000Y-86415000D01*
X107860000Y-88385000D02*
X107860000Y-90885000D01*
X107860000Y-90885000D02*
X106810000Y-90885000D01*
%TO.C,C40*%
X94142164Y-98990000D02*
X94357836Y-98990000D01*
X94142164Y-99710000D02*
X94357836Y-99710000D01*
%TO.C,C2*%
X96840000Y-97607836D02*
X96840000Y-97392164D01*
X97560000Y-97607836D02*
X97560000Y-97392164D01*
%TO.C,Y5*%
X86140000Y-104010000D02*
X86140000Y-101190000D01*
X88560000Y-104010000D02*
X86140000Y-104010000D01*
%TO.C,D14*%
X112065000Y-91335000D02*
X112065000Y-89050000D01*
X113535000Y-89050000D02*
X113535000Y-91335000D01*
X113535000Y-91335000D02*
X112065000Y-91335000D01*
%TO.C,R13*%
X104070000Y-108296359D02*
X104070000Y-108603641D01*
X104830000Y-108296359D02*
X104830000Y-108603641D01*
%TO.C,C26*%
X97440000Y-106107836D02*
X97440000Y-105892164D01*
X98160000Y-106107836D02*
X98160000Y-105892164D01*
%TO.C,C9*%
X95092164Y-95390000D02*
X95307836Y-95390000D01*
X95092164Y-96110000D02*
X95307836Y-96110000D01*
%TO.C,R28*%
X113620000Y-90253641D02*
X113620000Y-89946359D01*
X114380000Y-90253641D02*
X114380000Y-89946359D01*
%TO.C,C17*%
X86857836Y-90390000D02*
X86642164Y-90390000D01*
X86857836Y-91110000D02*
X86642164Y-91110000D01*
%TO.C,R31*%
X90953641Y-87070000D02*
X90646359Y-87070000D01*
X90953641Y-87830000D02*
X90646359Y-87830000D01*
%TO.C,C48*%
X107842164Y-91990000D02*
X108057836Y-91990000D01*
X107842164Y-92710000D02*
X108057836Y-92710000D01*
%TO.C,C7*%
X99107836Y-95390000D02*
X98892164Y-95390000D01*
X99107836Y-96110000D02*
X98892164Y-96110000D01*
%TO.C,C85*%
X95307836Y-92390000D02*
X95092164Y-92390000D01*
X95307836Y-93110000D02*
X95092164Y-93110000D01*
%TO.C,J6*%
X86415000Y-99090000D02*
X86415000Y-93210000D01*
X88385000Y-92040000D02*
X90885000Y-92040000D01*
X88385000Y-100260000D02*
X90885000Y-100260000D01*
X90885000Y-92040000D02*
X90885000Y-93090000D01*
X90885000Y-99210000D02*
X91875000Y-99210000D01*
X90885000Y-100260000D02*
X90885000Y-99210000D01*
%TO.C,U8*%
X94050000Y-89510000D02*
X92650000Y-89510000D01*
X94060000Y-87190000D02*
X92650000Y-87190000D01*
X94430000Y-87240000D02*
X94190000Y-86910000D01*
X94670000Y-86910000D01*
X94430000Y-87240000D01*
G36*
X94430000Y-87240000D02*
G01*
X94190000Y-86910000D01*
X94670000Y-86910000D01*
X94430000Y-87240000D01*
G37*
%TO.C,C15*%
X98840000Y-99392164D02*
X98840000Y-99607836D01*
X99560000Y-99392164D02*
X99560000Y-99607836D01*
%TO.C,C4*%
X99090000Y-97607836D02*
X99090000Y-97392164D01*
X99810000Y-97607836D02*
X99810000Y-97392164D01*
%TO.C,R36*%
X111046359Y-106220000D02*
X111353641Y-106220000D01*
X111046359Y-106980000D02*
X111353641Y-106980000D01*
%TO.C,C88*%
X111092164Y-103390000D02*
X111307836Y-103390000D01*
X111092164Y-104110000D02*
X111307836Y-104110000D01*
%TO.C,C29*%
X95992164Y-102590000D02*
X96207836Y-102590000D01*
X95992164Y-103310000D02*
X96207836Y-103310000D01*
%TO.C,C8*%
X99107836Y-93390000D02*
X98892164Y-93390000D01*
X99107836Y-94110000D02*
X98892164Y-94110000D01*
%TO.C,Y1*%
X95240000Y-98540000D02*
X98660000Y-98540000D01*
X95240000Y-101460000D02*
X95240000Y-98540000D01*
%TO.C,R14*%
X105053641Y-109470000D02*
X104746359Y-109470000D01*
X105053641Y-110230000D02*
X104746359Y-110230000D01*
%TO.C,R34*%
X111046359Y-104320000D02*
X111353641Y-104320000D01*
X111046359Y-105080000D02*
X111353641Y-105080000D01*
%TO.C,C65*%
X109240000Y-104957836D02*
X109240000Y-104742164D01*
X109960000Y-104957836D02*
X109960000Y-104742164D01*
D10*
%TO.C,D1*%
X97400000Y-90400000D02*
X99250000Y-90400000D01*
X97400000Y-93000000D02*
X97400000Y-90400000D01*
X98400000Y-91600000D02*
X98300000Y-91600000D01*
X98350000Y-91350000D01*
X98400000Y-91600000D01*
G36*
X98400000Y-91600000D02*
G01*
X98300000Y-91600000D01*
X98350000Y-91350000D01*
X98400000Y-91600000D01*
G37*
D11*
%TO.C,R19*%
X88946359Y-105170000D02*
X89253641Y-105170000D01*
X88946359Y-105930000D02*
X89253641Y-105930000D01*
%TO.C,D15*%
X86115000Y-108035000D02*
X86115000Y-105750000D01*
X87585000Y-105750000D02*
X87585000Y-108035000D01*
X87585000Y-108035000D02*
X86115000Y-108035000D01*
%TO.C,C45*%
X90257836Y-102490000D02*
X90042164Y-102490000D01*
X90257836Y-103210000D02*
X90042164Y-103210000D01*
%TO.C,C41*%
X92107836Y-102490000D02*
X91892164Y-102490000D01*
X92107836Y-103210000D02*
X91892164Y-103210000D01*
%TO.C,L5*%
X90000378Y-100940000D02*
X90799622Y-100940000D01*
X90000378Y-102060000D02*
X90799622Y-102060000D01*
%TO.C,U7*%
X107537500Y-110490000D02*
X105537500Y-110490000D01*
X107537500Y-112710000D02*
X105537500Y-112710000D01*
X108057500Y-110590000D02*
X107777500Y-110590000D01*
X107777500Y-110310000D01*
X108057500Y-110590000D01*
G36*
X108057500Y-110590000D02*
G01*
X107777500Y-110590000D01*
X107777500Y-110310000D01*
X108057500Y-110590000D01*
G37*
%TO.C,J1*%
X93370000Y-111792500D02*
X93370000Y-109872500D01*
X93370000Y-113802500D02*
X93370000Y-115507500D01*
X93370000Y-115507500D02*
X102530000Y-115507500D01*
X102530000Y-109872500D02*
X102530000Y-111792500D01*
X102530000Y-115507500D02*
X102530000Y-113802500D01*
%TO.C,R8*%
X98746359Y-102320000D02*
X99053641Y-102320000D01*
X98746359Y-103080000D02*
X99053641Y-103080000D01*
%TO.C,C18*%
X108790000Y-86942164D02*
X108790000Y-87157836D01*
X109510000Y-86942164D02*
X109510000Y-87157836D01*
%TO.C,L7*%
X104540000Y-107310000D02*
X108760000Y-107310000D01*
X108760000Y-103090000D02*
X104540000Y-103090000D01*
%TO.C,D10*%
X103400000Y-113610000D02*
X103400000Y-110950000D01*
X105100000Y-113610000D02*
X103400000Y-113610000D01*
X105100000Y-113610000D02*
X105100000Y-110950000D01*
D10*
%TO.C,D11*%
X93350000Y-96250000D02*
X95200000Y-96250000D01*
X93350000Y-98850000D02*
X93350000Y-96250000D01*
X94350000Y-97450000D02*
X94250000Y-97450000D01*
X94300000Y-97200000D01*
X94350000Y-97450000D01*
G36*
X94350000Y-97450000D02*
G01*
X94250000Y-97450000D01*
X94300000Y-97200000D01*
X94350000Y-97450000D01*
G37*
D11*
%TO.C,C5*%
X95092164Y-93390000D02*
X95307836Y-93390000D01*
X95092164Y-94110000D02*
X95307836Y-94110000D01*
%TO.C,C44*%
X92540000Y-101342164D02*
X92540000Y-101557836D01*
X93260000Y-101342164D02*
X93260000Y-101557836D01*
%TO.C,C19*%
X86692164Y-108140000D02*
X86907836Y-108140000D01*
X86692164Y-108860000D02*
X86907836Y-108860000D01*
%TO.C,C25*%
X98390000Y-106107836D02*
X98390000Y-105892164D01*
X99110000Y-106107836D02*
X99110000Y-105892164D01*
%TO.C,Q1*%
X96900000Y-86477500D02*
X96250000Y-86477500D01*
X96900000Y-86477500D02*
X97550000Y-86477500D01*
X96900000Y-89597500D02*
X96250000Y-89597500D01*
X96900000Y-89597500D02*
X97550000Y-89597500D01*
X98062500Y-86527500D02*
X97822500Y-86197500D01*
X98302500Y-86197500D01*
X98062500Y-86527500D01*
G36*
X98062500Y-86527500D02*
G01*
X97822500Y-86197500D01*
X98302500Y-86197500D01*
X98062500Y-86527500D01*
G37*
%TO.C,R35*%
X111046359Y-105270000D02*
X111353641Y-105270000D01*
X111046359Y-106030000D02*
X111353641Y-106030000D01*
%TO.C,C1*%
X95092164Y-94390000D02*
X95307836Y-94390000D01*
X95092164Y-95110000D02*
X95307836Y-95110000D01*
%TO.C,C84*%
X106907836Y-109490000D02*
X106692164Y-109490000D01*
X106907836Y-110210000D02*
X106692164Y-110210000D01*
%TO.C,U10*%
X93800000Y-89865000D02*
X96800000Y-89865000D01*
X93800000Y-92135000D02*
X96800000Y-92135000D01*
X93250000Y-92330000D02*
X92970000Y-92050000D01*
X93250000Y-92050000D01*
X93250000Y-92330000D01*
G36*
X93250000Y-92330000D02*
G01*
X92970000Y-92050000D01*
X93250000Y-92050000D01*
X93250000Y-92330000D01*
G37*
%TD*%
M02*
