%TF.GenerationSoftware,KiCad,Pcbnew,9.0.5*%
%TF.CreationDate,2025-10-07T19:58:39+02:00*%
%TF.ProjectId,Kolibri v0.6,4b6f6c69-6272-4692-9076-302e362e6b69,rev?*%
%TF.SameCoordinates,Original*%
%TF.FileFunction,Paste,Top*%
%TF.FilePolarity,Positive*%
%FSLAX46Y46*%
G04 Gerber Fmt 4.6, Leading zero omitted, Abs format (unit mm)*
G04 Created by KiCad (PCBNEW 9.0.5) date 2025-10-07 19:58:39*
%MOMM*%
%LPD*%
G01*
G04 APERTURE LIST*
G04 Aperture macros list*
%AMRoundRect*
0 Rectangle with rounded corners*
0 $1 Rounding radius*
0 $2 $3 $4 $5 $6 $7 $8 $9 X,Y pos of 4 corners*
0 Add a 4 corners polygon primitive as box body*
4,1,4,$2,$3,$4,$5,$6,$7,$8,$9,$2,$3,0*
0 Add four circle primitives for the rounded corners*
1,1,$1+$1,$2,$3*
1,1,$1+$1,$4,$5*
1,1,$1+$1,$6,$7*
1,1,$1+$1,$8,$9*
0 Add four rect primitives between the rounded corners*
20,1,$1+$1,$2,$3,$4,$5,0*
20,1,$1+$1,$4,$5,$6,$7,0*
20,1,$1+$1,$6,$7,$8,$9,0*
20,1,$1+$1,$8,$9,$2,$3,0*%
G04 Aperture macros list end*
%ADD10C,0.100000*%
%ADD11RoundRect,0.135000X-0.185000X0.135000X-0.185000X-0.135000X0.185000X-0.135000X0.185000X0.135000X0*%
%ADD12RoundRect,0.147500X0.172500X-0.147500X0.172500X0.147500X-0.172500X0.147500X-0.172500X-0.147500X0*%
%ADD13RoundRect,0.097500X-0.302500X-0.227500X0.302500X-0.227500X0.302500X0.227500X-0.302500X0.227500X0*%
%ADD14RoundRect,0.140000X-0.140000X-0.170000X0.140000X-0.170000X0.140000X0.170000X-0.140000X0.170000X0*%
%ADD15R,0.850000X0.300000*%
%ADD16R,0.300000X0.850000*%
%ADD17RoundRect,0.135000X-0.135000X-0.185000X0.135000X-0.185000X0.135000X0.185000X-0.135000X0.185000X0*%
%ADD18RoundRect,0.140000X-0.170000X0.140000X-0.170000X-0.140000X0.170000X-0.140000X0.170000X0.140000X0*%
%ADD19RoundRect,0.140000X0.140000X0.170000X-0.140000X0.170000X-0.140000X-0.170000X0.140000X-0.170000X0*%
%ADD20RoundRect,0.250000X0.600000X1.600000X-0.600000X1.600000X-0.600000X-1.600000X0.600000X-1.600000X0*%
%ADD21RoundRect,0.140000X0.170000X-0.140000X0.170000X0.140000X-0.170000X0.140000X-0.170000X-0.140000X0*%
%ADD22RoundRect,0.112500X-0.112500X0.187500X-0.112500X-0.187500X0.112500X-0.187500X0.112500X0.187500X0*%
%ADD23R,0.900000X0.300000*%
%ADD24R,1.400000X2.600000*%
%ADD25RoundRect,0.097500X-0.227500X0.302500X-0.227500X-0.302500X0.227500X-0.302500X0.227500X0.302500X0*%
%ADD26RoundRect,0.135000X0.135000X0.185000X-0.135000X0.185000X-0.135000X-0.185000X0.135000X-0.185000X0*%
%ADD27RoundRect,0.135000X0.185000X-0.135000X0.185000X0.135000X-0.185000X0.135000X-0.185000X-0.135000X0*%
%ADD28RoundRect,0.175000X-0.175000X-0.375000X0.175000X-0.375000X0.175000X0.375000X-0.175000X0.375000X0*%
%ADD29RoundRect,0.150000X-0.150000X-0.450000X0.150000X-0.450000X0.150000X0.450000X-0.150000X0.450000X0*%
%ADD30RoundRect,0.100000X0.400000X0.400000X-0.400000X0.400000X-0.400000X-0.400000X0.400000X-0.400000X0*%
%ADD31RoundRect,0.105000X0.420000X0.995000X-0.420000X0.995000X-0.420000X-0.995000X0.420000X-0.995000X0*%
%ADD32RoundRect,0.112500X-0.187500X-0.112500X0.187500X-0.112500X0.187500X0.112500X-0.187500X0.112500X0*%
%ADD33RoundRect,0.097500X0.302500X0.227500X-0.302500X0.227500X-0.302500X-0.227500X0.302500X-0.227500X0*%
%ADD34RoundRect,0.250000X-0.250000X-0.550000X0.250000X-0.550000X0.250000X0.550000X-0.250000X0.550000X0*%
%ADD35RoundRect,0.147500X-0.226274X-0.017678X-0.017678X-0.226274X0.226274X0.017678X0.017678X0.226274X0*%
%ADD36RoundRect,0.200000X-0.250000X-0.200000X0.250000X-0.200000X0.250000X0.200000X-0.250000X0.200000X0*%
%ADD37RoundRect,0.087500X-0.225000X-0.087500X0.225000X-0.087500X0.225000X0.087500X-0.225000X0.087500X0*%
%ADD38RoundRect,0.087500X-0.087500X-0.225000X0.087500X-0.225000X0.087500X0.225000X-0.087500X0.225000X0*%
%ADD39RoundRect,0.050000X-0.285000X-0.100000X0.285000X-0.100000X0.285000X0.100000X-0.285000X0.100000X0*%
%ADD40RoundRect,0.200000X0.200000X-0.250000X0.200000X0.250000X-0.200000X0.250000X-0.200000X-0.250000X0*%
%ADD41RoundRect,0.087500X0.087500X-0.125000X0.087500X0.125000X-0.087500X0.125000X-0.087500X-0.125000X0*%
%ADD42RoundRect,0.087500X0.125000X-0.087500X0.125000X0.087500X-0.125000X0.087500X-0.125000X-0.087500X0*%
%ADD43R,0.550000X0.550000*%
%ADD44RoundRect,0.250000X0.435000X0.615000X-0.435000X0.615000X-0.435000X-0.615000X0.435000X-0.615000X0*%
%ADD45RoundRect,0.125000X0.200000X0.125000X-0.200000X0.125000X-0.200000X-0.125000X0.200000X-0.125000X0*%
%ADD46RoundRect,0.218750X0.256250X-0.218750X0.256250X0.218750X-0.256250X0.218750X-0.256250X-0.218750X0*%
%ADD47RoundRect,0.147500X-0.172500X0.147500X-0.172500X-0.147500X0.172500X-0.147500X0.172500X0.147500X0*%
%ADD48RoundRect,0.250000X0.475000X-0.250000X0.475000X0.250000X-0.475000X0.250000X-0.475000X-0.250000X0*%
%ADD49RoundRect,0.150000X0.150000X-0.587500X0.150000X0.587500X-0.150000X0.587500X-0.150000X-0.587500X0*%
%ADD50R,0.500000X0.300000*%
%ADD51RoundRect,0.242500X0.242500X0.242500X-0.242500X0.242500X-0.242500X-0.242500X0.242500X-0.242500X0*%
%ADD52RoundRect,0.062500X0.350000X0.062500X-0.350000X0.062500X-0.350000X-0.062500X0.350000X-0.062500X0*%
%ADD53RoundRect,0.062500X0.062500X0.350000X-0.062500X0.350000X-0.062500X-0.350000X0.062500X-0.350000X0*%
%ADD54RoundRect,0.097500X0.227500X-0.302500X0.227500X0.302500X-0.227500X0.302500X-0.227500X-0.302500X0*%
G04 APERTURE END LIST*
%TO.C,IC1*%
G36*
X89450000Y-100150000D02*
G01*
X91250000Y-100150000D01*
X91250000Y-101950000D01*
X89450000Y-101950000D01*
X89450000Y-100150000D01*
G37*
%TO.C,U1*%
D10*
X93125000Y-92650000D02*
X93675000Y-92650000D01*
X93675000Y-92750000D01*
X93125000Y-92750000D01*
X93125000Y-92650000D01*
G36*
X93125000Y-92650000D02*
G01*
X93675000Y-92650000D01*
X93675000Y-92750000D01*
X93125000Y-92750000D01*
X93125000Y-92650000D01*
G37*
X93125000Y-93050000D02*
X93675000Y-93050000D01*
X93675000Y-93150000D01*
X93125000Y-93150000D01*
X93125000Y-93050000D01*
G36*
X93125000Y-93050000D02*
G01*
X93675000Y-93050000D01*
X93675000Y-93150000D01*
X93125000Y-93150000D01*
X93125000Y-93050000D01*
G37*
X93125000Y-93450000D02*
X93675000Y-93450000D01*
X93675000Y-93550000D01*
X93125000Y-93550000D01*
X93125000Y-93450000D01*
G36*
X93125000Y-93450000D02*
G01*
X93675000Y-93450000D01*
X93675000Y-93550000D01*
X93125000Y-93550000D01*
X93125000Y-93450000D01*
G37*
X93125000Y-93850000D02*
X93675000Y-93850000D01*
X93675000Y-93950000D01*
X93125000Y-93950000D01*
X93125000Y-93850000D01*
G36*
X93125000Y-93850000D02*
G01*
X93675000Y-93850000D01*
X93675000Y-93950000D01*
X93125000Y-93950000D01*
X93125000Y-93850000D01*
G37*
X93125000Y-94250000D02*
X93675000Y-94250000D01*
X93675000Y-94350000D01*
X93125000Y-94350000D01*
X93125000Y-94250000D01*
G36*
X93125000Y-94250000D02*
G01*
X93675000Y-94250000D01*
X93675000Y-94350000D01*
X93125000Y-94350000D01*
X93125000Y-94250000D01*
G37*
X93125000Y-94650000D02*
X93675000Y-94650000D01*
X93675000Y-94750000D01*
X93125000Y-94750000D01*
X93125000Y-94650000D01*
G36*
X93125000Y-94650000D02*
G01*
X93675000Y-94650000D01*
X93675000Y-94750000D01*
X93125000Y-94750000D01*
X93125000Y-94650000D01*
G37*
X93125000Y-95050000D02*
X93675000Y-95050000D01*
X93675000Y-95150000D01*
X93125000Y-95150000D01*
X93125000Y-95050000D01*
G36*
X93125000Y-95050000D02*
G01*
X93675000Y-95050000D01*
X93675000Y-95150000D01*
X93125000Y-95150000D01*
X93125000Y-95050000D01*
G37*
X93125000Y-95450000D02*
X93675000Y-95450000D01*
X93675000Y-95550000D01*
X93125000Y-95550000D01*
X93125000Y-95450000D01*
G36*
X93125000Y-95450000D02*
G01*
X93675000Y-95450000D01*
X93675000Y-95550000D01*
X93125000Y-95550000D01*
X93125000Y-95450000D01*
G37*
X93125000Y-95850000D02*
X93675000Y-95850000D01*
X93675000Y-95950000D01*
X93125000Y-95950000D01*
X93125000Y-95850000D01*
G36*
X93125000Y-95850000D02*
G01*
X93675000Y-95850000D01*
X93675000Y-95950000D01*
X93125000Y-95950000D01*
X93125000Y-95850000D01*
G37*
X93125000Y-96250000D02*
X93675000Y-96250000D01*
X93675000Y-96350000D01*
X93125000Y-96350000D01*
X93125000Y-96250000D01*
G36*
X93125000Y-96250000D02*
G01*
X93675000Y-96250000D01*
X93675000Y-96350000D01*
X93125000Y-96350000D01*
X93125000Y-96250000D01*
G37*
X93125000Y-96650000D02*
X93675000Y-96650000D01*
X93675000Y-96750000D01*
X93125000Y-96750000D01*
X93125000Y-96650000D01*
G36*
X93125000Y-96650000D02*
G01*
X93675000Y-96650000D01*
X93675000Y-96750000D01*
X93125000Y-96750000D01*
X93125000Y-96650000D01*
G37*
X93125000Y-97050000D02*
X93675000Y-97050000D01*
X93675000Y-97150000D01*
X93125000Y-97150000D01*
X93125000Y-97050000D01*
G36*
X93125000Y-97050000D02*
G01*
X93675000Y-97050000D01*
X93675000Y-97150000D01*
X93125000Y-97150000D01*
X93125000Y-97050000D01*
G37*
X93125000Y-97450000D02*
X93675000Y-97450000D01*
X93675000Y-97550000D01*
X93125000Y-97550000D01*
X93125000Y-97450000D01*
G36*
X93125000Y-97450000D02*
G01*
X93675000Y-97450000D01*
X93675000Y-97550000D01*
X93125000Y-97550000D01*
X93125000Y-97450000D01*
G37*
X93125000Y-97850000D02*
X93675000Y-97850000D01*
X93675000Y-97950000D01*
X93125000Y-97950000D01*
X93125000Y-97850000D01*
G36*
X93125000Y-97850000D02*
G01*
X93675000Y-97850000D01*
X93675000Y-97950000D01*
X93125000Y-97950000D01*
X93125000Y-97850000D01*
G37*
X93125000Y-98250000D02*
X93675000Y-98250000D01*
X93675000Y-98350000D01*
X93125000Y-98350000D01*
X93125000Y-98250000D01*
G36*
X93125000Y-98250000D02*
G01*
X93675000Y-98250000D01*
X93675000Y-98350000D01*
X93125000Y-98350000D01*
X93125000Y-98250000D01*
G37*
X94100000Y-91675000D02*
X94200000Y-91675000D01*
X94200000Y-92225000D01*
X94100000Y-92225000D01*
X94100000Y-91675000D01*
G36*
X94100000Y-91675000D02*
G01*
X94200000Y-91675000D01*
X94200000Y-92225000D01*
X94100000Y-92225000D01*
X94100000Y-91675000D01*
G37*
X94100000Y-98775000D02*
X94200000Y-98775000D01*
X94200000Y-99325000D01*
X94100000Y-99325000D01*
X94100000Y-98775000D01*
G36*
X94100000Y-98775000D02*
G01*
X94200000Y-98775000D01*
X94200000Y-99325000D01*
X94100000Y-99325000D01*
X94100000Y-98775000D01*
G37*
X94500000Y-91675000D02*
X94600000Y-91675000D01*
X94600000Y-92225000D01*
X94500000Y-92225000D01*
X94500000Y-91675000D01*
G36*
X94500000Y-91675000D02*
G01*
X94600000Y-91675000D01*
X94600000Y-92225000D01*
X94500000Y-92225000D01*
X94500000Y-91675000D01*
G37*
X94500000Y-98775000D02*
X94600000Y-98775000D01*
X94600000Y-99325000D01*
X94500000Y-99325000D01*
X94500000Y-98775000D01*
G36*
X94500000Y-98775000D02*
G01*
X94600000Y-98775000D01*
X94600000Y-99325000D01*
X94500000Y-99325000D01*
X94500000Y-98775000D01*
G37*
X94900000Y-91675000D02*
X95000000Y-91675000D01*
X95000000Y-92225000D01*
X94900000Y-92225000D01*
X94900000Y-91675000D01*
G36*
X94900000Y-91675000D02*
G01*
X95000000Y-91675000D01*
X95000000Y-92225000D01*
X94900000Y-92225000D01*
X94900000Y-91675000D01*
G37*
X94900000Y-98775000D02*
X95000000Y-98775000D01*
X95000000Y-99325000D01*
X94900000Y-99325000D01*
X94900000Y-98775000D01*
G36*
X94900000Y-98775000D02*
G01*
X95000000Y-98775000D01*
X95000000Y-99325000D01*
X94900000Y-99325000D01*
X94900000Y-98775000D01*
G37*
X95300000Y-91675000D02*
X95400000Y-91675000D01*
X95400000Y-92225000D01*
X95300000Y-92225000D01*
X95300000Y-91675000D01*
G36*
X95300000Y-91675000D02*
G01*
X95400000Y-91675000D01*
X95400000Y-92225000D01*
X95300000Y-92225000D01*
X95300000Y-91675000D01*
G37*
X95300000Y-98775000D02*
X95400000Y-98775000D01*
X95400000Y-99325000D01*
X95300000Y-99325000D01*
X95300000Y-98775000D01*
G36*
X95300000Y-98775000D02*
G01*
X95400000Y-98775000D01*
X95400000Y-99325000D01*
X95300000Y-99325000D01*
X95300000Y-98775000D01*
G37*
X95700000Y-91675000D02*
X95800000Y-91675000D01*
X95800000Y-92225000D01*
X95700000Y-92225000D01*
X95700000Y-91675000D01*
G36*
X95700000Y-91675000D02*
G01*
X95800000Y-91675000D01*
X95800000Y-92225000D01*
X95700000Y-92225000D01*
X95700000Y-91675000D01*
G37*
X95700000Y-98775000D02*
X95800000Y-98775000D01*
X95800000Y-99325000D01*
X95700000Y-99325000D01*
X95700000Y-98775000D01*
G36*
X95700000Y-98775000D02*
G01*
X95800000Y-98775000D01*
X95800000Y-99325000D01*
X95700000Y-99325000D01*
X95700000Y-98775000D01*
G37*
X96100000Y-91675000D02*
X96200000Y-91675000D01*
X96200000Y-92225000D01*
X96100000Y-92225000D01*
X96100000Y-91675000D01*
G36*
X96100000Y-91675000D02*
G01*
X96200000Y-91675000D01*
X96200000Y-92225000D01*
X96100000Y-92225000D01*
X96100000Y-91675000D01*
G37*
X96100000Y-98775000D02*
X96200000Y-98775000D01*
X96200000Y-99325000D01*
X96100000Y-99325000D01*
X96100000Y-98775000D01*
G36*
X96100000Y-98775000D02*
G01*
X96200000Y-98775000D01*
X96200000Y-99325000D01*
X96100000Y-99325000D01*
X96100000Y-98775000D01*
G37*
X96500000Y-91675000D02*
X96600000Y-91675000D01*
X96600000Y-92225000D01*
X96500000Y-92225000D01*
X96500000Y-91675000D01*
G36*
X96500000Y-91675000D02*
G01*
X96600000Y-91675000D01*
X96600000Y-92225000D01*
X96500000Y-92225000D01*
X96500000Y-91675000D01*
G37*
X96500000Y-98775000D02*
X96600000Y-98775000D01*
X96600000Y-99325000D01*
X96500000Y-99325000D01*
X96500000Y-98775000D01*
G36*
X96500000Y-98775000D02*
G01*
X96600000Y-98775000D01*
X96600000Y-99325000D01*
X96500000Y-99325000D01*
X96500000Y-98775000D01*
G37*
X96900000Y-91675000D02*
X97000000Y-91675000D01*
X97000000Y-92225000D01*
X96900000Y-92225000D01*
X96900000Y-91675000D01*
G36*
X96900000Y-91675000D02*
G01*
X97000000Y-91675000D01*
X97000000Y-92225000D01*
X96900000Y-92225000D01*
X96900000Y-91675000D01*
G37*
X96900000Y-98775000D02*
X97000000Y-98775000D01*
X97000000Y-99325000D01*
X96900000Y-99325000D01*
X96900000Y-98775000D01*
G36*
X96900000Y-98775000D02*
G01*
X97000000Y-98775000D01*
X97000000Y-99325000D01*
X96900000Y-99325000D01*
X96900000Y-98775000D01*
G37*
X97300000Y-91675000D02*
X97400000Y-91675000D01*
X97400000Y-92225000D01*
X97300000Y-92225000D01*
X97300000Y-91675000D01*
G36*
X97300000Y-91675000D02*
G01*
X97400000Y-91675000D01*
X97400000Y-92225000D01*
X97300000Y-92225000D01*
X97300000Y-91675000D01*
G37*
X97300000Y-98775000D02*
X97400000Y-98775000D01*
X97400000Y-99325000D01*
X97300000Y-99325000D01*
X97300000Y-98775000D01*
G36*
X97300000Y-98775000D02*
G01*
X97400000Y-98775000D01*
X97400000Y-99325000D01*
X97300000Y-99325000D01*
X97300000Y-98775000D01*
G37*
X97700000Y-91675000D02*
X97800000Y-91675000D01*
X97800000Y-92225000D01*
X97700000Y-92225000D01*
X97700000Y-91675000D01*
G36*
X97700000Y-91675000D02*
G01*
X97800000Y-91675000D01*
X97800000Y-92225000D01*
X97700000Y-92225000D01*
X97700000Y-91675000D01*
G37*
X97700000Y-98775000D02*
X97800000Y-98775000D01*
X97800000Y-99325000D01*
X97700000Y-99325000D01*
X97700000Y-98775000D01*
G36*
X97700000Y-98775000D02*
G01*
X97800000Y-98775000D01*
X97800000Y-99325000D01*
X97700000Y-99325000D01*
X97700000Y-98775000D01*
G37*
X98100000Y-91675000D02*
X98200000Y-91675000D01*
X98200000Y-92225000D01*
X98100000Y-92225000D01*
X98100000Y-91675000D01*
G36*
X98100000Y-91675000D02*
G01*
X98200000Y-91675000D01*
X98200000Y-92225000D01*
X98100000Y-92225000D01*
X98100000Y-91675000D01*
G37*
X98100000Y-98775000D02*
X98200000Y-98775000D01*
X98200000Y-99325000D01*
X98100000Y-99325000D01*
X98100000Y-98775000D01*
G36*
X98100000Y-98775000D02*
G01*
X98200000Y-98775000D01*
X98200000Y-99325000D01*
X98100000Y-99325000D01*
X98100000Y-98775000D01*
G37*
X98500000Y-91675000D02*
X98600000Y-91675000D01*
X98600000Y-92225000D01*
X98500000Y-92225000D01*
X98500000Y-91675000D01*
G36*
X98500000Y-91675000D02*
G01*
X98600000Y-91675000D01*
X98600000Y-92225000D01*
X98500000Y-92225000D01*
X98500000Y-91675000D01*
G37*
X98500000Y-98775000D02*
X98600000Y-98775000D01*
X98600000Y-99325000D01*
X98500000Y-99325000D01*
X98500000Y-98775000D01*
G36*
X98500000Y-98775000D02*
G01*
X98600000Y-98775000D01*
X98600000Y-99325000D01*
X98500000Y-99325000D01*
X98500000Y-98775000D01*
G37*
X98900000Y-91675000D02*
X99000000Y-91675000D01*
X99000000Y-92225000D01*
X98900000Y-92225000D01*
X98900000Y-91675000D01*
G36*
X98900000Y-91675000D02*
G01*
X99000000Y-91675000D01*
X99000000Y-92225000D01*
X98900000Y-92225000D01*
X98900000Y-91675000D01*
G37*
X98900000Y-98775000D02*
X99000000Y-98775000D01*
X99000000Y-99325000D01*
X98900000Y-99325000D01*
X98900000Y-98775000D01*
G36*
X98900000Y-98775000D02*
G01*
X99000000Y-98775000D01*
X99000000Y-99325000D01*
X98900000Y-99325000D01*
X98900000Y-98775000D01*
G37*
X99300000Y-91675000D02*
X99400000Y-91675000D01*
X99400000Y-92225000D01*
X99300000Y-92225000D01*
X99300000Y-91675000D01*
G36*
X99300000Y-91675000D02*
G01*
X99400000Y-91675000D01*
X99400000Y-92225000D01*
X99300000Y-92225000D01*
X99300000Y-91675000D01*
G37*
X99300000Y-98775000D02*
X99400000Y-98775000D01*
X99400000Y-99325000D01*
X99300000Y-99325000D01*
X99300000Y-98775000D01*
G36*
X99300000Y-98775000D02*
G01*
X99400000Y-98775000D01*
X99400000Y-99325000D01*
X99300000Y-99325000D01*
X99300000Y-98775000D01*
G37*
X99700000Y-91675000D02*
X99800000Y-91675000D01*
X99800000Y-92225000D01*
X99700000Y-92225000D01*
X99700000Y-91675000D01*
G36*
X99700000Y-91675000D02*
G01*
X99800000Y-91675000D01*
X99800000Y-92225000D01*
X99700000Y-92225000D01*
X99700000Y-91675000D01*
G37*
X99700000Y-98775000D02*
X99800000Y-98775000D01*
X99800000Y-99325000D01*
X99700000Y-99325000D01*
X99700000Y-98775000D01*
G36*
X99700000Y-98775000D02*
G01*
X99800000Y-98775000D01*
X99800000Y-99325000D01*
X99700000Y-99325000D01*
X99700000Y-98775000D01*
G37*
X100225000Y-92650000D02*
X100775000Y-92650000D01*
X100775000Y-92750000D01*
X100225000Y-92750000D01*
X100225000Y-92650000D01*
G36*
X100225000Y-92650000D02*
G01*
X100775000Y-92650000D01*
X100775000Y-92750000D01*
X100225000Y-92750000D01*
X100225000Y-92650000D01*
G37*
X100225000Y-93050000D02*
X100775000Y-93050000D01*
X100775000Y-93150000D01*
X100225000Y-93150000D01*
X100225000Y-93050000D01*
G36*
X100225000Y-93050000D02*
G01*
X100775000Y-93050000D01*
X100775000Y-93150000D01*
X100225000Y-93150000D01*
X100225000Y-93050000D01*
G37*
X100225000Y-93450000D02*
X100775000Y-93450000D01*
X100775000Y-93550000D01*
X100225000Y-93550000D01*
X100225000Y-93450000D01*
G36*
X100225000Y-93450000D02*
G01*
X100775000Y-93450000D01*
X100775000Y-93550000D01*
X100225000Y-93550000D01*
X100225000Y-93450000D01*
G37*
X100225000Y-93850000D02*
X100775000Y-93850000D01*
X100775000Y-93950000D01*
X100225000Y-93950000D01*
X100225000Y-93850000D01*
G36*
X100225000Y-93850000D02*
G01*
X100775000Y-93850000D01*
X100775000Y-93950000D01*
X100225000Y-93950000D01*
X100225000Y-93850000D01*
G37*
X100225000Y-94250000D02*
X100775000Y-94250000D01*
X100775000Y-94350000D01*
X100225000Y-94350000D01*
X100225000Y-94250000D01*
G36*
X100225000Y-94250000D02*
G01*
X100775000Y-94250000D01*
X100775000Y-94350000D01*
X100225000Y-94350000D01*
X100225000Y-94250000D01*
G37*
X100225000Y-94650000D02*
X100775000Y-94650000D01*
X100775000Y-94750000D01*
X100225000Y-94750000D01*
X100225000Y-94650000D01*
G36*
X100225000Y-94650000D02*
G01*
X100775000Y-94650000D01*
X100775000Y-94750000D01*
X100225000Y-94750000D01*
X100225000Y-94650000D01*
G37*
X100225000Y-95050000D02*
X100775000Y-95050000D01*
X100775000Y-95150000D01*
X100225000Y-95150000D01*
X100225000Y-95050000D01*
G36*
X100225000Y-95050000D02*
G01*
X100775000Y-95050000D01*
X100775000Y-95150000D01*
X100225000Y-95150000D01*
X100225000Y-95050000D01*
G37*
X100225000Y-95450000D02*
X100775000Y-95450000D01*
X100775000Y-95550000D01*
X100225000Y-95550000D01*
X100225000Y-95450000D01*
G36*
X100225000Y-95450000D02*
G01*
X100775000Y-95450000D01*
X100775000Y-95550000D01*
X100225000Y-95550000D01*
X100225000Y-95450000D01*
G37*
X100225000Y-95850000D02*
X100775000Y-95850000D01*
X100775000Y-95950000D01*
X100225000Y-95950000D01*
X100225000Y-95850000D01*
G36*
X100225000Y-95850000D02*
G01*
X100775000Y-95850000D01*
X100775000Y-95950000D01*
X100225000Y-95950000D01*
X100225000Y-95850000D01*
G37*
X100225000Y-96250000D02*
X100775000Y-96250000D01*
X100775000Y-96350000D01*
X100225000Y-96350000D01*
X100225000Y-96250000D01*
G36*
X100225000Y-96250000D02*
G01*
X100775000Y-96250000D01*
X100775000Y-96350000D01*
X100225000Y-96350000D01*
X100225000Y-96250000D01*
G37*
X100225000Y-96650000D02*
X100775000Y-96650000D01*
X100775000Y-96750000D01*
X100225000Y-96750000D01*
X100225000Y-96650000D01*
G36*
X100225000Y-96650000D02*
G01*
X100775000Y-96650000D01*
X100775000Y-96750000D01*
X100225000Y-96750000D01*
X100225000Y-96650000D01*
G37*
X100225000Y-97050000D02*
X100775000Y-97050000D01*
X100775000Y-97150000D01*
X100225000Y-97150000D01*
X100225000Y-97050000D01*
G36*
X100225000Y-97050000D02*
G01*
X100775000Y-97050000D01*
X100775000Y-97150000D01*
X100225000Y-97150000D01*
X100225000Y-97050000D01*
G37*
X100225000Y-97450000D02*
X100775000Y-97450000D01*
X100775000Y-97550000D01*
X100225000Y-97550000D01*
X100225000Y-97450000D01*
G36*
X100225000Y-97450000D02*
G01*
X100775000Y-97450000D01*
X100775000Y-97550000D01*
X100225000Y-97550000D01*
X100225000Y-97450000D01*
G37*
X100225000Y-97850000D02*
X100775000Y-97850000D01*
X100775000Y-97950000D01*
X100225000Y-97950000D01*
X100225000Y-97850000D01*
G36*
X100225000Y-97850000D02*
G01*
X100775000Y-97850000D01*
X100775000Y-97950000D01*
X100225000Y-97950000D01*
X100225000Y-97850000D01*
G37*
X100225000Y-98250000D02*
X100775000Y-98250000D01*
X100775000Y-98350000D01*
X100225000Y-98350000D01*
X100225000Y-98250000D01*
G36*
X100225000Y-98250000D02*
G01*
X100775000Y-98250000D01*
X100775000Y-98350000D01*
X100225000Y-98350000D01*
X100225000Y-98250000D01*
G37*
%TD*%
D11*
%TO.C,R1*%
X105300000Y-102190000D03*
X105300000Y-103210000D03*
%TD*%
D12*
%TO.C,L4*%
X99950000Y-108985000D03*
X99950000Y-108015000D03*
%TD*%
D13*
%TO.C,D9*%
X109050000Y-86125000D03*
X110550000Y-86125000D03*
X109050000Y-87075000D03*
X110550000Y-87075000D03*
%TD*%
D14*
%TO.C,C38*%
X94870000Y-108250000D03*
X95830000Y-108250000D03*
%TD*%
D15*
%TO.C,IC1*%
X88400000Y-99800000D03*
X88400000Y-100300000D03*
X88400000Y-100800000D03*
X88400000Y-101300000D03*
X88400000Y-101800000D03*
X88400000Y-102300000D03*
D16*
X89100000Y-103000000D03*
X89600000Y-103000000D03*
X90100000Y-103000000D03*
X90600000Y-103000000D03*
X91100000Y-103000000D03*
X91600000Y-103000000D03*
D15*
X92300000Y-102300000D03*
X92300000Y-101800000D03*
X92300000Y-101300000D03*
X92300000Y-100800000D03*
X92300000Y-100300000D03*
X92300000Y-99800000D03*
D16*
X91600000Y-99100000D03*
X91100000Y-99100000D03*
X90600000Y-99100000D03*
X90100000Y-99100000D03*
X89600000Y-99100000D03*
X89100000Y-99100000D03*
%TD*%
D17*
%TO.C,R2*%
X106190000Y-103300000D03*
X107210000Y-103300000D03*
%TD*%
D18*
%TO.C,C81*%
X110950000Y-99020000D03*
X110950000Y-99980000D03*
%TD*%
D19*
%TO.C,C35*%
X99380000Y-100900000D03*
X98420000Y-100900000D03*
%TD*%
D20*
%TO.C,L8*%
X92050000Y-105950000D03*
X89350000Y-105950000D03*
%TD*%
D19*
%TO.C,C22*%
X109830000Y-103000000D03*
X108870000Y-103000000D03*
%TD*%
D21*
%TO.C,C30*%
X96700000Y-90430000D03*
X96700000Y-89470000D03*
%TD*%
D14*
%TO.C,C87*%
X107020000Y-102050000D03*
X107980000Y-102050000D03*
%TD*%
D22*
%TO.C,D13*%
X104300000Y-107600000D03*
X104300000Y-109700000D03*
%TD*%
D21*
%TO.C,C14*%
X95650000Y-100880000D03*
X95650000Y-99920000D03*
%TD*%
D23*
%TO.C,IC5*%
X106050000Y-104350000D03*
X106050000Y-104850000D03*
X106050000Y-105350000D03*
X106050000Y-105850000D03*
X106050000Y-106350000D03*
X106050000Y-106850000D03*
X108950000Y-106850000D03*
X108950000Y-106350000D03*
X108950000Y-105850000D03*
X108950000Y-105350000D03*
X108950000Y-104850000D03*
X108950000Y-104350000D03*
D24*
X107500000Y-105600000D03*
%TD*%
D25*
%TO.C,D8*%
X113875000Y-89450000D03*
X113875000Y-90950000D03*
X112925000Y-89450000D03*
X112925000Y-90950000D03*
%TD*%
D21*
%TO.C,C79*%
X107650000Y-91580000D03*
X107650000Y-90620000D03*
%TD*%
D19*
%TO.C,C21*%
X109830000Y-102050000D03*
X108870000Y-102050000D03*
%TD*%
D26*
%TO.C,R4*%
X97560000Y-100450000D03*
X96540000Y-100450000D03*
%TD*%
D18*
%TO.C,C31*%
X107600000Y-110470000D03*
X107600000Y-111430000D03*
%TD*%
D19*
%TO.C,C32*%
X102730000Y-109250000D03*
X101770000Y-109250000D03*
%TD*%
D21*
%TO.C,C77*%
X101700000Y-92730000D03*
X101700000Y-91770000D03*
%TD*%
D25*
%TO.C,D3*%
X87075000Y-89450000D03*
X87075000Y-90950000D03*
X86125000Y-89450000D03*
X86125000Y-90950000D03*
%TD*%
D27*
%TO.C,R24*%
X101700000Y-94610000D03*
X101700000Y-93590000D03*
%TD*%
D28*
%TO.C,SW1*%
X95350000Y-111700000D03*
X98850000Y-111700000D03*
D29*
X99300000Y-113150000D03*
X94900000Y-113150000D03*
%TD*%
D21*
%TO.C,C80*%
X103650000Y-91580000D03*
X103650000Y-90620000D03*
%TD*%
D30*
%TO.C,J3*%
X90100000Y-95500000D03*
D31*
X88625000Y-94000000D03*
D30*
X90100000Y-92500000D03*
D31*
X91575000Y-94000000D03*
%TD*%
D18*
%TO.C,C11*%
X100750000Y-90120000D03*
X100750000Y-91080000D03*
%TD*%
D26*
%TO.C,R6*%
X95860000Y-110450000D03*
X94840000Y-110450000D03*
%TD*%
D27*
%TO.C,R25*%
X102650000Y-92760000D03*
X102650000Y-91740000D03*
%TD*%
D32*
%TO.C,D12*%
X94650000Y-88000000D03*
X96750000Y-88000000D03*
%TD*%
D33*
%TO.C,D5*%
X90950000Y-113875000D03*
X89450000Y-113875000D03*
X90950000Y-112925000D03*
X89450000Y-112925000D03*
%TD*%
D18*
%TO.C,C86*%
X102650000Y-95470000D03*
X102650000Y-96430000D03*
%TD*%
D14*
%TO.C,C13*%
X98370000Y-91050000D03*
X99330000Y-91050000D03*
%TD*%
D34*
%TO.C,L1*%
X97800000Y-88700000D03*
X99800000Y-88700000D03*
%TD*%
D35*
%TO.C,L3*%
X102007053Y-107457053D03*
X102692947Y-108142947D03*
%TD*%
D36*
%TO.C,Y4*%
X104950000Y-91300000D03*
X106350000Y-91300000D03*
X106350000Y-90200000D03*
X104950000Y-90200000D03*
%TD*%
D17*
%TO.C,R18*%
X92340000Y-108700000D03*
X93360000Y-108700000D03*
%TD*%
D21*
%TO.C,C23*%
X100850000Y-102780000D03*
X100850000Y-101820000D03*
%TD*%
%TO.C,C67*%
X102900000Y-105180000D03*
X102900000Y-104220000D03*
%TD*%
D18*
%TO.C,C56*%
X101400000Y-97770000D03*
X101400000Y-98730000D03*
%TD*%
%TO.C,C39*%
X99000000Y-108470000D03*
X99000000Y-109430000D03*
%TD*%
D14*
%TO.C,C12*%
X98370000Y-90100000D03*
X99330000Y-90100000D03*
%TD*%
D37*
%TO.C,U12*%
X107187500Y-99300000D03*
X107187500Y-99800000D03*
X107187500Y-100300000D03*
X107187500Y-100800000D03*
D38*
X107850000Y-100962500D03*
X108350000Y-100962500D03*
X108850000Y-100962500D03*
D37*
X109512500Y-100800000D03*
X109512500Y-100300000D03*
X109512500Y-99800000D03*
X109512500Y-99300000D03*
D38*
X108850000Y-99137500D03*
X108350000Y-99137500D03*
X107850000Y-99137500D03*
%TD*%
D14*
%TO.C,C83*%
X105720000Y-110500000D03*
X106680000Y-110500000D03*
%TD*%
D39*
%TO.C,U4*%
X105860000Y-107987500D03*
X105860000Y-108487500D03*
X105860000Y-108987500D03*
X105860000Y-109487500D03*
X107340000Y-109487500D03*
X107340000Y-108987500D03*
X107340000Y-108487500D03*
X107340000Y-107987500D03*
%TD*%
D40*
%TO.C,Y2*%
X97950000Y-109600000D03*
X97950000Y-108200000D03*
X96850000Y-108200000D03*
X96850000Y-109600000D03*
%TD*%
D21*
%TO.C,C70*%
X93650000Y-106730000D03*
X93650000Y-105770000D03*
%TD*%
D41*
%TO.C,U11*%
X102350000Y-103062500D03*
X102850000Y-103062500D03*
D42*
X103362500Y-102800000D03*
X103362500Y-102300000D03*
X103362500Y-101800000D03*
D41*
X102850000Y-101537500D03*
X102350000Y-101537500D03*
D42*
X101837500Y-101800000D03*
X101837500Y-102300000D03*
X101837500Y-102800000D03*
%TD*%
D43*
%TO.C,U1*%
X95675000Y-94225000D03*
X95675000Y-95075000D03*
X95675000Y-95925000D03*
X95675000Y-96775000D03*
X96525000Y-94225000D03*
X96525000Y-95075000D03*
X96525000Y-95925000D03*
X96525000Y-96775000D03*
X97375000Y-94225000D03*
X97375000Y-95075000D03*
X97375000Y-95925000D03*
X97375000Y-96775000D03*
X98225000Y-94225000D03*
X98225000Y-95075000D03*
X98225000Y-95925000D03*
X98225000Y-96775000D03*
%TD*%
D26*
%TO.C,R27*%
X95210000Y-86650000D03*
X94190000Y-86650000D03*
%TD*%
D28*
%TO.C,SW2*%
X100950000Y-111700000D03*
X104450000Y-111700000D03*
D29*
X104900000Y-113150000D03*
X100500000Y-113150000D03*
%TD*%
D17*
%TO.C,R41*%
X105140000Y-99050000D03*
X106160000Y-99050000D03*
%TD*%
D21*
%TO.C,C43*%
X88650000Y-97980000D03*
X88650000Y-97020000D03*
%TD*%
D25*
%TO.C,D7*%
X113875000Y-109050000D03*
X113875000Y-110550000D03*
X112925000Y-109050000D03*
X112925000Y-110550000D03*
%TD*%
D27*
%TO.C,R22*%
X101400000Y-100610000D03*
X101400000Y-99590000D03*
%TD*%
D17*
%TO.C,R26*%
X92740000Y-88400000D03*
X93760000Y-88400000D03*
%TD*%
D11*
%TO.C,R9*%
X100300000Y-99890000D03*
X100300000Y-100910000D03*
%TD*%
D14*
%TO.C,C46*%
X103270000Y-99050000D03*
X104230000Y-99050000D03*
%TD*%
D26*
%TO.C,R23*%
X106160000Y-100000000D03*
X105140000Y-100000000D03*
%TD*%
D44*
%TO.C,U6*%
X108300000Y-96375000D03*
X108300000Y-94225000D03*
X106600000Y-96375000D03*
X106600000Y-94225000D03*
D45*
X111200000Y-97205000D03*
X111200000Y-95935000D03*
X111200000Y-94665000D03*
X111200000Y-93395000D03*
X103700000Y-93395000D03*
X103700000Y-94665000D03*
X103700000Y-95935000D03*
X103700000Y-97205000D03*
%TD*%
D46*
%TO.C,D16*%
X102200000Y-90587500D03*
X102200000Y-89012500D03*
%TD*%
D11*
%TO.C,R3*%
X100950000Y-88240000D03*
X100950000Y-89260000D03*
%TD*%
D47*
%TO.C,L2*%
X100300000Y-104115000D03*
X100300000Y-105085000D03*
%TD*%
D18*
%TO.C,C78*%
X102650000Y-93620000D03*
X102650000Y-94580000D03*
%TD*%
D48*
%TO.C,C68*%
X104350000Y-106300000D03*
X104350000Y-104400000D03*
%TD*%
D11*
%TO.C,R15*%
X101950000Y-104090000D03*
X101950000Y-105110000D03*
%TD*%
D17*
%TO.C,R21*%
X103240000Y-100000000D03*
X104260000Y-100000000D03*
%TD*%
D27*
%TO.C,R30*%
X103400000Y-89760000D03*
X103400000Y-88740000D03*
%TD*%
D33*
%TO.C,D6*%
X110550000Y-113875000D03*
X109050000Y-113875000D03*
X110550000Y-112925000D03*
X109050000Y-112925000D03*
%TD*%
D21*
%TO.C,C76*%
X101700000Y-96430000D03*
X101700000Y-95470000D03*
%TD*%
D26*
%TO.C,R16*%
X102910000Y-106300000D03*
X101890000Y-106300000D03*
%TD*%
D21*
%TO.C,C28*%
X94000000Y-102980000D03*
X94000000Y-102020000D03*
%TD*%
D49*
%TO.C,U2*%
X111050000Y-102287500D03*
X112950000Y-102287500D03*
X112000000Y-100412500D03*
%TD*%
D18*
%TO.C,C42*%
X87200000Y-99420000D03*
X87200000Y-100380000D03*
%TD*%
D13*
%TO.C,D2*%
X89450000Y-86125000D03*
X90950000Y-86125000D03*
X89450000Y-87075000D03*
X90950000Y-87075000D03*
%TD*%
D43*
%TO.C,FL1*%
X90100000Y-98000000D03*
D50*
X90450000Y-97400000D03*
D43*
X90100000Y-96800000D03*
D50*
X89750000Y-97400000D03*
%TD*%
D51*
%TO.C,U3*%
X97700000Y-105262500D03*
X97700000Y-104062500D03*
X96500000Y-105262500D03*
X96500000Y-104062500D03*
D52*
X99037500Y-105862500D03*
X99037500Y-105462500D03*
X99037500Y-105062500D03*
X99037500Y-104662500D03*
X99037500Y-104262500D03*
X99037500Y-103862500D03*
X99037500Y-103462500D03*
D53*
X98300000Y-102725000D03*
X97900000Y-102725000D03*
X97500000Y-102725000D03*
X97100000Y-102725000D03*
X96700000Y-102725000D03*
X96300000Y-102725000D03*
X95900000Y-102725000D03*
D52*
X95162500Y-103462500D03*
X95162500Y-103862500D03*
X95162500Y-104262500D03*
X95162500Y-104662500D03*
X95162500Y-105062500D03*
X95162500Y-105462500D03*
X95162500Y-105862500D03*
D53*
X95900000Y-106600000D03*
X96300000Y-106600000D03*
X96700000Y-106600000D03*
X97100000Y-106600000D03*
X97500000Y-106600000D03*
X97900000Y-106600000D03*
X98300000Y-106600000D03*
%TD*%
D19*
%TO.C,C73*%
X97030000Y-86650000D03*
X96070000Y-86650000D03*
%TD*%
D54*
%TO.C,D4*%
X86125000Y-110550000D03*
X86125000Y-109050000D03*
X87075000Y-110550000D03*
X87075000Y-109050000D03*
%TD*%
D26*
%TO.C,R7*%
X105310000Y-101250000D03*
X104290000Y-101250000D03*
%TD*%
D18*
%TO.C,C37*%
X100900000Y-106570000D03*
X100900000Y-107530000D03*
%TD*%
D17*
%TO.C,R5*%
X98940000Y-110450000D03*
X99960000Y-110450000D03*
%TD*%
D21*
%TO.C,C24*%
X104350000Y-103130000D03*
X104350000Y-102170000D03*
%TD*%
M02*
