%TF.GenerationSoftware,KiCad,Pcbnew,9.0.5*%
%TF.CreationDate,2025-10-07T19:58:40+02:00*%
%TF.ProjectId,Kolibri v0.6,4b6f6c69-6272-4692-9076-302e362e6b69,rev?*%
%TF.SameCoordinates,Original*%
%TF.FileFunction,Legend,Top*%
%TF.FilePolarity,Positive*%
%FSLAX46Y46*%
G04 Gerber Fmt 4.6, Leading zero omitted, Abs format (unit mm)*
G04 Created by KiCad (PCBNEW 9.0.5) date 2025-10-07 19:58:40*
%MOMM*%
%LPD*%
G01*
G04 APERTURE LIST*
%ADD10C,0.300000*%
%ADD11C,0.100000*%
%ADD12C,0.160000*%
%ADD13C,0.120000*%
%ADD14C,0.250000*%
%ADD15C,0.150000*%
G04 APERTURE END LIST*
D10*
X94850000Y-101050000D02*
X93150000Y-101050000D01*
X94000000Y-100200000D01*
X94850000Y-101050000D01*
G36*
X94850000Y-101050000D02*
G01*
X93150000Y-101050000D01*
X94000000Y-100200000D01*
X94850000Y-101050000D01*
G37*
D11*
G36*
X112210732Y-94254736D02*
G01*
X112047113Y-94254736D01*
X112047113Y-94367454D01*
X111979116Y-94367454D01*
X111979116Y-94186439D01*
X112240920Y-94186439D01*
X112261678Y-94213899D01*
X112278795Y-94243217D01*
X112292321Y-94274580D01*
X112305284Y-94323831D01*
X112309723Y-94377376D01*
X112305980Y-94425546D01*
X112295321Y-94467485D01*
X112278334Y-94504122D01*
X112255228Y-94536228D01*
X112225826Y-94564374D01*
X112191171Y-94587793D01*
X112151352Y-94606353D01*
X112105608Y-94620095D01*
X112052956Y-94628763D01*
X111992232Y-94631816D01*
X111931306Y-94628759D01*
X111878519Y-94620085D01*
X111832696Y-94606338D01*
X111792846Y-94587780D01*
X111758198Y-94564374D01*
X111728798Y-94536228D01*
X111705692Y-94504120D01*
X111688704Y-94467477D01*
X111678044Y-94425530D01*
X111674301Y-94377345D01*
X111678081Y-94328336D01*
X111689175Y-94282579D01*
X111707626Y-94239236D01*
X111732919Y-94199750D01*
X111822019Y-94199750D01*
X111797422Y-94226206D01*
X111777635Y-94253264D01*
X111762338Y-94281053D01*
X111751235Y-94310127D01*
X111744551Y-94340212D01*
X111742298Y-94371545D01*
X111745199Y-94409628D01*
X111753358Y-94441897D01*
X111766183Y-94469262D01*
X111783405Y-94492477D01*
X111805093Y-94512106D01*
X111837712Y-94531445D01*
X111878516Y-94546088D01*
X111929289Y-94555606D01*
X111992232Y-94559062D01*
X112054929Y-94555610D01*
X112105562Y-94546100D01*
X112146308Y-94531459D01*
X112178931Y-94512106D01*
X112200621Y-94492465D01*
X112217844Y-94469242D01*
X112230668Y-94441876D01*
X112238826Y-94409613D01*
X112241726Y-94371545D01*
X112239729Y-94336033D01*
X112234179Y-94306332D01*
X112224392Y-94278751D01*
X112210732Y-94254736D01*
G37*
G36*
X112725117Y-105286025D02*
G01*
X113047548Y-105286025D01*
X113047548Y-105356367D01*
X112794116Y-105356367D01*
X112794116Y-105536911D01*
X113036954Y-105536911D01*
X113036954Y-105607253D01*
X112794116Y-105607253D01*
X112794116Y-105827658D01*
X113053685Y-105827658D01*
X113053685Y-105898000D01*
X112725117Y-105898000D01*
X112725117Y-105286025D01*
G37*
G36*
X113185301Y-105827658D02*
G01*
X113298019Y-105827658D01*
X113298019Y-105361056D01*
X113175379Y-105391538D01*
X113175379Y-105316506D01*
X113297317Y-105286025D01*
X113366316Y-105286025D01*
X113366316Y-105827658D01*
X113479034Y-105827658D01*
X113479034Y-105898000D01*
X113185301Y-105898000D01*
X113185301Y-105827658D01*
G37*
G36*
X111511386Y-86418251D02*
G01*
X111544546Y-86431504D01*
X111571403Y-86452984D01*
X111591239Y-86481346D01*
X111603716Y-86516788D01*
X111608204Y-86561293D01*
X111603706Y-86606117D01*
X111591219Y-86641701D01*
X111571403Y-86670073D01*
X111544546Y-86691552D01*
X111511386Y-86704805D01*
X111470060Y-86709524D01*
X111429064Y-86704797D01*
X111395953Y-86691479D01*
X111368931Y-86669816D01*
X111348963Y-86641306D01*
X111336422Y-86605785D01*
X111331916Y-86561293D01*
X111336404Y-86516788D01*
X111348881Y-86481346D01*
X111368718Y-86452984D01*
X111395574Y-86431504D01*
X111428735Y-86418251D01*
X111470060Y-86413532D01*
X111511386Y-86418251D01*
G37*
G36*
X111837875Y-86433449D02*
G01*
X111866176Y-86445082D01*
X111888979Y-86463968D01*
X111905593Y-86488831D01*
X111916197Y-86520621D01*
X111920053Y-86561293D01*
X111916219Y-86601621D01*
X111905632Y-86633432D01*
X111888979Y-86658575D01*
X111866136Y-86677766D01*
X111837835Y-86689557D01*
X111802426Y-86693752D01*
X111767017Y-86689557D01*
X111738715Y-86677766D01*
X111715872Y-86658575D01*
X111699220Y-86633432D01*
X111688633Y-86601621D01*
X111684799Y-86561293D01*
X111688654Y-86520621D01*
X111699259Y-86488831D01*
X111715872Y-86463968D01*
X111738676Y-86445082D01*
X111766977Y-86433449D01*
X111802426Y-86429304D01*
X111837875Y-86433449D01*
G37*
G36*
X112074426Y-86883900D02*
G01*
X111177544Y-86883900D01*
X111177544Y-86561293D01*
X111255322Y-86561293D01*
X111259326Y-86620798D01*
X111270451Y-86669703D01*
X111287742Y-86709853D01*
X111310802Y-86742735D01*
X111340592Y-86769764D01*
X111376218Y-86789388D01*
X111418866Y-86801732D01*
X111470188Y-86806122D01*
X111514403Y-86801590D01*
X111552575Y-86788552D01*
X111585978Y-86767141D01*
X111613545Y-86738461D01*
X111634771Y-86702668D01*
X111649621Y-86658361D01*
X111663322Y-86697474D01*
X111682626Y-86729193D01*
X111707538Y-86754703D01*
X111737563Y-86773768D01*
X111771810Y-86785377D01*
X111811402Y-86789410D01*
X111853141Y-86785385D01*
X111888896Y-86773872D01*
X111919869Y-86755138D01*
X111946853Y-86728673D01*
X111967665Y-86697295D01*
X111983189Y-86659780D01*
X111993105Y-86614944D01*
X111996648Y-86561336D01*
X111993114Y-86507973D01*
X111983212Y-86463225D01*
X111967689Y-86425676D01*
X111946853Y-86394170D01*
X111919855Y-86367601D01*
X111888878Y-86348803D01*
X111853127Y-86337255D01*
X111811402Y-86333219D01*
X111771807Y-86337248D01*
X111737560Y-86348843D01*
X111707538Y-86367883D01*
X111682653Y-86393408D01*
X111663343Y-86425271D01*
X111649621Y-86464695D01*
X111634780Y-86420378D01*
X111613556Y-86384493D01*
X111585978Y-86355659D01*
X111552560Y-86334124D01*
X111514390Y-86321018D01*
X111470188Y-86316464D01*
X111418863Y-86320852D01*
X111376214Y-86333189D01*
X111340589Y-86352800D01*
X111310802Y-86379808D01*
X111287740Y-86412711D01*
X111270449Y-86452876D01*
X111259326Y-86501790D01*
X111255322Y-86561293D01*
X111177544Y-86561293D01*
X111177544Y-86238686D01*
X112074426Y-86238686D01*
X112074426Y-86883900D01*
G37*
G36*
X104118930Y-88539317D02*
G01*
X104154474Y-88548326D01*
X104182666Y-88562059D01*
X104204854Y-88579988D01*
X104223021Y-88603642D01*
X104236356Y-88632786D01*
X104244848Y-88668596D01*
X104247902Y-88712685D01*
X104245212Y-88750478D01*
X104237625Y-88782137D01*
X104225523Y-88808819D01*
X104208699Y-88831324D01*
X104187297Y-88848961D01*
X104160463Y-88861832D01*
X104181461Y-88875164D01*
X104203663Y-88900301D01*
X104223615Y-88933149D01*
X104245856Y-88981230D01*
X104315893Y-89148000D01*
X104241765Y-89148000D01*
X104176522Y-88991452D01*
X104157823Y-88951351D01*
X104141599Y-88925468D01*
X104127490Y-88910119D01*
X104110856Y-88899493D01*
X104089679Y-88892598D01*
X104062796Y-88890079D01*
X103987661Y-88890079D01*
X103987661Y-89148000D01*
X103918662Y-89148000D01*
X103918662Y-88822082D01*
X103987661Y-88822082D01*
X104074398Y-88822082D01*
X104106891Y-88818545D01*
X104131379Y-88808987D01*
X104149716Y-88794311D01*
X104163403Y-88773867D01*
X104172038Y-88747278D01*
X104175178Y-88712649D01*
X104172030Y-88678029D01*
X104163390Y-88651590D01*
X104149716Y-88631389D01*
X104131406Y-88616942D01*
X104106920Y-88607515D01*
X104074398Y-88604022D01*
X103987661Y-88604022D01*
X103987661Y-88822082D01*
X103918662Y-88822082D01*
X103918662Y-88536025D01*
X104074398Y-88536025D01*
X104118930Y-88539317D01*
G37*
G36*
X104470285Y-89077658D02*
G01*
X104711078Y-89077658D01*
X104711078Y-89148000D01*
X104387273Y-89148000D01*
X104387273Y-89077658D01*
X104494343Y-88946866D01*
X104579553Y-88841060D01*
X104609319Y-88797209D01*
X104625837Y-88765552D01*
X104635828Y-88734325D01*
X104638995Y-88704772D01*
X104635720Y-88673815D01*
X104626278Y-88647730D01*
X104610480Y-88625344D01*
X104590133Y-88608637D01*
X104565737Y-88598301D01*
X104536200Y-88594643D01*
X104503492Y-88597861D01*
X104467690Y-88608015D01*
X104431520Y-88624267D01*
X104390692Y-88648572D01*
X104390692Y-88564161D01*
X104431958Y-88546473D01*
X104468545Y-88534376D01*
X104504134Y-88526682D01*
X104534826Y-88524301D01*
X104574438Y-88527618D01*
X104608082Y-88536977D01*
X104636737Y-88551782D01*
X104661191Y-88571855D01*
X104681775Y-88597567D01*
X104696317Y-88626786D01*
X104705226Y-88660214D01*
X104708330Y-88698910D01*
X104705364Y-88735765D01*
X104696545Y-88770461D01*
X104681272Y-88804793D01*
X104653681Y-88850182D01*
X104599367Y-88918839D01*
X104470285Y-89077658D01*
G37*
G36*
X107286767Y-89927658D02*
G01*
X107399485Y-89927658D01*
X107399485Y-89461056D01*
X107276844Y-89491538D01*
X107276844Y-89416506D01*
X107398783Y-89386025D01*
X107467781Y-89386025D01*
X107467781Y-89927658D01*
X107580499Y-89927658D01*
X107580499Y-89998000D01*
X107286767Y-89998000D01*
X107286767Y-89927658D01*
G37*
G36*
X107900982Y-89377761D02*
G01*
X107930196Y-89387675D01*
X107955812Y-89403739D01*
X107978420Y-89426181D01*
X107998338Y-89455744D01*
X108016680Y-89496835D01*
X108030873Y-89548431D01*
X108040210Y-89612719D01*
X108043614Y-89692232D01*
X108040214Y-89771495D01*
X108030884Y-89835650D01*
X108016692Y-89887202D01*
X107998338Y-89928317D01*
X107978422Y-89957865D01*
X107955815Y-89980297D01*
X107930198Y-89996354D01*
X107900984Y-90006265D01*
X107867363Y-90009723D01*
X107833742Y-90006265D01*
X107804524Y-89996355D01*
X107778901Y-89980298D01*
X107756285Y-89957866D01*
X107736357Y-89928317D01*
X107718016Y-89887204D01*
X107703833Y-89835653D01*
X107694509Y-89771497D01*
X107691111Y-89692232D01*
X107760445Y-89692232D01*
X107762542Y-89757743D01*
X107768216Y-89809582D01*
X107776661Y-89850032D01*
X107787251Y-89881129D01*
X107803006Y-89909622D01*
X107821261Y-89928775D01*
X107842397Y-89940143D01*
X107867363Y-89944071D01*
X107892505Y-89940133D01*
X107913743Y-89928746D01*
X107932038Y-89909591D01*
X107947780Y-89881129D01*
X107958382Y-89850030D01*
X107966836Y-89809579D01*
X107972517Y-89757741D01*
X107974616Y-89692232D01*
X107972514Y-89626472D01*
X107966829Y-89574501D01*
X107958374Y-89534008D01*
X107947780Y-89502931D01*
X107932036Y-89474451D01*
X107913740Y-89455285D01*
X107892503Y-89443893D01*
X107867363Y-89439953D01*
X107842399Y-89443882D01*
X107821264Y-89455256D01*
X107803008Y-89474420D01*
X107787251Y-89502931D01*
X107776669Y-89534006D01*
X107768224Y-89574498D01*
X107762545Y-89626470D01*
X107760445Y-89692232D01*
X107691111Y-89692232D01*
X107694513Y-89612717D01*
X107703844Y-89548428D01*
X107718028Y-89496833D01*
X107736357Y-89455744D01*
X107756286Y-89426180D01*
X107778903Y-89403738D01*
X107804526Y-89387674D01*
X107833743Y-89377760D01*
X107867363Y-89374301D01*
X107900982Y-89377761D01*
G37*
G36*
X112167193Y-96364338D02*
G01*
X112200778Y-96373237D01*
X112229260Y-96387578D01*
X112253486Y-96407667D01*
X112271877Y-96431545D01*
X112285775Y-96460772D01*
X112294759Y-96496433D01*
X112298000Y-96539833D01*
X112298000Y-96722893D01*
X111686025Y-96722893D01*
X111686025Y-96551770D01*
X111754022Y-96551770D01*
X111754022Y-96653894D01*
X111939256Y-96653894D01*
X111939256Y-96551770D01*
X111938486Y-96543252D01*
X112007253Y-96543252D01*
X112007253Y-96653894D01*
X112230002Y-96653894D01*
X112230002Y-96543252D01*
X112226403Y-96506725D01*
X112216845Y-96480013D01*
X112202525Y-96460759D01*
X112182042Y-96446400D01*
X112154734Y-96437291D01*
X112118408Y-96433953D01*
X112081817Y-96437309D01*
X112054556Y-96446430D01*
X112034327Y-96460759D01*
X112020232Y-96479984D01*
X112010806Y-96506694D01*
X112007253Y-96543252D01*
X111938486Y-96543252D01*
X111936245Y-96518449D01*
X111928273Y-96494043D01*
X111916431Y-96476452D01*
X111899170Y-96463050D01*
X111876491Y-96454713D01*
X111846639Y-96451692D01*
X111817053Y-96454701D01*
X111794426Y-96463027D01*
X111777066Y-96476452D01*
X111765102Y-96494058D01*
X111757058Y-96518466D01*
X111754022Y-96551770D01*
X111686025Y-96551770D01*
X111686025Y-96546672D01*
X111688914Y-96506630D01*
X111696912Y-96473787D01*
X111709252Y-96446936D01*
X111725519Y-96425069D01*
X111747111Y-96406543D01*
X111772465Y-96393374D01*
X111802328Y-96385227D01*
X111837846Y-96382357D01*
X111874598Y-96385052D01*
X111904001Y-96392512D01*
X111927569Y-96404217D01*
X111946513Y-96420530D01*
X111960402Y-96441568D01*
X111969114Y-96468453D01*
X111981449Y-96436170D01*
X111999642Y-96410168D01*
X112023666Y-96389379D01*
X112052934Y-96373987D01*
X112087042Y-96364519D01*
X112127237Y-96361200D01*
X112167193Y-96364338D01*
G37*
G36*
X112298000Y-96009093D02*
G01*
X112227658Y-96009093D01*
X112253799Y-96025020D01*
X112274271Y-96042854D01*
X112289720Y-96062735D01*
X112300470Y-96084733D01*
X112307297Y-96110666D01*
X112309723Y-96141289D01*
X112306998Y-96170437D01*
X112299281Y-96195249D01*
X112286973Y-96216482D01*
X112270083Y-96234712D01*
X112248983Y-96249636D01*
X112224697Y-96260366D01*
X112196602Y-96267027D01*
X112163837Y-96269364D01*
X112125741Y-96266395D01*
X112094349Y-96258050D01*
X112068307Y-96244718D01*
X112046710Y-96226164D01*
X112030696Y-96204114D01*
X112018347Y-96176171D01*
X112010223Y-96141044D01*
X112007253Y-96097204D01*
X112007253Y-96071589D01*
X112065871Y-96071589D01*
X112068931Y-96122890D01*
X112076560Y-96156414D01*
X112086900Y-96177132D01*
X112098907Y-96189699D01*
X112114310Y-96198726D01*
X112133830Y-96204437D01*
X112158635Y-96206502D01*
X112184372Y-96203912D01*
X112205364Y-96196564D01*
X112222712Y-96184490D01*
X112235480Y-96168715D01*
X112243523Y-96149081D01*
X112246415Y-96124528D01*
X112243478Y-96099112D01*
X112235035Y-96077083D01*
X112221235Y-96057762D01*
X112201682Y-96040692D01*
X112178446Y-96027313D01*
X112151385Y-96017480D01*
X112119787Y-96011284D01*
X112082760Y-96009093D01*
X112065871Y-96009093D01*
X112065871Y-96071589D01*
X112007253Y-96071589D01*
X112007253Y-96009093D01*
X111999779Y-96009093D01*
X111966442Y-96012489D01*
X111939954Y-96022032D01*
X111918703Y-96037608D01*
X111903439Y-96057932D01*
X111893608Y-96084095D01*
X111890016Y-96117720D01*
X111892374Y-96150170D01*
X111899395Y-96181590D01*
X111911086Y-96212004D01*
X111927532Y-96241368D01*
X111857190Y-96241368D01*
X111843701Y-96206931D01*
X111834329Y-96174415D01*
X111828579Y-96142110D01*
X111826709Y-96111248D01*
X111830452Y-96069603D01*
X111840794Y-96036016D01*
X111856847Y-96008962D01*
X111878366Y-95987264D01*
X111905372Y-95970362D01*
X111939369Y-95957588D01*
X111981912Y-95949283D01*
X112034950Y-95946262D01*
X112298000Y-95946262D01*
X112298000Y-96009093D01*
G37*
G36*
X111707127Y-95754409D02*
G01*
X111838432Y-95754409D01*
X111838432Y-95624960D01*
X111897050Y-95624960D01*
X111897050Y-95754409D01*
X112146471Y-95754409D01*
X112184260Y-95752455D01*
X112206593Y-95747768D01*
X112218682Y-95741617D01*
X112226621Y-95731954D01*
X112232369Y-95715594D01*
X112234692Y-95689501D01*
X112234692Y-95624960D01*
X112298000Y-95624960D01*
X112298000Y-95689501D01*
X112295362Y-95727217D01*
X112288388Y-95755179D01*
X112278181Y-95775502D01*
X112265356Y-95789916D01*
X112248265Y-95800813D01*
X112224193Y-95809455D01*
X112191099Y-95815349D01*
X112146471Y-95817576D01*
X111897050Y-95817576D01*
X111897050Y-95863707D01*
X111838432Y-95863707D01*
X111838432Y-95817576D01*
X111707127Y-95817576D01*
X111707127Y-95754409D01*
G37*
G36*
X101937679Y-110086025D02*
G01*
X102260110Y-110086025D01*
X102260110Y-110156367D01*
X102006678Y-110156367D01*
X102006678Y-110336911D01*
X102249516Y-110336911D01*
X102249516Y-110407253D01*
X102006678Y-110407253D01*
X102006678Y-110627658D01*
X102266247Y-110627658D01*
X102266247Y-110698000D01*
X101937679Y-110698000D01*
X101937679Y-110086025D01*
G37*
G36*
X102379759Y-110086025D02*
G01*
X102448757Y-110086025D01*
X102448757Y-110627658D01*
X102697061Y-110627658D01*
X102697061Y-110698000D01*
X102379759Y-110698000D01*
X102379759Y-110086025D01*
G37*
G36*
X102969838Y-110089317D02*
G01*
X103005382Y-110098326D01*
X103033574Y-110112059D01*
X103055762Y-110129988D01*
X103073929Y-110153642D01*
X103087264Y-110182786D01*
X103095756Y-110218596D01*
X103098810Y-110262685D01*
X103096120Y-110300478D01*
X103088533Y-110332137D01*
X103076431Y-110358819D01*
X103059607Y-110381324D01*
X103038205Y-110398961D01*
X103011371Y-110411832D01*
X103032369Y-110425164D01*
X103054571Y-110450301D01*
X103074523Y-110483149D01*
X103096764Y-110531230D01*
X103166801Y-110698000D01*
X103092673Y-110698000D01*
X103027430Y-110541452D01*
X103008731Y-110501351D01*
X102992507Y-110475468D01*
X102978398Y-110460119D01*
X102961765Y-110449493D01*
X102940587Y-110442598D01*
X102913704Y-110440079D01*
X102838569Y-110440079D01*
X102838569Y-110698000D01*
X102769570Y-110698000D01*
X102769570Y-110372082D01*
X102838569Y-110372082D01*
X102925306Y-110372082D01*
X102957799Y-110368545D01*
X102982287Y-110358987D01*
X103000624Y-110344311D01*
X103014311Y-110323867D01*
X103022947Y-110297278D01*
X103026086Y-110262649D01*
X103022938Y-110228029D01*
X103014298Y-110201590D01*
X103000624Y-110181389D01*
X102982314Y-110166942D01*
X102957828Y-110157515D01*
X102925306Y-110154022D01*
X102838569Y-110154022D01*
X102838569Y-110372082D01*
X102769570Y-110372082D01*
X102769570Y-110086025D01*
X102925306Y-110086025D01*
X102969838Y-110089317D01*
G37*
G36*
X103561314Y-110104782D02*
G01*
X103561314Y-110184503D01*
X103522248Y-110165550D01*
X103487186Y-110152776D01*
X103452526Y-110144853D01*
X103419898Y-110142298D01*
X103382811Y-110145639D01*
X103354452Y-110154654D01*
X103332947Y-110168310D01*
X103316006Y-110188028D01*
X103305920Y-110212199D01*
X103302386Y-110242279D01*
X103304869Y-110267986D01*
X103311731Y-110287762D01*
X103322719Y-110303022D01*
X103337480Y-110314203D01*
X103361925Y-110325426D01*
X103399747Y-110336142D01*
X103441421Y-110346436D01*
X103480353Y-110358035D01*
X103511506Y-110372565D01*
X103536139Y-110389559D01*
X103555300Y-110408792D01*
X103571027Y-110432352D01*
X103582418Y-110459608D01*
X103589526Y-110491272D01*
X103592028Y-110528300D01*
X103588622Y-110572080D01*
X103579034Y-110608308D01*
X103563693Y-110638499D01*
X103542324Y-110663671D01*
X103516904Y-110682483D01*
X103485101Y-110696884D01*
X103445559Y-110706298D01*
X103396664Y-110709723D01*
X103359992Y-110707294D01*
X103319636Y-110699648D01*
X103278707Y-110687381D01*
X103235097Y-110669863D01*
X103235097Y-110585452D01*
X103277376Y-110610290D01*
X103317407Y-110627548D01*
X103357756Y-110638247D01*
X103396664Y-110641726D01*
X103435518Y-110638153D01*
X103465263Y-110628502D01*
X103487858Y-110613846D01*
X103501886Y-110598437D01*
X103511769Y-110580430D01*
X103517844Y-110559316D01*
X103519976Y-110534271D01*
X103517214Y-110505385D01*
X103509469Y-110482308D01*
X103496926Y-110463710D01*
X103480277Y-110449491D01*
X103455834Y-110436586D01*
X103421271Y-110425571D01*
X103379262Y-110415679D01*
X103339846Y-110403901D01*
X103309033Y-110390083D01*
X103285355Y-110374686D01*
X103267551Y-110357977D01*
X103252837Y-110337088D01*
X103242143Y-110312451D01*
X103235430Y-110283321D01*
X103233052Y-110248690D01*
X103236218Y-110209182D01*
X103245264Y-110175431D01*
X103259966Y-110146283D01*
X103280710Y-110120976D01*
X103305318Y-110101476D01*
X103334756Y-110086924D01*
X103369954Y-110077625D01*
X103412051Y-110074301D01*
X103448011Y-110076182D01*
X103485141Y-110081921D01*
X103522425Y-110091332D01*
X103561314Y-110104782D01*
G37*
G36*
X92961737Y-111086025D02*
G01*
X93393131Y-111086025D01*
X93393131Y-111156367D01*
X93212086Y-111156367D01*
X93212086Y-111698000D01*
X93142751Y-111698000D01*
X93142751Y-111156367D01*
X92961737Y-111156367D01*
X92961737Y-111086025D01*
G37*
G36*
X93647180Y-111077761D02*
G01*
X93676393Y-111087675D01*
X93702010Y-111103739D01*
X93724618Y-111126181D01*
X93744535Y-111155744D01*
X93762878Y-111196835D01*
X93777071Y-111248431D01*
X93786407Y-111312719D01*
X93789812Y-111392232D01*
X93786411Y-111471495D01*
X93777082Y-111535650D01*
X93762889Y-111587202D01*
X93744535Y-111628317D01*
X93724619Y-111657865D01*
X93702012Y-111680297D01*
X93676396Y-111696354D01*
X93647181Y-111706265D01*
X93613560Y-111709723D01*
X93579939Y-111706265D01*
X93550721Y-111696355D01*
X93525098Y-111680298D01*
X93502482Y-111657866D01*
X93482554Y-111628317D01*
X93464214Y-111587204D01*
X93450031Y-111535653D01*
X93440707Y-111471497D01*
X93437308Y-111392232D01*
X93506643Y-111392232D01*
X93508740Y-111457743D01*
X93514414Y-111509582D01*
X93522859Y-111550032D01*
X93533448Y-111581129D01*
X93549203Y-111609622D01*
X93567459Y-111628775D01*
X93588594Y-111640143D01*
X93613560Y-111644071D01*
X93638703Y-111640133D01*
X93659940Y-111628746D01*
X93678236Y-111609591D01*
X93693977Y-111581129D01*
X93704579Y-111550030D01*
X93713034Y-111509579D01*
X93718714Y-111457741D01*
X93720813Y-111392232D01*
X93718711Y-111326472D01*
X93713026Y-111274501D01*
X93704571Y-111234008D01*
X93693977Y-111202931D01*
X93678234Y-111174451D01*
X93659937Y-111155285D01*
X93638701Y-111143893D01*
X93613560Y-111139953D01*
X93588596Y-111143882D01*
X93567462Y-111155256D01*
X93549205Y-111174420D01*
X93533448Y-111202931D01*
X93522867Y-111234006D01*
X93514421Y-111274498D01*
X93508742Y-111326470D01*
X93506643Y-111392232D01*
X93437308Y-111392232D01*
X93440711Y-111312717D01*
X93450041Y-111248428D01*
X93464225Y-111196833D01*
X93482554Y-111155744D01*
X93502484Y-111126180D01*
X93525101Y-111103738D01*
X93550724Y-111087674D01*
X93579941Y-111077760D01*
X93613560Y-111074301D01*
X93647180Y-111077761D01*
G37*
G36*
X106645263Y-112210732D02*
G01*
X106645263Y-112047113D01*
X106532545Y-112047113D01*
X106532545Y-111979116D01*
X106713560Y-111979116D01*
X106713560Y-112240920D01*
X106686100Y-112261678D01*
X106656782Y-112278795D01*
X106625419Y-112292321D01*
X106576168Y-112305284D01*
X106522623Y-112309723D01*
X106474453Y-112305980D01*
X106432514Y-112295321D01*
X106395877Y-112278334D01*
X106363771Y-112255228D01*
X106335625Y-112225826D01*
X106312206Y-112191171D01*
X106293646Y-112151352D01*
X106279904Y-112105608D01*
X106271236Y-112052956D01*
X106268183Y-111992232D01*
X106271240Y-111931306D01*
X106279914Y-111878519D01*
X106293661Y-111832696D01*
X106312219Y-111792846D01*
X106335625Y-111758198D01*
X106363771Y-111728798D01*
X106395879Y-111705692D01*
X106432522Y-111688704D01*
X106474469Y-111678044D01*
X106522654Y-111674301D01*
X106571663Y-111678081D01*
X106617420Y-111689175D01*
X106660763Y-111707626D01*
X106700249Y-111732919D01*
X106700249Y-111822019D01*
X106673793Y-111797422D01*
X106646735Y-111777635D01*
X106618946Y-111762338D01*
X106589872Y-111751235D01*
X106559787Y-111744551D01*
X106528454Y-111742298D01*
X106490371Y-111745199D01*
X106458102Y-111753358D01*
X106430737Y-111766183D01*
X106407522Y-111783405D01*
X106387893Y-111805093D01*
X106368554Y-111837712D01*
X106353911Y-111878516D01*
X106344393Y-111929289D01*
X106340937Y-111992232D01*
X106344389Y-112054929D01*
X106353899Y-112105562D01*
X106368540Y-112146308D01*
X106387893Y-112178931D01*
X106407534Y-112200621D01*
X106430757Y-112217844D01*
X106458123Y-112230668D01*
X106490386Y-112238826D01*
X106528454Y-112241726D01*
X106563966Y-112239729D01*
X106593667Y-112234179D01*
X106621248Y-112224392D01*
X106645263Y-112210732D01*
G37*
G36*
X87661737Y-103486025D02*
G01*
X88093131Y-103486025D01*
X88093131Y-103556367D01*
X87912086Y-103556367D01*
X87912086Y-104098000D01*
X87842751Y-104098000D01*
X87842751Y-103556367D01*
X87661737Y-103556367D01*
X87661737Y-103486025D01*
G37*
G36*
X88177975Y-104027658D02*
G01*
X88290693Y-104027658D01*
X88290693Y-103561056D01*
X88168052Y-103591538D01*
X88168052Y-103516506D01*
X88289991Y-103486025D01*
X88358989Y-103486025D01*
X88358989Y-104027658D01*
X88471707Y-104027658D01*
X88471707Y-104098000D01*
X88177975Y-104098000D01*
X88177975Y-104027658D01*
G37*
G36*
X87074426Y-111822445D02*
G01*
X86177544Y-111822445D01*
X86177544Y-111465388D01*
X86255322Y-111465388D01*
X86259531Y-111533182D01*
X86271202Y-111588912D01*
X86289258Y-111634610D01*
X86313153Y-111671962D01*
X86344624Y-111703433D01*
X86381541Y-111725866D01*
X86424990Y-111739769D01*
X86476600Y-111744667D01*
X86521089Y-111740114D01*
X86559196Y-111727059D01*
X86592261Y-111705686D01*
X86619415Y-111677028D01*
X86639985Y-111641394D01*
X86653938Y-111597377D01*
X86667872Y-111637223D01*
X86686847Y-111668960D01*
X86710743Y-111693932D01*
X86739674Y-111712596D01*
X86772769Y-111723961D01*
X86811145Y-111727912D01*
X86852464Y-111723725D01*
X86888084Y-111711690D01*
X86919195Y-111691962D01*
X86946554Y-111663841D01*
X86967498Y-111630867D01*
X86983123Y-111591686D01*
X86993092Y-111545133D01*
X86996648Y-111489794D01*
X86994831Y-111446634D01*
X86989125Y-111399180D01*
X86979959Y-111350481D01*
X86966557Y-111296127D01*
X86881756Y-111296127D01*
X86896731Y-111349757D01*
X86906589Y-111396059D01*
X86912661Y-111440885D01*
X86914582Y-111481160D01*
X86910815Y-111528857D01*
X86900643Y-111565248D01*
X86885175Y-111592803D01*
X86863053Y-111614234D01*
X86835492Y-111627196D01*
X86800759Y-111631784D01*
X86766936Y-111627329D01*
X86740163Y-111614758D01*
X86718736Y-111594000D01*
X86703794Y-111567309D01*
X86693932Y-111531810D01*
X86690270Y-111485006D01*
X86690270Y-111397983D01*
X86610939Y-111397983D01*
X86610939Y-111481160D01*
X86606491Y-111532667D01*
X86594308Y-111572912D01*
X86575420Y-111604301D01*
X86556129Y-111623528D01*
X86533760Y-111637173D01*
X86507701Y-111645587D01*
X86477027Y-111648539D01*
X86443744Y-111645318D01*
X86416021Y-111636209D01*
X86392725Y-111621544D01*
X86373120Y-111600967D01*
X86354404Y-111567322D01*
X86342006Y-111522264D01*
X86337387Y-111462524D01*
X86340356Y-111411111D01*
X86349099Y-111362549D01*
X86363802Y-111316342D01*
X86383891Y-111274585D01*
X86290884Y-111274585D01*
X86275149Y-111325149D01*
X86264212Y-111372850D01*
X86257505Y-111420188D01*
X86255322Y-111465388D01*
X86177544Y-111465388D01*
X86177544Y-111196807D01*
X87074426Y-111196807D01*
X87074426Y-111822445D01*
G37*
G36*
X88698853Y-113470107D02*
G01*
X88317932Y-113470107D01*
X88317932Y-113226261D01*
X88698853Y-113470107D01*
G37*
G36*
X88860748Y-113745868D02*
G01*
X87991222Y-113745868D01*
X87991222Y-113470107D01*
X88069000Y-113470107D01*
X88069000Y-113566235D01*
X88238602Y-113566235D01*
X88238602Y-113668090D01*
X88317932Y-113668090D01*
X88317932Y-113566235D01*
X88782970Y-113566235D01*
X88782970Y-113444760D01*
X88331652Y-113147828D01*
X88238602Y-113147828D01*
X88238602Y-113470107D01*
X88069000Y-113470107D01*
X87991222Y-113470107D01*
X87991222Y-113070050D01*
X88860748Y-113070050D01*
X88860748Y-113745868D01*
G37*
G36*
X87845263Y-93410732D02*
G01*
X87845263Y-93247113D01*
X87732545Y-93247113D01*
X87732545Y-93179116D01*
X87913560Y-93179116D01*
X87913560Y-93440920D01*
X87886100Y-93461678D01*
X87856782Y-93478795D01*
X87825419Y-93492321D01*
X87776168Y-93505284D01*
X87722623Y-93509723D01*
X87674453Y-93505980D01*
X87632514Y-93495321D01*
X87595877Y-93478334D01*
X87563771Y-93455228D01*
X87535625Y-93425826D01*
X87512206Y-93391171D01*
X87493646Y-93351352D01*
X87479904Y-93305608D01*
X87471236Y-93252956D01*
X87468183Y-93192232D01*
X87471240Y-93131306D01*
X87479914Y-93078519D01*
X87493661Y-93032696D01*
X87512219Y-92992846D01*
X87535625Y-92958198D01*
X87563771Y-92928798D01*
X87595879Y-92905692D01*
X87632522Y-92888704D01*
X87674469Y-92878044D01*
X87722654Y-92874301D01*
X87771663Y-92878081D01*
X87817420Y-92889175D01*
X87860763Y-92907626D01*
X87900249Y-92932919D01*
X87900249Y-93022019D01*
X87873793Y-92997422D01*
X87846735Y-92977635D01*
X87818946Y-92962338D01*
X87789872Y-92951235D01*
X87759787Y-92944551D01*
X87728454Y-92942298D01*
X87690371Y-92945199D01*
X87658102Y-92953358D01*
X87630737Y-92966183D01*
X87607522Y-92983405D01*
X87587893Y-93005093D01*
X87568554Y-93037712D01*
X87553911Y-93078516D01*
X87544393Y-93129289D01*
X87540937Y-93192232D01*
X87544389Y-93254929D01*
X87553899Y-93305562D01*
X87568540Y-93346308D01*
X87587893Y-93378931D01*
X87607534Y-93400621D01*
X87630757Y-93417844D01*
X87658123Y-93430668D01*
X87690386Y-93438826D01*
X87728454Y-93441726D01*
X87763966Y-93439729D01*
X87793667Y-93434179D01*
X87821248Y-93424392D01*
X87845263Y-93410732D01*
G37*
G36*
X113349252Y-111536854D02*
G01*
X113389255Y-111549807D01*
X113421027Y-111570166D01*
X113440408Y-111590687D01*
X113454187Y-111614257D01*
X113462678Y-111641484D01*
X113465650Y-111673261D01*
X113462678Y-111705015D01*
X113454188Y-111732220D01*
X113440409Y-111755770D01*
X113421027Y-111776270D01*
X113389251Y-111796654D01*
X113349248Y-111809620D01*
X113298783Y-111814311D01*
X113248635Y-111809636D01*
X113208679Y-111796682D01*
X113176753Y-111776270D01*
X113157268Y-111755757D01*
X113143425Y-111732202D01*
X113134900Y-111705001D01*
X113131916Y-111673261D01*
X113134900Y-111641498D01*
X113143426Y-111614276D01*
X113157269Y-111590700D01*
X113176753Y-111570166D01*
X113208676Y-111549779D01*
X113248632Y-111536839D01*
X113298783Y-111532168D01*
X113349252Y-111536854D01*
G37*
G36*
X113874426Y-111989157D02*
G01*
X112977544Y-111989157D01*
X112977544Y-111673261D01*
X113055322Y-111673261D01*
X113059815Y-111726491D01*
X113072623Y-111772230D01*
X113093252Y-111811842D01*
X113121915Y-111846325D01*
X113157063Y-111874221D01*
X113197521Y-111894397D01*
X113244307Y-111906964D01*
X113298783Y-111911379D01*
X113354753Y-111907064D01*
X113402139Y-111894873D01*
X113442440Y-111875493D01*
X113476806Y-111848975D01*
X113504860Y-111815809D01*
X113525134Y-111777200D01*
X113537785Y-111732080D01*
X113542244Y-111678989D01*
X113539708Y-111645436D01*
X113532266Y-111614342D01*
X113519976Y-111585254D01*
X113503082Y-111558629D01*
X113481908Y-111535128D01*
X113456076Y-111514515D01*
X113522511Y-111521722D01*
X113575559Y-111534331D01*
X113617504Y-111551340D01*
X113650297Y-111572132D01*
X113677987Y-111599622D01*
X113697829Y-111632346D01*
X113710200Y-111671358D01*
X113714582Y-111718226D01*
X113712500Y-111754540D01*
X113706162Y-111791615D01*
X113695914Y-111828299D01*
X113681756Y-111865004D01*
X113769293Y-111865004D01*
X113781417Y-111825014D01*
X113789809Y-111787768D01*
X113794953Y-111750731D01*
X113796648Y-111714379D01*
X113792401Y-111661126D01*
X113780143Y-111613839D01*
X113760205Y-111571484D01*
X113732371Y-111533268D01*
X113695904Y-111498701D01*
X113655002Y-111471001D01*
X113608420Y-111448869D01*
X113555355Y-111432416D01*
X113494830Y-111422036D01*
X113425728Y-111418387D01*
X113350363Y-111421567D01*
X113286611Y-111430446D01*
X113232918Y-111444176D01*
X113187885Y-111462118D01*
X113150296Y-111483869D01*
X113115977Y-111512543D01*
X113089814Y-111545155D01*
X113071017Y-111582193D01*
X113059386Y-111624509D01*
X113055322Y-111673261D01*
X112977544Y-111673261D01*
X112977544Y-111340609D01*
X113874426Y-111340609D01*
X113874426Y-111989157D01*
G37*
G36*
X87074426Y-88802826D02*
G01*
X86191222Y-88802826D01*
X86191222Y-88725048D01*
X86269000Y-88725048D01*
X86351065Y-88725048D01*
X86351065Y-88387938D01*
X86536354Y-88568654D01*
X86616453Y-88644692D01*
X86669407Y-88683320D01*
X86709461Y-88704703D01*
X86749939Y-88717050D01*
X86792937Y-88721202D01*
X86838083Y-88716856D01*
X86877082Y-88704384D01*
X86911170Y-88684025D01*
X86941168Y-88655207D01*
X86964586Y-88620972D01*
X86981859Y-88580854D01*
X86992778Y-88533753D01*
X86996648Y-88478296D01*
X86993869Y-88435328D01*
X86984894Y-88385502D01*
X86970780Y-88334280D01*
X86950144Y-88276509D01*
X86851665Y-88276509D01*
X86880021Y-88333668D01*
X86898981Y-88384305D01*
X86910828Y-88434429D01*
X86914582Y-88480219D01*
X86910315Y-88521572D01*
X86898255Y-88555726D01*
X86878764Y-88584212D01*
X86852648Y-88606329D01*
X86822215Y-88619548D01*
X86786098Y-88624133D01*
X86751619Y-88619699D01*
X86715188Y-88605711D01*
X86678255Y-88582586D01*
X86627096Y-88540914D01*
X86503656Y-88421619D01*
X86351065Y-88271721D01*
X86269000Y-88271721D01*
X86269000Y-88725048D01*
X86191222Y-88725048D01*
X86191222Y-88193943D01*
X87074426Y-88193943D01*
X87074426Y-88802826D01*
G37*
G36*
X112227658Y-92958242D02*
G01*
X112227658Y-92845524D01*
X111761056Y-92845524D01*
X111791538Y-92968165D01*
X111716506Y-92968165D01*
X111686025Y-92846226D01*
X111686025Y-92777228D01*
X112227658Y-92777228D01*
X112227658Y-92664510D01*
X112298000Y-92664510D01*
X112298000Y-92958242D01*
X112227658Y-92958242D01*
G37*
G36*
X112071495Y-92204795D02*
G01*
X112135650Y-92214125D01*
X112187202Y-92228317D01*
X112228317Y-92246671D01*
X112257865Y-92266587D01*
X112280297Y-92289194D01*
X112296354Y-92314811D01*
X112306265Y-92344025D01*
X112309723Y-92377646D01*
X112306265Y-92411267D01*
X112296355Y-92440485D01*
X112280298Y-92466108D01*
X112257866Y-92488724D01*
X112228317Y-92508652D01*
X112187204Y-92526993D01*
X112135653Y-92541176D01*
X112071497Y-92550500D01*
X111992232Y-92553898D01*
X111912717Y-92550496D01*
X111848428Y-92541165D01*
X111796833Y-92526981D01*
X111755744Y-92508652D01*
X111726180Y-92488723D01*
X111703738Y-92466106D01*
X111687674Y-92440483D01*
X111677760Y-92411266D01*
X111674301Y-92377646D01*
X111739953Y-92377646D01*
X111743882Y-92402610D01*
X111755256Y-92423745D01*
X111774420Y-92442001D01*
X111802931Y-92457758D01*
X111834006Y-92468340D01*
X111874498Y-92476785D01*
X111926470Y-92482464D01*
X111992232Y-92484564D01*
X112057743Y-92482467D01*
X112109582Y-92476793D01*
X112150032Y-92468348D01*
X112181129Y-92457758D01*
X112209622Y-92442003D01*
X112228775Y-92423748D01*
X112240143Y-92402612D01*
X112244071Y-92377646D01*
X112240133Y-92352504D01*
X112228746Y-92331266D01*
X112209591Y-92312971D01*
X112181129Y-92297229D01*
X112150030Y-92286627D01*
X112109579Y-92278173D01*
X112057741Y-92272492D01*
X111992232Y-92270393D01*
X111926472Y-92272495D01*
X111874501Y-92278180D01*
X111834008Y-92286635D01*
X111802931Y-92297229D01*
X111774451Y-92312973D01*
X111755285Y-92331269D01*
X111743893Y-92352506D01*
X111739953Y-92377646D01*
X111674301Y-92377646D01*
X111677761Y-92344027D01*
X111687675Y-92314813D01*
X111703739Y-92289197D01*
X111726181Y-92266589D01*
X111755744Y-92246671D01*
X111796835Y-92228329D01*
X111848431Y-92214136D01*
X111912719Y-92204799D01*
X111992232Y-92201395D01*
X112071495Y-92204795D01*
G37*
G36*
X91693369Y-91338914D02*
G01*
X91726212Y-91346912D01*
X91753063Y-91359252D01*
X91774930Y-91375519D01*
X91793456Y-91397111D01*
X91806625Y-91422465D01*
X91814772Y-91452328D01*
X91817642Y-91487846D01*
X91814947Y-91524598D01*
X91807487Y-91554001D01*
X91795782Y-91577569D01*
X91779469Y-91596513D01*
X91758431Y-91610402D01*
X91731546Y-91619114D01*
X91763829Y-91631449D01*
X91789831Y-91649642D01*
X91810620Y-91673666D01*
X91826012Y-91702934D01*
X91835480Y-91737042D01*
X91838799Y-91777237D01*
X91835661Y-91817193D01*
X91826762Y-91850778D01*
X91812421Y-91879260D01*
X91792332Y-91903486D01*
X91768454Y-91921877D01*
X91739227Y-91935775D01*
X91703566Y-91944759D01*
X91660166Y-91948000D01*
X91477106Y-91948000D01*
X91477106Y-91880002D01*
X91546105Y-91880002D01*
X91656747Y-91880002D01*
X91693274Y-91876403D01*
X91719986Y-91866845D01*
X91739240Y-91852525D01*
X91753599Y-91832042D01*
X91762708Y-91804734D01*
X91766046Y-91768408D01*
X91762690Y-91731817D01*
X91753569Y-91704556D01*
X91739240Y-91684327D01*
X91720015Y-91670232D01*
X91693305Y-91660806D01*
X91656747Y-91657253D01*
X91546105Y-91657253D01*
X91546105Y-91880002D01*
X91477106Y-91880002D01*
X91477106Y-91589256D01*
X91546105Y-91589256D01*
X91648229Y-91589256D01*
X91681550Y-91586245D01*
X91705956Y-91578273D01*
X91723547Y-91566431D01*
X91736949Y-91549170D01*
X91745286Y-91526491D01*
X91748307Y-91496639D01*
X91745298Y-91467053D01*
X91736972Y-91444426D01*
X91723547Y-91427066D01*
X91705941Y-91415102D01*
X91681533Y-91407058D01*
X91648229Y-91404022D01*
X91546105Y-91404022D01*
X91546105Y-91589256D01*
X91477106Y-91589256D01*
X91477106Y-91336025D01*
X91653327Y-91336025D01*
X91693369Y-91338914D01*
G37*
G36*
X92130396Y-91480452D02*
G01*
X92163983Y-91490794D01*
X92191037Y-91506847D01*
X92212735Y-91528366D01*
X92229637Y-91555372D01*
X92242411Y-91589369D01*
X92250716Y-91631912D01*
X92253737Y-91684950D01*
X92253737Y-91948000D01*
X92190906Y-91948000D01*
X92190906Y-91877658D01*
X92174979Y-91903799D01*
X92157145Y-91924271D01*
X92137264Y-91939720D01*
X92115266Y-91950470D01*
X92089333Y-91957297D01*
X92058710Y-91959723D01*
X92029562Y-91956998D01*
X92004750Y-91949281D01*
X91983517Y-91936973D01*
X91965287Y-91920083D01*
X91950363Y-91898983D01*
X91939633Y-91874697D01*
X91932972Y-91846602D01*
X91930635Y-91813837D01*
X91931040Y-91808635D01*
X91993497Y-91808635D01*
X91996087Y-91834372D01*
X92003435Y-91855364D01*
X92015509Y-91872712D01*
X92031284Y-91885480D01*
X92050918Y-91893523D01*
X92075471Y-91896415D01*
X92100887Y-91893478D01*
X92122916Y-91885035D01*
X92142237Y-91871235D01*
X92159307Y-91851682D01*
X92172686Y-91828446D01*
X92182519Y-91801385D01*
X92188715Y-91769787D01*
X92190906Y-91732760D01*
X92190906Y-91715871D01*
X92128410Y-91715871D01*
X92077109Y-91718931D01*
X92043585Y-91726560D01*
X92022867Y-91736900D01*
X92010300Y-91748907D01*
X92001273Y-91764310D01*
X91995562Y-91783830D01*
X91993497Y-91808635D01*
X91931040Y-91808635D01*
X91933604Y-91775741D01*
X91941949Y-91744349D01*
X91955281Y-91718307D01*
X91973835Y-91696710D01*
X91995885Y-91680696D01*
X92023828Y-91668347D01*
X92058955Y-91660223D01*
X92102795Y-91657253D01*
X92190906Y-91657253D01*
X92190906Y-91649779D01*
X92187510Y-91616442D01*
X92177967Y-91589954D01*
X92162391Y-91568703D01*
X92142067Y-91553439D01*
X92115904Y-91543608D01*
X92082279Y-91540016D01*
X92049829Y-91542374D01*
X92018409Y-91549395D01*
X91987995Y-91561086D01*
X91958631Y-91577532D01*
X91958631Y-91507190D01*
X91993068Y-91493701D01*
X92025584Y-91484329D01*
X92057889Y-91478579D01*
X92088751Y-91476709D01*
X92130396Y-91480452D01*
G37*
G36*
X92445590Y-91357127D02*
G01*
X92445590Y-91488432D01*
X92575039Y-91488432D01*
X92575039Y-91547050D01*
X92445590Y-91547050D01*
X92445590Y-91796471D01*
X92447544Y-91834260D01*
X92452231Y-91856593D01*
X92458382Y-91868682D01*
X92468045Y-91876621D01*
X92484405Y-91882369D01*
X92510498Y-91884692D01*
X92575039Y-91884692D01*
X92575039Y-91948000D01*
X92510498Y-91948000D01*
X92472782Y-91945362D01*
X92444820Y-91938388D01*
X92424497Y-91928181D01*
X92410083Y-91915356D01*
X92399186Y-91898265D01*
X92390544Y-91874193D01*
X92384650Y-91841099D01*
X92382423Y-91796471D01*
X92382423Y-91547050D01*
X92336292Y-91547050D01*
X92336292Y-91488432D01*
X92382423Y-91488432D01*
X92382423Y-91357127D01*
X92445590Y-91357127D01*
G37*
G36*
X112110748Y-113815264D02*
G01*
X111227544Y-113815264D01*
X111227544Y-113463507D01*
X111305322Y-113463507D01*
X111309886Y-113529038D01*
X111322625Y-113583366D01*
X111342550Y-113628425D01*
X111369307Y-113665765D01*
X111403576Y-113696479D01*
X111444008Y-113718679D01*
X111491837Y-113732570D01*
X111548783Y-113737486D01*
X111604018Y-113732755D01*
X111651133Y-113719302D01*
X111691629Y-113697677D01*
X111726592Y-113667645D01*
X111754480Y-113631020D01*
X111774874Y-113588120D01*
X111787704Y-113537736D01*
X111792244Y-113478296D01*
X111788611Y-113436195D01*
X111777755Y-113394136D01*
X111950905Y-113394136D01*
X111950905Y-113684870D01*
X112032970Y-113684870D01*
X112032970Y-113305659D01*
X111674617Y-113305659D01*
X111690653Y-113345965D01*
X111701502Y-113384305D01*
X111708020Y-113422958D01*
X111710179Y-113461541D01*
X111707153Y-113502809D01*
X111698619Y-113537726D01*
X111685101Y-113567370D01*
X111666710Y-113592589D01*
X111643452Y-113613438D01*
X111616572Y-113628376D01*
X111585354Y-113637636D01*
X111548783Y-113640888D01*
X111512213Y-113637637D01*
X111480986Y-113628377D01*
X111454092Y-113613439D01*
X111430814Y-113592589D01*
X111412440Y-113567372D01*
X111398936Y-113537735D01*
X111390411Y-113502831D01*
X111387387Y-113461584D01*
X111390145Y-113411252D01*
X111398201Y-113364515D01*
X111411818Y-113319461D01*
X111431156Y-113275568D01*
X111335413Y-113275568D01*
X111322112Y-113325091D01*
X111312845Y-113371910D01*
X111307180Y-113418399D01*
X111305322Y-113463507D01*
X111227544Y-113463507D01*
X111227544Y-113197790D01*
X112110748Y-113197790D01*
X112110748Y-113815264D01*
G37*
G36*
X87652966Y-92086025D02*
G01*
X87923831Y-92086025D01*
X87923831Y-92156367D01*
X87716163Y-92156367D01*
X87716163Y-92304781D01*
X87746205Y-92295475D01*
X87776278Y-92292361D01*
X87818735Y-92296253D01*
X87854724Y-92307250D01*
X87885366Y-92324731D01*
X87911527Y-92348635D01*
X87932978Y-92378603D01*
X87948425Y-92413314D01*
X87958034Y-92453698D01*
X87961414Y-92501042D01*
X87957902Y-92549853D01*
X87947980Y-92590849D01*
X87932122Y-92625505D01*
X87910184Y-92654878D01*
X87883513Y-92677814D01*
X87851327Y-92694892D01*
X87812522Y-92705811D01*
X87765714Y-92709723D01*
X87733494Y-92708130D01*
X87700288Y-92703275D01*
X87666845Y-92695332D01*
X87631472Y-92683931D01*
X87631472Y-92601866D01*
X87662824Y-92618441D01*
X87695006Y-92630112D01*
X87728389Y-92637018D01*
X87764340Y-92639381D01*
X87793803Y-92636790D01*
X87818734Y-92629483D01*
X87839904Y-92617907D01*
X87857916Y-92602159D01*
X87872808Y-92582206D01*
X87883478Y-92559154D01*
X87890093Y-92532388D01*
X87892415Y-92501042D01*
X87890092Y-92469695D01*
X87883477Y-92442937D01*
X87872807Y-92419897D01*
X87857916Y-92399962D01*
X87839902Y-92384198D01*
X87818728Y-92372612D01*
X87793787Y-92365297D01*
X87764310Y-92362703D01*
X87736751Y-92364554D01*
X87709141Y-92370140D01*
X87681755Y-92379439D01*
X87652966Y-92393184D01*
X87652966Y-92086025D01*
G37*
G36*
X96153114Y-90904782D02*
G01*
X96153114Y-90984503D01*
X96114048Y-90965550D01*
X96078986Y-90952776D01*
X96044326Y-90944853D01*
X96011697Y-90942298D01*
X95974611Y-90945639D01*
X95946251Y-90954654D01*
X95924747Y-90968310D01*
X95907806Y-90988028D01*
X95897720Y-91012199D01*
X95894186Y-91042279D01*
X95896669Y-91067986D01*
X95903530Y-91087762D01*
X95914519Y-91103022D01*
X95929280Y-91114203D01*
X95953725Y-91125426D01*
X95991547Y-91136142D01*
X96033221Y-91146436D01*
X96072153Y-91158035D01*
X96103306Y-91172565D01*
X96127938Y-91189559D01*
X96147099Y-91208792D01*
X96162827Y-91232352D01*
X96174217Y-91259608D01*
X96181326Y-91291272D01*
X96183827Y-91328300D01*
X96180422Y-91372080D01*
X96170833Y-91408308D01*
X96155492Y-91438499D01*
X96134124Y-91463671D01*
X96108704Y-91482483D01*
X96076901Y-91496884D01*
X96037359Y-91506298D01*
X95988464Y-91509723D01*
X95951792Y-91507294D01*
X95911435Y-91499648D01*
X95870506Y-91487381D01*
X95826897Y-91469863D01*
X95826897Y-91385452D01*
X95869176Y-91410290D01*
X95909207Y-91427548D01*
X95949556Y-91438247D01*
X95988464Y-91441726D01*
X96027318Y-91438153D01*
X96057062Y-91428502D01*
X96079658Y-91413846D01*
X96093686Y-91398437D01*
X96103569Y-91380430D01*
X96109643Y-91359316D01*
X96111776Y-91334271D01*
X96109014Y-91305385D01*
X96101268Y-91282308D01*
X96088725Y-91263710D01*
X96072076Y-91249491D01*
X96047633Y-91236586D01*
X96013071Y-91225571D01*
X95971061Y-91215679D01*
X95931645Y-91203901D01*
X95900833Y-91190083D01*
X95877155Y-91174686D01*
X95859351Y-91157977D01*
X95844636Y-91137088D01*
X95833942Y-91112451D01*
X95827230Y-91083321D01*
X95824851Y-91048690D01*
X95828018Y-91009182D01*
X95837064Y-90975431D01*
X95851765Y-90946283D01*
X95872509Y-90920976D01*
X95897118Y-90901476D01*
X95926556Y-90886924D01*
X95961754Y-90877625D01*
X96003851Y-90874301D01*
X96039811Y-90876182D01*
X96076940Y-90881921D01*
X96114225Y-90891332D01*
X96153114Y-90904782D01*
G37*
G36*
X96544543Y-90972780D02*
G01*
X96544543Y-91200219D01*
X96734778Y-91200219D01*
X96734778Y-91270561D01*
X96544543Y-91270561D01*
X96544543Y-91498000D01*
X96487146Y-91498000D01*
X96487146Y-91270561D01*
X96296912Y-91270561D01*
X96296912Y-91200219D01*
X96487146Y-91200219D01*
X96487146Y-90972780D01*
X96544543Y-90972780D01*
G37*
G36*
X97117995Y-91427658D02*
G01*
X97230713Y-91427658D01*
X97230713Y-90961056D01*
X97108073Y-90991538D01*
X97108073Y-90916506D01*
X97230011Y-90886025D01*
X97299010Y-90886025D01*
X97299010Y-91427658D01*
X97411728Y-91427658D01*
X97411728Y-91498000D01*
X97117995Y-91498000D01*
X97117995Y-91427658D01*
G37*
G36*
X97732211Y-90877761D02*
G01*
X97761424Y-90887675D01*
X97787041Y-90903739D01*
X97809648Y-90926181D01*
X97829566Y-90955744D01*
X97847908Y-90996835D01*
X97862102Y-91048431D01*
X97871438Y-91112719D01*
X97874843Y-91192232D01*
X97871442Y-91271495D01*
X97862112Y-91335650D01*
X97847920Y-91387202D01*
X97829566Y-91428317D01*
X97809650Y-91457865D01*
X97787043Y-91480297D01*
X97761427Y-91496354D01*
X97732212Y-91506265D01*
X97698591Y-91509723D01*
X97664970Y-91506265D01*
X97635752Y-91496355D01*
X97610129Y-91480298D01*
X97587513Y-91457866D01*
X97567585Y-91428317D01*
X97549245Y-91387204D01*
X97535062Y-91335653D01*
X97525738Y-91271497D01*
X97522339Y-91192232D01*
X97591674Y-91192232D01*
X97593770Y-91257743D01*
X97599445Y-91309582D01*
X97607890Y-91350032D01*
X97618479Y-91381129D01*
X97634234Y-91409622D01*
X97652490Y-91428775D01*
X97673625Y-91440143D01*
X97698591Y-91444071D01*
X97723734Y-91440133D01*
X97744971Y-91428746D01*
X97763266Y-91409591D01*
X97779008Y-91381129D01*
X97789610Y-91350030D01*
X97798065Y-91309579D01*
X97803745Y-91257741D01*
X97805844Y-91192232D01*
X97803742Y-91126472D01*
X97798057Y-91074501D01*
X97789602Y-91034008D01*
X97779008Y-91002931D01*
X97763265Y-90974451D01*
X97744968Y-90955285D01*
X97723732Y-90943893D01*
X97698591Y-90939953D01*
X97673627Y-90943882D01*
X97652492Y-90955256D01*
X97634236Y-90974420D01*
X97618479Y-91002931D01*
X97607898Y-91034006D01*
X97599452Y-91074498D01*
X97593773Y-91126470D01*
X97591674Y-91192232D01*
X97522339Y-91192232D01*
X97525742Y-91112717D01*
X97535072Y-91048428D01*
X97549256Y-90996833D01*
X97567585Y-90955744D01*
X97587515Y-90926180D01*
X97610132Y-90903738D01*
X97635755Y-90887674D01*
X97664972Y-90877760D01*
X97698591Y-90874301D01*
X97732211Y-90877761D01*
G37*
G36*
X113860748Y-88767188D02*
G01*
X112991222Y-88767188D01*
X112991222Y-88329304D01*
X113069000Y-88329304D01*
X113069000Y-88430219D01*
X113741852Y-88689410D01*
X113782970Y-88689410D01*
X113782970Y-88230355D01*
X113700905Y-88230355D01*
X113700905Y-88573193D01*
X113069000Y-88329304D01*
X112991222Y-88329304D01*
X112991222Y-88152577D01*
X113860748Y-88152577D01*
X113860748Y-88767188D01*
G37*
G36*
X113245263Y-103810732D02*
G01*
X113245263Y-103647113D01*
X113132545Y-103647113D01*
X113132545Y-103579116D01*
X113313560Y-103579116D01*
X113313560Y-103840920D01*
X113286100Y-103861678D01*
X113256782Y-103878795D01*
X113225419Y-103892321D01*
X113176168Y-103905284D01*
X113122623Y-103909723D01*
X113074453Y-103905980D01*
X113032514Y-103895321D01*
X112995877Y-103878334D01*
X112963771Y-103855228D01*
X112935625Y-103825826D01*
X112912206Y-103791171D01*
X112893646Y-103751352D01*
X112879904Y-103705608D01*
X112871236Y-103652956D01*
X112868183Y-103592232D01*
X112871240Y-103531306D01*
X112879914Y-103478519D01*
X112893661Y-103432696D01*
X112912219Y-103392846D01*
X112935625Y-103358198D01*
X112963771Y-103328798D01*
X112995879Y-103305692D01*
X113032522Y-103288704D01*
X113074469Y-103278044D01*
X113122654Y-103274301D01*
X113171663Y-103278081D01*
X113217420Y-103289175D01*
X113260763Y-103307626D01*
X113300249Y-103332919D01*
X113300249Y-103422019D01*
X113273793Y-103397422D01*
X113246735Y-103377635D01*
X113218946Y-103362338D01*
X113189872Y-103351235D01*
X113159787Y-103344551D01*
X113128454Y-103342298D01*
X113090371Y-103345199D01*
X113058102Y-103353358D01*
X113030737Y-103366183D01*
X113007522Y-103383405D01*
X112987893Y-103405093D01*
X112968554Y-103437712D01*
X112953911Y-103478516D01*
X112944393Y-103529289D01*
X112940937Y-103592232D01*
X112944389Y-103654929D01*
X112953899Y-103705562D01*
X112968540Y-103746308D01*
X112987893Y-103778931D01*
X113007534Y-103800621D01*
X113030757Y-103817844D01*
X113058123Y-103830668D01*
X113090386Y-103838826D01*
X113128454Y-103841726D01*
X113163966Y-103839729D01*
X113193667Y-103834179D01*
X113221248Y-103824392D01*
X113245263Y-103810732D01*
G37*
G36*
X101280641Y-92567957D02*
G01*
X100523609Y-92567957D01*
X100523609Y-92174200D01*
X100602000Y-92174200D01*
X100602000Y-92268063D01*
X101213974Y-92501290D01*
X101213974Y-92415195D01*
X100698720Y-92220912D01*
X101213974Y-92027069D01*
X101213974Y-91940570D01*
X100602000Y-92174200D01*
X100523609Y-92174200D01*
X100523609Y-91625863D01*
X100590276Y-91625863D01*
X100594188Y-91682033D01*
X100605107Y-91728599D01*
X100622185Y-91767221D01*
X100645121Y-91799227D01*
X100674494Y-91825553D01*
X100709150Y-91844582D01*
X100750146Y-91856488D01*
X100798957Y-91860703D01*
X100846301Y-91856647D01*
X100886685Y-91845116D01*
X100921396Y-91826580D01*
X100951364Y-91800839D01*
X100975268Y-91769446D01*
X100992749Y-91732674D01*
X101003746Y-91689488D01*
X101007638Y-91638539D01*
X101004524Y-91602452D01*
X100995218Y-91566402D01*
X101143632Y-91566402D01*
X101143632Y-91815603D01*
X101213974Y-91815603D01*
X101213974Y-91490565D01*
X100906815Y-91490565D01*
X100920560Y-91525112D01*
X100929859Y-91557976D01*
X100935445Y-91591107D01*
X100937296Y-91624178D01*
X100934702Y-91659551D01*
X100927387Y-91689479D01*
X100915801Y-91714888D01*
X100900037Y-91736505D01*
X100880102Y-91754375D01*
X100857062Y-91767179D01*
X100830304Y-91775117D01*
X100798957Y-91777904D01*
X100767611Y-91775117D01*
X100740845Y-91767180D01*
X100717793Y-91754376D01*
X100697840Y-91736505D01*
X100682092Y-91714890D01*
X100670516Y-91689487D01*
X100663209Y-91659570D01*
X100660618Y-91624214D01*
X100662981Y-91581073D01*
X100669887Y-91541013D01*
X100681558Y-91502395D01*
X100698133Y-91464773D01*
X100616068Y-91464773D01*
X100604667Y-91507220D01*
X100596724Y-91547351D01*
X100591869Y-91587199D01*
X100590276Y-91625863D01*
X100523609Y-91625863D01*
X100523609Y-91398106D01*
X101280641Y-91398106D01*
X101280641Y-92567957D01*
G37*
G36*
X97224363Y-87054782D02*
G01*
X97224363Y-87134503D01*
X97185297Y-87115550D01*
X97150235Y-87102776D01*
X97115575Y-87094853D01*
X97082946Y-87092298D01*
X97045860Y-87095639D01*
X97017500Y-87104654D01*
X96995996Y-87118310D01*
X96979055Y-87138028D01*
X96968969Y-87162199D01*
X96965435Y-87192279D01*
X96967918Y-87217986D01*
X96974779Y-87237762D01*
X96985768Y-87253022D01*
X97000529Y-87264203D01*
X97024974Y-87275426D01*
X97062796Y-87286142D01*
X97104470Y-87296436D01*
X97143402Y-87308035D01*
X97174555Y-87322565D01*
X97199187Y-87339559D01*
X97218348Y-87358792D01*
X97234076Y-87382352D01*
X97245466Y-87409608D01*
X97252575Y-87441272D01*
X97255076Y-87478300D01*
X97251671Y-87522080D01*
X97242082Y-87558308D01*
X97226741Y-87588499D01*
X97205373Y-87613671D01*
X97179953Y-87632483D01*
X97148150Y-87646884D01*
X97108608Y-87656298D01*
X97059713Y-87659723D01*
X97023041Y-87657294D01*
X96982684Y-87649648D01*
X96941755Y-87637381D01*
X96898146Y-87619863D01*
X96898146Y-87535452D01*
X96940425Y-87560290D01*
X96980456Y-87577548D01*
X97020805Y-87588247D01*
X97059713Y-87591726D01*
X97098567Y-87588153D01*
X97128311Y-87578502D01*
X97150907Y-87563846D01*
X97164935Y-87548437D01*
X97174818Y-87530430D01*
X97180892Y-87509316D01*
X97183025Y-87484271D01*
X97180263Y-87455385D01*
X97172517Y-87432308D01*
X97159974Y-87413710D01*
X97143325Y-87399491D01*
X97118882Y-87386586D01*
X97084320Y-87375571D01*
X97042310Y-87365679D01*
X97002894Y-87353901D01*
X96972082Y-87340083D01*
X96948404Y-87324686D01*
X96930600Y-87307977D01*
X96915885Y-87287088D01*
X96905191Y-87262451D01*
X96898479Y-87233321D01*
X96896100Y-87198690D01*
X96899267Y-87159182D01*
X96908313Y-87125431D01*
X96923014Y-87096283D01*
X96943758Y-87070976D01*
X96968367Y-87051476D01*
X96997805Y-87036924D01*
X97033003Y-87027625D01*
X97075100Y-87024301D01*
X97111060Y-87026182D01*
X97148189Y-87031921D01*
X97185474Y-87041332D01*
X97224363Y-87054782D01*
G37*
G36*
X97615792Y-87122780D02*
G01*
X97615792Y-87350219D01*
X97806027Y-87350219D01*
X97806027Y-87420561D01*
X97615792Y-87420561D01*
X97615792Y-87648000D01*
X97558395Y-87648000D01*
X97558395Y-87420561D01*
X97368161Y-87420561D01*
X97368161Y-87350219D01*
X97558395Y-87350219D01*
X97558395Y-87122780D01*
X97615792Y-87122780D01*
G37*
G36*
X88045263Y-105810732D02*
G01*
X88045263Y-105647113D01*
X87932545Y-105647113D01*
X87932545Y-105579116D01*
X88113560Y-105579116D01*
X88113560Y-105840920D01*
X88086100Y-105861678D01*
X88056782Y-105878795D01*
X88025419Y-105892321D01*
X87976168Y-105905284D01*
X87922623Y-105909723D01*
X87874453Y-105905980D01*
X87832514Y-105895321D01*
X87795877Y-105878334D01*
X87763771Y-105855228D01*
X87735625Y-105825826D01*
X87712206Y-105791171D01*
X87693646Y-105751352D01*
X87679904Y-105705608D01*
X87671236Y-105652956D01*
X87668183Y-105592232D01*
X87671240Y-105531306D01*
X87679914Y-105478519D01*
X87693661Y-105432696D01*
X87712219Y-105392846D01*
X87735625Y-105358198D01*
X87763771Y-105328798D01*
X87795879Y-105305692D01*
X87832522Y-105288704D01*
X87874469Y-105278044D01*
X87922654Y-105274301D01*
X87971663Y-105278081D01*
X88017420Y-105289175D01*
X88060763Y-105307626D01*
X88100249Y-105332919D01*
X88100249Y-105422019D01*
X88073793Y-105397422D01*
X88046735Y-105377635D01*
X88018946Y-105362338D01*
X87989872Y-105351235D01*
X87959787Y-105344551D01*
X87928454Y-105342298D01*
X87890371Y-105345199D01*
X87858102Y-105353358D01*
X87830737Y-105366183D01*
X87807522Y-105383405D01*
X87787893Y-105405093D01*
X87768554Y-105437712D01*
X87753911Y-105478516D01*
X87744393Y-105529289D01*
X87740937Y-105592232D01*
X87744389Y-105654929D01*
X87753899Y-105705562D01*
X87768540Y-105746308D01*
X87787893Y-105778931D01*
X87807534Y-105800621D01*
X87830757Y-105817844D01*
X87858123Y-105830668D01*
X87890386Y-105838826D01*
X87928454Y-105841726D01*
X87963966Y-105839729D01*
X87993667Y-105834179D01*
X88021248Y-105824392D01*
X88045263Y-105810732D01*
G37*
G36*
X91874363Y-87504782D02*
G01*
X91874363Y-87584503D01*
X91835297Y-87565550D01*
X91800235Y-87552776D01*
X91765575Y-87544853D01*
X91732946Y-87542298D01*
X91695860Y-87545639D01*
X91667500Y-87554654D01*
X91645996Y-87568310D01*
X91629055Y-87588028D01*
X91618969Y-87612199D01*
X91615435Y-87642279D01*
X91617918Y-87667986D01*
X91624779Y-87687762D01*
X91635768Y-87703022D01*
X91650529Y-87714203D01*
X91674974Y-87725426D01*
X91712796Y-87736142D01*
X91754470Y-87746436D01*
X91793402Y-87758035D01*
X91824555Y-87772565D01*
X91849187Y-87789559D01*
X91868348Y-87808792D01*
X91884076Y-87832352D01*
X91895466Y-87859608D01*
X91902575Y-87891272D01*
X91905076Y-87928300D01*
X91901671Y-87972080D01*
X91892082Y-88008308D01*
X91876741Y-88038499D01*
X91855373Y-88063671D01*
X91829953Y-88082483D01*
X91798150Y-88096884D01*
X91758608Y-88106298D01*
X91709713Y-88109723D01*
X91673041Y-88107294D01*
X91632684Y-88099648D01*
X91591755Y-88087381D01*
X91548146Y-88069863D01*
X91548146Y-87985452D01*
X91590425Y-88010290D01*
X91630456Y-88027548D01*
X91670805Y-88038247D01*
X91709713Y-88041726D01*
X91748567Y-88038153D01*
X91778311Y-88028502D01*
X91800907Y-88013846D01*
X91814935Y-87998437D01*
X91824818Y-87980430D01*
X91830892Y-87959316D01*
X91833025Y-87934271D01*
X91830263Y-87905385D01*
X91822517Y-87882308D01*
X91809974Y-87863710D01*
X91793325Y-87849491D01*
X91768882Y-87836586D01*
X91734320Y-87825571D01*
X91692310Y-87815679D01*
X91652894Y-87803901D01*
X91622082Y-87790083D01*
X91598404Y-87774686D01*
X91580600Y-87757977D01*
X91565885Y-87737088D01*
X91555191Y-87712451D01*
X91548479Y-87683321D01*
X91546100Y-87648690D01*
X91549267Y-87609182D01*
X91558313Y-87575431D01*
X91573014Y-87546283D01*
X91593758Y-87520976D01*
X91618367Y-87501476D01*
X91647805Y-87486924D01*
X91683003Y-87477625D01*
X91725100Y-87474301D01*
X91761060Y-87476182D01*
X91798189Y-87481921D01*
X91835474Y-87491332D01*
X91874363Y-87504782D01*
G37*
G36*
X91978196Y-87833045D02*
G01*
X92162295Y-87833045D01*
X92162295Y-87901042D01*
X91978196Y-87901042D01*
X91978196Y-87833045D01*
G37*
G36*
X94203404Y-109289317D02*
G01*
X94238948Y-109298326D01*
X94267140Y-109312059D01*
X94289328Y-109329988D01*
X94307495Y-109353642D01*
X94320830Y-109382786D01*
X94329322Y-109418596D01*
X94332376Y-109462685D01*
X94329686Y-109500478D01*
X94322099Y-109532137D01*
X94309997Y-109558819D01*
X94293173Y-109581324D01*
X94271771Y-109598961D01*
X94244937Y-109611832D01*
X94265935Y-109625164D01*
X94288137Y-109650301D01*
X94308089Y-109683149D01*
X94330330Y-109731230D01*
X94400367Y-109898000D01*
X94326239Y-109898000D01*
X94260996Y-109741452D01*
X94242297Y-109701351D01*
X94226073Y-109675468D01*
X94211964Y-109660119D01*
X94195330Y-109649493D01*
X94174153Y-109642598D01*
X94147270Y-109640079D01*
X94072135Y-109640079D01*
X94072135Y-109898000D01*
X94003136Y-109898000D01*
X94003136Y-109572082D01*
X94072135Y-109572082D01*
X94158872Y-109572082D01*
X94191365Y-109568545D01*
X94215853Y-109558987D01*
X94234190Y-109544311D01*
X94247877Y-109523867D01*
X94256512Y-109497278D01*
X94259652Y-109462649D01*
X94256504Y-109428029D01*
X94247864Y-109401590D01*
X94234190Y-109381389D01*
X94215880Y-109366942D01*
X94191394Y-109357515D01*
X94158872Y-109354022D01*
X94072135Y-109354022D01*
X94072135Y-109572082D01*
X94003136Y-109572082D01*
X94003136Y-109286025D01*
X94158872Y-109286025D01*
X94203404Y-109289317D01*
G37*
G36*
X94676489Y-109277761D02*
G01*
X94705703Y-109287675D01*
X94731319Y-109303739D01*
X94753927Y-109326181D01*
X94773845Y-109355744D01*
X94792187Y-109396835D01*
X94806380Y-109448431D01*
X94815716Y-109512719D01*
X94819121Y-109592232D01*
X94815721Y-109671495D01*
X94806391Y-109735650D01*
X94792198Y-109787202D01*
X94773845Y-109828317D01*
X94753928Y-109857865D01*
X94731322Y-109880297D01*
X94705705Y-109896354D01*
X94676491Y-109906265D01*
X94642869Y-109909723D01*
X94609248Y-109906265D01*
X94580031Y-109896355D01*
X94554407Y-109880298D01*
X94531791Y-109857866D01*
X94511864Y-109828317D01*
X94493523Y-109787204D01*
X94479340Y-109735653D01*
X94470016Y-109671497D01*
X94466618Y-109592232D01*
X94535952Y-109592232D01*
X94538049Y-109657743D01*
X94543723Y-109709582D01*
X94552168Y-109750032D01*
X94562758Y-109781129D01*
X94578513Y-109809622D01*
X94596768Y-109828775D01*
X94617903Y-109840143D01*
X94642869Y-109844071D01*
X94668012Y-109840133D01*
X94689249Y-109828746D01*
X94707545Y-109809591D01*
X94723286Y-109781129D01*
X94733889Y-109750030D01*
X94742343Y-109709579D01*
X94748023Y-109657741D01*
X94750122Y-109592232D01*
X94748021Y-109526472D01*
X94742335Y-109474501D01*
X94733880Y-109434008D01*
X94723286Y-109402931D01*
X94707543Y-109374451D01*
X94689247Y-109355285D01*
X94668010Y-109343893D01*
X94642869Y-109339953D01*
X94617905Y-109343882D01*
X94596771Y-109355256D01*
X94578514Y-109374420D01*
X94562758Y-109402931D01*
X94552176Y-109434006D01*
X94543731Y-109474498D01*
X94538052Y-109526470D01*
X94535952Y-109592232D01*
X94466618Y-109592232D01*
X94470020Y-109512717D01*
X94479351Y-109448428D01*
X94493534Y-109396833D01*
X94511864Y-109355744D01*
X94531793Y-109326180D01*
X94554410Y-109303738D01*
X94580033Y-109287674D01*
X94609250Y-109277760D01*
X94642869Y-109274301D01*
X94676489Y-109277761D01*
G37*
G36*
X106666372Y-87860732D02*
G01*
X106666372Y-87697113D01*
X106553654Y-87697113D01*
X106553654Y-87629116D01*
X106734669Y-87629116D01*
X106734669Y-87890920D01*
X106707209Y-87911678D01*
X106677891Y-87928795D01*
X106646528Y-87942321D01*
X106597277Y-87955284D01*
X106543732Y-87959723D01*
X106495562Y-87955980D01*
X106453623Y-87945321D01*
X106416986Y-87928334D01*
X106384880Y-87905228D01*
X106356734Y-87875826D01*
X106333315Y-87841171D01*
X106314755Y-87801352D01*
X106301013Y-87755608D01*
X106292345Y-87702956D01*
X106289292Y-87642232D01*
X106292349Y-87581306D01*
X106301023Y-87528519D01*
X106314770Y-87482696D01*
X106333328Y-87442846D01*
X106356734Y-87408198D01*
X106384880Y-87378798D01*
X106416988Y-87355692D01*
X106453631Y-87338704D01*
X106495578Y-87328044D01*
X106543763Y-87324301D01*
X106592772Y-87328081D01*
X106638529Y-87339175D01*
X106681872Y-87357626D01*
X106721358Y-87382919D01*
X106721358Y-87472019D01*
X106694902Y-87447422D01*
X106667844Y-87427635D01*
X106640055Y-87412338D01*
X106610981Y-87401235D01*
X106580896Y-87394551D01*
X106549563Y-87392298D01*
X106511480Y-87395199D01*
X106479211Y-87403358D01*
X106451846Y-87416183D01*
X106428631Y-87433405D01*
X106409002Y-87455093D01*
X106389663Y-87487712D01*
X106375020Y-87528516D01*
X106365502Y-87579289D01*
X106362046Y-87642232D01*
X106365498Y-87704929D01*
X106375008Y-87755562D01*
X106389649Y-87796308D01*
X106409002Y-87828931D01*
X106428643Y-87850621D01*
X106451866Y-87867844D01*
X106479232Y-87880668D01*
X106511495Y-87888826D01*
X106549563Y-87891726D01*
X106585075Y-87889729D01*
X106614776Y-87884179D01*
X106642357Y-87874392D01*
X106666372Y-87860732D01*
G37*
G36*
X103847954Y-87586025D02*
G01*
X104279348Y-87586025D01*
X104279348Y-87656367D01*
X104098303Y-87656367D01*
X104098303Y-88198000D01*
X104028968Y-88198000D01*
X104028968Y-87656367D01*
X103847954Y-87656367D01*
X103847954Y-87586025D01*
G37*
G36*
X104411666Y-88127658D02*
G01*
X104652459Y-88127658D01*
X104652459Y-88198000D01*
X104328654Y-88198000D01*
X104328654Y-88127658D01*
X104435724Y-87996866D01*
X104520935Y-87891060D01*
X104550701Y-87847209D01*
X104567219Y-87815552D01*
X104577210Y-87784325D01*
X104580377Y-87754772D01*
X104577102Y-87723815D01*
X104567660Y-87697730D01*
X104551862Y-87675344D01*
X104531515Y-87658637D01*
X104507119Y-87648301D01*
X104477581Y-87644643D01*
X104444874Y-87647861D01*
X104409071Y-87658015D01*
X104372902Y-87674267D01*
X104332074Y-87698572D01*
X104332074Y-87614161D01*
X104373339Y-87596473D01*
X104409926Y-87584376D01*
X104445516Y-87576682D01*
X104476208Y-87574301D01*
X104515820Y-87577618D01*
X104549463Y-87586977D01*
X104578119Y-87601782D01*
X104602573Y-87621855D01*
X104623157Y-87647567D01*
X104637699Y-87676786D01*
X104646608Y-87710214D01*
X104649712Y-87748910D01*
X104646746Y-87785765D01*
X104637927Y-87820461D01*
X104622653Y-87854793D01*
X104595062Y-87900182D01*
X104540749Y-87968839D01*
X104411666Y-88127658D01*
G37*
G36*
X87752966Y-107086025D02*
G01*
X88023831Y-107086025D01*
X88023831Y-107156367D01*
X87816163Y-107156367D01*
X87816163Y-107304781D01*
X87846205Y-107295475D01*
X87876278Y-107292361D01*
X87918735Y-107296253D01*
X87954724Y-107307250D01*
X87985366Y-107324731D01*
X88011527Y-107348635D01*
X88032978Y-107378603D01*
X88048425Y-107413314D01*
X88058034Y-107453698D01*
X88061414Y-107501042D01*
X88057902Y-107549853D01*
X88047980Y-107590849D01*
X88032122Y-107625505D01*
X88010184Y-107654878D01*
X87983513Y-107677814D01*
X87951327Y-107694892D01*
X87912522Y-107705811D01*
X87865714Y-107709723D01*
X87833494Y-107708130D01*
X87800288Y-107703275D01*
X87766845Y-107695332D01*
X87731472Y-107683931D01*
X87731472Y-107601866D01*
X87762824Y-107618441D01*
X87795006Y-107630112D01*
X87828389Y-107637018D01*
X87864340Y-107639381D01*
X87893803Y-107636790D01*
X87918734Y-107629483D01*
X87939904Y-107617907D01*
X87957916Y-107602159D01*
X87972808Y-107582206D01*
X87983478Y-107559154D01*
X87990093Y-107532388D01*
X87992415Y-107501042D01*
X87990092Y-107469695D01*
X87983477Y-107442937D01*
X87972807Y-107419897D01*
X87957916Y-107399962D01*
X87939902Y-107384198D01*
X87918728Y-107372612D01*
X87893787Y-107365297D01*
X87864310Y-107362703D01*
X87836751Y-107364554D01*
X87809141Y-107370140D01*
X87781755Y-107379439D01*
X87752966Y-107393184D01*
X87752966Y-107086025D01*
G37*
G36*
X111886025Y-98747033D02*
G01*
X111886025Y-98476168D01*
X111956367Y-98476168D01*
X111956367Y-98683836D01*
X112104781Y-98683836D01*
X112095475Y-98653794D01*
X112092361Y-98623721D01*
X112096253Y-98581264D01*
X112107250Y-98545275D01*
X112124731Y-98514633D01*
X112148635Y-98488472D01*
X112178603Y-98467021D01*
X112213314Y-98451574D01*
X112253698Y-98441965D01*
X112301042Y-98438585D01*
X112349853Y-98442097D01*
X112390849Y-98452019D01*
X112425505Y-98467877D01*
X112454878Y-98489815D01*
X112477814Y-98516486D01*
X112494892Y-98548672D01*
X112505811Y-98587477D01*
X112509723Y-98634285D01*
X112508130Y-98666505D01*
X112503275Y-98699711D01*
X112495332Y-98733154D01*
X112483931Y-98768527D01*
X112401866Y-98768527D01*
X112418441Y-98737175D01*
X112430112Y-98704993D01*
X112437018Y-98671610D01*
X112439381Y-98635659D01*
X112436790Y-98606196D01*
X112429483Y-98581265D01*
X112417907Y-98560095D01*
X112402159Y-98542083D01*
X112382206Y-98527191D01*
X112359154Y-98516521D01*
X112332388Y-98509906D01*
X112301042Y-98507584D01*
X112269695Y-98509907D01*
X112242937Y-98516522D01*
X112219897Y-98527192D01*
X112199962Y-98542083D01*
X112184198Y-98560097D01*
X112172612Y-98581271D01*
X112165297Y-98606212D01*
X112162703Y-98635689D01*
X112164554Y-98663248D01*
X112170140Y-98690858D01*
X112179439Y-98718244D01*
X112193184Y-98747033D01*
X111886025Y-98747033D01*
G37*
G36*
X88760748Y-86810477D02*
G01*
X87891222Y-86810477D01*
X87891222Y-86321474D01*
X87969000Y-86321474D01*
X87969000Y-86732699D01*
X88051065Y-86732699D01*
X88051065Y-86574894D01*
X88682970Y-86574894D01*
X88682970Y-86478296D01*
X88647408Y-86307582D01*
X88559872Y-86307582D01*
X88595434Y-86479279D01*
X88051065Y-86479279D01*
X88051065Y-86321474D01*
X87969000Y-86321474D01*
X87891222Y-86321474D01*
X87891222Y-86229804D01*
X88760748Y-86229804D01*
X88760748Y-86810477D01*
G37*
G36*
X100813657Y-87819407D02*
G01*
X101108720Y-87249007D01*
X101159690Y-87299977D01*
X100909573Y-87778540D01*
X101388396Y-87528683D01*
X101439128Y-87579415D01*
X100868966Y-87874716D01*
X100813657Y-87819407D01*
G37*
G36*
X101441913Y-87582200D02*
G01*
X101746954Y-87887241D01*
X101697215Y-87936981D01*
X101569197Y-87808963D01*
X101186205Y-88191955D01*
X101137178Y-88142928D01*
X101520170Y-87759936D01*
X101392174Y-87631939D01*
X101441913Y-87582200D01*
G37*
G36*
X101776746Y-87917033D02*
G01*
X101829162Y-87969449D01*
X101757904Y-88219890D01*
X102008841Y-88149128D01*
X102061257Y-88201544D01*
X101737512Y-88293433D01*
X101636254Y-88642005D01*
X101583838Y-88589588D01*
X101666430Y-88304110D01*
X101380240Y-88385990D01*
X101327586Y-88333336D01*
X101687319Y-88231064D01*
X101776746Y-87917033D01*
G37*
D12*
G36*
X92334614Y-95436624D02*
G01*
X92095000Y-95386829D01*
X92095000Y-95240351D01*
X92811706Y-95389351D01*
X92811706Y-95535829D01*
X92500882Y-95471203D01*
X92811706Y-95806603D01*
X92811706Y-95980266D01*
X92502506Y-95635719D01*
X92095000Y-95860245D01*
X92095000Y-95685642D01*
X92409542Y-95522665D01*
X92334614Y-95436624D01*
G37*
G36*
X92379534Y-95929479D02*
G01*
X92448095Y-95939447D01*
X92513646Y-95956984D01*
X92572828Y-95980691D01*
X92626332Y-96010417D01*
X92674718Y-96046219D01*
X92718399Y-96088362D01*
X92756459Y-96136369D01*
X92785446Y-96186424D01*
X92806005Y-96238944D01*
X92818429Y-96294492D01*
X92822648Y-96353750D01*
X92817961Y-96414505D01*
X92804736Y-96465794D01*
X92783739Y-96509275D01*
X92755040Y-96546221D01*
X92718014Y-96577421D01*
X92676019Y-96600710D01*
X92628655Y-96616468D01*
X92574859Y-96624457D01*
X92513347Y-96623911D01*
X92442667Y-96613582D01*
X92380309Y-96596831D01*
X92323225Y-96573825D01*
X92270843Y-96544630D01*
X92222703Y-96509109D01*
X92178476Y-96466932D01*
X92140120Y-96419249D01*
X92110846Y-96369173D01*
X92090029Y-96316268D01*
X92077411Y-96259936D01*
X92074927Y-96224967D01*
X92198949Y-96224967D01*
X92203091Y-96266223D01*
X92215408Y-96304937D01*
X92236249Y-96341881D01*
X92266611Y-96377600D01*
X92302073Y-96407605D01*
X92343005Y-96432610D01*
X92390103Y-96452635D01*
X92444248Y-96467445D01*
X92503829Y-96475964D01*
X92553184Y-96475649D01*
X92594170Y-96467993D01*
X92628383Y-96453896D01*
X92658214Y-96432124D01*
X92679169Y-96404888D01*
X92692171Y-96371156D01*
X92696814Y-96329045D01*
X92692625Y-96287343D01*
X92680191Y-96248401D01*
X92659191Y-96211424D01*
X92628640Y-96175856D01*
X92593003Y-96146140D01*
X92551500Y-96121170D01*
X92503361Y-96100976D01*
X92447625Y-96085840D01*
X92389680Y-96077656D01*
X92341364Y-96078215D01*
X92300926Y-96086102D01*
X92266867Y-96100501D01*
X92237220Y-96122511D01*
X92216416Y-96149797D01*
X92203536Y-96183347D01*
X92198949Y-96224967D01*
X92074927Y-96224967D01*
X92073115Y-96199450D01*
X92077819Y-96138213D01*
X92091066Y-96086725D01*
X92112056Y-96043271D01*
X92140690Y-96006533D01*
X92177578Y-95975693D01*
X92219565Y-95952581D01*
X92266532Y-95936967D01*
X92319459Y-95929037D01*
X92379534Y-95929479D01*
G37*
G36*
X92811706Y-96936416D02*
G01*
X92220833Y-96813574D01*
X92220833Y-97147863D01*
X92095000Y-97121704D01*
X92095000Y-96640937D01*
X92811706Y-96789937D01*
X92811706Y-96936416D01*
G37*
G36*
X92811706Y-97513610D02*
G01*
X92095000Y-97364610D01*
X92095000Y-97218131D01*
X92811706Y-97367132D01*
X92811706Y-97513610D01*
G37*
G36*
X92811706Y-97670775D02*
G01*
X92811706Y-97983179D01*
X92809255Y-98026536D01*
X92802446Y-98062503D01*
X92791916Y-98092258D01*
X92776579Y-98119704D01*
X92759560Y-98139549D01*
X92740839Y-98153166D01*
X92709320Y-98167418D01*
X92679888Y-98174794D01*
X92650339Y-98176630D01*
X92621416Y-98173255D01*
X92591529Y-98164539D01*
X92564849Y-98151595D01*
X92540932Y-98134360D01*
X92508990Y-98100331D01*
X92474553Y-98048148D01*
X92443880Y-98085241D01*
X92411943Y-98110213D01*
X92378263Y-98125065D01*
X92341902Y-98130720D01*
X92301574Y-98126922D01*
X92266898Y-98116838D01*
X92232716Y-98101021D01*
X92200289Y-98079689D01*
X92166807Y-98050285D01*
X92147324Y-98027286D01*
X92129891Y-97998488D01*
X92114661Y-97962920D01*
X92103997Y-97925692D01*
X92097325Y-97884130D01*
X92096327Y-97864184D01*
X92220833Y-97864184D01*
X92224984Y-97905357D01*
X92236275Y-97936457D01*
X92253865Y-97959865D01*
X92278203Y-97976999D01*
X92310935Y-97988095D01*
X92344809Y-97990562D01*
X92368557Y-97983536D01*
X92385518Y-97968254D01*
X92396902Y-97942713D01*
X92400243Y-97912526D01*
X92527212Y-97912526D01*
X92530993Y-97952421D01*
X92541178Y-97982089D01*
X92556817Y-98003969D01*
X92578112Y-98019610D01*
X92606371Y-98029427D01*
X92635585Y-98031320D01*
X92656345Y-98024587D01*
X92671464Y-98010026D01*
X92681782Y-97985402D01*
X92685872Y-97946079D01*
X92685872Y-97791095D01*
X92527212Y-97758097D01*
X92527212Y-97912526D01*
X92400243Y-97912526D01*
X92401378Y-97902268D01*
X92401378Y-97731939D01*
X92220833Y-97694411D01*
X92220833Y-97864184D01*
X92096327Y-97864184D01*
X92095000Y-97837641D01*
X92095000Y-97521774D01*
X92811706Y-97670775D01*
G37*
G36*
X92811706Y-98360126D02*
G01*
X92811706Y-98735747D01*
X92809374Y-98771365D01*
X92802892Y-98800758D01*
X92792814Y-98824993D01*
X92778407Y-98846706D01*
X92761926Y-98862671D01*
X92743189Y-98873719D01*
X92712043Y-98884464D01*
X92681256Y-98889406D01*
X92649855Y-98889316D01*
X92616458Y-98884576D01*
X92566814Y-98869443D01*
X92525375Y-98846970D01*
X92490845Y-98817176D01*
X92462460Y-98779383D01*
X92440060Y-98732284D01*
X92424202Y-98764256D01*
X92416079Y-98774780D01*
X92402831Y-98785584D01*
X92387951Y-98793927D01*
X92375946Y-98797552D01*
X92332605Y-98797253D01*
X92270885Y-98789688D01*
X92180912Y-98772933D01*
X92155418Y-98771481D01*
X92137006Y-98777888D01*
X92123338Y-98791654D01*
X92095000Y-98785755D01*
X92095000Y-98629446D01*
X92121292Y-98623092D01*
X92145094Y-98621453D01*
X92171826Y-98624000D01*
X92218525Y-98632438D01*
X92264345Y-98642867D01*
X92293624Y-98649920D01*
X92322960Y-98653177D01*
X92343272Y-98650186D01*
X92357267Y-98642568D01*
X92367201Y-98630022D01*
X92372721Y-98614016D01*
X92502592Y-98614016D01*
X92504930Y-98647278D01*
X92511279Y-98673199D01*
X92520928Y-98693261D01*
X92535627Y-98709181D01*
X92559675Y-98722945D01*
X92596497Y-98733994D01*
X92632417Y-98737931D01*
X92654724Y-98733945D01*
X92668176Y-98724591D01*
X92677130Y-98709621D01*
X92683412Y-98686660D01*
X92685872Y-98652698D01*
X92685872Y-98480446D01*
X92502592Y-98442319D01*
X92502592Y-98614016D01*
X92372721Y-98614016D01*
X92374063Y-98610125D01*
X92376758Y-98579822D01*
X92376758Y-98416161D01*
X92095000Y-98357604D01*
X92095000Y-98211125D01*
X92811706Y-98360126D01*
G37*
G36*
X92811706Y-99204162D02*
G01*
X92095000Y-99055161D01*
X92095000Y-98908683D01*
X92811706Y-99057683D01*
X92811706Y-99204162D01*
G37*
G36*
X90919000Y-96551519D02*
G01*
X90919000Y-96408631D01*
X91449690Y-96336995D01*
X91449690Y-96481593D01*
X91067316Y-96513094D01*
X91449690Y-96695989D01*
X91449690Y-96840886D01*
X90919000Y-96551519D01*
G37*
G36*
X91182613Y-96833638D02*
G01*
X91261410Y-96847169D01*
X91352101Y-96869921D01*
X91426427Y-96896197D01*
X91486698Y-96925347D01*
X91534962Y-96956932D01*
X91569314Y-96988343D01*
X91595597Y-97023573D01*
X91614496Y-97063124D01*
X91626170Y-97107815D01*
X91630235Y-97158719D01*
X91626966Y-97203056D01*
X91617941Y-97238817D01*
X91603948Y-97267627D01*
X91583865Y-97292130D01*
X91558267Y-97310959D01*
X91526157Y-97324389D01*
X91472712Y-97335118D01*
X91409598Y-97337255D01*
X91342084Y-97331259D01*
X91256922Y-97316525D01*
X91181465Y-97298086D01*
X91118137Y-97277159D01*
X91059245Y-97250679D01*
X91005040Y-97218046D01*
X90972625Y-97191897D01*
X90946084Y-97162216D01*
X90924941Y-97128714D01*
X90909717Y-97092166D01*
X90900352Y-97051788D01*
X90898836Y-97030748D01*
X91014743Y-97030748D01*
X91019183Y-97061130D01*
X91032139Y-97086826D01*
X91045553Y-97100822D01*
X91068797Y-97116874D01*
X91105571Y-97135296D01*
X91167371Y-97157378D01*
X91260427Y-97180390D01*
X91357213Y-97196739D01*
X91420125Y-97200604D01*
X91458709Y-97196504D01*
X91485053Y-97186888D01*
X91502008Y-97173700D01*
X91511887Y-97156945D01*
X91515343Y-97135425D01*
X91512075Y-97110737D01*
X91502363Y-97088413D01*
X91485630Y-97067706D01*
X91460419Y-97048273D01*
X91421632Y-97028994D01*
X91358335Y-97007532D01*
X91261794Y-96984159D01*
X91167130Y-96968072D01*
X91106126Y-96964198D01*
X91068682Y-96967114D01*
X91045639Y-96973302D01*
X91032438Y-96981381D01*
X91022989Y-96993483D01*
X91016956Y-97009528D01*
X91014743Y-97030748D01*
X90898836Y-97030748D01*
X90897115Y-97006855D01*
X90900585Y-96961992D01*
X90910170Y-96925900D01*
X90925069Y-96896879D01*
X90946172Y-96872302D01*
X90972466Y-96853607D01*
X91004869Y-96840501D01*
X91058282Y-96830127D01*
X91118650Y-96828063D01*
X91182613Y-96833638D01*
G37*
G36*
X91063982Y-97517115D02*
G01*
X90919000Y-97486982D01*
X90919000Y-97340546D01*
X91063982Y-97370679D01*
X91063982Y-97517115D01*
G37*
G36*
X91181681Y-97625144D02*
G01*
X91251023Y-97637136D01*
X91343155Y-97660540D01*
X91418356Y-97687990D01*
X91479046Y-97718777D01*
X91527353Y-97752442D01*
X91565060Y-97788807D01*
X91593550Y-97827994D01*
X91613738Y-97870426D01*
X91626017Y-97916802D01*
X91630235Y-97968049D01*
X91628226Y-98003226D01*
X91616386Y-98047592D01*
X91604586Y-98073360D01*
X91589715Y-98094267D01*
X91569688Y-98111284D01*
X91538296Y-98127093D01*
X91501689Y-98136331D01*
X91455161Y-98137523D01*
X91455161Y-98010620D01*
X91484914Y-98000916D01*
X91501793Y-97988394D01*
X91511541Y-97970235D01*
X91515343Y-97940950D01*
X91511722Y-97909235D01*
X91501366Y-97882606D01*
X91483943Y-97859862D01*
X91457427Y-97839821D01*
X91426819Y-97823681D01*
X91395322Y-97810713D01*
X91318685Y-97788274D01*
X91344955Y-97824120D01*
X91362025Y-97857175D01*
X91372250Y-97892388D01*
X91375831Y-97933342D01*
X91371560Y-97976210D01*
X91359564Y-98011244D01*
X91340330Y-98040093D01*
X91313342Y-98063792D01*
X91281486Y-98080484D01*
X91244768Y-98090110D01*
X91201947Y-98092237D01*
X91151519Y-98085719D01*
X91096210Y-98070079D01*
X91047669Y-98047971D01*
X91005013Y-98019510D01*
X90967598Y-97984462D01*
X90936402Y-97943534D01*
X90914614Y-97900385D01*
X90901550Y-97854396D01*
X90898901Y-97824733D01*
X91014743Y-97824733D01*
X91018615Y-97852943D01*
X91030358Y-97879662D01*
X91050988Y-97905687D01*
X91076932Y-97926989D01*
X91107409Y-97943042D01*
X91143227Y-97953858D01*
X91181612Y-97958297D01*
X91211535Y-97955066D01*
X91235080Y-97945566D01*
X91253733Y-97929536D01*
X91265061Y-97907991D01*
X91269146Y-97879059D01*
X91265250Y-97849662D01*
X91253585Y-97822557D01*
X91233371Y-97796908D01*
X91207738Y-97776051D01*
X91176833Y-97760029D01*
X91139679Y-97748951D01*
X91103385Y-97744956D01*
X91073982Y-97748519D01*
X91049792Y-97758568D01*
X91030444Y-97775093D01*
X91018863Y-97796595D01*
X91014743Y-97824733D01*
X90898901Y-97824733D01*
X90897115Y-97804729D01*
X90901305Y-97755831D01*
X90912930Y-97716381D01*
X90925549Y-97693055D01*
X90943096Y-97671522D01*
X90966187Y-97651583D01*
X90992619Y-97636861D01*
X91028341Y-97625975D01*
X91075864Y-97619911D01*
X91123829Y-97619786D01*
X91181681Y-97625144D01*
G37*
D11*
G36*
X102450505Y-87632919D02*
G01*
X102450505Y-87719674D01*
X102426298Y-87695503D01*
X102401580Y-87676249D01*
X102376225Y-87661532D01*
X102349527Y-87650893D01*
X102321663Y-87644470D01*
X102292389Y-87642298D01*
X102257190Y-87645179D01*
X102226896Y-87653350D01*
X102200735Y-87666337D01*
X102178079Y-87683996D01*
X102158483Y-87706522D01*
X102139250Y-87739808D01*
X102124770Y-87780735D01*
X102115421Y-87830891D01*
X102112046Y-87892232D01*
X102115416Y-87953328D01*
X102124758Y-88003343D01*
X102139237Y-88044211D01*
X102158483Y-88077502D01*
X102178079Y-88100028D01*
X102200735Y-88117687D01*
X102226896Y-88130675D01*
X102257190Y-88138845D01*
X102292389Y-88141726D01*
X102321663Y-88139554D01*
X102349527Y-88133131D01*
X102376225Y-88122492D01*
X102401580Y-88107775D01*
X102426298Y-88088521D01*
X102450505Y-88064350D01*
X102450505Y-88151105D01*
X102413078Y-88176836D01*
X102373813Y-88195069D01*
X102332537Y-88206002D01*
X102288267Y-88209723D01*
X102241829Y-88205973D01*
X102201165Y-88195258D01*
X102165397Y-88178104D01*
X102133808Y-88154643D01*
X102105879Y-88124617D01*
X102082682Y-88089485D01*
X102064338Y-88049481D01*
X102050795Y-88003901D01*
X102042282Y-87951842D01*
X102039292Y-87892232D01*
X102042286Y-87832420D01*
X102050806Y-87780229D01*
X102064354Y-87734578D01*
X102082697Y-87694554D01*
X102105879Y-87659444D01*
X102133810Y-87629403D01*
X102165399Y-87605933D01*
X102201167Y-87588771D01*
X102241831Y-87578052D01*
X102288267Y-87574301D01*
X102333127Y-87578035D01*
X102374515Y-87588956D01*
X102413668Y-87607224D01*
X102450505Y-87632919D01*
G37*
G36*
X102730257Y-87730452D02*
G01*
X102763843Y-87740794D01*
X102790898Y-87756847D01*
X102812595Y-87778366D01*
X102829497Y-87805372D01*
X102842271Y-87839369D01*
X102850577Y-87881912D01*
X102853598Y-87934950D01*
X102853598Y-88198000D01*
X102790766Y-88198000D01*
X102790766Y-88127658D01*
X102774839Y-88153799D01*
X102757005Y-88174271D01*
X102737124Y-88189720D01*
X102715126Y-88200470D01*
X102689193Y-88207297D01*
X102658570Y-88209723D01*
X102629422Y-88206998D01*
X102604610Y-88199281D01*
X102583378Y-88186973D01*
X102565147Y-88170083D01*
X102550223Y-88148983D01*
X102539493Y-88124697D01*
X102532832Y-88096602D01*
X102530495Y-88063837D01*
X102530900Y-88058635D01*
X102593357Y-88058635D01*
X102595947Y-88084372D01*
X102603295Y-88105364D01*
X102615369Y-88122712D01*
X102631144Y-88135480D01*
X102650779Y-88143523D01*
X102675331Y-88146415D01*
X102700748Y-88143478D01*
X102722776Y-88135035D01*
X102742098Y-88121235D01*
X102759167Y-88101682D01*
X102772546Y-88078446D01*
X102782379Y-88051385D01*
X102788576Y-88019787D01*
X102790766Y-87982760D01*
X102790766Y-87965871D01*
X102728271Y-87965871D01*
X102676969Y-87968931D01*
X102643445Y-87976560D01*
X102622727Y-87986900D01*
X102610161Y-87998907D01*
X102601133Y-88014310D01*
X102595422Y-88033830D01*
X102593357Y-88058635D01*
X102530900Y-88058635D01*
X102533464Y-88025741D01*
X102541809Y-87994349D01*
X102555141Y-87968307D01*
X102573695Y-87946710D01*
X102595745Y-87930696D01*
X102623688Y-87918347D01*
X102658815Y-87910223D01*
X102702656Y-87907253D01*
X102790766Y-87907253D01*
X102790766Y-87899779D01*
X102787370Y-87866442D01*
X102777828Y-87839954D01*
X102762251Y-87818703D01*
X102741927Y-87803439D01*
X102715764Y-87793608D01*
X102682139Y-87790016D01*
X102649690Y-87792374D01*
X102618270Y-87799395D01*
X102587855Y-87811086D01*
X102558491Y-87827532D01*
X102558491Y-87757190D01*
X102592929Y-87743701D01*
X102625444Y-87734329D01*
X102657749Y-87728579D01*
X102688612Y-87726709D01*
X102730257Y-87730452D01*
G37*
G36*
X103281145Y-87825627D02*
G01*
X103298617Y-87793654D01*
X103317388Y-87769082D01*
X103337504Y-87750852D01*
X103360139Y-87737666D01*
X103385660Y-87729536D01*
X103414685Y-87726709D01*
X103443850Y-87730087D01*
X103468367Y-87739675D01*
X103489174Y-87755163D01*
X103506886Y-87776937D01*
X103520264Y-87802687D01*
X103530403Y-87834267D01*
X103536969Y-87872853D01*
X103539340Y-87919856D01*
X103539340Y-88198000D01*
X103476173Y-88198000D01*
X103476173Y-87922347D01*
X103473580Y-87878705D01*
X103466750Y-87846977D01*
X103456694Y-87824345D01*
X103441898Y-87806943D01*
X103422585Y-87796225D01*
X103397282Y-87792361D01*
X103373354Y-87794976D01*
X103352924Y-87802428D01*
X103335319Y-87814475D01*
X103320071Y-87831342D01*
X103304847Y-87859149D01*
X103295212Y-87893920D01*
X103291739Y-87937551D01*
X103291739Y-88198000D01*
X103228541Y-88198000D01*
X103228541Y-87922347D01*
X103225939Y-87878422D01*
X103219101Y-87846664D01*
X103209063Y-87824161D01*
X103194260Y-87806915D01*
X103174738Y-87796231D01*
X103148948Y-87792361D01*
X103125408Y-87794971D01*
X103105209Y-87802430D01*
X103087701Y-87814529D01*
X103072439Y-87831525D01*
X103057194Y-87859461D01*
X103047569Y-87894191D01*
X103044107Y-87937551D01*
X103044107Y-88198000D01*
X102980909Y-88198000D01*
X102980909Y-87738432D01*
X103044107Y-87738432D01*
X103044107Y-87808774D01*
X103059933Y-87782434D01*
X103077093Y-87761996D01*
X103095673Y-87746712D01*
X103116332Y-87735852D01*
X103139935Y-87729081D01*
X103167053Y-87726709D01*
X103194150Y-87729686D01*
X103217531Y-87738212D01*
X103237914Y-87752061D01*
X103255306Y-87770947D01*
X103269710Y-87795157D01*
X103281145Y-87825627D01*
G37*
G36*
X86403404Y-100689317D02*
G01*
X86438948Y-100698326D01*
X86467140Y-100712059D01*
X86489328Y-100729988D01*
X86507495Y-100753642D01*
X86520830Y-100782786D01*
X86529322Y-100818596D01*
X86532376Y-100862685D01*
X86529686Y-100900478D01*
X86522099Y-100932137D01*
X86509997Y-100958819D01*
X86493173Y-100981324D01*
X86471771Y-100998961D01*
X86444937Y-101011832D01*
X86465935Y-101025164D01*
X86488137Y-101050301D01*
X86508089Y-101083149D01*
X86530330Y-101131230D01*
X86600367Y-101298000D01*
X86526239Y-101298000D01*
X86460996Y-101141452D01*
X86442297Y-101101351D01*
X86426073Y-101075468D01*
X86411964Y-101060119D01*
X86395330Y-101049493D01*
X86374153Y-101042598D01*
X86347270Y-101040079D01*
X86272135Y-101040079D01*
X86272135Y-101298000D01*
X86203136Y-101298000D01*
X86203136Y-100972082D01*
X86272135Y-100972082D01*
X86358872Y-100972082D01*
X86391365Y-100968545D01*
X86415853Y-100958987D01*
X86434190Y-100944311D01*
X86447877Y-100923867D01*
X86456512Y-100897278D01*
X86459652Y-100862649D01*
X86456504Y-100828029D01*
X86447864Y-100801590D01*
X86434190Y-100781389D01*
X86415880Y-100766942D01*
X86391394Y-100757515D01*
X86358872Y-100754022D01*
X86272135Y-100754022D01*
X86272135Y-100972082D01*
X86203136Y-100972082D01*
X86203136Y-100686025D01*
X86358872Y-100686025D01*
X86403404Y-100689317D01*
G37*
G36*
X86707284Y-101227658D02*
G01*
X86820002Y-101227658D01*
X86820002Y-100761056D01*
X86697362Y-100791538D01*
X86697362Y-100716506D01*
X86819300Y-100686025D01*
X86888299Y-100686025D01*
X86888299Y-101227658D01*
X87001017Y-101227658D01*
X87001017Y-101298000D01*
X86707284Y-101298000D01*
X86707284Y-101227658D01*
G37*
G36*
X111052966Y-103286025D02*
G01*
X111323831Y-103286025D01*
X111323831Y-103356367D01*
X111116163Y-103356367D01*
X111116163Y-103504781D01*
X111146205Y-103495475D01*
X111176278Y-103492361D01*
X111218735Y-103496253D01*
X111254724Y-103507250D01*
X111285366Y-103524731D01*
X111311527Y-103548635D01*
X111332978Y-103578603D01*
X111348425Y-103613314D01*
X111358034Y-103653698D01*
X111361414Y-103701042D01*
X111357902Y-103749853D01*
X111347980Y-103790849D01*
X111332122Y-103825505D01*
X111310184Y-103854878D01*
X111283513Y-103877814D01*
X111251327Y-103894892D01*
X111212522Y-103905811D01*
X111165714Y-103909723D01*
X111133494Y-103908130D01*
X111100288Y-103903275D01*
X111066845Y-103895332D01*
X111031472Y-103883931D01*
X111031472Y-103801866D01*
X111062824Y-103818441D01*
X111095006Y-103830112D01*
X111128389Y-103837018D01*
X111164340Y-103839381D01*
X111193803Y-103836790D01*
X111218734Y-103829483D01*
X111239904Y-103817907D01*
X111257916Y-103802159D01*
X111272808Y-103782206D01*
X111283478Y-103759154D01*
X111290093Y-103732388D01*
X111292415Y-103701042D01*
X111290092Y-103669695D01*
X111283477Y-103642937D01*
X111272807Y-103619897D01*
X111257916Y-103599962D01*
X111239902Y-103584198D01*
X111218728Y-103572612D01*
X111193787Y-103565297D01*
X111164310Y-103562703D01*
X111136751Y-103564554D01*
X111109141Y-103570140D01*
X111081755Y-103579439D01*
X111052966Y-103593184D01*
X111052966Y-103286025D01*
G37*
G36*
X96686949Y-110357428D02*
G01*
X96719792Y-110364093D01*
X96746643Y-110374377D01*
X96768510Y-110387932D01*
X96787036Y-110405925D01*
X96800205Y-110427054D01*
X96808352Y-110451940D01*
X96811222Y-110481538D01*
X96808527Y-110512165D01*
X96801067Y-110536667D01*
X96789362Y-110556307D01*
X96773049Y-110572094D01*
X96752011Y-110583668D01*
X96725126Y-110590928D01*
X96757409Y-110601208D01*
X96783411Y-110616368D01*
X96804200Y-110636388D01*
X96819592Y-110660778D01*
X96829060Y-110689202D01*
X96832379Y-110722698D01*
X96829241Y-110755994D01*
X96820342Y-110783982D01*
X96806001Y-110807716D01*
X96785912Y-110827905D01*
X96762034Y-110843231D01*
X96732807Y-110854813D01*
X96697146Y-110862299D01*
X96653746Y-110865000D01*
X96470686Y-110865000D01*
X96470686Y-110808335D01*
X96539685Y-110808335D01*
X96650327Y-110808335D01*
X96686854Y-110805336D01*
X96713566Y-110797371D01*
X96732820Y-110785437D01*
X96747179Y-110768368D01*
X96756288Y-110745612D01*
X96759626Y-110715340D01*
X96756270Y-110684847D01*
X96747149Y-110662130D01*
X96732820Y-110645273D01*
X96713595Y-110633527D01*
X96686885Y-110625672D01*
X96650327Y-110622711D01*
X96539685Y-110622711D01*
X96539685Y-110808335D01*
X96470686Y-110808335D01*
X96470686Y-110566046D01*
X96539685Y-110566046D01*
X96641809Y-110566046D01*
X96675130Y-110563537D01*
X96699536Y-110556894D01*
X96717127Y-110547026D01*
X96730529Y-110532642D01*
X96738866Y-110513743D01*
X96741887Y-110488866D01*
X96738878Y-110464210D01*
X96730552Y-110445355D01*
X96717127Y-110430888D01*
X96699521Y-110420919D01*
X96675113Y-110414215D01*
X96641809Y-110411685D01*
X96539685Y-110411685D01*
X96539685Y-110566046D01*
X96470686Y-110566046D01*
X96470686Y-110355020D01*
X96646907Y-110355020D01*
X96686949Y-110357428D01*
G37*
G36*
X97187776Y-110348342D02*
G01*
X97225537Y-110357236D01*
X97259219Y-110371609D01*
X97289439Y-110391481D01*
X97316621Y-110417211D01*
X97338997Y-110446789D01*
X97356699Y-110480253D01*
X97369759Y-110518156D01*
X97377955Y-110561196D01*
X97380827Y-110610193D01*
X97377958Y-110659023D01*
X97369769Y-110701950D01*
X97356714Y-110739786D01*
X97339010Y-110773224D01*
X97316621Y-110802809D01*
X97289439Y-110828539D01*
X97259219Y-110848411D01*
X97225537Y-110862784D01*
X97187776Y-110871677D01*
X97145163Y-110874769D01*
X97102394Y-110871682D01*
X97064506Y-110862803D01*
X97030722Y-110848459D01*
X97000424Y-110828639D01*
X96973185Y-110802992D01*
X96950744Y-110773464D01*
X96932991Y-110740045D01*
X96919896Y-110702182D01*
X96911677Y-110659173D01*
X96908797Y-110610193D01*
X96981551Y-110610193D01*
X96984686Y-110658531D01*
X96993478Y-110699187D01*
X97007265Y-110733405D01*
X97025759Y-110762204D01*
X97049877Y-110786714D01*
X97077310Y-110803933D01*
X97108725Y-110814446D01*
X97145163Y-110818105D01*
X97181586Y-110814441D01*
X97212922Y-110803922D01*
X97240226Y-110786705D01*
X97264170Y-110762204D01*
X97282527Y-110733424D01*
X97296220Y-110699214D01*
X97304957Y-110658550D01*
X97308073Y-110610193D01*
X97304952Y-110561634D01*
X97296208Y-110520852D01*
X97282514Y-110486592D01*
X97264170Y-110457816D01*
X97240226Y-110433315D01*
X97212922Y-110416098D01*
X97181586Y-110405579D01*
X97145163Y-110401915D01*
X97108725Y-110405574D01*
X97077310Y-110416087D01*
X97049877Y-110433306D01*
X97025759Y-110457816D01*
X97007278Y-110486611D01*
X96993490Y-110520878D01*
X96984690Y-110561653D01*
X96981551Y-110610193D01*
X96908797Y-110610193D01*
X96911676Y-110561206D01*
X96919892Y-110518171D01*
X96932987Y-110480268D01*
X96950740Y-110446799D01*
X96973185Y-110417211D01*
X97000434Y-110391491D01*
X97030737Y-110371620D01*
X97064520Y-110357243D01*
X97102404Y-110348344D01*
X97145163Y-110345251D01*
X97187776Y-110348342D01*
G37*
G36*
X97738300Y-110348342D02*
G01*
X97776060Y-110357236D01*
X97809742Y-110371609D01*
X97839963Y-110391481D01*
X97867145Y-110417211D01*
X97889520Y-110446789D01*
X97907223Y-110480253D01*
X97920282Y-110518156D01*
X97928478Y-110561196D01*
X97931350Y-110610193D01*
X97928482Y-110659023D01*
X97920293Y-110701950D01*
X97907238Y-110739786D01*
X97889533Y-110773224D01*
X97867145Y-110802809D01*
X97839963Y-110828539D01*
X97809742Y-110848411D01*
X97776060Y-110862784D01*
X97738300Y-110871677D01*
X97695686Y-110874769D01*
X97652918Y-110871682D01*
X97615029Y-110862803D01*
X97581245Y-110848459D01*
X97550947Y-110828639D01*
X97523709Y-110802992D01*
X97501267Y-110773464D01*
X97483515Y-110740045D01*
X97470419Y-110702182D01*
X97462201Y-110659173D01*
X97459320Y-110610193D01*
X97532074Y-110610193D01*
X97535209Y-110658531D01*
X97544001Y-110699187D01*
X97557788Y-110733405D01*
X97576282Y-110762204D01*
X97600400Y-110786714D01*
X97627834Y-110803933D01*
X97659248Y-110814446D01*
X97695686Y-110818105D01*
X97732110Y-110814441D01*
X97763445Y-110803922D01*
X97790749Y-110786705D01*
X97814694Y-110762204D01*
X97833050Y-110733424D01*
X97846744Y-110699214D01*
X97855480Y-110658550D01*
X97858596Y-110610193D01*
X97855475Y-110561634D01*
X97846732Y-110520852D01*
X97833037Y-110486592D01*
X97814694Y-110457816D01*
X97790749Y-110433315D01*
X97763445Y-110416098D01*
X97732110Y-110405579D01*
X97695686Y-110401915D01*
X97659248Y-110405574D01*
X97627834Y-110416087D01*
X97600400Y-110433306D01*
X97576282Y-110457816D01*
X97557801Y-110486611D01*
X97544013Y-110520878D01*
X97535214Y-110561653D01*
X97532074Y-110610193D01*
X97459320Y-110610193D01*
X97462199Y-110561206D01*
X97470416Y-110518171D01*
X97483510Y-110480268D01*
X97501264Y-110446799D01*
X97523709Y-110417211D01*
X97550957Y-110391491D01*
X97581260Y-110371620D01*
X97615044Y-110357243D01*
X97652927Y-110348344D01*
X97695686Y-110345251D01*
X97738300Y-110348342D01*
G37*
G36*
X97968506Y-110355020D02*
G01*
X98399899Y-110355020D01*
X98399899Y-110413639D01*
X98218854Y-110413639D01*
X98218854Y-110865000D01*
X98149520Y-110865000D01*
X98149520Y-110413639D01*
X97968506Y-110413639D01*
X97968506Y-110355020D01*
G37*
G36*
X88295217Y-95549695D02*
G01*
X88215496Y-95549695D01*
X88234449Y-95510629D01*
X88247223Y-95475567D01*
X88255146Y-95440907D01*
X88257701Y-95408278D01*
X88254360Y-95371192D01*
X88245345Y-95342832D01*
X88231689Y-95321328D01*
X88211971Y-95304387D01*
X88187800Y-95294301D01*
X88157720Y-95290767D01*
X88132013Y-95293250D01*
X88112237Y-95300111D01*
X88096977Y-95311100D01*
X88085796Y-95325861D01*
X88074573Y-95350306D01*
X88063857Y-95388128D01*
X88053563Y-95429802D01*
X88041964Y-95468734D01*
X88027434Y-95499887D01*
X88010440Y-95524519D01*
X87991207Y-95543680D01*
X87967647Y-95559408D01*
X87940391Y-95570798D01*
X87908727Y-95577907D01*
X87871699Y-95580408D01*
X87827919Y-95577003D01*
X87791691Y-95567414D01*
X87761500Y-95552073D01*
X87736328Y-95530705D01*
X87717516Y-95505285D01*
X87703115Y-95473482D01*
X87693701Y-95433940D01*
X87690276Y-95385045D01*
X87692705Y-95348373D01*
X87700351Y-95308016D01*
X87712618Y-95267087D01*
X87730136Y-95223478D01*
X87814547Y-95223478D01*
X87789709Y-95265757D01*
X87772451Y-95305788D01*
X87761752Y-95346137D01*
X87758273Y-95385045D01*
X87761846Y-95423899D01*
X87771497Y-95453643D01*
X87786153Y-95476239D01*
X87801562Y-95490267D01*
X87819569Y-95500150D01*
X87840683Y-95506224D01*
X87865728Y-95508357D01*
X87894614Y-95505595D01*
X87917691Y-95497849D01*
X87936289Y-95485306D01*
X87950508Y-95468657D01*
X87963413Y-95444214D01*
X87974428Y-95409652D01*
X87984320Y-95367642D01*
X87996098Y-95328226D01*
X88009916Y-95297414D01*
X88025313Y-95273736D01*
X88042022Y-95255932D01*
X88062911Y-95241217D01*
X88087548Y-95230523D01*
X88116678Y-95223811D01*
X88151309Y-95221432D01*
X88190817Y-95224599D01*
X88224568Y-95233645D01*
X88253716Y-95248346D01*
X88279023Y-95269090D01*
X88298523Y-95293699D01*
X88313075Y-95323137D01*
X88322374Y-95358335D01*
X88325698Y-95400432D01*
X88323817Y-95436392D01*
X88318078Y-95473521D01*
X88308667Y-95510806D01*
X88295217Y-95549695D01*
G37*
G36*
X88313974Y-95829780D02*
G01*
X88310325Y-95891721D01*
X88300221Y-95942916D01*
X88284710Y-95985002D01*
X88264510Y-96019413D01*
X88239969Y-96047340D01*
X88209144Y-96070999D01*
X88171849Y-96089964D01*
X88126999Y-96104229D01*
X88073157Y-96113391D01*
X88008610Y-96116674D01*
X87943706Y-96113373D01*
X87889595Y-96104163D01*
X87844545Y-96089827D01*
X87807109Y-96070772D01*
X87776188Y-96047004D01*
X87751542Y-96018927D01*
X87731284Y-95984446D01*
X87715751Y-95942395D01*
X87705645Y-95891374D01*
X87702625Y-95840344D01*
X87769997Y-95840344D01*
X87772795Y-95884201D01*
X87780554Y-95920490D01*
X87792511Y-95950388D01*
X87808176Y-95974913D01*
X87827369Y-95994888D01*
X87850936Y-96011382D01*
X87879785Y-96024774D01*
X87914858Y-96034956D01*
X87957338Y-96041547D01*
X88008610Y-96043920D01*
X88059497Y-96041551D01*
X88101695Y-96034969D01*
X88136570Y-96024794D01*
X88165293Y-96011400D01*
X88188788Y-95994888D01*
X88207912Y-95974923D01*
X88223527Y-95950403D01*
X88235449Y-95920505D01*
X88243187Y-95884212D01*
X88245977Y-95840344D01*
X88245977Y-95757026D01*
X87769997Y-95757026D01*
X87769997Y-95840344D01*
X87702625Y-95840344D01*
X87702000Y-95829780D01*
X87702000Y-95688028D01*
X88313974Y-95688028D01*
X88313974Y-95829780D01*
G37*
G36*
X88313974Y-96346110D02*
G01*
X88313974Y-96424328D01*
X87702000Y-96618685D01*
X87702000Y-96546938D01*
X87859096Y-96500502D01*
X87859096Y-96478978D01*
X87927094Y-96478978D01*
X88232239Y-96385036D01*
X87927094Y-96291460D01*
X87927094Y-96478978D01*
X87859096Y-96478978D01*
X87859096Y-96270608D01*
X87702000Y-96224171D01*
X87702000Y-96151418D01*
X88313974Y-96346110D01*
G37*
G36*
X107825471Y-87436025D02*
G01*
X108096336Y-87436025D01*
X108096336Y-87506367D01*
X107888668Y-87506367D01*
X107888668Y-87654781D01*
X107918710Y-87645475D01*
X107948783Y-87642361D01*
X107991240Y-87646253D01*
X108027229Y-87657250D01*
X108057871Y-87674731D01*
X108084032Y-87698635D01*
X108105483Y-87728603D01*
X108120930Y-87763314D01*
X108130539Y-87803698D01*
X108133919Y-87851042D01*
X108130407Y-87899853D01*
X108120485Y-87940849D01*
X108104627Y-87975505D01*
X108082689Y-88004878D01*
X108056018Y-88027814D01*
X108023832Y-88044892D01*
X107985027Y-88055811D01*
X107938219Y-88059723D01*
X107905999Y-88058130D01*
X107872793Y-88053275D01*
X107839350Y-88045332D01*
X107803977Y-88033931D01*
X107803977Y-87951866D01*
X107835329Y-87968441D01*
X107867511Y-87980112D01*
X107900894Y-87987018D01*
X107936845Y-87989381D01*
X107966308Y-87986790D01*
X107991239Y-87979483D01*
X108012409Y-87967907D01*
X108030421Y-87952159D01*
X108045313Y-87932206D01*
X108055983Y-87909154D01*
X108062598Y-87882388D01*
X108064920Y-87851042D01*
X108062597Y-87819695D01*
X108055982Y-87792937D01*
X108045312Y-87769897D01*
X108030421Y-87749962D01*
X108012407Y-87734198D01*
X107991233Y-87722612D01*
X107966292Y-87715297D01*
X107936815Y-87712703D01*
X107909256Y-87714554D01*
X107881646Y-87720140D01*
X107854260Y-87729439D01*
X107825471Y-87743184D01*
X107825471Y-87436025D01*
G37*
G36*
X88195217Y-97413198D02*
G01*
X88115496Y-97413198D01*
X88134449Y-97374132D01*
X88147223Y-97339070D01*
X88155146Y-97304410D01*
X88157701Y-97271781D01*
X88154360Y-97234695D01*
X88145345Y-97206335D01*
X88131689Y-97184831D01*
X88111971Y-97167890D01*
X88087800Y-97157804D01*
X88057720Y-97154270D01*
X88032013Y-97156753D01*
X88012237Y-97163614D01*
X87996977Y-97174603D01*
X87985796Y-97189364D01*
X87974573Y-97213809D01*
X87963857Y-97251631D01*
X87953563Y-97293305D01*
X87941964Y-97332237D01*
X87927434Y-97363390D01*
X87910440Y-97388022D01*
X87891207Y-97407183D01*
X87867647Y-97422911D01*
X87840391Y-97434301D01*
X87808727Y-97441410D01*
X87771699Y-97443911D01*
X87727919Y-97440506D01*
X87691691Y-97430917D01*
X87661500Y-97415576D01*
X87636328Y-97394208D01*
X87617516Y-97368788D01*
X87603115Y-97336985D01*
X87593701Y-97297443D01*
X87590276Y-97248548D01*
X87592705Y-97211876D01*
X87600351Y-97171519D01*
X87612618Y-97130590D01*
X87630136Y-97086981D01*
X87714547Y-97086981D01*
X87689709Y-97129260D01*
X87672451Y-97169291D01*
X87661752Y-97209640D01*
X87658273Y-97248548D01*
X87661846Y-97287402D01*
X87671497Y-97317146D01*
X87686153Y-97339742D01*
X87701562Y-97353770D01*
X87719569Y-97363653D01*
X87740683Y-97369727D01*
X87765728Y-97371860D01*
X87794614Y-97369098D01*
X87817691Y-97361352D01*
X87836289Y-97348809D01*
X87850508Y-97332160D01*
X87863413Y-97307717D01*
X87874428Y-97273155D01*
X87884320Y-97231145D01*
X87896098Y-97191729D01*
X87909916Y-97160917D01*
X87925313Y-97137239D01*
X87942022Y-97119435D01*
X87962911Y-97104720D01*
X87987548Y-97094026D01*
X88016678Y-97087314D01*
X88051309Y-97084935D01*
X88090817Y-97088102D01*
X88124568Y-97097148D01*
X88153716Y-97111849D01*
X88179023Y-97132593D01*
X88198523Y-97157202D01*
X88213075Y-97186640D01*
X88222374Y-97221838D01*
X88225698Y-97263935D01*
X88223817Y-97299895D01*
X88218078Y-97337024D01*
X88208667Y-97374309D01*
X88195217Y-97413198D01*
G37*
G36*
X88167080Y-97933374D02*
G01*
X88080325Y-97933374D01*
X88104496Y-97909166D01*
X88123750Y-97884448D01*
X88138467Y-97859094D01*
X88149106Y-97832395D01*
X88155529Y-97804532D01*
X88157701Y-97775257D01*
X88154820Y-97740058D01*
X88146649Y-97709764D01*
X88133662Y-97683603D01*
X88116003Y-97660948D01*
X88093477Y-97641351D01*
X88060191Y-97622118D01*
X88019264Y-97607639D01*
X87969108Y-97598289D01*
X87907767Y-97594914D01*
X87846671Y-97598285D01*
X87796656Y-97607627D01*
X87755788Y-97622105D01*
X87722497Y-97641351D01*
X87699971Y-97660948D01*
X87682312Y-97683603D01*
X87669324Y-97709764D01*
X87661154Y-97740058D01*
X87658273Y-97775257D01*
X87660445Y-97804532D01*
X87666868Y-97832395D01*
X87677507Y-97859094D01*
X87692224Y-97884448D01*
X87711478Y-97909166D01*
X87735649Y-97933374D01*
X87648894Y-97933374D01*
X87623163Y-97895947D01*
X87604930Y-97856682D01*
X87593997Y-97815406D01*
X87590276Y-97771136D01*
X87594026Y-97724698D01*
X87604741Y-97684033D01*
X87621895Y-97648265D01*
X87645356Y-97616676D01*
X87675382Y-97588747D01*
X87710514Y-97565551D01*
X87750518Y-97547206D01*
X87796098Y-97533663D01*
X87848157Y-97525150D01*
X87907767Y-97522161D01*
X87967579Y-97525154D01*
X88019770Y-97533675D01*
X88065421Y-97547223D01*
X88105445Y-97565565D01*
X88140555Y-97588747D01*
X88170596Y-97616678D01*
X88194066Y-97648268D01*
X88211228Y-97684036D01*
X88221947Y-97724699D01*
X88225698Y-97771136D01*
X88221964Y-97815995D01*
X88211043Y-97857384D01*
X88192775Y-97896536D01*
X88167080Y-97933374D01*
G37*
G36*
X88213974Y-98040016D02*
G01*
X88213974Y-98109015D01*
X87672341Y-98109015D01*
X87672341Y-98357318D01*
X87602000Y-98357318D01*
X87602000Y-98040016D01*
X88213974Y-98040016D01*
G37*
G36*
X110927700Y-105568052D02*
G01*
X110959141Y-105580012D01*
X110984594Y-105597643D01*
X111005064Y-105620918D01*
X111020330Y-105649259D01*
X111029656Y-105681923D01*
X111032908Y-105720056D01*
X111029409Y-105764293D01*
X111019479Y-105801535D01*
X111003455Y-105833179D01*
X110980976Y-105860154D01*
X110954296Y-105880635D01*
X110921654Y-105896112D01*
X110881847Y-105906116D01*
X110833422Y-105909723D01*
X110801137Y-105907852D01*
X110767324Y-105902103D01*
X110733252Y-105892729D01*
X110697135Y-105879242D01*
X110697135Y-105799521D01*
X110726962Y-105816740D01*
X110759966Y-105829343D01*
X110794653Y-105836837D01*
X110831377Y-105839381D01*
X110874048Y-105835423D01*
X110906233Y-105824795D01*
X110930265Y-105808753D01*
X110944963Y-105791949D01*
X110955438Y-105771981D01*
X110961944Y-105748218D01*
X110964245Y-105719690D01*
X110962136Y-105693398D01*
X110956126Y-105671062D01*
X110946380Y-105651888D01*
X110932646Y-105635353D01*
X110910225Y-105619164D01*
X110881479Y-105608721D01*
X110844688Y-105604908D01*
X110785276Y-105604908D01*
X110785276Y-105536911D01*
X110847436Y-105536911D01*
X110880867Y-105533772D01*
X110906224Y-105525319D01*
X110925288Y-105512511D01*
X110940116Y-105494145D01*
X110949095Y-105471197D01*
X110952277Y-105442206D01*
X110949000Y-105412434D01*
X110939741Y-105388811D01*
X110924433Y-105369849D01*
X110904751Y-105356591D01*
X110878758Y-105347872D01*
X110844688Y-105344643D01*
X110815920Y-105346289D01*
X110783902Y-105351494D01*
X110750829Y-105359944D01*
X110712522Y-105372780D01*
X110712522Y-105300093D01*
X110751347Y-105288606D01*
X110786131Y-105280749D01*
X110820027Y-105275858D01*
X110850855Y-105274301D01*
X110890384Y-105277348D01*
X110923636Y-105285893D01*
X110951622Y-105299287D01*
X110975175Y-105317239D01*
X110995261Y-105340689D01*
X111009353Y-105367356D01*
X111017949Y-105397887D01*
X111020940Y-105433303D01*
X111018118Y-105466197D01*
X111010000Y-105494564D01*
X110996668Y-105519362D01*
X110978831Y-105539844D01*
X110956162Y-105556109D01*
X110927700Y-105568052D01*
G37*
G36*
X111163669Y-105794831D02*
G01*
X111235752Y-105794831D01*
X111235752Y-105898000D01*
X111163669Y-105898000D01*
X111163669Y-105794831D01*
G37*
G36*
X111594972Y-105568052D02*
G01*
X111626413Y-105580012D01*
X111651865Y-105597643D01*
X111672336Y-105620918D01*
X111687602Y-105649259D01*
X111696927Y-105681923D01*
X111700179Y-105720056D01*
X111696680Y-105764293D01*
X111686750Y-105801535D01*
X111670726Y-105833179D01*
X111648247Y-105860154D01*
X111621567Y-105880635D01*
X111588926Y-105896112D01*
X111549119Y-105906116D01*
X111500694Y-105909723D01*
X111468409Y-105907852D01*
X111434596Y-105902103D01*
X111400524Y-105892729D01*
X111364406Y-105879242D01*
X111364406Y-105799521D01*
X111394233Y-105816740D01*
X111427238Y-105829343D01*
X111461925Y-105836837D01*
X111498648Y-105839381D01*
X111541320Y-105835423D01*
X111573504Y-105824795D01*
X111597536Y-105808753D01*
X111612234Y-105791949D01*
X111622709Y-105771981D01*
X111629216Y-105748218D01*
X111631517Y-105719690D01*
X111629408Y-105693398D01*
X111623398Y-105671062D01*
X111613651Y-105651888D01*
X111599918Y-105635353D01*
X111577497Y-105619164D01*
X111548750Y-105608721D01*
X111511960Y-105604908D01*
X111452548Y-105604908D01*
X111452548Y-105536911D01*
X111514707Y-105536911D01*
X111548138Y-105533772D01*
X111573495Y-105525319D01*
X111592560Y-105512511D01*
X111607387Y-105494145D01*
X111616366Y-105471197D01*
X111619549Y-105442206D01*
X111616271Y-105412434D01*
X111607013Y-105388811D01*
X111591705Y-105369849D01*
X111572023Y-105356591D01*
X111546029Y-105347872D01*
X111511960Y-105344643D01*
X111483192Y-105346289D01*
X111451174Y-105351494D01*
X111418101Y-105359944D01*
X111379794Y-105372780D01*
X111379794Y-105300093D01*
X111418618Y-105288606D01*
X111453402Y-105280749D01*
X111487298Y-105275858D01*
X111518127Y-105274301D01*
X111557655Y-105277348D01*
X111590907Y-105285893D01*
X111618894Y-105299287D01*
X111642446Y-105317239D01*
X111662532Y-105340689D01*
X111676624Y-105367356D01*
X111685220Y-105397887D01*
X111688211Y-105433303D01*
X111685389Y-105466197D01*
X111677271Y-105494564D01*
X111663940Y-105519362D01*
X111646102Y-105539844D01*
X111623434Y-105556109D01*
X111594972Y-105568052D01*
G37*
D13*
%TO.C,R1*%
X104920000Y-102546359D02*
X104920000Y-102853641D01*
X105680000Y-102546359D02*
X105680000Y-102853641D01*
D11*
%TO.C,D9*%
X108500000Y-85650000D02*
X108500000Y-87500000D01*
X111100000Y-85650000D02*
X108500000Y-85650000D01*
X109700000Y-86650000D02*
X109450000Y-86600000D01*
X109700000Y-86550000D01*
X109700000Y-86650000D01*
G36*
X109700000Y-86650000D02*
G01*
X109450000Y-86600000D01*
X109700000Y-86550000D01*
X109700000Y-86650000D01*
G37*
D13*
%TO.C,C38*%
X95242164Y-107890000D02*
X95457836Y-107890000D01*
X95242164Y-108610000D02*
X95457836Y-108610000D01*
D14*
%TO.C,IC1*%
X88100000Y-99050000D02*
G75*
G02*
X87850000Y-99050000I-125000J0D01*
G01*
X87850000Y-99050000D02*
G75*
G02*
X88100000Y-99050000I125000J0D01*
G01*
D13*
%TO.C,R2*%
X106546359Y-102920000D02*
X106853641Y-102920000D01*
X106546359Y-103680000D02*
X106853641Y-103680000D01*
%TO.C,C81*%
X110590000Y-99392164D02*
X110590000Y-99607836D01*
X111310000Y-99392164D02*
X111310000Y-99607836D01*
%TO.C,C35*%
X99007836Y-100540000D02*
X98792164Y-100540000D01*
X99007836Y-101260000D02*
X98792164Y-101260000D01*
%TO.C,L8*%
X88590000Y-103840000D02*
X92810000Y-103840000D01*
X92810000Y-108060000D02*
X88590000Y-108060000D01*
%TO.C,C22*%
X109457836Y-102640000D02*
X109242164Y-102640000D01*
X109457836Y-103360000D02*
X109242164Y-103360000D01*
%TO.C,C30*%
X96340000Y-90057836D02*
X96340000Y-89842164D01*
X97060000Y-90057836D02*
X97060000Y-89842164D01*
%TO.C,C87*%
X107392164Y-101690000D02*
X107607836Y-101690000D01*
X107392164Y-102410000D02*
X107607836Y-102410000D01*
%TO.C,D13*%
X103450000Y-107040000D02*
X103450000Y-109700000D01*
X105150000Y-107040000D02*
X103450000Y-107040000D01*
X105150000Y-107040000D02*
X105150000Y-109700000D01*
%TO.C,C14*%
X95290000Y-100507836D02*
X95290000Y-100292164D01*
X96010000Y-100507836D02*
X96010000Y-100292164D01*
D14*
%TO.C,IC5*%
X105725000Y-103700000D02*
G75*
G02*
X105475000Y-103700000I-125000J0D01*
G01*
X105475000Y-103700000D02*
G75*
G02*
X105725000Y-103700000I125000J0D01*
G01*
D11*
%TO.C,D8*%
X114350000Y-88900000D02*
X112500000Y-88900000D01*
X114350000Y-91500000D02*
X114350000Y-88900000D01*
X113450000Y-90100000D02*
X113350000Y-90100000D01*
X113400000Y-89850000D01*
X113450000Y-90100000D01*
G36*
X113450000Y-90100000D02*
G01*
X113350000Y-90100000D01*
X113400000Y-89850000D01*
X113450000Y-90100000D01*
G37*
D13*
%TO.C,C79*%
X107290000Y-91207836D02*
X107290000Y-90992164D01*
X108010000Y-91207836D02*
X108010000Y-90992164D01*
%TO.C,C21*%
X109457836Y-101690000D02*
X109242164Y-101690000D01*
X109457836Y-102410000D02*
X109242164Y-102410000D01*
%TO.C,R4*%
X97203641Y-100070000D02*
X96896359Y-100070000D01*
X97203641Y-100830000D02*
X96896359Y-100830000D01*
%TO.C,C31*%
X107240000Y-110842164D02*
X107240000Y-111057836D01*
X107960000Y-110842164D02*
X107960000Y-111057836D01*
%TO.C,C32*%
X102357836Y-108890000D02*
X102142164Y-108890000D01*
X102357836Y-109610000D02*
X102142164Y-109610000D01*
%TO.C,C77*%
X101340000Y-92357836D02*
X101340000Y-92142164D01*
X102060000Y-92357836D02*
X102060000Y-92142164D01*
D11*
%TO.C,D3*%
X87550000Y-88900000D02*
X85700000Y-88900000D01*
X87550000Y-91500000D02*
X87550000Y-88900000D01*
X86650000Y-90100000D02*
X86550000Y-90100000D01*
X86600000Y-89850000D01*
X86650000Y-90100000D01*
G36*
X86650000Y-90100000D02*
G01*
X86550000Y-90100000D01*
X86600000Y-89850000D01*
X86650000Y-90100000D01*
G37*
D13*
%TO.C,R24*%
X101320000Y-94253641D02*
X101320000Y-93946359D01*
X102080000Y-94253641D02*
X102080000Y-93946359D01*
D11*
%TO.C,SW1*%
X94400000Y-111000000D02*
X94400000Y-113700000D01*
X94400000Y-111000000D02*
X99800000Y-111000000D01*
X96000000Y-111700000D02*
X96500000Y-111700000D01*
X96500000Y-111700000D02*
X97700000Y-111300000D01*
X97700000Y-111700000D02*
X98200000Y-111700000D01*
X99800000Y-111000000D02*
X99800000Y-113700000D01*
D13*
%TO.C,C80*%
X103290000Y-91207836D02*
X103290000Y-90992164D01*
X104010000Y-91207836D02*
X104010000Y-90992164D01*
%TO.C,J3*%
X88600000Y-92500000D02*
X89400000Y-92500000D01*
X88600000Y-92700000D02*
X88600000Y-92500000D01*
X88600000Y-95500000D02*
X88600000Y-95300000D01*
X89400000Y-92500000D02*
X89400000Y-92000000D01*
X89400000Y-95500000D02*
X88600000Y-95500000D01*
X90800000Y-92500000D02*
X90800000Y-92000000D01*
X90800000Y-92500000D02*
X91400000Y-92500000D01*
X91400000Y-92500000D02*
X91600000Y-92700000D01*
X91600000Y-95300000D02*
X91600000Y-95500000D01*
X91600000Y-95500000D02*
X90800000Y-95500000D01*
%TO.C,C11*%
X100390000Y-90492164D02*
X100390000Y-90707836D01*
X101110000Y-90492164D02*
X101110000Y-90707836D01*
%TO.C,R6*%
X95503641Y-110070000D02*
X95196359Y-110070000D01*
X95503641Y-110830000D02*
X95196359Y-110830000D01*
%TO.C,R25*%
X102270000Y-92403641D02*
X102270000Y-92096359D01*
X103030000Y-92403641D02*
X103030000Y-92096359D01*
%TO.C,D12*%
X94200000Y-87300000D02*
X94200000Y-88700000D01*
X94200000Y-87300000D02*
X96860000Y-87300000D01*
X94200000Y-88700000D02*
X96860000Y-88700000D01*
D11*
%TO.C,D5*%
X88900000Y-114350000D02*
X91500000Y-114350000D01*
X91500000Y-114350000D02*
X91500000Y-112500000D01*
X90550000Y-113400000D02*
X90300000Y-113450000D01*
X90300000Y-113350000D01*
X90550000Y-113400000D01*
G36*
X90550000Y-113400000D02*
G01*
X90300000Y-113450000D01*
X90300000Y-113350000D01*
X90550000Y-113400000D01*
G37*
D13*
%TO.C,C86*%
X102290000Y-95842164D02*
X102290000Y-96057836D01*
X103010000Y-95842164D02*
X103010000Y-96057836D01*
%TO.C,C13*%
X98742164Y-90690000D02*
X98957836Y-90690000D01*
X98742164Y-91410000D02*
X98957836Y-91410000D01*
%TO.C,L1*%
D11*
X97200000Y-87800000D02*
X100400000Y-87800000D01*
X100400000Y-89600000D01*
X97200000Y-89600000D01*
X97200000Y-87800000D01*
D15*
X96875000Y-87900000D02*
G75*
G02*
X96725000Y-87900000I-75000J0D01*
G01*
X96725000Y-87900000D02*
G75*
G02*
X96875000Y-87900000I75000J0D01*
G01*
D13*
%TO.C,JP1*%
X91750000Y-90442500D02*
X91750000Y-89842500D01*
X92400000Y-89142500D02*
X95200000Y-89142500D01*
X95000000Y-88942500D02*
X94700000Y-88642500D01*
X95000000Y-88942500D02*
X95300000Y-88642500D01*
X95200000Y-91142500D02*
X92400000Y-91142500D01*
X95300000Y-88642500D02*
X94700000Y-88642500D01*
X95850000Y-89842500D02*
X95850000Y-90442500D01*
X91750000Y-89842500D02*
G75*
G02*
X92450000Y-89142500I700000J0D01*
G01*
X92450000Y-91142500D02*
G75*
G02*
X91750000Y-90442500I0J700000D01*
G01*
X95150000Y-89142500D02*
G75*
G02*
X95850000Y-89842500I1J-699999D01*
G01*
X95850000Y-90442500D02*
G75*
G02*
X95150000Y-91142500I-699999J-1D01*
G01*
%TO.C,Y4*%
X104240000Y-89540000D02*
X104240000Y-91960000D01*
X104240000Y-91960000D02*
X107060000Y-91960000D01*
%TO.C,R18*%
X92696359Y-108320000D02*
X93003641Y-108320000D01*
X92696359Y-109080000D02*
X93003641Y-109080000D01*
%TO.C,C23*%
X100490000Y-102407836D02*
X100490000Y-102192164D01*
X101210000Y-102407836D02*
X101210000Y-102192164D01*
%TO.C,C67*%
X102540000Y-104807836D02*
X102540000Y-104592164D01*
X103260000Y-104807836D02*
X103260000Y-104592164D01*
%TO.C,C56*%
X101040000Y-98142164D02*
X101040000Y-98357836D01*
X101760000Y-98142164D02*
X101760000Y-98357836D01*
%TO.C,C39*%
X98640000Y-108842164D02*
X98640000Y-109057836D01*
X99360000Y-108842164D02*
X99360000Y-109057836D01*
%TO.C,C12*%
X98742164Y-89740000D02*
X98957836Y-89740000D01*
X98742164Y-90460000D02*
X98957836Y-90460000D01*
%TO.C,U12*%
X106740000Y-101410000D02*
X106740000Y-101235000D01*
X107415000Y-98690000D02*
X107040000Y-98690000D01*
X107415000Y-101410000D02*
X106740000Y-101410000D01*
X109285000Y-98690000D02*
X109960000Y-98690000D01*
X109285000Y-101410000D02*
X109960000Y-101410000D01*
X109960000Y-98690000D02*
X109960000Y-98865000D01*
X109960000Y-101410000D02*
X109960000Y-101235000D01*
X106740000Y-98690000D02*
X106600000Y-98500000D01*
X106880000Y-98500000D01*
X106740000Y-98690000D01*
G36*
X106740000Y-98690000D02*
G01*
X106600000Y-98500000D01*
X106880000Y-98500000D01*
X106740000Y-98690000D01*
G37*
%TO.C,C83*%
X106092164Y-110140000D02*
X106307836Y-110140000D01*
X106092164Y-110860000D02*
X106307836Y-110860000D01*
%TO.C,U4*%
X107250000Y-107577500D02*
X106200000Y-107577500D01*
X107250000Y-109897500D02*
X105950000Y-109897500D01*
X105840000Y-107577500D02*
X105560000Y-107577500D01*
X105840000Y-107297500D01*
X105840000Y-107577500D01*
G36*
X105840000Y-107577500D02*
G01*
X105560000Y-107577500D01*
X105840000Y-107297500D01*
X105840000Y-107577500D01*
G37*
%TO.C,Y2*%
X96400000Y-110200000D02*
X98500000Y-110200000D01*
X98500000Y-110200000D02*
X98500000Y-107700000D01*
%TO.C,C70*%
X93290000Y-106357836D02*
X93290000Y-106142164D01*
X94010000Y-106357836D02*
X94010000Y-106142164D01*
%TO.C,U11*%
X101490000Y-101190000D02*
X101915000Y-101190000D01*
X101490000Y-101365000D02*
X101490000Y-101190000D01*
X101915000Y-103420000D02*
X101720000Y-103420000D01*
X103710000Y-101190000D02*
X103285000Y-101190000D01*
X103710000Y-101365000D02*
X103710000Y-101190000D01*
X103710000Y-103235000D02*
X103710000Y-103410000D01*
X103710000Y-103410000D02*
X103285000Y-103410000D01*
X101480000Y-103420000D02*
X101290000Y-103560000D01*
X101290000Y-103280000D01*
X101480000Y-103420000D01*
G36*
X101480000Y-103420000D02*
G01*
X101290000Y-103560000D01*
X101290000Y-103280000D01*
X101480000Y-103420000D01*
G37*
%TO.C,U1*%
X93300000Y-99150000D02*
X93300000Y-98700000D01*
X93750000Y-91850000D02*
X93012500Y-91850000D01*
X93750000Y-99150000D02*
X93300000Y-99150000D01*
X100150000Y-91850000D02*
X100600000Y-91850000D01*
X100150000Y-99150000D02*
X100600000Y-99150000D01*
X100600000Y-91850000D02*
X100600000Y-92300000D01*
X100600000Y-99150000D02*
X100600000Y-98700000D01*
%TO.C,R27*%
X94853641Y-86270000D02*
X94546359Y-86270000D01*
X94853641Y-87030000D02*
X94546359Y-87030000D01*
D11*
%TO.C,SW2*%
X100000000Y-111000000D02*
X100000000Y-113700000D01*
X100000000Y-111000000D02*
X105400000Y-111000000D01*
X101600000Y-111700000D02*
X102100000Y-111700000D01*
X102100000Y-111700000D02*
X103300000Y-111300000D01*
X103300000Y-111700000D02*
X103800000Y-111700000D01*
X105400000Y-111000000D02*
X105400000Y-113700000D01*
X102150000Y-113000000D02*
G75*
G02*
X101550000Y-113000000I-300000J0D01*
G01*
X101550000Y-113000000D02*
G75*
G02*
X102150000Y-113000000I300000J0D01*
G01*
X103850000Y-113000000D02*
G75*
G02*
X103250000Y-113000000I-300000J0D01*
G01*
X103250000Y-113000000D02*
G75*
G02*
X103850000Y-113000000I300000J0D01*
G01*
D13*
%TO.C,R41*%
X105496359Y-98670000D02*
X105803641Y-98670000D01*
X105496359Y-99430000D02*
X105803641Y-99430000D01*
%TO.C,C43*%
X88290000Y-97607836D02*
X88290000Y-97392164D01*
X89010000Y-97607836D02*
X89010000Y-97392164D01*
D11*
%TO.C,D7*%
X114350000Y-108500000D02*
X112500000Y-108500000D01*
X114350000Y-111100000D02*
X114350000Y-108500000D01*
X113450000Y-109700000D02*
X113350000Y-109700000D01*
X113400000Y-109450000D01*
X113450000Y-109700000D01*
G36*
X113450000Y-109700000D02*
G01*
X113350000Y-109700000D01*
X113400000Y-109450000D01*
X113450000Y-109700000D01*
G37*
D13*
%TO.C,R22*%
X101020000Y-100253641D02*
X101020000Y-99946359D01*
X101780000Y-100253641D02*
X101780000Y-99946359D01*
%TO.C,R26*%
X93096359Y-88020000D02*
X93403641Y-88020000D01*
X93096359Y-88780000D02*
X93403641Y-88780000D01*
%TO.C,R9*%
X99920000Y-100246359D02*
X99920000Y-100553641D01*
X100680000Y-100246359D02*
X100680000Y-100553641D01*
%TO.C,C46*%
X103642164Y-98690000D02*
X103857836Y-98690000D01*
X103642164Y-99410000D02*
X103857836Y-99410000D01*
%TO.C,R23*%
X105803641Y-99620000D02*
X105496359Y-99620000D01*
X105803641Y-100380000D02*
X105496359Y-100380000D01*
%TO.C,U6*%
X111440000Y-98410000D02*
X103450000Y-98410000D01*
X111450000Y-92190000D02*
X103450000Y-92190000D01*
X111680000Y-98090000D02*
X111680000Y-97610000D01*
X112160000Y-97610000D01*
X111680000Y-98090000D01*
G36*
X111680000Y-98090000D02*
G01*
X111680000Y-97610000D01*
X112160000Y-97610000D01*
X111680000Y-98090000D01*
G37*
%TO.C,D16*%
X101465000Y-89000000D02*
X101465000Y-91285000D01*
X101465000Y-91285000D02*
X102935000Y-91285000D01*
X102935000Y-91285000D02*
X102935000Y-89000000D01*
%TO.C,R3*%
X100570000Y-88596359D02*
X100570000Y-88903641D01*
X101330000Y-88596359D02*
X101330000Y-88903641D01*
%TO.C,C78*%
X102290000Y-93992164D02*
X102290000Y-94207836D01*
X103010000Y-93992164D02*
X103010000Y-94207836D01*
%TO.C,C68*%
X103615000Y-105611252D02*
X103615000Y-105088748D01*
X105085000Y-105611252D02*
X105085000Y-105088748D01*
%TO.C,R15*%
X101570000Y-104446359D02*
X101570000Y-104753641D01*
X102330000Y-104446359D02*
X102330000Y-104753641D01*
%TO.C,R21*%
X103596359Y-99620000D02*
X103903641Y-99620000D01*
X103596359Y-100380000D02*
X103903641Y-100380000D01*
%TO.C,R30*%
X103020000Y-89403641D02*
X103020000Y-89096359D01*
X103780000Y-89403641D02*
X103780000Y-89096359D01*
D11*
%TO.C,D6*%
X108500000Y-114350000D02*
X111100000Y-114350000D01*
X111100000Y-114350000D02*
X111100000Y-112500000D01*
X110150000Y-113400000D02*
X109900000Y-113450000D01*
X109900000Y-113350000D01*
X110150000Y-113400000D01*
G36*
X110150000Y-113400000D02*
G01*
X109900000Y-113450000D01*
X109900000Y-113350000D01*
X110150000Y-113400000D01*
G37*
D13*
%TO.C,C76*%
X101340000Y-96057836D02*
X101340000Y-95842164D01*
X102060000Y-96057836D02*
X102060000Y-95842164D01*
%TO.C,R16*%
X102553641Y-105920000D02*
X102246359Y-105920000D01*
X102553641Y-106680000D02*
X102246359Y-106680000D01*
%TO.C,C28*%
X93640000Y-102607836D02*
X93640000Y-102392164D01*
X94360000Y-102607836D02*
X94360000Y-102392164D01*
%TO.C,U2*%
X110440000Y-101350000D02*
X110440000Y-100700000D01*
X110440000Y-101350000D02*
X110440000Y-102000000D01*
X113560000Y-101350000D02*
X113560000Y-100700000D01*
X113560000Y-101350000D02*
X113560000Y-102000000D01*
X110490000Y-102512500D02*
X110160000Y-102752500D01*
X110160000Y-102272500D01*
X110490000Y-102512500D01*
G36*
X110490000Y-102512500D02*
G01*
X110160000Y-102752500D01*
X110160000Y-102272500D01*
X110490000Y-102512500D01*
G37*
%TO.C,C42*%
X86840000Y-99792164D02*
X86840000Y-100007836D01*
X87560000Y-99792164D02*
X87560000Y-100007836D01*
D11*
%TO.C,D2*%
X88900000Y-85650000D02*
X88900000Y-87500000D01*
X91500000Y-85650000D02*
X88900000Y-85650000D01*
X90100000Y-86650000D02*
X89850000Y-86600000D01*
X90100000Y-86550000D01*
X90100000Y-86650000D01*
G36*
X90100000Y-86650000D02*
G01*
X89850000Y-86600000D01*
X90100000Y-86550000D01*
X90100000Y-86650000D01*
G37*
%TO.C,FL1*%
D15*
X89675000Y-98200000D02*
G75*
G02*
X89525000Y-98200000I-75000J0D01*
G01*
X89525000Y-98200000D02*
G75*
G02*
X89675000Y-98200000I75000J0D01*
G01*
D13*
%TO.C,U3*%
X94990000Y-102552500D02*
X95515000Y-102552500D01*
X94990000Y-103077500D02*
X94990000Y-102552500D01*
X94990000Y-106772500D02*
X94990000Y-106247500D01*
X95515000Y-106772500D02*
X94990000Y-106772500D01*
X98685000Y-102552500D02*
X99210000Y-102552500D01*
X99210000Y-102552500D02*
X99210000Y-103077500D01*
X99210000Y-106247500D02*
X99210000Y-106772500D01*
X99210000Y-106772500D02*
X98685000Y-106772500D01*
X100040000Y-106112500D02*
X99710000Y-105872500D01*
X100040000Y-105632500D01*
X100040000Y-106112500D01*
G36*
X100040000Y-106112500D02*
G01*
X99710000Y-105872500D01*
X100040000Y-105632500D01*
X100040000Y-106112500D01*
G37*
%TO.C,C73*%
X96657836Y-86290000D02*
X96442164Y-86290000D01*
X96657836Y-87010000D02*
X96442164Y-87010000D01*
D11*
%TO.C,D4*%
X85650000Y-108500000D02*
X85650000Y-111100000D01*
X85650000Y-111100000D02*
X87500000Y-111100000D01*
X86600000Y-110150000D02*
X86550000Y-109900000D01*
X86650000Y-109900000D01*
X86600000Y-110150000D01*
G36*
X86600000Y-110150000D02*
G01*
X86550000Y-109900000D01*
X86650000Y-109900000D01*
X86600000Y-110150000D01*
G37*
D13*
%TO.C,R7*%
X104953641Y-100870000D02*
X104646359Y-100870000D01*
X104953641Y-101630000D02*
X104646359Y-101630000D01*
%TO.C,C37*%
X100540000Y-106942164D02*
X100540000Y-107157836D01*
X101260000Y-106942164D02*
X101260000Y-107157836D01*
%TO.C,R5*%
X99296359Y-110070000D02*
X99603641Y-110070000D01*
X99296359Y-110830000D02*
X99603641Y-110830000D01*
%TO.C,C24*%
X103990000Y-102757836D02*
X103990000Y-102542164D01*
X104710000Y-102757836D02*
X104710000Y-102542164D01*
%TD*%
M02*
