%TF.GenerationSoftware,KiCad,Pcbnew,9.0.6*%
%TF.CreationDate,2025-11-04T18:35:40+01:00*%
%TF.ProjectId,Pixel,50697865-6c2e-46b6-9963-61645f706362,rev?*%
%TF.SameCoordinates,Original*%
%TF.FileFunction,Legend,Top*%
%TF.FilePolarity,Positive*%
%FSLAX46Y46*%
G04 Gerber Fmt 4.6, Leading zero omitted, Abs format (unit mm)*
G04 Created by KiCad (PCBNEW 9.0.6) date 2025-11-04 18:35:40*
%MOMM*%
%LPD*%
G01*
G04 APERTURE LIST*
%ADD10C,0.300000*%
%ADD11C,0.100000*%
G04 APERTURE END LIST*
D10*
G36*
X127511328Y-100530762D02*
G01*
X126830791Y-100570094D01*
X126535888Y-101380333D01*
X127031101Y-101850176D01*
X126961256Y-102042072D01*
X125477267Y-100648582D01*
X125486277Y-100623828D01*
X125725466Y-100623828D01*
X126395787Y-101251093D01*
X126639566Y-100581316D01*
X125725466Y-100623828D01*
X125486277Y-100623828D01*
X125550382Y-100447701D01*
X127583766Y-100331740D01*
X127511328Y-100530762D01*
G37*
G36*
X127644250Y-100165561D02*
G01*
X127710449Y-99983683D01*
X126992956Y-99722537D01*
X126900372Y-99684902D01*
X126829311Y-99646451D01*
X126786122Y-99614547D01*
X126749922Y-99578926D01*
X126725237Y-99548017D01*
X126679434Y-99459953D01*
X126658029Y-99358679D01*
X126663603Y-99248674D01*
X126685695Y-99166595D01*
X126737656Y-99063727D01*
X126771682Y-99019183D01*
X126810261Y-98980191D01*
X126852359Y-98947588D01*
X126897884Y-98921376D01*
X126938077Y-98904758D01*
X126990449Y-98892235D01*
X127044802Y-98887327D01*
X127159540Y-98899624D01*
X127313268Y-98945641D01*
X127997608Y-99194720D01*
X128063806Y-99012842D01*
X127379466Y-98763763D01*
X127264815Y-98725936D01*
X127165166Y-98702015D01*
X127094032Y-98692563D01*
X127027646Y-98691238D01*
X126908376Y-98709796D01*
X126889679Y-98715090D01*
X126778142Y-98765799D01*
X126680523Y-98840677D01*
X126598718Y-98938846D01*
X126535281Y-99059384D01*
X126525710Y-99084271D01*
X126505213Y-99150862D01*
X126492536Y-99216493D01*
X126487720Y-99278624D01*
X126490127Y-99339794D01*
X126515898Y-99457075D01*
X126568161Y-99567925D01*
X126408282Y-99509734D01*
X126342084Y-99691611D01*
X127644250Y-100165561D01*
G37*
G36*
X128652409Y-97395669D02*
G01*
X128586210Y-97577547D01*
X128367461Y-97497929D01*
X128405729Y-97560812D01*
X128460471Y-97683635D01*
X128484806Y-97801367D01*
X128486385Y-97863904D01*
X128480427Y-97928141D01*
X128464679Y-98003784D01*
X128439462Y-98083569D01*
X128436468Y-98091672D01*
X128405706Y-98163665D01*
X128369518Y-98230602D01*
X128328024Y-98292636D01*
X128281796Y-98349185D01*
X128231077Y-98400184D01*
X128176359Y-98445295D01*
X128056628Y-98517017D01*
X127926199Y-98562838D01*
X127788586Y-98581676D01*
X127718265Y-98580738D01*
X127647012Y-98572756D01*
X127575785Y-98557714D01*
X127504338Y-98535403D01*
X127500951Y-98534161D01*
X127430930Y-98504541D01*
X127365749Y-98469347D01*
X127304944Y-98428485D01*
X127249459Y-98382723D01*
X127199113Y-98332054D01*
X127154554Y-98277228D01*
X127115879Y-98218502D01*
X127083405Y-98156427D01*
X127037936Y-98024340D01*
X127019441Y-97885066D01*
X127023300Y-97825377D01*
X127202958Y-97825377D01*
X127204754Y-97886900D01*
X127213695Y-97948163D01*
X127229539Y-98007659D01*
X127280928Y-98119162D01*
X127355624Y-98215547D01*
X127449685Y-98292404D01*
X127559524Y-98346826D01*
X127622280Y-98365961D01*
X127684993Y-98377911D01*
X127748834Y-98382915D01*
X127811653Y-98380777D01*
X127873317Y-98371639D01*
X127932943Y-98355713D01*
X128043725Y-98304581D01*
X128139407Y-98230081D01*
X128216361Y-98135187D01*
X128271837Y-98022559D01*
X128298419Y-97917006D01*
X128303450Y-97856485D01*
X128301296Y-97796637D01*
X128291999Y-97737082D01*
X128275777Y-97679214D01*
X128252714Y-97623211D01*
X128223128Y-97569930D01*
X128145738Y-97473946D01*
X128046722Y-97395653D01*
X127929240Y-97338430D01*
X127816913Y-97309595D01*
X127753952Y-97303622D01*
X127691961Y-97304814D01*
X127630987Y-97313036D01*
X127571997Y-97328076D01*
X127462145Y-97377601D01*
X127367089Y-97450731D01*
X127290587Y-97544453D01*
X127235503Y-97656008D01*
X127208377Y-97763239D01*
X127202958Y-97825377D01*
X127023300Y-97825377D01*
X127028663Y-97742417D01*
X127043755Y-97671096D01*
X127066046Y-97599711D01*
X127100808Y-97516967D01*
X127170879Y-97401487D01*
X127257315Y-97310440D01*
X127309048Y-97271877D01*
X127365878Y-97238741D01*
X127433107Y-97208817D01*
X127506718Y-97184644D01*
X127284044Y-97103597D01*
X127350242Y-96921720D01*
X128652409Y-97395669D01*
G37*
G36*
X128758153Y-97105140D02*
G01*
X128824351Y-96923262D01*
X127066096Y-96283310D01*
X126999898Y-96465188D01*
X128758153Y-97105140D01*
G37*
G36*
X128537513Y-95039695D02*
G01*
X128610844Y-95048499D01*
X128684738Y-95064502D01*
X128759132Y-95087885D01*
X128889827Y-95148599D01*
X128952043Y-95188580D01*
X129008787Y-95233346D01*
X129060022Y-95282668D01*
X129105382Y-95336033D01*
X129144654Y-95393009D01*
X129177692Y-95453252D01*
X129224170Y-95581390D01*
X129243701Y-95716891D01*
X129243114Y-95786210D01*
X129235486Y-95856468D01*
X129220797Y-95926722D01*
X129198841Y-95997191D01*
X129194268Y-96009476D01*
X129163228Y-96081197D01*
X129126858Y-96147750D01*
X129085397Y-96209107D01*
X129039274Y-96264929D01*
X128988784Y-96315091D01*
X128934316Y-96359363D01*
X128876265Y-96397548D01*
X128814937Y-96429510D01*
X128684161Y-96474003D01*
X128615505Y-96486246D01*
X128544978Y-96491663D01*
X128473208Y-96490104D01*
X128400256Y-96481440D01*
X128326733Y-96465575D01*
X128252705Y-96442326D01*
X128122799Y-96380730D01*
X128062693Y-96340657D01*
X128007787Y-96295566D01*
X127957804Y-96245351D01*
X127913524Y-96190865D01*
X127875007Y-96132295D01*
X127842643Y-96070281D01*
X127797284Y-95938046D01*
X127778859Y-95798533D01*
X127782393Y-95744036D01*
X127959602Y-95744036D01*
X127960999Y-95804555D01*
X127969447Y-95864199D01*
X127984745Y-95921950D01*
X128006762Y-95977536D01*
X128035234Y-96030293D01*
X128069825Y-96079611D01*
X128110393Y-96125198D01*
X128156313Y-96166274D01*
X128207681Y-96202782D01*
X128263643Y-96233962D01*
X128324519Y-96259802D01*
X128449637Y-96292073D01*
X128513544Y-96298275D01*
X128575901Y-96297383D01*
X128636232Y-96289594D01*
X128694260Y-96275093D01*
X128801709Y-96226790D01*
X128850411Y-96193384D01*
X128895324Y-96154026D01*
X128936036Y-96108942D01*
X128972218Y-96058274D01*
X129003490Y-96002215D01*
X129029487Y-95940931D01*
X129055663Y-95842183D01*
X129062162Y-95782051D01*
X129061526Y-95722983D01*
X129053868Y-95664993D01*
X129039359Y-95608871D01*
X129018040Y-95554691D01*
X128990173Y-95503207D01*
X128955796Y-95454631D01*
X128915207Y-95409591D01*
X128868537Y-95368443D01*
X128816033Y-95331661D01*
X128757971Y-95299694D01*
X128694483Y-95272899D01*
X128573657Y-95241149D01*
X128508814Y-95234154D01*
X128445468Y-95234279D01*
X128384257Y-95241303D01*
X128325386Y-95255029D01*
X128217077Y-95301437D01*
X128123766Y-95371389D01*
X128083694Y-95414481D01*
X128048258Y-95462916D01*
X128018026Y-95516178D01*
X127993154Y-95574380D01*
X127965361Y-95682554D01*
X127959602Y-95744036D01*
X127782393Y-95744036D01*
X127788115Y-95655800D01*
X127825425Y-95513332D01*
X127854707Y-95443071D01*
X127889372Y-95377866D01*
X127929401Y-95317430D01*
X127974194Y-95262448D01*
X128023621Y-95212876D01*
X128077139Y-95169130D01*
X128134560Y-95131269D01*
X128195374Y-95099593D01*
X128259276Y-95074247D01*
X128325853Y-95055424D01*
X128394653Y-95043298D01*
X128465400Y-95038006D01*
X128537513Y-95039695D01*
G37*
G36*
X129734657Y-93695636D02*
G01*
X129856624Y-93743613D01*
X130009891Y-93821382D01*
X130117129Y-93902191D01*
X130162670Y-93950321D01*
X130202038Y-94003181D01*
X130234023Y-94059823D01*
X130259038Y-94119247D01*
X130277547Y-94181857D01*
X130289668Y-94248670D01*
X130294870Y-94317946D01*
X130293004Y-94390335D01*
X130283869Y-94464357D01*
X130267258Y-94540075D01*
X130243136Y-94616522D01*
X130214964Y-94685677D01*
X130141342Y-94816002D01*
X130051921Y-94920749D01*
X129947025Y-95001635D01*
X129888344Y-95033464D01*
X129825907Y-95059199D01*
X129758359Y-95079115D01*
X129687111Y-95092510D01*
X129609884Y-95099404D01*
X129528964Y-95099183D01*
X129593396Y-94922159D01*
X129700501Y-94901976D01*
X129764718Y-94883331D01*
X129818516Y-94858945D01*
X129845981Y-94844275D01*
X129938305Y-94776063D01*
X129978096Y-94733338D01*
X130013243Y-94684835D01*
X130045914Y-94626186D01*
X130073679Y-94560225D01*
X130100600Y-94466998D01*
X130113182Y-94344653D01*
X130098544Y-94234811D01*
X130058757Y-94138005D01*
X130029625Y-94094568D01*
X129994378Y-94054737D01*
X129992988Y-94053343D01*
X129947908Y-94012987D01*
X129897645Y-93977635D01*
X129821115Y-93936933D01*
X129725611Y-93898199D01*
X129651249Y-93871133D01*
X129726711Y-93969470D01*
X129776685Y-94076517D01*
X129791592Y-94133166D01*
X129799646Y-94191842D01*
X129800720Y-94254756D01*
X129794367Y-94319960D01*
X129779473Y-94391647D01*
X129756131Y-94466051D01*
X129694978Y-94595285D01*
X129654829Y-94655748D01*
X129609644Y-94711017D01*
X129559283Y-94761409D01*
X129504653Y-94806086D01*
X129445954Y-94844989D01*
X129383844Y-94877719D01*
X129251700Y-94923708D01*
X129112833Y-94942681D01*
X128971460Y-94934009D01*
X128831127Y-94897473D01*
X128694958Y-94833684D01*
X128632506Y-94793014D01*
X128575482Y-94747531D01*
X128523931Y-94697465D01*
X128478244Y-94643352D01*
X128405386Y-94524834D01*
X128358526Y-94395891D01*
X128338710Y-94260309D01*
X128342309Y-94196846D01*
X128520884Y-94196846D01*
X128521594Y-94256845D01*
X128529303Y-94315605D01*
X128543834Y-94372415D01*
X128565076Y-94427044D01*
X128592801Y-94478884D01*
X128626846Y-94527563D01*
X128666997Y-94572621D01*
X128712982Y-94613580D01*
X128764668Y-94650103D01*
X128821662Y-94681680D01*
X128883937Y-94708032D01*
X129005187Y-94739486D01*
X129070052Y-94746074D01*
X129133592Y-94745524D01*
X129195333Y-94738043D01*
X129254812Y-94723833D01*
X129364404Y-94676454D01*
X129458523Y-94605905D01*
X129534075Y-94514720D01*
X129564007Y-94462225D01*
X129588506Y-94405040D01*
X129615325Y-94297796D01*
X129620056Y-94237775D01*
X129617615Y-94178527D01*
X129608023Y-94119585D01*
X129591498Y-94062348D01*
X129568017Y-94006746D01*
X129537952Y-93953822D01*
X129501486Y-93903975D01*
X129458906Y-93857759D01*
X129410778Y-93815899D01*
X129357093Y-93778555D01*
X129298800Y-93746534D01*
X129235543Y-93719828D01*
X129133200Y-93692959D01*
X129070850Y-93686368D01*
X129009327Y-93686970D01*
X128948574Y-93694638D01*
X128889717Y-93709159D01*
X128779929Y-93757728D01*
X128685042Y-93829798D01*
X128609018Y-93922050D01*
X128554728Y-94031466D01*
X128527306Y-94135724D01*
X128520884Y-94196846D01*
X128342309Y-94196846D01*
X128346583Y-94121476D01*
X128361022Y-94051937D01*
X128382677Y-93982296D01*
X128417008Y-93900809D01*
X128487086Y-93786042D01*
X128574046Y-93694957D01*
X128625942Y-93656396D01*
X128682963Y-93623193D01*
X128749635Y-93593490D01*
X128822522Y-93569501D01*
X128599849Y-93488455D01*
X128666009Y-93306680D01*
X129734657Y-93695636D01*
G37*
G36*
X130323525Y-92804315D02*
G01*
X130389723Y-92622437D01*
X129589915Y-92331331D01*
X129839859Y-91644616D01*
X129674610Y-91584470D01*
X129424666Y-92271185D01*
X128796821Y-92042669D01*
X129056238Y-91329927D01*
X128890885Y-91269743D01*
X128565270Y-92164363D01*
X130323525Y-92804315D01*
G37*
G36*
X130846982Y-91366128D02*
G01*
X130913143Y-91184354D01*
X129320241Y-90604585D01*
X129465907Y-90204371D01*
X129300554Y-90144188D01*
X128943062Y-91126389D01*
X129108414Y-91186573D01*
X129254080Y-90786359D01*
X130846982Y-91366128D01*
G37*
G36*
X131282438Y-90169722D02*
G01*
X131367019Y-89937340D01*
X130078763Y-89036976D01*
X131646133Y-89170479D01*
X131729811Y-88940575D01*
X130154964Y-87796715D01*
X130086961Y-87983550D01*
X131446230Y-88963563D01*
X129779353Y-88828698D01*
X129717214Y-88999422D01*
X131080806Y-89967557D01*
X129409606Y-89844570D01*
X129341641Y-90031302D01*
X131282438Y-90169722D01*
G37*
G36*
X132014301Y-88158945D02*
G01*
X132080499Y-87977067D01*
X131775614Y-87866098D01*
X131709416Y-88047976D01*
X132014301Y-88158945D01*
G37*
G36*
X131547678Y-87989108D02*
G01*
X131613876Y-87807230D01*
X130322245Y-87337115D01*
X130256047Y-87518993D01*
X131547678Y-87989108D01*
G37*
X104128571Y-93414114D02*
X104128571Y-91614114D01*
X104128571Y-91614114D02*
X104814285Y-91614114D01*
X104814285Y-91614114D02*
X104985714Y-91699828D01*
X104985714Y-91699828D02*
X105071428Y-91785542D01*
X105071428Y-91785542D02*
X105157142Y-91956971D01*
X105157142Y-91956971D02*
X105157142Y-92214114D01*
X105157142Y-92214114D02*
X105071428Y-92385542D01*
X105071428Y-92385542D02*
X104985714Y-92471257D01*
X104985714Y-92471257D02*
X104814285Y-92556971D01*
X104814285Y-92556971D02*
X104128571Y-92556971D01*
X105928571Y-93414114D02*
X105928571Y-92214114D01*
X105928571Y-91614114D02*
X105842857Y-91699828D01*
X105842857Y-91699828D02*
X105928571Y-91785542D01*
X105928571Y-91785542D02*
X106014285Y-91699828D01*
X106014285Y-91699828D02*
X105928571Y-91614114D01*
X105928571Y-91614114D02*
X105928571Y-91785542D01*
X106614285Y-93414114D02*
X107557143Y-92214114D01*
X106614285Y-92214114D02*
X107557143Y-93414114D01*
X108928571Y-93328400D02*
X108757143Y-93414114D01*
X108757143Y-93414114D02*
X108414286Y-93414114D01*
X108414286Y-93414114D02*
X108242857Y-93328400D01*
X108242857Y-93328400D02*
X108157143Y-93156971D01*
X108157143Y-93156971D02*
X108157143Y-92471257D01*
X108157143Y-92471257D02*
X108242857Y-92299828D01*
X108242857Y-92299828D02*
X108414286Y-92214114D01*
X108414286Y-92214114D02*
X108757143Y-92214114D01*
X108757143Y-92214114D02*
X108928571Y-92299828D01*
X108928571Y-92299828D02*
X109014286Y-92471257D01*
X109014286Y-92471257D02*
X109014286Y-92642685D01*
X109014286Y-92642685D02*
X108157143Y-92814114D01*
X110042857Y-93414114D02*
X109871428Y-93328400D01*
X109871428Y-93328400D02*
X109785714Y-93156971D01*
X109785714Y-93156971D02*
X109785714Y-91614114D01*
X112442857Y-91614114D02*
X112785714Y-91614114D01*
X112785714Y-91614114D02*
X112957143Y-91699828D01*
X112957143Y-91699828D02*
X113128571Y-91871257D01*
X113128571Y-91871257D02*
X113214286Y-92214114D01*
X113214286Y-92214114D02*
X113214286Y-92814114D01*
X113214286Y-92814114D02*
X113128571Y-93156971D01*
X113128571Y-93156971D02*
X112957143Y-93328400D01*
X112957143Y-93328400D02*
X112785714Y-93414114D01*
X112785714Y-93414114D02*
X112442857Y-93414114D01*
X112442857Y-93414114D02*
X112271429Y-93328400D01*
X112271429Y-93328400D02*
X112100000Y-93156971D01*
X112100000Y-93156971D02*
X112014286Y-92814114D01*
X112014286Y-92814114D02*
X112014286Y-92214114D01*
X112014286Y-92214114D02*
X112100000Y-91871257D01*
X112100000Y-91871257D02*
X112271429Y-91699828D01*
X112271429Y-91699828D02*
X112442857Y-91614114D01*
X113900000Y-93328400D02*
X114157143Y-93414114D01*
X114157143Y-93414114D02*
X114585714Y-93414114D01*
X114585714Y-93414114D02*
X114757143Y-93328400D01*
X114757143Y-93328400D02*
X114842857Y-93242685D01*
X114842857Y-93242685D02*
X114928571Y-93071257D01*
X114928571Y-93071257D02*
X114928571Y-92899828D01*
X114928571Y-92899828D02*
X114842857Y-92728400D01*
X114842857Y-92728400D02*
X114757143Y-92642685D01*
X114757143Y-92642685D02*
X114585714Y-92556971D01*
X114585714Y-92556971D02*
X114242857Y-92471257D01*
X114242857Y-92471257D02*
X114071428Y-92385542D01*
X114071428Y-92385542D02*
X113985714Y-92299828D01*
X113985714Y-92299828D02*
X113900000Y-92128400D01*
X113900000Y-92128400D02*
X113900000Y-91956971D01*
X113900000Y-91956971D02*
X113985714Y-91785542D01*
X113985714Y-91785542D02*
X114071428Y-91699828D01*
X114071428Y-91699828D02*
X114242857Y-91614114D01*
X114242857Y-91614114D02*
X114671428Y-91614114D01*
X114671428Y-91614114D02*
X114928571Y-91699828D01*
X115700000Y-93414114D02*
X115700000Y-91614114D01*
X115700000Y-91614114D02*
X116128571Y-91614114D01*
X116128571Y-91614114D02*
X116385714Y-91699828D01*
X116385714Y-91699828D02*
X116557143Y-91871257D01*
X116557143Y-91871257D02*
X116642857Y-92042685D01*
X116642857Y-92042685D02*
X116728571Y-92385542D01*
X116728571Y-92385542D02*
X116728571Y-92642685D01*
X116728571Y-92642685D02*
X116642857Y-92985542D01*
X116642857Y-92985542D02*
X116557143Y-93156971D01*
X116557143Y-93156971D02*
X116385714Y-93328400D01*
X116385714Y-93328400D02*
X116128571Y-93414114D01*
X116128571Y-93414114D02*
X115700000Y-93414114D01*
X118614286Y-91614114D02*
X119214286Y-93414114D01*
X119214286Y-93414114D02*
X119814286Y-91614114D01*
X121357143Y-93414114D02*
X120328572Y-93414114D01*
X120842857Y-93414114D02*
X120842857Y-91614114D01*
X120842857Y-91614114D02*
X120671429Y-91871257D01*
X120671429Y-91871257D02*
X120500000Y-92042685D01*
X120500000Y-92042685D02*
X120328572Y-92128400D01*
D11*
G36*
X101928521Y-77629784D02*
G01*
X101928521Y-78047000D01*
X101815370Y-78047000D01*
X101815370Y-77633521D01*
X101810375Y-77569174D01*
X101797093Y-77521685D01*
X101777231Y-77487122D01*
X101748601Y-77460775D01*
X101711412Y-77444440D01*
X101662925Y-77438542D01*
X101617890Y-77442498D01*
X101579582Y-77453741D01*
X101546736Y-77471832D01*
X101518450Y-77497013D01*
X101496103Y-77527527D01*
X101479663Y-77563500D01*
X101469272Y-77605987D01*
X101465583Y-77656327D01*
X101465583Y-78047000D01*
X101351827Y-78047000D01*
X101351827Y-77090349D01*
X101465583Y-77090349D01*
X101465583Y-77463161D01*
X101495107Y-77424390D01*
X101526910Y-77393880D01*
X101561149Y-77370673D01*
X101598941Y-77353935D01*
X101640992Y-77343632D01*
X101688150Y-77340063D01*
X101746741Y-77345183D01*
X101794929Y-77359525D01*
X101834747Y-77382270D01*
X101867631Y-77413592D01*
X101892623Y-77451442D01*
X101911637Y-77498681D01*
X101924023Y-77557318D01*
X101928521Y-77629784D01*
G37*
G36*
X102266382Y-77160691D02*
G01*
X102266382Y-77357648D01*
X102499390Y-77357648D01*
X102499390Y-77445576D01*
X102266382Y-77445576D01*
X102266382Y-77819707D01*
X102269899Y-77876390D01*
X102278336Y-77909890D01*
X102289408Y-77928023D01*
X102306801Y-77939931D01*
X102336250Y-77948554D01*
X102383216Y-77952038D01*
X102499390Y-77952038D01*
X102499390Y-78047000D01*
X102383216Y-78047000D01*
X102315327Y-78043044D01*
X102264995Y-78032583D01*
X102228415Y-78017271D01*
X102202470Y-77998035D01*
X102182855Y-77972398D01*
X102167298Y-77936290D01*
X102156690Y-77886649D01*
X102152681Y-77819707D01*
X102152681Y-77445576D01*
X102069645Y-77445576D01*
X102069645Y-77357648D01*
X102152681Y-77357648D01*
X102152681Y-77160691D01*
X102266382Y-77160691D01*
G37*
G36*
X102759655Y-77160691D02*
G01*
X102759655Y-77357648D01*
X102992663Y-77357648D01*
X102992663Y-77445576D01*
X102759655Y-77445576D01*
X102759655Y-77819707D01*
X102763172Y-77876390D01*
X102771609Y-77909890D01*
X102782681Y-77928023D01*
X102800074Y-77939931D01*
X102829523Y-77948554D01*
X102876489Y-77952038D01*
X102992663Y-77952038D01*
X102992663Y-78047000D01*
X102876489Y-78047000D01*
X102808600Y-78043044D01*
X102758268Y-78032583D01*
X102721688Y-78017271D01*
X102695743Y-77998035D01*
X102676128Y-77972398D01*
X102660571Y-77936290D01*
X102649963Y-77886649D01*
X102645954Y-77819707D01*
X102645954Y-77445576D01*
X102562917Y-77445576D01*
X102562917Y-77357648D01*
X102645954Y-77357648D01*
X102645954Y-77160691D01*
X102759655Y-77160691D01*
G37*
G36*
X103530978Y-77346435D02*
G01*
X103584091Y-77364935D01*
X103631558Y-77395625D01*
X103674375Y-77439861D01*
X103707482Y-77491351D01*
X103731917Y-77551196D01*
X103747342Y-77620904D01*
X103752795Y-77702324D01*
X103747342Y-77783744D01*
X103731917Y-77853452D01*
X103707482Y-77913297D01*
X103674375Y-77964787D01*
X103631558Y-78009023D01*
X103584091Y-78039713D01*
X103530978Y-78058213D01*
X103470603Y-78064585D01*
X103420901Y-78061078D01*
X103377921Y-78051104D01*
X103340581Y-78035184D01*
X103306997Y-78012571D01*
X103277048Y-77982824D01*
X103250510Y-77945004D01*
X103250510Y-78307265D01*
X103136754Y-78307265D01*
X103136754Y-77702324D01*
X103250510Y-77702324D01*
X103254220Y-77765660D01*
X103264556Y-77818389D01*
X103280599Y-77862197D01*
X103301838Y-77898512D01*
X103330201Y-77929881D01*
X103362559Y-77951733D01*
X103399704Y-77965008D01*
X103442961Y-77969623D01*
X103486189Y-77965009D01*
X103523316Y-77951736D01*
X103555666Y-77929884D01*
X103584030Y-77898512D01*
X103605269Y-77862197D01*
X103621311Y-77818389D01*
X103631647Y-77765660D01*
X103635357Y-77702324D01*
X103631646Y-77638986D01*
X103621309Y-77586267D01*
X103605267Y-77542479D01*
X103584030Y-77506191D01*
X103555663Y-77474791D01*
X103523311Y-77452924D01*
X103486186Y-77439642D01*
X103442961Y-77435025D01*
X103399707Y-77439643D01*
X103362564Y-77452926D01*
X103330204Y-77474795D01*
X103301838Y-77506191D01*
X103280601Y-77542479D01*
X103264558Y-77586267D01*
X103254221Y-77638986D01*
X103250510Y-77702324D01*
X103136754Y-77702324D01*
X103136754Y-77357648D01*
X103250510Y-77357648D01*
X103250510Y-77459644D01*
X103277050Y-77421828D01*
X103306999Y-77392100D01*
X103340581Y-77369519D01*
X103377924Y-77353568D01*
X103420904Y-77343576D01*
X103470603Y-77340063D01*
X103530978Y-77346435D01*
G37*
G36*
X104379278Y-77378751D02*
G01*
X104379278Y-77484264D01*
X104330291Y-77462688D01*
X104279645Y-77447334D01*
X104227381Y-77438133D01*
X104172704Y-77435025D01*
X104116733Y-77438481D01*
X104075753Y-77447577D01*
X104046363Y-77460853D01*
X104022935Y-77480951D01*
X104009115Y-77506159D01*
X104004268Y-77538174D01*
X104007724Y-77562861D01*
X104017650Y-77583062D01*
X104034383Y-77599889D01*
X104072807Y-77619255D01*
X104155503Y-77642588D01*
X104194246Y-77651161D01*
X104273534Y-77673158D01*
X104328688Y-77697879D01*
X104365430Y-77724306D01*
X104392968Y-77758804D01*
X104410045Y-77801866D01*
X104416153Y-77856032D01*
X104411237Y-77902402D01*
X104397072Y-77942431D01*
X104373726Y-77977494D01*
X104340206Y-78008421D01*
X104301382Y-78031722D01*
X104254698Y-78049266D01*
X104198660Y-78060543D01*
X104131488Y-78064585D01*
X104075747Y-78061797D01*
X104016248Y-78053154D01*
X103955840Y-78039179D01*
X103889907Y-78018863D01*
X103889907Y-77902799D01*
X103953062Y-77932406D01*
X104013445Y-77952917D01*
X104074436Y-77965504D01*
X104133961Y-77969623D01*
X104186837Y-77966041D01*
X104226924Y-77956445D01*
X104256949Y-77942091D01*
X104281105Y-77920919D01*
X104295138Y-77895520D01*
X104299979Y-77864440D01*
X104296282Y-77835009D01*
X104285905Y-77811801D01*
X104268929Y-77793329D01*
X104246065Y-77779778D01*
X104203641Y-77763882D01*
X104132752Y-77745683D01*
X104093404Y-77736506D01*
X104024666Y-77717275D01*
X103975492Y-77694323D01*
X103941510Y-77668582D01*
X103916160Y-77635364D01*
X103900420Y-77594234D01*
X103894798Y-77542901D01*
X103899414Y-77495583D01*
X103912530Y-77455739D01*
X103933756Y-77421849D01*
X103963656Y-77392929D01*
X103998928Y-77371142D01*
X104042154Y-77354623D01*
X104094935Y-77343925D01*
X104159185Y-77340063D01*
X104220867Y-77342549D01*
X104277227Y-77349735D01*
X104331078Y-77362015D01*
X104379278Y-77378751D01*
G37*
G36*
X104625145Y-77892247D02*
G01*
X104754893Y-77892247D01*
X104754893Y-78047000D01*
X104625145Y-78047000D01*
X104625145Y-77892247D01*
G37*
G36*
X104625145Y-77396337D02*
G01*
X104754893Y-77396337D01*
X104754893Y-77551089D01*
X104625145Y-77551089D01*
X104625145Y-77396337D01*
G37*
G36*
X105221128Y-77129037D02*
G01*
X105325597Y-77129037D01*
X105005926Y-78163064D01*
X104901402Y-78163064D01*
X105221128Y-77129037D01*
G37*
G36*
X105644939Y-77129037D02*
G01*
X105749407Y-77129037D01*
X105429736Y-78163064D01*
X105325212Y-78163064D01*
X105644939Y-77129037D01*
G37*
G36*
X106150167Y-77343611D02*
G01*
X106193433Y-77353699D01*
X106230975Y-77369793D01*
X106264775Y-77392575D01*
X106294624Y-77422239D01*
X106320771Y-77459644D01*
X106320771Y-77357648D01*
X106433922Y-77357648D01*
X106433922Y-77961270D01*
X106428112Y-78050140D01*
X106412192Y-78121077D01*
X106387836Y-78177403D01*
X106355832Y-78221810D01*
X106314261Y-78257446D01*
X106262213Y-78283981D01*
X106197368Y-78301073D01*
X106116669Y-78307265D01*
X106057995Y-78304825D01*
X106004177Y-78297758D01*
X105952060Y-78285703D01*
X105901522Y-78268577D01*
X105901522Y-78159547D01*
X105951741Y-78183295D01*
X105999891Y-78199389D01*
X106048909Y-78209073D01*
X106098864Y-78212303D01*
X106154674Y-78208149D01*
X106199771Y-78196665D01*
X106236171Y-78178832D01*
X106265431Y-78154930D01*
X106288291Y-78124910D01*
X106305525Y-78087228D01*
X106316708Y-78040189D01*
X106320771Y-77981658D01*
X106320771Y-77927418D01*
X106294624Y-77964824D01*
X106264775Y-77994487D01*
X106230975Y-78017269D01*
X106193433Y-78033364D01*
X106150167Y-78043451D01*
X106100073Y-78047000D01*
X106038839Y-78040743D01*
X105985408Y-78022668D01*
X105938118Y-77992874D01*
X105895916Y-77950224D01*
X105863250Y-77900231D01*
X105839127Y-77841911D01*
X105823882Y-77773746D01*
X105818485Y-77693861D01*
X105935319Y-77693861D01*
X105939011Y-77756029D01*
X105949259Y-77807351D01*
X105965111Y-77849603D01*
X105986042Y-77884279D01*
X106013905Y-77913913D01*
X106046143Y-77934772D01*
X106083621Y-77947562D01*
X106127715Y-77952038D01*
X106172163Y-77947549D01*
X106209853Y-77934739D01*
X106242187Y-77913876D01*
X106270048Y-77884279D01*
X106290979Y-77849603D01*
X106306831Y-77807351D01*
X106317079Y-77756029D01*
X106320771Y-77693861D01*
X106317070Y-77631322D01*
X106306809Y-77579799D01*
X106290956Y-77537479D01*
X106270048Y-77502839D01*
X106242183Y-77473214D01*
X106209848Y-77452336D01*
X106172160Y-77439516D01*
X106127715Y-77435025D01*
X106083624Y-77439504D01*
X106046148Y-77452303D01*
X106013909Y-77473178D01*
X105986042Y-77502839D01*
X105965134Y-77537479D01*
X105949281Y-77579799D01*
X105939020Y-77631322D01*
X105935319Y-77693861D01*
X105818485Y-77693861D01*
X105823890Y-77613615D01*
X105839149Y-77545235D01*
X105863274Y-77486824D01*
X105895916Y-77436838D01*
X105938118Y-77394189D01*
X105985408Y-77364395D01*
X106038839Y-77346319D01*
X106100073Y-77340063D01*
X106150167Y-77343611D01*
G37*
G36*
X106666930Y-77357648D02*
G01*
X106780082Y-77357648D01*
X106780082Y-78047000D01*
X106666930Y-78047000D01*
X106666930Y-77357648D01*
G37*
G36*
X106666930Y-77090349D02*
G01*
X106780082Y-77090349D01*
X106780082Y-77234550D01*
X106666930Y-77234550D01*
X106666930Y-77090349D01*
G37*
G36*
X107128769Y-77160691D02*
G01*
X107128769Y-77357648D01*
X107361777Y-77357648D01*
X107361777Y-77445576D01*
X107128769Y-77445576D01*
X107128769Y-77819707D01*
X107132286Y-77876390D01*
X107140723Y-77909890D01*
X107151795Y-77928023D01*
X107169188Y-77939931D01*
X107198636Y-77948554D01*
X107245602Y-77952038D01*
X107361777Y-77952038D01*
X107361777Y-78047000D01*
X107245602Y-78047000D01*
X107177714Y-78043044D01*
X107127382Y-78032583D01*
X107090802Y-78017271D01*
X107064857Y-77998035D01*
X107045242Y-77972398D01*
X107029685Y-77936290D01*
X107019077Y-77886649D01*
X107015068Y-77819707D01*
X107015068Y-77445576D01*
X106932031Y-77445576D01*
X106932031Y-77357648D01*
X107015068Y-77357648D01*
X107015068Y-77160691D01*
X107128769Y-77160691D01*
G37*
G36*
X108082562Y-77629784D02*
G01*
X108082562Y-78047000D01*
X107969410Y-78047000D01*
X107969410Y-77633521D01*
X107964416Y-77569174D01*
X107951133Y-77521685D01*
X107931271Y-77487122D01*
X107902641Y-77460775D01*
X107865452Y-77444440D01*
X107816966Y-77438542D01*
X107771930Y-77442498D01*
X107733623Y-77453741D01*
X107700777Y-77471832D01*
X107672490Y-77497013D01*
X107650144Y-77527527D01*
X107633704Y-77563500D01*
X107623312Y-77605987D01*
X107619624Y-77656327D01*
X107619624Y-78047000D01*
X107505868Y-78047000D01*
X107505868Y-77090349D01*
X107619624Y-77090349D01*
X107619624Y-77463161D01*
X107649147Y-77424390D01*
X107680950Y-77393880D01*
X107715190Y-77370673D01*
X107752982Y-77353935D01*
X107795032Y-77343632D01*
X107842190Y-77340063D01*
X107900781Y-77345183D01*
X107948969Y-77359525D01*
X107988788Y-77382270D01*
X108021672Y-77413592D01*
X108046663Y-77451442D01*
X108065678Y-77498681D01*
X108078063Y-77557318D01*
X108082562Y-77629784D01*
G37*
G36*
X108296885Y-77775194D02*
G01*
X108296885Y-77357648D01*
X108409981Y-77357648D01*
X108409981Y-77770907D01*
X108414960Y-77835105D01*
X108428218Y-77882616D01*
X108448065Y-77917307D01*
X108476747Y-77943783D01*
X108513974Y-77960187D01*
X108562480Y-77966106D01*
X108607523Y-77962164D01*
X108645886Y-77950953D01*
X108678824Y-77932911D01*
X108707231Y-77907799D01*
X108729733Y-77877290D01*
X108746273Y-77841351D01*
X108756720Y-77798936D01*
X108760427Y-77748706D01*
X108760427Y-77357648D01*
X108873579Y-77357648D01*
X108873579Y-78047000D01*
X108760427Y-78047000D01*
X108760427Y-77941487D01*
X108730483Y-77980701D01*
X108698657Y-78011288D01*
X108664806Y-78034305D01*
X108627454Y-78050835D01*
X108585635Y-78061041D01*
X108538465Y-78064585D01*
X108479896Y-78059466D01*
X108431583Y-78045110D01*
X108391528Y-78022313D01*
X108358324Y-77990891D01*
X108333051Y-77952864D01*
X108313870Y-77905611D01*
X108301405Y-77847178D01*
X108296885Y-77775194D01*
G37*
G36*
X109216386Y-77459644D02*
G01*
X109242926Y-77421828D01*
X109272875Y-77392100D01*
X109306456Y-77369519D01*
X109343800Y-77353568D01*
X109386780Y-77343576D01*
X109436479Y-77340063D01*
X109496854Y-77346435D01*
X109549967Y-77364935D01*
X109597434Y-77395625D01*
X109640251Y-77439861D01*
X109673358Y-77491351D01*
X109697793Y-77551196D01*
X109713218Y-77620904D01*
X109718671Y-77702324D01*
X109713218Y-77783744D01*
X109697793Y-77853452D01*
X109673358Y-77913297D01*
X109640251Y-77964787D01*
X109597434Y-78009023D01*
X109549967Y-78039713D01*
X109496854Y-78058213D01*
X109436479Y-78064585D01*
X109386777Y-78061078D01*
X109343796Y-78051104D01*
X109306456Y-78035184D01*
X109272873Y-78012571D01*
X109242924Y-77982824D01*
X109216386Y-77945004D01*
X109216386Y-78047000D01*
X109102630Y-78047000D01*
X109102630Y-77702324D01*
X109216386Y-77702324D01*
X109220096Y-77765660D01*
X109230432Y-77818389D01*
X109246474Y-77862197D01*
X109267713Y-77898512D01*
X109296077Y-77929881D01*
X109328435Y-77951733D01*
X109365580Y-77965008D01*
X109408837Y-77969623D01*
X109452065Y-77965009D01*
X109489192Y-77951736D01*
X109521542Y-77929884D01*
X109549905Y-77898512D01*
X109571144Y-77862197D01*
X109587187Y-77818389D01*
X109597523Y-77765660D01*
X109601233Y-77702324D01*
X109597522Y-77638986D01*
X109587185Y-77586267D01*
X109571142Y-77542479D01*
X109549905Y-77506191D01*
X109521538Y-77474791D01*
X109489187Y-77452924D01*
X109452061Y-77439642D01*
X109408837Y-77435025D01*
X109365583Y-77439643D01*
X109328440Y-77452926D01*
X109296080Y-77474795D01*
X109267713Y-77506191D01*
X109246476Y-77542479D01*
X109230434Y-77586267D01*
X109220097Y-77638986D01*
X109216386Y-77702324D01*
X109102630Y-77702324D01*
X109102630Y-77090349D01*
X109216386Y-77090349D01*
X109216386Y-77459644D01*
G37*
G36*
X109922168Y-77892247D02*
G01*
X110051916Y-77892247D01*
X110051916Y-78047000D01*
X109922168Y-78047000D01*
X109922168Y-77892247D01*
G37*
G36*
X110801772Y-77382268D02*
G01*
X110801772Y-77487781D01*
X110753194Y-77464481D01*
X110705547Y-77448214D01*
X110656964Y-77438309D01*
X110608112Y-77435025D01*
X110553990Y-77439816D01*
X110508482Y-77453372D01*
X110469940Y-77475094D01*
X110437203Y-77505257D01*
X110411793Y-77541711D01*
X110392839Y-77585655D01*
X110380713Y-77638577D01*
X110376368Y-77702324D01*
X110380713Y-77766071D01*
X110392839Y-77818993D01*
X110411793Y-77862937D01*
X110437203Y-77899391D01*
X110469940Y-77929554D01*
X110508482Y-77951276D01*
X110553990Y-77964832D01*
X110608112Y-77969623D01*
X110656964Y-77966339D01*
X110705547Y-77956434D01*
X110753194Y-77940167D01*
X110801772Y-77916867D01*
X110801772Y-78022380D01*
X110753604Y-78040845D01*
X110703733Y-78054034D01*
X110652053Y-78061882D01*
X110595802Y-78064585D01*
X110533628Y-78060313D01*
X110478850Y-78048071D01*
X110430334Y-78028395D01*
X110387161Y-78001376D01*
X110348671Y-77966656D01*
X110309718Y-77915263D01*
X110281261Y-77855259D01*
X110263382Y-77784994D01*
X110257062Y-77702324D01*
X110263489Y-77618330D01*
X110281605Y-77547527D01*
X110310335Y-77487603D01*
X110349550Y-77436783D01*
X110388248Y-77402740D01*
X110432096Y-77376083D01*
X110481828Y-77356555D01*
X110538446Y-77344341D01*
X110603166Y-77340063D01*
X110654972Y-77342718D01*
X110705217Y-77350614D01*
X110754243Y-77363792D01*
X110801772Y-77382268D01*
G37*
G36*
X111337520Y-77346557D02*
G01*
X111398994Y-77365010D01*
X111451612Y-77394728D01*
X111496838Y-77436179D01*
X111532197Y-77486169D01*
X111558426Y-77545848D01*
X111575125Y-77617110D01*
X111581084Y-77702324D01*
X111575138Y-77787195D01*
X111558459Y-77858325D01*
X111532231Y-77918040D01*
X111496838Y-77968195D01*
X111451594Y-78009777D01*
X111398970Y-78039577D01*
X111337502Y-78058076D01*
X111265095Y-78064585D01*
X111192327Y-78058061D01*
X111130699Y-78039538D01*
X111078076Y-78009736D01*
X111032966Y-77968195D01*
X110997724Y-77918061D01*
X110971596Y-77858354D01*
X110954977Y-77787217D01*
X110949051Y-77702324D01*
X111068357Y-77702324D01*
X111072133Y-77765202D01*
X111082673Y-77817754D01*
X111099084Y-77861621D01*
X111120894Y-77898182D01*
X111149868Y-77929644D01*
X111182930Y-77951609D01*
X111220893Y-77964974D01*
X111265095Y-77969623D01*
X111308601Y-77964986D01*
X111346199Y-77951616D01*
X111379176Y-77929558D01*
X111408307Y-77897853D01*
X111430292Y-77861128D01*
X111446804Y-77817236D01*
X111457387Y-77764834D01*
X111461173Y-77702324D01*
X111457399Y-77640160D01*
X111446832Y-77587902D01*
X111430322Y-77543992D01*
X111408307Y-77507125D01*
X111379155Y-77475256D01*
X111346170Y-77453100D01*
X111308581Y-77439678D01*
X111265095Y-77435025D01*
X111221219Y-77439661D01*
X111183402Y-77453009D01*
X111150334Y-77474989D01*
X111121223Y-77506521D01*
X111099269Y-77543076D01*
X111082756Y-77586931D01*
X111072154Y-77639466D01*
X111068357Y-77702324D01*
X110949051Y-77702324D01*
X110954990Y-77617088D01*
X110971629Y-77545819D01*
X110997758Y-77486147D01*
X111032966Y-77436179D01*
X111078059Y-77394768D01*
X111130675Y-77365048D01*
X111192309Y-77346572D01*
X111265095Y-77340063D01*
X111337520Y-77346557D01*
G37*
G36*
X112304617Y-77488441D02*
G01*
X112336066Y-77440482D01*
X112369854Y-77403623D01*
X112406063Y-77376278D01*
X112446806Y-77356499D01*
X112492745Y-77344304D01*
X112544988Y-77340063D01*
X112597487Y-77345130D01*
X112641617Y-77359512D01*
X112679069Y-77382745D01*
X112710951Y-77415406D01*
X112735031Y-77454031D01*
X112753281Y-77501400D01*
X112765101Y-77559280D01*
X112769368Y-77629784D01*
X112769368Y-78047000D01*
X112655667Y-78047000D01*
X112655667Y-77633521D01*
X112651000Y-77568058D01*
X112638707Y-77520466D01*
X112620606Y-77486517D01*
X112593973Y-77460415D01*
X112559209Y-77444338D01*
X112513664Y-77438542D01*
X112470593Y-77442464D01*
X112433820Y-77453642D01*
X112402130Y-77471713D01*
X112374684Y-77497013D01*
X112347280Y-77538724D01*
X112329938Y-77590880D01*
X112323686Y-77656327D01*
X112323686Y-78047000D01*
X112209930Y-78047000D01*
X112209930Y-77633521D01*
X112205246Y-77567633D01*
X112192938Y-77519996D01*
X112174869Y-77486242D01*
X112148224Y-77460373D01*
X112113084Y-77444346D01*
X112066663Y-77438542D01*
X112024290Y-77442457D01*
X111987932Y-77453646D01*
X111956418Y-77471793D01*
X111928947Y-77497288D01*
X111901506Y-77539191D01*
X111884181Y-77591287D01*
X111877949Y-77656327D01*
X111877949Y-78047000D01*
X111764193Y-78047000D01*
X111764193Y-77357648D01*
X111877949Y-77357648D01*
X111877949Y-77463161D01*
X111906436Y-77423652D01*
X111937324Y-77392994D01*
X111970767Y-77370068D01*
X112007954Y-77353779D01*
X112050439Y-77343621D01*
X112099251Y-77340063D01*
X112148026Y-77344529D01*
X112190111Y-77357318D01*
X112226801Y-77378092D01*
X112258106Y-77406421D01*
X112284034Y-77442736D01*
X112304617Y-77488441D01*
G37*
G36*
X113196146Y-77129037D02*
G01*
X113300615Y-77129037D01*
X112980943Y-78163064D01*
X112876420Y-78163064D01*
X113196146Y-77129037D01*
G37*
G36*
X113528347Y-77459644D02*
G01*
X113554887Y-77421828D01*
X113584836Y-77392100D01*
X113618417Y-77369519D01*
X113655761Y-77353568D01*
X113698741Y-77343576D01*
X113748440Y-77340063D01*
X113808815Y-77346435D01*
X113861927Y-77364935D01*
X113909395Y-77395625D01*
X113952212Y-77439861D01*
X113985319Y-77491351D01*
X114009754Y-77551196D01*
X114025179Y-77620904D01*
X114030632Y-77702324D01*
X114025179Y-77783744D01*
X114009754Y-77853452D01*
X113985319Y-77913297D01*
X113952212Y-77964787D01*
X113909395Y-78009023D01*
X113861927Y-78039713D01*
X113808815Y-78058213D01*
X113748440Y-78064585D01*
X113698738Y-78061078D01*
X113655757Y-78051104D01*
X113618417Y-78035184D01*
X113584834Y-78012571D01*
X113554885Y-77982824D01*
X113528347Y-77945004D01*
X113528347Y-78047000D01*
X113414591Y-78047000D01*
X113414591Y-77702324D01*
X113528347Y-77702324D01*
X113532057Y-77765660D01*
X113542393Y-77818389D01*
X113558435Y-77862197D01*
X113579674Y-77898512D01*
X113608038Y-77929881D01*
X113640396Y-77951733D01*
X113677540Y-77965008D01*
X113720798Y-77969623D01*
X113764026Y-77965009D01*
X113801153Y-77951736D01*
X113833503Y-77929884D01*
X113861866Y-77898512D01*
X113883105Y-77862197D01*
X113899148Y-77818389D01*
X113909483Y-77765660D01*
X113913194Y-77702324D01*
X113909483Y-77638986D01*
X113899146Y-77586267D01*
X113883103Y-77542479D01*
X113861866Y-77506191D01*
X113833499Y-77474791D01*
X113801148Y-77452924D01*
X113764022Y-77439642D01*
X113720798Y-77435025D01*
X113677544Y-77439643D01*
X113640401Y-77452926D01*
X113608041Y-77474795D01*
X113579674Y-77506191D01*
X113558437Y-77542479D01*
X113542395Y-77586267D01*
X113532058Y-77638986D01*
X113528347Y-77702324D01*
X113414591Y-77702324D01*
X113414591Y-77090349D01*
X113528347Y-77090349D01*
X113528347Y-77459644D01*
G37*
G36*
X114534679Y-77345678D02*
G01*
X114595134Y-77361191D01*
X114643833Y-77385271D01*
X114682889Y-77417549D01*
X114713312Y-77458059D01*
X114736305Y-77509054D01*
X114751255Y-77572868D01*
X114756693Y-77652425D01*
X114756693Y-78047000D01*
X114643596Y-78047000D01*
X114643596Y-77941487D01*
X114614927Y-77980699D01*
X114582826Y-78011407D01*
X114547041Y-78034580D01*
X114507444Y-78050705D01*
X114460765Y-78060945D01*
X114405643Y-78064585D01*
X114353177Y-78060498D01*
X114308515Y-78048922D01*
X114270296Y-78030460D01*
X114237481Y-78005124D01*
X114210618Y-77973475D01*
X114191304Y-77937046D01*
X114179315Y-77894903D01*
X114175108Y-77845756D01*
X114175838Y-77837952D01*
X114288259Y-77837952D01*
X114292922Y-77876558D01*
X114306148Y-77908047D01*
X114327882Y-77934068D01*
X114356276Y-77953220D01*
X114391618Y-77965285D01*
X114435813Y-77969623D01*
X114481562Y-77965217D01*
X114521213Y-77952553D01*
X114555993Y-77931853D01*
X114586718Y-77902524D01*
X114610800Y-77867670D01*
X114628500Y-77827078D01*
X114639653Y-77779681D01*
X114643596Y-77724141D01*
X114643596Y-77698807D01*
X114531104Y-77698807D01*
X114438762Y-77703396D01*
X114378418Y-77714841D01*
X114341126Y-77730351D01*
X114318506Y-77748361D01*
X114302257Y-77771466D01*
X114291977Y-77800746D01*
X114288259Y-77837952D01*
X114175838Y-77837952D01*
X114180452Y-77788612D01*
X114195473Y-77741524D01*
X114219470Y-77702461D01*
X114252869Y-77670066D01*
X114292559Y-77646044D01*
X114342855Y-77627521D01*
X114406084Y-77615334D01*
X114484997Y-77610879D01*
X114643596Y-77610879D01*
X114643596Y-77599669D01*
X114637483Y-77549663D01*
X114620307Y-77509931D01*
X114592268Y-77478054D01*
X114555686Y-77455159D01*
X114508593Y-77440412D01*
X114448068Y-77435025D01*
X114389658Y-77438561D01*
X114333102Y-77449093D01*
X114278356Y-77466629D01*
X114225501Y-77491298D01*
X114225501Y-77385785D01*
X114287489Y-77365552D01*
X114346017Y-77351494D01*
X114404165Y-77342869D01*
X114459718Y-77340063D01*
X114534679Y-77345678D01*
G37*
G36*
X115429118Y-77378751D02*
G01*
X115429118Y-77484264D01*
X115380131Y-77462688D01*
X115329485Y-77447334D01*
X115277220Y-77438133D01*
X115222543Y-77435025D01*
X115166573Y-77438481D01*
X115125593Y-77447577D01*
X115096203Y-77460853D01*
X115072774Y-77480951D01*
X115058954Y-77506159D01*
X115054107Y-77538174D01*
X115057564Y-77562861D01*
X115067489Y-77583062D01*
X115084222Y-77599889D01*
X115122646Y-77619255D01*
X115205342Y-77642588D01*
X115244085Y-77651161D01*
X115323374Y-77673158D01*
X115378528Y-77697879D01*
X115415269Y-77724306D01*
X115442808Y-77758804D01*
X115459884Y-77801866D01*
X115465992Y-77856032D01*
X115461076Y-77902402D01*
X115446911Y-77942431D01*
X115423565Y-77977494D01*
X115390045Y-78008421D01*
X115351221Y-78031722D01*
X115304537Y-78049266D01*
X115248499Y-78060543D01*
X115181327Y-78064585D01*
X115125587Y-78061797D01*
X115066087Y-78053154D01*
X115005679Y-78039179D01*
X114939747Y-78018863D01*
X114939747Y-77902799D01*
X115002902Y-77932406D01*
X115063285Y-77952917D01*
X115124276Y-77965504D01*
X115183800Y-77969623D01*
X115236677Y-77966041D01*
X115276763Y-77956445D01*
X115306789Y-77942091D01*
X115330944Y-77920919D01*
X115344977Y-77895520D01*
X115349818Y-77864440D01*
X115346121Y-77835009D01*
X115335744Y-77811801D01*
X115318769Y-77793329D01*
X115295905Y-77779778D01*
X115253480Y-77763882D01*
X115182591Y-77745683D01*
X115143244Y-77736506D01*
X115074505Y-77717275D01*
X115025331Y-77694323D01*
X114991349Y-77668582D01*
X114966000Y-77635364D01*
X114950259Y-77594234D01*
X114944638Y-77542901D01*
X114949254Y-77495583D01*
X114962370Y-77455739D01*
X114983595Y-77421849D01*
X115013496Y-77392929D01*
X115048767Y-77371142D01*
X115091993Y-77354623D01*
X115144775Y-77343925D01*
X115209024Y-77340063D01*
X115270707Y-77342549D01*
X115327067Y-77349735D01*
X115380917Y-77362015D01*
X115429118Y-77378751D01*
G37*
G36*
X115757966Y-77160691D02*
G01*
X115757966Y-77357648D01*
X115990974Y-77357648D01*
X115990974Y-77445576D01*
X115757966Y-77445576D01*
X115757966Y-77819707D01*
X115761483Y-77876390D01*
X115769920Y-77909890D01*
X115780992Y-77928023D01*
X115798385Y-77939931D01*
X115827834Y-77948554D01*
X115874800Y-77952038D01*
X115990974Y-77952038D01*
X115990974Y-78047000D01*
X115874800Y-78047000D01*
X115806911Y-78043044D01*
X115756579Y-78032583D01*
X115719999Y-78017271D01*
X115694054Y-77998035D01*
X115674440Y-77972398D01*
X115658882Y-77936290D01*
X115648274Y-77886649D01*
X115644265Y-77819707D01*
X115644265Y-77445576D01*
X115561229Y-77445576D01*
X115561229Y-77357648D01*
X115644265Y-77357648D01*
X115644265Y-77160691D01*
X115757966Y-77160691D01*
G37*
G36*
X116139352Y-77357648D02*
G01*
X116252503Y-77357648D01*
X116252503Y-78047000D01*
X116139352Y-78047000D01*
X116139352Y-77357648D01*
G37*
G36*
X116139352Y-77090349D02*
G01*
X116252503Y-77090349D01*
X116252503Y-77234550D01*
X116139352Y-77234550D01*
X116139352Y-77090349D01*
G37*
G36*
X116805844Y-77345678D02*
G01*
X116866299Y-77361191D01*
X116914998Y-77385271D01*
X116954054Y-77417549D01*
X116984477Y-77458059D01*
X117007470Y-77509054D01*
X117022420Y-77572868D01*
X117027858Y-77652425D01*
X117027858Y-78047000D01*
X116914762Y-78047000D01*
X116914762Y-77941487D01*
X116886092Y-77980699D01*
X116853991Y-78011407D01*
X116818206Y-78034580D01*
X116778609Y-78050705D01*
X116731930Y-78060945D01*
X116676808Y-78064585D01*
X116624343Y-78060498D01*
X116579681Y-78048922D01*
X116541462Y-78030460D01*
X116508647Y-78005124D01*
X116481783Y-77973475D01*
X116462469Y-77937046D01*
X116450481Y-77894903D01*
X116446273Y-77845756D01*
X116447003Y-77837952D01*
X116559425Y-77837952D01*
X116564087Y-77876558D01*
X116577314Y-77908047D01*
X116599047Y-77934068D01*
X116627442Y-77953220D01*
X116662784Y-77965285D01*
X116706978Y-77969623D01*
X116752728Y-77965217D01*
X116792379Y-77952553D01*
X116827158Y-77931853D01*
X116857883Y-77902524D01*
X116881965Y-77867670D01*
X116899665Y-77827078D01*
X116910818Y-77779681D01*
X116914762Y-77724141D01*
X116914762Y-77698807D01*
X116802269Y-77698807D01*
X116709927Y-77703396D01*
X116649583Y-77714841D01*
X116612291Y-77730351D01*
X116589672Y-77748361D01*
X116573422Y-77771466D01*
X116563142Y-77800746D01*
X116559425Y-77837952D01*
X116447003Y-77837952D01*
X116451617Y-77788612D01*
X116466638Y-77741524D01*
X116490636Y-77702461D01*
X116524034Y-77670066D01*
X116563724Y-77646044D01*
X116614020Y-77627521D01*
X116677249Y-77615334D01*
X116756162Y-77610879D01*
X116914762Y-77610879D01*
X116914762Y-77599669D01*
X116908648Y-77549663D01*
X116891472Y-77509931D01*
X116863434Y-77478054D01*
X116826852Y-77455159D01*
X116779758Y-77440412D01*
X116719233Y-77435025D01*
X116660823Y-77438561D01*
X116604268Y-77449093D01*
X116549521Y-77466629D01*
X116496667Y-77491298D01*
X116496667Y-77385785D01*
X116558654Y-77365552D01*
X116617182Y-77351494D01*
X116675331Y-77342869D01*
X116730883Y-77340063D01*
X116805844Y-77345678D01*
G37*
G36*
X117833713Y-77629784D02*
G01*
X117833713Y-78047000D01*
X117720561Y-78047000D01*
X117720561Y-77633521D01*
X117715567Y-77569174D01*
X117702284Y-77521685D01*
X117682423Y-77487122D01*
X117653793Y-77460775D01*
X117616604Y-77444440D01*
X117568117Y-77438542D01*
X117523081Y-77442498D01*
X117484774Y-77453741D01*
X117451928Y-77471832D01*
X117423641Y-77497013D01*
X117401295Y-77527527D01*
X117384855Y-77563500D01*
X117374464Y-77605987D01*
X117370775Y-77656327D01*
X117370775Y-78047000D01*
X117257019Y-78047000D01*
X117257019Y-77357648D01*
X117370775Y-77357648D01*
X117370775Y-77463161D01*
X117400299Y-77424390D01*
X117432101Y-77393880D01*
X117466341Y-77370673D01*
X117504133Y-77353935D01*
X117546183Y-77343632D01*
X117593341Y-77340063D01*
X117651933Y-77345183D01*
X117700121Y-77359525D01*
X117739939Y-77382270D01*
X117772823Y-77413592D01*
X117797815Y-77451442D01*
X117816829Y-77498681D01*
X117829215Y-77557318D01*
X117833713Y-77629784D01*
G37*
G36*
X118182675Y-77941487D02*
G01*
X118616102Y-77941487D01*
X118616102Y-78047000D01*
X118033253Y-78047000D01*
X118033253Y-77941487D01*
X118225979Y-77745299D01*
X118379358Y-77586590D01*
X118432937Y-77520814D01*
X118462669Y-77473328D01*
X118480653Y-77426488D01*
X118486354Y-77382158D01*
X118480459Y-77335723D01*
X118463463Y-77296595D01*
X118435027Y-77263017D01*
X118398402Y-77237956D01*
X118354490Y-77222451D01*
X118301322Y-77216965D01*
X118242449Y-77221791D01*
X118178004Y-77237023D01*
X118112899Y-77261401D01*
X118039408Y-77297858D01*
X118039408Y-77171242D01*
X118113686Y-77144710D01*
X118179543Y-77126564D01*
X118243604Y-77115024D01*
X118298849Y-77111452D01*
X118370150Y-77116428D01*
X118430709Y-77130466D01*
X118482290Y-77152674D01*
X118526306Y-77182783D01*
X118563358Y-77221351D01*
X118589534Y-77265179D01*
X118605570Y-77315321D01*
X118611156Y-77373366D01*
X118605818Y-77428648D01*
X118589944Y-77480692D01*
X118562451Y-77532189D01*
X118512788Y-77600273D01*
X118415023Y-77703258D01*
X118182675Y-77941487D01*
G37*
G36*
X119202808Y-77116641D02*
G01*
X119255393Y-77131513D01*
X119301503Y-77155608D01*
X119342196Y-77189271D01*
X119378048Y-77233616D01*
X119411065Y-77295253D01*
X119436613Y-77372647D01*
X119453418Y-77469079D01*
X119459546Y-77588348D01*
X119453425Y-77707242D01*
X119436631Y-77803475D01*
X119411085Y-77880803D01*
X119378048Y-77942476D01*
X119342199Y-77986798D01*
X119301507Y-78020445D01*
X119255397Y-78044531D01*
X119202811Y-78059397D01*
X119142293Y-78064585D01*
X119081775Y-78059398D01*
X119029183Y-78044532D01*
X118983062Y-78020447D01*
X118942353Y-77986799D01*
X118906483Y-77942476D01*
X118873470Y-77880806D01*
X118847940Y-77803480D01*
X118831157Y-77707246D01*
X118825040Y-77588348D01*
X118949842Y-77588348D01*
X118953616Y-77686614D01*
X118963830Y-77764373D01*
X118979031Y-77825048D01*
X118998092Y-77871694D01*
X119026451Y-77914433D01*
X119059311Y-77943162D01*
X119097354Y-77960215D01*
X119142293Y-77966106D01*
X119187550Y-77960199D01*
X119225777Y-77943120D01*
X119258709Y-77914386D01*
X119287043Y-77871694D01*
X119306128Y-77825045D01*
X119321346Y-77764369D01*
X119331570Y-77686611D01*
X119335349Y-77588348D01*
X119331565Y-77489708D01*
X119321332Y-77411752D01*
X119306113Y-77351012D01*
X119287043Y-77304397D01*
X119258706Y-77261677D01*
X119225772Y-77232927D01*
X119187546Y-77215840D01*
X119142293Y-77209930D01*
X119097358Y-77215824D01*
X119059316Y-77232885D01*
X119026454Y-77261630D01*
X118998092Y-77304397D01*
X118979045Y-77351009D01*
X118963843Y-77411747D01*
X118953621Y-77489705D01*
X118949842Y-77588348D01*
X118825040Y-77588348D01*
X118831164Y-77469075D01*
X118847959Y-77372642D01*
X118873490Y-77295250D01*
X118906483Y-77233616D01*
X118942356Y-77189270D01*
X118983066Y-77155607D01*
X119029188Y-77131512D01*
X119081778Y-77116641D01*
X119142293Y-77111452D01*
X119202808Y-77116641D01*
G37*
G36*
X120003827Y-77116641D02*
G01*
X120056412Y-77131513D01*
X120102521Y-77155608D01*
X120143215Y-77189271D01*
X120179067Y-77233616D01*
X120212083Y-77295253D01*
X120237631Y-77372647D01*
X120254437Y-77469079D01*
X120260565Y-77588348D01*
X120254444Y-77707242D01*
X120237650Y-77803475D01*
X120212104Y-77880803D01*
X120179067Y-77942476D01*
X120143218Y-77986798D01*
X120102526Y-78020445D01*
X120056416Y-78044531D01*
X120003830Y-78059397D01*
X119943312Y-78064585D01*
X119882794Y-78059398D01*
X119830202Y-78044532D01*
X119784080Y-78020447D01*
X119743372Y-77986799D01*
X119707501Y-77942476D01*
X119674488Y-77880806D01*
X119648959Y-77803480D01*
X119632176Y-77707246D01*
X119626059Y-77588348D01*
X119750861Y-77588348D01*
X119754635Y-77686614D01*
X119764848Y-77764373D01*
X119780049Y-77825048D01*
X119799111Y-77871694D01*
X119827470Y-77914433D01*
X119860330Y-77943162D01*
X119898373Y-77960215D01*
X119943312Y-77966106D01*
X119988569Y-77960199D01*
X120026796Y-77943120D01*
X120059728Y-77914386D01*
X120088062Y-77871694D01*
X120107146Y-77825045D01*
X120122364Y-77764369D01*
X120132589Y-77686611D01*
X120136367Y-77588348D01*
X120132584Y-77489708D01*
X120122351Y-77411752D01*
X120107132Y-77351012D01*
X120088062Y-77304397D01*
X120059725Y-77261677D01*
X120026791Y-77232927D01*
X119988565Y-77215840D01*
X119943312Y-77209930D01*
X119898377Y-77215824D01*
X119860335Y-77232885D01*
X119827473Y-77261630D01*
X119799111Y-77304397D01*
X119780064Y-77351009D01*
X119764862Y-77411747D01*
X119754640Y-77489705D01*
X119750861Y-77588348D01*
X119626059Y-77588348D01*
X119632183Y-77469075D01*
X119648978Y-77372642D01*
X119674509Y-77295250D01*
X119707501Y-77233616D01*
X119743374Y-77189270D01*
X119784085Y-77155607D01*
X119830207Y-77131512D01*
X119882797Y-77116641D01*
X119943312Y-77111452D01*
X120003827Y-77116641D01*
G37*
G36*
X120500277Y-77941487D02*
G01*
X120703170Y-77941487D01*
X120703170Y-77241584D01*
X120482417Y-77287307D01*
X120482417Y-77174759D01*
X120701906Y-77129037D01*
X120826103Y-77129037D01*
X120826103Y-77941487D01*
X121028996Y-77941487D01*
X121028996Y-78047000D01*
X120500277Y-78047000D01*
X120500277Y-77941487D01*
G37*
G36*
X121464841Y-77129037D02*
G01*
X121569310Y-77129037D01*
X121249639Y-78163064D01*
X121145115Y-78163064D01*
X121464841Y-77129037D01*
G37*
G36*
X121692518Y-77129037D02*
G01*
X121816715Y-77129037D01*
X121816715Y-77517017D01*
X122228600Y-77129037D01*
X122388464Y-77129037D01*
X121932890Y-77556969D01*
X122421052Y-78047000D01*
X122257507Y-78047000D01*
X121816715Y-77604944D01*
X121816715Y-78047000D01*
X121692518Y-78047000D01*
X121692518Y-77129037D01*
G37*
G36*
X122790067Y-77346557D02*
G01*
X122851541Y-77365010D01*
X122904159Y-77394728D01*
X122949386Y-77436179D01*
X122984744Y-77486169D01*
X123010974Y-77545848D01*
X123027672Y-77617110D01*
X123033631Y-77702324D01*
X123027685Y-77787195D01*
X123011006Y-77858325D01*
X122984778Y-77918040D01*
X122949386Y-77968195D01*
X122904141Y-78009777D01*
X122851517Y-78039577D01*
X122790050Y-78058076D01*
X122717642Y-78064585D01*
X122644874Y-78058061D01*
X122583246Y-78039538D01*
X122530624Y-78009736D01*
X122485513Y-77968195D01*
X122450271Y-77918061D01*
X122424143Y-77858354D01*
X122407524Y-77787217D01*
X122401598Y-77702324D01*
X122520904Y-77702324D01*
X122524680Y-77765202D01*
X122535220Y-77817754D01*
X122551631Y-77861621D01*
X122573441Y-77898182D01*
X122602415Y-77929644D01*
X122635477Y-77951609D01*
X122673440Y-77964974D01*
X122717642Y-77969623D01*
X122761149Y-77964986D01*
X122798746Y-77951616D01*
X122831723Y-77929558D01*
X122860854Y-77897853D01*
X122882840Y-77861128D01*
X122899351Y-77817236D01*
X122909935Y-77764834D01*
X122913720Y-77702324D01*
X122909946Y-77640160D01*
X122899379Y-77587902D01*
X122882869Y-77543992D01*
X122860854Y-77507125D01*
X122831703Y-77475256D01*
X122798718Y-77453100D01*
X122761128Y-77439678D01*
X122717642Y-77435025D01*
X122673766Y-77439661D01*
X122635949Y-77453009D01*
X122602881Y-77474989D01*
X122573771Y-77506521D01*
X122551816Y-77543076D01*
X122535303Y-77586931D01*
X122524701Y-77639466D01*
X122520904Y-77702324D01*
X122401598Y-77702324D01*
X122407537Y-77617088D01*
X122424176Y-77545819D01*
X122450305Y-77486147D01*
X122485513Y-77436179D01*
X122530606Y-77394768D01*
X122583222Y-77365048D01*
X122644856Y-77346572D01*
X122717642Y-77340063D01*
X122790067Y-77346557D01*
G37*
G36*
X123221026Y-77090349D02*
G01*
X123334178Y-77090349D01*
X123334178Y-78047000D01*
X123221026Y-78047000D01*
X123221026Y-77090349D01*
G37*
G36*
X123570977Y-77357648D02*
G01*
X123684129Y-77357648D01*
X123684129Y-78047000D01*
X123570977Y-78047000D01*
X123570977Y-77357648D01*
G37*
G36*
X123570977Y-77090349D02*
G01*
X123684129Y-77090349D01*
X123684129Y-77234550D01*
X123570977Y-77234550D01*
X123570977Y-77090349D01*
G37*
G36*
X124030398Y-77459644D02*
G01*
X124056939Y-77421828D01*
X124086888Y-77392100D01*
X124120469Y-77369519D01*
X124157812Y-77353568D01*
X124200793Y-77343576D01*
X124250492Y-77340063D01*
X124310866Y-77346435D01*
X124363979Y-77364935D01*
X124411446Y-77395625D01*
X124454263Y-77439861D01*
X124487371Y-77491351D01*
X124511805Y-77551196D01*
X124527230Y-77620904D01*
X124532684Y-77702324D01*
X124527230Y-77783744D01*
X124511805Y-77853452D01*
X124487371Y-77913297D01*
X124454263Y-77964787D01*
X124411446Y-78009023D01*
X124363979Y-78039713D01*
X124310866Y-78058213D01*
X124250492Y-78064585D01*
X124200790Y-78061078D01*
X124157809Y-78051104D01*
X124120469Y-78035184D01*
X124086886Y-78012571D01*
X124056936Y-77982824D01*
X124030398Y-77945004D01*
X124030398Y-78047000D01*
X123916642Y-78047000D01*
X123916642Y-77702324D01*
X124030398Y-77702324D01*
X124034109Y-77765660D01*
X124044444Y-77818389D01*
X124060487Y-77862197D01*
X124081726Y-77898512D01*
X124110089Y-77929881D01*
X124142448Y-77951733D01*
X124179592Y-77965008D01*
X124222849Y-77969623D01*
X124266077Y-77965009D01*
X124303204Y-77951736D01*
X124335554Y-77929884D01*
X124363918Y-77898512D01*
X124385157Y-77862197D01*
X124401200Y-77818389D01*
X124411535Y-77765660D01*
X124415246Y-77702324D01*
X124411534Y-77638986D01*
X124401198Y-77586267D01*
X124385155Y-77542479D01*
X124363918Y-77506191D01*
X124335551Y-77474791D01*
X124303199Y-77452924D01*
X124266074Y-77439642D01*
X124222849Y-77435025D01*
X124179596Y-77439643D01*
X124142452Y-77452926D01*
X124110093Y-77474795D01*
X124081726Y-77506191D01*
X124060489Y-77542479D01*
X124044446Y-77586267D01*
X124034110Y-77638986D01*
X124030398Y-77702324D01*
X123916642Y-77702324D01*
X123916642Y-77090349D01*
X124030398Y-77090349D01*
X124030398Y-77459644D01*
G37*
G36*
X125119215Y-77463161D02*
G01*
X125077724Y-77447225D01*
X125028210Y-77442059D01*
X124981079Y-77446318D01*
X124941772Y-77458333D01*
X124908760Y-77477558D01*
X124880986Y-77504267D01*
X124859780Y-77536319D01*
X124843761Y-77575709D01*
X124833400Y-77623948D01*
X124829659Y-77682870D01*
X124829659Y-78047000D01*
X124715902Y-78047000D01*
X124715902Y-77357648D01*
X124829659Y-77357648D01*
X124829659Y-77463161D01*
X124856412Y-77424375D01*
X124887255Y-77393760D01*
X124922477Y-77370398D01*
X124961726Y-77354050D01*
X125007609Y-77343720D01*
X125061402Y-77340063D01*
X125087231Y-77341822D01*
X125118610Y-77347097D01*
X125119215Y-77463161D01*
G37*
G36*
X125238081Y-77357648D02*
G01*
X125351233Y-77357648D01*
X125351233Y-78047000D01*
X125238081Y-78047000D01*
X125238081Y-77357648D01*
G37*
G36*
X125238081Y-77090349D02*
G01*
X125351233Y-77090349D01*
X125351233Y-77234550D01*
X125238081Y-77234550D01*
X125238081Y-77090349D01*
G37*
G36*
X125530880Y-77649568D02*
G01*
X125862256Y-77649568D01*
X125862256Y-77751563D01*
X125530880Y-77751563D01*
X125530880Y-77649568D01*
G37*
G36*
X126047563Y-77129037D02*
G01*
X126575073Y-77129037D01*
X126575073Y-77234550D01*
X126171761Y-77234550D01*
X126171761Y-77505367D01*
X126535725Y-77505367D01*
X126535725Y-77610879D01*
X126171761Y-77610879D01*
X126171761Y-78047000D01*
X126047563Y-78047000D01*
X126047563Y-77129037D01*
G37*
G36*
X127459403Y-77199379D02*
G01*
X127459403Y-77329512D01*
X127415830Y-77293255D01*
X127371336Y-77264374D01*
X127325698Y-77242299D01*
X127277642Y-77226340D01*
X127227487Y-77216705D01*
X127174793Y-77213448D01*
X127111434Y-77217769D01*
X127056906Y-77230025D01*
X127009816Y-77249505D01*
X126969035Y-77275995D01*
X126933762Y-77309783D01*
X126899143Y-77359713D01*
X126873080Y-77421103D01*
X126856251Y-77496337D01*
X126850176Y-77588348D01*
X126856242Y-77679992D01*
X126873058Y-77755015D01*
X126899119Y-77816317D01*
X126933762Y-77866254D01*
X126969035Y-77900042D01*
X127009816Y-77926531D01*
X127056906Y-77946012D01*
X127111434Y-77958268D01*
X127174793Y-77962589D01*
X127227487Y-77959331D01*
X127277642Y-77949697D01*
X127325698Y-77933738D01*
X127371336Y-77911663D01*
X127415830Y-77882782D01*
X127459403Y-77846525D01*
X127459403Y-77976658D01*
X127392034Y-78015254D01*
X127321357Y-78042603D01*
X127247060Y-78059003D01*
X127167374Y-78064585D01*
X127083786Y-78058960D01*
X127010590Y-78042888D01*
X126946207Y-78017156D01*
X126889348Y-77981965D01*
X126839075Y-77936925D01*
X126797321Y-77884227D01*
X126764301Y-77824221D01*
X126739924Y-77755852D01*
X126724600Y-77677763D01*
X126719219Y-77588348D01*
X126724607Y-77498630D01*
X126739945Y-77420343D01*
X126764331Y-77351868D01*
X126797347Y-77291831D01*
X126839075Y-77239166D01*
X126889351Y-77194105D01*
X126946212Y-77158899D01*
X127010594Y-77133157D01*
X127083789Y-77117079D01*
X127167374Y-77111452D01*
X127248121Y-77117053D01*
X127322621Y-77133434D01*
X127393095Y-77160836D01*
X127459403Y-77199379D01*
G37*
G36*
X127589261Y-77649568D02*
G01*
X127920637Y-77649568D01*
X127920637Y-77751563D01*
X127589261Y-77751563D01*
X127589261Y-77649568D01*
G37*
G36*
X128105944Y-77129037D02*
G01*
X128230142Y-77129037D01*
X128230142Y-77505367D01*
X128681374Y-77505367D01*
X128681374Y-77129037D01*
X128805572Y-77129037D01*
X128805572Y-78047000D01*
X128681374Y-78047000D01*
X128681374Y-77610879D01*
X128230142Y-77610879D01*
X128230142Y-78047000D01*
X128105944Y-78047000D01*
X128105944Y-77129037D01*
G37*
G36*
X129364518Y-77345678D02*
G01*
X129424974Y-77361191D01*
X129473672Y-77385271D01*
X129512728Y-77417549D01*
X129543151Y-77458059D01*
X129566145Y-77509054D01*
X129581094Y-77572868D01*
X129586532Y-77652425D01*
X129586532Y-78047000D01*
X129473436Y-78047000D01*
X129473436Y-77941487D01*
X129444766Y-77980699D01*
X129412665Y-78011407D01*
X129376880Y-78034580D01*
X129337283Y-78050705D01*
X129290604Y-78060945D01*
X129235482Y-78064585D01*
X129183017Y-78060498D01*
X129138355Y-78048922D01*
X129100136Y-78030460D01*
X129067321Y-78005124D01*
X129040458Y-77973475D01*
X129021143Y-77937046D01*
X129009155Y-77894903D01*
X129004947Y-77845756D01*
X129005677Y-77837952D01*
X129118099Y-77837952D01*
X129122761Y-77876558D01*
X129135988Y-77908047D01*
X129157721Y-77934068D01*
X129186116Y-77953220D01*
X129221458Y-77965285D01*
X129265652Y-77969623D01*
X129311402Y-77965217D01*
X129351053Y-77952553D01*
X129385832Y-77931853D01*
X129416558Y-77902524D01*
X129440639Y-77867670D01*
X129458339Y-77827078D01*
X129469492Y-77779681D01*
X129473436Y-77724141D01*
X129473436Y-77698807D01*
X129360943Y-77698807D01*
X129268601Y-77703396D01*
X129208257Y-77714841D01*
X129170965Y-77730351D01*
X129148346Y-77748361D01*
X129132096Y-77771466D01*
X129121816Y-77800746D01*
X129118099Y-77837952D01*
X129005677Y-77837952D01*
X129010291Y-77788612D01*
X129025312Y-77741524D01*
X129049310Y-77702461D01*
X129082708Y-77670066D01*
X129122398Y-77646044D01*
X129172694Y-77627521D01*
X129235924Y-77615334D01*
X129314837Y-77610879D01*
X129473436Y-77610879D01*
X129473436Y-77599669D01*
X129467323Y-77549663D01*
X129450146Y-77509931D01*
X129422108Y-77478054D01*
X129385526Y-77455159D01*
X129338432Y-77440412D01*
X129277907Y-77435025D01*
X129219497Y-77438561D01*
X129162942Y-77449093D01*
X129108196Y-77466629D01*
X129055341Y-77491298D01*
X129055341Y-77385785D01*
X129117328Y-77365552D01*
X129175856Y-77351494D01*
X129234005Y-77342869D01*
X129289557Y-77340063D01*
X129364518Y-77345678D01*
G37*
G36*
X130219005Y-77463161D02*
G01*
X130177514Y-77447225D01*
X130128000Y-77442059D01*
X130080870Y-77446318D01*
X130041563Y-77458333D01*
X130008551Y-77477558D01*
X129980777Y-77504267D01*
X129959571Y-77536319D01*
X129943552Y-77575709D01*
X129933191Y-77623948D01*
X129929449Y-77682870D01*
X129929449Y-78047000D01*
X129815693Y-78047000D01*
X129815693Y-77357648D01*
X129929449Y-77357648D01*
X129929449Y-77463161D01*
X129956203Y-77424375D01*
X129987045Y-77393760D01*
X130022268Y-77370398D01*
X130061517Y-77354050D01*
X130107400Y-77343720D01*
X130161193Y-77340063D01*
X130187022Y-77341822D01*
X130218401Y-77347097D01*
X130219005Y-77463161D01*
G37*
G36*
X130881264Y-78047000D02*
G01*
X130768112Y-78047000D01*
X130768112Y-77945004D01*
X130741574Y-77982824D01*
X130711625Y-78012571D01*
X130678041Y-78035184D01*
X130640696Y-78051085D01*
X130597526Y-78061068D01*
X130547414Y-78064585D01*
X130487360Y-78058225D01*
X130434435Y-78039747D01*
X130387039Y-78009060D01*
X130344192Y-77964787D01*
X130311110Y-77913300D01*
X130286692Y-77853456D01*
X130271277Y-77783747D01*
X130265827Y-77702324D01*
X130382660Y-77702324D01*
X130386371Y-77765660D01*
X130396706Y-77818389D01*
X130412749Y-77862197D01*
X130433988Y-77898512D01*
X130462351Y-77929884D01*
X130494702Y-77951736D01*
X130531828Y-77965009D01*
X130575056Y-77969623D01*
X130618313Y-77965012D01*
X130655510Y-77951742D01*
X130687961Y-77929889D01*
X130716455Y-77898512D01*
X130737840Y-77862176D01*
X130753984Y-77818360D01*
X130764380Y-77765639D01*
X130768112Y-77702324D01*
X130764380Y-77639007D01*
X130753982Y-77586296D01*
X130737838Y-77542500D01*
X130716455Y-77506191D01*
X130687958Y-77474787D01*
X130655505Y-77452918D01*
X130618310Y-77439639D01*
X130575056Y-77435025D01*
X130531832Y-77439642D01*
X130494706Y-77452924D01*
X130462355Y-77474791D01*
X130433988Y-77506191D01*
X130412751Y-77542479D01*
X130396708Y-77586267D01*
X130386371Y-77638986D01*
X130382660Y-77702324D01*
X130265827Y-77702324D01*
X130271277Y-77620901D01*
X130286692Y-77551192D01*
X130311110Y-77491348D01*
X130344192Y-77439861D01*
X130387039Y-77395587D01*
X130434435Y-77364901D01*
X130487360Y-77346423D01*
X130547414Y-77340063D01*
X130597523Y-77343586D01*
X130640692Y-77353587D01*
X130678041Y-77369519D01*
X130711623Y-77392100D01*
X130741572Y-77421828D01*
X130768112Y-77459644D01*
X130768112Y-77090349D01*
X130881264Y-77090349D01*
X130881264Y-78047000D01*
G37*
G36*
X131048491Y-77357648D02*
G01*
X131161642Y-77357648D01*
X131303040Y-77895599D01*
X131443834Y-77357648D01*
X131577209Y-77357648D01*
X131718662Y-77895599D01*
X131859401Y-77357648D01*
X131972553Y-77357648D01*
X131792412Y-78047000D01*
X131658982Y-78047000D01*
X131510824Y-77481956D01*
X131362062Y-78047000D01*
X131228632Y-78047000D01*
X131048491Y-77357648D01*
G37*
G36*
X132461322Y-77345678D02*
G01*
X132521777Y-77361191D01*
X132570476Y-77385271D01*
X132609532Y-77417549D01*
X132639955Y-77458059D01*
X132662948Y-77509054D01*
X132677898Y-77572868D01*
X132683336Y-77652425D01*
X132683336Y-78047000D01*
X132570240Y-78047000D01*
X132570240Y-77941487D01*
X132541570Y-77980699D01*
X132509469Y-78011407D01*
X132473684Y-78034580D01*
X132434087Y-78050705D01*
X132387408Y-78060945D01*
X132332286Y-78064585D01*
X132279821Y-78060498D01*
X132235159Y-78048922D01*
X132196940Y-78030460D01*
X132164125Y-78005124D01*
X132137261Y-77973475D01*
X132117947Y-77937046D01*
X132105959Y-77894903D01*
X132101751Y-77845756D01*
X132102481Y-77837952D01*
X132214903Y-77837952D01*
X132219565Y-77876558D01*
X132232792Y-77908047D01*
X132254525Y-77934068D01*
X132282920Y-77953220D01*
X132318262Y-77965285D01*
X132362456Y-77969623D01*
X132408206Y-77965217D01*
X132447857Y-77952553D01*
X132482636Y-77931853D01*
X132513361Y-77902524D01*
X132537443Y-77867670D01*
X132555143Y-77827078D01*
X132566296Y-77779681D01*
X132570240Y-77724141D01*
X132570240Y-77698807D01*
X132457747Y-77698807D01*
X132365405Y-77703396D01*
X132305061Y-77714841D01*
X132267769Y-77730351D01*
X132245150Y-77748361D01*
X132228900Y-77771466D01*
X132218620Y-77800746D01*
X132214903Y-77837952D01*
X132102481Y-77837952D01*
X132107095Y-77788612D01*
X132122116Y-77741524D01*
X132146114Y-77702461D01*
X132179512Y-77670066D01*
X132219202Y-77646044D01*
X132269498Y-77627521D01*
X132332727Y-77615334D01*
X132411640Y-77610879D01*
X132570240Y-77610879D01*
X132570240Y-77599669D01*
X132564126Y-77549663D01*
X132546950Y-77509931D01*
X132518912Y-77478054D01*
X132482330Y-77455159D01*
X132435236Y-77440412D01*
X132374711Y-77435025D01*
X132316301Y-77438561D01*
X132259746Y-77449093D01*
X132204999Y-77466629D01*
X132152145Y-77491298D01*
X132152145Y-77385785D01*
X132214132Y-77365552D01*
X132272660Y-77351494D01*
X132330809Y-77342869D01*
X132386361Y-77340063D01*
X132461322Y-77345678D01*
G37*
G36*
X133315809Y-77463161D02*
G01*
X133274318Y-77447225D01*
X133224804Y-77442059D01*
X133177674Y-77446318D01*
X133138367Y-77458333D01*
X133105355Y-77477558D01*
X133077581Y-77504267D01*
X133056375Y-77536319D01*
X133040356Y-77575709D01*
X133029995Y-77623948D01*
X133026253Y-77682870D01*
X133026253Y-78047000D01*
X132912497Y-78047000D01*
X132912497Y-77357648D01*
X133026253Y-77357648D01*
X133026253Y-77463161D01*
X133053007Y-77424375D01*
X133083849Y-77393760D01*
X133119072Y-77370398D01*
X133158320Y-77354050D01*
X133204204Y-77343720D01*
X133257997Y-77340063D01*
X133283826Y-77341822D01*
X133315205Y-77347097D01*
X133315809Y-77463161D01*
G37*
G36*
X133763163Y-77346088D02*
G01*
X133821386Y-77363233D01*
X133871451Y-77390859D01*
X133914705Y-77429364D01*
X133948907Y-77475993D01*
X133974043Y-77530847D01*
X133989914Y-77595507D01*
X133995543Y-77671989D01*
X133995543Y-77726944D01*
X133475397Y-77726944D01*
X133483276Y-77786115D01*
X133498053Y-77834824D01*
X133518961Y-77874849D01*
X133545794Y-77907580D01*
X133579007Y-77933855D01*
X133618445Y-77953122D01*
X133665344Y-77965295D01*
X133721319Y-77969623D01*
X133785729Y-77965637D01*
X133847660Y-77953796D01*
X133908090Y-77934224D01*
X133969110Y-77906316D01*
X133969110Y-78011829D01*
X133907366Y-78034552D01*
X133844253Y-78051066D01*
X133779927Y-78061200D01*
X133714560Y-78064585D01*
X133648259Y-78060329D01*
X133590098Y-78048172D01*
X133538884Y-78028737D01*
X133493626Y-78002237D01*
X133453580Y-77968469D01*
X133419738Y-77928446D01*
X133393204Y-77883284D01*
X133373760Y-77832254D01*
X133361607Y-77774379D01*
X133357355Y-77708479D01*
X133362518Y-77639621D01*
X133479079Y-77639621D01*
X133882391Y-77639016D01*
X133875581Y-77578934D01*
X133858044Y-77530239D01*
X133830459Y-77490529D01*
X133793479Y-77459990D01*
X133749406Y-77441504D01*
X133696095Y-77435025D01*
X133635077Y-77441451D01*
X133585375Y-77459525D01*
X133544530Y-77488660D01*
X133512923Y-77527724D01*
X133490915Y-77577168D01*
X133479079Y-77639621D01*
X133362518Y-77639621D01*
X133363678Y-77624143D01*
X133381540Y-77552595D01*
X133409909Y-77491644D01*
X133448635Y-77439586D01*
X133487112Y-77404218D01*
X133530200Y-77376755D01*
X133578545Y-77356792D01*
X133633062Y-77344388D01*
X133694886Y-77340063D01*
X133763163Y-77346088D01*
G37*
M02*
