%TF.GenerationSoftware,KiCad,Pcbnew,9.0.6*%
%TF.CreationDate,2025-11-04T18:35:39+01:00*%
%TF.ProjectId,Pixel,50697865-6c2e-46b6-9963-61645f706362,rev?*%
%TF.SameCoordinates,Original*%
%TF.FileFunction,Paste,Bot*%
%TF.FilePolarity,Positive*%
%FSLAX46Y46*%
G04 Gerber Fmt 4.6, Leading zero omitted, Abs format (unit mm)*
G04 Created by KiCad (PCBNEW 9.0.6) date 2025-11-04 18:35:39*
%MOMM*%
%LPD*%
G01*
G04 APERTURE LIST*
G04 Aperture macros list*
%AMRoundRect*
0 Rectangle with rounded corners*
0 $1 Rounding radius*
0 $2 $3 $4 $5 $6 $7 $8 $9 X,Y pos of 4 corners*
0 Add a 4 corners polygon primitive as box body*
4,1,4,$2,$3,$4,$5,$6,$7,$8,$9,$2,$3,0*
0 Add four circle primitives for the rounded corners*
1,1,$1+$1,$2,$3*
1,1,$1+$1,$4,$5*
1,1,$1+$1,$6,$7*
1,1,$1+$1,$8,$9*
0 Add four rect primitives between the rounded corners*
20,1,$1+$1,$2,$3,$4,$5,0*
20,1,$1+$1,$4,$5,$6,$7,0*
20,1,$1+$1,$6,$7,$8,$9,0*
20,1,$1+$1,$8,$9,$2,$3,0*%
G04 Aperture macros list end*
%ADD10RoundRect,0.237500X-0.237500X0.250000X-0.237500X-0.250000X0.237500X-0.250000X0.237500X0.250000X0*%
%ADD11RoundRect,0.160000X-0.160000X0.197500X-0.160000X-0.197500X0.160000X-0.197500X0.160000X0.197500X0*%
%ADD12RoundRect,0.140000X0.170000X-0.140000X0.170000X0.140000X-0.170000X0.140000X-0.170000X-0.140000X0*%
%ADD13RoundRect,0.218750X0.256250X-0.218750X0.256250X0.218750X-0.256250X0.218750X-0.256250X-0.218750X0*%
%ADD14RoundRect,0.135000X0.135000X0.185000X-0.135000X0.185000X-0.135000X-0.185000X0.135000X-0.185000X0*%
%ADD15RoundRect,0.112500X0.187500X0.112500X-0.187500X0.112500X-0.187500X-0.112500X0.187500X-0.112500X0*%
%ADD16RoundRect,0.155000X0.155000X-0.212500X0.155000X0.212500X-0.155000X0.212500X-0.155000X-0.212500X0*%
%ADD17RoundRect,0.237500X-0.250000X-0.237500X0.250000X-0.237500X0.250000X0.237500X-0.250000X0.237500X0*%
%ADD18RoundRect,0.140000X0.140000X0.170000X-0.140000X0.170000X-0.140000X-0.170000X0.140000X-0.170000X0*%
%ADD19RoundRect,0.079500X0.079500X0.100500X-0.079500X0.100500X-0.079500X-0.100500X0.079500X-0.100500X0*%
%ADD20RoundRect,0.090000X-0.090000X0.139000X-0.090000X-0.139000X0.090000X-0.139000X0.090000X0.139000X0*%
%ADD21RoundRect,0.150000X0.825000X0.150000X-0.825000X0.150000X-0.825000X-0.150000X0.825000X-0.150000X0*%
%ADD22RoundRect,0.237500X0.250000X0.237500X-0.250000X0.237500X-0.250000X-0.237500X0.250000X-0.237500X0*%
%ADD23RoundRect,0.150000X0.512500X0.150000X-0.512500X0.150000X-0.512500X-0.150000X0.512500X-0.150000X0*%
%ADD24RoundRect,0.140000X-0.170000X0.140000X-0.170000X-0.140000X0.170000X-0.140000X0.170000X0.140000X0*%
%ADD25RoundRect,0.249999X0.395001X0.395001X-0.395001X0.395001X-0.395001X-0.395001X0.395001X-0.395001X0*%
%ADD26RoundRect,0.050000X0.387500X0.050000X-0.387500X0.050000X-0.387500X-0.050000X0.387500X-0.050000X0*%
%ADD27RoundRect,0.050000X0.050000X0.387500X-0.050000X0.387500X-0.050000X-0.387500X0.050000X-0.387500X0*%
%ADD28RoundRect,0.237500X-0.237500X0.300000X-0.237500X-0.300000X0.237500X-0.300000X0.237500X0.300000X0*%
%ADD29RoundRect,0.135000X-0.185000X0.135000X-0.185000X-0.135000X0.185000X-0.135000X0.185000X0.135000X0*%
%ADD30RoundRect,0.140000X-0.140000X-0.170000X0.140000X-0.170000X0.140000X0.170000X-0.140000X0.170000X0*%
%ADD31RoundRect,0.150000X0.150000X-0.512500X0.150000X0.512500X-0.150000X0.512500X-0.150000X-0.512500X0*%
%ADD32RoundRect,0.100000X-0.100000X0.225000X-0.100000X-0.225000X0.100000X-0.225000X0.100000X0.225000X0*%
%ADD33RoundRect,0.175000X0.175000X0.375000X-0.175000X0.375000X-0.175000X-0.375000X0.175000X-0.375000X0*%
%ADD34RoundRect,0.150000X0.150000X0.450000X-0.150000X0.450000X-0.150000X-0.450000X0.150000X-0.450000X0*%
%ADD35RoundRect,0.135000X-0.135000X-0.185000X0.135000X-0.185000X0.135000X0.185000X-0.135000X0.185000X0*%
%ADD36RoundRect,0.087500X-0.650000X-0.087500X0.650000X-0.087500X0.650000X0.087500X-0.650000X0.087500X0*%
%ADD37RoundRect,0.225000X0.250000X-0.225000X0.250000X0.225000X-0.250000X0.225000X-0.250000X-0.225000X0*%
%ADD38RoundRect,0.100000X-0.155000X-0.100000X0.155000X-0.100000X0.155000X0.100000X-0.155000X0.100000X0*%
%ADD39RoundRect,0.237500X0.237500X-0.300000X0.237500X0.300000X-0.237500X0.300000X-0.237500X-0.300000X0*%
%ADD40RoundRect,0.218750X-0.218750X-0.381250X0.218750X-0.381250X0.218750X0.381250X-0.218750X0.381250X0*%
%ADD41RoundRect,0.237500X0.300000X0.237500X-0.300000X0.237500X-0.300000X-0.237500X0.300000X-0.237500X0*%
%ADD42RoundRect,0.135000X0.185000X-0.135000X0.185000X0.135000X-0.185000X0.135000X-0.185000X-0.135000X0*%
%ADD43RoundRect,0.100000X0.637500X0.100000X-0.637500X0.100000X-0.637500X-0.100000X0.637500X-0.100000X0*%
%ADD44RoundRect,0.160000X0.160000X-0.197500X0.160000X0.197500X-0.160000X0.197500X-0.160000X-0.197500X0*%
%ADD45RoundRect,0.155000X0.212500X0.155000X-0.212500X0.155000X-0.212500X-0.155000X0.212500X-0.155000X0*%
%ADD46RoundRect,0.162500X0.650000X0.162500X-0.650000X0.162500X-0.650000X-0.162500X0.650000X-0.162500X0*%
%ADD47RoundRect,0.250000X0.725000X0.575000X-0.725000X0.575000X-0.725000X-0.575000X0.725000X-0.575000X0*%
%ADD48RoundRect,0.150000X-0.150000X0.512500X-0.150000X-0.512500X0.150000X-0.512500X0.150000X0.512500X0*%
%ADD49R,0.600000X1.150000*%
%ADD50R,0.300000X1.150000*%
%ADD51R,1.700000X1.700000*%
%ADD52RoundRect,0.100000X0.225000X0.100000X-0.225000X0.100000X-0.225000X-0.100000X0.225000X-0.100000X0*%
%ADD53RoundRect,0.225000X-0.225000X-0.375000X0.225000X-0.375000X0.225000X0.375000X-0.225000X0.375000X0*%
G04 APERTURE END LIST*
D10*
%TO.C,R22*%
X106250000Y-86337500D03*
X106250000Y-88162500D03*
%TD*%
D11*
%TO.C,R7*%
X115750000Y-92152500D03*
X115750000Y-93347500D03*
%TD*%
D12*
%TO.C,C9*%
X128500000Y-82730000D03*
X128500000Y-81770000D03*
%TD*%
D13*
%TO.C,D4*%
X129000000Y-104037500D03*
X129000000Y-102462500D03*
%TD*%
D14*
%TO.C,R35*%
X125760000Y-97250000D03*
X124740000Y-97250000D03*
%TD*%
D15*
%TO.C,D1*%
X113800000Y-77500000D03*
X111700000Y-77500000D03*
%TD*%
D16*
%TO.C,C24*%
X109500000Y-87067500D03*
X109500000Y-85932500D03*
%TD*%
D12*
%TO.C,C45*%
X125200000Y-78280000D03*
X125200000Y-77320000D03*
%TD*%
D17*
%TO.C,R18*%
X106087500Y-73500000D03*
X107912500Y-73500000D03*
%TD*%
D18*
%TO.C,C21*%
X111980000Y-83500000D03*
X111020000Y-83500000D03*
%TD*%
D10*
%TO.C,R26*%
X106250000Y-93337500D03*
X106250000Y-95162500D03*
%TD*%
D19*
%TO.C,C31*%
X104345000Y-93750000D03*
X103655000Y-93750000D03*
%TD*%
D20*
%TO.C,C38*%
X110250000Y-70817500D03*
X110250000Y-71682500D03*
%TD*%
D21*
%TO.C,U2*%
X117725000Y-86845000D03*
X117725000Y-88115000D03*
X117725000Y-89385000D03*
X117725000Y-90655000D03*
X112775000Y-90655000D03*
X112775000Y-89385000D03*
X112775000Y-88115000D03*
X112775000Y-86845000D03*
%TD*%
D12*
%TO.C,C46*%
X120250000Y-95730000D03*
X120250000Y-94770000D03*
%TD*%
D22*
%TO.C,R19*%
X113662500Y-79250000D03*
X111837500Y-79250000D03*
%TD*%
D23*
%TO.C,U9*%
X129387500Y-97050000D03*
X129387500Y-98950000D03*
X127112500Y-98000000D03*
%TD*%
D20*
%TO.C,C39*%
X111500000Y-70817500D03*
X111500000Y-71682500D03*
%TD*%
D13*
%TO.C,D2*%
X125500000Y-104037500D03*
X125500000Y-102462500D03*
%TD*%
D14*
%TO.C,R15*%
X132010000Y-83250000D03*
X130990000Y-83250000D03*
%TD*%
D19*
%TO.C,C30*%
X104345000Y-92500000D03*
X103655000Y-92500000D03*
%TD*%
D24*
%TO.C,C54*%
X120250000Y-79020000D03*
X120250000Y-79980000D03*
%TD*%
%TO.C,C5*%
X127250000Y-92270000D03*
X127250000Y-93230000D03*
%TD*%
D25*
%TO.C,U1*%
X128300000Y-88300000D03*
X128300000Y-86700000D03*
X126700000Y-88300000D03*
X126700000Y-86700000D03*
D26*
X130937500Y-84900000D03*
X130937500Y-85300000D03*
X130937500Y-85700000D03*
X130937500Y-86100000D03*
X130937500Y-86500000D03*
X130937500Y-86900000D03*
X130937500Y-87300000D03*
X130937500Y-87700000D03*
X130937500Y-88100000D03*
X130937500Y-88500000D03*
X130937500Y-88900000D03*
X130937500Y-89300000D03*
X130937500Y-89700000D03*
X130937500Y-90100000D03*
D27*
X130100000Y-90937500D03*
X129700000Y-90937500D03*
X129300000Y-90937500D03*
X128900000Y-90937500D03*
X128500000Y-90937500D03*
X128100000Y-90937500D03*
X127700000Y-90937500D03*
X127300000Y-90937500D03*
X126900000Y-90937500D03*
X126500000Y-90937500D03*
X126100000Y-90937500D03*
X125700000Y-90937500D03*
X125300000Y-90937500D03*
X124900000Y-90937500D03*
D26*
X124062500Y-90100000D03*
X124062500Y-89700000D03*
X124062500Y-89300000D03*
X124062500Y-88900000D03*
X124062500Y-88500000D03*
X124062500Y-88100000D03*
X124062500Y-87700000D03*
X124062500Y-87300000D03*
X124062500Y-86900000D03*
X124062500Y-86500000D03*
X124062500Y-86100000D03*
X124062500Y-85700000D03*
X124062500Y-85300000D03*
X124062500Y-84900000D03*
D27*
X124900000Y-84062500D03*
X125300000Y-84062500D03*
X125700000Y-84062500D03*
X126100000Y-84062500D03*
X126500000Y-84062500D03*
X126900000Y-84062500D03*
X127300000Y-84062500D03*
X127700000Y-84062500D03*
X128100000Y-84062500D03*
X128500000Y-84062500D03*
X128900000Y-84062500D03*
X129300000Y-84062500D03*
X129700000Y-84062500D03*
X130100000Y-84062500D03*
%TD*%
D28*
%TO.C,C11*%
X110750000Y-85387500D03*
X110750000Y-87112500D03*
%TD*%
D10*
%TO.C,R20*%
X108750000Y-75087500D03*
X108750000Y-76912500D03*
%TD*%
D29*
%TO.C,R3*%
X125500000Y-81740000D03*
X125500000Y-82760000D03*
%TD*%
D19*
%TO.C,C34*%
X103845000Y-89750000D03*
X103155000Y-89750000D03*
%TD*%
D12*
%TO.C,C6*%
X122750000Y-88480000D03*
X122750000Y-87520000D03*
%TD*%
D22*
%TO.C,R44*%
X117212500Y-81600000D03*
X115387500Y-81600000D03*
%TD*%
D11*
%TO.C,R13*%
X113750000Y-92152500D03*
X113750000Y-93347500D03*
%TD*%
%TO.C,R11*%
X111750000Y-92152500D03*
X111750000Y-93347500D03*
%TD*%
D30*
%TO.C,C22*%
X113020000Y-83500000D03*
X113980000Y-83500000D03*
%TD*%
D10*
%TO.C,R25*%
X107750000Y-91587500D03*
X107750000Y-93412500D03*
%TD*%
D28*
%TO.C,C18*%
X110250000Y-75137500D03*
X110250000Y-76862500D03*
%TD*%
D31*
%TO.C,U11*%
X118950000Y-79887500D03*
X118000000Y-79887500D03*
X117050000Y-79887500D03*
X117050000Y-77612500D03*
X118950000Y-77612500D03*
%TD*%
D32*
%TO.C,U5*%
X105850000Y-75050000D03*
X106500000Y-75050000D03*
X107150000Y-75050000D03*
X107150000Y-76950000D03*
X105850000Y-76950000D03*
%TD*%
D12*
%TO.C,C49*%
X126750000Y-95730000D03*
X126750000Y-94770000D03*
%TD*%
D18*
%TO.C,C16*%
X104480000Y-77250000D03*
X103520000Y-77250000D03*
%TD*%
D10*
%TO.C,R24*%
X106250000Y-89837500D03*
X106250000Y-91662500D03*
%TD*%
D33*
%TO.C,SW1*%
X121250000Y-102450000D03*
X117750000Y-102450000D03*
D34*
X117300000Y-103900000D03*
X121700000Y-103900000D03*
%TD*%
D19*
%TO.C,C33*%
X103845000Y-88750000D03*
X103155000Y-88750000D03*
%TD*%
D35*
%TO.C,R27*%
X112990000Y-84500000D03*
X114010000Y-84500000D03*
%TD*%
D36*
%TO.C,U7*%
X120937500Y-78000000D03*
X120937500Y-77500000D03*
X120937500Y-77000000D03*
X120937500Y-76500000D03*
X120937500Y-76000000D03*
X120937500Y-75500000D03*
X120937500Y-75000000D03*
X120937500Y-74500000D03*
X123562500Y-74500000D03*
X123562500Y-75000000D03*
X123562500Y-75500000D03*
X123562500Y-76000000D03*
X123562500Y-76500000D03*
X123562500Y-77000000D03*
X123562500Y-77500000D03*
X123562500Y-78000000D03*
%TD*%
D37*
%TO.C,C48*%
X125000000Y-95025000D03*
X125000000Y-93475000D03*
%TD*%
D22*
%TO.C,R40*%
X111412500Y-73500000D03*
X109587500Y-73500000D03*
%TD*%
D35*
%TO.C,R36*%
X124740000Y-98250000D03*
X125760000Y-98250000D03*
%TD*%
D24*
%TO.C,C19*%
X107500000Y-94770000D03*
X107500000Y-95730000D03*
%TD*%
D38*
%TO.C,Q1*%
X119895000Y-83000000D03*
X119895000Y-84000000D03*
X118605000Y-83500000D03*
%TD*%
D20*
%TO.C,C43*%
X127000000Y-72067500D03*
X127000000Y-72932500D03*
%TD*%
D39*
%TO.C,C13*%
X120000000Y-93362500D03*
X120000000Y-91637500D03*
%TD*%
D40*
%TO.C,L1*%
X120437500Y-97250000D03*
X122562500Y-97250000D03*
%TD*%
D41*
%TO.C,C53*%
X120662500Y-85350000D03*
X118937500Y-85350000D03*
%TD*%
D19*
%TO.C,C32*%
X104345000Y-94500000D03*
X103655000Y-94500000D03*
%TD*%
D13*
%TO.C,D3*%
X127250000Y-104037500D03*
X127250000Y-102462500D03*
%TD*%
D39*
%TO.C,C17*%
X115250000Y-80062500D03*
X115250000Y-78337500D03*
%TD*%
D12*
%TO.C,C55*%
X119250000Y-72980000D03*
X119250000Y-72020000D03*
%TD*%
D42*
%TO.C,R38*%
X123000000Y-104260000D03*
X123000000Y-103240000D03*
%TD*%
D20*
%TO.C,C42*%
X125500000Y-72067500D03*
X125500000Y-72932500D03*
%TD*%
%TO.C,C40*%
X112500000Y-70817500D03*
X112500000Y-71682500D03*
%TD*%
%TO.C,C41*%
X124750000Y-72067500D03*
X124750000Y-72932500D03*
%TD*%
D35*
%TO.C,R33*%
X123490000Y-79250000D03*
X124510000Y-79250000D03*
%TD*%
D19*
%TO.C,C29*%
X104345000Y-91500000D03*
X103655000Y-91500000D03*
%TD*%
D22*
%TO.C,R43*%
X120712500Y-81600000D03*
X118887500Y-81600000D03*
%TD*%
D30*
%TO.C,C28*%
X123520000Y-80250000D03*
X124480000Y-80250000D03*
%TD*%
D24*
%TO.C,C7*%
X122750000Y-85020000D03*
X122750000Y-85980000D03*
%TD*%
D12*
%TO.C,C2*%
X127500000Y-82730000D03*
X127500000Y-81770000D03*
%TD*%
D29*
%TO.C,R29*%
X104000000Y-83490000D03*
X104000000Y-84510000D03*
%TD*%
D43*
%TO.C,U4*%
X110112500Y-78550000D03*
X110112500Y-79200000D03*
X110112500Y-79850000D03*
X110112500Y-80500000D03*
X110112500Y-81150000D03*
X110112500Y-81800000D03*
X110112500Y-82450000D03*
X104387500Y-82450000D03*
X104387500Y-81800000D03*
X104387500Y-81150000D03*
X104387500Y-80500000D03*
X104387500Y-79850000D03*
X104387500Y-79200000D03*
X104387500Y-78550000D03*
%TD*%
D44*
%TO.C,R8*%
X116750000Y-93347500D03*
X116750000Y-92152500D03*
%TD*%
D20*
%TO.C,C37*%
X109500000Y-70817500D03*
X109500000Y-71682500D03*
%TD*%
D12*
%TO.C,C4*%
X124500000Y-82730000D03*
X124500000Y-81770000D03*
%TD*%
D11*
%TO.C,R9*%
X117750000Y-92152500D03*
X117750000Y-93347500D03*
%TD*%
D19*
%TO.C,C36*%
X103845000Y-86750000D03*
X103155000Y-86750000D03*
%TD*%
D44*
%TO.C,R14*%
X114750000Y-93347500D03*
X114750000Y-92152500D03*
%TD*%
D12*
%TO.C,C51*%
X132000000Y-98730000D03*
X132000000Y-97770000D03*
%TD*%
D10*
%TO.C,R5*%
X110750000Y-88837500D03*
X110750000Y-90662500D03*
%TD*%
D45*
%TO.C,C23*%
X119317500Y-76000000D03*
X118182500Y-76000000D03*
%TD*%
D22*
%TO.C,R42*%
X117212500Y-85100000D03*
X115387500Y-85100000D03*
%TD*%
D29*
%TO.C,R4*%
X126500000Y-81740000D03*
X126500000Y-82760000D03*
%TD*%
D46*
%TO.C,U3*%
X134037500Y-76345000D03*
X134037500Y-77615000D03*
X134037500Y-78885000D03*
X134037500Y-80155000D03*
X126862500Y-80155000D03*
X126862500Y-78885000D03*
X126862500Y-77615000D03*
X126862500Y-76345000D03*
%TD*%
D47*
%TO.C,Y1*%
X131875000Y-95100000D03*
X129125000Y-95100000D03*
X129125000Y-92900000D03*
X131875000Y-92900000D03*
%TD*%
D44*
%TO.C,R12*%
X112750000Y-93347500D03*
X112750000Y-92152500D03*
%TD*%
D12*
%TO.C,C50*%
X131000000Y-98730000D03*
X131000000Y-97770000D03*
%TD*%
D48*
%TO.C,U8*%
X121550000Y-92862500D03*
X122500000Y-92862500D03*
X123450000Y-92862500D03*
X123450000Y-95137500D03*
X122500000Y-95137500D03*
X121550000Y-95137500D03*
%TD*%
D12*
%TO.C,C57*%
X104450000Y-76280000D03*
X104450000Y-75320000D03*
%TD*%
D10*
%TO.C,R23*%
X107750000Y-88087500D03*
X107750000Y-89912500D03*
%TD*%
D49*
%TO.C,J1*%
X114200000Y-98232500D03*
X113400000Y-98232500D03*
D50*
X112250000Y-98232500D03*
X111250000Y-98232500D03*
X110750000Y-98232500D03*
X109750000Y-98232500D03*
D49*
X108600000Y-98232500D03*
X107800000Y-98232500D03*
X107800000Y-98232500D03*
X108600000Y-98232500D03*
D50*
X109250000Y-98232500D03*
X110250000Y-98232500D03*
X111750000Y-98232500D03*
X112750000Y-98232500D03*
D49*
X113400000Y-98232500D03*
X114200000Y-98232500D03*
D51*
X116000000Y-98797500D03*
X106000000Y-98797500D03*
%TD*%
D14*
%TO.C,R16*%
X121260000Y-73250000D03*
X120240000Y-73250000D03*
%TD*%
D19*
%TO.C,C35*%
X103845000Y-86000000D03*
X103155000Y-86000000D03*
%TD*%
D17*
%TO.C,R41*%
X115387500Y-83600000D03*
X117212500Y-83600000D03*
%TD*%
D32*
%TO.C,U10*%
X115600000Y-74050000D03*
X116250000Y-74050000D03*
X116900000Y-74050000D03*
X116900000Y-75950000D03*
X116250000Y-75950000D03*
X115600000Y-75950000D03*
%TD*%
D52*
%TO.C,U6*%
X113700000Y-80850000D03*
X113700000Y-81500000D03*
X113700000Y-82150000D03*
X111800000Y-82150000D03*
X111800000Y-81500000D03*
X111800000Y-80850000D03*
%TD*%
D12*
%TO.C,C3*%
X132250000Y-88230000D03*
X132250000Y-87270000D03*
%TD*%
D44*
%TO.C,R10*%
X118750000Y-93347500D03*
X118750000Y-92152500D03*
%TD*%
D24*
%TO.C,C20*%
X105000000Y-85270000D03*
X105000000Y-86230000D03*
%TD*%
D16*
%TO.C,C27*%
X109000000Y-93817500D03*
X109000000Y-92682500D03*
%TD*%
D30*
%TO.C,C14*%
X113020000Y-85500000D03*
X113980000Y-85500000D03*
%TD*%
D42*
%TO.C,R2*%
X104500000Y-99510000D03*
X104500000Y-98490000D03*
%TD*%
D35*
%TO.C,R34*%
X124740000Y-96250000D03*
X125760000Y-96250000D03*
%TD*%
D10*
%TO.C,R6*%
X121250000Y-88087500D03*
X121250000Y-89912500D03*
%TD*%
D35*
%TO.C,R32*%
X121490000Y-79250000D03*
X122510000Y-79250000D03*
%TD*%
D20*
%TO.C,C44*%
X128000000Y-72067500D03*
X128000000Y-72932500D03*
%TD*%
D18*
%TO.C,C10*%
X131730000Y-96750000D03*
X130770000Y-96750000D03*
%TD*%
D35*
%TO.C,R1*%
X116740000Y-100500000D03*
X117760000Y-100500000D03*
%TD*%
D24*
%TO.C,C47*%
X123750000Y-96520000D03*
X123750000Y-97480000D03*
%TD*%
%TO.C,C1*%
X132250000Y-85020000D03*
X132250000Y-85980000D03*
%TD*%
D35*
%TO.C,R28*%
X120740000Y-86750000D03*
X121760000Y-86750000D03*
%TD*%
D24*
%TO.C,C8*%
X126250000Y-92270000D03*
X126250000Y-93230000D03*
%TD*%
D41*
%TO.C,C52*%
X107112500Y-84000000D03*
X105387500Y-84000000D03*
%TD*%
D14*
%TO.C,R39*%
X129760000Y-101250000D03*
X128740000Y-101250000D03*
%TD*%
D53*
%TO.C,D5*%
X120100000Y-99250000D03*
X123400000Y-99250000D03*
%TD*%
D12*
%TO.C,C56*%
X114350000Y-76080000D03*
X114350000Y-75120000D03*
%TD*%
D39*
%TO.C,C12*%
X119750000Y-89862500D03*
X119750000Y-88137500D03*
%TD*%
D16*
%TO.C,C25*%
X109000000Y-89317500D03*
X109000000Y-88182500D03*
%TD*%
D24*
%TO.C,C15*%
X125250000Y-75270000D03*
X125250000Y-76230000D03*
%TD*%
D42*
%TO.C,R37*%
X124000000Y-104260000D03*
X124000000Y-103240000D03*
%TD*%
D16*
%TO.C,C26*%
X109000000Y-91567500D03*
X109000000Y-90432500D03*
%TD*%
M02*
