%TF.GenerationSoftware,KiCad,Pcbnew,9.0.6*%
%TF.CreationDate,2025-11-04T18:35:37+01:00*%
%TF.ProjectId,Pixel,50697865-6c2e-46b6-9963-61645f706362,rev?*%
%TF.SameCoordinates,Original*%
%TF.FileFunction,Copper,L1,Top*%
%TF.FilePolarity,Positive*%
%FSLAX46Y46*%
G04 Gerber Fmt 4.6, Leading zero omitted, Abs format (unit mm)*
G04 Created by KiCad (PCBNEW 9.0.6) date 2025-11-04 18:35:37*
%MOMM*%
%LPD*%
G01*
G04 APERTURE LIST*
%TA.AperFunction,ComponentPad*%
%ADD10O,1.200000X1.800000*%
%TD*%
%TA.AperFunction,ViaPad*%
%ADD11C,0.450000*%
%TD*%
%TA.AperFunction,ViaPad*%
%ADD12C,4.000000*%
%TD*%
%TA.AperFunction,Conductor*%
%ADD13C,0.300000*%
%TD*%
%TA.AperFunction,Conductor*%
%ADD14C,0.150000*%
%TD*%
G04 APERTURE END LIST*
D10*
%TO.P,J1,S1,SHIELD*%
%TO.N,GND*%
X115320000Y-102997500D03*
X106680000Y-102997500D03*
%TD*%
D11*
%TO.N,GND*%
X114800000Y-99200000D03*
X116200000Y-84400000D03*
X103200000Y-99200000D03*
X122400000Y-91800000D03*
X130450000Y-94800000D03*
X112000000Y-99400000D03*
X104550000Y-86850000D03*
X122600000Y-94000000D03*
X122850000Y-83200000D03*
X108000000Y-103800000D03*
X111600000Y-87400000D03*
X126000000Y-72000000D03*
X102400000Y-96400000D03*
X103650000Y-97550000D03*
X125600000Y-99300000D03*
X109800000Y-90200000D03*
X122500000Y-98650000D03*
X118850000Y-90050000D03*
X119400000Y-95400000D03*
X112650000Y-79250000D03*
X133500000Y-90000000D03*
X118550000Y-84150000D03*
X129500000Y-77500000D03*
X119000000Y-97800000D03*
X117450000Y-97900000D03*
X133000000Y-79500000D03*
X112200000Y-85600000D03*
X129800000Y-104300000D03*
X111200000Y-102200000D03*
X118600000Y-99400000D03*
X126350000Y-104150000D03*
X110000000Y-83500000D03*
X122664000Y-85681000D03*
X118000000Y-72000000D03*
D12*
X102500000Y-72250000D03*
D11*
X120300000Y-80600000D03*
X110650000Y-93150000D03*
X123250000Y-98150000D03*
X122000000Y-72000000D03*
X126200000Y-86900000D03*
D12*
X102500000Y-102750000D03*
D11*
X129500000Y-72000000D03*
X129650000Y-96400000D03*
X113200000Y-72300000D03*
X114550000Y-83550000D03*
X126500000Y-94000000D03*
X104850000Y-74700000D03*
X107200000Y-99200000D03*
X133000000Y-81500000D03*
X111250000Y-76750000D03*
X130450000Y-95700000D03*
X110050000Y-96850000D03*
X127100000Y-86900000D03*
X129500000Y-74500000D03*
X117400000Y-82600000D03*
X131000000Y-80000000D03*
D12*
X133000000Y-72250000D03*
D11*
X122750000Y-87520000D03*
X106900000Y-78700000D03*
X113300000Y-94150000D03*
X127150000Y-87700000D03*
X133550000Y-95600000D03*
X120300000Y-73950000D03*
X112500000Y-96750000D03*
X121550000Y-85300000D03*
X122150000Y-90250000D03*
X105000000Y-93400000D03*
X101800000Y-90800000D03*
X105750000Y-80500000D03*
X109800000Y-99400000D03*
X101650000Y-81150000D03*
X124000000Y-78800000D03*
X133500000Y-85500000D03*
X131600000Y-99500000D03*
X107900000Y-76400000D03*
X114650000Y-77500000D03*
X107000000Y-92400000D03*
X104200000Y-90600000D03*
X103100000Y-76550000D03*
X121600000Y-81800000D03*
X113100000Y-90000000D03*
D12*
X133000000Y-102750000D03*
D11*
X133500000Y-88000000D03*
X107800000Y-75350000D03*
X114600000Y-85800000D03*
X120000000Y-82400000D03*
X133500000Y-83500000D03*
X132000000Y-76000000D03*
X132550000Y-91000000D03*
X122800000Y-80800000D03*
X122400000Y-75800000D03*
X119200000Y-87150000D03*
X124200000Y-92400000D03*
X116250000Y-89800000D03*
X117800000Y-75200000D03*
%TO.N,+3V3*%
X121550000Y-79900000D03*
X111200000Y-74350000D03*
X126750000Y-75450000D03*
X127500000Y-82730000D03*
X124900000Y-88900000D03*
X125750000Y-100250000D03*
X132350000Y-89600000D03*
X130090000Y-86550000D03*
X123910000Y-83300000D03*
X105550000Y-75950000D03*
X129760000Y-100100000D03*
X128350000Y-89850000D03*
X133250000Y-92250000D03*
X131700000Y-84300000D03*
X114900000Y-76850000D03*
X111245433Y-80496427D03*
X125550000Y-90150000D03*
X123050000Y-84350000D03*
X115300000Y-82800000D03*
%TO.N,+1V1*%
X125800000Y-84900000D03*
X126850000Y-90000000D03*
X127650000Y-84800000D03*
%TO.N,+5V*%
X100800000Y-93500000D03*
X108900000Y-97150000D03*
X134800000Y-90950000D03*
X126700000Y-98650000D03*
X108650000Y-95550000D03*
X120750000Y-78490000D03*
X123000000Y-96350000D03*
X113500000Y-97050000D03*
X114350000Y-87250000D03*
X104150000Y-77950000D03*
%TO.N,/BLACK_ADC*%
X104050000Y-95300000D03*
X124533728Y-77168897D03*
X108200000Y-94750000D03*
X123374509Y-86151370D03*
X102450000Y-79700000D03*
%TO.N,/WHITE_ADC*%
X117300000Y-76550000D03*
X122850000Y-86650000D03*
X112426097Y-81710001D03*
X119132543Y-78619000D03*
%TO.N,Net-(U4C-+)*%
X118099228Y-76699228D03*
X105600000Y-81150000D03*
%TO.N,/GREY4*%
X108900000Y-86450000D03*
X121990000Y-75051685D03*
%TO.N,/GREY3*%
X108300000Y-88950000D03*
X121964278Y-76262266D03*
%TO.N,/GREY2*%
X122479168Y-76425026D03*
X108250000Y-90750000D03*
%TO.N,/GREY1*%
X122510000Y-78077470D03*
X108200000Y-92500000D03*
%TO.N,+10V*%
X123450000Y-95137500D03*
X134250000Y-86750000D03*
X101250000Y-82250000D03*
X125000000Y-95025000D03*
%TO.N,/VIDEO_IN*%
X132850000Y-82250000D03*
X120800000Y-84450000D03*
%TO.N,Net-(J1-D+-PadA6)*%
X125200000Y-80450000D03*
X111250000Y-96800000D03*
%TO.N,Net-(J1-D--PadA7)*%
X111700000Y-97150000D03*
X124980684Y-80943460D03*
%TO.N,/TX0*%
X130900000Y-91000000D03*
X102200000Y-99250000D03*
%TO.N,/RX0*%
X103050000Y-98550000D03*
X130320394Y-91648610D03*
%TO.N,/SWCLK*%
X133150000Y-96650000D03*
X126256542Y-91675000D03*
%TO.N,/SWDIO*%
X125690000Y-91690000D03*
X133100000Y-98950000D03*
%TO.N,/TX1*%
X104900000Y-89350000D03*
X122838358Y-89210000D03*
%TO.N,/RX1*%
X104850000Y-87500000D03*
X123331512Y-88990000D03*
%TO.N,/SYNC_CLAMP*%
X129395707Y-90055707D03*
X120350000Y-83450000D03*
%TO.N,/COMPOSITE_SYNC*%
X131700000Y-86500000D03*
X117190621Y-92892734D03*
%TO.N,/VSYNC*%
X119250000Y-92800000D03*
X132651631Y-86737546D03*
%TO.N,/BACK_PORCH*%
X113150000Y-92850000D03*
X129800000Y-89650000D03*
%TO.N,/ODD_FRAME*%
X115250000Y-92800000D03*
X131695031Y-87652832D03*
%TO.N,Net-(U1-QSPI_SS)*%
X131350000Y-81800000D03*
X132050000Y-77300000D03*
%TO.N,Net-(R15-Pad1)*%
X121350000Y-101600000D03*
X132400000Y-83900000D03*
%TO.N,/VBLACK_PWM*%
X122650000Y-80250000D03*
X121850000Y-73500000D03*
%TO.N,/VWHITE_PWM*%
X123253240Y-87973678D03*
X120250000Y-87300000D03*
%TO.N,Net-(U8-FB)*%
X123950000Y-93700000D03*
X124350888Y-97186291D03*
%TO.N,/VIDEO_IN_CLAMP*%
X118100000Y-80900000D03*
X106950000Y-75800000D03*
%TO.N,/WHITE_SELECT*%
X123400000Y-86940000D03*
X111900000Y-80300000D03*
%TO.N,/BLACK_SELECT*%
X116150000Y-75300000D03*
X125350000Y-87850000D03*
%TO.N,/VSEL1*%
X129650000Y-88090000D03*
X124625000Y-75223460D03*
%TO.N,/VSEL2*%
X130100000Y-88490000D03*
X124700000Y-74600000D03*
%TO.N,/VSEL0*%
X124650000Y-75800000D03*
X129415002Y-87600000D03*
%TO.N,/BLACK_CHG*%
X129395171Y-89210001D03*
X107900000Y-78100000D03*
%TO.N,Net-(U4D-+)*%
X116200000Y-76800000D03*
X105600000Y-79650000D03*
%TD*%
D13*
%TO.N,+10V*%
X134250000Y-90000000D02*
X129225000Y-95025000D01*
X124925000Y-95100000D02*
X123487500Y-95100000D01*
X123487500Y-95100000D02*
X123450000Y-95137500D01*
X129225000Y-95025000D02*
X125000000Y-95025000D01*
X125000000Y-95025000D02*
X124925000Y-95100000D01*
X134250000Y-86750000D02*
X134250000Y-90000000D01*
D14*
%TO.N,Net-(J1-D+-PadA6)*%
X111250000Y-96800000D02*
X111250000Y-93102958D01*
X123902958Y-80450000D02*
X125200000Y-80450000D01*
X111250000Y-93102958D02*
X123902958Y-80450000D01*
%TO.N,Net-(J1-D--PadA7)*%
X119600000Y-85097042D02*
X119600000Y-85100000D01*
X119600000Y-85100000D02*
X111700000Y-93000000D01*
X123753582Y-80943460D02*
X119600000Y-85097042D01*
X124980684Y-80943460D02*
X123753582Y-80943460D01*
X111700000Y-93000000D02*
X111700000Y-97150000D01*
%TD*%
%TA.AperFunction,Conductor*%
%TO.N,+3V3*%
G36*
X130665677Y-82519685D02*
G01*
X130686319Y-82536319D01*
X132058430Y-83908430D01*
X132090523Y-83964014D01*
X132106001Y-84021778D01*
X132106002Y-84021780D01*
X132106003Y-84021783D01*
X132145676Y-84090496D01*
X132147538Y-84093721D01*
X132206279Y-84152462D01*
X132242250Y-84173230D01*
X132278216Y-84193996D01*
X132278217Y-84193996D01*
X132278222Y-84193999D01*
X132335983Y-84209476D01*
X132391569Y-84241569D01*
X132763681Y-84613681D01*
X132797166Y-84675004D01*
X132800000Y-84701362D01*
X132800000Y-86298046D01*
X132780315Y-86365085D01*
X132727511Y-86410840D01*
X132676000Y-86422046D01*
X132610095Y-86422046D01*
X132553689Y-86437159D01*
X132529848Y-86443548D01*
X132529847Y-86443549D01*
X132457916Y-86485080D01*
X132457907Y-86485086D01*
X132399171Y-86543822D01*
X132399165Y-86543831D01*
X132357634Y-86615762D01*
X132357633Y-86615763D01*
X132355292Y-86624500D01*
X132336131Y-86696010D01*
X132336131Y-86779082D01*
X132346617Y-86818216D01*
X132357633Y-86859328D01*
X132357634Y-86859329D01*
X132380231Y-86898466D01*
X132399169Y-86931267D01*
X132457910Y-86990008D01*
X132493881Y-87010776D01*
X132529847Y-87031542D01*
X132529848Y-87031543D01*
X132529850Y-87031543D01*
X132529853Y-87031545D01*
X132610095Y-87053046D01*
X132610098Y-87053046D01*
X132676000Y-87053046D01*
X132743039Y-87072731D01*
X132788794Y-87125535D01*
X132800000Y-87177046D01*
X132800000Y-90226070D01*
X132780315Y-90293109D01*
X132734964Y-90335154D01*
X131398238Y-91057708D01*
X131329903Y-91072269D01*
X131264543Y-91047575D01*
X131222909Y-90991464D01*
X131216335Y-90964808D01*
X131215500Y-90958468D01*
X131215500Y-90958464D01*
X131193999Y-90878222D01*
X131193997Y-90878219D01*
X131193997Y-90878217D01*
X131193996Y-90878216D01*
X131152465Y-90806285D01*
X131152462Y-90806279D01*
X131093721Y-90747538D01*
X131090496Y-90745676D01*
X131021783Y-90706003D01*
X131021782Y-90706002D01*
X131015201Y-90704238D01*
X130941536Y-90684500D01*
X130858464Y-90684500D01*
X130802058Y-90699613D01*
X130778217Y-90706002D01*
X130778216Y-90706003D01*
X130706285Y-90747534D01*
X130706276Y-90747540D01*
X130647540Y-90806276D01*
X130647534Y-90806285D01*
X130606003Y-90878216D01*
X130606002Y-90878217D01*
X130606001Y-90878222D01*
X130584500Y-90958464D01*
X130584500Y-91041536D01*
X130592735Y-91072269D01*
X130606002Y-91121783D01*
X130608805Y-91128548D01*
X130616274Y-91198018D01*
X130584998Y-91260497D01*
X130524909Y-91296148D01*
X130494244Y-91300000D01*
X124588671Y-91300000D01*
X124521632Y-91280315D01*
X124518185Y-91278019D01*
X124492824Y-91260497D01*
X123659145Y-90684500D01*
X122744200Y-90052356D01*
X122608304Y-89958464D01*
X126534500Y-89958464D01*
X126534500Y-90041536D01*
X126547352Y-90089500D01*
X126556002Y-90121782D01*
X126556003Y-90121783D01*
X126588164Y-90177485D01*
X126597538Y-90193721D01*
X126656279Y-90252462D01*
X126692250Y-90273230D01*
X126728216Y-90293996D01*
X126728217Y-90293997D01*
X126728219Y-90293997D01*
X126728222Y-90293999D01*
X126808464Y-90315500D01*
X126808467Y-90315500D01*
X126891533Y-90315500D01*
X126891536Y-90315500D01*
X126971778Y-90293999D01*
X126971780Y-90293997D01*
X126971782Y-90293997D01*
X126971783Y-90293996D01*
X126976044Y-90291536D01*
X127043721Y-90252462D01*
X127102462Y-90193721D01*
X127143999Y-90121778D01*
X127165500Y-90041536D01*
X127165500Y-89958464D01*
X127143999Y-89878222D01*
X127143997Y-89878219D01*
X127143997Y-89878217D01*
X127143996Y-89878216D01*
X127102465Y-89806285D01*
X127102462Y-89806279D01*
X127043721Y-89747538D01*
X127031024Y-89740207D01*
X126971783Y-89706003D01*
X126971782Y-89706002D01*
X126965201Y-89704238D01*
X126891536Y-89684500D01*
X126808464Y-89684500D01*
X126752058Y-89699613D01*
X126728217Y-89706002D01*
X126728216Y-89706003D01*
X126656285Y-89747534D01*
X126656276Y-89747540D01*
X126597540Y-89806276D01*
X126597534Y-89806285D01*
X126556003Y-89878216D01*
X126556002Y-89878217D01*
X126556001Y-89878222D01*
X126534500Y-89958464D01*
X122608304Y-89958464D01*
X121853514Y-89436973D01*
X121849131Y-89431559D01*
X121842797Y-89428667D01*
X121827433Y-89404760D01*
X121809548Y-89382670D01*
X121807880Y-89374334D01*
X121805023Y-89369889D01*
X121800000Y-89334954D01*
X121800000Y-89168464D01*
X122522858Y-89168464D01*
X122522858Y-89251536D01*
X122537318Y-89305500D01*
X122544360Y-89331782D01*
X122544361Y-89331783D01*
X122568929Y-89374334D01*
X122585896Y-89403721D01*
X122644637Y-89462462D01*
X122680608Y-89483230D01*
X122716574Y-89503996D01*
X122716575Y-89503997D01*
X122716577Y-89503997D01*
X122716580Y-89503999D01*
X122796822Y-89525500D01*
X122796825Y-89525500D01*
X122879891Y-89525500D01*
X122879894Y-89525500D01*
X122960136Y-89503999D01*
X122960138Y-89503997D01*
X122960140Y-89503997D01*
X122960141Y-89503996D01*
X122964691Y-89501369D01*
X123032079Y-89462462D01*
X123090820Y-89403721D01*
X123119040Y-89354842D01*
X123169604Y-89306630D01*
X123238211Y-89293406D01*
X123258516Y-89297070D01*
X123289976Y-89305500D01*
X123289978Y-89305500D01*
X123373045Y-89305500D01*
X123373048Y-89305500D01*
X123453290Y-89283999D01*
X123453292Y-89283997D01*
X123453294Y-89283997D01*
X123453295Y-89283996D01*
X123525233Y-89242462D01*
X123583974Y-89183721D01*
X123592782Y-89168465D01*
X129079671Y-89168465D01*
X129079671Y-89251537D01*
X129099409Y-89325202D01*
X129101173Y-89331783D01*
X129101174Y-89331784D01*
X129130554Y-89382670D01*
X129142709Y-89403722D01*
X129201450Y-89462463D01*
X129237421Y-89483231D01*
X129273387Y-89503997D01*
X129273391Y-89503999D01*
X129273393Y-89504000D01*
X129307546Y-89513151D01*
X129367205Y-89549514D01*
X129397735Y-89612360D01*
X129389441Y-89681736D01*
X129344956Y-89735614D01*
X129307548Y-89752699D01*
X129273928Y-89761708D01*
X129273923Y-89761710D01*
X129201992Y-89803241D01*
X129201983Y-89803247D01*
X129143247Y-89861983D01*
X129143241Y-89861992D01*
X129101710Y-89933923D01*
X129101709Y-89933924D01*
X129097913Y-89948093D01*
X129080207Y-90014171D01*
X129080207Y-90097243D01*
X129099945Y-90170908D01*
X129101709Y-90177489D01*
X129101710Y-90177490D01*
X129119594Y-90208464D01*
X129143245Y-90249428D01*
X129201986Y-90308169D01*
X129237957Y-90328937D01*
X129273923Y-90349703D01*
X129273924Y-90349704D01*
X129273926Y-90349704D01*
X129273929Y-90349706D01*
X129354171Y-90371207D01*
X129354174Y-90371207D01*
X129437240Y-90371207D01*
X129437243Y-90371207D01*
X129517485Y-90349706D01*
X129517487Y-90349704D01*
X129517489Y-90349704D01*
X129517490Y-90349703D01*
X129542689Y-90335154D01*
X129589428Y-90308169D01*
X129648169Y-90249428D01*
X129689706Y-90177485D01*
X129711207Y-90097243D01*
X129711207Y-90089500D01*
X129730892Y-90022461D01*
X129783696Y-89976706D01*
X129835207Y-89965500D01*
X129841533Y-89965500D01*
X129841536Y-89965500D01*
X129921778Y-89943999D01*
X129921780Y-89943997D01*
X129921782Y-89943997D01*
X129921783Y-89943996D01*
X129939228Y-89933924D01*
X129993721Y-89902462D01*
X130052462Y-89843721D01*
X130093999Y-89771778D01*
X130115500Y-89691536D01*
X130115500Y-89608464D01*
X130093999Y-89528222D01*
X130093997Y-89528219D01*
X130093997Y-89528217D01*
X130093996Y-89528216D01*
X130056034Y-89462466D01*
X130052462Y-89456279D01*
X129993721Y-89397538D01*
X129990496Y-89395676D01*
X129921783Y-89356003D01*
X129921782Y-89356002D01*
X129915201Y-89354238D01*
X129841536Y-89334500D01*
X129834671Y-89334500D01*
X129767632Y-89314815D01*
X129721877Y-89262011D01*
X129710671Y-89210500D01*
X129710671Y-89168467D01*
X129710671Y-89168466D01*
X129710671Y-89168465D01*
X129689170Y-89088223D01*
X129689168Y-89088220D01*
X129689168Y-89088218D01*
X129689167Y-89088217D01*
X129647636Y-89016286D01*
X129647633Y-89016280D01*
X129588892Y-88957539D01*
X129585667Y-88955677D01*
X129516954Y-88916004D01*
X129516953Y-88916003D01*
X129510372Y-88914239D01*
X129436707Y-88894501D01*
X129353635Y-88894501D01*
X129297229Y-88909614D01*
X129273388Y-88916003D01*
X129273387Y-88916004D01*
X129201456Y-88957535D01*
X129201447Y-88957541D01*
X129142711Y-89016277D01*
X129142705Y-89016286D01*
X129101174Y-89088217D01*
X129101173Y-89088218D01*
X129101172Y-89088223D01*
X129079671Y-89168465D01*
X123592782Y-89168465D01*
X123625511Y-89111778D01*
X123647012Y-89031536D01*
X123647012Y-88948464D01*
X123625511Y-88868222D01*
X123625509Y-88868219D01*
X123625509Y-88868217D01*
X123625508Y-88868216D01*
X123604742Y-88832250D01*
X123583974Y-88796279D01*
X123525233Y-88737538D01*
X123522008Y-88735676D01*
X123453295Y-88696003D01*
X123453294Y-88696002D01*
X123446713Y-88694238D01*
X123373048Y-88674500D01*
X123289976Y-88674500D01*
X123233570Y-88689613D01*
X123209729Y-88696002D01*
X123209728Y-88696003D01*
X123137797Y-88737534D01*
X123137788Y-88737540D01*
X123079052Y-88796276D01*
X123079045Y-88796285D01*
X123050830Y-88845155D01*
X123000263Y-88893370D01*
X122931655Y-88906592D01*
X122911351Y-88902929D01*
X122879894Y-88894500D01*
X122796822Y-88894500D01*
X122751695Y-88906592D01*
X122716575Y-88916002D01*
X122716574Y-88916003D01*
X122644643Y-88957534D01*
X122644634Y-88957540D01*
X122585898Y-89016276D01*
X122585892Y-89016285D01*
X122544361Y-89088216D01*
X122544360Y-89088217D01*
X122538047Y-89111778D01*
X122522858Y-89168464D01*
X121800000Y-89168464D01*
X121800000Y-87478464D01*
X122434500Y-87478464D01*
X122434500Y-87561536D01*
X122447834Y-87611298D01*
X122456002Y-87641782D01*
X122456003Y-87641783D01*
X122486364Y-87694368D01*
X122497538Y-87713721D01*
X122556279Y-87772462D01*
X122569261Y-87779957D01*
X122628216Y-87813996D01*
X122628217Y-87813997D01*
X122628219Y-87813997D01*
X122628222Y-87813999D01*
X122708464Y-87835500D01*
X122708467Y-87835500D01*
X122791536Y-87835500D01*
X122797549Y-87834708D01*
X122866584Y-87845470D01*
X122918842Y-87891847D01*
X122937740Y-87957646D01*
X122937740Y-88015214D01*
X122948801Y-88056492D01*
X122959242Y-88095460D01*
X122959243Y-88095461D01*
X122998916Y-88164174D01*
X123000778Y-88167399D01*
X123059519Y-88226140D01*
X123079254Y-88237534D01*
X123131456Y-88267674D01*
X123131457Y-88267675D01*
X123131459Y-88267675D01*
X123131462Y-88267677D01*
X123211704Y-88289178D01*
X123211707Y-88289178D01*
X123294773Y-88289178D01*
X123294776Y-88289178D01*
X123375018Y-88267677D01*
X123375020Y-88267675D01*
X123375022Y-88267675D01*
X123375023Y-88267674D01*
X123446961Y-88226140D01*
X123505702Y-88167399D01*
X123547239Y-88095456D01*
X123568740Y-88015214D01*
X123568740Y-87932142D01*
X123547239Y-87851900D01*
X123547237Y-87851897D01*
X123547237Y-87851895D01*
X123547236Y-87851894D01*
X123522161Y-87808464D01*
X125034500Y-87808464D01*
X125034500Y-87891536D01*
X125050825Y-87952462D01*
X125056002Y-87971782D01*
X125056003Y-87971783D01*
X125081077Y-88015211D01*
X125097538Y-88043721D01*
X125156279Y-88102462D01*
X125192250Y-88123230D01*
X125228216Y-88143996D01*
X125228217Y-88143997D01*
X125228219Y-88143997D01*
X125228222Y-88143999D01*
X125308464Y-88165500D01*
X125308467Y-88165500D01*
X125391533Y-88165500D01*
X125391536Y-88165500D01*
X125471778Y-88143999D01*
X125471780Y-88143997D01*
X125471782Y-88143997D01*
X125471783Y-88143996D01*
X125493369Y-88131533D01*
X125543721Y-88102462D01*
X125602462Y-88043721D01*
X125643999Y-87971778D01*
X125665500Y-87891536D01*
X125665500Y-87808464D01*
X125643999Y-87728222D01*
X125643997Y-87728219D01*
X125643997Y-87728217D01*
X125643996Y-87728216D01*
X125617928Y-87683066D01*
X125602462Y-87656279D01*
X125543721Y-87597538D01*
X125540496Y-87595676D01*
X125471783Y-87556003D01*
X125471782Y-87556002D01*
X125465201Y-87554238D01*
X125391536Y-87534500D01*
X125308464Y-87534500D01*
X125252058Y-87549613D01*
X125228217Y-87556002D01*
X125228216Y-87556003D01*
X125156285Y-87597534D01*
X125156276Y-87597540D01*
X125097540Y-87656276D01*
X125097534Y-87656285D01*
X125056003Y-87728216D01*
X125056002Y-87728217D01*
X125056001Y-87728222D01*
X125034500Y-87808464D01*
X123522161Y-87808464D01*
X123513650Y-87793723D01*
X123505702Y-87779957D01*
X123446961Y-87721216D01*
X123433983Y-87713723D01*
X123375023Y-87679681D01*
X123375022Y-87679680D01*
X123368441Y-87677916D01*
X123294776Y-87658178D01*
X123211704Y-87658178D01*
X123211700Y-87658178D01*
X123205683Y-87658970D01*
X123136648Y-87648203D01*
X123084393Y-87601822D01*
X123065500Y-87536031D01*
X123065500Y-87478466D01*
X123065500Y-87478464D01*
X123043999Y-87398222D01*
X123043997Y-87398219D01*
X123043997Y-87398217D01*
X123043996Y-87398216D01*
X123012183Y-87343115D01*
X122995709Y-87275215D01*
X123018561Y-87209188D01*
X123073481Y-87165997D01*
X123143035Y-87159355D01*
X123199217Y-87188317D01*
X123199833Y-87187515D01*
X123204281Y-87190928D01*
X123205138Y-87191370D01*
X123206168Y-87192376D01*
X123206272Y-87192455D01*
X123206279Y-87192462D01*
X123227129Y-87204500D01*
X123278216Y-87233996D01*
X123278217Y-87233997D01*
X123278219Y-87233997D01*
X123278222Y-87233999D01*
X123358464Y-87255500D01*
X123358467Y-87255500D01*
X123441533Y-87255500D01*
X123441536Y-87255500D01*
X123521778Y-87233999D01*
X123521780Y-87233997D01*
X123521782Y-87233997D01*
X123521783Y-87233996D01*
X123535627Y-87226003D01*
X123593721Y-87192462D01*
X123652462Y-87133721D01*
X123693999Y-87061778D01*
X123715500Y-86981536D01*
X123715500Y-86898464D01*
X123704782Y-86858464D01*
X125884500Y-86858464D01*
X125884500Y-86941536D01*
X125897488Y-86990008D01*
X125906002Y-87021782D01*
X125906003Y-87021783D01*
X125929098Y-87061783D01*
X125947538Y-87093721D01*
X126006279Y-87152462D01*
X126018218Y-87159355D01*
X126078216Y-87193996D01*
X126078217Y-87193997D01*
X126078219Y-87193997D01*
X126078222Y-87193999D01*
X126158464Y-87215500D01*
X126158467Y-87215500D01*
X126241533Y-87215500D01*
X126241536Y-87215500D01*
X126321778Y-87193999D01*
X126321780Y-87193997D01*
X126321782Y-87193997D01*
X126321783Y-87193996D01*
X126337960Y-87184656D01*
X126393721Y-87152462D01*
X126452462Y-87093721D01*
X126493999Y-87021778D01*
X126515500Y-86941536D01*
X126515500Y-86858464D01*
X126784500Y-86858464D01*
X126784500Y-86941536D01*
X126797488Y-86990008D01*
X126806002Y-87021782D01*
X126806003Y-87021783D01*
X126829098Y-87061783D01*
X126847538Y-87093721D01*
X126906279Y-87152462D01*
X126918218Y-87159355D01*
X126978216Y-87193996D01*
X126978218Y-87193997D01*
X126978222Y-87193999D01*
X126978225Y-87193999D01*
X126985726Y-87197107D01*
X126984765Y-87199426D01*
X127033665Y-87229227D01*
X127064199Y-87292072D01*
X127055910Y-87361448D01*
X127011430Y-87415330D01*
X127003920Y-87420031D01*
X126956282Y-87447535D01*
X126956276Y-87447540D01*
X126897540Y-87506276D01*
X126897534Y-87506285D01*
X126856003Y-87578216D01*
X126856002Y-87578217D01*
X126854873Y-87582431D01*
X126834500Y-87658464D01*
X126834500Y-87741536D01*
X126852434Y-87808466D01*
X126856002Y-87821782D01*
X126856003Y-87821783D01*
X126873718Y-87852465D01*
X126897538Y-87893721D01*
X126956279Y-87952462D01*
X126965258Y-87957646D01*
X127028216Y-87993996D01*
X127028217Y-87993997D01*
X127028219Y-87993997D01*
X127028222Y-87993999D01*
X127108464Y-88015500D01*
X127108467Y-88015500D01*
X127191533Y-88015500D01*
X127191536Y-88015500D01*
X127271778Y-87993999D01*
X127271780Y-87993997D01*
X127271782Y-87993997D01*
X127271783Y-87993996D01*
X127343721Y-87952462D01*
X127402462Y-87893721D01*
X127443999Y-87821778D01*
X127465500Y-87741536D01*
X127465500Y-87658464D01*
X127443999Y-87578222D01*
X127434363Y-87561533D01*
X127432591Y-87558464D01*
X129099502Y-87558464D01*
X129099502Y-87641536D01*
X129118842Y-87713714D01*
X129121004Y-87721782D01*
X129121005Y-87721783D01*
X129151506Y-87774610D01*
X129162540Y-87793721D01*
X129221281Y-87852462D01*
X129243085Y-87865051D01*
X129282413Y-87887758D01*
X129330628Y-87938325D01*
X129343850Y-88006932D01*
X129340188Y-88027233D01*
X129334500Y-88048462D01*
X129334500Y-88048464D01*
X129334500Y-88131536D01*
X129351774Y-88196001D01*
X129356002Y-88211782D01*
X129356003Y-88211783D01*
X129388273Y-88267674D01*
X129397538Y-88283721D01*
X129456279Y-88342462D01*
X129490549Y-88362248D01*
X129528216Y-88383996D01*
X129528217Y-88383997D01*
X129528219Y-88383997D01*
X129528222Y-88383999D01*
X129608464Y-88405500D01*
X129608467Y-88405500D01*
X129660500Y-88405500D01*
X129727539Y-88425185D01*
X129773294Y-88477989D01*
X129783196Y-88523507D01*
X129783439Y-88523476D01*
X129783821Y-88526381D01*
X129784500Y-88529500D01*
X129784500Y-88531536D01*
X129804238Y-88605201D01*
X129806002Y-88611782D01*
X129806003Y-88611783D01*
X129842214Y-88674500D01*
X129847538Y-88683721D01*
X129906279Y-88742462D01*
X129942250Y-88763230D01*
X129978216Y-88783996D01*
X129978217Y-88783997D01*
X129978219Y-88783997D01*
X129978222Y-88783999D01*
X130058464Y-88805500D01*
X130058467Y-88805500D01*
X130141533Y-88805500D01*
X130141536Y-88805500D01*
X130221778Y-88783999D01*
X130221780Y-88783997D01*
X130221782Y-88783997D01*
X130221783Y-88783996D01*
X130293721Y-88742462D01*
X130352462Y-88683721D01*
X130393999Y-88611778D01*
X130415500Y-88531536D01*
X130415500Y-88448464D01*
X130393999Y-88368222D01*
X130393997Y-88368219D01*
X130393997Y-88368217D01*
X130393996Y-88368216D01*
X130352465Y-88296285D01*
X130352462Y-88296279D01*
X130293721Y-88237538D01*
X130273985Y-88226143D01*
X130221783Y-88196003D01*
X130221782Y-88196002D01*
X130215201Y-88194238D01*
X130141536Y-88174500D01*
X130089500Y-88174500D01*
X130022461Y-88154815D01*
X129976706Y-88102011D01*
X129966803Y-88056492D01*
X129966561Y-88056524D01*
X129966178Y-88053618D01*
X129965500Y-88050500D01*
X129965500Y-88048466D01*
X129965500Y-88048464D01*
X129943999Y-87968222D01*
X129943997Y-87968219D01*
X129943997Y-87968217D01*
X129943996Y-87968216D01*
X129913559Y-87915500D01*
X129902462Y-87896279D01*
X129843721Y-87837538D01*
X129816431Y-87821782D01*
X129782587Y-87802241D01*
X129734372Y-87751673D01*
X129721151Y-87683066D01*
X129721307Y-87681526D01*
X129722335Y-87672013D01*
X129730502Y-87641536D01*
X129730502Y-87611296D01*
X131379531Y-87611296D01*
X131379531Y-87694368D01*
X131392169Y-87741533D01*
X131401033Y-87774614D01*
X131401034Y-87774615D01*
X131428265Y-87821778D01*
X131442569Y-87846553D01*
X131501310Y-87905294D01*
X131518987Y-87915500D01*
X131573247Y-87946828D01*
X131573248Y-87946829D01*
X131573250Y-87946829D01*
X131573253Y-87946831D01*
X131653495Y-87968332D01*
X131653498Y-87968332D01*
X131736564Y-87968332D01*
X131736567Y-87968332D01*
X131816809Y-87946831D01*
X131816811Y-87946829D01*
X131816813Y-87946829D01*
X131816814Y-87946828D01*
X131888752Y-87905294D01*
X131947493Y-87846553D01*
X131989030Y-87774610D01*
X132010531Y-87694368D01*
X132010531Y-87611296D01*
X131989030Y-87531054D01*
X131989028Y-87531051D01*
X131989028Y-87531049D01*
X131989027Y-87531048D01*
X131958668Y-87478466D01*
X131947493Y-87459111D01*
X131888752Y-87400370D01*
X131861265Y-87384500D01*
X131816814Y-87358835D01*
X131816813Y-87358834D01*
X131810232Y-87357070D01*
X131736567Y-87337332D01*
X131653495Y-87337332D01*
X131597089Y-87352445D01*
X131573248Y-87358834D01*
X131573247Y-87358835D01*
X131501316Y-87400366D01*
X131501307Y-87400372D01*
X131442571Y-87459108D01*
X131442565Y-87459117D01*
X131401034Y-87531048D01*
X131401033Y-87531049D01*
X131399698Y-87536031D01*
X131379531Y-87611296D01*
X129730502Y-87611296D01*
X129730502Y-87558464D01*
X129709001Y-87478222D01*
X129708999Y-87478219D01*
X129708999Y-87478217D01*
X129708998Y-87478216D01*
X129675404Y-87420031D01*
X129667464Y-87406279D01*
X129608723Y-87347538D01*
X129591046Y-87337332D01*
X129536785Y-87306003D01*
X129536784Y-87306002D01*
X129530203Y-87304238D01*
X129456538Y-87284500D01*
X129373466Y-87284500D01*
X129317060Y-87299613D01*
X129293219Y-87306002D01*
X129293218Y-87306003D01*
X129221287Y-87347534D01*
X129221278Y-87347540D01*
X129162542Y-87406276D01*
X129162536Y-87406285D01*
X129121005Y-87478216D01*
X129121004Y-87478217D01*
X129113486Y-87506276D01*
X129099502Y-87558464D01*
X127432591Y-87558464D01*
X127416763Y-87531049D01*
X127402462Y-87506279D01*
X127343721Y-87447538D01*
X127340496Y-87445676D01*
X127271783Y-87406003D01*
X127264274Y-87402893D01*
X127265233Y-87400576D01*
X127216319Y-87370755D01*
X127185796Y-87307904D01*
X127194098Y-87238530D01*
X127238589Y-87184656D01*
X127246072Y-87179972D01*
X127293721Y-87152462D01*
X127352462Y-87093721D01*
X127393999Y-87021778D01*
X127415500Y-86941536D01*
X127415500Y-86858464D01*
X127393999Y-86778222D01*
X127393997Y-86778219D01*
X127393997Y-86778217D01*
X127393996Y-86778216D01*
X127352465Y-86706285D01*
X127352462Y-86706279D01*
X127293721Y-86647538D01*
X127253819Y-86624500D01*
X127221783Y-86606003D01*
X127221782Y-86606002D01*
X127215201Y-86604238D01*
X127141536Y-86584500D01*
X127058464Y-86584500D01*
X127002715Y-86599438D01*
X126978217Y-86606002D01*
X126978216Y-86606003D01*
X126906285Y-86647534D01*
X126906276Y-86647540D01*
X126847540Y-86706276D01*
X126847534Y-86706285D01*
X126806003Y-86778216D01*
X126806002Y-86778217D01*
X126797659Y-86809353D01*
X126784500Y-86858464D01*
X126515500Y-86858464D01*
X126493999Y-86778222D01*
X126493997Y-86778219D01*
X126493997Y-86778217D01*
X126493996Y-86778216D01*
X126452465Y-86706285D01*
X126452462Y-86706279D01*
X126393721Y-86647538D01*
X126353819Y-86624500D01*
X126321783Y-86606003D01*
X126321782Y-86606002D01*
X126315201Y-86604238D01*
X126241536Y-86584500D01*
X126158464Y-86584500D01*
X126102715Y-86599438D01*
X126078217Y-86606002D01*
X126078216Y-86606003D01*
X126006285Y-86647534D01*
X126006276Y-86647540D01*
X125947540Y-86706276D01*
X125947534Y-86706285D01*
X125906003Y-86778216D01*
X125906002Y-86778217D01*
X125897659Y-86809353D01*
X125884500Y-86858464D01*
X123704782Y-86858464D01*
X123693999Y-86818222D01*
X123692427Y-86815500D01*
X123667184Y-86771778D01*
X123652462Y-86746279D01*
X123593721Y-86687538D01*
X123590511Y-86685684D01*
X123521279Y-86645712D01*
X123498789Y-86622125D01*
X123475385Y-86599438D01*
X123474808Y-86596975D01*
X123473064Y-86595145D01*
X123466898Y-86563151D01*
X123459473Y-86531404D01*
X123460320Y-86529019D01*
X123459842Y-86526538D01*
X123471950Y-86496291D01*
X123482869Y-86465568D01*
X123485031Y-86463618D01*
X123485810Y-86461673D01*
X123489046Y-86458464D01*
X131384500Y-86458464D01*
X131384500Y-86541536D01*
X131402434Y-86608466D01*
X131406002Y-86621782D01*
X131406003Y-86621783D01*
X131443966Y-86687534D01*
X131447538Y-86693721D01*
X131506279Y-86752462D01*
X131539735Y-86771778D01*
X131578216Y-86793996D01*
X131578217Y-86793997D01*
X131578219Y-86793997D01*
X131578222Y-86793999D01*
X131658464Y-86815500D01*
X131658467Y-86815500D01*
X131741533Y-86815500D01*
X131741536Y-86815500D01*
X131821778Y-86793999D01*
X131821780Y-86793997D01*
X131821782Y-86793997D01*
X131821783Y-86793996D01*
X131893721Y-86752462D01*
X131952462Y-86693721D01*
X131993999Y-86621778D01*
X132015500Y-86541536D01*
X132015500Y-86458464D01*
X131993999Y-86378222D01*
X131993997Y-86378219D01*
X131993997Y-86378217D01*
X131993996Y-86378216D01*
X131971302Y-86338911D01*
X131952462Y-86306279D01*
X131893721Y-86247538D01*
X131885532Y-86242810D01*
X131821783Y-86206003D01*
X131821782Y-86206002D01*
X131815201Y-86204238D01*
X131741536Y-86184500D01*
X131658464Y-86184500D01*
X131602058Y-86199613D01*
X131578217Y-86206002D01*
X131578216Y-86206003D01*
X131506285Y-86247534D01*
X131506276Y-86247540D01*
X131447540Y-86306276D01*
X131447534Y-86306285D01*
X131406003Y-86378216D01*
X131406002Y-86378217D01*
X131406001Y-86378222D01*
X131384500Y-86458464D01*
X123489046Y-86458464D01*
X123507435Y-86440226D01*
X123514041Y-86435118D01*
X123568230Y-86403832D01*
X123626971Y-86345091D01*
X123668508Y-86273148D01*
X123690009Y-86192906D01*
X123690009Y-86109834D01*
X123668508Y-86029592D01*
X123668506Y-86029589D01*
X123668506Y-86029587D01*
X123668505Y-86029586D01*
X123626974Y-85957655D01*
X123626971Y-85957649D01*
X123568230Y-85898908D01*
X123565005Y-85897046D01*
X123496292Y-85857373D01*
X123496291Y-85857372D01*
X123489710Y-85855608D01*
X123416045Y-85835870D01*
X123332973Y-85835870D01*
X123276567Y-85850983D01*
X123252726Y-85857372D01*
X123252725Y-85857373D01*
X123180794Y-85898904D01*
X123180788Y-85898908D01*
X123168494Y-85911202D01*
X123107170Y-85944685D01*
X123059470Y-85941272D01*
X123081377Y-86000002D01*
X123081120Y-86020758D01*
X123080131Y-86031004D01*
X123059009Y-86109834D01*
X123059009Y-86192906D01*
X123063056Y-86208010D01*
X123060902Y-86230342D01*
X123055896Y-86242810D01*
X123055571Y-86256241D01*
X123043133Y-86274600D01*
X123034871Y-86295181D01*
X123023919Y-86302963D01*
X123016384Y-86314087D01*
X122995994Y-86322807D01*
X122977918Y-86335654D01*
X122964497Y-86336280D01*
X122952144Y-86341564D01*
X122912384Y-86338712D01*
X122908124Y-86338911D01*
X122907128Y-86338335D01*
X122905384Y-86338210D01*
X122891540Y-86334500D01*
X122891536Y-86334500D01*
X122808464Y-86334500D01*
X122752058Y-86349613D01*
X122728217Y-86356002D01*
X122728216Y-86356003D01*
X122656285Y-86397534D01*
X122656276Y-86397540D01*
X122597540Y-86456276D01*
X122597534Y-86456285D01*
X122556003Y-86528216D01*
X122556002Y-86528217D01*
X122547659Y-86559353D01*
X122534500Y-86608464D01*
X122534500Y-86691536D01*
X122550825Y-86752462D01*
X122556002Y-86771782D01*
X122556003Y-86771783D01*
X122581244Y-86815500D01*
X122597538Y-86843721D01*
X122656279Y-86902462D01*
X122692250Y-86923230D01*
X122728216Y-86943996D01*
X122728217Y-86943997D01*
X122728219Y-86943997D01*
X122728222Y-86943999D01*
X122790647Y-86960726D01*
X122850306Y-86997090D01*
X122880835Y-87059937D01*
X122872540Y-87129313D01*
X122828055Y-87183191D01*
X122761503Y-87204465D01*
X122758552Y-87204500D01*
X122708464Y-87204500D01*
X122652058Y-87219613D01*
X122628217Y-87226002D01*
X122628216Y-87226003D01*
X122556285Y-87267534D01*
X122556276Y-87267540D01*
X122497540Y-87326276D01*
X122497534Y-87326285D01*
X122456003Y-87398216D01*
X122456002Y-87398217D01*
X122451417Y-87415330D01*
X122434500Y-87478464D01*
X121800000Y-87478464D01*
X121800000Y-85639464D01*
X122348500Y-85639464D01*
X122348500Y-85722536D01*
X122366958Y-85791423D01*
X122370002Y-85802782D01*
X122370003Y-85802783D01*
X122387081Y-85832361D01*
X122411538Y-85874721D01*
X122470279Y-85933462D01*
X122506250Y-85954230D01*
X122542216Y-85974996D01*
X122542217Y-85974997D01*
X122542219Y-85974997D01*
X122542222Y-85974999D01*
X122622464Y-85996500D01*
X122622467Y-85996500D01*
X122705533Y-85996500D01*
X122705536Y-85996500D01*
X122785778Y-85974999D01*
X122785780Y-85974997D01*
X122785782Y-85974997D01*
X122785783Y-85974996D01*
X122857721Y-85933462D01*
X122870013Y-85921169D01*
X122931332Y-85887686D01*
X122979036Y-85891096D01*
X122957131Y-85832361D01*
X122961040Y-85791426D01*
X122979500Y-85722536D01*
X122979500Y-85639464D01*
X122957999Y-85559222D01*
X122957997Y-85559219D01*
X122957997Y-85559217D01*
X122957996Y-85559216D01*
X122916465Y-85487285D01*
X122916462Y-85487279D01*
X122857721Y-85428538D01*
X122846013Y-85421778D01*
X122785783Y-85387003D01*
X122785782Y-85387002D01*
X122779201Y-85385238D01*
X122705536Y-85365500D01*
X122622464Y-85365500D01*
X122566058Y-85380613D01*
X122542217Y-85387002D01*
X122542216Y-85387003D01*
X122470285Y-85428534D01*
X122470276Y-85428540D01*
X122411540Y-85487276D01*
X122411534Y-85487285D01*
X122370003Y-85559216D01*
X122370002Y-85559217D01*
X122370001Y-85559222D01*
X122348500Y-85639464D01*
X121800000Y-85639464D01*
X121800000Y-85531211D01*
X121816614Y-85469209D01*
X121843999Y-85421778D01*
X121865500Y-85341536D01*
X121865500Y-85258464D01*
X121843999Y-85178222D01*
X121816612Y-85130788D01*
X121812462Y-85115299D01*
X121805023Y-85103723D01*
X121800000Y-85068788D01*
X121800000Y-84858464D01*
X125484500Y-84858464D01*
X125484500Y-84941536D01*
X125498481Y-84993714D01*
X125506002Y-85021782D01*
X125506003Y-85021783D01*
X125545676Y-85090496D01*
X125547538Y-85093721D01*
X125606279Y-85152462D01*
X125642250Y-85173230D01*
X125678216Y-85193996D01*
X125678217Y-85193997D01*
X125678219Y-85193997D01*
X125678222Y-85193999D01*
X125758464Y-85215500D01*
X125758467Y-85215500D01*
X125841533Y-85215500D01*
X125841536Y-85215500D01*
X125921778Y-85193999D01*
X125921780Y-85193997D01*
X125921782Y-85193997D01*
X125921783Y-85193996D01*
X125927336Y-85190790D01*
X125993721Y-85152462D01*
X126052462Y-85093721D01*
X126093999Y-85021778D01*
X126115500Y-84941536D01*
X126115500Y-84858464D01*
X126093999Y-84778222D01*
X126082592Y-84758464D01*
X127334500Y-84758464D01*
X127334500Y-84841536D01*
X127354238Y-84915201D01*
X127356002Y-84921782D01*
X127356003Y-84921783D01*
X127367408Y-84941536D01*
X127397538Y-84993721D01*
X127456279Y-85052462D01*
X127484556Y-85068788D01*
X127528216Y-85093996D01*
X127528217Y-85093997D01*
X127528219Y-85093997D01*
X127528222Y-85093999D01*
X127608464Y-85115500D01*
X127608467Y-85115500D01*
X127691533Y-85115500D01*
X127691536Y-85115500D01*
X127771778Y-85093999D01*
X127771780Y-85093997D01*
X127771782Y-85093997D01*
X127771783Y-85093996D01*
X127772256Y-85093723D01*
X127843721Y-85052462D01*
X127902462Y-84993721D01*
X127943999Y-84921778D01*
X127965500Y-84841536D01*
X127965500Y-84758464D01*
X127943999Y-84678222D01*
X127943997Y-84678219D01*
X127943997Y-84678217D01*
X127943996Y-84678216D01*
X127923230Y-84642250D01*
X127902462Y-84606279D01*
X127843721Y-84547538D01*
X127840496Y-84545676D01*
X127771783Y-84506003D01*
X127771782Y-84506002D01*
X127765201Y-84504238D01*
X127691536Y-84484500D01*
X127608464Y-84484500D01*
X127552058Y-84499613D01*
X127528217Y-84506002D01*
X127528216Y-84506003D01*
X127456285Y-84547534D01*
X127456276Y-84547540D01*
X127397540Y-84606276D01*
X127397534Y-84606285D01*
X127356003Y-84678216D01*
X127356002Y-84678217D01*
X127356001Y-84678222D01*
X127334500Y-84758464D01*
X126082592Y-84758464D01*
X126052462Y-84706279D01*
X125993721Y-84647538D01*
X125990496Y-84645676D01*
X125921783Y-84606003D01*
X125921782Y-84606002D01*
X125915201Y-84604238D01*
X125841536Y-84584500D01*
X125758464Y-84584500D01*
X125702058Y-84599613D01*
X125678217Y-84606002D01*
X125678216Y-84606003D01*
X125606285Y-84647534D01*
X125606276Y-84647540D01*
X125547540Y-84706276D01*
X125547534Y-84706285D01*
X125506003Y-84778216D01*
X125506002Y-84778217D01*
X125504873Y-84782431D01*
X125484500Y-84858464D01*
X121800000Y-84858464D01*
X121800000Y-83901361D01*
X121819685Y-83834322D01*
X121836314Y-83813685D01*
X122358361Y-83291638D01*
X122419682Y-83258155D01*
X122489374Y-83263139D01*
X122545307Y-83305011D01*
X122553426Y-83317320D01*
X122597533Y-83393714D01*
X122597536Y-83393718D01*
X122597538Y-83393721D01*
X122656279Y-83452462D01*
X122692250Y-83473230D01*
X122728216Y-83493996D01*
X122728217Y-83493997D01*
X122728219Y-83493997D01*
X122728222Y-83493999D01*
X122808464Y-83515500D01*
X122808467Y-83515500D01*
X122891533Y-83515500D01*
X122891536Y-83515500D01*
X122971778Y-83493999D01*
X122971780Y-83493997D01*
X122971782Y-83493997D01*
X122971783Y-83493996D01*
X123043721Y-83452462D01*
X123102462Y-83393721D01*
X123143999Y-83321778D01*
X123165500Y-83241536D01*
X123165500Y-83158464D01*
X123143999Y-83078222D01*
X123143997Y-83078219D01*
X123143997Y-83078217D01*
X123143996Y-83078216D01*
X123102465Y-83006285D01*
X123102462Y-83006279D01*
X123043721Y-82947538D01*
X123043718Y-82947536D01*
X123043714Y-82947533D01*
X122967320Y-82903426D01*
X122950068Y-82885333D01*
X122930054Y-82870350D01*
X122926373Y-82860481D01*
X122919105Y-82852859D01*
X122914374Y-82828311D01*
X122905637Y-82804886D01*
X122907876Y-82794593D01*
X122905883Y-82784251D01*
X122915174Y-82761041D01*
X122920489Y-82736613D01*
X122930088Y-82723790D01*
X122931851Y-82719387D01*
X122941632Y-82708367D01*
X123113681Y-82536319D01*
X123175004Y-82502834D01*
X123201362Y-82500000D01*
X130598638Y-82500000D01*
X130665677Y-82519685D01*
G37*
%TD.AperFunction*%
%TD*%
%TA.AperFunction,Conductor*%
%TO.N,GND*%
G36*
X133004028Y-70200764D02*
G01*
X133259422Y-70217503D01*
X133275478Y-70219618D01*
X133457231Y-70255770D01*
X133522476Y-70268749D01*
X133538143Y-70272947D01*
X133669337Y-70317481D01*
X133776615Y-70353897D01*
X133791592Y-70360100D01*
X133994549Y-70460187D01*
X134017464Y-70471488D01*
X134031500Y-70479591D01*
X134240913Y-70619515D01*
X134253750Y-70629365D01*
X134443110Y-70795431D01*
X134454568Y-70806889D01*
X134620632Y-70996247D01*
X134630485Y-71009089D01*
X134770405Y-71218494D01*
X134778511Y-71232535D01*
X134889896Y-71458400D01*
X134896103Y-71473386D01*
X134977052Y-71711856D01*
X134981250Y-71727523D01*
X135030380Y-71974516D01*
X135032497Y-71990597D01*
X135049234Y-72245941D01*
X135049500Y-72254051D01*
X135049500Y-90492389D01*
X135029815Y-90559428D01*
X134977011Y-90605183D01*
X134907853Y-90615127D01*
X134893407Y-90612164D01*
X134867353Y-90605183D01*
X134846144Y-90599500D01*
X134753856Y-90599500D01*
X134664712Y-90623386D01*
X134664711Y-90623386D01*
X134664709Y-90623387D01*
X134664706Y-90623388D01*
X134584794Y-90669526D01*
X134584785Y-90669533D01*
X134519533Y-90734785D01*
X134519526Y-90734794D01*
X134473388Y-90814706D01*
X134473387Y-90814709D01*
X134473386Y-90814711D01*
X134473386Y-90814712D01*
X134449500Y-90903856D01*
X134449500Y-90996144D01*
X134462322Y-91043997D01*
X134473387Y-91085290D01*
X134473388Y-91085293D01*
X134519526Y-91165205D01*
X134519529Y-91165209D01*
X134519531Y-91165212D01*
X134584788Y-91230469D01*
X134584791Y-91230470D01*
X134584794Y-91230473D01*
X134664706Y-91276611D01*
X134664707Y-91276611D01*
X134664712Y-91276614D01*
X134753856Y-91300500D01*
X134753858Y-91300500D01*
X134846140Y-91300500D01*
X134846144Y-91300500D01*
X134893410Y-91287835D01*
X134963255Y-91289498D01*
X135021118Y-91328660D01*
X135048623Y-91392888D01*
X135049500Y-91407610D01*
X135049500Y-102745948D01*
X135049234Y-102754058D01*
X135032497Y-103009402D01*
X135030380Y-103025483D01*
X134981250Y-103272476D01*
X134977052Y-103288143D01*
X134896103Y-103526613D01*
X134889896Y-103541599D01*
X134778511Y-103767464D01*
X134770402Y-103781510D01*
X134630490Y-103990903D01*
X134620626Y-104003759D01*
X134573661Y-104057313D01*
X134454573Y-104193105D01*
X134443105Y-104204573D01*
X134390737Y-104250499D01*
X134253759Y-104370626D01*
X134240903Y-104380490D01*
X134061546Y-104500332D01*
X134031510Y-104520402D01*
X134017464Y-104528511D01*
X133791599Y-104639896D01*
X133776613Y-104646103D01*
X133538143Y-104727052D01*
X133522476Y-104731250D01*
X133275483Y-104780380D01*
X133259402Y-104782497D01*
X133004058Y-104799234D01*
X132995948Y-104799500D01*
X102504052Y-104799500D01*
X102495942Y-104799234D01*
X102240597Y-104782497D01*
X102224516Y-104780380D01*
X101977523Y-104731250D01*
X101961856Y-104727052D01*
X101723386Y-104646103D01*
X101708400Y-104639896D01*
X101482535Y-104528511D01*
X101468494Y-104520405D01*
X101259089Y-104380485D01*
X101246247Y-104370632D01*
X101056889Y-104204568D01*
X101045431Y-104193110D01*
X100879365Y-104003750D01*
X100869515Y-103990913D01*
X100729591Y-103781500D01*
X100721487Y-103767463D01*
X100703419Y-103730824D01*
X100703418Y-103730822D01*
X100680381Y-103684108D01*
X118149500Y-103684108D01*
X118149500Y-103815891D01*
X118183608Y-103943187D01*
X118211153Y-103990895D01*
X118249500Y-104057314D01*
X118342686Y-104150500D01*
X118456814Y-104216392D01*
X118584108Y-104250500D01*
X118584110Y-104250500D01*
X118715890Y-104250500D01*
X118715892Y-104250500D01*
X118843186Y-104216392D01*
X118957314Y-104150500D01*
X119050500Y-104057314D01*
X119116392Y-103943186D01*
X119150500Y-103815892D01*
X119150500Y-103684108D01*
X119849500Y-103684108D01*
X119849500Y-103815891D01*
X119883608Y-103943187D01*
X119911153Y-103990895D01*
X119949500Y-104057314D01*
X120042686Y-104150500D01*
X120156814Y-104216392D01*
X120284108Y-104250500D01*
X120284110Y-104250500D01*
X120415890Y-104250500D01*
X120415892Y-104250500D01*
X120543186Y-104216392D01*
X120657314Y-104150500D01*
X120750500Y-104057314D01*
X120816392Y-103943186D01*
X120850500Y-103815892D01*
X120850500Y-103684108D01*
X120816392Y-103556814D01*
X120750500Y-103442686D01*
X120657314Y-103349500D01*
X120600250Y-103316554D01*
X120543187Y-103283608D01*
X120479539Y-103266554D01*
X120415892Y-103249500D01*
X120284108Y-103249500D01*
X120156812Y-103283608D01*
X120042686Y-103349500D01*
X120042683Y-103349502D01*
X119949502Y-103442683D01*
X119949500Y-103442686D01*
X119883608Y-103556812D01*
X119849500Y-103684108D01*
X119150500Y-103684108D01*
X119116392Y-103556814D01*
X119050500Y-103442686D01*
X118957314Y-103349500D01*
X118900250Y-103316554D01*
X118843187Y-103283608D01*
X118779539Y-103266554D01*
X118715892Y-103249500D01*
X118584108Y-103249500D01*
X118456812Y-103283608D01*
X118342686Y-103349500D01*
X118342683Y-103349502D01*
X118249502Y-103442683D01*
X118249500Y-103442686D01*
X118183608Y-103556812D01*
X118149500Y-103684108D01*
X100680381Y-103684108D01*
X100610100Y-103541592D01*
X100603896Y-103526613D01*
X100522947Y-103288143D01*
X100518749Y-103272476D01*
X100469619Y-103025483D01*
X100467503Y-103009422D01*
X100450764Y-102754028D01*
X100450500Y-102745948D01*
X100450500Y-101558464D01*
X121034500Y-101558464D01*
X121034500Y-101641536D01*
X121054238Y-101715201D01*
X121056002Y-101721782D01*
X121056003Y-101721783D01*
X121095676Y-101790496D01*
X121097538Y-101793721D01*
X121156279Y-101852462D01*
X121192250Y-101873230D01*
X121228216Y-101893996D01*
X121228217Y-101893997D01*
X121228219Y-101893997D01*
X121228222Y-101893999D01*
X121308464Y-101915500D01*
X121308467Y-101915500D01*
X121391533Y-101915500D01*
X121391536Y-101915500D01*
X121471778Y-101893999D01*
X121471780Y-101893997D01*
X121471782Y-101893997D01*
X121471783Y-101893996D01*
X121543721Y-101852462D01*
X121602462Y-101793721D01*
X121643999Y-101721778D01*
X121665500Y-101641536D01*
X121665500Y-101558464D01*
X121643999Y-101478222D01*
X121643997Y-101478219D01*
X121643997Y-101478217D01*
X121643996Y-101478216D01*
X121602465Y-101406285D01*
X121602462Y-101406279D01*
X121543721Y-101347538D01*
X121540496Y-101345676D01*
X121471783Y-101306003D01*
X121471782Y-101306002D01*
X121465201Y-101304238D01*
X121391536Y-101284500D01*
X121308464Y-101284500D01*
X121252058Y-101299613D01*
X121228217Y-101306002D01*
X121228216Y-101306003D01*
X121156285Y-101347534D01*
X121156276Y-101347540D01*
X121097540Y-101406276D01*
X121097534Y-101406285D01*
X121056003Y-101478216D01*
X121056002Y-101478217D01*
X121056001Y-101478222D01*
X121034500Y-101558464D01*
X100450500Y-101558464D01*
X100450500Y-100208464D01*
X125434500Y-100208464D01*
X125434500Y-100291536D01*
X125450825Y-100352462D01*
X125456002Y-100371782D01*
X125456003Y-100371783D01*
X125481244Y-100415500D01*
X125497538Y-100443721D01*
X125556279Y-100502462D01*
X125592250Y-100523230D01*
X125628216Y-100543996D01*
X125628217Y-100543997D01*
X125628219Y-100543997D01*
X125628222Y-100543999D01*
X125708464Y-100565500D01*
X125708467Y-100565500D01*
X125791533Y-100565500D01*
X125791536Y-100565500D01*
X125871778Y-100543999D01*
X125871780Y-100543997D01*
X125871782Y-100543997D01*
X125871783Y-100543996D01*
X125943721Y-100502462D01*
X126002462Y-100443721D01*
X126043999Y-100371778D01*
X126065500Y-100291536D01*
X126065500Y-100208464D01*
X126043999Y-100128222D01*
X126043997Y-100128219D01*
X126043997Y-100128217D01*
X126043996Y-100128216D01*
X126034829Y-100112338D01*
X126014501Y-100077130D01*
X126003724Y-100058464D01*
X129444500Y-100058464D01*
X129444500Y-100141536D01*
X129462434Y-100208466D01*
X129466002Y-100221782D01*
X129466003Y-100221783D01*
X129505676Y-100290496D01*
X129507538Y-100293721D01*
X129566279Y-100352462D01*
X129599735Y-100371778D01*
X129638216Y-100393996D01*
X129638217Y-100393997D01*
X129638219Y-100393997D01*
X129638222Y-100393999D01*
X129718464Y-100415500D01*
X129718467Y-100415500D01*
X129801533Y-100415500D01*
X129801536Y-100415500D01*
X129881778Y-100393999D01*
X129881780Y-100393997D01*
X129881782Y-100393997D01*
X129881783Y-100393996D01*
X129953721Y-100352462D01*
X130012462Y-100293721D01*
X130053999Y-100221778D01*
X130075500Y-100141536D01*
X130075500Y-100058464D01*
X130053999Y-99978222D01*
X130053997Y-99978219D01*
X130053997Y-99978217D01*
X130053996Y-99978216D01*
X130012465Y-99906285D01*
X130012462Y-99906279D01*
X129953721Y-99847538D01*
X129950496Y-99845676D01*
X129881783Y-99806003D01*
X129881782Y-99806002D01*
X129875201Y-99804238D01*
X129801536Y-99784500D01*
X129718464Y-99784500D01*
X129662058Y-99799613D01*
X129638217Y-99806002D01*
X129638216Y-99806003D01*
X129566285Y-99847534D01*
X129566276Y-99847540D01*
X129507540Y-99906276D01*
X129507534Y-99906285D01*
X129466003Y-99978216D01*
X129466002Y-99978217D01*
X129466001Y-99978222D01*
X129444500Y-100058464D01*
X126003724Y-100058464D01*
X126002462Y-100056279D01*
X125943721Y-99997538D01*
X125940496Y-99995676D01*
X125871783Y-99956003D01*
X125871782Y-99956002D01*
X125865201Y-99954238D01*
X125791536Y-99934500D01*
X125708464Y-99934500D01*
X125652058Y-99949613D01*
X125628217Y-99956002D01*
X125628216Y-99956003D01*
X125556285Y-99997534D01*
X125556276Y-99997540D01*
X125497540Y-100056276D01*
X125497534Y-100056285D01*
X125456003Y-100128216D01*
X125456002Y-100128217D01*
X125456001Y-100128222D01*
X125434500Y-100208464D01*
X100450500Y-100208464D01*
X100450500Y-99208464D01*
X101884500Y-99208464D01*
X101884500Y-99291536D01*
X101904238Y-99365201D01*
X101906002Y-99371782D01*
X101906003Y-99371783D01*
X101945676Y-99440496D01*
X101947538Y-99443721D01*
X102006279Y-99502462D01*
X102042250Y-99523230D01*
X102078216Y-99543996D01*
X102078217Y-99543997D01*
X102078219Y-99543997D01*
X102078222Y-99543999D01*
X102158464Y-99565500D01*
X102158467Y-99565500D01*
X102241533Y-99565500D01*
X102241536Y-99565500D01*
X102321778Y-99543999D01*
X102321780Y-99543997D01*
X102321782Y-99543997D01*
X102321783Y-99543996D01*
X102328124Y-99540335D01*
X102393721Y-99502462D01*
X102452462Y-99443721D01*
X102493999Y-99371778D01*
X102515500Y-99291536D01*
X102515500Y-99268317D01*
X107584500Y-99268317D01*
X107584500Y-99406683D01*
X107594425Y-99443721D01*
X107620312Y-99540335D01*
X107620313Y-99540338D01*
X107689492Y-99660161D01*
X107689494Y-99660164D01*
X107689495Y-99660165D01*
X107787335Y-99758005D01*
X107907164Y-99827188D01*
X108040817Y-99863000D01*
X108040819Y-99863000D01*
X108179181Y-99863000D01*
X108179183Y-99863000D01*
X108312836Y-99827188D01*
X108432665Y-99758005D01*
X108530505Y-99660165D01*
X108599688Y-99540336D01*
X108635500Y-99406683D01*
X108635500Y-99268317D01*
X113364500Y-99268317D01*
X113364500Y-99406683D01*
X113374425Y-99443721D01*
X113400312Y-99540335D01*
X113400313Y-99540338D01*
X113469492Y-99660161D01*
X113469494Y-99660164D01*
X113469495Y-99660165D01*
X113567335Y-99758005D01*
X113687164Y-99827188D01*
X113820817Y-99863000D01*
X113820819Y-99863000D01*
X113959181Y-99863000D01*
X113959183Y-99863000D01*
X114092836Y-99827188D01*
X114212665Y-99758005D01*
X114310505Y-99660165D01*
X114379688Y-99540336D01*
X114415500Y-99406683D01*
X114415500Y-99268317D01*
X114379688Y-99134664D01*
X114310505Y-99014835D01*
X114212665Y-98916995D01*
X114212664Y-98916994D01*
X114212661Y-98916992D01*
X114092838Y-98847813D01*
X114092837Y-98847812D01*
X114092836Y-98847812D01*
X113959183Y-98812000D01*
X113820817Y-98812000D01*
X113687164Y-98847812D01*
X113687161Y-98847813D01*
X113567338Y-98916992D01*
X113567333Y-98916996D01*
X113469496Y-99014833D01*
X113469492Y-99014838D01*
X113400313Y-99134661D01*
X113400312Y-99134664D01*
X113364500Y-99268317D01*
X108635500Y-99268317D01*
X108599688Y-99134664D01*
X108530505Y-99014835D01*
X108432665Y-98916995D01*
X108432664Y-98916994D01*
X108432661Y-98916992D01*
X108312838Y-98847813D01*
X108312837Y-98847812D01*
X108312836Y-98847812D01*
X108179183Y-98812000D01*
X108040817Y-98812000D01*
X107907164Y-98847812D01*
X107907161Y-98847813D01*
X107787338Y-98916992D01*
X107787333Y-98916996D01*
X107689496Y-99014833D01*
X107689492Y-99014838D01*
X107620313Y-99134661D01*
X107620312Y-99134664D01*
X107584500Y-99268317D01*
X102515500Y-99268317D01*
X102515500Y-99208464D01*
X102493999Y-99128222D01*
X102493997Y-99128219D01*
X102493997Y-99128217D01*
X102493996Y-99128216D01*
X102461413Y-99071782D01*
X102452462Y-99056279D01*
X102393721Y-98997538D01*
X102390496Y-98995676D01*
X102321783Y-98956003D01*
X102321782Y-98956002D01*
X102315201Y-98954238D01*
X102241536Y-98934500D01*
X102158464Y-98934500D01*
X102102058Y-98949613D01*
X102078217Y-98956002D01*
X102078216Y-98956003D01*
X102006285Y-98997534D01*
X102006276Y-98997540D01*
X101947540Y-99056276D01*
X101947534Y-99056285D01*
X101906003Y-99128216D01*
X101906002Y-99128217D01*
X101904275Y-99134664D01*
X101884500Y-99208464D01*
X100450500Y-99208464D01*
X100450500Y-98508464D01*
X102734500Y-98508464D01*
X102734500Y-98591536D01*
X102751774Y-98656001D01*
X102756002Y-98671782D01*
X102756003Y-98671783D01*
X102795676Y-98740496D01*
X102797538Y-98743721D01*
X102856279Y-98802462D01*
X102872799Y-98812000D01*
X102928216Y-98843996D01*
X102928217Y-98843997D01*
X102928219Y-98843997D01*
X102928222Y-98843999D01*
X103008464Y-98865500D01*
X103008467Y-98865500D01*
X103091533Y-98865500D01*
X103091536Y-98865500D01*
X103171778Y-98843999D01*
X103171780Y-98843997D01*
X103171782Y-98843997D01*
X103171783Y-98843996D01*
X103181588Y-98838335D01*
X103243721Y-98802462D01*
X103302462Y-98743721D01*
X103343999Y-98671778D01*
X103362199Y-98603856D01*
X126349500Y-98603856D01*
X126349500Y-98696144D01*
X126365612Y-98756276D01*
X126373387Y-98785290D01*
X126373388Y-98785293D01*
X126419526Y-98865205D01*
X126419529Y-98865209D01*
X126419531Y-98865212D01*
X126484788Y-98930469D01*
X126484791Y-98930470D01*
X126484794Y-98930473D01*
X126564706Y-98976611D01*
X126564707Y-98976611D01*
X126564712Y-98976614D01*
X126653856Y-99000500D01*
X126653858Y-99000500D01*
X126746142Y-99000500D01*
X126746144Y-99000500D01*
X126835288Y-98976614D01*
X126915212Y-98930469D01*
X126937217Y-98908464D01*
X132784500Y-98908464D01*
X132784500Y-98991536D01*
X132790744Y-99014838D01*
X132806002Y-99071782D01*
X132806003Y-99071783D01*
X132838589Y-99128222D01*
X132847538Y-99143721D01*
X132906279Y-99202462D01*
X132942250Y-99223230D01*
X132978216Y-99243996D01*
X132978217Y-99243997D01*
X132978219Y-99243997D01*
X132978222Y-99243999D01*
X133058464Y-99265500D01*
X133058467Y-99265500D01*
X133141533Y-99265500D01*
X133141536Y-99265500D01*
X133221778Y-99243999D01*
X133221780Y-99243997D01*
X133221782Y-99243997D01*
X133221783Y-99243996D01*
X133293721Y-99202462D01*
X133352462Y-99143721D01*
X133393999Y-99071778D01*
X133415500Y-98991536D01*
X133415500Y-98908464D01*
X133393999Y-98828222D01*
X133393997Y-98828219D01*
X133393997Y-98828217D01*
X133393996Y-98828216D01*
X133373230Y-98792250D01*
X133352462Y-98756279D01*
X133293721Y-98697538D01*
X133290496Y-98695676D01*
X133221783Y-98656003D01*
X133221782Y-98656002D01*
X133215201Y-98654238D01*
X133141536Y-98634500D01*
X133058464Y-98634500D01*
X133002058Y-98649613D01*
X132978217Y-98656002D01*
X132978216Y-98656003D01*
X132906285Y-98697534D01*
X132906276Y-98697540D01*
X132847540Y-98756276D01*
X132847534Y-98756285D01*
X132806003Y-98828216D01*
X132806002Y-98828217D01*
X132797659Y-98859353D01*
X132784500Y-98908464D01*
X126937217Y-98908464D01*
X126980469Y-98865212D01*
X127026614Y-98785288D01*
X127050500Y-98696144D01*
X127050500Y-98603856D01*
X127026614Y-98514712D01*
X127023007Y-98508464D01*
X126980473Y-98434794D01*
X126980470Y-98434791D01*
X126980469Y-98434788D01*
X126915212Y-98369531D01*
X126915209Y-98369529D01*
X126915205Y-98369526D01*
X126835293Y-98323388D01*
X126835290Y-98323387D01*
X126835289Y-98323386D01*
X126835288Y-98323386D01*
X126746144Y-98299500D01*
X126653856Y-98299500D01*
X126564712Y-98323386D01*
X126564711Y-98323386D01*
X126564709Y-98323387D01*
X126564706Y-98323388D01*
X126484794Y-98369526D01*
X126484785Y-98369533D01*
X126419533Y-98434785D01*
X126419526Y-98434794D01*
X126373388Y-98514706D01*
X126373387Y-98514709D01*
X126373386Y-98514711D01*
X126373386Y-98514712D01*
X126349500Y-98603856D01*
X103362199Y-98603856D01*
X103365500Y-98591536D01*
X103365500Y-98508464D01*
X103343999Y-98428222D01*
X103343997Y-98428219D01*
X103343997Y-98428217D01*
X103343996Y-98428216D01*
X103302465Y-98356285D01*
X103302462Y-98356279D01*
X103243721Y-98297538D01*
X103240496Y-98295676D01*
X103171783Y-98256003D01*
X103171782Y-98256002D01*
X103165201Y-98254238D01*
X103091536Y-98234500D01*
X103008464Y-98234500D01*
X102952058Y-98249613D01*
X102928217Y-98256002D01*
X102928216Y-98256003D01*
X102856285Y-98297534D01*
X102856276Y-98297540D01*
X102797540Y-98356276D01*
X102797534Y-98356285D01*
X102756003Y-98428216D01*
X102756002Y-98428217D01*
X102754240Y-98434794D01*
X102734500Y-98508464D01*
X100450500Y-98508464D01*
X100450500Y-97103856D01*
X108549500Y-97103856D01*
X108549500Y-97196144D01*
X108569767Y-97271783D01*
X108573387Y-97285290D01*
X108573388Y-97285293D01*
X108619526Y-97365205D01*
X108619529Y-97365209D01*
X108619531Y-97365212D01*
X108684788Y-97430469D01*
X108684791Y-97430470D01*
X108684794Y-97430473D01*
X108764706Y-97476611D01*
X108764707Y-97476611D01*
X108764712Y-97476614D01*
X108853856Y-97500500D01*
X108853858Y-97500500D01*
X108946142Y-97500500D01*
X108946144Y-97500500D01*
X109035288Y-97476614D01*
X109115212Y-97430469D01*
X109180469Y-97365212D01*
X109226614Y-97285288D01*
X109250500Y-97196144D01*
X109250500Y-97103856D01*
X109226614Y-97014712D01*
X109226611Y-97014706D01*
X109180473Y-96934794D01*
X109180470Y-96934791D01*
X109180469Y-96934788D01*
X109115212Y-96869531D01*
X109086470Y-96852936D01*
X109035290Y-96823386D01*
X108975858Y-96807462D01*
X108946144Y-96799500D01*
X108853856Y-96799500D01*
X108764712Y-96823386D01*
X108764711Y-96823386D01*
X108764709Y-96823387D01*
X108764706Y-96823388D01*
X108684794Y-96869526D01*
X108684785Y-96869533D01*
X108619533Y-96934785D01*
X108619526Y-96934794D01*
X108573388Y-97014706D01*
X108573387Y-97014709D01*
X108573386Y-97014711D01*
X108573386Y-97014712D01*
X108549500Y-97103856D01*
X100450500Y-97103856D01*
X100450500Y-96758464D01*
X110934500Y-96758464D01*
X110934500Y-96841536D01*
X110950825Y-96902462D01*
X110956002Y-96921782D01*
X110956003Y-96921783D01*
X110975920Y-96956279D01*
X110997538Y-96993721D01*
X111056279Y-97052462D01*
X111077143Y-97064508D01*
X111128216Y-97093996D01*
X111128217Y-97093997D01*
X111128219Y-97093997D01*
X111128222Y-97093999D01*
X111208464Y-97115500D01*
X111208467Y-97115500D01*
X111268978Y-97115500D01*
X111336017Y-97135185D01*
X111381772Y-97187989D01*
X111388750Y-97207399D01*
X111404165Y-97264927D01*
X111406002Y-97271782D01*
X111406003Y-97271783D01*
X111439885Y-97330466D01*
X111447538Y-97343721D01*
X111506279Y-97402462D01*
X111542250Y-97423230D01*
X111578216Y-97443996D01*
X111578217Y-97443997D01*
X111578219Y-97443997D01*
X111578222Y-97443999D01*
X111658464Y-97465500D01*
X111658467Y-97465500D01*
X111741533Y-97465500D01*
X111741536Y-97465500D01*
X111821778Y-97443999D01*
X111821780Y-97443997D01*
X111821782Y-97443997D01*
X111821783Y-97443996D01*
X111845217Y-97430466D01*
X111893721Y-97402462D01*
X111952462Y-97343721D01*
X111993999Y-97271778D01*
X112015500Y-97191536D01*
X112015500Y-97108464D01*
X111993999Y-97028222D01*
X111979931Y-97003856D01*
X113149500Y-97003856D01*
X113149500Y-97096144D01*
X113162525Y-97144755D01*
X113173387Y-97185290D01*
X113173388Y-97185293D01*
X113219526Y-97265205D01*
X113219529Y-97265209D01*
X113219531Y-97265212D01*
X113284788Y-97330469D01*
X113284791Y-97330470D01*
X113284794Y-97330473D01*
X113364706Y-97376611D01*
X113364707Y-97376611D01*
X113364712Y-97376614D01*
X113453856Y-97400500D01*
X113453858Y-97400500D01*
X113546142Y-97400500D01*
X113546144Y-97400500D01*
X113635288Y-97376614D01*
X113715212Y-97330469D01*
X113780469Y-97265212D01*
X113826614Y-97185288D01*
X113837475Y-97144755D01*
X124035388Y-97144755D01*
X124035388Y-97227827D01*
X124045406Y-97265214D01*
X124056890Y-97308073D01*
X124056891Y-97308074D01*
X124069824Y-97330473D01*
X124098426Y-97380012D01*
X124157167Y-97438753D01*
X124193138Y-97459521D01*
X124229104Y-97480287D01*
X124229105Y-97480288D01*
X124229107Y-97480288D01*
X124229110Y-97480290D01*
X124309352Y-97501791D01*
X124309355Y-97501791D01*
X124392421Y-97501791D01*
X124392424Y-97501791D01*
X124472666Y-97480290D01*
X124472668Y-97480288D01*
X124472670Y-97480288D01*
X124472671Y-97480287D01*
X124479038Y-97476611D01*
X124544609Y-97438753D01*
X124603350Y-97380012D01*
X124644887Y-97308069D01*
X124666388Y-97227827D01*
X124666388Y-97144755D01*
X124644887Y-97064513D01*
X124644885Y-97064510D01*
X124644885Y-97064508D01*
X124644884Y-97064507D01*
X124609866Y-97003856D01*
X124603350Y-96992570D01*
X124544609Y-96933829D01*
X124523745Y-96921783D01*
X124472671Y-96892294D01*
X124472670Y-96892293D01*
X124460223Y-96888958D01*
X124392424Y-96870791D01*
X124309352Y-96870791D01*
X124252946Y-96885904D01*
X124229105Y-96892293D01*
X124229104Y-96892294D01*
X124157173Y-96933825D01*
X124157164Y-96933831D01*
X124098428Y-96992567D01*
X124098422Y-96992576D01*
X124056891Y-97064507D01*
X124056890Y-97064508D01*
X124056889Y-97064513D01*
X124035388Y-97144755D01*
X113837475Y-97144755D01*
X113850500Y-97096144D01*
X113850500Y-97003856D01*
X113826614Y-96914712D01*
X113826611Y-96914706D01*
X113780473Y-96834794D01*
X113780470Y-96834791D01*
X113780469Y-96834788D01*
X113715212Y-96769531D01*
X113715209Y-96769529D01*
X113715205Y-96769526D01*
X113635293Y-96723388D01*
X113635290Y-96723387D01*
X113635289Y-96723386D01*
X113635288Y-96723386D01*
X113546144Y-96699500D01*
X113453856Y-96699500D01*
X113364712Y-96723386D01*
X113364711Y-96723386D01*
X113364709Y-96723387D01*
X113364706Y-96723388D01*
X113284794Y-96769526D01*
X113284785Y-96769533D01*
X113219533Y-96834785D01*
X113219526Y-96834794D01*
X113173388Y-96914706D01*
X113173387Y-96914709D01*
X113173386Y-96914711D01*
X113173386Y-96914712D01*
X113149500Y-97003856D01*
X111979931Y-97003856D01*
X111952462Y-96956279D01*
X111894094Y-96897911D01*
X111887841Y-96888958D01*
X111880052Y-96865772D01*
X111868334Y-96844311D01*
X111866211Y-96824568D01*
X111865592Y-96822725D01*
X111865887Y-96821554D01*
X111865500Y-96817954D01*
X111865500Y-96303856D01*
X122649500Y-96303856D01*
X122649500Y-96396144D01*
X122668741Y-96467954D01*
X122673387Y-96485290D01*
X122673388Y-96485293D01*
X122719526Y-96565205D01*
X122719529Y-96565209D01*
X122719531Y-96565212D01*
X122784788Y-96630469D01*
X122784791Y-96630470D01*
X122784794Y-96630473D01*
X122864706Y-96676611D01*
X122864707Y-96676611D01*
X122864712Y-96676614D01*
X122953856Y-96700500D01*
X122953858Y-96700500D01*
X123046142Y-96700500D01*
X123046144Y-96700500D01*
X123135288Y-96676614D01*
X123215212Y-96630469D01*
X123237217Y-96608464D01*
X132834500Y-96608464D01*
X132834500Y-96691536D01*
X132852434Y-96758466D01*
X132856002Y-96771782D01*
X132856003Y-96771783D01*
X132886480Y-96824568D01*
X132897538Y-96843721D01*
X132956279Y-96902462D01*
X132989735Y-96921778D01*
X133028216Y-96943996D01*
X133028217Y-96943997D01*
X133028219Y-96943997D01*
X133028222Y-96943999D01*
X133108464Y-96965500D01*
X133108467Y-96965500D01*
X133191533Y-96965500D01*
X133191536Y-96965500D01*
X133271778Y-96943999D01*
X133271780Y-96943997D01*
X133271782Y-96943997D01*
X133271783Y-96943996D01*
X133287721Y-96934794D01*
X133343721Y-96902462D01*
X133402462Y-96843721D01*
X133443999Y-96771778D01*
X133465500Y-96691536D01*
X133465500Y-96608464D01*
X133443999Y-96528222D01*
X133443997Y-96528219D01*
X133443997Y-96528217D01*
X133443996Y-96528216D01*
X133423230Y-96492250D01*
X133402462Y-96456279D01*
X133343721Y-96397538D01*
X133340496Y-96395676D01*
X133271783Y-96356003D01*
X133271782Y-96356002D01*
X133265201Y-96354238D01*
X133191536Y-96334500D01*
X133108464Y-96334500D01*
X133052058Y-96349613D01*
X133028217Y-96356002D01*
X133028216Y-96356003D01*
X132956285Y-96397534D01*
X132956276Y-96397540D01*
X132897540Y-96456276D01*
X132897534Y-96456285D01*
X132856003Y-96528216D01*
X132856002Y-96528217D01*
X132853291Y-96538335D01*
X132834500Y-96608464D01*
X123237217Y-96608464D01*
X123280469Y-96565212D01*
X123326614Y-96485288D01*
X123350500Y-96396144D01*
X123350500Y-96303856D01*
X123326614Y-96214712D01*
X123326611Y-96214706D01*
X123280473Y-96134794D01*
X123280470Y-96134791D01*
X123280469Y-96134788D01*
X123215212Y-96069531D01*
X123215209Y-96069529D01*
X123215205Y-96069526D01*
X123135293Y-96023388D01*
X123135290Y-96023387D01*
X123135289Y-96023386D01*
X123135288Y-96023386D01*
X123046144Y-95999500D01*
X122953856Y-95999500D01*
X122864712Y-96023386D01*
X122864711Y-96023386D01*
X122864709Y-96023387D01*
X122864706Y-96023388D01*
X122784794Y-96069526D01*
X122784785Y-96069533D01*
X122719533Y-96134785D01*
X122719526Y-96134794D01*
X122673388Y-96214706D01*
X122673387Y-96214709D01*
X122673386Y-96214711D01*
X122673386Y-96214712D01*
X122649500Y-96303856D01*
X111865500Y-96303856D01*
X111865500Y-95091356D01*
X123099500Y-95091356D01*
X123099500Y-95183644D01*
X123122513Y-95269531D01*
X123123387Y-95272790D01*
X123123388Y-95272793D01*
X123169526Y-95352705D01*
X123169529Y-95352709D01*
X123169531Y-95352712D01*
X123234788Y-95417969D01*
X123234791Y-95417970D01*
X123234794Y-95417973D01*
X123314706Y-95464111D01*
X123314707Y-95464111D01*
X123314712Y-95464114D01*
X123403856Y-95488000D01*
X123403858Y-95488000D01*
X123496142Y-95488000D01*
X123496144Y-95488000D01*
X123585288Y-95464114D01*
X123665212Y-95417969D01*
X123685789Y-95397391D01*
X123706364Y-95376818D01*
X123767687Y-95343334D01*
X123794044Y-95340500D01*
X124813216Y-95340500D01*
X124860669Y-95349939D01*
X124864708Y-95351611D01*
X124864712Y-95351614D01*
X124953856Y-95375500D01*
X124953858Y-95375500D01*
X125046142Y-95375500D01*
X125046144Y-95375500D01*
X125135288Y-95351614D01*
X125215212Y-95305469D01*
X125218862Y-95301819D01*
X125280185Y-95268334D01*
X125306543Y-95265500D01*
X129272837Y-95265500D01*
X129272839Y-95265500D01*
X129361233Y-95228886D01*
X132381655Y-92208464D01*
X132934500Y-92208464D01*
X132934500Y-92291536D01*
X132954238Y-92365201D01*
X132956002Y-92371782D01*
X132956003Y-92371783D01*
X132995676Y-92440496D01*
X132997538Y-92443721D01*
X133056279Y-92502462D01*
X133092250Y-92523230D01*
X133128216Y-92543996D01*
X133128217Y-92543997D01*
X133128219Y-92543997D01*
X133128222Y-92543999D01*
X133208464Y-92565500D01*
X133208467Y-92565500D01*
X133291533Y-92565500D01*
X133291536Y-92565500D01*
X133371778Y-92543999D01*
X133371780Y-92543997D01*
X133371782Y-92543997D01*
X133371783Y-92543996D01*
X133388230Y-92534500D01*
X133443721Y-92502462D01*
X133502462Y-92443721D01*
X133543999Y-92371778D01*
X133565500Y-92291536D01*
X133565500Y-92208464D01*
X133543999Y-92128222D01*
X133543997Y-92128219D01*
X133543997Y-92128217D01*
X133543996Y-92128216D01*
X133502465Y-92056285D01*
X133502462Y-92056279D01*
X133443721Y-91997538D01*
X133431531Y-91990500D01*
X133371783Y-91956003D01*
X133371782Y-91956002D01*
X133365201Y-91954238D01*
X133291536Y-91934500D01*
X133208464Y-91934500D01*
X133152058Y-91949613D01*
X133128217Y-91956002D01*
X133128216Y-91956003D01*
X133056285Y-91997534D01*
X133056276Y-91997540D01*
X132997540Y-92056276D01*
X132997534Y-92056285D01*
X132956003Y-92128216D01*
X132956002Y-92128217D01*
X132956001Y-92128222D01*
X132934500Y-92208464D01*
X132381655Y-92208464D01*
X134453886Y-90136233D01*
X134490500Y-90047839D01*
X134490500Y-89952162D01*
X134490500Y-87056543D01*
X134510185Y-86989504D01*
X134526819Y-86968862D01*
X134530469Y-86965212D01*
X134576614Y-86885288D01*
X134600500Y-86796144D01*
X134600500Y-86703856D01*
X134576614Y-86614712D01*
X134576611Y-86614706D01*
X134530473Y-86534794D01*
X134530470Y-86534791D01*
X134530469Y-86534788D01*
X134465212Y-86469531D01*
X134465209Y-86469529D01*
X134465205Y-86469526D01*
X134385293Y-86423388D01*
X134385290Y-86423387D01*
X134385289Y-86423386D01*
X134385288Y-86423386D01*
X134296144Y-86399500D01*
X134203856Y-86399500D01*
X134114712Y-86423386D01*
X134114711Y-86423386D01*
X134114709Y-86423387D01*
X134114706Y-86423388D01*
X134034794Y-86469526D01*
X134034785Y-86469533D01*
X133969533Y-86534785D01*
X133969526Y-86534794D01*
X133923388Y-86614706D01*
X133923387Y-86614709D01*
X133923386Y-86614711D01*
X133923386Y-86614712D01*
X133899500Y-86703856D01*
X133899500Y-86796144D01*
X133919567Y-86871037D01*
X133923387Y-86885290D01*
X133923388Y-86885293D01*
X133969526Y-86965205D01*
X133969533Y-86965214D01*
X133973181Y-86968862D01*
X134006666Y-87030185D01*
X134009500Y-87056543D01*
X134009500Y-89849019D01*
X133989815Y-89916058D01*
X133973181Y-89936700D01*
X129161700Y-94748181D01*
X129100377Y-94781666D01*
X129074019Y-94784500D01*
X125306543Y-94784500D01*
X125239504Y-94764815D01*
X125218862Y-94748181D01*
X125215214Y-94744533D01*
X125215212Y-94744531D01*
X125215209Y-94744529D01*
X125215205Y-94744526D01*
X125135293Y-94698388D01*
X125135290Y-94698387D01*
X125135289Y-94698386D01*
X125135288Y-94698386D01*
X125046144Y-94674500D01*
X124953856Y-94674500D01*
X124864712Y-94698386D01*
X124864711Y-94698386D01*
X124864709Y-94698387D01*
X124864706Y-94698388D01*
X124784794Y-94744526D01*
X124784789Y-94744530D01*
X124719528Y-94809790D01*
X124718616Y-94810980D01*
X124717589Y-94811729D01*
X124713784Y-94815535D01*
X124713190Y-94814941D01*
X124662191Y-94852187D01*
X124620236Y-94859500D01*
X123702715Y-94859500D01*
X123640714Y-94842887D01*
X123585288Y-94810886D01*
X123581190Y-94809788D01*
X123496144Y-94787000D01*
X123403856Y-94787000D01*
X123314712Y-94810886D01*
X123314711Y-94810886D01*
X123314709Y-94810887D01*
X123314706Y-94810888D01*
X123234794Y-94857026D01*
X123234785Y-94857033D01*
X123169533Y-94922285D01*
X123169526Y-94922294D01*
X123123388Y-95002206D01*
X123123387Y-95002209D01*
X123123386Y-95002211D01*
X123123386Y-95002212D01*
X123099500Y-95091356D01*
X111865500Y-95091356D01*
X111865500Y-93658464D01*
X123634500Y-93658464D01*
X123634500Y-93741536D01*
X123648819Y-93794974D01*
X123656002Y-93821782D01*
X123656003Y-93821783D01*
X123695676Y-93890496D01*
X123697538Y-93893721D01*
X123756279Y-93952462D01*
X123792250Y-93973230D01*
X123828216Y-93993996D01*
X123828217Y-93993997D01*
X123828219Y-93993997D01*
X123828222Y-93993999D01*
X123908464Y-94015500D01*
X123908467Y-94015500D01*
X123991533Y-94015500D01*
X123991536Y-94015500D01*
X124071778Y-93993999D01*
X124071780Y-93993997D01*
X124071782Y-93993997D01*
X124071783Y-93993996D01*
X124143721Y-93952462D01*
X124202462Y-93893721D01*
X124243999Y-93821778D01*
X124265500Y-93741536D01*
X124265500Y-93658464D01*
X124243999Y-93578222D01*
X124243997Y-93578219D01*
X124243997Y-93578217D01*
X124243996Y-93578216D01*
X124202465Y-93506285D01*
X124202462Y-93506279D01*
X124143721Y-93447538D01*
X124140496Y-93445676D01*
X124071783Y-93406003D01*
X124071782Y-93406002D01*
X124065201Y-93404238D01*
X123991536Y-93384500D01*
X123908464Y-93384500D01*
X123852058Y-93399613D01*
X123828217Y-93406002D01*
X123828216Y-93406003D01*
X123756285Y-93447534D01*
X123756276Y-93447540D01*
X123697540Y-93506276D01*
X123697534Y-93506285D01*
X123656003Y-93578216D01*
X123656002Y-93578217D01*
X123656001Y-93578222D01*
X123634500Y-93658464D01*
X111865500Y-93658464D01*
X111865500Y-93119914D01*
X111885185Y-93052875D01*
X111901819Y-93032233D01*
X112125588Y-92808464D01*
X112834500Y-92808464D01*
X112834500Y-92891536D01*
X112842605Y-92921783D01*
X112856002Y-92971782D01*
X112856003Y-92971783D01*
X112890905Y-93032233D01*
X112897538Y-93043721D01*
X112956279Y-93102462D01*
X112978861Y-93115500D01*
X113028216Y-93143996D01*
X113028217Y-93143997D01*
X113028219Y-93143997D01*
X113028222Y-93143999D01*
X113108464Y-93165500D01*
X113108467Y-93165500D01*
X113191533Y-93165500D01*
X113191536Y-93165500D01*
X113271778Y-93143999D01*
X113271780Y-93143997D01*
X113271782Y-93143997D01*
X113271783Y-93143996D01*
X113343721Y-93102462D01*
X113402462Y-93043721D01*
X113443999Y-92971778D01*
X113465500Y-92891536D01*
X113465500Y-92808464D01*
X113452102Y-92758464D01*
X114934500Y-92758464D01*
X114934500Y-92841536D01*
X114947897Y-92891533D01*
X114956002Y-92921782D01*
X114956003Y-92921783D01*
X114963213Y-92934270D01*
X114997538Y-92993721D01*
X115056279Y-93052462D01*
X115084147Y-93068552D01*
X115128216Y-93093996D01*
X115128217Y-93093997D01*
X115128219Y-93093997D01*
X115128222Y-93093999D01*
X115208464Y-93115500D01*
X115208467Y-93115500D01*
X115291533Y-93115500D01*
X115291536Y-93115500D01*
X115371778Y-93093999D01*
X115371780Y-93093997D01*
X115371782Y-93093997D01*
X115371783Y-93093996D01*
X115443721Y-93052462D01*
X115502462Y-92993721D01*
X115543999Y-92921778D01*
X115562911Y-92851198D01*
X116875121Y-92851198D01*
X116875121Y-92934270D01*
X116885173Y-92971783D01*
X116896623Y-93014516D01*
X116896624Y-93014517D01*
X116928680Y-93070037D01*
X116938159Y-93086455D01*
X116996900Y-93145196D01*
X117004355Y-93149500D01*
X117068837Y-93186730D01*
X117068838Y-93186731D01*
X117068840Y-93186731D01*
X117068843Y-93186733D01*
X117149085Y-93208234D01*
X117149088Y-93208234D01*
X117232154Y-93208234D01*
X117232157Y-93208234D01*
X117312399Y-93186733D01*
X117312401Y-93186731D01*
X117312403Y-93186731D01*
X117312404Y-93186730D01*
X117384342Y-93145196D01*
X117443083Y-93086455D01*
X117484620Y-93014512D01*
X117506121Y-92934270D01*
X117506121Y-92851198D01*
X117484620Y-92770956D01*
X117484618Y-92770952D01*
X117484617Y-92770950D01*
X117477408Y-92758464D01*
X118934500Y-92758464D01*
X118934500Y-92841536D01*
X118947897Y-92891533D01*
X118956002Y-92921782D01*
X118956003Y-92921783D01*
X118963213Y-92934270D01*
X118997538Y-92993721D01*
X119056279Y-93052462D01*
X119084147Y-93068552D01*
X119128216Y-93093996D01*
X119128217Y-93093997D01*
X119128219Y-93093997D01*
X119128222Y-93093999D01*
X119208464Y-93115500D01*
X119208467Y-93115500D01*
X119291533Y-93115500D01*
X119291536Y-93115500D01*
X119371778Y-93093999D01*
X119371780Y-93093997D01*
X119371782Y-93093997D01*
X119371783Y-93093996D01*
X119443721Y-93052462D01*
X119502462Y-92993721D01*
X119543999Y-92921778D01*
X119565500Y-92841536D01*
X119565500Y-92758464D01*
X119543999Y-92678222D01*
X119543997Y-92678219D01*
X119543997Y-92678217D01*
X119543996Y-92678216D01*
X119511413Y-92621782D01*
X119502462Y-92606279D01*
X119443721Y-92547538D01*
X119437586Y-92543996D01*
X119371783Y-92506003D01*
X119371782Y-92506002D01*
X119365201Y-92504238D01*
X119291536Y-92484500D01*
X119208464Y-92484500D01*
X119152058Y-92499613D01*
X119128217Y-92506002D01*
X119128216Y-92506003D01*
X119056285Y-92547534D01*
X119056276Y-92547540D01*
X118997540Y-92606276D01*
X118997534Y-92606285D01*
X118956003Y-92678216D01*
X118956002Y-92678217D01*
X118956001Y-92678222D01*
X118934500Y-92758464D01*
X117477408Y-92758464D01*
X117443086Y-92699019D01*
X117443083Y-92699013D01*
X117384342Y-92640272D01*
X117352319Y-92621783D01*
X117312404Y-92598737D01*
X117312403Y-92598736D01*
X117305822Y-92596972D01*
X117232157Y-92577234D01*
X117149085Y-92577234D01*
X117092679Y-92592347D01*
X117068838Y-92598736D01*
X117068837Y-92598737D01*
X116996906Y-92640268D01*
X116996897Y-92640274D01*
X116938161Y-92699010D01*
X116938155Y-92699019D01*
X116896624Y-92770950D01*
X116896623Y-92770951D01*
X116888280Y-92802087D01*
X116875121Y-92851198D01*
X115562911Y-92851198D01*
X115565500Y-92841536D01*
X115565500Y-92758464D01*
X115543999Y-92678222D01*
X115543997Y-92678219D01*
X115543997Y-92678217D01*
X115543996Y-92678216D01*
X115511413Y-92621782D01*
X115502462Y-92606279D01*
X115443721Y-92547538D01*
X115437586Y-92543996D01*
X115371783Y-92506003D01*
X115371782Y-92506002D01*
X115365201Y-92504238D01*
X115291536Y-92484500D01*
X115208464Y-92484500D01*
X115152058Y-92499613D01*
X115128217Y-92506002D01*
X115128216Y-92506003D01*
X115056285Y-92547534D01*
X115056276Y-92547540D01*
X114997540Y-92606276D01*
X114997534Y-92606285D01*
X114956003Y-92678216D01*
X114956002Y-92678217D01*
X114956001Y-92678222D01*
X114934500Y-92758464D01*
X113452102Y-92758464D01*
X113443999Y-92728222D01*
X113443997Y-92728219D01*
X113443997Y-92728217D01*
X113443996Y-92728216D01*
X113415128Y-92678217D01*
X113402462Y-92656279D01*
X113343721Y-92597538D01*
X113340496Y-92595676D01*
X113271783Y-92556003D01*
X113271782Y-92556002D01*
X113265201Y-92554238D01*
X113191536Y-92534500D01*
X113108464Y-92534500D01*
X113059821Y-92547534D01*
X113028217Y-92556002D01*
X113028216Y-92556003D01*
X112956285Y-92597534D01*
X112956276Y-92597540D01*
X112897540Y-92656276D01*
X112897534Y-92656285D01*
X112856003Y-92728216D01*
X112856002Y-92728217D01*
X112856001Y-92728222D01*
X112834500Y-92808464D01*
X112125588Y-92808464D01*
X117675588Y-87258464D01*
X119934500Y-87258464D01*
X119934500Y-87341536D01*
X119946224Y-87385290D01*
X119956002Y-87421782D01*
X119956003Y-87421783D01*
X119977182Y-87458464D01*
X119997538Y-87493721D01*
X120056279Y-87552462D01*
X120073475Y-87562390D01*
X120128216Y-87593996D01*
X120128217Y-87593997D01*
X120128219Y-87593997D01*
X120128222Y-87593999D01*
X120208464Y-87615500D01*
X120208467Y-87615500D01*
X120291533Y-87615500D01*
X120291536Y-87615500D01*
X120371778Y-87593999D01*
X120371780Y-87593997D01*
X120371782Y-87593997D01*
X120371783Y-87593996D01*
X120443721Y-87552462D01*
X120502462Y-87493721D01*
X120543999Y-87421778D01*
X120565500Y-87341536D01*
X120565500Y-87258464D01*
X120543999Y-87178222D01*
X120543997Y-87178219D01*
X120543997Y-87178217D01*
X120543996Y-87178216D01*
X120502465Y-87106285D01*
X120502462Y-87106279D01*
X120443721Y-87047538D01*
X120440496Y-87045676D01*
X120371783Y-87006003D01*
X120371782Y-87006002D01*
X120365201Y-87004238D01*
X120291536Y-86984500D01*
X120208464Y-86984500D01*
X120152058Y-86999613D01*
X120128217Y-87006002D01*
X120128216Y-87006003D01*
X120056285Y-87047534D01*
X120056276Y-87047540D01*
X119997540Y-87106276D01*
X119997534Y-87106285D01*
X119956003Y-87178216D01*
X119956002Y-87178217D01*
X119949132Y-87203856D01*
X119934500Y-87258464D01*
X117675588Y-87258464D01*
X117771396Y-87162656D01*
X118736518Y-86197534D01*
X119740304Y-85193748D01*
X119740304Y-85193746D01*
X119741359Y-85192692D01*
X119754894Y-85176198D01*
X120338043Y-84593050D01*
X120399365Y-84559566D01*
X120469057Y-84564550D01*
X120524990Y-84606422D01*
X120533109Y-84618730D01*
X120547538Y-84643721D01*
X120606279Y-84702462D01*
X120642250Y-84723230D01*
X120678216Y-84743996D01*
X120678217Y-84743997D01*
X120678219Y-84743997D01*
X120678222Y-84743999D01*
X120758464Y-84765500D01*
X120758467Y-84765500D01*
X120841533Y-84765500D01*
X120841536Y-84765500D01*
X120921778Y-84743999D01*
X120921780Y-84743997D01*
X120921782Y-84743997D01*
X120921783Y-84743996D01*
X120993721Y-84702462D01*
X121052462Y-84643721D01*
X121093999Y-84571778D01*
X121115500Y-84491536D01*
X121115500Y-84408464D01*
X121093999Y-84328222D01*
X121093997Y-84328219D01*
X121093997Y-84328217D01*
X121093996Y-84328216D01*
X121052465Y-84256285D01*
X121052462Y-84256279D01*
X120993721Y-84197538D01*
X120968730Y-84183109D01*
X120920516Y-84132541D01*
X120907294Y-84063934D01*
X120933263Y-83999070D01*
X120943043Y-83988050D01*
X121029738Y-83901355D01*
X121704500Y-83901355D01*
X121704500Y-85068787D01*
X121705472Y-85082378D01*
X121710494Y-85117312D01*
X121710497Y-85117321D01*
X121719590Y-85141701D01*
X121719592Y-85141707D01*
X121723415Y-85151955D01*
X121724366Y-85155504D01*
X121733907Y-85178539D01*
X121749498Y-85205542D01*
X121751746Y-85210341D01*
X121752341Y-85214216D01*
X121759232Y-85230850D01*
X121765775Y-85255268D01*
X121770000Y-85287363D01*
X121770000Y-85312635D01*
X121765775Y-85344730D01*
X121759232Y-85369148D01*
X121746844Y-85399053D01*
X121733914Y-85421447D01*
X121733907Y-85421461D01*
X121724368Y-85444489D01*
X121707754Y-85506493D01*
X121707753Y-85506496D01*
X121704500Y-85531211D01*
X121704500Y-85652036D01*
X121704500Y-86621036D01*
X121704500Y-87491036D01*
X121704500Y-89181036D01*
X121704500Y-89334954D01*
X121705472Y-89348545D01*
X121710495Y-89383480D01*
X121710496Y-89383483D01*
X121710497Y-89383487D01*
X121710961Y-89384730D01*
X121714424Y-89394015D01*
X121715904Y-89401408D01*
X121722114Y-89414632D01*
X121723892Y-89419398D01*
X121724683Y-89421520D01*
X121727299Y-89426746D01*
X121730637Y-89432783D01*
X121735325Y-89442764D01*
X121749921Y-89460792D01*
X121762457Y-89480298D01*
X121773369Y-89489753D01*
X121779286Y-89497060D01*
X121779287Y-89497060D01*
X121779289Y-89497063D01*
X121799229Y-89515544D01*
X121925036Y-89602465D01*
X122458493Y-89971036D01*
X122524492Y-90016634D01*
X122554019Y-90037035D01*
X124463900Y-91356590D01*
X124464790Y-91357193D01*
X124465244Y-91357502D01*
X124466395Y-91358268D01*
X124468690Y-91359797D01*
X124490050Y-91369764D01*
X124494726Y-91371946D01*
X124494733Y-91371949D01*
X124537615Y-91384539D01*
X124561765Y-91391631D01*
X124588671Y-91395500D01*
X125281966Y-91395500D01*
X125349005Y-91415185D01*
X125394760Y-91467989D01*
X125404704Y-91537147D01*
X125396527Y-91566953D01*
X125396001Y-91568220D01*
X125396001Y-91568222D01*
X125374500Y-91648464D01*
X125374500Y-91731536D01*
X125384912Y-91770392D01*
X125396002Y-91811782D01*
X125396003Y-91811783D01*
X125428879Y-91868723D01*
X125437538Y-91883721D01*
X125496279Y-91942462D01*
X125532250Y-91963230D01*
X125568216Y-91983996D01*
X125568217Y-91983997D01*
X125568219Y-91983997D01*
X125568222Y-91983999D01*
X125648464Y-92005500D01*
X125648467Y-92005500D01*
X125731533Y-92005500D01*
X125731536Y-92005500D01*
X125811778Y-91983999D01*
X125811780Y-91983997D01*
X125811782Y-91983997D01*
X125811783Y-91983996D01*
X125837758Y-91968999D01*
X125883721Y-91942462D01*
X125893088Y-91933094D01*
X125954408Y-91899609D01*
X126024100Y-91904591D01*
X126054975Y-91924339D01*
X126056375Y-91922515D01*
X126062814Y-91927455D01*
X126062821Y-91927462D01*
X126089056Y-91942609D01*
X126134758Y-91968996D01*
X126134759Y-91968997D01*
X126134761Y-91968997D01*
X126134764Y-91968999D01*
X126215006Y-91990500D01*
X126215009Y-91990500D01*
X126298075Y-91990500D01*
X126298078Y-91990500D01*
X126378320Y-91968999D01*
X126378322Y-91968997D01*
X126378324Y-91968997D01*
X126378325Y-91968996D01*
X126450263Y-91927462D01*
X126509004Y-91868721D01*
X126550541Y-91796778D01*
X126572042Y-91716536D01*
X126572042Y-91633464D01*
X126550541Y-91553222D01*
X126550539Y-91553219D01*
X126550104Y-91551594D01*
X126551767Y-91481744D01*
X126590929Y-91423881D01*
X126655157Y-91396377D01*
X126669879Y-91395500D01*
X129899986Y-91395500D01*
X129967025Y-91415185D01*
X130012780Y-91467989D01*
X130022724Y-91537147D01*
X130019764Y-91551577D01*
X130004894Y-91607074D01*
X130004894Y-91690146D01*
X130015984Y-91731533D01*
X130026396Y-91770392D01*
X130026397Y-91770393D01*
X130066070Y-91839106D01*
X130067932Y-91842331D01*
X130126673Y-91901072D01*
X130162644Y-91921840D01*
X130198610Y-91942606D01*
X130198611Y-91942607D01*
X130198613Y-91942607D01*
X130198616Y-91942609D01*
X130278858Y-91964110D01*
X130278861Y-91964110D01*
X130361927Y-91964110D01*
X130361930Y-91964110D01*
X130442172Y-91942609D01*
X130442174Y-91942607D01*
X130442176Y-91942607D01*
X130442177Y-91942606D01*
X130442421Y-91942465D01*
X130514115Y-91901072D01*
X130572856Y-91842331D01*
X130614393Y-91770388D01*
X130635894Y-91690146D01*
X130635894Y-91607074D01*
X130614393Y-91526832D01*
X130601033Y-91503692D01*
X130594362Y-91476200D01*
X130584674Y-91449632D01*
X130586235Y-91442700D01*
X130584559Y-91435792D01*
X130593810Y-91409060D01*
X130600024Y-91381470D01*
X130605687Y-91374742D01*
X130607411Y-91369764D01*
X130621381Y-91353371D01*
X130630093Y-91344784D01*
X130633727Y-91342629D01*
X130649824Y-91325340D01*
X130651714Y-91323478D01*
X130680239Y-91308171D01*
X130708086Y-91291649D01*
X130710996Y-91291666D01*
X130713280Y-91290441D01*
X130730266Y-91291780D01*
X130770846Y-91292022D01*
X130778220Y-91293997D01*
X130778222Y-91293999D01*
X130858464Y-91315500D01*
X130858467Y-91315500D01*
X130941533Y-91315500D01*
X130941536Y-91315500D01*
X131021778Y-91293999D01*
X131021780Y-91293997D01*
X131021782Y-91293997D01*
X131021783Y-91293996D01*
X131025848Y-91291649D01*
X131093721Y-91252462D01*
X131152462Y-91193721D01*
X131152462Y-91193720D01*
X131158209Y-91187974D01*
X131160659Y-91190424D01*
X131204129Y-91158626D01*
X131273872Y-91154411D01*
X131289988Y-91159277D01*
X131296150Y-91161605D01*
X131322978Y-91163638D01*
X131349802Y-91165672D01*
X131349803Y-91165671D01*
X131349806Y-91165672D01*
X131418141Y-91151111D01*
X131443650Y-91141720D01*
X132780376Y-90419166D01*
X132799892Y-90405187D01*
X132845243Y-90363142D01*
X132871946Y-90320015D01*
X132891631Y-90252976D01*
X132895500Y-90226070D01*
X132895500Y-87177046D01*
X132893317Y-87156745D01*
X132882111Y-87105234D01*
X132882110Y-87105232D01*
X132882110Y-87105231D01*
X132871436Y-87083908D01*
X132859029Y-87015149D01*
X132885766Y-86950597D01*
X132894632Y-86940727D01*
X132904093Y-86931267D01*
X132945630Y-86859324D01*
X132967131Y-86779082D01*
X132967131Y-86696010D01*
X132945630Y-86615768D01*
X132945628Y-86615765D01*
X132945628Y-86615763D01*
X132945627Y-86615762D01*
X132920232Y-86571778D01*
X132904093Y-86543825D01*
X132895301Y-86535033D01*
X132861816Y-86473710D01*
X132866800Y-86404018D01*
X132870188Y-86395839D01*
X132871940Y-86391998D01*
X132871946Y-86391991D01*
X132891631Y-86324952D01*
X132895500Y-86298046D01*
X132895500Y-84701362D01*
X132894953Y-84691153D01*
X132892119Y-84664795D01*
X132880984Y-84629236D01*
X132847499Y-84567913D01*
X132841251Y-84559566D01*
X132831215Y-84546158D01*
X132831212Y-84546155D01*
X132831210Y-84546152D01*
X132603301Y-84318243D01*
X132569816Y-84256920D01*
X132574800Y-84187228D01*
X132603300Y-84142882D01*
X132652462Y-84093721D01*
X132693999Y-84021778D01*
X132715500Y-83941536D01*
X132715500Y-83858464D01*
X132693999Y-83778222D01*
X132693997Y-83778219D01*
X132693997Y-83778217D01*
X132693996Y-83778216D01*
X132663385Y-83725198D01*
X132652462Y-83706279D01*
X132593721Y-83647538D01*
X132587098Y-83643714D01*
X132521783Y-83606003D01*
X132521782Y-83606002D01*
X132515201Y-83604238D01*
X132441536Y-83584500D01*
X132358464Y-83584500D01*
X132302058Y-83599613D01*
X132278217Y-83606002D01*
X132278216Y-83606003D01*
X132206285Y-83647534D01*
X132206275Y-83647541D01*
X132157117Y-83696699D01*
X132095794Y-83730183D01*
X132026102Y-83725198D01*
X131981756Y-83696698D01*
X130753866Y-82468807D01*
X130753833Y-82468776D01*
X130746249Y-82461964D01*
X130746232Y-82461950D01*
X130725603Y-82445326D01*
X130725601Y-82445325D01*
X130692579Y-82428052D01*
X130625544Y-82408369D01*
X130625535Y-82408367D01*
X130598643Y-82404500D01*
X130598638Y-82404500D01*
X123201362Y-82404500D01*
X123198069Y-82404676D01*
X123191157Y-82405046D01*
X123191139Y-82405048D01*
X123164800Y-82407880D01*
X123164791Y-82407882D01*
X123129239Y-82419014D01*
X123129238Y-82419014D01*
X123067912Y-82452501D01*
X123067907Y-82452504D01*
X123046155Y-82468787D01*
X123046141Y-82468799D01*
X122878279Y-82636660D01*
X122878251Y-82636689D01*
X122874103Y-82640838D01*
X122870208Y-82644973D01*
X122863211Y-82652856D01*
X122863162Y-82652909D01*
X122860429Y-82655989D01*
X122860421Y-82656000D01*
X122858035Y-82659862D01*
X122851823Y-82668980D01*
X122844040Y-82679377D01*
X122844037Y-82679381D01*
X122827171Y-82716310D01*
X122827169Y-82716316D01*
X122825750Y-82722833D01*
X122825751Y-82722834D01*
X122823686Y-82732323D01*
X122823550Y-82732952D01*
X122817223Y-82748760D01*
X122814960Y-82772437D01*
X122813392Y-82779650D01*
X122813392Y-82779653D01*
X122812319Y-82784585D01*
X122812318Y-82784592D01*
X122812953Y-82793463D01*
X122812108Y-82802322D01*
X122814101Y-82812664D01*
X122814323Y-82812620D01*
X122814986Y-82821886D01*
X122814987Y-82821892D01*
X122816158Y-82838261D01*
X122818492Y-82844519D01*
X122818491Y-82844519D01*
X122822109Y-82854221D01*
X122825331Y-82870932D01*
X122836223Y-82892060D01*
X122838804Y-82898980D01*
X122838808Y-82898988D01*
X122840573Y-82903720D01*
X122840574Y-82903722D01*
X122840575Y-82903724D01*
X122845911Y-82910852D01*
X122849990Y-82918764D01*
X122857258Y-82926386D01*
X122857422Y-82926229D01*
X122862993Y-82933671D01*
X122862993Y-82933672D01*
X122862994Y-82933673D01*
X122872818Y-82946797D01*
X122872819Y-82946798D01*
X122872821Y-82946800D01*
X122878163Y-82950799D01*
X122893591Y-82964492D01*
X122898200Y-82969325D01*
X122898204Y-82969329D01*
X122919569Y-82986131D01*
X122970946Y-83015794D01*
X122996623Y-83035498D01*
X123014498Y-83053373D01*
X123034201Y-83079048D01*
X123046843Y-83100944D01*
X123059232Y-83130850D01*
X123065775Y-83155268D01*
X123070000Y-83187363D01*
X123070000Y-83212635D01*
X123065774Y-83244732D01*
X123059231Y-83269148D01*
X123046844Y-83299051D01*
X123034204Y-83320944D01*
X123014500Y-83346622D01*
X123014498Y-83346625D01*
X122996623Y-83364500D01*
X122970943Y-83384205D01*
X122949054Y-83396843D01*
X122919149Y-83409231D01*
X122894732Y-83415774D01*
X122862637Y-83420000D01*
X122837361Y-83420000D01*
X122805263Y-83415773D01*
X122801083Y-83414653D01*
X122780848Y-83409230D01*
X122750947Y-83396844D01*
X122729054Y-83384204D01*
X122703373Y-83364498D01*
X122685497Y-83346622D01*
X122665791Y-83320940D01*
X122636140Y-83269583D01*
X122633147Y-83264738D01*
X122625027Y-83252428D01*
X122602536Y-83228556D01*
X122546611Y-83186691D01*
X122546608Y-83186689D01*
X122546606Y-83186688D01*
X122496186Y-83167882D01*
X122478763Y-83166636D01*
X122426497Y-83162898D01*
X122426491Y-83162898D01*
X122373916Y-83174335D01*
X122312591Y-83207820D01*
X122290839Y-83224103D01*
X122290828Y-83224112D01*
X121768794Y-83746146D01*
X121768771Y-83746171D01*
X121761949Y-83753767D01*
X121761939Y-83753778D01*
X121745322Y-83774400D01*
X121728056Y-83807411D01*
X121728051Y-83807422D01*
X121708369Y-83874454D01*
X121708367Y-83874463D01*
X121704500Y-83901355D01*
X121029738Y-83901355D01*
X122722630Y-82208464D01*
X132534500Y-82208464D01*
X132534500Y-82291536D01*
X132535735Y-82296144D01*
X132556002Y-82371782D01*
X132556003Y-82371783D01*
X132595676Y-82440496D01*
X132597538Y-82443721D01*
X132656279Y-82502462D01*
X132692250Y-82523230D01*
X132728216Y-82543996D01*
X132728217Y-82543997D01*
X132728219Y-82543997D01*
X132728222Y-82543999D01*
X132808464Y-82565500D01*
X132808467Y-82565500D01*
X132891533Y-82565500D01*
X132891536Y-82565500D01*
X132971778Y-82543999D01*
X132971780Y-82543997D01*
X132971782Y-82543997D01*
X132971783Y-82543996D01*
X132995217Y-82530466D01*
X133043721Y-82502462D01*
X133102462Y-82443721D01*
X133143999Y-82371778D01*
X133165500Y-82291536D01*
X133165500Y-82208464D01*
X133143999Y-82128222D01*
X133143997Y-82128219D01*
X133143997Y-82128217D01*
X133143996Y-82128216D01*
X133102465Y-82056285D01*
X133102462Y-82056279D01*
X133043721Y-81997538D01*
X133037098Y-81993714D01*
X132971783Y-81956003D01*
X132971782Y-81956002D01*
X132965201Y-81954238D01*
X132891536Y-81934500D01*
X132808464Y-81934500D01*
X132752058Y-81949613D01*
X132728217Y-81956002D01*
X132728216Y-81956003D01*
X132656285Y-81997534D01*
X132656276Y-81997540D01*
X132597540Y-82056276D01*
X132597534Y-82056285D01*
X132556003Y-82128216D01*
X132556002Y-82128217D01*
X132556001Y-82128222D01*
X132534500Y-82208464D01*
X122722630Y-82208464D01*
X123172630Y-81758464D01*
X131034500Y-81758464D01*
X131034500Y-81841536D01*
X131054238Y-81915201D01*
X131056002Y-81921782D01*
X131056003Y-81921783D01*
X131083573Y-81969533D01*
X131097538Y-81993721D01*
X131156279Y-82052462D01*
X131162901Y-82056285D01*
X131228216Y-82093996D01*
X131228217Y-82093997D01*
X131228219Y-82093997D01*
X131228222Y-82093999D01*
X131308464Y-82115500D01*
X131308467Y-82115500D01*
X131391533Y-82115500D01*
X131391536Y-82115500D01*
X131471778Y-82093999D01*
X131472316Y-82093688D01*
X131473596Y-82092950D01*
X131473597Y-82092949D01*
X131543714Y-82052466D01*
X131543713Y-82052466D01*
X131543721Y-82052462D01*
X131602462Y-81993721D01*
X131643999Y-81921778D01*
X131665500Y-81841536D01*
X131665500Y-81758464D01*
X131643999Y-81678222D01*
X131643997Y-81678219D01*
X131643997Y-81678217D01*
X131643996Y-81678216D01*
X131602465Y-81606285D01*
X131602462Y-81606279D01*
X131543721Y-81547538D01*
X131540496Y-81545676D01*
X131471783Y-81506003D01*
X131471782Y-81506002D01*
X131465201Y-81504238D01*
X131391536Y-81484500D01*
X131308464Y-81484500D01*
X131252058Y-81499613D01*
X131228217Y-81506002D01*
X131228216Y-81506003D01*
X131156285Y-81547534D01*
X131156276Y-81547540D01*
X131097540Y-81606276D01*
X131097534Y-81606285D01*
X131056003Y-81678216D01*
X131056002Y-81678217D01*
X131056001Y-81678222D01*
X131034500Y-81758464D01*
X123172630Y-81758464D01*
X123785815Y-81145279D01*
X123847138Y-81111794D01*
X123873496Y-81108960D01*
X124648638Y-81108960D01*
X124715677Y-81128645D01*
X124736318Y-81145278D01*
X124782574Y-81191533D01*
X124786963Y-81195922D01*
X124820873Y-81215500D01*
X124858900Y-81237456D01*
X124858901Y-81237457D01*
X124858903Y-81237457D01*
X124858906Y-81237459D01*
X124939148Y-81258960D01*
X124939151Y-81258960D01*
X125022217Y-81258960D01*
X125022220Y-81258960D01*
X125102462Y-81237459D01*
X125102464Y-81237457D01*
X125102466Y-81237457D01*
X125102467Y-81237456D01*
X125174405Y-81195922D01*
X125233146Y-81137181D01*
X125274683Y-81065238D01*
X125296184Y-80984996D01*
X125296184Y-80901924D01*
X125287592Y-80869858D01*
X125289255Y-80800009D01*
X125328418Y-80742147D01*
X125345361Y-80730382D01*
X125393721Y-80702462D01*
X125452462Y-80643721D01*
X125493999Y-80571778D01*
X125515500Y-80491536D01*
X125515500Y-80408464D01*
X125493999Y-80328222D01*
X125493997Y-80328219D01*
X125493997Y-80328217D01*
X125493996Y-80328216D01*
X125467119Y-80281666D01*
X125452462Y-80256279D01*
X125393721Y-80197538D01*
X125372457Y-80185261D01*
X125321783Y-80156003D01*
X125321782Y-80156002D01*
X125315201Y-80154238D01*
X125241536Y-80134500D01*
X125158464Y-80134500D01*
X125102058Y-80149613D01*
X125078217Y-80156002D01*
X125078216Y-80156003D01*
X125006285Y-80197534D01*
X125006275Y-80197541D01*
X124955634Y-80248182D01*
X124894311Y-80281666D01*
X124867954Y-80284500D01*
X123870037Y-80284500D01*
X123809208Y-80309697D01*
X120811957Y-83306948D01*
X120750634Y-83340433D01*
X120680942Y-83335449D01*
X120625009Y-83293577D01*
X120616894Y-83281275D01*
X120602462Y-83256279D01*
X120543721Y-83197538D01*
X120503535Y-83174336D01*
X120471783Y-83156003D01*
X120471782Y-83156002D01*
X120465201Y-83154238D01*
X120391536Y-83134500D01*
X120308464Y-83134500D01*
X120252058Y-83149613D01*
X120228217Y-83156002D01*
X120228216Y-83156003D01*
X120156285Y-83197534D01*
X120156276Y-83197540D01*
X120097540Y-83256276D01*
X120097534Y-83256285D01*
X120056003Y-83328216D01*
X120056002Y-83328217D01*
X120052729Y-83340433D01*
X120034500Y-83408464D01*
X120034500Y-83491536D01*
X120054238Y-83565201D01*
X120056002Y-83571782D01*
X120056003Y-83571783D01*
X120075761Y-83606003D01*
X120097538Y-83643721D01*
X120156279Y-83702462D01*
X120181269Y-83716890D01*
X120229483Y-83767456D01*
X120242705Y-83836064D01*
X120216737Y-83900928D01*
X120206948Y-83911957D01*
X111156252Y-92962654D01*
X111109697Y-93009208D01*
X111084500Y-93070037D01*
X111084500Y-96467954D01*
X111064815Y-96534993D01*
X111048182Y-96555634D01*
X110997541Y-96606275D01*
X110997534Y-96606285D01*
X110956003Y-96678216D01*
X110956002Y-96678217D01*
X110947659Y-96709353D01*
X110934500Y-96758464D01*
X100450500Y-96758464D01*
X100450500Y-95258464D01*
X103734500Y-95258464D01*
X103734500Y-95341536D01*
X103743601Y-95375500D01*
X103756002Y-95421782D01*
X103756003Y-95421783D01*
X103762899Y-95433726D01*
X103797538Y-95493721D01*
X103856279Y-95552462D01*
X103892250Y-95573230D01*
X103928216Y-95593996D01*
X103928217Y-95593997D01*
X103928219Y-95593997D01*
X103928222Y-95593999D01*
X104008464Y-95615500D01*
X104008467Y-95615500D01*
X104091533Y-95615500D01*
X104091536Y-95615500D01*
X104171778Y-95593999D01*
X104171780Y-95593997D01*
X104171782Y-95593997D01*
X104171783Y-95593996D01*
X104243721Y-95552462D01*
X104292327Y-95503856D01*
X108299500Y-95503856D01*
X108299500Y-95596144D01*
X108304686Y-95615500D01*
X108323387Y-95685290D01*
X108323388Y-95685293D01*
X108369526Y-95765205D01*
X108369529Y-95765209D01*
X108369531Y-95765212D01*
X108434788Y-95830469D01*
X108434791Y-95830470D01*
X108434794Y-95830473D01*
X108514706Y-95876611D01*
X108514707Y-95876611D01*
X108514712Y-95876614D01*
X108603856Y-95900500D01*
X108603858Y-95900500D01*
X108696142Y-95900500D01*
X108696144Y-95900500D01*
X108785288Y-95876614D01*
X108865212Y-95830469D01*
X108930469Y-95765212D01*
X108976614Y-95685288D01*
X109000500Y-95596144D01*
X109000500Y-95503856D01*
X108976614Y-95414712D01*
X108976611Y-95414706D01*
X108930473Y-95334794D01*
X108930470Y-95334791D01*
X108930469Y-95334788D01*
X108865212Y-95269531D01*
X108865209Y-95269529D01*
X108865205Y-95269526D01*
X108785293Y-95223388D01*
X108785290Y-95223387D01*
X108785289Y-95223386D01*
X108785288Y-95223386D01*
X108696144Y-95199500D01*
X108603856Y-95199500D01*
X108514712Y-95223386D01*
X108514711Y-95223386D01*
X108514709Y-95223387D01*
X108514706Y-95223388D01*
X108434794Y-95269526D01*
X108434785Y-95269533D01*
X108369533Y-95334785D01*
X108369526Y-95334794D01*
X108323388Y-95414706D01*
X108323387Y-95414709D01*
X108323386Y-95414711D01*
X108323386Y-95414712D01*
X108299500Y-95503856D01*
X104292327Y-95503856D01*
X104302462Y-95493721D01*
X104343999Y-95421778D01*
X104365500Y-95341536D01*
X104365500Y-95258464D01*
X104343999Y-95178222D01*
X104343997Y-95178219D01*
X104343997Y-95178217D01*
X104343996Y-95178216D01*
X104302465Y-95106285D01*
X104302462Y-95106279D01*
X104243721Y-95047538D01*
X104237586Y-95043996D01*
X104171783Y-95006003D01*
X104171782Y-95006002D01*
X104165201Y-95004238D01*
X104091536Y-94984500D01*
X104008464Y-94984500D01*
X103952058Y-94999613D01*
X103928217Y-95006002D01*
X103928216Y-95006003D01*
X103856285Y-95047534D01*
X103856276Y-95047540D01*
X103797540Y-95106276D01*
X103797534Y-95106285D01*
X103756003Y-95178216D01*
X103756002Y-95178217D01*
X103747659Y-95209353D01*
X103734500Y-95258464D01*
X100450500Y-95258464D01*
X100450500Y-94708464D01*
X107884500Y-94708464D01*
X107884500Y-94791536D01*
X107890931Y-94815535D01*
X107906002Y-94871782D01*
X107906003Y-94871783D01*
X107935163Y-94922288D01*
X107947538Y-94943721D01*
X108006279Y-95002462D01*
X108042250Y-95023230D01*
X108078216Y-95043996D01*
X108078217Y-95043997D01*
X108078219Y-95043997D01*
X108078222Y-95043999D01*
X108158464Y-95065500D01*
X108158467Y-95065500D01*
X108241533Y-95065500D01*
X108241536Y-95065500D01*
X108321778Y-95043999D01*
X108321780Y-95043997D01*
X108321782Y-95043997D01*
X108321783Y-95043996D01*
X108393721Y-95002462D01*
X108452462Y-94943721D01*
X108493999Y-94871778D01*
X108515500Y-94791536D01*
X108515500Y-94708464D01*
X108493999Y-94628222D01*
X108493997Y-94628219D01*
X108493997Y-94628217D01*
X108493996Y-94628216D01*
X108452465Y-94556285D01*
X108452462Y-94556279D01*
X108393721Y-94497538D01*
X108390496Y-94495676D01*
X108321783Y-94456003D01*
X108321782Y-94456002D01*
X108315201Y-94454238D01*
X108241536Y-94434500D01*
X108158464Y-94434500D01*
X108102058Y-94449613D01*
X108078217Y-94456002D01*
X108078216Y-94456003D01*
X108006285Y-94497534D01*
X108006276Y-94497540D01*
X107947540Y-94556276D01*
X107947534Y-94556285D01*
X107906003Y-94628216D01*
X107906002Y-94628217D01*
X107906001Y-94628222D01*
X107884500Y-94708464D01*
X100450500Y-94708464D01*
X100450500Y-93917712D01*
X100470185Y-93850673D01*
X100522989Y-93804918D01*
X100592147Y-93794974D01*
X100636503Y-93810327D01*
X100664708Y-93826612D01*
X100664709Y-93826612D01*
X100664712Y-93826614D01*
X100753856Y-93850500D01*
X100753858Y-93850500D01*
X100846142Y-93850500D01*
X100846144Y-93850500D01*
X100935288Y-93826614D01*
X101015212Y-93780469D01*
X101080469Y-93715212D01*
X101126614Y-93635288D01*
X101150500Y-93546144D01*
X101150500Y-93453856D01*
X101126614Y-93364712D01*
X101126611Y-93364706D01*
X101080473Y-93284794D01*
X101080470Y-93284791D01*
X101080469Y-93284788D01*
X101015212Y-93219531D01*
X101015209Y-93219529D01*
X101015205Y-93219526D01*
X100935293Y-93173388D01*
X100935290Y-93173387D01*
X100935289Y-93173386D01*
X100935288Y-93173386D01*
X100846144Y-93149500D01*
X100753856Y-93149500D01*
X100664711Y-93173386D01*
X100636501Y-93189674D01*
X100568601Y-93206147D01*
X100502574Y-93183295D01*
X100459383Y-93128374D01*
X100450500Y-93082287D01*
X100450500Y-92458464D01*
X107884500Y-92458464D01*
X107884500Y-92541536D01*
X107899827Y-92598735D01*
X107906002Y-92621782D01*
X107906003Y-92621783D01*
X107938589Y-92678222D01*
X107947538Y-92693721D01*
X108006279Y-92752462D01*
X108038301Y-92770950D01*
X108078216Y-92793996D01*
X108078217Y-92793997D01*
X108078219Y-92793997D01*
X108078222Y-92793999D01*
X108158464Y-92815500D01*
X108158467Y-92815500D01*
X108241533Y-92815500D01*
X108241536Y-92815500D01*
X108321778Y-92793999D01*
X108321780Y-92793997D01*
X108321782Y-92793997D01*
X108321783Y-92793996D01*
X108393721Y-92752462D01*
X108452462Y-92693721D01*
X108493999Y-92621778D01*
X108515500Y-92541536D01*
X108515500Y-92458464D01*
X108493999Y-92378222D01*
X108493997Y-92378219D01*
X108493997Y-92378217D01*
X108493996Y-92378216D01*
X108452465Y-92306285D01*
X108452462Y-92306279D01*
X108393721Y-92247538D01*
X108390496Y-92245676D01*
X108321783Y-92206003D01*
X108321782Y-92206002D01*
X108315201Y-92204238D01*
X108241536Y-92184500D01*
X108158464Y-92184500D01*
X108102058Y-92199613D01*
X108078217Y-92206002D01*
X108078216Y-92206003D01*
X108006285Y-92247534D01*
X108006276Y-92247540D01*
X107947540Y-92306276D01*
X107947534Y-92306285D01*
X107906003Y-92378216D01*
X107906002Y-92378217D01*
X107906001Y-92378222D01*
X107884500Y-92458464D01*
X100450500Y-92458464D01*
X100450500Y-90708464D01*
X107934500Y-90708464D01*
X107934500Y-90791536D01*
X107954238Y-90865201D01*
X107956002Y-90871782D01*
X107956003Y-90871783D01*
X107995676Y-90940496D01*
X107997538Y-90943721D01*
X108056279Y-91002462D01*
X108092250Y-91023230D01*
X108128216Y-91043996D01*
X108128217Y-91043997D01*
X108128219Y-91043997D01*
X108128222Y-91043999D01*
X108208464Y-91065500D01*
X108208467Y-91065500D01*
X108291533Y-91065500D01*
X108291536Y-91065500D01*
X108371778Y-91043999D01*
X108371780Y-91043997D01*
X108371782Y-91043997D01*
X108371783Y-91043996D01*
X108443721Y-91002462D01*
X108502462Y-90943721D01*
X108543999Y-90871778D01*
X108565500Y-90791536D01*
X108565500Y-90708464D01*
X108543999Y-90628222D01*
X108543997Y-90628219D01*
X108543997Y-90628217D01*
X108543996Y-90628216D01*
X108502465Y-90556285D01*
X108502462Y-90556279D01*
X108443721Y-90497538D01*
X108434803Y-90492389D01*
X108371783Y-90456003D01*
X108371782Y-90456002D01*
X108365201Y-90454238D01*
X108291536Y-90434500D01*
X108208464Y-90434500D01*
X108152058Y-90449613D01*
X108128217Y-90456002D01*
X108128216Y-90456003D01*
X108056285Y-90497534D01*
X108056276Y-90497540D01*
X107997540Y-90556276D01*
X107997534Y-90556285D01*
X107956003Y-90628216D01*
X107956002Y-90628217D01*
X107956001Y-90628222D01*
X107934500Y-90708464D01*
X100450500Y-90708464D01*
X100450500Y-89308464D01*
X104584500Y-89308464D01*
X104584500Y-89391536D01*
X104598227Y-89442764D01*
X104606002Y-89471782D01*
X104606003Y-89471783D01*
X104633595Y-89519572D01*
X104647538Y-89543721D01*
X104706279Y-89602462D01*
X104742250Y-89623230D01*
X104778216Y-89643996D01*
X104778217Y-89643997D01*
X104778219Y-89643997D01*
X104778222Y-89643999D01*
X104858464Y-89665500D01*
X104858467Y-89665500D01*
X104941533Y-89665500D01*
X104941536Y-89665500D01*
X105021778Y-89643999D01*
X105021780Y-89643997D01*
X105021782Y-89643997D01*
X105021783Y-89643996D01*
X105093721Y-89602462D01*
X105152462Y-89543721D01*
X105193999Y-89471778D01*
X105215500Y-89391536D01*
X105215500Y-89308464D01*
X105193999Y-89228222D01*
X105193997Y-89228219D01*
X105193997Y-89228217D01*
X105193996Y-89228216D01*
X105152465Y-89156285D01*
X105152462Y-89156279D01*
X105093721Y-89097538D01*
X105090496Y-89095676D01*
X105021783Y-89056003D01*
X105021782Y-89056002D01*
X105015201Y-89054238D01*
X104941536Y-89034500D01*
X104858464Y-89034500D01*
X104802058Y-89049613D01*
X104778217Y-89056002D01*
X104778216Y-89056003D01*
X104706285Y-89097534D01*
X104706276Y-89097540D01*
X104647540Y-89156276D01*
X104647534Y-89156285D01*
X104606003Y-89228216D01*
X104606002Y-89228217D01*
X104597659Y-89259353D01*
X104584500Y-89308464D01*
X100450500Y-89308464D01*
X100450500Y-88908464D01*
X107984500Y-88908464D01*
X107984500Y-88991536D01*
X108001774Y-89056001D01*
X108006002Y-89071782D01*
X108006003Y-89071783D01*
X108045676Y-89140496D01*
X108047538Y-89143721D01*
X108106279Y-89202462D01*
X108142250Y-89223230D01*
X108178216Y-89243996D01*
X108178217Y-89243997D01*
X108178219Y-89243997D01*
X108178222Y-89243999D01*
X108258464Y-89265500D01*
X108258467Y-89265500D01*
X108341533Y-89265500D01*
X108341536Y-89265500D01*
X108421778Y-89243999D01*
X108421780Y-89243997D01*
X108421782Y-89243997D01*
X108421783Y-89243996D01*
X108493721Y-89202462D01*
X108552462Y-89143721D01*
X108593999Y-89071778D01*
X108615500Y-88991536D01*
X108615500Y-88908464D01*
X108593999Y-88828222D01*
X108593997Y-88828219D01*
X108593997Y-88828217D01*
X108593996Y-88828216D01*
X108552465Y-88756285D01*
X108552462Y-88756279D01*
X108493721Y-88697538D01*
X108490496Y-88695676D01*
X108421783Y-88656003D01*
X108421782Y-88656002D01*
X108415201Y-88654238D01*
X108341536Y-88634500D01*
X108258464Y-88634500D01*
X108202058Y-88649613D01*
X108178217Y-88656002D01*
X108178216Y-88656003D01*
X108106285Y-88697534D01*
X108106276Y-88697540D01*
X108047540Y-88756276D01*
X108047534Y-88756285D01*
X108006003Y-88828216D01*
X108006002Y-88828217D01*
X108006001Y-88828222D01*
X107984500Y-88908464D01*
X100450500Y-88908464D01*
X100450500Y-87458464D01*
X104534500Y-87458464D01*
X104534500Y-87541536D01*
X104548557Y-87593996D01*
X104556002Y-87621782D01*
X104556003Y-87621783D01*
X104595676Y-87690496D01*
X104597538Y-87693721D01*
X104656279Y-87752462D01*
X104692250Y-87773230D01*
X104728216Y-87793996D01*
X104728217Y-87793997D01*
X104728219Y-87793997D01*
X104728222Y-87793999D01*
X104808464Y-87815500D01*
X104808467Y-87815500D01*
X104891533Y-87815500D01*
X104891536Y-87815500D01*
X104971778Y-87793999D01*
X104971780Y-87793997D01*
X104971782Y-87793997D01*
X104971783Y-87793996D01*
X105043721Y-87752462D01*
X105102462Y-87693721D01*
X105143999Y-87621778D01*
X105165500Y-87541536D01*
X105165500Y-87458464D01*
X105143999Y-87378222D01*
X105143997Y-87378219D01*
X105143997Y-87378217D01*
X105143996Y-87378216D01*
X105122816Y-87341533D01*
X105102462Y-87306279D01*
X105043721Y-87247538D01*
X105040496Y-87245676D01*
X104971783Y-87206003D01*
X104971782Y-87206002D01*
X104963773Y-87203856D01*
X113999500Y-87203856D01*
X113999500Y-87296144D01*
X114021491Y-87378217D01*
X114023387Y-87385290D01*
X114023388Y-87385293D01*
X114069526Y-87465205D01*
X114069529Y-87465209D01*
X114069531Y-87465212D01*
X114134788Y-87530469D01*
X114134791Y-87530470D01*
X114134794Y-87530473D01*
X114214706Y-87576611D01*
X114214707Y-87576611D01*
X114214712Y-87576614D01*
X114303856Y-87600500D01*
X114303858Y-87600500D01*
X114396142Y-87600500D01*
X114396144Y-87600500D01*
X114485288Y-87576614D01*
X114565212Y-87530469D01*
X114630469Y-87465212D01*
X114676614Y-87385288D01*
X114700500Y-87296144D01*
X114700500Y-87203856D01*
X114676614Y-87114712D01*
X114676611Y-87114706D01*
X114630473Y-87034794D01*
X114630470Y-87034791D01*
X114630469Y-87034788D01*
X114565212Y-86969531D01*
X114565209Y-86969529D01*
X114565205Y-86969526D01*
X114485293Y-86923388D01*
X114485290Y-86923387D01*
X114485289Y-86923386D01*
X114485288Y-86923386D01*
X114396144Y-86899500D01*
X114303856Y-86899500D01*
X114214712Y-86923386D01*
X114214711Y-86923386D01*
X114214709Y-86923387D01*
X114214706Y-86923388D01*
X114134794Y-86969526D01*
X114134785Y-86969533D01*
X114069533Y-87034785D01*
X114069526Y-87034794D01*
X114023388Y-87114706D01*
X114023387Y-87114709D01*
X114023386Y-87114711D01*
X114023386Y-87114712D01*
X113999500Y-87203856D01*
X104963773Y-87203856D01*
X104891536Y-87184500D01*
X104808464Y-87184500D01*
X104752058Y-87199613D01*
X104728217Y-87206002D01*
X104728216Y-87206003D01*
X104656285Y-87247534D01*
X104656276Y-87247540D01*
X104597540Y-87306276D01*
X104597534Y-87306285D01*
X104556003Y-87378216D01*
X104556002Y-87378217D01*
X104554107Y-87385290D01*
X104534500Y-87458464D01*
X100450500Y-87458464D01*
X100450500Y-86408464D01*
X108584500Y-86408464D01*
X108584500Y-86491536D01*
X108604238Y-86565201D01*
X108606002Y-86571782D01*
X108606003Y-86571783D01*
X108645676Y-86640496D01*
X108647538Y-86643721D01*
X108706279Y-86702462D01*
X108742250Y-86723230D01*
X108778216Y-86743996D01*
X108778217Y-86743997D01*
X108778219Y-86743997D01*
X108778222Y-86743999D01*
X108858464Y-86765500D01*
X108858467Y-86765500D01*
X108941533Y-86765500D01*
X108941536Y-86765500D01*
X109021778Y-86743999D01*
X109021780Y-86743997D01*
X109021782Y-86743997D01*
X109021783Y-86743996D01*
X109025623Y-86741779D01*
X109093721Y-86702462D01*
X109152462Y-86643721D01*
X109193999Y-86571778D01*
X109215500Y-86491536D01*
X109215500Y-86408464D01*
X109193999Y-86328222D01*
X109193997Y-86328219D01*
X109193997Y-86328217D01*
X109193996Y-86328216D01*
X109152465Y-86256285D01*
X109152462Y-86256279D01*
X109093721Y-86197538D01*
X109090496Y-86195676D01*
X109021783Y-86156003D01*
X109021782Y-86156002D01*
X109015201Y-86154238D01*
X108941536Y-86134500D01*
X108858464Y-86134500D01*
X108802058Y-86149613D01*
X108778217Y-86156002D01*
X108778216Y-86156003D01*
X108706285Y-86197534D01*
X108706276Y-86197540D01*
X108647540Y-86256276D01*
X108647534Y-86256285D01*
X108606003Y-86328216D01*
X108606002Y-86328217D01*
X108606001Y-86328222D01*
X108584500Y-86408464D01*
X100450500Y-86408464D01*
X100450500Y-82758464D01*
X114984500Y-82758464D01*
X114984500Y-82841536D01*
X115001164Y-82903727D01*
X115006002Y-82921782D01*
X115006003Y-82921783D01*
X115033455Y-82969329D01*
X115047538Y-82993721D01*
X115106279Y-83052462D01*
X115127850Y-83064916D01*
X115178216Y-83093996D01*
X115178217Y-83093997D01*
X115178219Y-83093997D01*
X115178222Y-83093999D01*
X115258464Y-83115500D01*
X115258467Y-83115500D01*
X115341533Y-83115500D01*
X115341536Y-83115500D01*
X115421778Y-83093999D01*
X115421780Y-83093997D01*
X115421782Y-83093997D01*
X115421783Y-83093996D01*
X115493721Y-83052462D01*
X115552462Y-82993721D01*
X115593999Y-82921778D01*
X115615500Y-82841536D01*
X115615500Y-82758464D01*
X115593999Y-82678222D01*
X115593997Y-82678219D01*
X115593997Y-82678217D01*
X115593996Y-82678216D01*
X115552465Y-82606285D01*
X115552462Y-82606279D01*
X115493721Y-82547538D01*
X115487586Y-82543996D01*
X115421783Y-82506003D01*
X115421782Y-82506002D01*
X115415201Y-82504238D01*
X115341536Y-82484500D01*
X115258464Y-82484500D01*
X115202058Y-82499613D01*
X115178217Y-82506002D01*
X115178216Y-82506003D01*
X115106285Y-82547534D01*
X115106276Y-82547540D01*
X115047540Y-82606276D01*
X115047534Y-82606285D01*
X115006003Y-82678216D01*
X115006002Y-82678217D01*
X115005690Y-82679381D01*
X114984500Y-82758464D01*
X100450500Y-82758464D01*
X100450500Y-82203856D01*
X100899500Y-82203856D01*
X100899500Y-82296144D01*
X100919767Y-82371783D01*
X100923387Y-82385290D01*
X100923388Y-82385293D01*
X100969526Y-82465205D01*
X100969529Y-82465209D01*
X100969531Y-82465212D01*
X101034788Y-82530469D01*
X101034791Y-82530470D01*
X101034794Y-82530473D01*
X101114706Y-82576611D01*
X101114707Y-82576611D01*
X101114712Y-82576614D01*
X101203856Y-82600500D01*
X101203858Y-82600500D01*
X101296142Y-82600500D01*
X101296144Y-82600500D01*
X101385288Y-82576614D01*
X101465212Y-82530469D01*
X101530469Y-82465212D01*
X101576614Y-82385288D01*
X101600500Y-82296144D01*
X101600500Y-82203856D01*
X101576614Y-82114712D01*
X101576611Y-82114706D01*
X101530473Y-82034794D01*
X101530470Y-82034791D01*
X101530469Y-82034788D01*
X101465212Y-81969531D01*
X101465209Y-81969529D01*
X101465205Y-81969526D01*
X101385293Y-81923388D01*
X101385290Y-81923387D01*
X101385289Y-81923386D01*
X101385288Y-81923386D01*
X101296144Y-81899500D01*
X101203856Y-81899500D01*
X101114712Y-81923386D01*
X101114711Y-81923386D01*
X101114709Y-81923387D01*
X101114706Y-81923388D01*
X101034794Y-81969526D01*
X101034785Y-81969533D01*
X100969533Y-82034785D01*
X100969526Y-82034794D01*
X100923388Y-82114706D01*
X100923387Y-82114709D01*
X100923386Y-82114711D01*
X100923386Y-82114712D01*
X100899500Y-82203856D01*
X100450500Y-82203856D01*
X100450500Y-81668465D01*
X112110597Y-81668465D01*
X112110597Y-81751537D01*
X112112454Y-81758466D01*
X112132099Y-81831783D01*
X112132100Y-81831784D01*
X112137731Y-81841536D01*
X112173635Y-81903722D01*
X112232376Y-81962463D01*
X112268347Y-81983231D01*
X112304313Y-82003997D01*
X112304314Y-82003998D01*
X112304316Y-82003998D01*
X112304319Y-82004000D01*
X112384561Y-82025501D01*
X112384564Y-82025501D01*
X112467630Y-82025501D01*
X112467633Y-82025501D01*
X112547875Y-82004000D01*
X112547877Y-82003998D01*
X112547879Y-82003998D01*
X112547880Y-82003997D01*
X112619818Y-81962463D01*
X112678559Y-81903722D01*
X112720096Y-81831779D01*
X112741597Y-81751537D01*
X112741597Y-81668465D01*
X112720096Y-81588223D01*
X112720094Y-81588220D01*
X112720094Y-81588218D01*
X112720093Y-81588217D01*
X112678562Y-81516286D01*
X112678559Y-81516280D01*
X112619818Y-81457539D01*
X112616593Y-81455677D01*
X112547880Y-81416004D01*
X112547879Y-81416003D01*
X112541298Y-81414239D01*
X112467633Y-81394501D01*
X112384561Y-81394501D01*
X112328155Y-81409614D01*
X112304314Y-81416003D01*
X112304313Y-81416004D01*
X112232382Y-81457535D01*
X112232373Y-81457541D01*
X112173637Y-81516277D01*
X112173631Y-81516286D01*
X112132100Y-81588217D01*
X112132099Y-81588218D01*
X112132098Y-81588223D01*
X112110597Y-81668465D01*
X100450500Y-81668465D01*
X100450500Y-81108464D01*
X105284500Y-81108464D01*
X105284500Y-81191536D01*
X105296805Y-81237457D01*
X105306002Y-81271782D01*
X105306003Y-81271783D01*
X105345676Y-81340496D01*
X105347538Y-81343721D01*
X105406279Y-81402462D01*
X105429734Y-81416004D01*
X105478216Y-81443996D01*
X105478217Y-81443997D01*
X105478219Y-81443997D01*
X105478222Y-81443999D01*
X105558464Y-81465500D01*
X105558467Y-81465500D01*
X105641533Y-81465500D01*
X105641536Y-81465500D01*
X105721778Y-81443999D01*
X105721780Y-81443997D01*
X105721782Y-81443997D01*
X105721783Y-81443996D01*
X105793721Y-81402462D01*
X105852462Y-81343721D01*
X105893999Y-81271778D01*
X105915500Y-81191536D01*
X105915500Y-81108464D01*
X105893999Y-81028222D01*
X105893997Y-81028219D01*
X105893997Y-81028217D01*
X105893996Y-81028216D01*
X105852465Y-80956285D01*
X105852462Y-80956279D01*
X105793721Y-80897538D01*
X105790496Y-80895676D01*
X105726045Y-80858464D01*
X117784500Y-80858464D01*
X117784500Y-80941536D01*
X117804238Y-81015201D01*
X117806002Y-81021782D01*
X117806003Y-81021783D01*
X117831093Y-81065238D01*
X117847538Y-81093721D01*
X117906279Y-81152462D01*
X117942250Y-81173230D01*
X117978216Y-81193996D01*
X117978217Y-81193997D01*
X117978219Y-81193997D01*
X117978222Y-81193999D01*
X118058464Y-81215500D01*
X118058467Y-81215500D01*
X118141533Y-81215500D01*
X118141536Y-81215500D01*
X118221778Y-81193999D01*
X118221780Y-81193997D01*
X118221782Y-81193997D01*
X118221783Y-81193996D01*
X118226049Y-81191533D01*
X118293721Y-81152462D01*
X118352462Y-81093721D01*
X118393999Y-81021778D01*
X118415500Y-80941536D01*
X118415500Y-80858464D01*
X118393999Y-80778222D01*
X118393997Y-80778219D01*
X118393997Y-80778217D01*
X118393996Y-80778216D01*
X118352465Y-80706285D01*
X118352462Y-80706279D01*
X118293721Y-80647538D01*
X118260096Y-80628124D01*
X118221783Y-80606003D01*
X118221782Y-80606002D01*
X118215201Y-80604238D01*
X118141536Y-80584500D01*
X118058464Y-80584500D01*
X118002058Y-80599613D01*
X117978217Y-80606002D01*
X117978216Y-80606003D01*
X117906285Y-80647534D01*
X117906276Y-80647540D01*
X117847540Y-80706276D01*
X117847534Y-80706285D01*
X117806003Y-80778216D01*
X117806002Y-80778217D01*
X117806001Y-80778222D01*
X117784500Y-80858464D01*
X105726045Y-80858464D01*
X105721783Y-80856003D01*
X105721782Y-80856002D01*
X105715201Y-80854238D01*
X105641536Y-80834500D01*
X105558464Y-80834500D01*
X105502058Y-80849613D01*
X105478217Y-80856002D01*
X105478216Y-80856003D01*
X105406285Y-80897534D01*
X105406276Y-80897540D01*
X105347540Y-80956276D01*
X105347534Y-80956285D01*
X105306003Y-81028216D01*
X105306002Y-81028217D01*
X105306001Y-81028222D01*
X105284500Y-81108464D01*
X100450500Y-81108464D01*
X100450500Y-80454891D01*
X110929933Y-80454891D01*
X110929933Y-80537963D01*
X110949671Y-80611628D01*
X110951435Y-80618209D01*
X110951436Y-80618210D01*
X110991109Y-80686923D01*
X110992971Y-80690148D01*
X111051712Y-80748889D01*
X111080197Y-80765335D01*
X111123649Y-80790423D01*
X111123650Y-80790424D01*
X111123652Y-80790424D01*
X111123655Y-80790426D01*
X111203897Y-80811927D01*
X111203900Y-80811927D01*
X111286966Y-80811927D01*
X111286969Y-80811927D01*
X111367211Y-80790426D01*
X111367213Y-80790424D01*
X111367215Y-80790424D01*
X111367216Y-80790423D01*
X111439154Y-80748889D01*
X111497895Y-80690148D01*
X111539432Y-80618205D01*
X111542401Y-80607122D01*
X111556091Y-80589480D01*
X111571445Y-80578395D01*
X111583323Y-80563651D01*
X111599184Y-80558369D01*
X111612741Y-80548582D01*
X111631649Y-80547558D01*
X111649613Y-80541576D01*
X111666147Y-80545689D01*
X111682508Y-80544804D01*
X111698003Y-80553616D01*
X111716059Y-80558108D01*
X111778222Y-80593999D01*
X111858464Y-80615500D01*
X111858467Y-80615500D01*
X111941533Y-80615500D01*
X111941536Y-80615500D01*
X112021778Y-80593999D01*
X112021780Y-80593997D01*
X112021782Y-80593997D01*
X112021783Y-80593996D01*
X112048804Y-80578395D01*
X112093721Y-80552462D01*
X112152462Y-80493721D01*
X112193999Y-80421778D01*
X112215500Y-80341536D01*
X112215500Y-80258464D01*
X112193999Y-80178222D01*
X112193997Y-80178218D01*
X112193997Y-80178217D01*
X112193996Y-80178216D01*
X112165128Y-80128217D01*
X112152462Y-80106279D01*
X112093721Y-80047538D01*
X112090496Y-80045676D01*
X112021783Y-80006003D01*
X112021782Y-80006002D01*
X112015201Y-80004238D01*
X111941536Y-79984500D01*
X111858464Y-79984500D01*
X111809821Y-79997534D01*
X111778217Y-80006002D01*
X111778216Y-80006003D01*
X111706285Y-80047534D01*
X111706276Y-80047540D01*
X111647540Y-80106276D01*
X111647534Y-80106285D01*
X111606002Y-80178218D01*
X111605934Y-80178383D01*
X111605839Y-80178500D01*
X111601936Y-80185261D01*
X111600881Y-80184652D01*
X111562093Y-80232786D01*
X111495799Y-80254851D01*
X111429373Y-80238317D01*
X111367214Y-80202429D01*
X111367215Y-80202429D01*
X111360634Y-80200665D01*
X111286969Y-80180927D01*
X111203897Y-80180927D01*
X111147491Y-80196040D01*
X111123650Y-80202429D01*
X111123649Y-80202430D01*
X111051718Y-80243961D01*
X111051709Y-80243967D01*
X110992973Y-80302703D01*
X110992967Y-80302712D01*
X110951436Y-80374643D01*
X110951435Y-80374644D01*
X110951434Y-80374649D01*
X110929933Y-80454891D01*
X100450500Y-80454891D01*
X100450500Y-79658464D01*
X102134500Y-79658464D01*
X102134500Y-79741536D01*
X102154238Y-79815201D01*
X102156002Y-79821782D01*
X102156003Y-79821783D01*
X102168671Y-79843723D01*
X102197538Y-79893721D01*
X102256279Y-79952462D01*
X102278861Y-79965500D01*
X102328216Y-79993996D01*
X102328217Y-79993997D01*
X102328219Y-79993997D01*
X102328222Y-79993999D01*
X102408464Y-80015500D01*
X102408467Y-80015500D01*
X102491533Y-80015500D01*
X102491536Y-80015500D01*
X102571778Y-79993999D01*
X102571780Y-79993997D01*
X102571782Y-79993997D01*
X102571783Y-79993996D01*
X102588230Y-79984500D01*
X102643721Y-79952462D01*
X102702462Y-79893721D01*
X102743999Y-79821778D01*
X102765500Y-79741536D01*
X102765500Y-79658464D01*
X102752102Y-79608464D01*
X105284500Y-79608464D01*
X105284500Y-79691536D01*
X105297897Y-79741533D01*
X105306002Y-79771782D01*
X105306003Y-79771783D01*
X105315563Y-79788340D01*
X105347538Y-79843721D01*
X105406279Y-79902462D01*
X105442250Y-79923230D01*
X105478216Y-79943996D01*
X105478217Y-79943997D01*
X105478219Y-79943997D01*
X105478222Y-79943999D01*
X105558464Y-79965500D01*
X105558467Y-79965500D01*
X105641533Y-79965500D01*
X105641536Y-79965500D01*
X105721778Y-79943999D01*
X105721780Y-79943997D01*
X105721782Y-79943997D01*
X105721783Y-79943996D01*
X105738230Y-79934500D01*
X105793721Y-79902462D01*
X105837719Y-79858464D01*
X121234500Y-79858464D01*
X121234500Y-79941536D01*
X121251774Y-80006001D01*
X121256002Y-80021782D01*
X121256003Y-80021783D01*
X121275920Y-80056279D01*
X121297538Y-80093721D01*
X121356279Y-80152462D01*
X121392250Y-80173230D01*
X121428216Y-80193996D01*
X121428217Y-80193997D01*
X121428219Y-80193997D01*
X121428222Y-80193999D01*
X121508464Y-80215500D01*
X121508467Y-80215500D01*
X121591533Y-80215500D01*
X121591536Y-80215500D01*
X121617794Y-80208464D01*
X122334500Y-80208464D01*
X122334500Y-80291536D01*
X122344329Y-80328217D01*
X122356002Y-80371782D01*
X122356003Y-80371783D01*
X122377182Y-80408464D01*
X122397538Y-80443721D01*
X122456279Y-80502462D01*
X122492250Y-80523230D01*
X122528216Y-80543996D01*
X122528217Y-80543997D01*
X122528219Y-80543997D01*
X122528222Y-80543999D01*
X122608464Y-80565500D01*
X122608467Y-80565500D01*
X122691533Y-80565500D01*
X122691536Y-80565500D01*
X122771778Y-80543999D01*
X122771780Y-80543997D01*
X122771782Y-80543997D01*
X122771783Y-80543996D01*
X122843721Y-80502462D01*
X122902462Y-80443721D01*
X122943999Y-80371778D01*
X122965500Y-80291536D01*
X122965500Y-80208464D01*
X122943999Y-80128222D01*
X122943997Y-80128219D01*
X122943997Y-80128217D01*
X122943996Y-80128216D01*
X122902465Y-80056285D01*
X122902462Y-80056279D01*
X122843721Y-79997538D01*
X122821139Y-79984500D01*
X122771783Y-79956003D01*
X122771782Y-79956002D01*
X122765201Y-79954238D01*
X122691536Y-79934500D01*
X122608464Y-79934500D01*
X122552058Y-79949613D01*
X122528217Y-79956002D01*
X122528216Y-79956003D01*
X122456285Y-79997534D01*
X122456276Y-79997540D01*
X122397540Y-80056276D01*
X122397534Y-80056285D01*
X122356003Y-80128216D01*
X122356002Y-80128217D01*
X122356001Y-80128222D01*
X122334500Y-80208464D01*
X121617794Y-80208464D01*
X121671778Y-80193999D01*
X121671780Y-80193997D01*
X121671782Y-80193997D01*
X121671783Y-80193996D01*
X121687967Y-80184652D01*
X121743721Y-80152462D01*
X121802462Y-80093721D01*
X121843999Y-80021778D01*
X121865500Y-79941536D01*
X121865500Y-79858464D01*
X121843999Y-79778222D01*
X121843997Y-79778219D01*
X121843997Y-79778217D01*
X121843996Y-79778216D01*
X121802465Y-79706285D01*
X121802462Y-79706279D01*
X121743721Y-79647538D01*
X121717554Y-79632430D01*
X121671783Y-79606003D01*
X121671782Y-79606002D01*
X121665201Y-79604238D01*
X121591536Y-79584500D01*
X121508464Y-79584500D01*
X121452058Y-79599613D01*
X121428217Y-79606002D01*
X121428216Y-79606003D01*
X121356285Y-79647534D01*
X121356276Y-79647540D01*
X121297540Y-79706276D01*
X121297534Y-79706285D01*
X121256003Y-79778216D01*
X121256002Y-79778217D01*
X121256001Y-79778222D01*
X121234500Y-79858464D01*
X105837719Y-79858464D01*
X105852462Y-79843721D01*
X105893999Y-79771778D01*
X105915500Y-79691536D01*
X105915500Y-79608464D01*
X105893999Y-79528222D01*
X105893997Y-79528219D01*
X105893997Y-79528217D01*
X105893996Y-79528216D01*
X105852465Y-79456285D01*
X105852462Y-79456279D01*
X105793721Y-79397538D01*
X105771139Y-79384500D01*
X105721783Y-79356003D01*
X105721782Y-79356002D01*
X105715201Y-79354238D01*
X105641536Y-79334500D01*
X105558464Y-79334500D01*
X105502058Y-79349613D01*
X105478217Y-79356002D01*
X105478216Y-79356003D01*
X105406285Y-79397534D01*
X105406276Y-79397540D01*
X105347540Y-79456276D01*
X105347534Y-79456285D01*
X105306003Y-79528216D01*
X105306002Y-79528217D01*
X105306001Y-79528222D01*
X105284500Y-79608464D01*
X102752102Y-79608464D01*
X102743999Y-79578222D01*
X102743997Y-79578219D01*
X102743997Y-79578217D01*
X102743996Y-79578216D01*
X102715128Y-79528217D01*
X102702462Y-79506279D01*
X102643721Y-79447538D01*
X102640496Y-79445676D01*
X102571783Y-79406003D01*
X102571782Y-79406002D01*
X102565201Y-79404238D01*
X102491536Y-79384500D01*
X102408464Y-79384500D01*
X102359821Y-79397534D01*
X102328217Y-79406002D01*
X102328216Y-79406003D01*
X102256285Y-79447534D01*
X102256276Y-79447540D01*
X102197540Y-79506276D01*
X102197534Y-79506285D01*
X102156003Y-79578216D01*
X102156002Y-79578217D01*
X102156001Y-79578222D01*
X102134500Y-79658464D01*
X100450500Y-79658464D01*
X100450500Y-78577464D01*
X118817043Y-78577464D01*
X118817043Y-78660536D01*
X118836781Y-78734201D01*
X118838545Y-78740782D01*
X118838546Y-78740783D01*
X118863496Y-78783996D01*
X118880081Y-78812721D01*
X118938822Y-78871462D01*
X118974793Y-78892230D01*
X119010759Y-78912996D01*
X119010760Y-78912997D01*
X119010762Y-78912997D01*
X119010765Y-78912999D01*
X119091007Y-78934500D01*
X119091010Y-78934500D01*
X119174076Y-78934500D01*
X119174079Y-78934500D01*
X119254321Y-78912999D01*
X119254323Y-78912997D01*
X119254325Y-78912997D01*
X119254326Y-78912996D01*
X119326264Y-78871462D01*
X119385005Y-78812721D01*
X119426542Y-78740778D01*
X119448043Y-78660536D01*
X119448043Y-78577464D01*
X119426542Y-78497222D01*
X119398391Y-78448464D01*
X120434500Y-78448464D01*
X120434500Y-78531536D01*
X120446807Y-78577466D01*
X120456002Y-78611782D01*
X120456003Y-78611783D01*
X120484150Y-78660533D01*
X120497538Y-78683721D01*
X120556279Y-78742462D01*
X120592250Y-78763230D01*
X120628216Y-78783996D01*
X120628217Y-78783997D01*
X120628219Y-78783997D01*
X120628222Y-78783999D01*
X120708464Y-78805500D01*
X120708467Y-78805500D01*
X120791533Y-78805500D01*
X120791536Y-78805500D01*
X120871778Y-78783999D01*
X120871780Y-78783997D01*
X120871782Y-78783997D01*
X120871783Y-78783996D01*
X120943721Y-78742462D01*
X121002462Y-78683721D01*
X121043999Y-78611778D01*
X121065500Y-78531536D01*
X121065500Y-78448464D01*
X121043999Y-78368222D01*
X121043997Y-78368219D01*
X121043997Y-78368217D01*
X121043996Y-78368216D01*
X121019046Y-78325003D01*
X121002462Y-78296279D01*
X120943721Y-78237538D01*
X120931484Y-78230473D01*
X120871783Y-78196003D01*
X120871782Y-78196002D01*
X120865201Y-78194238D01*
X120791536Y-78174500D01*
X120708464Y-78174500D01*
X120652058Y-78189613D01*
X120628217Y-78196002D01*
X120628216Y-78196003D01*
X120556285Y-78237534D01*
X120556276Y-78237540D01*
X120497540Y-78296276D01*
X120497534Y-78296285D01*
X120456003Y-78368216D01*
X120456002Y-78368217D01*
X120449094Y-78393999D01*
X120434500Y-78448464D01*
X119398391Y-78448464D01*
X119385005Y-78425279D01*
X119326264Y-78366538D01*
X119323039Y-78364676D01*
X119254326Y-78325003D01*
X119254325Y-78325002D01*
X119247744Y-78323238D01*
X119174079Y-78303500D01*
X119091007Y-78303500D01*
X119034601Y-78318613D01*
X119010760Y-78325002D01*
X119010759Y-78325003D01*
X118938828Y-78366534D01*
X118938819Y-78366540D01*
X118880083Y-78425276D01*
X118880077Y-78425285D01*
X118838546Y-78497216D01*
X118838545Y-78497217D01*
X118838544Y-78497222D01*
X118817043Y-78577464D01*
X100450500Y-78577464D01*
X100450500Y-77903856D01*
X103799500Y-77903856D01*
X103799500Y-77996144D01*
X103810162Y-78035936D01*
X103823387Y-78085290D01*
X103823388Y-78085293D01*
X103869526Y-78165205D01*
X103869529Y-78165209D01*
X103869531Y-78165212D01*
X103934788Y-78230469D01*
X103934791Y-78230470D01*
X103934794Y-78230473D01*
X104014706Y-78276611D01*
X104014707Y-78276611D01*
X104014712Y-78276614D01*
X104103856Y-78300500D01*
X104103858Y-78300500D01*
X104196142Y-78300500D01*
X104196144Y-78300500D01*
X104285288Y-78276614D01*
X104365212Y-78230469D01*
X104430469Y-78165212D01*
X104476614Y-78085288D01*
X104483801Y-78058464D01*
X107584500Y-78058464D01*
X107584500Y-78141536D01*
X107604238Y-78215201D01*
X107606002Y-78221782D01*
X107606003Y-78221783D01*
X107615100Y-78237538D01*
X107647538Y-78293721D01*
X107706279Y-78352462D01*
X107733565Y-78368216D01*
X107778216Y-78393996D01*
X107778217Y-78393997D01*
X107778219Y-78393997D01*
X107778222Y-78393999D01*
X107858464Y-78415500D01*
X107858467Y-78415500D01*
X107941533Y-78415500D01*
X107941536Y-78415500D01*
X108021778Y-78393999D01*
X108021780Y-78393997D01*
X108021782Y-78393997D01*
X108021783Y-78393996D01*
X108023560Y-78392970D01*
X108093721Y-78352462D01*
X108152462Y-78293721D01*
X108193999Y-78221778D01*
X108215500Y-78141536D01*
X108215500Y-78058464D01*
X108209463Y-78035934D01*
X122194500Y-78035934D01*
X122194500Y-78119006D01*
X122206879Y-78165205D01*
X122216002Y-78199252D01*
X122216003Y-78199253D01*
X122238108Y-78237538D01*
X122257538Y-78271191D01*
X122316279Y-78329932D01*
X122352250Y-78350700D01*
X122388216Y-78371466D01*
X122388217Y-78371467D01*
X122388219Y-78371467D01*
X122388222Y-78371469D01*
X122468464Y-78392970D01*
X122468467Y-78392970D01*
X122551533Y-78392970D01*
X122551536Y-78392970D01*
X122631778Y-78371469D01*
X122631780Y-78371467D01*
X122631782Y-78371467D01*
X122631783Y-78371466D01*
X122637402Y-78368222D01*
X122703721Y-78329932D01*
X122762462Y-78271191D01*
X122803999Y-78199248D01*
X122825500Y-78119006D01*
X122825500Y-78035934D01*
X122803999Y-77955692D01*
X122803997Y-77955689D01*
X122803997Y-77955687D01*
X122803996Y-77955686D01*
X122762465Y-77883755D01*
X122762462Y-77883749D01*
X122703721Y-77825008D01*
X122685878Y-77814706D01*
X122631783Y-77783473D01*
X122631782Y-77783472D01*
X122625201Y-77781708D01*
X122551536Y-77761970D01*
X122468464Y-77761970D01*
X122412058Y-77777083D01*
X122388217Y-77783472D01*
X122388216Y-77783473D01*
X122316285Y-77825004D01*
X122316276Y-77825010D01*
X122257540Y-77883746D01*
X122257534Y-77883755D01*
X122216003Y-77955686D01*
X122216002Y-77955687D01*
X122216001Y-77955692D01*
X122194500Y-78035934D01*
X108209463Y-78035934D01*
X108193999Y-77978222D01*
X108152462Y-77906279D01*
X108093721Y-77847538D01*
X108090496Y-77845676D01*
X108021783Y-77806003D01*
X108021782Y-77806002D01*
X108015201Y-77804238D01*
X107941536Y-77784500D01*
X107858464Y-77784500D01*
X107802058Y-77799613D01*
X107778217Y-77806002D01*
X107778216Y-77806003D01*
X107706285Y-77847534D01*
X107706276Y-77847540D01*
X107647540Y-77906276D01*
X107647534Y-77906285D01*
X107606003Y-77978216D01*
X107606002Y-77978217D01*
X107606001Y-77978222D01*
X107584500Y-78058464D01*
X104483801Y-78058464D01*
X104500500Y-77996144D01*
X104500500Y-77903856D01*
X104476614Y-77814712D01*
X104471586Y-77806003D01*
X104430473Y-77734794D01*
X104430470Y-77734791D01*
X104430469Y-77734788D01*
X104365212Y-77669531D01*
X104365209Y-77669529D01*
X104365205Y-77669526D01*
X104285293Y-77623388D01*
X104285290Y-77623387D01*
X104285289Y-77623386D01*
X104285288Y-77623386D01*
X104196144Y-77599500D01*
X104103856Y-77599500D01*
X104014712Y-77623386D01*
X104014711Y-77623386D01*
X104014709Y-77623387D01*
X104014706Y-77623388D01*
X103934794Y-77669526D01*
X103934785Y-77669533D01*
X103869533Y-77734785D01*
X103869526Y-77734794D01*
X103823388Y-77814706D01*
X103823387Y-77814709D01*
X103823386Y-77814711D01*
X103823386Y-77814712D01*
X103799500Y-77903856D01*
X100450500Y-77903856D01*
X100450500Y-76808464D01*
X114584500Y-76808464D01*
X114584500Y-76891536D01*
X114600619Y-76951693D01*
X114606002Y-76971782D01*
X114606003Y-76971783D01*
X114645676Y-77040496D01*
X114647538Y-77043721D01*
X114706279Y-77102462D01*
X114712901Y-77106285D01*
X114778216Y-77143996D01*
X114778217Y-77143997D01*
X114778219Y-77143997D01*
X114778222Y-77143999D01*
X114858464Y-77165500D01*
X114858467Y-77165500D01*
X114941533Y-77165500D01*
X114941536Y-77165500D01*
X115021778Y-77143999D01*
X115021780Y-77143997D01*
X115021782Y-77143997D01*
X115021783Y-77143996D01*
X115050595Y-77127361D01*
X124218228Y-77127361D01*
X124218228Y-77210433D01*
X124220321Y-77218243D01*
X124239730Y-77290679D01*
X124239731Y-77290680D01*
X124269092Y-77341533D01*
X124281266Y-77362618D01*
X124340007Y-77421359D01*
X124375978Y-77442127D01*
X124411944Y-77462893D01*
X124411945Y-77462894D01*
X124411947Y-77462894D01*
X124411950Y-77462896D01*
X124492192Y-77484397D01*
X124492195Y-77484397D01*
X124575261Y-77484397D01*
X124575264Y-77484397D01*
X124655506Y-77462896D01*
X124655508Y-77462894D01*
X124655510Y-77462894D01*
X124655511Y-77462893D01*
X124727449Y-77421359D01*
X124786190Y-77362618D01*
X124827727Y-77290675D01*
X124836358Y-77258464D01*
X131734500Y-77258464D01*
X131734500Y-77341536D01*
X131754238Y-77415201D01*
X131756002Y-77421782D01*
X131756003Y-77421783D01*
X131779741Y-77462896D01*
X131797538Y-77493721D01*
X131856279Y-77552462D01*
X131892250Y-77573230D01*
X131928216Y-77593996D01*
X131928217Y-77593997D01*
X131928219Y-77593997D01*
X131928222Y-77593999D01*
X132008464Y-77615500D01*
X132008467Y-77615500D01*
X132091533Y-77615500D01*
X132091536Y-77615500D01*
X132171778Y-77593999D01*
X132171780Y-77593997D01*
X132171782Y-77593997D01*
X132171783Y-77593996D01*
X132243721Y-77552462D01*
X132302462Y-77493721D01*
X132343999Y-77421778D01*
X132365500Y-77341536D01*
X132365500Y-77258464D01*
X132343999Y-77178222D01*
X132343997Y-77178219D01*
X132343997Y-77178217D01*
X132343996Y-77178216D01*
X132314634Y-77127361D01*
X132302462Y-77106279D01*
X132243721Y-77047538D01*
X132237098Y-77043714D01*
X132171783Y-77006003D01*
X132171782Y-77006002D01*
X132165201Y-77004238D01*
X132091536Y-76984500D01*
X132008464Y-76984500D01*
X131952637Y-76999459D01*
X131928217Y-77006002D01*
X131928216Y-77006003D01*
X131856285Y-77047534D01*
X131856276Y-77047540D01*
X131797540Y-77106276D01*
X131797534Y-77106285D01*
X131756003Y-77178216D01*
X131756002Y-77178217D01*
X131756001Y-77178222D01*
X131734500Y-77258464D01*
X124836358Y-77258464D01*
X124849228Y-77210433D01*
X124849228Y-77127361D01*
X124827727Y-77047119D01*
X124827725Y-77047116D01*
X124827725Y-77047114D01*
X124827724Y-77047113D01*
X124786193Y-76975182D01*
X124786190Y-76975176D01*
X124727449Y-76916435D01*
X124724224Y-76914573D01*
X124655511Y-76874900D01*
X124655510Y-76874899D01*
X124648929Y-76873135D01*
X124575264Y-76853397D01*
X124492192Y-76853397D01*
X124435786Y-76868510D01*
X124411945Y-76874899D01*
X124411944Y-76874900D01*
X124340013Y-76916431D01*
X124340004Y-76916437D01*
X124281268Y-76975173D01*
X124281262Y-76975182D01*
X124239731Y-77047113D01*
X124239730Y-77047114D01*
X124231387Y-77078250D01*
X124218228Y-77127361D01*
X115050595Y-77127361D01*
X115093721Y-77102462D01*
X115152462Y-77043721D01*
X115193999Y-76971778D01*
X115215500Y-76891536D01*
X115215500Y-76808464D01*
X115202102Y-76758464D01*
X115884500Y-76758464D01*
X115884500Y-76841536D01*
X115898276Y-76892949D01*
X115906002Y-76921782D01*
X115906003Y-76921783D01*
X115934869Y-76971778D01*
X115947538Y-76993721D01*
X116006279Y-77052462D01*
X116042250Y-77073230D01*
X116078216Y-77093996D01*
X116078217Y-77093997D01*
X116078219Y-77093997D01*
X116078222Y-77093999D01*
X116158464Y-77115500D01*
X116158467Y-77115500D01*
X116241533Y-77115500D01*
X116241536Y-77115500D01*
X116321778Y-77093999D01*
X116321780Y-77093997D01*
X116321782Y-77093997D01*
X116321783Y-77093996D01*
X116393721Y-77052462D01*
X116452462Y-76993721D01*
X116493999Y-76921778D01*
X116515500Y-76841536D01*
X116515500Y-76758464D01*
X116493999Y-76678222D01*
X116493997Y-76678219D01*
X116493997Y-76678217D01*
X116493996Y-76678216D01*
X116473230Y-76642250D01*
X116452462Y-76606279D01*
X116393721Y-76547538D01*
X116371139Y-76534500D01*
X116326045Y-76508464D01*
X116984500Y-76508464D01*
X116984500Y-76591536D01*
X116991792Y-76618749D01*
X117006002Y-76671782D01*
X117006003Y-76671783D01*
X117038589Y-76728222D01*
X117047538Y-76743721D01*
X117106279Y-76802462D01*
X117138398Y-76821006D01*
X117178216Y-76843996D01*
X117178217Y-76843997D01*
X117178219Y-76843997D01*
X117178222Y-76843999D01*
X117258464Y-76865500D01*
X117258467Y-76865500D01*
X117341533Y-76865500D01*
X117341536Y-76865500D01*
X117421778Y-76843999D01*
X117421780Y-76843997D01*
X117421782Y-76843997D01*
X117421783Y-76843996D01*
X117426049Y-76841533D01*
X117493721Y-76802462D01*
X117552462Y-76743721D01*
X117561281Y-76728445D01*
X117611848Y-76680232D01*
X117680455Y-76667010D01*
X117745319Y-76692978D01*
X117785847Y-76749892D01*
X117788436Y-76758335D01*
X117800259Y-76802459D01*
X117805230Y-76821010D01*
X117805231Y-76821011D01*
X117836345Y-76874900D01*
X117846766Y-76892949D01*
X117905507Y-76951690D01*
X117940300Y-76971778D01*
X117977444Y-76993224D01*
X117977445Y-76993225D01*
X117977447Y-76993225D01*
X117977450Y-76993227D01*
X118057692Y-77014728D01*
X118057695Y-77014728D01*
X118140761Y-77014728D01*
X118140764Y-77014728D01*
X118221006Y-76993227D01*
X118221008Y-76993225D01*
X118221010Y-76993225D01*
X118221011Y-76993224D01*
X118236121Y-76984500D01*
X118292949Y-76951690D01*
X118351690Y-76892949D01*
X118393227Y-76821006D01*
X118414728Y-76740764D01*
X118414728Y-76657692D01*
X118393227Y-76577450D01*
X118393225Y-76577447D01*
X118393225Y-76577445D01*
X118393224Y-76577444D01*
X118360511Y-76520785D01*
X118351690Y-76505507D01*
X118292949Y-76446766D01*
X118289724Y-76444904D01*
X118221011Y-76405231D01*
X118221010Y-76405230D01*
X118214429Y-76403466D01*
X118140764Y-76383728D01*
X118057692Y-76383728D01*
X118001286Y-76398841D01*
X117977445Y-76405230D01*
X117977444Y-76405231D01*
X117905513Y-76446762D01*
X117905504Y-76446768D01*
X117846768Y-76505504D01*
X117846763Y-76505510D01*
X117837944Y-76520785D01*
X117787374Y-76568998D01*
X117718766Y-76582217D01*
X117653903Y-76556245D01*
X117613378Y-76499329D01*
X117610792Y-76490894D01*
X117593999Y-76428222D01*
X117580724Y-76405230D01*
X117568174Y-76383492D01*
X117552462Y-76356279D01*
X117493721Y-76297538D01*
X117490496Y-76295676D01*
X117421783Y-76256003D01*
X117421782Y-76256002D01*
X117415201Y-76254238D01*
X117341536Y-76234500D01*
X117258464Y-76234500D01*
X117202058Y-76249613D01*
X117178217Y-76256002D01*
X117178216Y-76256003D01*
X117106285Y-76297534D01*
X117106276Y-76297540D01*
X117047540Y-76356276D01*
X117047534Y-76356285D01*
X117006003Y-76428216D01*
X117006002Y-76428217D01*
X116998563Y-76455980D01*
X116984500Y-76508464D01*
X116326045Y-76508464D01*
X116321783Y-76506003D01*
X116321782Y-76506002D01*
X116299673Y-76500078D01*
X116241536Y-76484500D01*
X116158464Y-76484500D01*
X116103122Y-76499329D01*
X116078217Y-76506002D01*
X116078216Y-76506003D01*
X116006285Y-76547534D01*
X116006276Y-76547540D01*
X115947540Y-76606276D01*
X115947534Y-76606285D01*
X115906003Y-76678216D01*
X115906002Y-76678217D01*
X115906001Y-76678222D01*
X115884500Y-76758464D01*
X115202102Y-76758464D01*
X115193999Y-76728222D01*
X115193997Y-76728219D01*
X115193997Y-76728217D01*
X115193996Y-76728216D01*
X115173230Y-76692250D01*
X115152462Y-76656279D01*
X115093721Y-76597538D01*
X115090496Y-76595676D01*
X115021783Y-76556003D01*
X115021782Y-76556002D01*
X115015201Y-76554238D01*
X114941536Y-76534500D01*
X114858464Y-76534500D01*
X114812527Y-76546809D01*
X114778217Y-76556002D01*
X114778216Y-76556003D01*
X114706285Y-76597534D01*
X114706276Y-76597540D01*
X114647540Y-76656276D01*
X114647534Y-76656285D01*
X114606003Y-76728216D01*
X114606002Y-76728217D01*
X114602704Y-76740526D01*
X114584500Y-76808464D01*
X100450500Y-76808464D01*
X100450500Y-75908464D01*
X105234500Y-75908464D01*
X105234500Y-75991536D01*
X105250825Y-76052462D01*
X105256002Y-76071782D01*
X105256003Y-76071783D01*
X105290210Y-76131029D01*
X105297538Y-76143721D01*
X105356279Y-76202462D01*
X105387920Y-76220730D01*
X105428216Y-76243996D01*
X105428217Y-76243997D01*
X105428219Y-76243997D01*
X105428222Y-76243999D01*
X105508464Y-76265500D01*
X105508467Y-76265500D01*
X105591533Y-76265500D01*
X105591536Y-76265500D01*
X105671778Y-76243999D01*
X105671780Y-76243997D01*
X105671782Y-76243997D01*
X105671783Y-76243996D01*
X105688230Y-76234500D01*
X105712080Y-76220730D01*
X121648778Y-76220730D01*
X121648778Y-76303802D01*
X121662841Y-76356285D01*
X121670280Y-76384048D01*
X121670281Y-76384049D01*
X121706490Y-76446762D01*
X121711816Y-76455987D01*
X121770557Y-76514728D01*
X121781048Y-76520785D01*
X121842494Y-76556262D01*
X121842495Y-76556263D01*
X121842497Y-76556263D01*
X121842500Y-76556265D01*
X121922742Y-76577766D01*
X121922745Y-76577766D01*
X122005812Y-76577766D01*
X122005814Y-76577766D01*
X122084715Y-76556624D01*
X122154563Y-76558285D01*
X122212426Y-76597447D01*
X122224191Y-76614392D01*
X122226706Y-76618747D01*
X122285447Y-76677488D01*
X122290200Y-76680232D01*
X122357384Y-76719022D01*
X122357385Y-76719023D01*
X122357387Y-76719023D01*
X122357390Y-76719025D01*
X122437632Y-76740526D01*
X122437635Y-76740526D01*
X122520701Y-76740526D01*
X122520704Y-76740526D01*
X122600946Y-76719025D01*
X122600948Y-76719023D01*
X122600950Y-76719023D01*
X122600951Y-76719022D01*
X122672889Y-76677488D01*
X122731630Y-76618747D01*
X122773167Y-76546804D01*
X122794668Y-76466562D01*
X122794668Y-76383490D01*
X122773167Y-76303248D01*
X122773165Y-76303245D01*
X122773165Y-76303243D01*
X122773164Y-76303242D01*
X122751373Y-76265500D01*
X122731630Y-76231305D01*
X122672889Y-76172564D01*
X122669664Y-76170702D01*
X122600951Y-76131029D01*
X122600950Y-76131028D01*
X122593400Y-76129005D01*
X122520704Y-76109526D01*
X122437632Y-76109526D01*
X122358730Y-76130668D01*
X122288881Y-76129005D01*
X122231018Y-76089842D01*
X122219249Y-76072891D01*
X122218609Y-76071782D01*
X122216740Y-76068545D01*
X122157999Y-76009804D01*
X122154774Y-76007942D01*
X122086061Y-75968269D01*
X122086060Y-75968268D01*
X122079479Y-75966504D01*
X122005814Y-75946766D01*
X121922742Y-75946766D01*
X121866336Y-75961879D01*
X121842495Y-75968268D01*
X121842494Y-75968269D01*
X121770563Y-76009800D01*
X121770554Y-76009806D01*
X121711818Y-76068542D01*
X121711812Y-76068551D01*
X121670281Y-76140482D01*
X121670280Y-76140483D01*
X121669412Y-76143723D01*
X121648778Y-76220730D01*
X105712080Y-76220730D01*
X105743721Y-76202462D01*
X105802462Y-76143721D01*
X105843999Y-76071778D01*
X105865500Y-75991536D01*
X105865500Y-75908464D01*
X105843999Y-75828222D01*
X105843997Y-75828219D01*
X105843997Y-75828217D01*
X105843996Y-75828216D01*
X105834829Y-75812338D01*
X105807786Y-75765500D01*
X105803724Y-75758464D01*
X106634500Y-75758464D01*
X106634500Y-75841536D01*
X106652434Y-75908466D01*
X106656002Y-75921782D01*
X106656003Y-75921783D01*
X106670428Y-75946766D01*
X106697538Y-75993721D01*
X106756279Y-76052462D01*
X106784130Y-76068542D01*
X106828216Y-76093996D01*
X106828217Y-76093997D01*
X106828219Y-76093997D01*
X106828222Y-76093999D01*
X106908464Y-76115500D01*
X106908467Y-76115500D01*
X106991533Y-76115500D01*
X106991536Y-76115500D01*
X107071778Y-76093999D01*
X107071780Y-76093997D01*
X107071782Y-76093997D01*
X107071783Y-76093996D01*
X107078978Y-76089842D01*
X107143721Y-76052462D01*
X107202462Y-75993721D01*
X107243999Y-75921778D01*
X107265500Y-75841536D01*
X107265500Y-75758464D01*
X107243999Y-75678222D01*
X107243997Y-75678219D01*
X107243997Y-75678217D01*
X107243996Y-75678216D01*
X107218756Y-75634500D01*
X107202462Y-75606279D01*
X107143721Y-75547538D01*
X107140496Y-75545676D01*
X107071783Y-75506003D01*
X107071782Y-75506002D01*
X107065201Y-75504238D01*
X106991536Y-75484500D01*
X106908464Y-75484500D01*
X106852058Y-75499613D01*
X106828217Y-75506002D01*
X106828216Y-75506003D01*
X106756285Y-75547534D01*
X106756276Y-75547540D01*
X106697540Y-75606276D01*
X106697534Y-75606285D01*
X106656003Y-75678216D01*
X106656002Y-75678217D01*
X106656001Y-75678222D01*
X106634500Y-75758464D01*
X105803724Y-75758464D01*
X105802462Y-75756279D01*
X105743721Y-75697538D01*
X105740496Y-75695676D01*
X105671783Y-75656003D01*
X105671782Y-75656002D01*
X105665201Y-75654238D01*
X105591536Y-75634500D01*
X105508464Y-75634500D01*
X105452058Y-75649613D01*
X105428217Y-75656002D01*
X105428216Y-75656003D01*
X105356285Y-75697534D01*
X105356276Y-75697540D01*
X105297540Y-75756276D01*
X105297534Y-75756285D01*
X105256003Y-75828216D01*
X105256002Y-75828217D01*
X105256001Y-75828222D01*
X105234500Y-75908464D01*
X100450500Y-75908464D01*
X100450500Y-75258464D01*
X115834500Y-75258464D01*
X115834500Y-75341536D01*
X115852434Y-75408466D01*
X115856002Y-75421782D01*
X115856003Y-75421783D01*
X115892214Y-75484500D01*
X115897538Y-75493721D01*
X115956279Y-75552462D01*
X115982434Y-75567563D01*
X116028216Y-75593996D01*
X116028217Y-75593997D01*
X116028219Y-75593997D01*
X116028222Y-75593999D01*
X116108464Y-75615500D01*
X116108467Y-75615500D01*
X116191533Y-75615500D01*
X116191536Y-75615500D01*
X116271778Y-75593999D01*
X116271780Y-75593997D01*
X116271782Y-75593997D01*
X116271783Y-75593996D01*
X116343721Y-75552462D01*
X116402462Y-75493721D01*
X116443999Y-75421778D01*
X116465500Y-75341536D01*
X116465500Y-75258464D01*
X116443999Y-75178222D01*
X116443997Y-75178219D01*
X116443997Y-75178217D01*
X116443996Y-75178216D01*
X116402465Y-75106285D01*
X116402462Y-75106279D01*
X116343721Y-75047538D01*
X116340496Y-75045676D01*
X116278964Y-75010149D01*
X121674500Y-75010149D01*
X121674500Y-75093221D01*
X121678001Y-75106285D01*
X121696002Y-75173467D01*
X121696003Y-75173468D01*
X121709902Y-75197540D01*
X121737538Y-75245406D01*
X121796279Y-75304147D01*
X121832250Y-75324915D01*
X121868216Y-75345681D01*
X121868217Y-75345682D01*
X121868219Y-75345682D01*
X121868222Y-75345684D01*
X121948464Y-75367185D01*
X121948467Y-75367185D01*
X122031533Y-75367185D01*
X122031536Y-75367185D01*
X122111778Y-75345684D01*
X122111780Y-75345682D01*
X122111782Y-75345682D01*
X122111783Y-75345681D01*
X122112542Y-75345243D01*
X122183721Y-75304147D01*
X122242462Y-75245406D01*
X122279114Y-75181924D01*
X124309500Y-75181924D01*
X124309500Y-75264996D01*
X124326440Y-75328216D01*
X124331002Y-75345242D01*
X124331003Y-75345243D01*
X124343672Y-75367185D01*
X124372538Y-75417181D01*
X124372540Y-75417183D01*
X124391905Y-75436548D01*
X124425390Y-75497871D01*
X124420406Y-75567563D01*
X124400724Y-75598482D01*
X124402485Y-75599833D01*
X124397540Y-75606276D01*
X124397538Y-75606279D01*
X124397536Y-75606282D01*
X124397534Y-75606285D01*
X124356003Y-75678216D01*
X124356002Y-75678217D01*
X124356001Y-75678222D01*
X124334500Y-75758464D01*
X124334500Y-75841536D01*
X124352434Y-75908466D01*
X124356002Y-75921782D01*
X124356003Y-75921783D01*
X124370428Y-75946766D01*
X124397538Y-75993721D01*
X124456279Y-76052462D01*
X124484130Y-76068542D01*
X124528216Y-76093996D01*
X124528217Y-76093997D01*
X124528219Y-76093997D01*
X124528222Y-76093999D01*
X124608464Y-76115500D01*
X124608467Y-76115500D01*
X124691533Y-76115500D01*
X124691536Y-76115500D01*
X124771778Y-76093999D01*
X124771780Y-76093997D01*
X124771782Y-76093997D01*
X124771783Y-76093996D01*
X124778978Y-76089842D01*
X124843721Y-76052462D01*
X124902462Y-75993721D01*
X124943999Y-75921778D01*
X124965500Y-75841536D01*
X124965500Y-75758464D01*
X124943999Y-75678222D01*
X124943997Y-75678219D01*
X124943997Y-75678217D01*
X124943996Y-75678216D01*
X124918756Y-75634500D01*
X124902462Y-75606279D01*
X124883094Y-75586911D01*
X124849609Y-75525588D01*
X124854593Y-75455896D01*
X124864569Y-75435227D01*
X124872383Y-75422259D01*
X124877462Y-75417181D01*
X124882495Y-75408464D01*
X126434500Y-75408464D01*
X126434500Y-75491536D01*
X126450825Y-75552462D01*
X126456002Y-75571782D01*
X126456003Y-75571783D01*
X126475920Y-75606279D01*
X126497538Y-75643721D01*
X126556279Y-75702462D01*
X126592250Y-75723230D01*
X126628216Y-75743996D01*
X126628217Y-75743997D01*
X126628219Y-75743997D01*
X126628222Y-75743999D01*
X126708464Y-75765500D01*
X126708467Y-75765500D01*
X126791533Y-75765500D01*
X126791536Y-75765500D01*
X126871778Y-75743999D01*
X126871780Y-75743997D01*
X126871782Y-75743997D01*
X126871783Y-75743996D01*
X126943721Y-75702462D01*
X127002462Y-75643721D01*
X127043999Y-75571778D01*
X127065500Y-75491536D01*
X127065500Y-75408464D01*
X127043999Y-75328222D01*
X127043997Y-75328219D01*
X127043997Y-75328217D01*
X127043996Y-75328216D01*
X127023230Y-75292250D01*
X127002462Y-75256279D01*
X126943721Y-75197538D01*
X126916681Y-75181926D01*
X126871783Y-75156003D01*
X126871782Y-75156002D01*
X126865201Y-75154238D01*
X126791536Y-75134500D01*
X126708464Y-75134500D01*
X126652058Y-75149613D01*
X126628217Y-75156002D01*
X126628216Y-75156003D01*
X126556285Y-75197534D01*
X126556276Y-75197540D01*
X126497540Y-75256276D01*
X126497534Y-75256285D01*
X126456003Y-75328216D01*
X126456002Y-75328217D01*
X126451322Y-75345684D01*
X126434500Y-75408464D01*
X124882495Y-75408464D01*
X124918999Y-75345238D01*
X124940500Y-75264996D01*
X124940500Y-75181924D01*
X124918999Y-75101682D01*
X124918997Y-75101679D01*
X124918997Y-75101677D01*
X124918996Y-75101676D01*
X124877466Y-75029745D01*
X124877463Y-75029742D01*
X124877462Y-75029739D01*
X124877459Y-75029736D01*
X124873356Y-75024389D01*
X124848161Y-74959220D01*
X124862198Y-74890775D01*
X124888933Y-74859168D01*
X124887974Y-74858209D01*
X124893721Y-74852462D01*
X124952462Y-74793721D01*
X124993999Y-74721778D01*
X125015500Y-74641536D01*
X125015500Y-74558464D01*
X124993999Y-74478222D01*
X124993997Y-74478219D01*
X124993997Y-74478217D01*
X124993996Y-74478216D01*
X124952465Y-74406285D01*
X124952462Y-74406279D01*
X124893721Y-74347538D01*
X124890496Y-74345676D01*
X124821783Y-74306003D01*
X124821782Y-74306002D01*
X124815201Y-74304238D01*
X124741536Y-74284500D01*
X124658464Y-74284500D01*
X124602058Y-74299613D01*
X124578217Y-74306002D01*
X124578216Y-74306003D01*
X124506285Y-74347534D01*
X124506276Y-74347540D01*
X124447540Y-74406276D01*
X124447534Y-74406285D01*
X124406003Y-74478216D01*
X124406002Y-74478217D01*
X124406001Y-74478222D01*
X124384500Y-74558464D01*
X124384500Y-74641536D01*
X124404238Y-74715201D01*
X124406002Y-74721782D01*
X124406003Y-74721783D01*
X124447533Y-74793714D01*
X124451644Y-74799071D01*
X124476838Y-74864240D01*
X124462800Y-74932685D01*
X124436069Y-74964294D01*
X124437026Y-74965251D01*
X124372540Y-75029736D01*
X124372534Y-75029745D01*
X124331003Y-75101676D01*
X124331002Y-75101677D01*
X124322659Y-75132813D01*
X124309500Y-75181924D01*
X122279114Y-75181924D01*
X122283999Y-75173463D01*
X122288092Y-75158185D01*
X122292510Y-75141702D01*
X122301999Y-75106285D01*
X122305500Y-75093221D01*
X122305500Y-75010149D01*
X122283999Y-74929907D01*
X122283997Y-74929904D01*
X122283997Y-74929902D01*
X122283996Y-74929901D01*
X122261406Y-74890775D01*
X122242462Y-74857964D01*
X122183721Y-74799223D01*
X122174195Y-74793723D01*
X122111783Y-74757688D01*
X122111782Y-74757687D01*
X122105201Y-74755923D01*
X122031536Y-74736185D01*
X121948464Y-74736185D01*
X121892058Y-74751298D01*
X121868217Y-74757687D01*
X121868216Y-74757688D01*
X121796285Y-74799219D01*
X121796276Y-74799225D01*
X121737540Y-74857961D01*
X121737534Y-74857970D01*
X121696003Y-74929901D01*
X121696002Y-74929902D01*
X121688147Y-74959220D01*
X121674500Y-75010149D01*
X116278964Y-75010149D01*
X116271783Y-75006003D01*
X116271782Y-75006002D01*
X116265201Y-75004238D01*
X116191536Y-74984500D01*
X116108464Y-74984500D01*
X116052058Y-74999613D01*
X116028217Y-75006002D01*
X116028216Y-75006003D01*
X115956285Y-75047534D01*
X115956276Y-75047540D01*
X115897540Y-75106276D01*
X115897534Y-75106285D01*
X115856003Y-75178216D01*
X115856002Y-75178217D01*
X115850826Y-75197534D01*
X115834500Y-75258464D01*
X100450500Y-75258464D01*
X100450500Y-74308464D01*
X110884500Y-74308464D01*
X110884500Y-74391536D01*
X110904238Y-74465201D01*
X110906002Y-74471782D01*
X110906003Y-74471783D01*
X110945676Y-74540496D01*
X110947538Y-74543721D01*
X111006279Y-74602462D01*
X111042250Y-74623230D01*
X111078216Y-74643996D01*
X111078217Y-74643997D01*
X111078219Y-74643997D01*
X111078222Y-74643999D01*
X111158464Y-74665500D01*
X111158467Y-74665500D01*
X111241533Y-74665500D01*
X111241536Y-74665500D01*
X111321778Y-74643999D01*
X111321780Y-74643997D01*
X111321782Y-74643997D01*
X111321783Y-74643996D01*
X111326049Y-74641533D01*
X111393721Y-74602462D01*
X111452462Y-74543721D01*
X111493999Y-74471778D01*
X111515500Y-74391536D01*
X111515500Y-74308464D01*
X111493999Y-74228222D01*
X111493997Y-74228219D01*
X111493997Y-74228217D01*
X111493996Y-74228216D01*
X111452465Y-74156285D01*
X111452462Y-74156279D01*
X111393721Y-74097538D01*
X111390496Y-74095676D01*
X111321783Y-74056003D01*
X111321782Y-74056002D01*
X111315201Y-74054238D01*
X111241536Y-74034500D01*
X111158464Y-74034500D01*
X111102058Y-74049613D01*
X111078217Y-74056002D01*
X111078216Y-74056003D01*
X111006285Y-74097534D01*
X111006276Y-74097540D01*
X110947540Y-74156276D01*
X110947534Y-74156285D01*
X110906003Y-74228216D01*
X110906002Y-74228217D01*
X110906001Y-74228222D01*
X110884500Y-74308464D01*
X100450500Y-74308464D01*
X100450500Y-73458464D01*
X121534500Y-73458464D01*
X121534500Y-73541536D01*
X121554238Y-73615201D01*
X121556002Y-73621782D01*
X121556003Y-73621783D01*
X121595676Y-73690496D01*
X121597538Y-73693721D01*
X121656279Y-73752462D01*
X121692250Y-73773230D01*
X121728216Y-73793996D01*
X121728217Y-73793997D01*
X121728219Y-73793997D01*
X121728222Y-73793999D01*
X121808464Y-73815500D01*
X121808467Y-73815500D01*
X121891533Y-73815500D01*
X121891536Y-73815500D01*
X121971778Y-73793999D01*
X121971780Y-73793997D01*
X121971782Y-73793997D01*
X121971783Y-73793996D01*
X122043721Y-73752462D01*
X122102462Y-73693721D01*
X122143999Y-73621778D01*
X122165500Y-73541536D01*
X122165500Y-73458464D01*
X122143999Y-73378222D01*
X122143997Y-73378219D01*
X122143997Y-73378217D01*
X122143996Y-73378216D01*
X122102465Y-73306285D01*
X122102462Y-73306279D01*
X122043721Y-73247538D01*
X122040496Y-73245676D01*
X121971783Y-73206003D01*
X121971782Y-73206002D01*
X121965201Y-73204238D01*
X121891536Y-73184500D01*
X121808464Y-73184500D01*
X121752058Y-73199613D01*
X121728217Y-73206002D01*
X121728216Y-73206003D01*
X121656285Y-73247534D01*
X121656276Y-73247540D01*
X121597540Y-73306276D01*
X121597534Y-73306285D01*
X121556003Y-73378216D01*
X121556002Y-73378217D01*
X121556001Y-73378222D01*
X121534500Y-73458464D01*
X100450500Y-73458464D01*
X100450500Y-72254051D01*
X100450763Y-72245972D01*
X100467503Y-71990575D01*
X100469617Y-71974523D01*
X100518749Y-71727521D01*
X100522947Y-71711856D01*
X100546978Y-71641061D01*
X100603899Y-71473378D01*
X100610097Y-71458413D01*
X100721490Y-71232529D01*
X100729587Y-71218505D01*
X100869521Y-71009079D01*
X100879359Y-70996256D01*
X101045438Y-70806881D01*
X101056881Y-70795438D01*
X101246256Y-70629359D01*
X101259079Y-70619521D01*
X101468505Y-70479587D01*
X101482529Y-70471490D01*
X101708413Y-70360097D01*
X101723378Y-70353899D01*
X101891061Y-70296978D01*
X101961856Y-70272947D01*
X101977523Y-70268749D01*
X102224523Y-70219617D01*
X102240575Y-70217503D01*
X102495971Y-70200764D01*
X102504052Y-70200500D01*
X102539882Y-70200500D01*
X132960118Y-70200500D01*
X132995948Y-70200500D01*
X133004028Y-70200764D01*
G37*
%TD.AperFunction*%
%TD*%
M02*
