%TF.GenerationSoftware,KiCad,Pcbnew,9.0.6*%
%TF.CreationDate,2025-11-04T18:35:38+01:00*%
%TF.ProjectId,Pixel,50697865-6c2e-46b6-9963-61645f706362,rev?*%
%TF.SameCoordinates,Original*%
%TF.FileFunction,Copper,L4,Inr*%
%TF.FilePolarity,Positive*%
%FSLAX46Y46*%
G04 Gerber Fmt 4.6, Leading zero omitted, Abs format (unit mm)*
G04 Created by KiCad (PCBNEW 9.0.6) date 2025-11-04 18:35:38*
%MOMM*%
%LPD*%
G01*
G04 APERTURE LIST*
%TA.AperFunction,ComponentPad*%
%ADD10O,1.200000X1.800000*%
%TD*%
%TA.AperFunction,ViaPad*%
%ADD11C,0.450000*%
%TD*%
%TA.AperFunction,ViaPad*%
%ADD12C,4.000000*%
%TD*%
%TA.AperFunction,Conductor*%
%ADD13C,0.400000*%
%TD*%
%TA.AperFunction,Conductor*%
%ADD14C,0.200000*%
%TD*%
%TA.AperFunction,Conductor*%
%ADD15C,0.300000*%
%TD*%
%TA.AperFunction,Conductor*%
%ADD16C,0.150000*%
%TD*%
%TA.AperFunction,Conductor*%
%ADD17C,0.110000*%
%TD*%
G04 APERTURE END LIST*
D10*
%TO.N,GND*%
%TO.C,J1*%
X115320000Y-102997500D03*
X106680000Y-102997500D03*
%TD*%
D11*
%TO.N,GND*%
X114800000Y-99200000D03*
X116200000Y-84400000D03*
X103200000Y-99200000D03*
X122400000Y-91800000D03*
X130450000Y-94800000D03*
X112000000Y-99400000D03*
X104550000Y-86850000D03*
X122600000Y-94000000D03*
X122850000Y-83200000D03*
X108000000Y-103800000D03*
X111600000Y-87400000D03*
X126000000Y-72000000D03*
X102400000Y-96400000D03*
X103650000Y-97550000D03*
X125600000Y-99300000D03*
X109800000Y-90200000D03*
X122500000Y-98650000D03*
X118850000Y-90050000D03*
X119400000Y-95400000D03*
X112650000Y-79250000D03*
X133500000Y-90000000D03*
X118550000Y-84150000D03*
X129500000Y-77500000D03*
X119000000Y-97800000D03*
X117450000Y-97900000D03*
X133000000Y-79500000D03*
X112200000Y-85600000D03*
X129800000Y-104300000D03*
X111200000Y-102200000D03*
X118600000Y-99400000D03*
X126350000Y-104150000D03*
X110000000Y-83500000D03*
X122664000Y-85681000D03*
X118000000Y-72000000D03*
D12*
X102500000Y-72250000D03*
D11*
X120300000Y-80600000D03*
X110650000Y-93150000D03*
X123250000Y-98150000D03*
X122000000Y-72000000D03*
X126200000Y-86900000D03*
D12*
X102500000Y-102750000D03*
D11*
X129500000Y-72000000D03*
X129650000Y-96400000D03*
X113200000Y-72300000D03*
X114550000Y-83550000D03*
X126500000Y-94000000D03*
X104850000Y-74700000D03*
X107200000Y-99200000D03*
X133000000Y-81500000D03*
X111250000Y-76750000D03*
X130450000Y-95700000D03*
X110050000Y-96850000D03*
X127100000Y-86900000D03*
X129500000Y-74500000D03*
X117400000Y-82600000D03*
X131000000Y-80000000D03*
D12*
X133000000Y-72250000D03*
D11*
X122750000Y-87520000D03*
X106900000Y-78700000D03*
X113300000Y-94150000D03*
X127150000Y-87700000D03*
X133550000Y-95600000D03*
X120300000Y-73950000D03*
X112500000Y-96750000D03*
X121550000Y-85300000D03*
X122150000Y-90250000D03*
X105000000Y-93400000D03*
X101800000Y-90800000D03*
X105750000Y-80500000D03*
X109800000Y-99400000D03*
X101650000Y-81150000D03*
X124000000Y-78800000D03*
X133500000Y-85500000D03*
X131600000Y-99500000D03*
X107900000Y-76400000D03*
X114650000Y-77500000D03*
X107000000Y-92400000D03*
X104200000Y-90600000D03*
X103100000Y-76550000D03*
X121600000Y-81800000D03*
X113100000Y-90000000D03*
D12*
X133000000Y-102750000D03*
D11*
X133500000Y-88000000D03*
X107800000Y-75350000D03*
X114600000Y-85800000D03*
X120000000Y-82400000D03*
X133500000Y-83500000D03*
X132000000Y-76000000D03*
X132550000Y-91000000D03*
X122800000Y-80800000D03*
X122400000Y-75800000D03*
X119200000Y-87150000D03*
X124200000Y-92400000D03*
X116250000Y-89800000D03*
X117800000Y-75200000D03*
%TO.N,+3V3*%
X121550000Y-79900000D03*
X111200000Y-74350000D03*
X126750000Y-75450000D03*
X127500000Y-82730000D03*
X124900000Y-88900000D03*
X125750000Y-100250000D03*
X132350000Y-89600000D03*
X130090000Y-86550000D03*
X123910000Y-83300000D03*
X105550000Y-75950000D03*
X129760000Y-100100000D03*
X128350000Y-89850000D03*
X133250000Y-92250000D03*
X131700000Y-84300000D03*
X114900000Y-76850000D03*
X111245433Y-80496427D03*
X125550000Y-90150000D03*
X123050000Y-84350000D03*
X115300000Y-82800000D03*
%TO.N,+1V1*%
X125800000Y-84900000D03*
X126850000Y-90000000D03*
X127650000Y-84800000D03*
%TO.N,+5V*%
X100800000Y-93500000D03*
X108900000Y-97150000D03*
X134800000Y-90950000D03*
X126700000Y-98650000D03*
X108650000Y-95550000D03*
X120750000Y-78490000D03*
X123000000Y-96350000D03*
X113500000Y-97050000D03*
X114350000Y-87250000D03*
X104150000Y-77950000D03*
%TO.N,/BLACK_ADC*%
X104050000Y-95300000D03*
X124533728Y-77168897D03*
X108200000Y-94750000D03*
X123374509Y-86151370D03*
X102450000Y-79700000D03*
%TO.N,/WHITE_ADC*%
X117300000Y-76550000D03*
X122850000Y-86650000D03*
X112426097Y-81710001D03*
X119132543Y-78619000D03*
%TO.N,Net-(U4C-+)*%
X118099228Y-76699228D03*
X105600000Y-81150000D03*
%TO.N,/GREY4*%
X108900000Y-86450000D03*
X121990000Y-75051685D03*
%TO.N,/GREY3*%
X108300000Y-88950000D03*
X121964278Y-76262266D03*
%TO.N,/GREY2*%
X122479168Y-76425026D03*
X108250000Y-90750000D03*
%TO.N,/GREY1*%
X122510000Y-78077470D03*
X108200000Y-92500000D03*
%TO.N,+10V*%
X123450000Y-95137500D03*
X134250000Y-86750000D03*
X101250000Y-82250000D03*
X125000000Y-95025000D03*
%TO.N,/VIDEO_IN*%
X132850000Y-82250000D03*
X120800000Y-84450000D03*
%TO.N,Net-(J1-D+-PadA6)*%
X125200000Y-80450000D03*
X111250000Y-96800000D03*
%TO.N,Net-(J1-D--PadA7)*%
X111700000Y-97150000D03*
X124980684Y-80943460D03*
%TO.N,/TX0*%
X130900000Y-91000000D03*
X102200000Y-99250000D03*
%TO.N,/RX0*%
X103050000Y-98550000D03*
X130320394Y-91648610D03*
%TO.N,/SWCLK*%
X133150000Y-96650000D03*
X126256542Y-91675000D03*
%TO.N,/SWDIO*%
X125690000Y-91690000D03*
X133100000Y-98950000D03*
%TO.N,/TX1*%
X104900000Y-89350000D03*
X122838358Y-89210000D03*
%TO.N,/RX1*%
X104850000Y-87500000D03*
X123331512Y-88990000D03*
%TO.N,/SYNC_CLAMP*%
X129395707Y-90055707D03*
X120350000Y-83450000D03*
%TO.N,/COMPOSITE_SYNC*%
X131700000Y-86500000D03*
X117190621Y-92892734D03*
%TO.N,/VSYNC*%
X119250000Y-92800000D03*
X132651631Y-86737546D03*
%TO.N,/BACK_PORCH*%
X113150000Y-92850000D03*
X129800000Y-89650000D03*
%TO.N,/ODD_FRAME*%
X115250000Y-92800000D03*
X131695031Y-87652832D03*
%TO.N,Net-(U1-QSPI_SS)*%
X131350000Y-81800000D03*
X132050000Y-77300000D03*
%TO.N,Net-(R15-Pad1)*%
X121350000Y-101600000D03*
X132400000Y-83900000D03*
%TO.N,/VBLACK_PWM*%
X122650000Y-80250000D03*
X121850000Y-73500000D03*
%TO.N,/VWHITE_PWM*%
X123253240Y-87973678D03*
X120250000Y-87300000D03*
%TO.N,Net-(U8-FB)*%
X123950000Y-93700000D03*
X124350888Y-97186291D03*
%TO.N,/VIDEO_IN_CLAMP*%
X118100000Y-80900000D03*
X106950000Y-75800000D03*
%TO.N,/WHITE_SELECT*%
X123400000Y-86940000D03*
X111900000Y-80300000D03*
%TO.N,/BLACK_SELECT*%
X116150000Y-75300000D03*
X125350000Y-87850000D03*
%TO.N,/VSEL1*%
X129650000Y-88090000D03*
X124625000Y-75223460D03*
%TO.N,/VSEL2*%
X130100000Y-88490000D03*
X124700000Y-74600000D03*
%TO.N,/VSEL0*%
X124650000Y-75800000D03*
X129415002Y-87600000D03*
%TO.N,/BLACK_CHG*%
X129395171Y-89210001D03*
X107900000Y-78100000D03*
%TO.N,Net-(U4D-+)*%
X116200000Y-76800000D03*
X105600000Y-79650000D03*
%TD*%
D13*
%TO.N,+3V3*%
X126000000Y-98800000D02*
X127450000Y-100250000D01*
D14*
X121550000Y-79900000D02*
X121550000Y-78701687D01*
D13*
X133250000Y-92250000D02*
X132050000Y-92250000D01*
X127200000Y-100250000D02*
X125750000Y-100250000D01*
D14*
X121550000Y-78701687D02*
X120922313Y-78074000D01*
X120276000Y-78074000D02*
X115550000Y-82800000D01*
D13*
X132050000Y-92250000D02*
X126000000Y-98300000D01*
X129610000Y-100250000D02*
X127450000Y-100250000D01*
X129760000Y-100100000D02*
X129610000Y-100250000D01*
X126000000Y-98300000D02*
X126000000Y-98800000D01*
D14*
X120922313Y-78074000D02*
X120276000Y-78074000D01*
D13*
X127450000Y-100250000D02*
X127200000Y-100250000D01*
D14*
X115550000Y-82800000D02*
X115300000Y-82800000D01*
%TO.N,+5V*%
X107784000Y-94922313D02*
X108411687Y-95550000D01*
X114350000Y-87250000D02*
X107784000Y-93816000D01*
D15*
X100800000Y-93500000D02*
X100700000Y-93400000D01*
X104450000Y-97150000D02*
X100800000Y-93500000D01*
X103540976Y-77950000D02*
X104150000Y-77950000D01*
X123000000Y-96350000D02*
X122300000Y-97050000D01*
X112934000Y-97616000D02*
X109366000Y-97616000D01*
X122300000Y-97050000D02*
X113500000Y-97050000D01*
X134800000Y-90950000D02*
X134800000Y-92600000D01*
D14*
X114350000Y-87250000D02*
X120750000Y-80850000D01*
X108411687Y-95550000D02*
X108650000Y-95550000D01*
D15*
X134800000Y-92600000D02*
X128750000Y-98650000D01*
X100700000Y-80790976D02*
X103540976Y-77950000D01*
D14*
X107784000Y-93816000D02*
X107784000Y-94922313D01*
D15*
X108900000Y-97150000D02*
X104450000Y-97150000D01*
X128750000Y-98650000D02*
X126700000Y-98650000D01*
X113500000Y-97050000D02*
X112934000Y-97616000D01*
X100700000Y-93400000D02*
X100700000Y-80790976D01*
X109366000Y-97616000D02*
X108900000Y-97150000D01*
D14*
X120750000Y-80850000D02*
X120750000Y-78490000D01*
D16*
%TO.N,/BLACK_ADC*%
X124600000Y-80097042D02*
X119148630Y-85548412D01*
X102450000Y-79700000D02*
X102350000Y-79800000D01*
X102350000Y-93600000D02*
X104050000Y-95300000D01*
X119148630Y-85548412D02*
X119148630Y-86151370D01*
X102350000Y-79800000D02*
X102350000Y-92600000D01*
X113150000Y-92150000D02*
X119148630Y-86151370D01*
X110550000Y-94750000D02*
X113150000Y-92150000D01*
X124600000Y-77235169D02*
X124600000Y-80097042D01*
X102350000Y-92600000D02*
X102350000Y-93600000D01*
X119148630Y-86151370D02*
X123374509Y-86151370D01*
X108200000Y-94750000D02*
X110550000Y-94750000D01*
X124533728Y-77168897D02*
X124600000Y-77235169D01*
%TO.N,/WHITE_ADC*%
X112426097Y-81710001D02*
X112426097Y-81423903D01*
X112426097Y-81423903D02*
X117300000Y-76550000D01*
%TO.N,Net-(U4C-+)*%
X105600000Y-81150000D02*
X106550000Y-82100000D01*
X112698456Y-82100000D02*
X118099228Y-76699228D01*
X106550000Y-82100000D02*
X112698456Y-82100000D01*
%TO.N,/GREY4*%
X120298315Y-75051685D02*
X108900000Y-86450000D01*
X121990000Y-75051685D02*
X120298315Y-75051685D01*
%TO.N,/GREY3*%
X121964278Y-76262266D02*
X119737734Y-76262266D01*
X119737734Y-76262266D02*
X110450000Y-85550000D01*
X110450000Y-85550000D02*
X108300000Y-87700000D01*
X108300000Y-87700000D02*
X108300000Y-88950000D01*
%TO.N,/GREY2*%
X122204194Y-76700000D02*
X120100000Y-76700000D01*
X108800000Y-90200000D02*
X108250000Y-90750000D01*
X122479168Y-76425026D02*
X122204194Y-76700000D01*
X108800000Y-88000000D02*
X108800000Y-90200000D01*
X120100000Y-76700000D02*
X108800000Y-88000000D01*
%TO.N,/GREY1*%
X109250000Y-87950000D02*
X109250000Y-91450000D01*
X122232530Y-77800000D02*
X119400000Y-77800000D01*
X122510000Y-78077470D02*
X122232530Y-77800000D01*
X119400000Y-77800000D02*
X109250000Y-87950000D01*
X109250000Y-91450000D02*
X108200000Y-92500000D01*
D15*
%TO.N,+10V*%
X104150000Y-96100000D02*
X101250000Y-93200000D01*
X123450000Y-95137500D02*
X122487500Y-96100000D01*
X101250000Y-93200000D02*
X101250000Y-82250000D01*
X122487500Y-96100000D02*
X104150000Y-96100000D01*
D16*
%TO.N,/VIDEO_IN*%
X123000000Y-82250000D02*
X120800000Y-84450000D01*
X132850000Y-82250000D02*
X123000000Y-82250000D01*
%TO.N,/TX0*%
X120800000Y-99950000D02*
X102900000Y-99950000D01*
X122571962Y-99950000D02*
X120800000Y-99950000D01*
X130900000Y-91000000D02*
X130900000Y-91621962D01*
X130900000Y-91621962D02*
X122571962Y-99950000D01*
X102900000Y-99950000D02*
X102200000Y-99250000D01*
%TO.N,/RX0*%
X103050000Y-98550000D02*
X118950000Y-98550000D01*
X130320394Y-91769743D02*
X130320394Y-91648610D01*
X118950000Y-98550000D02*
X119950000Y-99550000D01*
X122540137Y-99550000D02*
X130320394Y-91769743D01*
X119950000Y-99550000D02*
X122540137Y-99550000D01*
%TO.N,/COMPOSITE_SYNC*%
X117207266Y-92892734D02*
X117190621Y-92892734D01*
X132600000Y-87300000D02*
X132600000Y-88150000D01*
X131700000Y-86500000D02*
X131800000Y-86500000D01*
X131800000Y-86500000D02*
X132600000Y-87300000D01*
X129500000Y-91250000D02*
X118850000Y-91250000D01*
X118850000Y-91250000D02*
X117207266Y-92892734D01*
X132600000Y-88150000D02*
X129500000Y-91250000D01*
%TO.N,/VSYNC*%
X132841000Y-88249825D02*
X132841000Y-86926915D01*
X132841000Y-86926915D02*
X132651631Y-86737546D01*
X128290825Y-92800000D02*
X132841000Y-88249825D01*
X119250000Y-92800000D02*
X128290825Y-92800000D01*
%TO.N,/BACK_PORCH*%
X129300174Y-90759000D02*
X115241000Y-90759000D01*
X129800000Y-89650000D02*
X129800000Y-90259174D01*
X129750000Y-89600000D02*
X129800000Y-89650000D01*
X113150000Y-92850000D02*
X115241000Y-90759000D01*
X129800000Y-90259174D02*
X129300174Y-90759000D01*
%TO.N,/ODD_FRAME*%
X129400000Y-91000000D02*
X131695031Y-88704969D01*
X131695031Y-88704969D02*
X131695031Y-87652832D01*
X117050000Y-91000000D02*
X129400000Y-91000000D01*
X115250000Y-92800000D02*
X117050000Y-91000000D01*
D17*
%TO.N,Net-(U1-QSPI_SS)*%
X132050000Y-77300000D02*
X132050000Y-81100000D01*
X132050000Y-81100000D02*
X131350000Y-81800000D01*
D16*
%TO.N,Net-(R15-Pad1)*%
X133082000Y-89868000D02*
X133082000Y-84582000D01*
X121350000Y-101600000D02*
X133082000Y-89868000D01*
X133082000Y-84582000D02*
X132400000Y-83900000D01*
%TO.N,/VBLACK_PWM*%
X122901000Y-74551000D02*
X121850000Y-73500000D01*
X122650000Y-80250000D02*
X122901000Y-79999000D01*
X122901000Y-79999000D02*
X122901000Y-74551000D01*
%TO.N,/VWHITE_PWM*%
X120250000Y-87300000D02*
X120923678Y-87973678D01*
X120923678Y-87973678D02*
X123253240Y-87973678D01*
%TO.N,Net-(U8-FB)*%
X123950000Y-96785403D02*
X123950000Y-93700000D01*
X124350888Y-97186291D02*
X123950000Y-96785403D01*
%TO.N,Net-(U4D-+)*%
X105600000Y-79650000D02*
X113350000Y-79650000D01*
X113350000Y-79650000D02*
X116200000Y-76800000D01*
%TD*%
%TA.AperFunction,Conductor*%
%TO.N,GND*%
G36*
X133004028Y-70200764D02*
G01*
X133259422Y-70217503D01*
X133275478Y-70219618D01*
X133457231Y-70255770D01*
X133522476Y-70268749D01*
X133538143Y-70272947D01*
X133669337Y-70317481D01*
X133776615Y-70353897D01*
X133791592Y-70360100D01*
X133994549Y-70460187D01*
X134017464Y-70471488D01*
X134031500Y-70479591D01*
X134240913Y-70619515D01*
X134253750Y-70629365D01*
X134443110Y-70795431D01*
X134454568Y-70806889D01*
X134620632Y-70996247D01*
X134630485Y-71009089D01*
X134770405Y-71218494D01*
X134778511Y-71232535D01*
X134889896Y-71458400D01*
X134896103Y-71473386D01*
X134977052Y-71711856D01*
X134981250Y-71727523D01*
X135030380Y-71974516D01*
X135032497Y-71990597D01*
X135049234Y-72245941D01*
X135049500Y-72254051D01*
X135049500Y-90492389D01*
X135029815Y-90559428D01*
X134977011Y-90605183D01*
X134907853Y-90615127D01*
X134893407Y-90612164D01*
X134867353Y-90605183D01*
X134846144Y-90599500D01*
X134753856Y-90599500D01*
X134664712Y-90623386D01*
X134664711Y-90623386D01*
X134664709Y-90623387D01*
X134664706Y-90623388D01*
X134584794Y-90669526D01*
X134584785Y-90669533D01*
X134519533Y-90734785D01*
X134519526Y-90734794D01*
X134473388Y-90814706D01*
X134473387Y-90814709D01*
X134473386Y-90814711D01*
X134473386Y-90814712D01*
X134449500Y-90903856D01*
X134449500Y-90996144D01*
X134468257Y-91066147D01*
X134473387Y-91085290D01*
X134473388Y-91085293D01*
X134519526Y-91165205D01*
X134519533Y-91165214D01*
X134523181Y-91168862D01*
X134556666Y-91230185D01*
X134559500Y-91256543D01*
X134559500Y-92449019D01*
X134539815Y-92516058D01*
X134523181Y-92536700D01*
X128686700Y-98373181D01*
X128625377Y-98406666D01*
X128599019Y-98409500D01*
X127006543Y-98409500D01*
X126939504Y-98389815D01*
X126918862Y-98373181D01*
X126915214Y-98369533D01*
X126915212Y-98369531D01*
X126915209Y-98369529D01*
X126915205Y-98369526D01*
X126835293Y-98323388D01*
X126835290Y-98323387D01*
X126835289Y-98323386D01*
X126835288Y-98323386D01*
X126746144Y-98299500D01*
X126710691Y-98299500D01*
X126643652Y-98279815D01*
X126597897Y-98227011D01*
X126587953Y-98157853D01*
X126616978Y-98094297D01*
X126623010Y-98087819D01*
X132134010Y-92576819D01*
X132195333Y-92543334D01*
X132221691Y-92540500D01*
X133098839Y-92540500D01*
X133130929Y-92544724D01*
X133208464Y-92565500D01*
X133208466Y-92565500D01*
X133291533Y-92565500D01*
X133291536Y-92565500D01*
X133371778Y-92543999D01*
X133371780Y-92543997D01*
X133371782Y-92543997D01*
X133371783Y-92543996D01*
X133372930Y-92543334D01*
X133443721Y-92502462D01*
X133502462Y-92443721D01*
X133543999Y-92371778D01*
X133565500Y-92291536D01*
X133565500Y-92208464D01*
X133543999Y-92128222D01*
X133543997Y-92128219D01*
X133543997Y-92128217D01*
X133543996Y-92128216D01*
X133502465Y-92056285D01*
X133502462Y-92056279D01*
X133443721Y-91997538D01*
X133431531Y-91990500D01*
X133371783Y-91956003D01*
X133371782Y-91956002D01*
X133365201Y-91954238D01*
X133291536Y-91934500D01*
X133208464Y-91934500D01*
X133130929Y-91955275D01*
X133098839Y-91959500D01*
X132011755Y-91959500D01*
X131937869Y-91979297D01*
X131871629Y-92017542D01*
X131871626Y-92017544D01*
X125767544Y-98121626D01*
X125767542Y-98121629D01*
X125729297Y-98187869D01*
X125716803Y-98234500D01*
X125709500Y-98261755D01*
X125709500Y-98761755D01*
X125709500Y-98838245D01*
X125713691Y-98853885D01*
X125729297Y-98912130D01*
X125742213Y-98934500D01*
X125767542Y-98978371D01*
X125767544Y-98978373D01*
X126536990Y-99747819D01*
X126570475Y-99809142D01*
X126565491Y-99878834D01*
X126523619Y-99934767D01*
X126458155Y-99959184D01*
X126449309Y-99959500D01*
X125901161Y-99959500D01*
X125869070Y-99955275D01*
X125791536Y-99934500D01*
X125708464Y-99934500D01*
X125652058Y-99949613D01*
X125628217Y-99956002D01*
X125628216Y-99956003D01*
X125556285Y-99997534D01*
X125556276Y-99997540D01*
X125497540Y-100056276D01*
X125497534Y-100056285D01*
X125456003Y-100128216D01*
X125456002Y-100128217D01*
X125456001Y-100128222D01*
X125434500Y-100208464D01*
X125434500Y-100291536D01*
X125450825Y-100352462D01*
X125456002Y-100371782D01*
X125456003Y-100371783D01*
X125469876Y-100395810D01*
X125497538Y-100443721D01*
X125556279Y-100502462D01*
X125587871Y-100520702D01*
X125628216Y-100543996D01*
X125628217Y-100543997D01*
X125628219Y-100543997D01*
X125628222Y-100543999D01*
X125708464Y-100565500D01*
X125708467Y-100565500D01*
X125791533Y-100565500D01*
X125791536Y-100565500D01*
X125869070Y-100544724D01*
X125901161Y-100540500D01*
X129648243Y-100540500D01*
X129648245Y-100540500D01*
X129722129Y-100520703D01*
X129788371Y-100482458D01*
X129858526Y-100412301D01*
X129884202Y-100392599D01*
X129953721Y-100352462D01*
X130012462Y-100293721D01*
X130053999Y-100221778D01*
X130075500Y-100141536D01*
X130075500Y-100058464D01*
X130053999Y-99978222D01*
X130053997Y-99978219D01*
X130053997Y-99978217D01*
X130053996Y-99978216D01*
X130028756Y-99934500D01*
X130012462Y-99906279D01*
X129953721Y-99847538D01*
X129950496Y-99845676D01*
X129881783Y-99806003D01*
X129881782Y-99806002D01*
X129875201Y-99804238D01*
X129801536Y-99784500D01*
X129718464Y-99784500D01*
X129662058Y-99799613D01*
X129638217Y-99806002D01*
X129638216Y-99806003D01*
X129566285Y-99847534D01*
X129566280Y-99847537D01*
X129507537Y-99906279D01*
X129503927Y-99910985D01*
X129447500Y-99952188D01*
X129405550Y-99959500D01*
X127621691Y-99959500D01*
X127554652Y-99939815D01*
X127534010Y-99923181D01*
X126791259Y-99180430D01*
X126757774Y-99119107D01*
X126762758Y-99049415D01*
X126804630Y-98993482D01*
X126814118Y-98987041D01*
X126827888Y-98978596D01*
X126835288Y-98976614D01*
X126915212Y-98930469D01*
X126929228Y-98916452D01*
X126941721Y-98908792D01*
X126942932Y-98908464D01*
X132784500Y-98908464D01*
X132784500Y-98991536D01*
X132790744Y-99014838D01*
X132806002Y-99071782D01*
X132806003Y-99071783D01*
X132838589Y-99128222D01*
X132847538Y-99143721D01*
X132906279Y-99202462D01*
X132942250Y-99223230D01*
X132978216Y-99243996D01*
X132978217Y-99243997D01*
X132978219Y-99243997D01*
X132978222Y-99243999D01*
X133058464Y-99265500D01*
X133058467Y-99265500D01*
X133141533Y-99265500D01*
X133141536Y-99265500D01*
X133221778Y-99243999D01*
X133221780Y-99243997D01*
X133221782Y-99243997D01*
X133221783Y-99243996D01*
X133293721Y-99202462D01*
X133352462Y-99143721D01*
X133393999Y-99071778D01*
X133415500Y-98991536D01*
X133415500Y-98908464D01*
X133393999Y-98828222D01*
X133393997Y-98828219D01*
X133393997Y-98828217D01*
X133393996Y-98828216D01*
X133357607Y-98765190D01*
X133352462Y-98756279D01*
X133293721Y-98697538D01*
X133290496Y-98695676D01*
X133221783Y-98656003D01*
X133221782Y-98656002D01*
X133215201Y-98654238D01*
X133141536Y-98634500D01*
X133058464Y-98634500D01*
X133002058Y-98649613D01*
X132978217Y-98656002D01*
X132978216Y-98656003D01*
X132906285Y-98697534D01*
X132906276Y-98697540D01*
X132847540Y-98756276D01*
X132847534Y-98756285D01*
X132806003Y-98828216D01*
X132806002Y-98828217D01*
X132799124Y-98853886D01*
X132784500Y-98908464D01*
X126942932Y-98908464D01*
X126961868Y-98903335D01*
X126980185Y-98893334D01*
X127006543Y-98890500D01*
X128797837Y-98890500D01*
X128797839Y-98890500D01*
X128886233Y-98853886D01*
X131131655Y-96608464D01*
X132834500Y-96608464D01*
X132834500Y-96691536D01*
X132852434Y-96758466D01*
X132856002Y-96771782D01*
X132856003Y-96771783D01*
X132892198Y-96834472D01*
X132897538Y-96843721D01*
X132956279Y-96902462D01*
X132989735Y-96921778D01*
X133028216Y-96943996D01*
X133028217Y-96943997D01*
X133028219Y-96943997D01*
X133028222Y-96943999D01*
X133108464Y-96965500D01*
X133108467Y-96965500D01*
X133191533Y-96965500D01*
X133191536Y-96965500D01*
X133271778Y-96943999D01*
X133271780Y-96943997D01*
X133271782Y-96943997D01*
X133271783Y-96943996D01*
X133287721Y-96934794D01*
X133343721Y-96902462D01*
X133402462Y-96843721D01*
X133443999Y-96771778D01*
X133465500Y-96691536D01*
X133465500Y-96608464D01*
X133443999Y-96528222D01*
X133443997Y-96528219D01*
X133443997Y-96528217D01*
X133443996Y-96528216D01*
X133422427Y-96490858D01*
X133402462Y-96456279D01*
X133343721Y-96397538D01*
X133340496Y-96395676D01*
X133271783Y-96356003D01*
X133271782Y-96356002D01*
X133265201Y-96354238D01*
X133191536Y-96334500D01*
X133108464Y-96334500D01*
X133052058Y-96349613D01*
X133028217Y-96356002D01*
X133028216Y-96356003D01*
X132956285Y-96397534D01*
X132956276Y-96397540D01*
X132897540Y-96456276D01*
X132897534Y-96456285D01*
X132856003Y-96528216D01*
X132856002Y-96528217D01*
X132856001Y-96528222D01*
X132834500Y-96608464D01*
X131131655Y-96608464D01*
X134837819Y-92902300D01*
X134899142Y-92868815D01*
X134968834Y-92873799D01*
X135024767Y-92915671D01*
X135049184Y-92981135D01*
X135049500Y-92989981D01*
X135049500Y-102745948D01*
X135049234Y-102754058D01*
X135032497Y-103009402D01*
X135030380Y-103025483D01*
X134981250Y-103272476D01*
X134977052Y-103288143D01*
X134896103Y-103526613D01*
X134889896Y-103541599D01*
X134778511Y-103767464D01*
X134770402Y-103781510D01*
X134630490Y-103990903D01*
X134620626Y-104003759D01*
X134573661Y-104057313D01*
X134454573Y-104193105D01*
X134443105Y-104204573D01*
X134390737Y-104250499D01*
X134253759Y-104370626D01*
X134240903Y-104380490D01*
X134061546Y-104500332D01*
X134031510Y-104520402D01*
X134017464Y-104528511D01*
X133791599Y-104639896D01*
X133776613Y-104646103D01*
X133538143Y-104727052D01*
X133522476Y-104731250D01*
X133275483Y-104780380D01*
X133259402Y-104782497D01*
X133004058Y-104799234D01*
X132995948Y-104799500D01*
X102504052Y-104799500D01*
X102495942Y-104799234D01*
X102240597Y-104782497D01*
X102224516Y-104780380D01*
X101977523Y-104731250D01*
X101961856Y-104727052D01*
X101723386Y-104646103D01*
X101708400Y-104639896D01*
X101482535Y-104528511D01*
X101468494Y-104520405D01*
X101259089Y-104380485D01*
X101246247Y-104370632D01*
X101056889Y-104204568D01*
X101045431Y-104193110D01*
X100879365Y-104003750D01*
X100869515Y-103990913D01*
X100729591Y-103781500D01*
X100721487Y-103767463D01*
X100703419Y-103730824D01*
X100703418Y-103730822D01*
X100680381Y-103684108D01*
X118149500Y-103684108D01*
X118149500Y-103815891D01*
X118183608Y-103943187D01*
X118211153Y-103990895D01*
X118249500Y-104057314D01*
X118342686Y-104150500D01*
X118456814Y-104216392D01*
X118584108Y-104250500D01*
X118584110Y-104250500D01*
X118715890Y-104250500D01*
X118715892Y-104250500D01*
X118843186Y-104216392D01*
X118957314Y-104150500D01*
X119050500Y-104057314D01*
X119116392Y-103943186D01*
X119150500Y-103815892D01*
X119150500Y-103684108D01*
X119849500Y-103684108D01*
X119849500Y-103815891D01*
X119883608Y-103943187D01*
X119911153Y-103990895D01*
X119949500Y-104057314D01*
X120042686Y-104150500D01*
X120156814Y-104216392D01*
X120284108Y-104250500D01*
X120284110Y-104250500D01*
X120415890Y-104250500D01*
X120415892Y-104250500D01*
X120543186Y-104216392D01*
X120657314Y-104150500D01*
X120750500Y-104057314D01*
X120816392Y-103943186D01*
X120850500Y-103815892D01*
X120850500Y-103684108D01*
X120816392Y-103556814D01*
X120750500Y-103442686D01*
X120657314Y-103349500D01*
X120600250Y-103316554D01*
X120543187Y-103283608D01*
X120479539Y-103266554D01*
X120415892Y-103249500D01*
X120284108Y-103249500D01*
X120156812Y-103283608D01*
X120042686Y-103349500D01*
X120042683Y-103349502D01*
X119949502Y-103442683D01*
X119949500Y-103442686D01*
X119883608Y-103556812D01*
X119849500Y-103684108D01*
X119150500Y-103684108D01*
X119116392Y-103556814D01*
X119050500Y-103442686D01*
X118957314Y-103349500D01*
X118900250Y-103316554D01*
X118843187Y-103283608D01*
X118779539Y-103266554D01*
X118715892Y-103249500D01*
X118584108Y-103249500D01*
X118456812Y-103283608D01*
X118342686Y-103349500D01*
X118342683Y-103349502D01*
X118249502Y-103442683D01*
X118249500Y-103442686D01*
X118183608Y-103556812D01*
X118149500Y-103684108D01*
X100680381Y-103684108D01*
X100610100Y-103541592D01*
X100603896Y-103526613D01*
X100522947Y-103288143D01*
X100518749Y-103272476D01*
X100469619Y-103025483D01*
X100467503Y-103009422D01*
X100450764Y-102754028D01*
X100450500Y-102745948D01*
X100450500Y-93917712D01*
X100470185Y-93850673D01*
X100522989Y-93804918D01*
X100592147Y-93794974D01*
X100610974Y-93799198D01*
X100624365Y-93803319D01*
X100664712Y-93826614D01*
X100753856Y-93850500D01*
X100777668Y-93850500D01*
X100795493Y-93855986D01*
X100809708Y-93865384D01*
X100826058Y-93870185D01*
X100846700Y-93886819D01*
X102549889Y-95590007D01*
X104246114Y-97286232D01*
X104313768Y-97353886D01*
X104402162Y-97390500D01*
X108593457Y-97390500D01*
X108660496Y-97410185D01*
X108681138Y-97426819D01*
X108684788Y-97430469D01*
X108684791Y-97430470D01*
X108684794Y-97430473D01*
X108764706Y-97476611D01*
X108764707Y-97476611D01*
X108764712Y-97476614D01*
X108853856Y-97500500D01*
X108859019Y-97500500D01*
X108926058Y-97520185D01*
X108946700Y-97536819D01*
X109229768Y-97819886D01*
X109318162Y-97856500D01*
X109318164Y-97856500D01*
X112981837Y-97856500D01*
X112981839Y-97856500D01*
X113070233Y-97819886D01*
X113453300Y-97436819D01*
X113514623Y-97403334D01*
X113540981Y-97400500D01*
X113546142Y-97400500D01*
X113546144Y-97400500D01*
X113635288Y-97376614D01*
X113715212Y-97330469D01*
X113718862Y-97326819D01*
X113780185Y-97293334D01*
X113806543Y-97290500D01*
X122347837Y-97290500D01*
X122347839Y-97290500D01*
X122436233Y-97253886D01*
X122953299Y-96736818D01*
X123014622Y-96703334D01*
X123040980Y-96700500D01*
X123046142Y-96700500D01*
X123046144Y-96700500D01*
X123135288Y-96676614D01*
X123215212Y-96630469D01*
X123280469Y-96565212D01*
X123326614Y-96485288D01*
X123350500Y-96396144D01*
X123350500Y-96303856D01*
X123326614Y-96214712D01*
X123326611Y-96214706D01*
X123280473Y-96134794D01*
X123280470Y-96134791D01*
X123280469Y-96134788D01*
X123215212Y-96069531D01*
X123199264Y-96060323D01*
X123128752Y-96019611D01*
X123080537Y-95969043D01*
X123067316Y-95900436D01*
X123093285Y-95835571D01*
X123103065Y-95824552D01*
X123403299Y-95524319D01*
X123457115Y-95492714D01*
X123473719Y-95488000D01*
X123496144Y-95488000D01*
X123585288Y-95464114D01*
X123611828Y-95448790D01*
X123626635Y-95444587D01*
X123646798Y-95444767D01*
X123666397Y-95440013D01*
X123681023Y-95445075D01*
X123696501Y-95445214D01*
X123713367Y-95456268D01*
X123732425Y-95462864D01*
X123741993Y-95475031D01*
X123754938Y-95483515D01*
X123763149Y-95501930D01*
X123775617Y-95517784D01*
X123779727Y-95539112D01*
X123783391Y-95547328D01*
X123782470Y-95553344D01*
X123784500Y-95563873D01*
X123784500Y-96752483D01*
X123784500Y-96818323D01*
X123809696Y-96879151D01*
X123809697Y-96879152D01*
X123999069Y-97068524D01*
X124032554Y-97129847D01*
X124035388Y-97156205D01*
X124035388Y-97227827D01*
X124042371Y-97253886D01*
X124056890Y-97308073D01*
X124056891Y-97308074D01*
X124094185Y-97372666D01*
X124098426Y-97380012D01*
X124157167Y-97438753D01*
X124182157Y-97453181D01*
X124230371Y-97503747D01*
X124243593Y-97572355D01*
X124217625Y-97637219D01*
X124207836Y-97648248D01*
X122507904Y-99348181D01*
X122446581Y-99381666D01*
X122420223Y-99384500D01*
X120069914Y-99384500D01*
X120002875Y-99364815D01*
X119982233Y-99348181D01*
X119043749Y-98409697D01*
X119043748Y-98409696D01*
X118982920Y-98384500D01*
X103382046Y-98384500D01*
X103315007Y-98364815D01*
X103294366Y-98348182D01*
X103243724Y-98297541D01*
X103243723Y-98297540D01*
X103243721Y-98297538D01*
X103240496Y-98295676D01*
X103171783Y-98256003D01*
X103171782Y-98256002D01*
X103165201Y-98254238D01*
X103091536Y-98234500D01*
X103008464Y-98234500D01*
X102952058Y-98249613D01*
X102928217Y-98256002D01*
X102928216Y-98256003D01*
X102856285Y-98297534D01*
X102856276Y-98297540D01*
X102797540Y-98356276D01*
X102797534Y-98356285D01*
X102756003Y-98428216D01*
X102756002Y-98428217D01*
X102747659Y-98459353D01*
X102734500Y-98508464D01*
X102734500Y-98591536D01*
X102751774Y-98656001D01*
X102756002Y-98671782D01*
X102756003Y-98671783D01*
X102792610Y-98735185D01*
X102797538Y-98743721D01*
X102856279Y-98802462D01*
X102892250Y-98823230D01*
X102928216Y-98843996D01*
X102928217Y-98843997D01*
X102928219Y-98843997D01*
X102928222Y-98843999D01*
X103008464Y-98865500D01*
X103008467Y-98865500D01*
X103091533Y-98865500D01*
X103091536Y-98865500D01*
X103171778Y-98843999D01*
X103171780Y-98843997D01*
X103171782Y-98843997D01*
X103171783Y-98843996D01*
X103181744Y-98838245D01*
X103243721Y-98802462D01*
X103280993Y-98765190D01*
X103294366Y-98751818D01*
X103355689Y-98718334D01*
X103382046Y-98715500D01*
X107689468Y-98715500D01*
X107756507Y-98735185D01*
X107802262Y-98787989D01*
X107812206Y-98857147D01*
X107783181Y-98920703D01*
X107777149Y-98927181D01*
X107689496Y-99014833D01*
X107689492Y-99014838D01*
X107620313Y-99134661D01*
X107620312Y-99134664D01*
X107584500Y-99268317D01*
X107584500Y-99406683D01*
X107620312Y-99540336D01*
X107646205Y-99585185D01*
X107653893Y-99598500D01*
X107670366Y-99666400D01*
X107647513Y-99732427D01*
X107592592Y-99775618D01*
X107546506Y-99784500D01*
X103019915Y-99784500D01*
X102952876Y-99764815D01*
X102932234Y-99748181D01*
X102551819Y-99367766D01*
X102518334Y-99306443D01*
X102515500Y-99280085D01*
X102515500Y-99208466D01*
X102515500Y-99208464D01*
X102493999Y-99128222D01*
X102493997Y-99128219D01*
X102493997Y-99128217D01*
X102493996Y-99128216D01*
X102461413Y-99071782D01*
X102452462Y-99056279D01*
X102393721Y-98997538D01*
X102386696Y-98993482D01*
X102321783Y-98956003D01*
X102321782Y-98956002D01*
X102315201Y-98954238D01*
X102241536Y-98934500D01*
X102158464Y-98934500D01*
X102102058Y-98949613D01*
X102078217Y-98956002D01*
X102078216Y-98956003D01*
X102006285Y-98997534D01*
X102006276Y-98997540D01*
X101947540Y-99056276D01*
X101947534Y-99056285D01*
X101906003Y-99128216D01*
X101906002Y-99128217D01*
X101904275Y-99134664D01*
X101884500Y-99208464D01*
X101884500Y-99291536D01*
X101899678Y-99348181D01*
X101906002Y-99371782D01*
X101906003Y-99371783D01*
X101945676Y-99440496D01*
X101947538Y-99443721D01*
X102006279Y-99502462D01*
X102042250Y-99523230D01*
X102078216Y-99543996D01*
X102078217Y-99543997D01*
X102078219Y-99543997D01*
X102078222Y-99543999D01*
X102158464Y-99565500D01*
X102158467Y-99565500D01*
X102230086Y-99565500D01*
X102297125Y-99585185D01*
X102317767Y-99601819D01*
X102806249Y-100090303D01*
X102806250Y-100090303D01*
X102806251Y-100090304D01*
X102824061Y-100097680D01*
X102824066Y-100097684D01*
X102824067Y-100097683D01*
X102867080Y-100115500D01*
X120767080Y-100115500D01*
X122301086Y-100115500D01*
X122368125Y-100135185D01*
X122413880Y-100187989D01*
X122423824Y-100257147D01*
X122394799Y-100320703D01*
X122388767Y-100327181D01*
X121467766Y-101248181D01*
X121406443Y-101281666D01*
X121380085Y-101284500D01*
X121308464Y-101284500D01*
X121252058Y-101299613D01*
X121228217Y-101306002D01*
X121228216Y-101306003D01*
X121156285Y-101347534D01*
X121156276Y-101347540D01*
X121097540Y-101406276D01*
X121097534Y-101406285D01*
X121056003Y-101478216D01*
X121056002Y-101478217D01*
X121049395Y-101502874D01*
X121034500Y-101558464D01*
X121034500Y-101641536D01*
X121054238Y-101715201D01*
X121056002Y-101721782D01*
X121056003Y-101721783D01*
X121095676Y-101790496D01*
X121097538Y-101793721D01*
X121156279Y-101852462D01*
X121192250Y-101873230D01*
X121228216Y-101893996D01*
X121228217Y-101893997D01*
X121228219Y-101893997D01*
X121228222Y-101893999D01*
X121308464Y-101915500D01*
X121308467Y-101915500D01*
X121391533Y-101915500D01*
X121391536Y-101915500D01*
X121471778Y-101893999D01*
X121471780Y-101893997D01*
X121471782Y-101893997D01*
X121471783Y-101893996D01*
X121543721Y-101852462D01*
X121602462Y-101793721D01*
X121643999Y-101721778D01*
X121665500Y-101641536D01*
X121665500Y-101569913D01*
X121685185Y-101502874D01*
X121701819Y-101482232D01*
X127418839Y-95765212D01*
X133222304Y-89961748D01*
X133247500Y-89900920D01*
X133247500Y-89835080D01*
X133247500Y-86703856D01*
X133899500Y-86703856D01*
X133899500Y-86796144D01*
X133919567Y-86871037D01*
X133923387Y-86885290D01*
X133923388Y-86885293D01*
X133969526Y-86965205D01*
X133969529Y-86965209D01*
X133969531Y-86965212D01*
X134034788Y-87030469D01*
X134034791Y-87030470D01*
X134034794Y-87030473D01*
X134114706Y-87076611D01*
X134114707Y-87076611D01*
X134114712Y-87076614D01*
X134203856Y-87100500D01*
X134203858Y-87100500D01*
X134296142Y-87100500D01*
X134296144Y-87100500D01*
X134385288Y-87076614D01*
X134465212Y-87030469D01*
X134530469Y-86965212D01*
X134576614Y-86885288D01*
X134600500Y-86796144D01*
X134600500Y-86703856D01*
X134576614Y-86614712D01*
X134565317Y-86595145D01*
X134530473Y-86534794D01*
X134530470Y-86534791D01*
X134530469Y-86534788D01*
X134465212Y-86469531D01*
X134465209Y-86469529D01*
X134465205Y-86469526D01*
X134385293Y-86423388D01*
X134385290Y-86423387D01*
X134385289Y-86423386D01*
X134385288Y-86423386D01*
X134296144Y-86399500D01*
X134203856Y-86399500D01*
X134114712Y-86423386D01*
X134114711Y-86423386D01*
X134114709Y-86423387D01*
X134114706Y-86423388D01*
X134034794Y-86469526D01*
X134034785Y-86469533D01*
X133969533Y-86534785D01*
X133969526Y-86534794D01*
X133923388Y-86614706D01*
X133923387Y-86614709D01*
X133923386Y-86614711D01*
X133923386Y-86614712D01*
X133899500Y-86703856D01*
X133247500Y-86703856D01*
X133247500Y-84549080D01*
X133222304Y-84488252D01*
X133175748Y-84441696D01*
X132751819Y-84017767D01*
X132718334Y-83956444D01*
X132715500Y-83930086D01*
X132715500Y-83858466D01*
X132715500Y-83858464D01*
X132693999Y-83778222D01*
X132693997Y-83778219D01*
X132693997Y-83778217D01*
X132693996Y-83778216D01*
X132652465Y-83706285D01*
X132652462Y-83706279D01*
X132593721Y-83647538D01*
X132587098Y-83643714D01*
X132521783Y-83606003D01*
X132521782Y-83606002D01*
X132515201Y-83604238D01*
X132441536Y-83584500D01*
X132358464Y-83584500D01*
X132302058Y-83599613D01*
X132278217Y-83606002D01*
X132278216Y-83606003D01*
X132206285Y-83647534D01*
X132206276Y-83647540D01*
X132147540Y-83706276D01*
X132147534Y-83706285D01*
X132106003Y-83778216D01*
X132106002Y-83778217D01*
X132106001Y-83778222D01*
X132084500Y-83858464D01*
X132084500Y-83858466D01*
X132084500Y-83942910D01*
X132064815Y-84009949D01*
X132012011Y-84055704D01*
X131942853Y-84065648D01*
X131898499Y-84050297D01*
X131893721Y-84047538D01*
X131821778Y-84006001D01*
X131741536Y-83984500D01*
X131658464Y-83984500D01*
X131602058Y-83999613D01*
X131578217Y-84006002D01*
X131578216Y-84006003D01*
X131506285Y-84047534D01*
X131506276Y-84047540D01*
X131447540Y-84106276D01*
X131447534Y-84106285D01*
X131406003Y-84178216D01*
X131406002Y-84178217D01*
X131398272Y-84207065D01*
X131384500Y-84258464D01*
X131384500Y-84341536D01*
X131404238Y-84415201D01*
X131406002Y-84421782D01*
X131406003Y-84421783D01*
X131434869Y-84471778D01*
X131447538Y-84493721D01*
X131506279Y-84552462D01*
X131527216Y-84564550D01*
X131578216Y-84593996D01*
X131578217Y-84593997D01*
X131578219Y-84593997D01*
X131578222Y-84593999D01*
X131658464Y-84615500D01*
X131658467Y-84615500D01*
X131741533Y-84615500D01*
X131741536Y-84615500D01*
X131821778Y-84593999D01*
X131821780Y-84593997D01*
X131821782Y-84593997D01*
X131821783Y-84593996D01*
X131823420Y-84593051D01*
X131893721Y-84552462D01*
X131952462Y-84493721D01*
X131993999Y-84421778D01*
X132015500Y-84341536D01*
X132015500Y-84258464D01*
X132015500Y-84257089D01*
X132035185Y-84190050D01*
X132087989Y-84144295D01*
X132157147Y-84134351D01*
X132201502Y-84149703D01*
X132206276Y-84152459D01*
X132206279Y-84152462D01*
X132278222Y-84193999D01*
X132358464Y-84215500D01*
X132358467Y-84215500D01*
X132430086Y-84215500D01*
X132497125Y-84235185D01*
X132517767Y-84251819D01*
X132880181Y-84614233D01*
X132913666Y-84675556D01*
X132916500Y-84701914D01*
X132916500Y-86320288D01*
X132896815Y-86387327D01*
X132844011Y-86433082D01*
X132774853Y-86443026D01*
X132760407Y-86440063D01*
X132734353Y-86433082D01*
X132693167Y-86422046D01*
X132610095Y-86422046D01*
X132568909Y-86433082D01*
X132529848Y-86443548D01*
X132529847Y-86443549D01*
X132457916Y-86485080D01*
X132457907Y-86485086D01*
X132399171Y-86543822D01*
X132399164Y-86543831D01*
X132362366Y-86607567D01*
X132344273Y-86624818D01*
X132329290Y-86644833D01*
X132319421Y-86648513D01*
X132311799Y-86655782D01*
X132287250Y-86660512D01*
X132263826Y-86669250D01*
X132253533Y-86667010D01*
X132243192Y-86669004D01*
X132219982Y-86659712D01*
X132195553Y-86654398D01*
X132182730Y-86644798D01*
X132178327Y-86643036D01*
X132167299Y-86633247D01*
X132047406Y-86513354D01*
X132015313Y-86457769D01*
X131993999Y-86378222D01*
X131993997Y-86378218D01*
X131993996Y-86378216D01*
X131965128Y-86328217D01*
X131952462Y-86306279D01*
X131893721Y-86247538D01*
X131871139Y-86234500D01*
X131821783Y-86206003D01*
X131821782Y-86206002D01*
X131815201Y-86204238D01*
X131741536Y-86184500D01*
X131658464Y-86184500D01*
X131609821Y-86197534D01*
X131578217Y-86206002D01*
X131578216Y-86206003D01*
X131506285Y-86247534D01*
X131506276Y-86247540D01*
X131447540Y-86306276D01*
X131447534Y-86306285D01*
X131406003Y-86378216D01*
X131406002Y-86378217D01*
X131399139Y-86403831D01*
X131384500Y-86458464D01*
X131384500Y-86541536D01*
X131402434Y-86608466D01*
X131406002Y-86621782D01*
X131406003Y-86621783D01*
X131428364Y-86660512D01*
X131447538Y-86693721D01*
X131506279Y-86752462D01*
X131527848Y-86764915D01*
X131578216Y-86793996D01*
X131578217Y-86793997D01*
X131578219Y-86793997D01*
X131578222Y-86793999D01*
X131658464Y-86815500D01*
X131658467Y-86815500D01*
X131741534Y-86815500D01*
X131741536Y-86815500D01*
X131782729Y-86804462D01*
X131852576Y-86806123D01*
X131902503Y-86836555D01*
X132398181Y-87332233D01*
X132431666Y-87393556D01*
X132434500Y-87419914D01*
X132434500Y-88030086D01*
X132414815Y-88097125D01*
X132398181Y-88117767D01*
X132072212Y-88443736D01*
X132010889Y-88477221D01*
X131941197Y-88472237D01*
X131885264Y-88430365D01*
X131860847Y-88364901D01*
X131860531Y-88356055D01*
X131860531Y-87984877D01*
X131880216Y-87917838D01*
X131896850Y-87897196D01*
X131918005Y-87876041D01*
X131947493Y-87846553D01*
X131989030Y-87774610D01*
X132010531Y-87694368D01*
X132010531Y-87611296D01*
X131989030Y-87531054D01*
X131989028Y-87531051D01*
X131989028Y-87531049D01*
X131989027Y-87531048D01*
X131958523Y-87478216D01*
X131947493Y-87459111D01*
X131888752Y-87400370D01*
X131876950Y-87393556D01*
X131816814Y-87358835D01*
X131816813Y-87358834D01*
X131807893Y-87356444D01*
X131736567Y-87337332D01*
X131653495Y-87337332D01*
X131597089Y-87352445D01*
X131573248Y-87358834D01*
X131573247Y-87358835D01*
X131501316Y-87400366D01*
X131501307Y-87400372D01*
X131442571Y-87459108D01*
X131442565Y-87459117D01*
X131401034Y-87531048D01*
X131401033Y-87531049D01*
X131398224Y-87541533D01*
X131379531Y-87611296D01*
X131379531Y-87694368D01*
X131395098Y-87752465D01*
X131401033Y-87774614D01*
X131401034Y-87774615D01*
X131420579Y-87808466D01*
X131442569Y-87846553D01*
X131442571Y-87846555D01*
X131493212Y-87897196D01*
X131526697Y-87958519D01*
X131529531Y-87984877D01*
X131529531Y-88585055D01*
X131509846Y-88652094D01*
X131493212Y-88672736D01*
X130311358Y-89854589D01*
X130250035Y-89888074D01*
X130180343Y-89883090D01*
X130124410Y-89841218D01*
X130099993Y-89775754D01*
X130103902Y-89734818D01*
X130115500Y-89691536D01*
X130115500Y-89608464D01*
X130093999Y-89528222D01*
X130093997Y-89528219D01*
X130093997Y-89528217D01*
X130093996Y-89528216D01*
X130065128Y-89478217D01*
X130052462Y-89456279D01*
X129993721Y-89397538D01*
X129990496Y-89395676D01*
X129921783Y-89356003D01*
X129921782Y-89356002D01*
X129915201Y-89354238D01*
X129841536Y-89334500D01*
X129834671Y-89334500D01*
X129767632Y-89314815D01*
X129721877Y-89262011D01*
X129710671Y-89210500D01*
X129710671Y-89168467D01*
X129710671Y-89168466D01*
X129710671Y-89168465D01*
X129689170Y-89088223D01*
X129689168Y-89088220D01*
X129689168Y-89088218D01*
X129689167Y-89088217D01*
X129650810Y-89021783D01*
X129647633Y-89016280D01*
X129588892Y-88957539D01*
X129585667Y-88955677D01*
X129516954Y-88916004D01*
X129516953Y-88916003D01*
X129510372Y-88914239D01*
X129436707Y-88894501D01*
X129353635Y-88894501D01*
X129297229Y-88909614D01*
X129273388Y-88916003D01*
X129273387Y-88916004D01*
X129201456Y-88957535D01*
X129201447Y-88957541D01*
X129142711Y-89016277D01*
X129142705Y-89016286D01*
X129101174Y-89088217D01*
X129101173Y-89088218D01*
X129099699Y-89093721D01*
X129079671Y-89168465D01*
X129079671Y-89251537D01*
X129099409Y-89325202D01*
X129101173Y-89331783D01*
X129101174Y-89331784D01*
X129135673Y-89391536D01*
X129142709Y-89403722D01*
X129201450Y-89462463D01*
X129220665Y-89473557D01*
X129273387Y-89503997D01*
X129273391Y-89503999D01*
X129273393Y-89504000D01*
X129307546Y-89513151D01*
X129367205Y-89549514D01*
X129397735Y-89612360D01*
X129389441Y-89681736D01*
X129344956Y-89735614D01*
X129307548Y-89752699D01*
X129273928Y-89761708D01*
X129273923Y-89761710D01*
X129201992Y-89803241D01*
X129201983Y-89803247D01*
X129143247Y-89861983D01*
X129143241Y-89861992D01*
X129101710Y-89933923D01*
X129101709Y-89933924D01*
X129101708Y-89933929D01*
X129080207Y-90014171D01*
X129080207Y-90097243D01*
X129093573Y-90147124D01*
X129101709Y-90177489D01*
X129101710Y-90177490D01*
X129133714Y-90232920D01*
X129143245Y-90249428D01*
X129201986Y-90308169D01*
X129244530Y-90332732D01*
X129261717Y-90342655D01*
X129278968Y-90360747D01*
X129298982Y-90375729D01*
X129302663Y-90385597D01*
X129309933Y-90393222D01*
X129314663Y-90417770D01*
X129323401Y-90441193D01*
X129321161Y-90451487D01*
X129323155Y-90461829D01*
X129313865Y-90485033D01*
X129308551Y-90509466D01*
X129298948Y-90522293D01*
X129297187Y-90526694D01*
X129287400Y-90537721D01*
X129267943Y-90557179D01*
X129206621Y-90590666D01*
X129180260Y-90593500D01*
X127540921Y-90593500D01*
X127473882Y-90573815D01*
X127428127Y-90521011D01*
X127418183Y-90451853D01*
X127447208Y-90388297D01*
X127453239Y-90381819D01*
X127507310Y-90327748D01*
X127871194Y-89963862D01*
X127932513Y-89930380D01*
X128002205Y-89935364D01*
X128058139Y-89977235D01*
X128066258Y-89989545D01*
X128097533Y-90043714D01*
X128097536Y-90043718D01*
X128097538Y-90043721D01*
X128156279Y-90102462D01*
X128192250Y-90123230D01*
X128228216Y-90143996D01*
X128228217Y-90143997D01*
X128228219Y-90143997D01*
X128228222Y-90143999D01*
X128308464Y-90165500D01*
X128308467Y-90165500D01*
X128391533Y-90165500D01*
X128391536Y-90165500D01*
X128471778Y-90143999D01*
X128471780Y-90143997D01*
X128471782Y-90143997D01*
X128471783Y-90143996D01*
X128493518Y-90131447D01*
X128543721Y-90102462D01*
X128602462Y-90043721D01*
X128643999Y-89971778D01*
X128665500Y-89891536D01*
X128665500Y-89808464D01*
X128643999Y-89728222D01*
X128643997Y-89728219D01*
X128643997Y-89728217D01*
X128643996Y-89728216D01*
X128617160Y-89681736D01*
X128602462Y-89656279D01*
X128543721Y-89597538D01*
X128530213Y-89589739D01*
X128471783Y-89556003D01*
X128471782Y-89556002D01*
X128447568Y-89549514D01*
X128391536Y-89534500D01*
X128308464Y-89534500D01*
X128301590Y-89536342D01*
X128231740Y-89534677D01*
X128173879Y-89495513D01*
X128146376Y-89431283D01*
X128145500Y-89416566D01*
X128145500Y-87558464D01*
X129099502Y-87558464D01*
X129099502Y-87641536D01*
X129119240Y-87715201D01*
X129121004Y-87721782D01*
X129121005Y-87721783D01*
X129151506Y-87774610D01*
X129162540Y-87793721D01*
X129221281Y-87852462D01*
X129243085Y-87865051D01*
X129282413Y-87887758D01*
X129330628Y-87938325D01*
X129343850Y-88006932D01*
X129340188Y-88027233D01*
X129334500Y-88048462D01*
X129334500Y-88048464D01*
X129334500Y-88131536D01*
X129346279Y-88175496D01*
X129356002Y-88211782D01*
X129356003Y-88211783D01*
X129388273Y-88267674D01*
X129397538Y-88283721D01*
X129456279Y-88342462D01*
X129490549Y-88362248D01*
X129528216Y-88383996D01*
X129528217Y-88383997D01*
X129528219Y-88383997D01*
X129528222Y-88383999D01*
X129608464Y-88405500D01*
X129608467Y-88405500D01*
X129660500Y-88405500D01*
X129727539Y-88425185D01*
X129773294Y-88477989D01*
X129783196Y-88523507D01*
X129783439Y-88523476D01*
X129783821Y-88526381D01*
X129784500Y-88529500D01*
X129784500Y-88531536D01*
X129795689Y-88573294D01*
X129806002Y-88611782D01*
X129806003Y-88611783D01*
X129831196Y-88655417D01*
X129847538Y-88683721D01*
X129906279Y-88742462D01*
X129930221Y-88756285D01*
X129978216Y-88783996D01*
X129978217Y-88783997D01*
X129978219Y-88783997D01*
X129978222Y-88783999D01*
X130058464Y-88805500D01*
X130058467Y-88805500D01*
X130141533Y-88805500D01*
X130141536Y-88805500D01*
X130221778Y-88783999D01*
X130221780Y-88783997D01*
X130221782Y-88783997D01*
X130221783Y-88783996D01*
X130293721Y-88742462D01*
X130352462Y-88683721D01*
X130393999Y-88611778D01*
X130415500Y-88531536D01*
X130415500Y-88448464D01*
X130393999Y-88368222D01*
X130393997Y-88368219D01*
X130393997Y-88368217D01*
X130393996Y-88368216D01*
X130352465Y-88296285D01*
X130352462Y-88296279D01*
X130293721Y-88237538D01*
X130273985Y-88226143D01*
X130221783Y-88196003D01*
X130221782Y-88196002D01*
X130215201Y-88194238D01*
X130141536Y-88174500D01*
X130089500Y-88174500D01*
X130022461Y-88154815D01*
X129976706Y-88102011D01*
X129966803Y-88056492D01*
X129966561Y-88056524D01*
X129966178Y-88053618D01*
X129965500Y-88050500D01*
X129965500Y-88048466D01*
X129965500Y-88048464D01*
X129943999Y-87968222D01*
X129943997Y-87968219D01*
X129943997Y-87968217D01*
X129943996Y-87968216D01*
X129917074Y-87921587D01*
X129902462Y-87896279D01*
X129843721Y-87837538D01*
X129805551Y-87815500D01*
X129782587Y-87802241D01*
X129734372Y-87751673D01*
X129721151Y-87683066D01*
X129724812Y-87662769D01*
X129730502Y-87641536D01*
X129730502Y-87558464D01*
X129709001Y-87478222D01*
X129708999Y-87478219D01*
X129708999Y-87478217D01*
X129708998Y-87478216D01*
X129676415Y-87421782D01*
X129667464Y-87406279D01*
X129608723Y-87347538D01*
X129605498Y-87345676D01*
X129536785Y-87306003D01*
X129536784Y-87306002D01*
X129530203Y-87304238D01*
X129456538Y-87284500D01*
X129373466Y-87284500D01*
X129317060Y-87299613D01*
X129293219Y-87306002D01*
X129293218Y-87306003D01*
X129221287Y-87347534D01*
X129221278Y-87347540D01*
X129162542Y-87406276D01*
X129162536Y-87406285D01*
X129121005Y-87478216D01*
X129121004Y-87478217D01*
X129116852Y-87493714D01*
X129099502Y-87558464D01*
X128145500Y-87558464D01*
X128145500Y-86508464D01*
X129774500Y-86508464D01*
X129774500Y-86591536D01*
X129782605Y-86621783D01*
X129796002Y-86671782D01*
X129796003Y-86671783D01*
X129826126Y-86723955D01*
X129837538Y-86743721D01*
X129896279Y-86802462D01*
X129918861Y-86815500D01*
X129968216Y-86843996D01*
X129968217Y-86843997D01*
X129968219Y-86843997D01*
X129968222Y-86843999D01*
X130048464Y-86865500D01*
X130048467Y-86865500D01*
X130131533Y-86865500D01*
X130131536Y-86865500D01*
X130211778Y-86843999D01*
X130211780Y-86843997D01*
X130211782Y-86843997D01*
X130211783Y-86843996D01*
X130212256Y-86843723D01*
X130283721Y-86802462D01*
X130342462Y-86743721D01*
X130383999Y-86671778D01*
X130405500Y-86591536D01*
X130405500Y-86508464D01*
X130383999Y-86428222D01*
X130383997Y-86428219D01*
X130383997Y-86428217D01*
X130383996Y-86428216D01*
X130355128Y-86378217D01*
X130342462Y-86356279D01*
X130283721Y-86297538D01*
X130280496Y-86295676D01*
X130211783Y-86256003D01*
X130211782Y-86256002D01*
X130205201Y-86254238D01*
X130131536Y-86234500D01*
X130048464Y-86234500D01*
X129999821Y-86247534D01*
X129968217Y-86256002D01*
X129968216Y-86256003D01*
X129896285Y-86297534D01*
X129896276Y-86297540D01*
X129837540Y-86356276D01*
X129837534Y-86356285D01*
X129796003Y-86428216D01*
X129796002Y-86428217D01*
X129791894Y-86443548D01*
X129774500Y-86508464D01*
X128145500Y-86508464D01*
X128145500Y-84824435D01*
X128138231Y-84787895D01*
X128138230Y-84787893D01*
X128138230Y-84787891D01*
X128120949Y-84746172D01*
X128120948Y-84746170D01*
X128120947Y-84746168D01*
X128100251Y-84715195D01*
X128100248Y-84715190D01*
X127734810Y-84349752D01*
X127722514Y-84341536D01*
X127703831Y-84329052D01*
X127682968Y-84320410D01*
X127662109Y-84311770D01*
X127662107Y-84311769D01*
X127662106Y-84311769D01*
X127662104Y-84311768D01*
X127625564Y-84304500D01*
X127625562Y-84304500D01*
X125474438Y-84304500D01*
X125474436Y-84304500D01*
X125437895Y-84311768D01*
X125437893Y-84311769D01*
X125396168Y-84329052D01*
X125365195Y-84349748D01*
X125365187Y-84349754D01*
X125099754Y-84615187D01*
X125099748Y-84615195D01*
X125079052Y-84646168D01*
X125061769Y-84687893D01*
X125061768Y-84687895D01*
X125054500Y-84724435D01*
X125054500Y-87500110D01*
X125056315Y-87518626D01*
X125056319Y-87518653D01*
X125060766Y-87541120D01*
X125077974Y-87573423D01*
X125092119Y-87641846D01*
X125075920Y-87693722D01*
X125059722Y-87721778D01*
X125056001Y-87728222D01*
X125034500Y-87808464D01*
X125034500Y-87891536D01*
X125045381Y-87932144D01*
X125056002Y-87971782D01*
X125056003Y-87971785D01*
X125074988Y-88004667D01*
X125091461Y-88072567D01*
X125082162Y-88114118D01*
X125061771Y-88163345D01*
X125061768Y-88163355D01*
X125054500Y-88199895D01*
X125054500Y-88460500D01*
X125034815Y-88527539D01*
X124982011Y-88573294D01*
X124930500Y-88584500D01*
X124858464Y-88584500D01*
X124802058Y-88599613D01*
X124778217Y-88606002D01*
X124778216Y-88606003D01*
X124706285Y-88647534D01*
X124706276Y-88647540D01*
X124647540Y-88706276D01*
X124647534Y-88706285D01*
X124606003Y-88778216D01*
X124606002Y-88778217D01*
X124601161Y-88796285D01*
X124584500Y-88858464D01*
X124584500Y-88941536D01*
X124588789Y-88957541D01*
X124606002Y-89021782D01*
X124606003Y-89021783D01*
X124625761Y-89056003D01*
X124647538Y-89093721D01*
X124706279Y-89152462D01*
X124712901Y-89156285D01*
X124778216Y-89193996D01*
X124778217Y-89193997D01*
X124778219Y-89193997D01*
X124778222Y-89193999D01*
X124858464Y-89215500D01*
X124858467Y-89215500D01*
X124930500Y-89215500D01*
X124997539Y-89235185D01*
X125043294Y-89287989D01*
X125054500Y-89339500D01*
X125054500Y-89375562D01*
X125054500Y-89375564D01*
X125054499Y-89375564D01*
X125061768Y-89412104D01*
X125061769Y-89412106D01*
X125079052Y-89453831D01*
X125099748Y-89484804D01*
X125099754Y-89484812D01*
X125346698Y-89731756D01*
X125380183Y-89793079D01*
X125375199Y-89862771D01*
X125346699Y-89907117D01*
X125297541Y-89956275D01*
X125297534Y-89956285D01*
X125256003Y-90028216D01*
X125256002Y-90028217D01*
X125256001Y-90028222D01*
X125234500Y-90108464D01*
X125234500Y-90191536D01*
X125250012Y-90249428D01*
X125256002Y-90271782D01*
X125256003Y-90271783D01*
X125277012Y-90308170D01*
X125297538Y-90343721D01*
X125297540Y-90343723D01*
X125335636Y-90381819D01*
X125369121Y-90443142D01*
X125364137Y-90512834D01*
X125322265Y-90568767D01*
X125256801Y-90593184D01*
X125247955Y-90593500D01*
X115239914Y-90593500D01*
X115172875Y-90573815D01*
X115127120Y-90521011D01*
X115117176Y-90451853D01*
X115146201Y-90388297D01*
X115152233Y-90381819D01*
X116365588Y-89168464D01*
X122522858Y-89168464D01*
X122522858Y-89251536D01*
X122537318Y-89305500D01*
X122544360Y-89331782D01*
X122544361Y-89331783D01*
X122569638Y-89375562D01*
X122585896Y-89403721D01*
X122644637Y-89462462D01*
X122663854Y-89473557D01*
X122716574Y-89503996D01*
X122716575Y-89503997D01*
X122716577Y-89503997D01*
X122716580Y-89503999D01*
X122796822Y-89525500D01*
X122796825Y-89525500D01*
X122879891Y-89525500D01*
X122879894Y-89525500D01*
X122960136Y-89503999D01*
X122960138Y-89503997D01*
X122960140Y-89503997D01*
X122960141Y-89503996D01*
X122964691Y-89501369D01*
X123032079Y-89462462D01*
X123090820Y-89403721D01*
X123119040Y-89354842D01*
X123169604Y-89306630D01*
X123238211Y-89293406D01*
X123258516Y-89297070D01*
X123289976Y-89305500D01*
X123289978Y-89305500D01*
X123373045Y-89305500D01*
X123373048Y-89305500D01*
X123453290Y-89283999D01*
X123453292Y-89283997D01*
X123453294Y-89283997D01*
X123453295Y-89283996D01*
X123525233Y-89242462D01*
X123583974Y-89183721D01*
X123625511Y-89111778D01*
X123647012Y-89031536D01*
X123647012Y-88948464D01*
X123625511Y-88868222D01*
X123625509Y-88868219D01*
X123625509Y-88868217D01*
X123625508Y-88868216D01*
X123602413Y-88828216D01*
X123583974Y-88796279D01*
X123525233Y-88737538D01*
X123522008Y-88735676D01*
X123453295Y-88696003D01*
X123453294Y-88696002D01*
X123446713Y-88694238D01*
X123373048Y-88674500D01*
X123289976Y-88674500D01*
X123233570Y-88689613D01*
X123209729Y-88696002D01*
X123209728Y-88696003D01*
X123137797Y-88737534D01*
X123137788Y-88737540D01*
X123079052Y-88796276D01*
X123079045Y-88796285D01*
X123050830Y-88845155D01*
X123000263Y-88893370D01*
X122931655Y-88906592D01*
X122911351Y-88902929D01*
X122879894Y-88894500D01*
X122796822Y-88894500D01*
X122751695Y-88906592D01*
X122716575Y-88916002D01*
X122716574Y-88916003D01*
X122644643Y-88957534D01*
X122644634Y-88957540D01*
X122585898Y-89016276D01*
X122585892Y-89016285D01*
X122544361Y-89088216D01*
X122544360Y-89088217D01*
X122542885Y-89093723D01*
X122522858Y-89168464D01*
X116365588Y-89168464D01*
X118275588Y-87258464D01*
X119934500Y-87258464D01*
X119934500Y-87341536D01*
X119946224Y-87385290D01*
X119956002Y-87421782D01*
X119956003Y-87421783D01*
X119988589Y-87478222D01*
X119997538Y-87493721D01*
X120056279Y-87552462D01*
X120077848Y-87564915D01*
X120128216Y-87593996D01*
X120128217Y-87593997D01*
X120128219Y-87593997D01*
X120128222Y-87593999D01*
X120208464Y-87615500D01*
X120208467Y-87615500D01*
X120280086Y-87615500D01*
X120347125Y-87635185D01*
X120367767Y-87651819D01*
X120783374Y-88067426D01*
X120829930Y-88113982D01*
X120890758Y-88139178D01*
X122921194Y-88139178D01*
X122988233Y-88158863D01*
X123008874Y-88175496D01*
X123045157Y-88211778D01*
X123059519Y-88226140D01*
X123079254Y-88237534D01*
X123131456Y-88267674D01*
X123131457Y-88267675D01*
X123131459Y-88267675D01*
X123131462Y-88267677D01*
X123211704Y-88289178D01*
X123211707Y-88289178D01*
X123294773Y-88289178D01*
X123294776Y-88289178D01*
X123375018Y-88267677D01*
X123375020Y-88267675D01*
X123375022Y-88267675D01*
X123375023Y-88267674D01*
X123446961Y-88226140D01*
X123505702Y-88167399D01*
X123547239Y-88095456D01*
X123568740Y-88015214D01*
X123568740Y-87932142D01*
X123547239Y-87851900D01*
X123547237Y-87851897D01*
X123547237Y-87851895D01*
X123547236Y-87851894D01*
X123513808Y-87793997D01*
X123505702Y-87779957D01*
X123446961Y-87721216D01*
X123443736Y-87719354D01*
X123375023Y-87679681D01*
X123375022Y-87679680D01*
X123368441Y-87677916D01*
X123294776Y-87658178D01*
X123211704Y-87658178D01*
X123163722Y-87671035D01*
X123131457Y-87679680D01*
X123131456Y-87679681D01*
X123059525Y-87721212D01*
X123059515Y-87721219D01*
X123008874Y-87771860D01*
X122947551Y-87805344D01*
X122921194Y-87808178D01*
X121043592Y-87808178D01*
X120976553Y-87788493D01*
X120955911Y-87771859D01*
X120601819Y-87417767D01*
X120568334Y-87356444D01*
X120565500Y-87330086D01*
X120565500Y-87258466D01*
X120565500Y-87258464D01*
X120543999Y-87178222D01*
X120543997Y-87178219D01*
X120543997Y-87178217D01*
X120543996Y-87178216D01*
X120502465Y-87106285D01*
X120502462Y-87106279D01*
X120443721Y-87047538D01*
X120427381Y-87038104D01*
X120371783Y-87006003D01*
X120371782Y-87006002D01*
X120365201Y-87004238D01*
X120291536Y-86984500D01*
X120208464Y-86984500D01*
X120152058Y-86999613D01*
X120128217Y-87006002D01*
X120128216Y-87006003D01*
X120056285Y-87047534D01*
X120056276Y-87047540D01*
X119997540Y-87106276D01*
X119997534Y-87106285D01*
X119956003Y-87178216D01*
X119956002Y-87178217D01*
X119949132Y-87203856D01*
X119934500Y-87258464D01*
X118275588Y-87258464D01*
X119180863Y-86353189D01*
X119242186Y-86319704D01*
X119268544Y-86316870D01*
X122463251Y-86316870D01*
X122530290Y-86336555D01*
X122576045Y-86389359D01*
X122585989Y-86458517D01*
X122570637Y-86502872D01*
X122556002Y-86528219D01*
X122556001Y-86528221D01*
X122556001Y-86528222D01*
X122534500Y-86608464D01*
X122534500Y-86691536D01*
X122550825Y-86752462D01*
X122556002Y-86771782D01*
X122556003Y-86771783D01*
X122581244Y-86815500D01*
X122597538Y-86843721D01*
X122656279Y-86902462D01*
X122663940Y-86906885D01*
X122728216Y-86943996D01*
X122728217Y-86943997D01*
X122728219Y-86943997D01*
X122728222Y-86943999D01*
X122808464Y-86965500D01*
X122808467Y-86965500D01*
X122891533Y-86965500D01*
X122891536Y-86965500D01*
X122947792Y-86950426D01*
X123017639Y-86952089D01*
X123075501Y-86991251D01*
X123099657Y-87038104D01*
X123106001Y-87061779D01*
X123106003Y-87061783D01*
X123136561Y-87114709D01*
X123147538Y-87133721D01*
X123206279Y-87192462D01*
X123242250Y-87213230D01*
X123278216Y-87233996D01*
X123278217Y-87233997D01*
X123278219Y-87233997D01*
X123278222Y-87233999D01*
X123358464Y-87255500D01*
X123358467Y-87255500D01*
X123441533Y-87255500D01*
X123441536Y-87255500D01*
X123521778Y-87233999D01*
X123521780Y-87233997D01*
X123521782Y-87233997D01*
X123521783Y-87233996D01*
X123545560Y-87220268D01*
X123593721Y-87192462D01*
X123652462Y-87133721D01*
X123693999Y-87061778D01*
X123715500Y-86981536D01*
X123715500Y-86898464D01*
X123693999Y-86818222D01*
X123693997Y-86818219D01*
X123693997Y-86818217D01*
X123693996Y-86818216D01*
X123663223Y-86764918D01*
X123652462Y-86746279D01*
X123593721Y-86687538D01*
X123580665Y-86680000D01*
X123521279Y-86645712D01*
X123473064Y-86595145D01*
X123459842Y-86526538D01*
X123485810Y-86461673D01*
X123521276Y-86430940D01*
X123568230Y-86403832D01*
X123626971Y-86345091D01*
X123668508Y-86273148D01*
X123690009Y-86192906D01*
X123690009Y-86109834D01*
X123668508Y-86029592D01*
X123668506Y-86029589D01*
X123668506Y-86029587D01*
X123668505Y-86029586D01*
X123631899Y-85966185D01*
X123626971Y-85957649D01*
X123568230Y-85898908D01*
X123564588Y-85896805D01*
X123496292Y-85857373D01*
X123496291Y-85857372D01*
X123489710Y-85855608D01*
X123416045Y-85835870D01*
X123332973Y-85835870D01*
X123276567Y-85850983D01*
X123252726Y-85857372D01*
X123252725Y-85857373D01*
X123180794Y-85898904D01*
X123180784Y-85898911D01*
X123130143Y-85949552D01*
X123068820Y-85983036D01*
X123042463Y-85985870D01*
X119438130Y-85985870D01*
X119429444Y-85983319D01*
X119420483Y-85984608D01*
X119396442Y-85973629D01*
X119371091Y-85966185D01*
X119365163Y-85959344D01*
X119356927Y-85955583D01*
X119342637Y-85933348D01*
X119325336Y-85913381D01*
X119323048Y-85902866D01*
X119319153Y-85896805D01*
X119314130Y-85861870D01*
X119314130Y-85668326D01*
X119333815Y-85601287D01*
X119350449Y-85580645D01*
X119522986Y-85408108D01*
X120338044Y-84593049D01*
X120399365Y-84559566D01*
X120469056Y-84564550D01*
X120524990Y-84606422D01*
X120533109Y-84618730D01*
X120547538Y-84643721D01*
X120606279Y-84702462D01*
X120628319Y-84715187D01*
X120678216Y-84743996D01*
X120678217Y-84743997D01*
X120678219Y-84743997D01*
X120678222Y-84743999D01*
X120758464Y-84765500D01*
X120758467Y-84765500D01*
X120841533Y-84765500D01*
X120841536Y-84765500D01*
X120921778Y-84743999D01*
X120921780Y-84743997D01*
X120921782Y-84743997D01*
X120921783Y-84743996D01*
X120993721Y-84702462D01*
X121052462Y-84643721D01*
X121093999Y-84571778D01*
X121115500Y-84491536D01*
X121115500Y-84419913D01*
X121124144Y-84390472D01*
X121130668Y-84360486D01*
X121134422Y-84355470D01*
X121135185Y-84352874D01*
X121151819Y-84332232D01*
X121175587Y-84308464D01*
X122734500Y-84308464D01*
X122734500Y-84391536D01*
X122749253Y-84446594D01*
X122756002Y-84471782D01*
X122756003Y-84471783D01*
X122768671Y-84493723D01*
X122797538Y-84543721D01*
X122856279Y-84602462D01*
X122863138Y-84606422D01*
X122928216Y-84643996D01*
X122928217Y-84643997D01*
X122928219Y-84643997D01*
X122928222Y-84643999D01*
X123008464Y-84665500D01*
X123008467Y-84665500D01*
X123091533Y-84665500D01*
X123091536Y-84665500D01*
X123171778Y-84643999D01*
X123171780Y-84643997D01*
X123171782Y-84643997D01*
X123171783Y-84643996D01*
X123172256Y-84643723D01*
X123243721Y-84602462D01*
X123302462Y-84543721D01*
X123343999Y-84471778D01*
X123365500Y-84391536D01*
X123365500Y-84308464D01*
X123343999Y-84228222D01*
X123343997Y-84228219D01*
X123343997Y-84228217D01*
X123343996Y-84228216D01*
X123315128Y-84178217D01*
X123302462Y-84156279D01*
X123243721Y-84097538D01*
X123237110Y-84093721D01*
X123171783Y-84056003D01*
X123171782Y-84056002D01*
X123165201Y-84054238D01*
X123091536Y-84034500D01*
X123008464Y-84034500D01*
X122959821Y-84047534D01*
X122928217Y-84056002D01*
X122928216Y-84056003D01*
X122856285Y-84097534D01*
X122856276Y-84097540D01*
X122797540Y-84156276D01*
X122797534Y-84156285D01*
X122756003Y-84228216D01*
X122756002Y-84228217D01*
X122756001Y-84228222D01*
X122734500Y-84308464D01*
X121175587Y-84308464D01*
X121271395Y-84212656D01*
X122225588Y-83258464D01*
X123594500Y-83258464D01*
X123594500Y-83341536D01*
X123612434Y-83408466D01*
X123616002Y-83421782D01*
X123616003Y-83421783D01*
X123655676Y-83490496D01*
X123657538Y-83493721D01*
X123716279Y-83552462D01*
X123749735Y-83571778D01*
X123788216Y-83593996D01*
X123788217Y-83593997D01*
X123788219Y-83593997D01*
X123788222Y-83593999D01*
X123868464Y-83615500D01*
X123868467Y-83615500D01*
X123951533Y-83615500D01*
X123951536Y-83615500D01*
X124031778Y-83593999D01*
X124031780Y-83593997D01*
X124031782Y-83593997D01*
X124031783Y-83593996D01*
X124048230Y-83584500D01*
X124103721Y-83552462D01*
X124162462Y-83493721D01*
X124203999Y-83421778D01*
X124225500Y-83341536D01*
X124225500Y-83258464D01*
X124203999Y-83178222D01*
X124203997Y-83178219D01*
X124203997Y-83178217D01*
X124203996Y-83178216D01*
X124178756Y-83134500D01*
X124162462Y-83106279D01*
X124103721Y-83047538D01*
X124064853Y-83025097D01*
X124031783Y-83006003D01*
X124031782Y-83006002D01*
X124025201Y-83004238D01*
X123951536Y-82984500D01*
X123868464Y-82984500D01*
X123812058Y-82999613D01*
X123788217Y-83006002D01*
X123788216Y-83006003D01*
X123716285Y-83047534D01*
X123716276Y-83047540D01*
X123657540Y-83106276D01*
X123657534Y-83106285D01*
X123616003Y-83178216D01*
X123616002Y-83178217D01*
X123616001Y-83178222D01*
X123594500Y-83258464D01*
X122225588Y-83258464D01*
X122321396Y-83162656D01*
X123032233Y-82451819D01*
X123093556Y-82418334D01*
X123119914Y-82415500D01*
X127102495Y-82415500D01*
X127169534Y-82435185D01*
X127215289Y-82487989D01*
X127225233Y-82557147D01*
X127209880Y-82601502D01*
X127206001Y-82608222D01*
X127184500Y-82688464D01*
X127184500Y-82771536D01*
X127203256Y-82841533D01*
X127206002Y-82851782D01*
X127206003Y-82851783D01*
X127222985Y-82881195D01*
X127247538Y-82923721D01*
X127306279Y-82982462D01*
X127342250Y-83003230D01*
X127378216Y-83023996D01*
X127378217Y-83023997D01*
X127378219Y-83023997D01*
X127378222Y-83023999D01*
X127458464Y-83045500D01*
X127458467Y-83045500D01*
X127541533Y-83045500D01*
X127541536Y-83045500D01*
X127621778Y-83023999D01*
X127621780Y-83023997D01*
X127621782Y-83023997D01*
X127621783Y-83023996D01*
X127693721Y-82982462D01*
X127752462Y-82923721D01*
X127793999Y-82851778D01*
X127815500Y-82771536D01*
X127815500Y-82688464D01*
X127793999Y-82608222D01*
X127790119Y-82601503D01*
X127773645Y-82533604D01*
X127796495Y-82467577D01*
X127851415Y-82424384D01*
X127897505Y-82415500D01*
X132517954Y-82415500D01*
X132584993Y-82435185D01*
X132605634Y-82451818D01*
X132630998Y-82477181D01*
X132656279Y-82502462D01*
X132676887Y-82514360D01*
X132728216Y-82543996D01*
X132728217Y-82543997D01*
X132728219Y-82543997D01*
X132728222Y-82543999D01*
X132808464Y-82565500D01*
X132808467Y-82565500D01*
X132891533Y-82565500D01*
X132891536Y-82565500D01*
X132971778Y-82543999D01*
X132971780Y-82543997D01*
X132971782Y-82543997D01*
X132971783Y-82543996D01*
X132989782Y-82533604D01*
X133043721Y-82502462D01*
X133102462Y-82443721D01*
X133143999Y-82371778D01*
X133165500Y-82291536D01*
X133165500Y-82208464D01*
X133143999Y-82128222D01*
X133143997Y-82128219D01*
X133143997Y-82128217D01*
X133143996Y-82128216D01*
X133116279Y-82080211D01*
X133102462Y-82056279D01*
X133043721Y-81997538D01*
X133037110Y-81993721D01*
X132971783Y-81956003D01*
X132971782Y-81956002D01*
X132965201Y-81954238D01*
X132891536Y-81934500D01*
X132808464Y-81934500D01*
X132752058Y-81949613D01*
X132728217Y-81956002D01*
X132728216Y-81956003D01*
X132656285Y-81997534D01*
X132656275Y-81997541D01*
X132605634Y-82048182D01*
X132544311Y-82081666D01*
X132517954Y-82084500D01*
X131761997Y-82084500D01*
X131746164Y-82079851D01*
X131729665Y-82080211D01*
X131713330Y-82070209D01*
X131694958Y-82064815D01*
X131684152Y-82052345D01*
X131670077Y-82043727D01*
X131661742Y-82026482D01*
X131649203Y-82012011D01*
X131646586Y-81995124D01*
X131639673Y-81980819D01*
X131640795Y-81957741D01*
X131638904Y-81945533D01*
X131641203Y-81926619D01*
X131643999Y-81921778D01*
X131665500Y-81841536D01*
X131665500Y-81758464D01*
X131662851Y-81748579D01*
X131665393Y-81727675D01*
X131673246Y-81709434D01*
X131676305Y-81689807D01*
X131690220Y-81670015D01*
X131693025Y-81663502D01*
X131696398Y-81661228D01*
X131700802Y-81654964D01*
X132173349Y-81182419D01*
X132195500Y-81128942D01*
X132195500Y-81071058D01*
X132195500Y-77650613D01*
X132215185Y-77583574D01*
X132238258Y-77558493D01*
X132237974Y-77558209D01*
X132248677Y-77547506D01*
X132302462Y-77493721D01*
X132343999Y-77421778D01*
X132365500Y-77341536D01*
X132365500Y-77258464D01*
X132343999Y-77178222D01*
X132343997Y-77178219D01*
X132343997Y-77178217D01*
X132343996Y-77178216D01*
X132309422Y-77118334D01*
X132302462Y-77106279D01*
X132243721Y-77047538D01*
X132229988Y-77039609D01*
X132171783Y-77006003D01*
X132171782Y-77006002D01*
X132161306Y-77003195D01*
X132091536Y-76984500D01*
X132008464Y-76984500D01*
X131952058Y-76999613D01*
X131928217Y-77006002D01*
X131928216Y-77006003D01*
X131856285Y-77047534D01*
X131856276Y-77047540D01*
X131797540Y-77106276D01*
X131797534Y-77106285D01*
X131756003Y-77178216D01*
X131756002Y-77178217D01*
X131756001Y-77178222D01*
X131734500Y-77258464D01*
X131734500Y-77341536D01*
X131745693Y-77383308D01*
X131756002Y-77421782D01*
X131756003Y-77421783D01*
X131766590Y-77440119D01*
X131797538Y-77493721D01*
X131797540Y-77493723D01*
X131862026Y-77558209D01*
X131861055Y-77559179D01*
X131897190Y-77608666D01*
X131904500Y-77650613D01*
X131904500Y-80988369D01*
X131884815Y-81055408D01*
X131868181Y-81076050D01*
X131495037Y-81449193D01*
X131433714Y-81482678D01*
X131399663Y-81484099D01*
X131399663Y-81484500D01*
X131391536Y-81484500D01*
X131308464Y-81484500D01*
X131254682Y-81498911D01*
X131228217Y-81506002D01*
X131228216Y-81506003D01*
X131156285Y-81547534D01*
X131156276Y-81547540D01*
X131097540Y-81606276D01*
X131097534Y-81606285D01*
X131056003Y-81678216D01*
X131056002Y-81678217D01*
X131056001Y-81678222D01*
X131034500Y-81758464D01*
X131034500Y-81841536D01*
X131056001Y-81921778D01*
X131056002Y-81921781D01*
X131057778Y-81928406D01*
X131056115Y-81998256D01*
X131016953Y-82056118D01*
X130952725Y-82083623D01*
X130938003Y-82084500D01*
X123145956Y-82084500D01*
X123078917Y-82064815D01*
X123033162Y-82012011D01*
X123023218Y-81942853D01*
X123052243Y-81879297D01*
X123058275Y-81872819D01*
X123448416Y-81482678D01*
X124029170Y-80901924D01*
X124665184Y-80901924D01*
X124665184Y-80984996D01*
X124676958Y-81028936D01*
X124686686Y-81065242D01*
X124686687Y-81065243D01*
X124703131Y-81093723D01*
X124728222Y-81137181D01*
X124786963Y-81195922D01*
X124820873Y-81215500D01*
X124858900Y-81237456D01*
X124858901Y-81237457D01*
X124858903Y-81237457D01*
X124858906Y-81237459D01*
X124939148Y-81258960D01*
X124939151Y-81258960D01*
X125022217Y-81258960D01*
X125022220Y-81258960D01*
X125102462Y-81237459D01*
X125102464Y-81237457D01*
X125102466Y-81237457D01*
X125102467Y-81237456D01*
X125174405Y-81195922D01*
X125233146Y-81137181D01*
X125274683Y-81065238D01*
X125296184Y-80984996D01*
X125296184Y-80901924D01*
X125287592Y-80869858D01*
X125289255Y-80800009D01*
X125328418Y-80742147D01*
X125345361Y-80730382D01*
X125393721Y-80702462D01*
X125452462Y-80643721D01*
X125493999Y-80571778D01*
X125515500Y-80491536D01*
X125515500Y-80408464D01*
X125493999Y-80328222D01*
X125493997Y-80328219D01*
X125493997Y-80328217D01*
X125493996Y-80328216D01*
X125472816Y-80291533D01*
X125452462Y-80256279D01*
X125393721Y-80197538D01*
X125387586Y-80193996D01*
X125321783Y-80156003D01*
X125321782Y-80156002D01*
X125310112Y-80152875D01*
X125241536Y-80134500D01*
X125158464Y-80134500D01*
X125102058Y-80149613D01*
X125078217Y-80156002D01*
X125078216Y-80156003D01*
X125006285Y-80197534D01*
X125006276Y-80197540D01*
X124988314Y-80215502D01*
X124988312Y-80215504D01*
X124947538Y-80256279D01*
X124906001Y-80328222D01*
X124892805Y-80377467D01*
X124892803Y-80377472D01*
X124884500Y-80408462D01*
X124884500Y-80408464D01*
X124884500Y-80491536D01*
X124893091Y-80523601D01*
X124891429Y-80593449D01*
X124852267Y-80651312D01*
X124835318Y-80663079D01*
X124786969Y-80690994D01*
X124786960Y-80691000D01*
X124728224Y-80749736D01*
X124728218Y-80749745D01*
X124686687Y-80821676D01*
X124686686Y-80821677D01*
X124683250Y-80834500D01*
X124665184Y-80901924D01*
X124029170Y-80901924D01*
X124740304Y-80190790D01*
X124748924Y-80169979D01*
X124765500Y-80129962D01*
X124765500Y-77431673D01*
X124783480Y-77370437D01*
X124782127Y-77369656D01*
X124827724Y-77290680D01*
X124827725Y-77290679D01*
X124827725Y-77290677D01*
X124827727Y-77290675D01*
X124849228Y-77210433D01*
X124849228Y-77127361D01*
X124827727Y-77047119D01*
X124827725Y-77047116D01*
X124827725Y-77047114D01*
X124827724Y-77047113D01*
X124791573Y-76984500D01*
X124786190Y-76975176D01*
X124727449Y-76916435D01*
X124702134Y-76901819D01*
X124655511Y-76874900D01*
X124655510Y-76874899D01*
X124644929Y-76872064D01*
X124575264Y-76853397D01*
X124492192Y-76853397D01*
X124436447Y-76868334D01*
X124411945Y-76874899D01*
X124411944Y-76874900D01*
X124340013Y-76916431D01*
X124340004Y-76916437D01*
X124281268Y-76975173D01*
X124281262Y-76975182D01*
X124239731Y-77047113D01*
X124239730Y-77047114D01*
X124239616Y-77047540D01*
X124218228Y-77127361D01*
X124218228Y-77210433D01*
X124230745Y-77257147D01*
X124239730Y-77290679D01*
X124239731Y-77290680D01*
X124260806Y-77327181D01*
X124281266Y-77362618D01*
X124340007Y-77421359D01*
X124372500Y-77440119D01*
X124420716Y-77490686D01*
X124434500Y-77547506D01*
X124434500Y-79977128D01*
X124414815Y-80044167D01*
X124398181Y-80064809D01*
X120877181Y-83585809D01*
X120815858Y-83619294D01*
X120746166Y-83614310D01*
X120690233Y-83572438D01*
X120665816Y-83506974D01*
X120665500Y-83498128D01*
X120665500Y-83408466D01*
X120665500Y-83408464D01*
X120643999Y-83328222D01*
X120643997Y-83328219D01*
X120643997Y-83328217D01*
X120643996Y-83328216D01*
X120623230Y-83292250D01*
X120602462Y-83256279D01*
X120543721Y-83197538D01*
X120540496Y-83195676D01*
X120471783Y-83156003D01*
X120471782Y-83156002D01*
X120465201Y-83154238D01*
X120391536Y-83134500D01*
X120308464Y-83134500D01*
X120252058Y-83149613D01*
X120228217Y-83156002D01*
X120228216Y-83156003D01*
X120156285Y-83197534D01*
X120156276Y-83197540D01*
X120097540Y-83256276D01*
X120097534Y-83256285D01*
X120056003Y-83328216D01*
X120056002Y-83328217D01*
X120056001Y-83328222D01*
X120034500Y-83408464D01*
X120034500Y-83491536D01*
X120050825Y-83552462D01*
X120056002Y-83571782D01*
X120056003Y-83571783D01*
X120075761Y-83606003D01*
X120097538Y-83643721D01*
X120156279Y-83702462D01*
X120162901Y-83706285D01*
X120228216Y-83743996D01*
X120228217Y-83743997D01*
X120228219Y-83743997D01*
X120228222Y-83743999D01*
X120308464Y-83765500D01*
X120308467Y-83765500D01*
X120398128Y-83765500D01*
X120465167Y-83785185D01*
X120510922Y-83837989D01*
X120520866Y-83907147D01*
X120491841Y-83970703D01*
X120485809Y-83977181D01*
X119008327Y-85454662D01*
X118983130Y-85515491D01*
X118983130Y-86031456D01*
X118963445Y-86098495D01*
X118946811Y-86119137D01*
X110517767Y-94548181D01*
X110456444Y-94581666D01*
X110430086Y-94584500D01*
X108532046Y-94584500D01*
X108465007Y-94564815D01*
X108444366Y-94548182D01*
X108393724Y-94497541D01*
X108393721Y-94497538D01*
X108390496Y-94495676D01*
X108321783Y-94456003D01*
X108321782Y-94456002D01*
X108315201Y-94454238D01*
X108241536Y-94434500D01*
X108158464Y-94434500D01*
X108158462Y-94434500D01*
X108130592Y-94441968D01*
X108060742Y-94440305D01*
X108002880Y-94401142D01*
X107975377Y-94336913D01*
X107974500Y-94322193D01*
X107974500Y-93946269D01*
X107994185Y-93879230D01*
X108010819Y-93858588D01*
X114232588Y-87636819D01*
X114293911Y-87603334D01*
X114320269Y-87600500D01*
X114396142Y-87600500D01*
X114396144Y-87600500D01*
X114485288Y-87576614D01*
X114565212Y-87530469D01*
X114630469Y-87465212D01*
X114676614Y-87385288D01*
X114700500Y-87296144D01*
X114700500Y-87220268D01*
X114720185Y-87153229D01*
X114736819Y-87132587D01*
X117775685Y-84093721D01*
X120840468Y-81028938D01*
X120840471Y-81028936D01*
X120857909Y-81011498D01*
X120857910Y-81011498D01*
X120911498Y-80957910D01*
X120940500Y-80887893D01*
X120940500Y-78797045D01*
X120947108Y-78774538D01*
X120949294Y-78751180D01*
X120957731Y-78738361D01*
X120960185Y-78730006D01*
X120966882Y-78720581D01*
X120971508Y-78714674D01*
X121002462Y-78683721D01*
X121021266Y-78651150D01*
X121026658Y-78644268D01*
X121048247Y-78628831D01*
X121067455Y-78610517D01*
X121076226Y-78608826D01*
X121083494Y-78603630D01*
X121110001Y-78602316D01*
X121136062Y-78597293D01*
X121144355Y-78600613D01*
X121153278Y-78600171D01*
X121176287Y-78613396D01*
X121200927Y-78623261D01*
X121211957Y-78633051D01*
X121323181Y-78744275D01*
X121356666Y-78805598D01*
X121359500Y-78831956D01*
X121359500Y-79592955D01*
X121339815Y-79659994D01*
X121323181Y-79680636D01*
X121297540Y-79706276D01*
X121297534Y-79706285D01*
X121256003Y-79778216D01*
X121256002Y-79778217D01*
X121247659Y-79809353D01*
X121234500Y-79858464D01*
X121234500Y-79941536D01*
X121251774Y-80006001D01*
X121256002Y-80021782D01*
X121256003Y-80021783D01*
X121275920Y-80056279D01*
X121297538Y-80093721D01*
X121356279Y-80152462D01*
X121386619Y-80169979D01*
X121428216Y-80193996D01*
X121428217Y-80193997D01*
X121428219Y-80193997D01*
X121428222Y-80193999D01*
X121508464Y-80215500D01*
X121508467Y-80215500D01*
X121591533Y-80215500D01*
X121591536Y-80215500D01*
X121671778Y-80193999D01*
X121671780Y-80193997D01*
X121671782Y-80193997D01*
X121671783Y-80193996D01*
X121677336Y-80190790D01*
X121743721Y-80152462D01*
X121802462Y-80093721D01*
X121843999Y-80021778D01*
X121865500Y-79941536D01*
X121865500Y-79858464D01*
X121843999Y-79778222D01*
X121843997Y-79778219D01*
X121843997Y-79778217D01*
X121843996Y-79778216D01*
X121802465Y-79706285D01*
X121802462Y-79706279D01*
X121776819Y-79680636D01*
X121743334Y-79619313D01*
X121740500Y-79592955D01*
X121740500Y-78663795D01*
X121740499Y-78663792D01*
X121732412Y-78644268D01*
X121711498Y-78593777D01*
X121657910Y-78540189D01*
X121657909Y-78540188D01*
X121294900Y-78177180D01*
X121261416Y-78115858D01*
X121266400Y-78046167D01*
X121308271Y-77990233D01*
X121373736Y-77965816D01*
X121382582Y-77965500D01*
X122070500Y-77965500D01*
X122137539Y-77985185D01*
X122183294Y-78037989D01*
X122194500Y-78089500D01*
X122194500Y-78119006D01*
X122210088Y-78177181D01*
X122216002Y-78199252D01*
X122216003Y-78199253D01*
X122253675Y-78264500D01*
X122257538Y-78271191D01*
X122316279Y-78329932D01*
X122352250Y-78350700D01*
X122388216Y-78371466D01*
X122388217Y-78371467D01*
X122388219Y-78371467D01*
X122388222Y-78371469D01*
X122468464Y-78392970D01*
X122468467Y-78392970D01*
X122551534Y-78392970D01*
X122551536Y-78392970D01*
X122579406Y-78385502D01*
X122649255Y-78387163D01*
X122707118Y-78426325D01*
X122734623Y-78490553D01*
X122735500Y-78505276D01*
X122735500Y-79810500D01*
X122715815Y-79877539D01*
X122663011Y-79923294D01*
X122616519Y-79933407D01*
X122616524Y-79933439D01*
X122616151Y-79933487D01*
X122611500Y-79934500D01*
X122608464Y-79934500D01*
X122552058Y-79949613D01*
X122528217Y-79956002D01*
X122528216Y-79956003D01*
X122456285Y-79997534D01*
X122456276Y-79997540D01*
X122397540Y-80056276D01*
X122397534Y-80056285D01*
X122356003Y-80128216D01*
X122356002Y-80128217D01*
X122354319Y-80134500D01*
X122334500Y-80208464D01*
X122334500Y-80291536D01*
X122344329Y-80328217D01*
X122356002Y-80371782D01*
X122356003Y-80371783D01*
X122395676Y-80440496D01*
X122397538Y-80443721D01*
X122456279Y-80502462D01*
X122481766Y-80517177D01*
X122528216Y-80543996D01*
X122528217Y-80543997D01*
X122528219Y-80543997D01*
X122528222Y-80543999D01*
X122608464Y-80565500D01*
X122608467Y-80565500D01*
X122691533Y-80565500D01*
X122691536Y-80565500D01*
X122771778Y-80543999D01*
X122771780Y-80543997D01*
X122771782Y-80543997D01*
X122771783Y-80543996D01*
X122843721Y-80502462D01*
X122902462Y-80443721D01*
X122943999Y-80371778D01*
X122965500Y-80291536D01*
X122965500Y-80219914D01*
X122985185Y-80152875D01*
X123001820Y-80132232D01*
X123041302Y-80092750D01*
X123041302Y-80092749D01*
X123041304Y-80092748D01*
X123066500Y-80031920D01*
X123066500Y-79966080D01*
X123066500Y-75181924D01*
X124309500Y-75181924D01*
X124309500Y-75264996D01*
X124326440Y-75328216D01*
X124331002Y-75345242D01*
X124331003Y-75345243D01*
X124343672Y-75367185D01*
X124372538Y-75417181D01*
X124372540Y-75417183D01*
X124391905Y-75436548D01*
X124425390Y-75497871D01*
X124420406Y-75567563D01*
X124400724Y-75598482D01*
X124402485Y-75599833D01*
X124397540Y-75606276D01*
X124397538Y-75606279D01*
X124397536Y-75606282D01*
X124397534Y-75606285D01*
X124356003Y-75678216D01*
X124356002Y-75678217D01*
X124356001Y-75678222D01*
X124334500Y-75758464D01*
X124334500Y-75841536D01*
X124352434Y-75908466D01*
X124356002Y-75921782D01*
X124356003Y-75921783D01*
X124382842Y-75968267D01*
X124397538Y-75993721D01*
X124456279Y-76052462D01*
X124470111Y-76060448D01*
X124528216Y-76093996D01*
X124528217Y-76093997D01*
X124528219Y-76093997D01*
X124528222Y-76093999D01*
X124608464Y-76115500D01*
X124608467Y-76115500D01*
X124691533Y-76115500D01*
X124691536Y-76115500D01*
X124771778Y-76093999D01*
X124771780Y-76093997D01*
X124771782Y-76093997D01*
X124771783Y-76093996D01*
X124778978Y-76089842D01*
X124843721Y-76052462D01*
X124902462Y-75993721D01*
X124943999Y-75921778D01*
X124965500Y-75841536D01*
X124965500Y-75758464D01*
X124943999Y-75678222D01*
X124943997Y-75678219D01*
X124943997Y-75678217D01*
X124943996Y-75678216D01*
X124918756Y-75634500D01*
X124902462Y-75606279D01*
X124883094Y-75586911D01*
X124849609Y-75525588D01*
X124854593Y-75455896D01*
X124864569Y-75435227D01*
X124872383Y-75422259D01*
X124877462Y-75417181D01*
X124882495Y-75408464D01*
X126434500Y-75408464D01*
X126434500Y-75491536D01*
X126450825Y-75552462D01*
X126456002Y-75571782D01*
X126456003Y-75571783D01*
X126475920Y-75606279D01*
X126497538Y-75643721D01*
X126556279Y-75702462D01*
X126592250Y-75723230D01*
X126628216Y-75743996D01*
X126628217Y-75743997D01*
X126628219Y-75743997D01*
X126628222Y-75743999D01*
X126708464Y-75765500D01*
X126708467Y-75765500D01*
X126791533Y-75765500D01*
X126791536Y-75765500D01*
X126871778Y-75743999D01*
X126871780Y-75743997D01*
X126871782Y-75743997D01*
X126871783Y-75743996D01*
X126943721Y-75702462D01*
X127002462Y-75643721D01*
X127043999Y-75571778D01*
X127065500Y-75491536D01*
X127065500Y-75408464D01*
X127043999Y-75328222D01*
X127043997Y-75328219D01*
X127043997Y-75328217D01*
X127043996Y-75328216D01*
X127023230Y-75292250D01*
X127002462Y-75256279D01*
X126943721Y-75197538D01*
X126916681Y-75181926D01*
X126871783Y-75156003D01*
X126871782Y-75156002D01*
X126865201Y-75154238D01*
X126791536Y-75134500D01*
X126708464Y-75134500D01*
X126652058Y-75149613D01*
X126628217Y-75156002D01*
X126628216Y-75156003D01*
X126556285Y-75197534D01*
X126556276Y-75197540D01*
X126497540Y-75256276D01*
X126497534Y-75256285D01*
X126456003Y-75328216D01*
X126456002Y-75328217D01*
X126451322Y-75345684D01*
X126434500Y-75408464D01*
X124882495Y-75408464D01*
X124918999Y-75345238D01*
X124940500Y-75264996D01*
X124940500Y-75181924D01*
X124918999Y-75101682D01*
X124918997Y-75101679D01*
X124918997Y-75101677D01*
X124918996Y-75101676D01*
X124877466Y-75029745D01*
X124877463Y-75029742D01*
X124877462Y-75029739D01*
X124877459Y-75029736D01*
X124873356Y-75024389D01*
X124848161Y-74959220D01*
X124862198Y-74890775D01*
X124888933Y-74859168D01*
X124887974Y-74858209D01*
X124896316Y-74849867D01*
X124952462Y-74793721D01*
X124993999Y-74721778D01*
X125015500Y-74641536D01*
X125015500Y-74558464D01*
X124993999Y-74478222D01*
X124993997Y-74478219D01*
X124993997Y-74478217D01*
X124993996Y-74478216D01*
X124952465Y-74406285D01*
X124952462Y-74406279D01*
X124893721Y-74347538D01*
X124890496Y-74345676D01*
X124821783Y-74306003D01*
X124821782Y-74306002D01*
X124815201Y-74304238D01*
X124741536Y-74284500D01*
X124658464Y-74284500D01*
X124602058Y-74299613D01*
X124578217Y-74306002D01*
X124578216Y-74306003D01*
X124506285Y-74347534D01*
X124506276Y-74347540D01*
X124447540Y-74406276D01*
X124447534Y-74406285D01*
X124406003Y-74478216D01*
X124406002Y-74478217D01*
X124406001Y-74478222D01*
X124384500Y-74558464D01*
X124384500Y-74641536D01*
X124392372Y-74670914D01*
X124406002Y-74721782D01*
X124406003Y-74721783D01*
X124447533Y-74793714D01*
X124451644Y-74799071D01*
X124476838Y-74864240D01*
X124462800Y-74932685D01*
X124436069Y-74964294D01*
X124437026Y-74965251D01*
X124372540Y-75029736D01*
X124372534Y-75029745D01*
X124331003Y-75101676D01*
X124331002Y-75101677D01*
X124322659Y-75132813D01*
X124309500Y-75181924D01*
X123066500Y-75181924D01*
X123066500Y-74518080D01*
X123041304Y-74457252D01*
X123041304Y-74457251D01*
X122618553Y-74034500D01*
X122201819Y-73617766D01*
X122168334Y-73556443D01*
X122165500Y-73530085D01*
X122165500Y-73458466D01*
X122165500Y-73458464D01*
X122143999Y-73378222D01*
X122143997Y-73378219D01*
X122143997Y-73378217D01*
X122143996Y-73378216D01*
X122102465Y-73306285D01*
X122102462Y-73306279D01*
X122043721Y-73247538D01*
X122040496Y-73245676D01*
X121971783Y-73206003D01*
X121971782Y-73206002D01*
X121965201Y-73204238D01*
X121891536Y-73184500D01*
X121808464Y-73184500D01*
X121752058Y-73199613D01*
X121728217Y-73206002D01*
X121728216Y-73206003D01*
X121656285Y-73247534D01*
X121656276Y-73247540D01*
X121597540Y-73306276D01*
X121597534Y-73306285D01*
X121556003Y-73378216D01*
X121556002Y-73378217D01*
X121556001Y-73378222D01*
X121534500Y-73458464D01*
X121534500Y-73541536D01*
X121554238Y-73615201D01*
X121556002Y-73621782D01*
X121556003Y-73621783D01*
X121595676Y-73690496D01*
X121597538Y-73693721D01*
X121656279Y-73752462D01*
X121692250Y-73773230D01*
X121728216Y-73793996D01*
X121728217Y-73793997D01*
X121728219Y-73793997D01*
X121728222Y-73793999D01*
X121808464Y-73815500D01*
X121808467Y-73815500D01*
X121880086Y-73815500D01*
X121947125Y-73835185D01*
X121967767Y-73851819D01*
X122699181Y-74583233D01*
X122732666Y-74644556D01*
X122735500Y-74670914D01*
X122735500Y-76005480D01*
X122715815Y-76072519D01*
X122663011Y-76118274D01*
X122593853Y-76128218D01*
X122579408Y-76125255D01*
X122520705Y-76109526D01*
X122520704Y-76109526D01*
X122437632Y-76109526D01*
X122358730Y-76130668D01*
X122288881Y-76129005D01*
X122231018Y-76089842D01*
X122219249Y-76072891D01*
X122218609Y-76071782D01*
X122216740Y-76068545D01*
X122157999Y-76009804D01*
X122150510Y-76005480D01*
X122086061Y-75968269D01*
X122086060Y-75968268D01*
X122079479Y-75966504D01*
X122005814Y-75946766D01*
X121922742Y-75946766D01*
X121866336Y-75961879D01*
X121842495Y-75968268D01*
X121842494Y-75968269D01*
X121770563Y-76009800D01*
X121770553Y-76009807D01*
X121719912Y-76060448D01*
X121658589Y-76093932D01*
X121632232Y-76096766D01*
X119786648Y-76096766D01*
X119719609Y-76077081D01*
X119673854Y-76024277D01*
X119663910Y-75955119D01*
X119692935Y-75891563D01*
X119698967Y-75885085D01*
X120330548Y-75253504D01*
X120391871Y-75220019D01*
X120418229Y-75217185D01*
X121657954Y-75217185D01*
X121724993Y-75236870D01*
X121745634Y-75253503D01*
X121796275Y-75304143D01*
X121796279Y-75304147D01*
X121832250Y-75324915D01*
X121868216Y-75345681D01*
X121868217Y-75345682D01*
X121868219Y-75345682D01*
X121868222Y-75345684D01*
X121948464Y-75367185D01*
X121948467Y-75367185D01*
X122031533Y-75367185D01*
X122031536Y-75367185D01*
X122111778Y-75345684D01*
X122111780Y-75345682D01*
X122111782Y-75345682D01*
X122111783Y-75345681D01*
X122112542Y-75345243D01*
X122183721Y-75304147D01*
X122242462Y-75245406D01*
X122283999Y-75173463D01*
X122305500Y-75093221D01*
X122305500Y-75010149D01*
X122283999Y-74929907D01*
X122283997Y-74929904D01*
X122283997Y-74929902D01*
X122283996Y-74929901D01*
X122257119Y-74883351D01*
X122242462Y-74857964D01*
X122183721Y-74799223D01*
X122174195Y-74793723D01*
X122111783Y-74757688D01*
X122111782Y-74757687D01*
X122105201Y-74755923D01*
X122031536Y-74736185D01*
X121948464Y-74736185D01*
X121892058Y-74751298D01*
X121868217Y-74757687D01*
X121868216Y-74757688D01*
X121796285Y-74799219D01*
X121796275Y-74799226D01*
X121745634Y-74849867D01*
X121684311Y-74883351D01*
X121657954Y-74886185D01*
X120265394Y-74886185D01*
X120204565Y-74911382D01*
X118560667Y-76555280D01*
X118499344Y-76588765D01*
X118429652Y-76583781D01*
X118373719Y-76541909D01*
X118365607Y-76529612D01*
X118351690Y-76505507D01*
X118292949Y-76446766D01*
X118289724Y-76444904D01*
X118221011Y-76405231D01*
X118221010Y-76405230D01*
X118214429Y-76403466D01*
X118140764Y-76383728D01*
X118057692Y-76383728D01*
X118001286Y-76398841D01*
X117977445Y-76405230D01*
X117977444Y-76405231D01*
X117905513Y-76446762D01*
X117905504Y-76446768D01*
X117846768Y-76505504D01*
X117846763Y-76505510D01*
X117837944Y-76520785D01*
X117787374Y-76568998D01*
X117718766Y-76582217D01*
X117653903Y-76556245D01*
X117613378Y-76499329D01*
X117610792Y-76490894D01*
X117593999Y-76428222D01*
X117580724Y-76405230D01*
X117552465Y-76356285D01*
X117552462Y-76356279D01*
X117493721Y-76297538D01*
X117490496Y-76295676D01*
X117421783Y-76256003D01*
X117421782Y-76256002D01*
X117415201Y-76254238D01*
X117341536Y-76234500D01*
X117258464Y-76234500D01*
X117202058Y-76249613D01*
X117178217Y-76256002D01*
X117178216Y-76256003D01*
X117106285Y-76297534D01*
X117106276Y-76297540D01*
X117047540Y-76356276D01*
X117047534Y-76356285D01*
X117006003Y-76428216D01*
X117006002Y-76428217D01*
X116998561Y-76455987D01*
X116984500Y-76508464D01*
X116984500Y-76508466D01*
X116984500Y-76580085D01*
X116964815Y-76647124D01*
X116948181Y-76667766D01*
X116727181Y-76888766D01*
X116665858Y-76922251D01*
X116596166Y-76917267D01*
X116540233Y-76875395D01*
X116515816Y-76809931D01*
X116515500Y-76801085D01*
X116515500Y-76758466D01*
X116515500Y-76758464D01*
X116493999Y-76678222D01*
X116493997Y-76678219D01*
X116493997Y-76678217D01*
X116493996Y-76678216D01*
X116473230Y-76642250D01*
X116452462Y-76606279D01*
X116393721Y-76547538D01*
X116390496Y-76545676D01*
X116321783Y-76506003D01*
X116321782Y-76506002D01*
X116315201Y-76504238D01*
X116241536Y-76484500D01*
X116158464Y-76484500D01*
X116103122Y-76499329D01*
X116078217Y-76506002D01*
X116078216Y-76506003D01*
X116006285Y-76547534D01*
X116006276Y-76547540D01*
X115947540Y-76606276D01*
X115947534Y-76606285D01*
X115906003Y-76678216D01*
X115906002Y-76678217D01*
X115906001Y-76678222D01*
X115884500Y-76758464D01*
X115884500Y-76758466D01*
X115884500Y-76830085D01*
X115864815Y-76897124D01*
X115848181Y-76917766D01*
X113317767Y-79448181D01*
X113256444Y-79481666D01*
X113230086Y-79484500D01*
X105932046Y-79484500D01*
X105865007Y-79464815D01*
X105844366Y-79448182D01*
X105793724Y-79397541D01*
X105793723Y-79397540D01*
X105793721Y-79397538D01*
X105767746Y-79382541D01*
X105721783Y-79356003D01*
X105721782Y-79356002D01*
X105715201Y-79354238D01*
X105641536Y-79334500D01*
X105558464Y-79334500D01*
X105502058Y-79349613D01*
X105478217Y-79356002D01*
X105478216Y-79356003D01*
X105406285Y-79397534D01*
X105406276Y-79397540D01*
X105347540Y-79456276D01*
X105347534Y-79456285D01*
X105306003Y-79528216D01*
X105306002Y-79528217D01*
X105306001Y-79528222D01*
X105284500Y-79608464D01*
X105284500Y-79691536D01*
X105297897Y-79741533D01*
X105306002Y-79771782D01*
X105306003Y-79771783D01*
X105342610Y-79835185D01*
X105347538Y-79843721D01*
X105406279Y-79902462D01*
X105442250Y-79923230D01*
X105478216Y-79943996D01*
X105478217Y-79943997D01*
X105478219Y-79943997D01*
X105478222Y-79943999D01*
X105558464Y-79965500D01*
X105558467Y-79965500D01*
X105641533Y-79965500D01*
X105641536Y-79965500D01*
X105721778Y-79943999D01*
X105721780Y-79943997D01*
X105721782Y-79943997D01*
X105721783Y-79943996D01*
X105793721Y-79902462D01*
X105825045Y-79871138D01*
X105844366Y-79851818D01*
X105905689Y-79818334D01*
X105932046Y-79815500D01*
X111645406Y-79815500D01*
X111712445Y-79835185D01*
X111758200Y-79887989D01*
X111768144Y-79957147D01*
X111742014Y-80017235D01*
X111727480Y-80035297D01*
X111706279Y-80047538D01*
X111647538Y-80106279D01*
X111606001Y-80178222D01*
X111602767Y-80190288D01*
X111587981Y-80208665D01*
X111573308Y-80218868D01*
X111562093Y-80232786D01*
X111545219Y-80238402D01*
X111530618Y-80248556D01*
X111512756Y-80249207D01*
X111495799Y-80254851D01*
X111478186Y-80250467D01*
X111460795Y-80251101D01*
X111446344Y-80242541D01*
X111429373Y-80238317D01*
X111367214Y-80202429D01*
X111367215Y-80202429D01*
X111360634Y-80200665D01*
X111286969Y-80180927D01*
X111203897Y-80180927D01*
X111147491Y-80196040D01*
X111123650Y-80202429D01*
X111123649Y-80202430D01*
X111051718Y-80243961D01*
X111051709Y-80243967D01*
X110992973Y-80302703D01*
X110992967Y-80302712D01*
X110951436Y-80374643D01*
X110951435Y-80374644D01*
X110943092Y-80405780D01*
X110929933Y-80454891D01*
X110929933Y-80537963D01*
X110944948Y-80593999D01*
X110951435Y-80618209D01*
X110951436Y-80618210D01*
X110977342Y-80663079D01*
X110992971Y-80690148D01*
X111051712Y-80748889D01*
X111053195Y-80749745D01*
X111123649Y-80790423D01*
X111123650Y-80790424D01*
X111123652Y-80790424D01*
X111123655Y-80790426D01*
X111203897Y-80811927D01*
X111203900Y-80811927D01*
X111286966Y-80811927D01*
X111286969Y-80811927D01*
X111367211Y-80790426D01*
X111367213Y-80790424D01*
X111367215Y-80790424D01*
X111367216Y-80790423D01*
X111373545Y-80786769D01*
X111439154Y-80748889D01*
X111497895Y-80690148D01*
X111533705Y-80628124D01*
X111539425Y-80618218D01*
X111539426Y-80618214D01*
X111539432Y-80618205D01*
X111539434Y-80618194D01*
X111539490Y-80618062D01*
X111539579Y-80617950D01*
X111543497Y-80611166D01*
X111544553Y-80611776D01*
X111583323Y-80563651D01*
X111649613Y-80541576D01*
X111716059Y-80558108D01*
X111778222Y-80593999D01*
X111858464Y-80615500D01*
X111858467Y-80615500D01*
X111941533Y-80615500D01*
X111941536Y-80615500D01*
X112021778Y-80593999D01*
X112021780Y-80593997D01*
X112021782Y-80593997D01*
X112021783Y-80593996D01*
X112093721Y-80552462D01*
X112152462Y-80493721D01*
X112193999Y-80421778D01*
X112215500Y-80341536D01*
X112215500Y-80258464D01*
X112193999Y-80178222D01*
X112193997Y-80178219D01*
X112193997Y-80178217D01*
X112193996Y-80178216D01*
X112167446Y-80132232D01*
X112152462Y-80106279D01*
X112093721Y-80047538D01*
X112092590Y-80046885D01*
X112091829Y-80046086D01*
X112087272Y-80042590D01*
X112087817Y-80041879D01*
X112044377Y-79996316D01*
X112031156Y-79927709D01*
X112057126Y-79862845D01*
X112114041Y-79822319D01*
X112154594Y-79815500D01*
X113382919Y-79815500D01*
X113382920Y-79815500D01*
X113443748Y-79790304D01*
X116082232Y-77151818D01*
X116109159Y-77137115D01*
X116134978Y-77120523D01*
X116141178Y-77119631D01*
X116143555Y-77118334D01*
X116169913Y-77115500D01*
X116201085Y-77115500D01*
X116268124Y-77135185D01*
X116313879Y-77187989D01*
X116323823Y-77257147D01*
X116294798Y-77320703D01*
X116288766Y-77327181D01*
X112332349Y-81283599D01*
X112285794Y-81330153D01*
X112260595Y-81390986D01*
X112258416Y-81401944D01*
X112226031Y-81463855D01*
X112224482Y-81465432D01*
X112173635Y-81516280D01*
X112173631Y-81516286D01*
X112132100Y-81588217D01*
X112132099Y-81588218D01*
X112132098Y-81588223D01*
X112110597Y-81668465D01*
X112110597Y-81668467D01*
X112110597Y-81751536D01*
X112117797Y-81778407D01*
X112116134Y-81848257D01*
X112076971Y-81906119D01*
X112012743Y-81933623D01*
X111998022Y-81934500D01*
X106669914Y-81934500D01*
X106602875Y-81914815D01*
X106582233Y-81898181D01*
X105951819Y-81267767D01*
X105918334Y-81206444D01*
X105915500Y-81180086D01*
X105915500Y-81108466D01*
X105915500Y-81108464D01*
X105893999Y-81028222D01*
X105893997Y-81028219D01*
X105893997Y-81028217D01*
X105893996Y-81028216D01*
X105860648Y-80970458D01*
X105852462Y-80956279D01*
X105793721Y-80897538D01*
X105781694Y-80890594D01*
X105721783Y-80856003D01*
X105721782Y-80856002D01*
X105715201Y-80854238D01*
X105641536Y-80834500D01*
X105558464Y-80834500D01*
X105502058Y-80849613D01*
X105478217Y-80856002D01*
X105478216Y-80856003D01*
X105406285Y-80897534D01*
X105406276Y-80897540D01*
X105347540Y-80956276D01*
X105347534Y-80956285D01*
X105306003Y-81028216D01*
X105306002Y-81028217D01*
X105302917Y-81039732D01*
X105284500Y-81108464D01*
X105284500Y-81191536D01*
X105296805Y-81237457D01*
X105306002Y-81271782D01*
X105306003Y-81271783D01*
X105345676Y-81340496D01*
X105347538Y-81343721D01*
X105406279Y-81402462D01*
X105442250Y-81423230D01*
X105478216Y-81443996D01*
X105478217Y-81443997D01*
X105478219Y-81443997D01*
X105478222Y-81443999D01*
X105558464Y-81465500D01*
X105558467Y-81465500D01*
X105630086Y-81465500D01*
X105697125Y-81485185D01*
X105717767Y-81501819D01*
X106409696Y-82193748D01*
X106456252Y-82240304D01*
X106517080Y-82265500D01*
X106517081Y-82265500D01*
X112551085Y-82265500D01*
X112618124Y-82285185D01*
X112663879Y-82337989D01*
X112673823Y-82407147D01*
X112644798Y-82470703D01*
X112638766Y-82477181D01*
X109017766Y-86098181D01*
X108956443Y-86131666D01*
X108930085Y-86134500D01*
X108858464Y-86134500D01*
X108802058Y-86149613D01*
X108778217Y-86156002D01*
X108778216Y-86156003D01*
X108706285Y-86197534D01*
X108706276Y-86197540D01*
X108647540Y-86256276D01*
X108647534Y-86256285D01*
X108606003Y-86328216D01*
X108606002Y-86328217D01*
X108606001Y-86328222D01*
X108584500Y-86408464D01*
X108584500Y-86491536D01*
X108596091Y-86534794D01*
X108606002Y-86571782D01*
X108606003Y-86571783D01*
X108636624Y-86624818D01*
X108647538Y-86643721D01*
X108706279Y-86702462D01*
X108730260Y-86716307D01*
X108778210Y-86743993D01*
X108778215Y-86743995D01*
X108778222Y-86743999D01*
X108778229Y-86744000D01*
X108779096Y-86744360D01*
X108779729Y-86744870D01*
X108785261Y-86748064D01*
X108784763Y-86748925D01*
X108833505Y-86788195D01*
X108855577Y-86854487D01*
X108838306Y-86922188D01*
X108819338Y-86946608D01*
X108206252Y-87559696D01*
X108159697Y-87606250D01*
X108159696Y-87606251D01*
X108159696Y-87606252D01*
X108156038Y-87615084D01*
X108134500Y-87667079D01*
X108134500Y-88617954D01*
X108114815Y-88684993D01*
X108098182Y-88705634D01*
X108047541Y-88756275D01*
X108047534Y-88756285D01*
X108006003Y-88828216D01*
X108006002Y-88828217D01*
X108006001Y-88828222D01*
X107984500Y-88908464D01*
X107984500Y-88991536D01*
X108001774Y-89056001D01*
X108006002Y-89071782D01*
X108006003Y-89071783D01*
X108029098Y-89111783D01*
X108047538Y-89143721D01*
X108106279Y-89202462D01*
X108122969Y-89212098D01*
X108178216Y-89243996D01*
X108178217Y-89243997D01*
X108178219Y-89243997D01*
X108178222Y-89243999D01*
X108258464Y-89265500D01*
X108258467Y-89265500D01*
X108341533Y-89265500D01*
X108341536Y-89265500D01*
X108421778Y-89243999D01*
X108448498Y-89228572D01*
X108516398Y-89212098D01*
X108582426Y-89234950D01*
X108625617Y-89289870D01*
X108634500Y-89335958D01*
X108634500Y-90080085D01*
X108614815Y-90147124D01*
X108598181Y-90167766D01*
X108367766Y-90398181D01*
X108306443Y-90431666D01*
X108280085Y-90434500D01*
X108208464Y-90434500D01*
X108154671Y-90448914D01*
X108128217Y-90456002D01*
X108128216Y-90456003D01*
X108056285Y-90497534D01*
X108056276Y-90497540D01*
X107997540Y-90556276D01*
X107997534Y-90556285D01*
X107956003Y-90628216D01*
X107956002Y-90628217D01*
X107949395Y-90652874D01*
X107934500Y-90708464D01*
X107934500Y-90791536D01*
X107954238Y-90865201D01*
X107956002Y-90871782D01*
X107956003Y-90871783D01*
X107988077Y-90927334D01*
X107997538Y-90943721D01*
X108056279Y-91002462D01*
X108092250Y-91023230D01*
X108128216Y-91043996D01*
X108128217Y-91043997D01*
X108128219Y-91043997D01*
X108128222Y-91043999D01*
X108208464Y-91065500D01*
X108208467Y-91065500D01*
X108291533Y-91065500D01*
X108291536Y-91065500D01*
X108371778Y-91043999D01*
X108371780Y-91043997D01*
X108371782Y-91043997D01*
X108371783Y-91043996D01*
X108379156Y-91039739D01*
X108443721Y-91002462D01*
X108502462Y-90943721D01*
X108543999Y-90871778D01*
X108565500Y-90791536D01*
X108565500Y-90719913D01*
X108585185Y-90652874D01*
X108601819Y-90632232D01*
X108645821Y-90588230D01*
X108872820Y-90361232D01*
X108934142Y-90327748D01*
X109003834Y-90332732D01*
X109059767Y-90374604D01*
X109084184Y-90440068D01*
X109084500Y-90448914D01*
X109084500Y-91330085D01*
X109064815Y-91397124D01*
X109048181Y-91417766D01*
X108317766Y-92148181D01*
X108256443Y-92181666D01*
X108230085Y-92184500D01*
X108158464Y-92184500D01*
X108102058Y-92199613D01*
X108078217Y-92206002D01*
X108078216Y-92206003D01*
X108006285Y-92247534D01*
X108006276Y-92247540D01*
X107947540Y-92306276D01*
X107947534Y-92306285D01*
X107906003Y-92378216D01*
X107906002Y-92378217D01*
X107899395Y-92402874D01*
X107884500Y-92458464D01*
X107884500Y-92541536D01*
X107899827Y-92598735D01*
X107906002Y-92621782D01*
X107906003Y-92621783D01*
X107938589Y-92678222D01*
X107947538Y-92693721D01*
X108006279Y-92752462D01*
X108036505Y-92769913D01*
X108078216Y-92793996D01*
X108078217Y-92793997D01*
X108078219Y-92793997D01*
X108078222Y-92793999D01*
X108158464Y-92815500D01*
X108158467Y-92815500D01*
X108215730Y-92815500D01*
X108282769Y-92835185D01*
X108328524Y-92887989D01*
X108338468Y-92957147D01*
X108309443Y-93020703D01*
X108303411Y-93027181D01*
X107622503Y-93708088D01*
X107622502Y-93708089D01*
X107593500Y-93778105D01*
X107593500Y-94960207D01*
X107622502Y-95030223D01*
X107693526Y-95101247D01*
X107693532Y-95101252D01*
X108240098Y-95647819D01*
X108273583Y-95709142D01*
X108268599Y-95778834D01*
X108226727Y-95834767D01*
X108161263Y-95859184D01*
X108152417Y-95859500D01*
X104300981Y-95859500D01*
X104271540Y-95850855D01*
X104241554Y-95844332D01*
X104236538Y-95840577D01*
X104233942Y-95839815D01*
X104213300Y-95823181D01*
X104167074Y-95776955D01*
X104133589Y-95715632D01*
X104138573Y-95645940D01*
X104180445Y-95590007D01*
X104192746Y-95581892D01*
X104243721Y-95552462D01*
X104302462Y-95493721D01*
X104343999Y-95421778D01*
X104365500Y-95341536D01*
X104365500Y-95258464D01*
X104343999Y-95178222D01*
X104343997Y-95178219D01*
X104343997Y-95178217D01*
X104343996Y-95178216D01*
X104302465Y-95106285D01*
X104302462Y-95106279D01*
X104243721Y-95047538D01*
X104216191Y-95031643D01*
X104171783Y-95006003D01*
X104171782Y-95006002D01*
X104158570Y-95002462D01*
X104091536Y-94984500D01*
X104019914Y-94984500D01*
X103952875Y-94964815D01*
X103932233Y-94948181D01*
X102551819Y-93567767D01*
X102518334Y-93506444D01*
X102515500Y-93480086D01*
X102515500Y-89308464D01*
X104584500Y-89308464D01*
X104584500Y-89391536D01*
X104601191Y-89453828D01*
X104606002Y-89471782D01*
X104606003Y-89471783D01*
X104638589Y-89528222D01*
X104647538Y-89543721D01*
X104706279Y-89602462D01*
X104723423Y-89612360D01*
X104778216Y-89643996D01*
X104778217Y-89643997D01*
X104778219Y-89643997D01*
X104778222Y-89643999D01*
X104858464Y-89665500D01*
X104858467Y-89665500D01*
X104941533Y-89665500D01*
X104941536Y-89665500D01*
X105021778Y-89643999D01*
X105021780Y-89643997D01*
X105021782Y-89643997D01*
X105021783Y-89643996D01*
X105026049Y-89641533D01*
X105093721Y-89602462D01*
X105152462Y-89543721D01*
X105193999Y-89471778D01*
X105215500Y-89391536D01*
X105215500Y-89308464D01*
X105193999Y-89228222D01*
X105193997Y-89228219D01*
X105193997Y-89228217D01*
X105193996Y-89228216D01*
X105159498Y-89168466D01*
X105152462Y-89156279D01*
X105093721Y-89097538D01*
X105087098Y-89093714D01*
X105021783Y-89056003D01*
X105021782Y-89056002D01*
X105015201Y-89054238D01*
X104941536Y-89034500D01*
X104858464Y-89034500D01*
X104802058Y-89049613D01*
X104778217Y-89056002D01*
X104778216Y-89056003D01*
X104706285Y-89097534D01*
X104706276Y-89097540D01*
X104647540Y-89156276D01*
X104647534Y-89156285D01*
X104606003Y-89228216D01*
X104606002Y-89228217D01*
X104599754Y-89251536D01*
X104584500Y-89308464D01*
X102515500Y-89308464D01*
X102515500Y-87458464D01*
X104534500Y-87458464D01*
X104534500Y-87541536D01*
X104548557Y-87593996D01*
X104556002Y-87621782D01*
X104556003Y-87621783D01*
X104584440Y-87671035D01*
X104597538Y-87693721D01*
X104656279Y-87752462D01*
X104684147Y-87768552D01*
X104728216Y-87793996D01*
X104728217Y-87793997D01*
X104728219Y-87793997D01*
X104728222Y-87793999D01*
X104808464Y-87815500D01*
X104808467Y-87815500D01*
X104891533Y-87815500D01*
X104891536Y-87815500D01*
X104971778Y-87793999D01*
X104971780Y-87793997D01*
X104971782Y-87793997D01*
X104971783Y-87793996D01*
X104972256Y-87793723D01*
X105043721Y-87752462D01*
X105102462Y-87693721D01*
X105143999Y-87621778D01*
X105165500Y-87541536D01*
X105165500Y-87458464D01*
X105143999Y-87378222D01*
X105143997Y-87378219D01*
X105143997Y-87378217D01*
X105143996Y-87378216D01*
X105116207Y-87330086D01*
X105102462Y-87306279D01*
X105043721Y-87247538D01*
X105040496Y-87245676D01*
X104971783Y-87206003D01*
X104971782Y-87206002D01*
X104963773Y-87203856D01*
X104891536Y-87184500D01*
X104808464Y-87184500D01*
X104752058Y-87199613D01*
X104728217Y-87206002D01*
X104728216Y-87206003D01*
X104656285Y-87247534D01*
X104656276Y-87247540D01*
X104597540Y-87306276D01*
X104597534Y-87306285D01*
X104556003Y-87378216D01*
X104556002Y-87378217D01*
X104554107Y-87385290D01*
X104534500Y-87458464D01*
X102515500Y-87458464D01*
X102515500Y-80098082D01*
X102535185Y-80031043D01*
X102577499Y-79990695D01*
X102643721Y-79952462D01*
X102702462Y-79893721D01*
X102743999Y-79821778D01*
X102765500Y-79741536D01*
X102765500Y-79658464D01*
X102743999Y-79578222D01*
X102743997Y-79578219D01*
X102743997Y-79578217D01*
X102743996Y-79578216D01*
X102715128Y-79528217D01*
X102702462Y-79506279D01*
X102643721Y-79447538D01*
X102618730Y-79433109D01*
X102570516Y-79382541D01*
X102557294Y-79313934D01*
X102583263Y-79249070D01*
X102593043Y-79238050D01*
X103604275Y-78226819D01*
X103631202Y-78212115D01*
X103657021Y-78195523D01*
X103663221Y-78194631D01*
X103665598Y-78193334D01*
X103691956Y-78190500D01*
X103843457Y-78190500D01*
X103910496Y-78210185D01*
X103931138Y-78226819D01*
X103934788Y-78230469D01*
X103934791Y-78230470D01*
X103934794Y-78230473D01*
X104014706Y-78276611D01*
X104014707Y-78276611D01*
X104014712Y-78276614D01*
X104103856Y-78300500D01*
X104103858Y-78300500D01*
X104196142Y-78300500D01*
X104196144Y-78300500D01*
X104285288Y-78276614D01*
X104365212Y-78230469D01*
X104430469Y-78165212D01*
X104476614Y-78085288D01*
X104483801Y-78058464D01*
X107584500Y-78058464D01*
X107584500Y-78141536D01*
X107602895Y-78210185D01*
X107606002Y-78221782D01*
X107606003Y-78221783D01*
X107630667Y-78264500D01*
X107647538Y-78293721D01*
X107706279Y-78352462D01*
X107733342Y-78368087D01*
X107778216Y-78393996D01*
X107778217Y-78393997D01*
X107778219Y-78393997D01*
X107778222Y-78393999D01*
X107858464Y-78415500D01*
X107858467Y-78415500D01*
X107941533Y-78415500D01*
X107941536Y-78415500D01*
X108021778Y-78393999D01*
X108021780Y-78393997D01*
X108021782Y-78393997D01*
X108021783Y-78393996D01*
X108033618Y-78387163D01*
X108093721Y-78352462D01*
X108152462Y-78293721D01*
X108193999Y-78221778D01*
X108215500Y-78141536D01*
X108215500Y-78058464D01*
X108193999Y-77978222D01*
X108193997Y-77978219D01*
X108193997Y-77978217D01*
X108193996Y-77978216D01*
X108152465Y-77906285D01*
X108152462Y-77906279D01*
X108093721Y-77847538D01*
X108054699Y-77825008D01*
X108021783Y-77806003D01*
X108021782Y-77806002D01*
X108015201Y-77804238D01*
X107941536Y-77784500D01*
X107858464Y-77784500D01*
X107802058Y-77799613D01*
X107778217Y-77806002D01*
X107778216Y-77806003D01*
X107706285Y-77847534D01*
X107706276Y-77847540D01*
X107647540Y-77906276D01*
X107647534Y-77906285D01*
X107606003Y-77978216D01*
X107606002Y-77978217D01*
X107597659Y-78009353D01*
X107584500Y-78058464D01*
X104483801Y-78058464D01*
X104500500Y-77996144D01*
X104500500Y-77903856D01*
X104476614Y-77814712D01*
X104471586Y-77806003D01*
X104430473Y-77734794D01*
X104430470Y-77734791D01*
X104430469Y-77734788D01*
X104365212Y-77669531D01*
X104365209Y-77669529D01*
X104365205Y-77669526D01*
X104285293Y-77623388D01*
X104285290Y-77623387D01*
X104285289Y-77623386D01*
X104285288Y-77623386D01*
X104196144Y-77599500D01*
X104103856Y-77599500D01*
X104014712Y-77623386D01*
X104014711Y-77623386D01*
X104014709Y-77623387D01*
X104014706Y-77623388D01*
X103934794Y-77669526D01*
X103934785Y-77669533D01*
X103931138Y-77673181D01*
X103869815Y-77706666D01*
X103843457Y-77709500D01*
X103493136Y-77709500D01*
X103404743Y-77746114D01*
X100662181Y-80488676D01*
X100600858Y-80522161D01*
X100531166Y-80517177D01*
X100475233Y-80475305D01*
X100450816Y-80409841D01*
X100450500Y-80400995D01*
X100450500Y-76808464D01*
X114584500Y-76808464D01*
X114584500Y-76891536D01*
X114604238Y-76965201D01*
X114606002Y-76971782D01*
X114606003Y-76971783D01*
X114645164Y-77039609D01*
X114647538Y-77043721D01*
X114706279Y-77102462D01*
X114728861Y-77115500D01*
X114778216Y-77143996D01*
X114778217Y-77143997D01*
X114778219Y-77143997D01*
X114778222Y-77143999D01*
X114858464Y-77165500D01*
X114858467Y-77165500D01*
X114941533Y-77165500D01*
X114941536Y-77165500D01*
X115021778Y-77143999D01*
X115021780Y-77143997D01*
X115021782Y-77143997D01*
X115021783Y-77143996D01*
X115037044Y-77135185D01*
X115093721Y-77102462D01*
X115152462Y-77043721D01*
X115193999Y-76971778D01*
X115215500Y-76891536D01*
X115215500Y-76808464D01*
X115193999Y-76728222D01*
X115193997Y-76728219D01*
X115193997Y-76728217D01*
X115193996Y-76728216D01*
X115165128Y-76678217D01*
X115152462Y-76656279D01*
X115093721Y-76597538D01*
X115090496Y-76595676D01*
X115021783Y-76556003D01*
X115021782Y-76556002D01*
X115015201Y-76554238D01*
X114941536Y-76534500D01*
X114858464Y-76534500D01*
X114809821Y-76547534D01*
X114778217Y-76556002D01*
X114778216Y-76556003D01*
X114706285Y-76597534D01*
X114706276Y-76597540D01*
X114647540Y-76656276D01*
X114647534Y-76656285D01*
X114606003Y-76728216D01*
X114606002Y-76728217D01*
X114602704Y-76740526D01*
X114584500Y-76808464D01*
X100450500Y-76808464D01*
X100450500Y-75908464D01*
X105234500Y-75908464D01*
X105234500Y-75991536D01*
X105250825Y-76052462D01*
X105256002Y-76071782D01*
X105256003Y-76071783D01*
X105290002Y-76130668D01*
X105297538Y-76143721D01*
X105356279Y-76202462D01*
X105392250Y-76223230D01*
X105428216Y-76243996D01*
X105428217Y-76243997D01*
X105428219Y-76243997D01*
X105428222Y-76243999D01*
X105508464Y-76265500D01*
X105508467Y-76265500D01*
X105591533Y-76265500D01*
X105591536Y-76265500D01*
X105671778Y-76243999D01*
X105671780Y-76243997D01*
X105671782Y-76243997D01*
X105671783Y-76243996D01*
X105693764Y-76231305D01*
X105743721Y-76202462D01*
X105802462Y-76143721D01*
X105843999Y-76071778D01*
X105865500Y-75991536D01*
X105865500Y-75908464D01*
X105843999Y-75828222D01*
X105843997Y-75828219D01*
X105843997Y-75828217D01*
X105843996Y-75828216D01*
X105834829Y-75812338D01*
X105807786Y-75765500D01*
X105803724Y-75758464D01*
X106634500Y-75758464D01*
X106634500Y-75841536D01*
X106652434Y-75908466D01*
X106656002Y-75921782D01*
X106656003Y-75921783D01*
X106682842Y-75968267D01*
X106697538Y-75993721D01*
X106756279Y-76052462D01*
X106770111Y-76060448D01*
X106828216Y-76093996D01*
X106828217Y-76093997D01*
X106828219Y-76093997D01*
X106828222Y-76093999D01*
X106908464Y-76115500D01*
X106908467Y-76115500D01*
X106991533Y-76115500D01*
X106991536Y-76115500D01*
X107071778Y-76093999D01*
X107071780Y-76093997D01*
X107071782Y-76093997D01*
X107071783Y-76093996D01*
X107078978Y-76089842D01*
X107143721Y-76052462D01*
X107202462Y-75993721D01*
X107243999Y-75921778D01*
X107265500Y-75841536D01*
X107265500Y-75758464D01*
X107243999Y-75678222D01*
X107243997Y-75678219D01*
X107243997Y-75678217D01*
X107243996Y-75678216D01*
X107218756Y-75634500D01*
X107202462Y-75606279D01*
X107143721Y-75547538D01*
X107140496Y-75545676D01*
X107071783Y-75506003D01*
X107071782Y-75506002D01*
X107065201Y-75504238D01*
X106991536Y-75484500D01*
X106908464Y-75484500D01*
X106852058Y-75499613D01*
X106828217Y-75506002D01*
X106828216Y-75506003D01*
X106756285Y-75547534D01*
X106756276Y-75547540D01*
X106697540Y-75606276D01*
X106697534Y-75606285D01*
X106656003Y-75678216D01*
X106656002Y-75678217D01*
X106656001Y-75678222D01*
X106634500Y-75758464D01*
X105803724Y-75758464D01*
X105802462Y-75756279D01*
X105743721Y-75697538D01*
X105740496Y-75695676D01*
X105671783Y-75656003D01*
X105671782Y-75656002D01*
X105665201Y-75654238D01*
X105591536Y-75634500D01*
X105508464Y-75634500D01*
X105452058Y-75649613D01*
X105428217Y-75656002D01*
X105428216Y-75656003D01*
X105356285Y-75697534D01*
X105356276Y-75697540D01*
X105297540Y-75756276D01*
X105297534Y-75756285D01*
X105256003Y-75828216D01*
X105256002Y-75828217D01*
X105256001Y-75828222D01*
X105234500Y-75908464D01*
X100450500Y-75908464D01*
X100450500Y-75258464D01*
X115834500Y-75258464D01*
X115834500Y-75341536D01*
X115852434Y-75408466D01*
X115856002Y-75421782D01*
X115856003Y-75421783D01*
X115892214Y-75484500D01*
X115897538Y-75493721D01*
X115956279Y-75552462D01*
X115982434Y-75567563D01*
X116028216Y-75593996D01*
X116028217Y-75593997D01*
X116028219Y-75593997D01*
X116028222Y-75593999D01*
X116108464Y-75615500D01*
X116108467Y-75615500D01*
X116191533Y-75615500D01*
X116191536Y-75615500D01*
X116271778Y-75593999D01*
X116271780Y-75593997D01*
X116271782Y-75593997D01*
X116271783Y-75593996D01*
X116343721Y-75552462D01*
X116402462Y-75493721D01*
X116443999Y-75421778D01*
X116465500Y-75341536D01*
X116465500Y-75258464D01*
X116443999Y-75178222D01*
X116443997Y-75178219D01*
X116443997Y-75178217D01*
X116443996Y-75178216D01*
X116402465Y-75106285D01*
X116402462Y-75106279D01*
X116343721Y-75047538D01*
X116340496Y-75045676D01*
X116271783Y-75006003D01*
X116271782Y-75006002D01*
X116265201Y-75004238D01*
X116191536Y-74984500D01*
X116108464Y-74984500D01*
X116052058Y-74999613D01*
X116028217Y-75006002D01*
X116028216Y-75006003D01*
X115956285Y-75047534D01*
X115956276Y-75047540D01*
X115897540Y-75106276D01*
X115897534Y-75106285D01*
X115856003Y-75178216D01*
X115856002Y-75178217D01*
X115850826Y-75197534D01*
X115834500Y-75258464D01*
X100450500Y-75258464D01*
X100450500Y-74308464D01*
X110884500Y-74308464D01*
X110884500Y-74391536D01*
X110902109Y-74457252D01*
X110906002Y-74471782D01*
X110906003Y-74471783D01*
X110932733Y-74518079D01*
X110947538Y-74543721D01*
X111006279Y-74602462D01*
X111035879Y-74619552D01*
X111078216Y-74643996D01*
X111078217Y-74643997D01*
X111078219Y-74643997D01*
X111078222Y-74643999D01*
X111158464Y-74665500D01*
X111158467Y-74665500D01*
X111241533Y-74665500D01*
X111241536Y-74665500D01*
X111321778Y-74643999D01*
X111321780Y-74643997D01*
X111321782Y-74643997D01*
X111321783Y-74643996D01*
X111326049Y-74641533D01*
X111393721Y-74602462D01*
X111452462Y-74543721D01*
X111493999Y-74471778D01*
X111515500Y-74391536D01*
X111515500Y-74308464D01*
X111493999Y-74228222D01*
X111493997Y-74228219D01*
X111493997Y-74228217D01*
X111493996Y-74228216D01*
X111452465Y-74156285D01*
X111452462Y-74156279D01*
X111393721Y-74097538D01*
X111390496Y-74095676D01*
X111321783Y-74056003D01*
X111321782Y-74056002D01*
X111315201Y-74054238D01*
X111241536Y-74034500D01*
X111158464Y-74034500D01*
X111102058Y-74049613D01*
X111078217Y-74056002D01*
X111078216Y-74056003D01*
X111006285Y-74097534D01*
X111006276Y-74097540D01*
X110947540Y-74156276D01*
X110947534Y-74156285D01*
X110906003Y-74228216D01*
X110906002Y-74228217D01*
X110906001Y-74228222D01*
X110884500Y-74308464D01*
X100450500Y-74308464D01*
X100450500Y-72254051D01*
X100450763Y-72245972D01*
X100467503Y-71990575D01*
X100469617Y-71974523D01*
X100518749Y-71727521D01*
X100522947Y-71711856D01*
X100546978Y-71641061D01*
X100603899Y-71473378D01*
X100610097Y-71458413D01*
X100721490Y-71232529D01*
X100729587Y-71218505D01*
X100869521Y-71009079D01*
X100879359Y-70996256D01*
X101045438Y-70806881D01*
X101056881Y-70795438D01*
X101246256Y-70629359D01*
X101259079Y-70619521D01*
X101468505Y-70479587D01*
X101482529Y-70471490D01*
X101708413Y-70360097D01*
X101723378Y-70353899D01*
X101891061Y-70296978D01*
X101961856Y-70272947D01*
X101977523Y-70268749D01*
X102224523Y-70219617D01*
X102240575Y-70217503D01*
X102495971Y-70200764D01*
X102504052Y-70200500D01*
X102539882Y-70200500D01*
X132960118Y-70200500D01*
X132995948Y-70200500D01*
X133004028Y-70200764D01*
G37*
%TD.AperFunction*%
%TA.AperFunction,Conductor*%
G36*
X113490713Y-98721738D02*
G01*
X113512802Y-98723318D01*
X113523585Y-98731390D01*
X113536507Y-98735185D01*
X113551006Y-98751918D01*
X113568735Y-98765190D01*
X113573442Y-98777810D01*
X113582262Y-98787989D01*
X113585413Y-98809906D01*
X113593152Y-98830654D01*
X113590289Y-98843814D01*
X113592206Y-98857147D01*
X113583006Y-98877290D01*
X113578300Y-98898927D01*
X113565031Y-98916652D01*
X113563181Y-98920703D01*
X113557149Y-98927181D01*
X113469496Y-99014833D01*
X113469492Y-99014838D01*
X113400313Y-99134661D01*
X113400312Y-99134664D01*
X113364500Y-99268317D01*
X113364500Y-99406683D01*
X113400312Y-99540336D01*
X113426205Y-99585185D01*
X113433893Y-99598500D01*
X113450366Y-99666400D01*
X113427513Y-99732427D01*
X113372592Y-99775618D01*
X113326506Y-99784500D01*
X108673494Y-99784500D01*
X108606455Y-99764815D01*
X108560700Y-99712011D01*
X108550756Y-99642853D01*
X108566107Y-99598500D01*
X108599688Y-99540336D01*
X108635500Y-99406683D01*
X108635500Y-99268317D01*
X108599688Y-99134664D01*
X108530505Y-99014835D01*
X108442851Y-98927181D01*
X108409366Y-98865858D01*
X108414350Y-98796166D01*
X108456222Y-98740233D01*
X108521686Y-98715816D01*
X108530532Y-98715500D01*
X113469468Y-98715500D01*
X113490713Y-98721738D01*
G37*
%TD.AperFunction*%
%TA.AperFunction,Conductor*%
G36*
X118897125Y-98735185D02*
G01*
X118917767Y-98751819D01*
X119738767Y-99572819D01*
X119772252Y-99634142D01*
X119767268Y-99703834D01*
X119725396Y-99759767D01*
X119659932Y-99784184D01*
X119651086Y-99784500D01*
X114453494Y-99784500D01*
X114386455Y-99764815D01*
X114340700Y-99712011D01*
X114330756Y-99642853D01*
X114346107Y-99598500D01*
X114379688Y-99540336D01*
X114415500Y-99406683D01*
X114415500Y-99268317D01*
X114379688Y-99134664D01*
X114310505Y-99014835D01*
X114222851Y-98927181D01*
X114189366Y-98865858D01*
X114194350Y-98796166D01*
X114236222Y-98740233D01*
X114301686Y-98715816D01*
X114310532Y-98715500D01*
X118830086Y-98715500D01*
X118897125Y-98735185D01*
G37*
%TD.AperFunction*%
%TA.AperFunction,Conductor*%
G36*
X111030994Y-96360185D02*
G01*
X111076749Y-96412989D01*
X111086693Y-96482147D01*
X111057668Y-96545703D01*
X111051636Y-96552181D01*
X110997540Y-96606276D01*
X110997534Y-96606285D01*
X110956003Y-96678216D01*
X110956002Y-96678217D01*
X110949272Y-96703334D01*
X110934500Y-96758464D01*
X110934500Y-96841536D01*
X110950825Y-96902462D01*
X110956002Y-96921782D01*
X110956003Y-96921783D01*
X110975920Y-96956279D01*
X110997538Y-96993721D01*
X111056279Y-97052462D01*
X111069995Y-97060381D01*
X111128216Y-97093996D01*
X111128217Y-97093997D01*
X111128219Y-97093997D01*
X111128222Y-97093999D01*
X111208464Y-97115500D01*
X111208467Y-97115500D01*
X111268978Y-97115500D01*
X111295694Y-97123344D01*
X111323163Y-97127965D01*
X111328761Y-97133054D01*
X111336017Y-97135185D01*
X111354250Y-97156227D01*
X111374861Y-97174965D01*
X111379134Y-97184945D01*
X111381772Y-97187989D01*
X111388751Y-97207404D01*
X111391968Y-97219408D01*
X111391969Y-97219410D01*
X111390304Y-97289260D01*
X111351140Y-97347121D01*
X111286910Y-97374624D01*
X111272193Y-97375500D01*
X109516980Y-97375500D01*
X109449941Y-97355815D01*
X109429304Y-97339185D01*
X109286817Y-97196698D01*
X109253334Y-97135377D01*
X109250500Y-97109019D01*
X109250500Y-97103858D01*
X109250500Y-97103856D01*
X109226614Y-97014712D01*
X109226611Y-97014706D01*
X109180473Y-96934794D01*
X109180470Y-96934791D01*
X109180469Y-96934788D01*
X109115212Y-96869531D01*
X109115209Y-96869529D01*
X109115205Y-96869526D01*
X109035293Y-96823388D01*
X109035290Y-96823387D01*
X109035289Y-96823386D01*
X109035288Y-96823386D01*
X108946144Y-96799500D01*
X108853856Y-96799500D01*
X108764712Y-96823386D01*
X108764711Y-96823386D01*
X108764709Y-96823387D01*
X108764706Y-96823388D01*
X108684794Y-96869526D01*
X108684785Y-96869533D01*
X108681138Y-96873181D01*
X108619815Y-96906666D01*
X108593457Y-96909500D01*
X104600980Y-96909500D01*
X104533941Y-96889815D01*
X104513299Y-96873181D01*
X104192299Y-96552181D01*
X104158814Y-96490858D01*
X104163798Y-96421166D01*
X104205670Y-96365233D01*
X104271134Y-96340816D01*
X104279980Y-96340500D01*
X110963955Y-96340500D01*
X111030994Y-96360185D01*
G37*
%TD.AperFunction*%
%TA.AperFunction,Conductor*%
G36*
X122437058Y-96360185D02*
G01*
X122482813Y-96412989D01*
X122492757Y-96482147D01*
X122463732Y-96545703D01*
X122457700Y-96552181D01*
X122236700Y-96773181D01*
X122175377Y-96806666D01*
X122149019Y-96809500D01*
X113806543Y-96809500D01*
X113739504Y-96789815D01*
X113718862Y-96773181D01*
X113715214Y-96769533D01*
X113715212Y-96769531D01*
X113715209Y-96769529D01*
X113715205Y-96769526D01*
X113635293Y-96723388D01*
X113635290Y-96723387D01*
X113635289Y-96723386D01*
X113635288Y-96723386D01*
X113546144Y-96699500D01*
X113453856Y-96699500D01*
X113364712Y-96723386D01*
X113364711Y-96723386D01*
X113364709Y-96723387D01*
X113364706Y-96723388D01*
X113284794Y-96769526D01*
X113284785Y-96769533D01*
X113219533Y-96834785D01*
X113219526Y-96834794D01*
X113173388Y-96914706D01*
X113173387Y-96914709D01*
X113173386Y-96914711D01*
X113173386Y-96914712D01*
X113152525Y-96992567D01*
X113149500Y-97003856D01*
X113149500Y-97009019D01*
X113129815Y-97076058D01*
X113113181Y-97096700D01*
X112870700Y-97339181D01*
X112809377Y-97372666D01*
X112783019Y-97375500D01*
X112127807Y-97375500D01*
X112060768Y-97355815D01*
X112015013Y-97303011D01*
X112005069Y-97233853D01*
X112008032Y-97219408D01*
X112010478Y-97210278D01*
X112015500Y-97191536D01*
X112015500Y-97108464D01*
X111993999Y-97028222D01*
X111993997Y-97028219D01*
X111993997Y-97028217D01*
X111993996Y-97028216D01*
X111973230Y-96992250D01*
X111952462Y-96956279D01*
X111893721Y-96897538D01*
X111880345Y-96889815D01*
X111821783Y-96856003D01*
X111821782Y-96856002D01*
X111815201Y-96854238D01*
X111741536Y-96834500D01*
X111681022Y-96834500D01*
X111613983Y-96814815D01*
X111568228Y-96762011D01*
X111561249Y-96742600D01*
X111543999Y-96678222D01*
X111543997Y-96678219D01*
X111543997Y-96678217D01*
X111543996Y-96678216D01*
X111523230Y-96642250D01*
X111502462Y-96606279D01*
X111448364Y-96552181D01*
X111414879Y-96490858D01*
X111419863Y-96421166D01*
X111461735Y-96365233D01*
X111527199Y-96340816D01*
X111536045Y-96340500D01*
X122370019Y-96340500D01*
X122437058Y-96360185D01*
G37*
%TD.AperFunction*%
%TA.AperFunction,Conductor*%
G36*
X116659124Y-90944185D02*
G01*
X116704879Y-90996989D01*
X116714823Y-91066147D01*
X116685798Y-91129703D01*
X116679766Y-91136181D01*
X115367766Y-92448181D01*
X115306443Y-92481666D01*
X115280085Y-92484500D01*
X115208464Y-92484500D01*
X115152058Y-92499613D01*
X115128217Y-92506002D01*
X115128216Y-92506003D01*
X115056285Y-92547534D01*
X115056276Y-92547540D01*
X114997540Y-92606276D01*
X114997534Y-92606285D01*
X114956003Y-92678216D01*
X114956002Y-92678217D01*
X114951850Y-92693714D01*
X114934500Y-92758464D01*
X114934500Y-92841536D01*
X114950782Y-92902300D01*
X114956002Y-92921782D01*
X114956003Y-92921783D01*
X114984869Y-92971778D01*
X114997538Y-92993721D01*
X115056279Y-93052462D01*
X115092250Y-93073230D01*
X115128216Y-93093996D01*
X115128217Y-93093997D01*
X115128219Y-93093997D01*
X115128222Y-93093999D01*
X115208464Y-93115500D01*
X115208467Y-93115500D01*
X115291533Y-93115500D01*
X115291536Y-93115500D01*
X115371778Y-93093999D01*
X115371780Y-93093997D01*
X115371782Y-93093997D01*
X115371783Y-93093996D01*
X115443721Y-93052462D01*
X115502462Y-92993721D01*
X115543999Y-92921778D01*
X115565500Y-92841536D01*
X115565500Y-92769913D01*
X115585185Y-92702874D01*
X115601819Y-92682232D01*
X117082234Y-91201819D01*
X117143557Y-91168334D01*
X117169915Y-91165500D01*
X118401086Y-91165500D01*
X118468125Y-91185185D01*
X118513880Y-91237989D01*
X118523824Y-91307147D01*
X118494799Y-91370703D01*
X118488769Y-91377178D01*
X117906447Y-91959500D01*
X117325032Y-92540915D01*
X117263709Y-92574400D01*
X117237351Y-92577234D01*
X117232157Y-92577234D01*
X117149085Y-92577234D01*
X117104484Y-92589185D01*
X117068838Y-92598736D01*
X117068837Y-92598737D01*
X116996906Y-92640268D01*
X116996897Y-92640274D01*
X116938161Y-92699010D01*
X116938155Y-92699019D01*
X116896624Y-92770950D01*
X116896623Y-92770951D01*
X116888280Y-92802087D01*
X116875121Y-92851198D01*
X116875121Y-92934270D01*
X116885173Y-92971783D01*
X116896623Y-93014516D01*
X116896624Y-93014517D01*
X116931763Y-93075377D01*
X116938159Y-93086455D01*
X116996900Y-93145196D01*
X117008964Y-93152161D01*
X117068837Y-93186730D01*
X117068838Y-93186731D01*
X117068840Y-93186731D01*
X117068843Y-93186733D01*
X117149085Y-93208234D01*
X117149088Y-93208234D01*
X117232154Y-93208234D01*
X117232157Y-93208234D01*
X117312399Y-93186733D01*
X117312401Y-93186731D01*
X117312403Y-93186731D01*
X117312404Y-93186730D01*
X117384342Y-93145196D01*
X117443083Y-93086455D01*
X117484620Y-93014512D01*
X117506121Y-92934270D01*
X117506121Y-92879292D01*
X117525806Y-92812253D01*
X117542440Y-92791611D01*
X118882233Y-91451819D01*
X118943556Y-91418334D01*
X118969914Y-91415500D01*
X125275323Y-91415500D01*
X125342362Y-91435185D01*
X125388117Y-91487989D01*
X125398061Y-91557147D01*
X125395099Y-91571585D01*
X125374500Y-91648464D01*
X125374500Y-91731536D01*
X125390501Y-91791253D01*
X125396002Y-91811782D01*
X125396003Y-91811783D01*
X125428879Y-91868723D01*
X125437538Y-91883721D01*
X125496279Y-91942462D01*
X125525789Y-91959500D01*
X125568216Y-91983996D01*
X125568217Y-91983997D01*
X125568219Y-91983997D01*
X125568222Y-91983999D01*
X125648464Y-92005500D01*
X125648467Y-92005500D01*
X125731533Y-92005500D01*
X125731536Y-92005500D01*
X125811778Y-91983999D01*
X125811780Y-91983997D01*
X125811782Y-91983997D01*
X125811783Y-91983996D01*
X125837758Y-91968999D01*
X125883721Y-91942462D01*
X125893088Y-91933094D01*
X125954408Y-91899609D01*
X126024100Y-91904591D01*
X126054975Y-91924339D01*
X126056375Y-91922515D01*
X126062814Y-91927455D01*
X126062821Y-91927462D01*
X126088807Y-91942465D01*
X126134758Y-91968996D01*
X126134759Y-91968997D01*
X126134761Y-91968997D01*
X126134764Y-91968999D01*
X126215006Y-91990500D01*
X126215009Y-91990500D01*
X126298075Y-91990500D01*
X126298078Y-91990500D01*
X126378320Y-91968999D01*
X126378322Y-91968997D01*
X126378324Y-91968997D01*
X126378325Y-91968996D01*
X126400829Y-91956003D01*
X126450263Y-91927462D01*
X126509004Y-91868721D01*
X126550541Y-91796778D01*
X126572042Y-91716536D01*
X126572042Y-91633464D01*
X126555463Y-91571591D01*
X126557126Y-91501744D01*
X126596288Y-91443881D01*
X126660516Y-91416377D01*
X126675238Y-91415500D01*
X129141911Y-91415500D01*
X129208950Y-91435185D01*
X129254705Y-91487989D01*
X129264649Y-91557147D01*
X129235624Y-91620703D01*
X129229592Y-91627181D01*
X128258592Y-92598181D01*
X128197269Y-92631666D01*
X128170911Y-92634500D01*
X119582046Y-92634500D01*
X119515007Y-92614815D01*
X119494366Y-92598182D01*
X119443724Y-92547541D01*
X119443723Y-92547540D01*
X119443721Y-92547538D01*
X119435747Y-92542934D01*
X119371783Y-92506003D01*
X119371782Y-92506002D01*
X119365201Y-92504238D01*
X119291536Y-92484500D01*
X119208464Y-92484500D01*
X119152058Y-92499613D01*
X119128217Y-92506002D01*
X119128216Y-92506003D01*
X119056285Y-92547534D01*
X119056276Y-92547540D01*
X118997540Y-92606276D01*
X118997534Y-92606285D01*
X118956003Y-92678216D01*
X118956002Y-92678217D01*
X118951850Y-92693714D01*
X118934500Y-92758464D01*
X118934500Y-92841536D01*
X118950782Y-92902300D01*
X118956002Y-92921782D01*
X118956003Y-92921783D01*
X118984869Y-92971778D01*
X118997538Y-92993721D01*
X119056279Y-93052462D01*
X119092250Y-93073230D01*
X119128216Y-93093996D01*
X119128217Y-93093997D01*
X119128219Y-93093997D01*
X119128222Y-93093999D01*
X119208464Y-93115500D01*
X119208467Y-93115500D01*
X119291533Y-93115500D01*
X119291536Y-93115500D01*
X119371778Y-93093999D01*
X119371780Y-93093997D01*
X119371782Y-93093997D01*
X119371783Y-93093996D01*
X119443721Y-93052462D01*
X119481671Y-93014512D01*
X119494366Y-93001818D01*
X119555689Y-92968334D01*
X119582046Y-92965500D01*
X128323744Y-92965500D01*
X128323745Y-92965500D01*
X128384573Y-92940304D01*
X129793213Y-91531664D01*
X129806146Y-91524601D01*
X129816027Y-91513665D01*
X129836195Y-91508193D01*
X129854536Y-91498179D01*
X129869236Y-91499230D01*
X129883459Y-91495372D01*
X129903381Y-91501672D01*
X129924228Y-91503163D01*
X129936027Y-91511995D01*
X129950077Y-91516439D01*
X129963432Y-91532511D01*
X129980161Y-91545035D01*
X129986091Y-91559781D01*
X129994730Y-91570178D01*
X129999445Y-91592987D01*
X130003971Y-91604241D01*
X130004894Y-91611762D01*
X130004894Y-91690146D01*
X130022641Y-91756381D01*
X130023699Y-91764995D01*
X130019367Y-91791253D01*
X130018734Y-91817857D01*
X130013585Y-91826303D01*
X130012327Y-91833933D01*
X130001897Y-91845477D01*
X129988303Y-91867780D01*
X124812845Y-97043239D01*
X124751522Y-97076724D01*
X124681830Y-97071740D01*
X124625897Y-97029868D01*
X124617782Y-97017566D01*
X124603350Y-96992570D01*
X124544609Y-96933829D01*
X124523745Y-96921783D01*
X124472671Y-96892294D01*
X124472670Y-96892293D01*
X124463422Y-96889815D01*
X124392424Y-96870791D01*
X124320802Y-96870791D01*
X124291361Y-96862146D01*
X124261375Y-96855623D01*
X124256359Y-96851868D01*
X124253763Y-96851106D01*
X124233121Y-96834472D01*
X124151819Y-96753170D01*
X124118334Y-96691847D01*
X124115500Y-96665489D01*
X124115500Y-94978856D01*
X124649500Y-94978856D01*
X124649500Y-95071144D01*
X124670799Y-95150634D01*
X124673387Y-95160290D01*
X124673388Y-95160293D01*
X124719526Y-95240205D01*
X124719529Y-95240209D01*
X124719531Y-95240212D01*
X124784788Y-95305469D01*
X124784791Y-95305470D01*
X124784794Y-95305473D01*
X124864706Y-95351611D01*
X124864707Y-95351611D01*
X124864712Y-95351614D01*
X124953856Y-95375500D01*
X124953858Y-95375500D01*
X125046142Y-95375500D01*
X125046144Y-95375500D01*
X125135288Y-95351614D01*
X125215212Y-95305469D01*
X125280469Y-95240212D01*
X125326614Y-95160288D01*
X125350500Y-95071144D01*
X125350500Y-94978856D01*
X125326614Y-94889712D01*
X125326611Y-94889706D01*
X125280473Y-94809794D01*
X125280470Y-94809791D01*
X125280469Y-94809788D01*
X125215212Y-94744531D01*
X125215209Y-94744529D01*
X125215205Y-94744526D01*
X125135293Y-94698388D01*
X125135290Y-94698387D01*
X125135289Y-94698386D01*
X125135288Y-94698386D01*
X125046144Y-94674500D01*
X124953856Y-94674500D01*
X124864712Y-94698386D01*
X124864711Y-94698386D01*
X124864709Y-94698387D01*
X124864706Y-94698388D01*
X124784794Y-94744526D01*
X124784785Y-94744533D01*
X124719533Y-94809785D01*
X124719526Y-94809794D01*
X124673388Y-94889706D01*
X124673387Y-94889709D01*
X124673386Y-94889711D01*
X124673386Y-94889712D01*
X124649500Y-94978856D01*
X124115500Y-94978856D01*
X124115500Y-94032045D01*
X124135185Y-93965006D01*
X124151819Y-93944364D01*
X124202462Y-93893721D01*
X124243999Y-93821778D01*
X124265500Y-93741536D01*
X124265500Y-93658464D01*
X124243999Y-93578222D01*
X124243997Y-93578219D01*
X124243997Y-93578217D01*
X124243996Y-93578216D01*
X124223230Y-93542250D01*
X124202462Y-93506279D01*
X124143721Y-93447538D01*
X124123344Y-93435773D01*
X124071783Y-93406003D01*
X124071782Y-93406002D01*
X124065201Y-93404238D01*
X123991536Y-93384500D01*
X123908464Y-93384500D01*
X123852058Y-93399613D01*
X123828217Y-93406002D01*
X123828216Y-93406003D01*
X123756285Y-93447534D01*
X123756276Y-93447540D01*
X123697540Y-93506276D01*
X123697534Y-93506285D01*
X123656003Y-93578216D01*
X123656002Y-93578217D01*
X123656001Y-93578222D01*
X123634500Y-93658464D01*
X123634500Y-93741536D01*
X123648819Y-93794974D01*
X123656002Y-93821782D01*
X123656003Y-93821783D01*
X123681177Y-93865384D01*
X123697538Y-93893721D01*
X123697540Y-93893723D01*
X123748181Y-93944364D01*
X123781666Y-94005687D01*
X123784500Y-94032045D01*
X123784500Y-94711126D01*
X123764815Y-94778165D01*
X123712011Y-94823920D01*
X123642853Y-94833864D01*
X123598501Y-94818514D01*
X123585290Y-94810886D01*
X123525858Y-94794962D01*
X123496144Y-94787000D01*
X123403856Y-94787000D01*
X123314712Y-94810886D01*
X123314711Y-94810886D01*
X123314709Y-94810887D01*
X123314706Y-94810888D01*
X123234794Y-94857026D01*
X123234785Y-94857033D01*
X123169533Y-94922285D01*
X123169526Y-94922294D01*
X123123388Y-95002206D01*
X123123387Y-95002209D01*
X123123386Y-95002211D01*
X123123386Y-95002212D01*
X123106428Y-95065500D01*
X123099500Y-95091356D01*
X123099500Y-95096519D01*
X123079815Y-95163558D01*
X123063181Y-95184200D01*
X122424200Y-95823181D01*
X122362877Y-95856666D01*
X122336519Y-95859500D01*
X109090032Y-95859500D01*
X109022993Y-95839815D01*
X108977238Y-95787011D01*
X108967294Y-95717853D01*
X108975470Y-95688049D01*
X108976609Y-95685296D01*
X108976614Y-95685288D01*
X109000500Y-95596144D01*
X109000500Y-95503856D01*
X108976614Y-95414712D01*
X108936609Y-95345422D01*
X108930473Y-95334794D01*
X108930470Y-95334791D01*
X108930469Y-95334788D01*
X108865212Y-95269531D01*
X108865209Y-95269529D01*
X108865205Y-95269526D01*
X108785293Y-95223388D01*
X108785290Y-95223387D01*
X108785289Y-95223386D01*
X108785288Y-95223386D01*
X108696144Y-95199500D01*
X108603856Y-95199500D01*
X108514712Y-95223386D01*
X108514711Y-95223386D01*
X108514709Y-95223387D01*
X108514706Y-95223388D01*
X108495527Y-95234461D01*
X108468467Y-95241024D01*
X108442375Y-95250757D01*
X108434979Y-95249148D01*
X108427626Y-95250932D01*
X108401312Y-95241824D01*
X108374102Y-95235905D01*
X108365408Y-95229397D01*
X108361600Y-95228079D01*
X108345848Y-95214754D01*
X108343051Y-95211957D01*
X108309566Y-95150634D01*
X108314550Y-95080942D01*
X108356422Y-95025009D01*
X108368720Y-95016896D01*
X108393721Y-95002462D01*
X108431368Y-94964815D01*
X108444366Y-94951818D01*
X108505689Y-94918334D01*
X108532046Y-94915500D01*
X110582919Y-94915500D01*
X110582920Y-94915500D01*
X110643748Y-94890304D01*
X112642063Y-92891988D01*
X112703384Y-92858505D01*
X112773076Y-92863489D01*
X112829009Y-92905361D01*
X112849516Y-92947575D01*
X112855078Y-92968334D01*
X112856002Y-92971780D01*
X112856003Y-92971783D01*
X112884248Y-93020703D01*
X112897538Y-93043721D01*
X112956279Y-93102462D01*
X112978861Y-93115500D01*
X113028216Y-93143996D01*
X113028217Y-93143997D01*
X113028219Y-93143997D01*
X113028222Y-93143999D01*
X113108464Y-93165500D01*
X113108467Y-93165500D01*
X113191533Y-93165500D01*
X113191536Y-93165500D01*
X113271778Y-93143999D01*
X113271780Y-93143997D01*
X113271782Y-93143997D01*
X113271783Y-93143996D01*
X113284420Y-93136700D01*
X113343721Y-93102462D01*
X113402462Y-93043721D01*
X113443999Y-92971778D01*
X113465500Y-92891536D01*
X113465500Y-92819913D01*
X113485185Y-92752874D01*
X113501819Y-92732232D01*
X115273233Y-90960819D01*
X115334556Y-90927334D01*
X115360914Y-90924500D01*
X116592085Y-90924500D01*
X116659124Y-90944185D01*
G37*
%TD.AperFunction*%
%TA.AperFunction,Conductor*%
G36*
X102103834Y-79829774D02*
G01*
X102159767Y-79871646D01*
X102184184Y-79937110D01*
X102184500Y-79945956D01*
X102184500Y-93495019D01*
X102164815Y-93562058D01*
X102112011Y-93607813D01*
X102042853Y-93617757D01*
X101979297Y-93588732D01*
X101972819Y-93582700D01*
X101526819Y-93136700D01*
X101493334Y-93075377D01*
X101490500Y-93049019D01*
X101490500Y-82556543D01*
X101510185Y-82489504D01*
X101526819Y-82468862D01*
X101528104Y-82467577D01*
X101530469Y-82465212D01*
X101576614Y-82385288D01*
X101600500Y-82296144D01*
X101600500Y-82203856D01*
X101576614Y-82114712D01*
X101559171Y-82084500D01*
X101530473Y-82034794D01*
X101530470Y-82034791D01*
X101530469Y-82034788D01*
X101465212Y-81969531D01*
X101465209Y-81969529D01*
X101465205Y-81969526D01*
X101385293Y-81923388D01*
X101385290Y-81923387D01*
X101385289Y-81923386D01*
X101385288Y-81923386D01*
X101296144Y-81899500D01*
X101203856Y-81899500D01*
X101114712Y-81923386D01*
X101114711Y-81923386D01*
X101114709Y-81923387D01*
X101111942Y-81924533D01*
X101109422Y-81924803D01*
X101106861Y-81925490D01*
X101106753Y-81925090D01*
X101042472Y-81931995D01*
X100979996Y-81900714D01*
X100944349Y-81840622D01*
X100940500Y-81809967D01*
X100940500Y-80941956D01*
X100960185Y-80874917D01*
X100976819Y-80854275D01*
X101972819Y-79858275D01*
X102034142Y-79824790D01*
X102103834Y-79829774D01*
G37*
%TD.AperFunction*%
%TA.AperFunction,Conductor*%
G36*
X120340398Y-78367126D02*
G01*
X120353834Y-78368087D01*
X120371560Y-78381357D01*
X120391703Y-78390556D01*
X120398985Y-78401887D01*
X120409767Y-78409959D01*
X120417504Y-78430704D01*
X120429477Y-78449334D01*
X120432628Y-78471252D01*
X120434184Y-78475423D01*
X120434500Y-78484269D01*
X120434500Y-78531536D01*
X120451177Y-78593776D01*
X120456002Y-78611782D01*
X120456003Y-78611783D01*
X120495676Y-78680496D01*
X120497538Y-78683721D01*
X120497540Y-78683723D01*
X120523181Y-78709364D01*
X120556666Y-78770687D01*
X120559500Y-78797045D01*
X120559500Y-80719730D01*
X120539815Y-80786769D01*
X120523181Y-80807411D01*
X114467411Y-86863181D01*
X114406088Y-86896666D01*
X114379730Y-86899500D01*
X114303856Y-86899500D01*
X114214712Y-86923386D01*
X114214711Y-86923386D01*
X114214709Y-86923387D01*
X114214706Y-86923388D01*
X114134794Y-86969526D01*
X114134785Y-86969533D01*
X114069533Y-87034785D01*
X114069526Y-87034794D01*
X114023388Y-87114706D01*
X114023387Y-87114709D01*
X114023386Y-87114711D01*
X114023386Y-87114712D01*
X114006886Y-87176292D01*
X113999500Y-87203856D01*
X113999500Y-87279729D01*
X113979815Y-87346768D01*
X113963181Y-87367410D01*
X108727181Y-92603410D01*
X108707744Y-92614022D01*
X108691011Y-92628523D01*
X108677679Y-92630439D01*
X108665858Y-92636895D01*
X108643771Y-92635315D01*
X108621853Y-92638467D01*
X108609601Y-92632871D01*
X108596166Y-92631911D01*
X108578439Y-92618640D01*
X108558297Y-92609442D01*
X108551014Y-92598110D01*
X108540233Y-92590039D01*
X108532495Y-92569293D01*
X108520523Y-92550664D01*
X108517371Y-92528745D01*
X108515816Y-92524575D01*
X108515500Y-92515729D01*
X108515500Y-92469913D01*
X108535185Y-92402874D01*
X108551819Y-92382232D01*
X108950053Y-91983999D01*
X109390304Y-91543748D01*
X109415500Y-91482920D01*
X109415500Y-91417080D01*
X109415500Y-88069914D01*
X109435185Y-88002875D01*
X109451819Y-87982233D01*
X112025944Y-85408108D01*
X114773036Y-82661015D01*
X114834357Y-82627532D01*
X114904049Y-82632516D01*
X114959982Y-82674388D01*
X114984399Y-82739852D01*
X114984090Y-82750337D01*
X114984500Y-82750337D01*
X114984500Y-82758464D01*
X114984500Y-82841536D01*
X114987246Y-82851783D01*
X115006002Y-82921782D01*
X115006003Y-82921783D01*
X115041039Y-82982465D01*
X115047538Y-82993721D01*
X115106279Y-83052462D01*
X115142250Y-83073230D01*
X115178216Y-83093996D01*
X115178217Y-83093997D01*
X115178219Y-83093997D01*
X115178222Y-83093999D01*
X115258464Y-83115500D01*
X115258467Y-83115500D01*
X115341533Y-83115500D01*
X115341536Y-83115500D01*
X115421778Y-83093999D01*
X115421780Y-83093997D01*
X115421782Y-83093997D01*
X115421783Y-83093996D01*
X115493721Y-83052462D01*
X115521094Y-83025088D01*
X115541355Y-83008702D01*
X115569456Y-82990500D01*
X115587892Y-82990500D01*
X115587893Y-82990500D01*
X115657910Y-82961498D01*
X115711498Y-82907910D01*
X115711498Y-82907908D01*
X117615465Y-81003941D01*
X117676786Y-80970458D01*
X117746478Y-80975442D01*
X117802411Y-81017314D01*
X117810526Y-81029615D01*
X117847538Y-81093721D01*
X117906279Y-81152462D01*
X117942250Y-81173230D01*
X117978216Y-81193996D01*
X117978217Y-81193997D01*
X117978219Y-81193997D01*
X117978222Y-81193999D01*
X118058464Y-81215500D01*
X118058467Y-81215500D01*
X118141533Y-81215500D01*
X118141536Y-81215500D01*
X118221778Y-81193999D01*
X118221780Y-81193997D01*
X118221782Y-81193997D01*
X118221783Y-81193996D01*
X118226049Y-81191533D01*
X118293721Y-81152462D01*
X118352462Y-81093721D01*
X118393999Y-81021778D01*
X118415500Y-80941536D01*
X118415500Y-80858464D01*
X118393999Y-80778222D01*
X118393997Y-80778219D01*
X118393997Y-80778217D01*
X118393996Y-80778216D01*
X118352465Y-80706285D01*
X118352462Y-80706279D01*
X118293721Y-80647538D01*
X118229621Y-80610529D01*
X118181408Y-80559963D01*
X118168186Y-80491356D01*
X118194154Y-80426492D01*
X118203934Y-80415472D01*
X120222821Y-78396586D01*
X120242255Y-78385975D01*
X120258989Y-78371475D01*
X120272320Y-78369558D01*
X120284142Y-78363103D01*
X120306228Y-78364682D01*
X120328147Y-78361531D01*
X120340398Y-78367126D01*
G37*
%TD.AperFunction*%
%TD*%
%TA.AperFunction,Conductor*%
%TO.N,+1V1*%
G36*
X127667281Y-84417281D02*
G01*
X128032719Y-84782719D01*
X128050000Y-84824438D01*
X128050000Y-89625562D01*
X128032719Y-89667281D01*
X127217281Y-90482719D01*
X127175562Y-90500000D01*
X126274438Y-90500000D01*
X126232719Y-90482719D01*
X125879253Y-90129253D01*
X125863984Y-90102806D01*
X125843999Y-90028222D01*
X125802462Y-89956279D01*
X125802461Y-89956277D01*
X125743723Y-89897539D01*
X125743720Y-89897537D01*
X125671780Y-89856002D01*
X125671777Y-89856000D01*
X125632554Y-89845490D01*
X125597192Y-89836015D01*
X125570746Y-89820746D01*
X125167281Y-89417281D01*
X125150000Y-89375562D01*
X125150000Y-89113794D01*
X125157905Y-89084294D01*
X125165589Y-89070984D01*
X125193999Y-89021778D01*
X125215500Y-88941536D01*
X125215500Y-88858464D01*
X125193999Y-88778222D01*
X125184992Y-88762623D01*
X125157905Y-88715705D01*
X125150000Y-88686205D01*
X125150000Y-88199898D01*
X125167281Y-88158179D01*
X125209000Y-88140898D01*
X125224232Y-88143944D01*
X125224486Y-88142998D01*
X125228222Y-88143999D01*
X125308464Y-88165500D01*
X125308468Y-88165500D01*
X125391532Y-88165500D01*
X125391536Y-88165500D01*
X125471778Y-88143999D01*
X125543721Y-88102462D01*
X125543721Y-88102461D01*
X125543723Y-88102461D01*
X125602461Y-88043723D01*
X125602462Y-88043721D01*
X125643999Y-87971778D01*
X125665500Y-87891536D01*
X125665500Y-87808464D01*
X125643999Y-87728222D01*
X125603724Y-87658464D01*
X126834500Y-87658464D01*
X126834500Y-87741536D01*
X126843587Y-87775448D01*
X126856000Y-87821777D01*
X126856002Y-87821780D01*
X126897537Y-87893720D01*
X126897539Y-87893723D01*
X126956277Y-87952461D01*
X126956279Y-87952462D01*
X127028222Y-87993999D01*
X127108464Y-88015500D01*
X127108468Y-88015500D01*
X127191532Y-88015500D01*
X127191536Y-88015500D01*
X127271778Y-87993999D01*
X127343721Y-87952462D01*
X127343721Y-87952461D01*
X127343723Y-87952461D01*
X127402461Y-87893723D01*
X127402462Y-87893721D01*
X127443999Y-87821778D01*
X127465500Y-87741536D01*
X127465500Y-87658464D01*
X127443999Y-87578222D01*
X127402462Y-87506279D01*
X127402461Y-87506277D01*
X127343723Y-87447539D01*
X127343720Y-87447537D01*
X127271780Y-87406002D01*
X127271777Y-87406000D01*
X127225448Y-87393587D01*
X127191536Y-87384500D01*
X127108464Y-87384500D01*
X127091507Y-87389043D01*
X127028222Y-87406000D01*
X127028219Y-87406002D01*
X126956279Y-87447537D01*
X126897537Y-87506279D01*
X126856002Y-87578219D01*
X126856000Y-87578222D01*
X126839043Y-87641507D01*
X126834500Y-87658464D01*
X125603724Y-87658464D01*
X125602462Y-87656279D01*
X125602461Y-87656278D01*
X125602460Y-87656276D01*
X125543723Y-87597539D01*
X125543720Y-87597537D01*
X125471780Y-87556002D01*
X125471777Y-87556000D01*
X125425448Y-87543587D01*
X125391536Y-87534500D01*
X125308464Y-87534500D01*
X125241577Y-87552422D01*
X125224486Y-87557002D01*
X125223852Y-87554637D01*
X125186320Y-87554568D01*
X125154449Y-87522578D01*
X125150000Y-87500101D01*
X125150000Y-86858464D01*
X125884500Y-86858464D01*
X125884500Y-86941536D01*
X125893587Y-86975448D01*
X125906000Y-87021777D01*
X125906002Y-87021780D01*
X125947537Y-87093720D01*
X125947539Y-87093723D01*
X126006277Y-87152461D01*
X126006279Y-87152462D01*
X126078222Y-87193999D01*
X126158464Y-87215500D01*
X126158468Y-87215500D01*
X126241532Y-87215500D01*
X126241536Y-87215500D01*
X126321778Y-87193999D01*
X126393721Y-87152462D01*
X126393721Y-87152461D01*
X126393723Y-87152461D01*
X126452461Y-87093723D01*
X126452462Y-87093721D01*
X126493999Y-87021778D01*
X126515500Y-86941536D01*
X126515500Y-86858464D01*
X126784500Y-86858464D01*
X126784500Y-86941536D01*
X126793587Y-86975448D01*
X126806000Y-87021777D01*
X126806002Y-87021780D01*
X126847537Y-87093720D01*
X126847539Y-87093723D01*
X126906277Y-87152461D01*
X126906279Y-87152462D01*
X126978222Y-87193999D01*
X127058464Y-87215500D01*
X127058468Y-87215500D01*
X127141532Y-87215500D01*
X127141536Y-87215500D01*
X127221778Y-87193999D01*
X127293721Y-87152462D01*
X127293721Y-87152461D01*
X127293723Y-87152461D01*
X127352461Y-87093723D01*
X127352462Y-87093721D01*
X127393999Y-87021778D01*
X127415500Y-86941536D01*
X127415500Y-86858464D01*
X127393999Y-86778222D01*
X127352462Y-86706279D01*
X127352461Y-86706277D01*
X127293723Y-86647539D01*
X127293720Y-86647537D01*
X127221780Y-86606002D01*
X127221777Y-86606000D01*
X127175448Y-86593587D01*
X127141536Y-86584500D01*
X127058464Y-86584500D01*
X127041507Y-86589043D01*
X126978222Y-86606000D01*
X126978219Y-86606002D01*
X126906279Y-86647537D01*
X126847537Y-86706279D01*
X126806002Y-86778219D01*
X126806000Y-86778222D01*
X126789043Y-86841507D01*
X126784500Y-86858464D01*
X126515500Y-86858464D01*
X126493999Y-86778222D01*
X126452462Y-86706279D01*
X126452461Y-86706277D01*
X126393723Y-86647539D01*
X126393720Y-86647537D01*
X126321780Y-86606002D01*
X126321777Y-86606000D01*
X126275448Y-86593587D01*
X126241536Y-86584500D01*
X126158464Y-86584500D01*
X126141507Y-86589043D01*
X126078222Y-86606000D01*
X126078219Y-86606002D01*
X126006279Y-86647537D01*
X125947537Y-86706279D01*
X125906002Y-86778219D01*
X125906000Y-86778222D01*
X125889043Y-86841507D01*
X125884500Y-86858464D01*
X125150000Y-86858464D01*
X125150000Y-84724438D01*
X125167281Y-84682719D01*
X125432719Y-84417281D01*
X125474438Y-84400000D01*
X127625562Y-84400000D01*
X127667281Y-84417281D01*
G37*
%TD.AperFunction*%
%TD*%
M02*
